%FSLAX45Y45*%
G04 Gerber Fmt 4.5, Leading zero omitted, Abs format (unit mm)*
G04 Created by KiCad (PCBNEW (6.0.4)) date 2022-10-03 14:37:33*
%MOMM*%
%LPD*%
G01*
G04 APERTURE LIST*
%TA.AperFunction,Profile*%
%ADD10C,0.150000*%
%TD*%
%ADD11C,0.200000*%
%ADD12C,0.040000*%
%ADD13C,0.050000*%
%ADD14C,0.070000*%
%ADD15C,0.080000*%
%ADD16C,0.100000*%
%ADD17C,0.320000*%
G04 APERTURE END LIST*
D10*
X8935600Y7200000D02*
X8935600Y2400D01*
X-10000Y7200000D02*
X8935600Y7200000D01*
X0Y0D02*
X-10000Y7200000D01*
X8935600Y2400D02*
X0Y0D01*
D11*
D12*
X200000Y110000D02*
X240000Y70000D01*
X240000Y110000D02*
X200000Y70000D01*
X210000Y3990000D02*
X250000Y3950000D01*
X250000Y3990000D02*
X210000Y3950000D01*
X940000Y1105000D02*
X980000Y1065000D01*
X980000Y1105000D02*
X940000Y1065000D01*
X945000Y1717500D02*
X985000Y1677500D01*
X985000Y1717500D02*
X945000Y1677500D01*
X950000Y7110000D02*
X990000Y7070000D01*
X990000Y7110000D02*
X950000Y7070000D01*
X960000Y2440000D02*
X1000000Y2400000D01*
X1000000Y2440000D02*
X960000Y2400000D01*
X1400000Y1367500D02*
X1440000Y1327500D01*
X1440000Y1367500D02*
X1400000Y1327500D01*
X1657500Y2402500D02*
X1697500Y2362500D01*
X1697500Y2402500D02*
X1657500Y2362500D01*
X1829000Y1724200D02*
X1869000Y1684200D01*
X1869000Y1724200D02*
X1829000Y1684200D01*
X1829000Y1114600D02*
X1869000Y1074600D01*
X1869000Y1114600D02*
X1829000Y1074600D01*
X2160000Y3050000D02*
X2200000Y3010000D01*
X2200000Y3050000D02*
X2160000Y3010000D01*
X2365000Y1915000D02*
X2405000Y1875000D01*
X2405000Y1915000D02*
X2365000Y1875000D01*
X2365000Y1115000D02*
X2405000Y1075000D01*
X2405000Y1115000D02*
X2365000Y1075000D01*
X2414657Y2260000D02*
X2454657Y2220000D01*
X2454657Y2260000D02*
X2414657Y2220000D01*
X2589950Y3890000D02*
X2629950Y3850000D01*
X2629950Y3890000D02*
X2589950Y3850000D01*
X2690000Y2390000D02*
X2730000Y2350000D01*
X2730000Y2390000D02*
X2690000Y2350000D01*
X2825000Y6265000D02*
X2865000Y6225000D01*
X2865000Y6265000D02*
X2825000Y6225000D01*
X2917450Y5508800D02*
X2957450Y5468800D01*
X2957450Y5508800D02*
X2917450Y5468800D01*
X2920000Y5710000D02*
X2960000Y5670000D01*
X2960000Y5710000D02*
X2920000Y5670000D01*
X2921200Y352600D02*
X2961200Y312600D01*
X2961200Y352600D02*
X2921200Y312600D01*
X2997400Y2638600D02*
X3037400Y2598600D01*
X3037400Y2638600D02*
X2997400Y2598600D01*
X3048200Y5586550D02*
X3088200Y5546550D01*
X3088200Y5586550D02*
X3048200Y5546550D01*
X3050000Y1347500D02*
X3090000Y1307500D01*
X3090000Y1347500D02*
X3050000Y1307500D01*
X3080000Y2430000D02*
X3120000Y2390000D01*
X3120000Y2430000D02*
X3080000Y2390000D01*
X3120000Y4190000D02*
X3160000Y4150000D01*
X3160000Y4190000D02*
X3120000Y4150000D01*
X3120000Y3300000D02*
X3160000Y3260000D01*
X3160000Y3300000D02*
X3120000Y3260000D01*
X3124400Y5000800D02*
X3164400Y4960800D01*
X3164400Y5000800D02*
X3124400Y4960800D01*
X3130000Y5830000D02*
X3170000Y5790000D01*
X3170000Y5830000D02*
X3130000Y5790000D01*
X3251400Y5182350D02*
X3291400Y5142350D01*
X3291400Y5182350D02*
X3251400Y5142350D01*
X3265000Y4665000D02*
X3305000Y4625000D01*
X3305000Y4665000D02*
X3265000Y4625000D01*
X3267746Y6587746D02*
X3307746Y6547746D01*
X3307746Y6587746D02*
X3267746Y6547746D01*
X3276800Y2493700D02*
X3316800Y2453700D01*
X3316800Y2493700D02*
X3276800Y2453700D01*
X3305000Y1355000D02*
X3345000Y1315000D01*
X3345000Y1355000D02*
X3305000Y1315000D01*
X3331350Y5830000D02*
X3371350Y5790000D01*
X3371350Y5830000D02*
X3331350Y5790000D01*
X3350000Y2745000D02*
X3390000Y2705000D01*
X3390000Y2745000D02*
X3350000Y2705000D01*
X3378400Y5000800D02*
X3418400Y4960800D01*
X3418400Y5000800D02*
X3378400Y4960800D01*
X3505400Y3172000D02*
X3545400Y3132000D01*
X3545400Y3172000D02*
X3505400Y3132000D01*
X3577500Y2615000D02*
X3617500Y2575000D01*
X3617500Y2615000D02*
X3577500Y2575000D01*
X3600000Y4172500D02*
X3640000Y4132500D01*
X3640000Y4172500D02*
X3600000Y4132500D01*
X3607000Y4824827D02*
X3647000Y4784827D01*
X3647000Y4824827D02*
X3607000Y4784827D01*
X3657800Y4924600D02*
X3697800Y4884600D01*
X3697800Y4924600D02*
X3657800Y4884600D01*
X3690000Y5840000D02*
X3730000Y5800000D01*
X3730000Y5840000D02*
X3690000Y5800000D01*
X3720000Y7110000D02*
X3760000Y7070000D01*
X3760000Y7110000D02*
X3720000Y7070000D01*
X3720000Y6280000D02*
X3760000Y6240000D01*
X3760000Y6280000D02*
X3720000Y6240000D01*
X3759400Y3273600D02*
X3799400Y3233600D01*
X3799400Y3273600D02*
X3759400Y3233600D01*
X3770000Y2727500D02*
X3810000Y2687500D01*
X3810000Y2727500D02*
X3770000Y2687500D01*
X3886400Y4823000D02*
X3926400Y4783000D01*
X3926400Y4823000D02*
X3886400Y4783000D01*
X3907500Y4170000D02*
X3947500Y4130000D01*
X3947500Y4170000D02*
X3907500Y4130000D01*
X3925682Y5824318D02*
X3965682Y5784318D01*
X3965682Y5824318D02*
X3925682Y5784318D01*
X3961054Y6574054D02*
X4001054Y6534054D01*
X4001054Y6574054D02*
X3961054Y6534054D01*
X4007500Y4580000D02*
X4047500Y4540000D01*
X4047500Y4580000D02*
X4007500Y4540000D01*
X4020000Y5262500D02*
X4060000Y5222500D01*
X4060000Y5262500D02*
X4020000Y5222500D01*
X4020000Y3370000D02*
X4060000Y3330000D01*
X4060000Y3370000D02*
X4020000Y3330000D01*
X4037500Y2837500D02*
X4077500Y2797500D01*
X4077500Y2837500D02*
X4037500Y2797500D01*
X4064200Y3578400D02*
X4104200Y3538400D01*
X4104200Y3578400D02*
X4064200Y3538400D01*
X4084802Y4172500D02*
X4124802Y4132500D01*
X4124802Y4172500D02*
X4084802Y4132500D01*
X4120000Y1350000D02*
X4160000Y1310000D01*
X4160000Y1350000D02*
X4120000Y1310000D01*
X4165800Y352600D02*
X4205800Y312600D01*
X4205800Y352600D02*
X4165800Y312600D01*
X4190000Y5830000D02*
X4230000Y5790000D01*
X4230000Y5830000D02*
X4190000Y5790000D01*
X4192999Y4746800D02*
X4232999Y4706800D01*
X4232999Y4746800D02*
X4192999Y4706800D01*
X4292800Y3578400D02*
X4332800Y3538400D01*
X4332800Y3578400D02*
X4292800Y3538400D01*
X4297128Y3458538D02*
X4337128Y3418538D01*
X4337128Y3458538D02*
X4297128Y3418538D01*
X4310000Y100000D02*
X4350000Y60000D01*
X4350000Y100000D02*
X4310000Y60000D01*
X4390000Y4170000D02*
X4430000Y4130000D01*
X4430000Y4170000D02*
X4390000Y4130000D01*
X4445000Y2270050D02*
X4485000Y2230050D01*
X4485000Y2270050D02*
X4445000Y2230050D01*
X4445000Y355000D02*
X4485000Y315000D01*
X4485000Y355000D02*
X4445000Y315000D01*
X4489793Y4663821D02*
X4529793Y4623821D01*
X4529793Y4663821D02*
X4489793Y4623821D01*
X4520000Y6280000D02*
X4560000Y6240000D01*
X4560000Y6280000D02*
X4520000Y6240000D01*
X4521400Y4391200D02*
X4561400Y4351200D01*
X4561400Y4391200D02*
X4521400Y4351200D01*
X4527500Y5270000D02*
X4567500Y5230000D01*
X4567500Y5270000D02*
X4527500Y5230000D01*
X4541067Y3471067D02*
X4581067Y3431067D01*
X4581067Y3471067D02*
X4541067Y3431067D01*
X4546800Y3578400D02*
X4586800Y3538400D01*
X4586800Y3578400D02*
X4546800Y3538400D01*
X4610000Y4040000D02*
X4650000Y4000000D01*
X4650000Y4040000D02*
X4610000Y4000000D01*
X4719033Y4194033D02*
X4759033Y4154033D01*
X4759033Y4194033D02*
X4719033Y4154033D01*
X4780000Y3570000D02*
X4820000Y3530000D01*
X4820000Y3570000D02*
X4780000Y3530000D01*
X4800000Y5830000D02*
X4840000Y5790000D01*
X4840000Y5830000D02*
X4800000Y5790000D01*
X4800800Y4315000D02*
X4840800Y4275000D01*
X4840800Y4315000D02*
X4800800Y4275000D01*
X4902400Y4133450D02*
X4942400Y4093450D01*
X4942400Y4133450D02*
X4902400Y4093450D01*
X4978600Y3908600D02*
X5018600Y3868600D01*
X5018600Y3908600D02*
X4978600Y3868600D01*
X4990000Y840000D02*
X5030000Y800000D01*
X5030000Y840000D02*
X4990000Y800000D01*
X5110000Y5280000D02*
X5150000Y5240000D01*
X5150000Y5280000D02*
X5110000Y5240000D01*
X5370000Y1735000D02*
X5410000Y1695000D01*
X5410000Y1735000D02*
X5370000Y1695000D01*
X5385000Y4492800D02*
X5425000Y4452800D01*
X5425000Y4492800D02*
X5385000Y4452800D01*
X5680000Y2150000D02*
X5720000Y2110000D01*
X5720000Y2150000D02*
X5680000Y2110000D01*
X6270000Y6440000D02*
X6310000Y6400000D01*
X6310000Y6440000D02*
X6270000Y6400000D01*
X6280000Y4470000D02*
X6320000Y4430000D01*
X6320000Y4470000D02*
X6280000Y4430000D01*
X6300000Y5770000D02*
X6340000Y5730000D01*
X6340000Y5770000D02*
X6300000Y5730000D01*
X6300000Y5400000D02*
X6340000Y5360000D01*
X6340000Y5400000D02*
X6300000Y5360000D01*
X6300000Y3750000D02*
X6340000Y3710000D01*
X6340000Y3750000D02*
X6300000Y3710000D01*
X6300000Y2140000D02*
X6340000Y2100000D01*
X6340000Y2140000D02*
X6300000Y2100000D01*
X6315000Y2990050D02*
X6355000Y2950050D01*
X6355000Y2990050D02*
X6315000Y2950050D01*
X6343233Y1844233D02*
X6383233Y1804233D01*
X6383233Y1844233D02*
X6343233Y1804233D01*
X6545000Y1230000D02*
X6585000Y1190000D01*
X6585000Y1230000D02*
X6545000Y1190000D01*
X6930000Y3740000D02*
X6970000Y3700000D01*
X6970000Y3740000D02*
X6930000Y3700000D01*
X7720000Y7130000D02*
X7760000Y7090000D01*
X7760000Y7130000D02*
X7720000Y7090000D01*
X7720000Y100000D02*
X7760000Y60000D01*
X7760000Y100000D02*
X7720000Y60000D01*
X7721800Y5966000D02*
X7761800Y5926000D01*
X7761800Y5966000D02*
X7721800Y5926000D01*
X7730000Y1460000D02*
X7770000Y1420000D01*
X7770000Y1460000D02*
X7730000Y1420000D01*
X8306000Y5102400D02*
X8346000Y5062400D01*
X8346000Y5102400D02*
X8306000Y5062400D01*
X8306000Y2486200D02*
X8346000Y2446200D01*
X8346000Y2486200D02*
X8306000Y2446200D01*
X8560000Y5508800D02*
X8600000Y5468800D01*
X8600000Y5508800D02*
X8560000Y5468800D01*
X8560000Y4619800D02*
X8600000Y4579800D01*
X8600000Y4619800D02*
X8560000Y4579800D01*
X8560000Y2918000D02*
X8600000Y2878000D01*
X8600000Y2918000D02*
X8560000Y2878000D01*
X8560000Y2054400D02*
X8600000Y2014400D01*
X8600000Y2054400D02*
X8560000Y2014400D01*
X8790000Y3770000D02*
X8830000Y3730000D01*
X8830000Y3770000D02*
X8790000Y3730000D01*
X8800000Y7130000D02*
X8840000Y7090000D01*
X8840000Y7130000D02*
X8800000Y7090000D01*
X8852100Y1444800D02*
X8892100Y1404800D01*
X8892100Y1444800D02*
X8852100Y1404800D01*
D13*
X185000Y6800000D02*
G75*
G03*
X185000Y6800000I-25000J0D01*
G01*
X255294Y6969706D02*
G75*
G03*
X255294Y6969706I-25000J0D01*
G01*
X255294Y6630294D02*
G75*
G03*
X255294Y6630294I-25000J0D01*
G01*
X425000Y7040000D02*
G75*
G03*
X425000Y7040000I-25000J0D01*
G01*
X425000Y6560000D02*
G75*
G03*
X425000Y6560000I-25000J0D01*
G01*
X594706Y6969706D02*
G75*
G03*
X594706Y6969706I-25000J0D01*
G01*
X594706Y6630294D02*
G75*
G03*
X594706Y6630294I-25000J0D01*
G01*
X665000Y6800000D02*
G75*
G03*
X665000Y6800000I-25000J0D01*
G01*
X8335000Y400000D02*
G75*
G03*
X8335000Y400000I-25000J0D01*
G01*
X8405294Y569706D02*
G75*
G03*
X8405294Y569706I-25000J0D01*
G01*
X8405294Y230294D02*
G75*
G03*
X8405294Y230294I-25000J0D01*
G01*
X8575000Y640000D02*
G75*
G03*
X8575000Y640000I-25000J0D01*
G01*
X8575000Y160000D02*
G75*
G03*
X8575000Y160000I-25000J0D01*
G01*
X8744706Y569706D02*
G75*
G03*
X8744706Y569706I-25000J0D01*
G01*
X8744706Y230294D02*
G75*
G03*
X8744706Y230294I-25000J0D01*
G01*
X8815000Y400000D02*
G75*
G03*
X8815000Y400000I-25000J0D01*
G01*
D14*
X5375000Y6245000D02*
X5375000Y6175000D01*
X5340000Y6210000D02*
X5410000Y6210000D01*
X5379000Y5935000D02*
X5379000Y5865000D01*
X5344000Y5900000D02*
X5414000Y5900000D01*
X5379000Y5705000D02*
X5379000Y5635000D01*
X5344000Y5670000D02*
X5414000Y5670000D01*
X5379000Y5465000D02*
X5379000Y5395000D01*
X5344000Y5430000D02*
X5414000Y5430000D01*
X5669000Y685000D02*
X5669000Y615000D01*
X5634000Y650000D02*
X5704000Y650000D01*
X6137000Y6245000D02*
X6137000Y6175000D01*
X6102000Y6210000D02*
X6172000Y6210000D01*
X6141000Y5935000D02*
X6141000Y5865000D01*
X6106000Y5900000D02*
X6176000Y5900000D01*
X6141000Y5705000D02*
X6141000Y5635000D01*
X6106000Y5670000D02*
X6176000Y5670000D01*
X6141000Y5465000D02*
X6141000Y5395000D01*
X6106000Y5430000D02*
X6176000Y5430000D01*
X6431000Y685000D02*
X6431000Y615000D01*
X6396000Y650000D02*
X6466000Y650000D01*
D15*
X3171184Y4443516D02*
X3171184Y4500085D01*
X3114615Y4500085D01*
X3114615Y4443516D01*
X3171184Y4443516D01*
X3171184Y3681515D02*
X3171184Y3738084D01*
X3114615Y3738084D01*
X3114615Y3681515D01*
X3171184Y3681515D01*
X3174184Y6071115D02*
X3174184Y6127684D01*
X3117615Y6127684D01*
X3117615Y6071115D01*
X3174184Y6071115D01*
X3174184Y5309116D02*
X3174184Y5365685D01*
X3117615Y5365685D01*
X3117615Y5309116D01*
X3174184Y5309116D01*
X3425184Y4443516D02*
X3425184Y4500085D01*
X3368615Y4500085D01*
X3368615Y4443516D01*
X3425184Y4443516D01*
X3425184Y3681515D02*
X3425184Y3738084D01*
X3368615Y3738084D01*
X3368615Y3681515D01*
X3425184Y3681515D01*
X3428184Y6071115D02*
X3428184Y6127684D01*
X3371615Y6127684D01*
X3371615Y6071115D01*
X3428184Y6071115D01*
X3428184Y5309116D02*
X3428184Y5365685D01*
X3371615Y5365685D01*
X3371615Y5309116D01*
X3428184Y5309116D01*
X3679184Y4443516D02*
X3679184Y4500085D01*
X3622615Y4500085D01*
X3622615Y4443516D01*
X3679184Y4443516D01*
X3679184Y3681515D02*
X3679184Y3738084D01*
X3622615Y3738084D01*
X3622615Y3681515D01*
X3679184Y3681515D01*
X3682184Y6071115D02*
X3682184Y6127684D01*
X3625615Y6127684D01*
X3625615Y6071115D01*
X3682184Y6071115D01*
X3682184Y5309116D02*
X3682184Y5365685D01*
X3625615Y5365685D01*
X3625615Y5309116D01*
X3682184Y5309116D01*
X3933184Y4443516D02*
X3933184Y4500085D01*
X3876615Y4500085D01*
X3876615Y4443516D01*
X3933184Y4443516D01*
X3933184Y3681515D02*
X3933184Y3738084D01*
X3876615Y3738084D01*
X3876615Y3681515D01*
X3933184Y3681515D01*
X3936184Y6071115D02*
X3936184Y6127684D01*
X3879615Y6127684D01*
X3879615Y6071115D01*
X3936184Y6071115D01*
X3936184Y5309116D02*
X3936184Y5365685D01*
X3879615Y5365685D01*
X3879615Y5309116D01*
X3936184Y5309116D01*
X4187184Y4443516D02*
X4187184Y4500085D01*
X4130615Y4500085D01*
X4130615Y4443516D01*
X4187184Y4443516D01*
X4187184Y3681515D02*
X4187184Y3738084D01*
X4130615Y3738084D01*
X4130615Y3681515D01*
X4187184Y3681515D01*
X4190184Y6071115D02*
X4190184Y6127684D01*
X4133615Y6127684D01*
X4133615Y6071115D01*
X4190184Y6071115D01*
X4190184Y5309116D02*
X4190184Y5365685D01*
X4133615Y5365685D01*
X4133615Y5309116D01*
X4190184Y5309116D01*
X4441185Y4443516D02*
X4441185Y4500085D01*
X4384616Y4500085D01*
X4384616Y4443516D01*
X4441185Y4443516D01*
X4441185Y3681515D02*
X4441185Y3738084D01*
X4384616Y3738084D01*
X4384616Y3681515D01*
X4441185Y3681515D01*
X4444185Y6071115D02*
X4444185Y6127684D01*
X4387616Y6127684D01*
X4387616Y6071115D01*
X4444185Y6071115D01*
X4444185Y5309116D02*
X4444185Y5365685D01*
X4387616Y5365685D01*
X4387616Y5309116D01*
X4444185Y5309116D01*
X4695185Y4443516D02*
X4695185Y4500085D01*
X4638616Y4500085D01*
X4638616Y4443516D01*
X4695185Y4443516D01*
X4695185Y3681515D02*
X4695185Y3738084D01*
X4638616Y3738084D01*
X4638616Y3681515D01*
X4695185Y3681515D01*
X4698185Y6071115D02*
X4698185Y6127684D01*
X4641616Y6127684D01*
X4641616Y6071115D01*
X4698185Y6071115D01*
X4698185Y5309116D02*
X4698185Y5365685D01*
X4641616Y5365685D01*
X4641616Y5309116D01*
X4698185Y5309116D01*
X4949185Y4443516D02*
X4949185Y4500085D01*
X4892616Y4500085D01*
X4892616Y4443516D01*
X4949185Y4443516D01*
X4949185Y3681515D02*
X4949185Y3738084D01*
X4892616Y3738084D01*
X4892616Y3681515D01*
X4949185Y3681515D01*
X4952185Y6071115D02*
X4952185Y6127684D01*
X4895616Y6127684D01*
X4895616Y6071115D01*
X4952185Y6071115D01*
X4952185Y5309116D02*
X4952185Y5365685D01*
X4895616Y5365685D01*
X4895616Y5309116D01*
X4952185Y5309116D01*
X6028284Y1516715D02*
X6028284Y1573284D01*
X5971715Y1573284D01*
X5971715Y1516715D01*
X6028284Y1516715D01*
X6028284Y1316716D02*
X6028284Y1373285D01*
X5971715Y1373285D01*
X5971715Y1316716D01*
X6028284Y1316716D01*
X6028284Y1116716D02*
X6028284Y1173285D01*
X5971715Y1173285D01*
X5971715Y1116716D01*
X6028284Y1116716D01*
X6028284Y916715D02*
X6028284Y973284D01*
X5971715Y973284D01*
X5971715Y916715D01*
X6028284Y916715D01*
D16*
X1544200Y2110400D02*
X1594200Y2160400D01*
X1544200Y2210400D01*
X1494200Y2160400D01*
X1544200Y2110400D01*
X1544200Y586400D02*
X1594200Y636400D01*
X1544200Y686400D01*
X1494200Y636400D01*
X1544200Y586400D01*
X1798200Y2110400D02*
X1848200Y2160400D01*
X1798200Y2210400D01*
X1748200Y2160400D01*
X1798200Y2110400D01*
X1798200Y586400D02*
X1848200Y636400D01*
X1798200Y686400D01*
X1748200Y636400D01*
X1798200Y586400D01*
X2052200Y2110400D02*
X2102200Y2160400D01*
X2052200Y2210400D01*
X2002200Y2160400D01*
X2052200Y2110400D01*
X2052200Y586400D02*
X2102200Y636400D01*
X2052200Y686400D01*
X2002200Y636400D01*
X2052200Y586400D01*
X2306200Y2110400D02*
X2356200Y2160400D01*
X2306200Y2210400D01*
X2256200Y2160400D01*
X2306200Y2110400D01*
X2306200Y586400D02*
X2356200Y636400D01*
X2306200Y686400D01*
X2256200Y636400D01*
X2306200Y586400D01*
X2560200Y2110400D02*
X2610200Y2160400D01*
X2560200Y2210400D01*
X2510200Y2160400D01*
X2560200Y2110400D01*
X2560200Y586400D02*
X2610200Y636400D01*
X2560200Y686400D01*
X2510200Y636400D01*
X2560200Y586400D01*
X2814200Y2110400D02*
X2864200Y2160400D01*
X2814200Y2210400D01*
X2764200Y2160400D01*
X2814200Y2110400D01*
X2814200Y586400D02*
X2864200Y636400D01*
X2814200Y686400D01*
X2764200Y636400D01*
X2814200Y586400D01*
X3068200Y2110400D02*
X3118200Y2160400D01*
X3068200Y2210400D01*
X3018200Y2160400D01*
X3068200Y2110400D01*
X3068200Y586400D02*
X3118200Y636400D01*
X3068200Y686400D01*
X3018200Y636400D01*
X3068200Y586400D01*
X3322200Y2110400D02*
X3372200Y2160400D01*
X3322200Y2210400D01*
X3272200Y2160400D01*
X3322200Y2110400D01*
X3322200Y586400D02*
X3372200Y636400D01*
X3322200Y686400D01*
X3272200Y636400D01*
X3322200Y586400D01*
X3576200Y2110400D02*
X3626200Y2160400D01*
X3576200Y2210400D01*
X3526200Y2160400D01*
X3576200Y2110400D01*
X3576200Y586400D02*
X3626200Y636400D01*
X3576200Y686400D01*
X3526200Y636400D01*
X3576200Y586400D01*
X3830200Y2110400D02*
X3880200Y2160400D01*
X3830200Y2210400D01*
X3780200Y2160400D01*
X3830200Y2110400D01*
X3830200Y586400D02*
X3880200Y636400D01*
X3830200Y686400D01*
X3780200Y636400D01*
X3830200Y586400D01*
X4084200Y2110400D02*
X4134200Y2160400D01*
X4084200Y2210400D01*
X4034200Y2160400D01*
X4084200Y2110400D01*
X4084200Y586400D02*
X4134200Y636400D01*
X4084200Y686400D01*
X4034200Y636400D01*
X4084200Y586400D01*
X4338200Y2110400D02*
X4388200Y2160400D01*
X4338200Y2210400D01*
X4288200Y2160400D01*
X4338200Y2110400D01*
X4338200Y586400D02*
X4388200Y636400D01*
X4338200Y686400D01*
X4288200Y636400D01*
X4338200Y586400D01*
X4592200Y2110400D02*
X4642200Y2160400D01*
X4592200Y2210400D01*
X4542200Y2160400D01*
X4592200Y2110400D01*
X4592200Y586400D02*
X4642200Y636400D01*
X4592200Y686400D01*
X4542200Y636400D01*
X4592200Y586400D01*
X4846200Y2110400D02*
X4896200Y2160400D01*
X4846200Y2210400D01*
X4796200Y2160400D01*
X4846200Y2110400D01*
X4846200Y586400D02*
X4896200Y636400D01*
X4846200Y686400D01*
X4796200Y636400D01*
X4846200Y586400D01*
X5100200Y2110400D02*
X5150200Y2160400D01*
X5100200Y2210400D01*
X5050200Y2160400D01*
X5100200Y2110400D01*
X5100200Y586400D02*
X5150200Y636400D01*
X5100200Y686400D01*
X5050200Y636400D01*
X5100200Y586400D01*
X5542000Y6490000D02*
X5592000Y6540000D01*
X5542000Y6590000D01*
X5492000Y6540000D01*
X5542000Y6490000D01*
X5796000Y6490000D02*
X5846000Y6540000D01*
X5796000Y6590000D01*
X5746000Y6540000D01*
X5796000Y6490000D01*
X5882500Y190000D02*
X5932500Y240000D01*
X5882500Y290000D01*
X5832500Y240000D01*
X5882500Y190000D01*
X6050000Y6490000D02*
X6100000Y6540000D01*
X6050000Y6590000D01*
X6000000Y6540000D01*
X6050000Y6490000D01*
X6136500Y190000D02*
X6186500Y240000D01*
X6136500Y290000D01*
X6086500Y240000D01*
X6136500Y190000D01*
D17*
X240000Y6960000D02*
X560000Y6640000D01*
X560000Y6960000D02*
X240000Y6640000D01*
X560000Y6800000D02*
G75*
G03*
X560000Y6800000I-160000J0D01*
G01*
X8390000Y560000D02*
X8710000Y240000D01*
X8710000Y560000D02*
X8390000Y240000D01*
X8710000Y400000D02*
G75*
G03*
X8710000Y400000I-160000J0D01*
G01*
D11*
X240119Y-317976D02*
X240119Y-117976D01*
X287738Y-117976D01*
X316310Y-127500D01*
X335357Y-146548D01*
X344881Y-165595D01*
X354405Y-203690D01*
X354405Y-232262D01*
X344881Y-270357D01*
X335357Y-289405D01*
X316310Y-308452D01*
X287738Y-317976D01*
X240119Y-317976D01*
X440119Y-317976D02*
X440119Y-184643D01*
X440119Y-222738D02*
X449643Y-203690D01*
X459167Y-194167D01*
X478214Y-184643D01*
X497262Y-184643D01*
X563929Y-317976D02*
X563929Y-184643D01*
X563929Y-117976D02*
X554405Y-127500D01*
X563929Y-137024D01*
X573452Y-127500D01*
X563929Y-117976D01*
X563929Y-137024D01*
X687738Y-317976D02*
X668690Y-308452D01*
X659167Y-289405D01*
X659167Y-117976D01*
X792500Y-317976D02*
X773452Y-308452D01*
X763928Y-289405D01*
X763928Y-117976D01*
X1021071Y-317976D02*
X1021071Y-117976D01*
X1087738Y-260833D01*
X1154405Y-117976D01*
X1154405Y-317976D01*
X1335357Y-317976D02*
X1335357Y-213214D01*
X1325833Y-194167D01*
X1306786Y-184643D01*
X1268690Y-184643D01*
X1249643Y-194167D01*
X1335357Y-308452D02*
X1316310Y-317976D01*
X1268690Y-317976D01*
X1249643Y-308452D01*
X1240119Y-289405D01*
X1240119Y-270357D01*
X1249643Y-251309D01*
X1268690Y-241786D01*
X1316310Y-241786D01*
X1335357Y-232262D01*
X1430595Y-184643D02*
X1430595Y-384643D01*
X1430595Y-194167D02*
X1449643Y-184643D01*
X1487738Y-184643D01*
X1506786Y-194167D01*
X1516309Y-203690D01*
X1525833Y-222738D01*
X1525833Y-279881D01*
X1516309Y-298929D01*
X1506786Y-308452D01*
X1487738Y-317976D01*
X1449643Y-317976D01*
X1430595Y-308452D01*
X1611548Y-298929D02*
X1621071Y-308452D01*
X1611548Y-317976D01*
X1602024Y-308452D01*
X1611548Y-298929D01*
X1611548Y-317976D01*
X1611548Y-194167D02*
X1621071Y-203690D01*
X1611548Y-213214D01*
X1602024Y-203690D01*
X1611548Y-194167D01*
X1611548Y-213214D01*
D12*
X-57500Y-627500D02*
X-17500Y-667500D01*
X-17500Y-627500D02*
X-57500Y-667500D01*
D11*
X278214Y-537976D02*
X297262Y-537976D01*
X316310Y-547500D01*
X325833Y-557024D01*
X335357Y-576071D01*
X344881Y-614167D01*
X344881Y-661786D01*
X335357Y-699881D01*
X325833Y-718928D01*
X316310Y-728452D01*
X297262Y-737976D01*
X278214Y-737976D01*
X259167Y-728452D01*
X249643Y-718928D01*
X240119Y-699881D01*
X230595Y-661786D01*
X230595Y-614167D01*
X240119Y-576071D01*
X249643Y-557024D01*
X259167Y-547500D01*
X278214Y-537976D01*
X430595Y-718928D02*
X440119Y-728452D01*
X430595Y-737976D01*
X421071Y-728452D01*
X430595Y-718928D01*
X430595Y-737976D01*
X611548Y-604643D02*
X611548Y-737976D01*
X563929Y-528452D02*
X516309Y-671310D01*
X640119Y-671310D01*
X754405Y-537976D02*
X773452Y-537976D01*
X792500Y-547500D01*
X802024Y-557024D01*
X811548Y-576071D01*
X821071Y-614167D01*
X821071Y-661786D01*
X811548Y-699881D01*
X802024Y-718928D01*
X792500Y-728452D01*
X773452Y-737976D01*
X754405Y-737976D01*
X735357Y-728452D01*
X725833Y-718928D01*
X716309Y-699881D01*
X706786Y-661786D01*
X706786Y-614167D01*
X716309Y-576071D01*
X725833Y-557024D01*
X735357Y-547500D01*
X754405Y-537976D01*
X944881Y-537976D02*
X963928Y-537976D01*
X982976Y-547500D01*
X992500Y-557024D01*
X1002024Y-576071D01*
X1011548Y-614167D01*
X1011548Y-661786D01*
X1002024Y-699881D01*
X992500Y-718928D01*
X982976Y-728452D01*
X963928Y-737976D01*
X944881Y-737976D01*
X925833Y-728452D01*
X916309Y-718928D01*
X906786Y-699881D01*
X897262Y-661786D01*
X897262Y-614167D01*
X906786Y-576071D01*
X916309Y-557024D01*
X925833Y-547500D01*
X944881Y-537976D01*
X1097262Y-737976D02*
X1097262Y-604643D01*
X1097262Y-623690D02*
X1106786Y-614167D01*
X1125833Y-604643D01*
X1154405Y-604643D01*
X1173452Y-614167D01*
X1182976Y-633214D01*
X1182976Y-737976D01*
X1182976Y-633214D02*
X1192500Y-614167D01*
X1211548Y-604643D01*
X1240119Y-604643D01*
X1259167Y-614167D01*
X1268690Y-633214D01*
X1268690Y-737976D01*
X1363929Y-737976D02*
X1363929Y-604643D01*
X1363929Y-623690D02*
X1373452Y-614167D01*
X1392500Y-604643D01*
X1421071Y-604643D01*
X1440119Y-614167D01*
X1449643Y-633214D01*
X1449643Y-737976D01*
X1449643Y-633214D02*
X1459167Y-614167D01*
X1478214Y-604643D01*
X1506786Y-604643D01*
X1525833Y-614167D01*
X1535357Y-633214D01*
X1535357Y-737976D01*
X1925833Y-528452D02*
X1754405Y-785595D01*
X2182976Y-537976D02*
X2202024Y-537976D01*
X2221071Y-547500D01*
X2230595Y-557024D01*
X2240119Y-576071D01*
X2249643Y-614167D01*
X2249643Y-661786D01*
X2240119Y-699881D01*
X2230595Y-718928D01*
X2221071Y-728452D01*
X2202024Y-737976D01*
X2182976Y-737976D01*
X2163929Y-728452D01*
X2154405Y-718928D01*
X2144881Y-699881D01*
X2135357Y-661786D01*
X2135357Y-614167D01*
X2144881Y-576071D01*
X2154405Y-557024D01*
X2163929Y-547500D01*
X2182976Y-537976D01*
X2335357Y-718928D02*
X2344881Y-728452D01*
X2335357Y-737976D01*
X2325833Y-728452D01*
X2335357Y-718928D01*
X2335357Y-737976D01*
X2468690Y-537976D02*
X2487738Y-537976D01*
X2506786Y-547500D01*
X2516310Y-557024D01*
X2525833Y-576071D01*
X2535357Y-614167D01*
X2535357Y-661786D01*
X2525833Y-699881D01*
X2516310Y-718928D01*
X2506786Y-728452D01*
X2487738Y-737976D01*
X2468690Y-737976D01*
X2449643Y-728452D01*
X2440119Y-718928D01*
X2430595Y-699881D01*
X2421071Y-661786D01*
X2421071Y-614167D01*
X2430595Y-576071D01*
X2440119Y-557024D01*
X2449643Y-547500D01*
X2468690Y-537976D01*
X2725833Y-737976D02*
X2611548Y-737976D01*
X2668690Y-737976D02*
X2668690Y-537976D01*
X2649643Y-566548D01*
X2630595Y-585595D01*
X2611548Y-595119D01*
X2906786Y-537976D02*
X2811548Y-537976D01*
X2802024Y-633214D01*
X2811548Y-623690D01*
X2830595Y-614167D01*
X2878214Y-614167D01*
X2897262Y-623690D01*
X2906786Y-633214D01*
X2916309Y-652262D01*
X2916309Y-699881D01*
X2906786Y-718928D01*
X2897262Y-728452D01*
X2878214Y-737976D01*
X2830595Y-737976D01*
X2811548Y-728452D01*
X2802024Y-718928D01*
X2982976Y-537976D02*
X3116309Y-537976D01*
X3030595Y-737976D01*
X3182976Y-537976D02*
X3182976Y-576071D01*
X3259167Y-537976D02*
X3259167Y-576071D01*
X3554405Y-814167D02*
X3544881Y-804643D01*
X3525833Y-776071D01*
X3516309Y-757024D01*
X3506786Y-728452D01*
X3497262Y-680833D01*
X3497262Y-642738D01*
X3506786Y-595119D01*
X3516309Y-566548D01*
X3525833Y-547500D01*
X3544881Y-518928D01*
X3554405Y-509405D01*
X3735357Y-737976D02*
X3621071Y-737976D01*
X3678214Y-737976D02*
X3678214Y-537976D01*
X3659167Y-566548D01*
X3640119Y-585595D01*
X3621071Y-595119D01*
X3859167Y-537976D02*
X3878214Y-537976D01*
X3897262Y-547500D01*
X3906786Y-557024D01*
X3916309Y-576071D01*
X3925833Y-614167D01*
X3925833Y-661786D01*
X3916309Y-699881D01*
X3906786Y-718928D01*
X3897262Y-728452D01*
X3878214Y-737976D01*
X3859167Y-737976D01*
X3840119Y-728452D01*
X3830595Y-718928D01*
X3821071Y-699881D01*
X3811548Y-661786D01*
X3811548Y-614167D01*
X3821071Y-576071D01*
X3830595Y-557024D01*
X3840119Y-547500D01*
X3859167Y-537976D01*
X3992500Y-537976D02*
X4125833Y-537976D01*
X4040119Y-737976D01*
X4354405Y-737976D02*
X4354405Y-537976D01*
X4440119Y-737976D02*
X4440119Y-633214D01*
X4430595Y-614167D01*
X4411548Y-604643D01*
X4382976Y-604643D01*
X4363929Y-614167D01*
X4354405Y-623690D01*
X4563929Y-737976D02*
X4544881Y-728452D01*
X4535357Y-718928D01*
X4525833Y-699881D01*
X4525833Y-642738D01*
X4535357Y-623690D01*
X4544881Y-614167D01*
X4563929Y-604643D01*
X4592500Y-604643D01*
X4611548Y-614167D01*
X4621071Y-623690D01*
X4630595Y-642738D01*
X4630595Y-699881D01*
X4621071Y-718928D01*
X4611548Y-728452D01*
X4592500Y-737976D01*
X4563929Y-737976D01*
X4744881Y-737976D02*
X4725833Y-728452D01*
X4716310Y-709405D01*
X4716310Y-537976D01*
X4897262Y-728452D02*
X4878214Y-737976D01*
X4840119Y-737976D01*
X4821071Y-728452D01*
X4811548Y-709405D01*
X4811548Y-633214D01*
X4821071Y-614167D01*
X4840119Y-604643D01*
X4878214Y-604643D01*
X4897262Y-614167D01*
X4906786Y-633214D01*
X4906786Y-652262D01*
X4811548Y-671310D01*
X4982976Y-728452D02*
X5002024Y-737976D01*
X5040119Y-737976D01*
X5059167Y-728452D01*
X5068690Y-709405D01*
X5068690Y-699881D01*
X5059167Y-680833D01*
X5040119Y-671310D01*
X5011548Y-671310D01*
X4992500Y-661786D01*
X4982976Y-642738D01*
X4982976Y-633214D01*
X4992500Y-614167D01*
X5011548Y-604643D01*
X5040119Y-604643D01*
X5059167Y-614167D01*
X5135357Y-814167D02*
X5144881Y-804643D01*
X5163929Y-776071D01*
X5173452Y-757024D01*
X5182976Y-728452D01*
X5192500Y-680833D01*
X5192500Y-642738D01*
X5182976Y-595119D01*
X5173452Y-566548D01*
X5163929Y-547500D01*
X5144881Y-518928D01*
X5135357Y-509405D01*
D13*
X-17500Y-911500D02*
G75*
G03*
X-17500Y-911500I-25000J0D01*
G01*
D11*
X278214Y-801976D02*
X297262Y-801976D01*
X316310Y-811500D01*
X325833Y-821024D01*
X335357Y-840071D01*
X344881Y-878167D01*
X344881Y-925786D01*
X335357Y-963881D01*
X325833Y-982928D01*
X316310Y-992452D01*
X297262Y-1001976D01*
X278214Y-1001976D01*
X259167Y-992452D01*
X249643Y-982928D01*
X240119Y-963881D01*
X230595Y-925786D01*
X230595Y-878167D01*
X240119Y-840071D01*
X249643Y-821024D01*
X259167Y-811500D01*
X278214Y-801976D01*
X430595Y-982928D02*
X440119Y-992452D01*
X430595Y-1001976D01*
X421071Y-992452D01*
X430595Y-982928D01*
X430595Y-1001976D01*
X621071Y-801976D02*
X525833Y-801976D01*
X516309Y-897214D01*
X525833Y-887690D01*
X544881Y-878167D01*
X592500Y-878167D01*
X611548Y-887690D01*
X621071Y-897214D01*
X630595Y-916262D01*
X630595Y-963881D01*
X621071Y-982928D01*
X611548Y-992452D01*
X592500Y-1001976D01*
X544881Y-1001976D01*
X525833Y-992452D01*
X516309Y-982928D01*
X754405Y-801976D02*
X773452Y-801976D01*
X792500Y-811500D01*
X802024Y-821024D01*
X811548Y-840071D01*
X821071Y-878167D01*
X821071Y-925786D01*
X811548Y-963881D01*
X802024Y-982928D01*
X792500Y-992452D01*
X773452Y-1001976D01*
X754405Y-1001976D01*
X735357Y-992452D01*
X725833Y-982928D01*
X716309Y-963881D01*
X706786Y-925786D01*
X706786Y-878167D01*
X716309Y-840071D01*
X725833Y-821024D01*
X735357Y-811500D01*
X754405Y-801976D01*
X944881Y-801976D02*
X963928Y-801976D01*
X982976Y-811500D01*
X992500Y-821024D01*
X1002024Y-840071D01*
X1011548Y-878167D01*
X1011548Y-925786D01*
X1002024Y-963881D01*
X992500Y-982928D01*
X982976Y-992452D01*
X963928Y-1001976D01*
X944881Y-1001976D01*
X925833Y-992452D01*
X916309Y-982928D01*
X906786Y-963881D01*
X897262Y-925786D01*
X897262Y-878167D01*
X906786Y-840071D01*
X916309Y-821024D01*
X925833Y-811500D01*
X944881Y-801976D01*
X1097262Y-1001976D02*
X1097262Y-868643D01*
X1097262Y-887690D02*
X1106786Y-878167D01*
X1125833Y-868643D01*
X1154405Y-868643D01*
X1173452Y-878167D01*
X1182976Y-897214D01*
X1182976Y-1001976D01*
X1182976Y-897214D02*
X1192500Y-878167D01*
X1211548Y-868643D01*
X1240119Y-868643D01*
X1259167Y-878167D01*
X1268690Y-897214D01*
X1268690Y-1001976D01*
X1363929Y-1001976D02*
X1363929Y-868643D01*
X1363929Y-887690D02*
X1373452Y-878167D01*
X1392500Y-868643D01*
X1421071Y-868643D01*
X1440119Y-878167D01*
X1449643Y-897214D01*
X1449643Y-1001976D01*
X1449643Y-897214D02*
X1459167Y-878167D01*
X1478214Y-868643D01*
X1506786Y-868643D01*
X1525833Y-878167D01*
X1535357Y-897214D01*
X1535357Y-1001976D01*
X1925833Y-792452D02*
X1754405Y-1049595D01*
X2182976Y-801976D02*
X2202024Y-801976D01*
X2221071Y-811500D01*
X2230595Y-821024D01*
X2240119Y-840071D01*
X2249643Y-878167D01*
X2249643Y-925786D01*
X2240119Y-963881D01*
X2230595Y-982928D01*
X2221071Y-992452D01*
X2202024Y-1001976D01*
X2182976Y-1001976D01*
X2163929Y-992452D01*
X2154405Y-982928D01*
X2144881Y-963881D01*
X2135357Y-925786D01*
X2135357Y-878167D01*
X2144881Y-840071D01*
X2154405Y-821024D01*
X2163929Y-811500D01*
X2182976Y-801976D01*
X2335357Y-982928D02*
X2344881Y-992452D01*
X2335357Y-1001976D01*
X2325833Y-992452D01*
X2335357Y-982928D01*
X2335357Y-1001976D01*
X2468690Y-801976D02*
X2487738Y-801976D01*
X2506786Y-811500D01*
X2516310Y-821024D01*
X2525833Y-840071D01*
X2535357Y-878167D01*
X2535357Y-925786D01*
X2525833Y-963881D01*
X2516310Y-982928D01*
X2506786Y-992452D01*
X2487738Y-1001976D01*
X2468690Y-1001976D01*
X2449643Y-992452D01*
X2440119Y-982928D01*
X2430595Y-963881D01*
X2421071Y-925786D01*
X2421071Y-878167D01*
X2430595Y-840071D01*
X2440119Y-821024D01*
X2449643Y-811500D01*
X2468690Y-801976D01*
X2725833Y-1001976D02*
X2611548Y-1001976D01*
X2668690Y-1001976D02*
X2668690Y-801976D01*
X2649643Y-830548D01*
X2630595Y-849595D01*
X2611548Y-859119D01*
X2821071Y-1001976D02*
X2859167Y-1001976D01*
X2878214Y-992452D01*
X2887738Y-982928D01*
X2906786Y-954357D01*
X2916309Y-916262D01*
X2916309Y-840071D01*
X2906786Y-821024D01*
X2897262Y-811500D01*
X2878214Y-801976D01*
X2840119Y-801976D01*
X2821071Y-811500D01*
X2811548Y-821024D01*
X2802024Y-840071D01*
X2802024Y-887690D01*
X2811548Y-906738D01*
X2821071Y-916262D01*
X2840119Y-925786D01*
X2878214Y-925786D01*
X2897262Y-916262D01*
X2906786Y-906738D01*
X2916309Y-887690D01*
X2982976Y-801976D02*
X3116309Y-801976D01*
X3030595Y-1001976D01*
X3182976Y-801976D02*
X3182976Y-840071D01*
X3259167Y-801976D02*
X3259167Y-840071D01*
X3554405Y-1078167D02*
X3544881Y-1068643D01*
X3525833Y-1040071D01*
X3516309Y-1021024D01*
X3506786Y-992452D01*
X3497262Y-944833D01*
X3497262Y-906738D01*
X3506786Y-859119D01*
X3516309Y-830548D01*
X3525833Y-811500D01*
X3544881Y-782928D01*
X3554405Y-773405D01*
X3735357Y-1001976D02*
X3621071Y-1001976D01*
X3678214Y-1001976D02*
X3678214Y-801976D01*
X3659167Y-830548D01*
X3640119Y-849595D01*
X3621071Y-859119D01*
X3906786Y-801976D02*
X3868690Y-801976D01*
X3849643Y-811500D01*
X3840119Y-821024D01*
X3821071Y-849595D01*
X3811548Y-887690D01*
X3811548Y-963881D01*
X3821071Y-982928D01*
X3830595Y-992452D01*
X3849643Y-1001976D01*
X3887738Y-1001976D01*
X3906786Y-992452D01*
X3916309Y-982928D01*
X3925833Y-963881D01*
X3925833Y-916262D01*
X3916309Y-897214D01*
X3906786Y-887690D01*
X3887738Y-878167D01*
X3849643Y-878167D01*
X3830595Y-887690D01*
X3821071Y-897214D01*
X3811548Y-916262D01*
X4163928Y-1001976D02*
X4163928Y-801976D01*
X4249643Y-1001976D02*
X4249643Y-897214D01*
X4240119Y-878167D01*
X4221071Y-868643D01*
X4192500Y-868643D01*
X4173452Y-878167D01*
X4163928Y-887690D01*
X4373452Y-1001976D02*
X4354405Y-992452D01*
X4344881Y-982928D01*
X4335357Y-963881D01*
X4335357Y-906738D01*
X4344881Y-887690D01*
X4354405Y-878167D01*
X4373452Y-868643D01*
X4402024Y-868643D01*
X4421071Y-878167D01*
X4430595Y-887690D01*
X4440119Y-906738D01*
X4440119Y-963881D01*
X4430595Y-982928D01*
X4421071Y-992452D01*
X4402024Y-1001976D01*
X4373452Y-1001976D01*
X4554405Y-1001976D02*
X4535357Y-992452D01*
X4525833Y-973405D01*
X4525833Y-801976D01*
X4706786Y-992452D02*
X4687738Y-1001976D01*
X4649643Y-1001976D01*
X4630595Y-992452D01*
X4621071Y-973405D01*
X4621071Y-897214D01*
X4630595Y-878167D01*
X4649643Y-868643D01*
X4687738Y-868643D01*
X4706786Y-878167D01*
X4716310Y-897214D01*
X4716310Y-916262D01*
X4621071Y-935309D01*
X4792500Y-992452D02*
X4811548Y-1001976D01*
X4849643Y-1001976D01*
X4868690Y-992452D01*
X4878214Y-973405D01*
X4878214Y-963881D01*
X4868690Y-944833D01*
X4849643Y-935309D01*
X4821071Y-935309D01*
X4802024Y-925786D01*
X4792500Y-906738D01*
X4792500Y-897214D01*
X4802024Y-878167D01*
X4821071Y-868643D01*
X4849643Y-868643D01*
X4868690Y-878167D01*
X4944881Y-1078167D02*
X4954405Y-1068643D01*
X4973452Y-1040071D01*
X4982976Y-1021024D01*
X4992500Y-992452D01*
X5002024Y-944833D01*
X5002024Y-906738D01*
X4992500Y-859119D01*
X4982976Y-830548D01*
X4973452Y-811500D01*
X4954405Y-782928D01*
X4944881Y-773405D01*
D14*
X-52500Y-1140500D02*
X-52500Y-1210500D01*
X-87500Y-1175500D02*
X-17500Y-1175500D01*
D11*
X278214Y-1065976D02*
X297262Y-1065976D01*
X316310Y-1075500D01*
X325833Y-1085024D01*
X335357Y-1104071D01*
X344881Y-1142167D01*
X344881Y-1189786D01*
X335357Y-1227881D01*
X325833Y-1246929D01*
X316310Y-1256452D01*
X297262Y-1265976D01*
X278214Y-1265976D01*
X259167Y-1256452D01*
X249643Y-1246929D01*
X240119Y-1227881D01*
X230595Y-1189786D01*
X230595Y-1142167D01*
X240119Y-1104071D01*
X249643Y-1085024D01*
X259167Y-1075500D01*
X278214Y-1065976D01*
X430595Y-1246929D02*
X440119Y-1256452D01*
X430595Y-1265976D01*
X421071Y-1256452D01*
X430595Y-1246929D01*
X430595Y-1265976D01*
X506786Y-1065976D02*
X640119Y-1065976D01*
X554405Y-1265976D01*
X754405Y-1065976D02*
X773452Y-1065976D01*
X792500Y-1075500D01*
X802024Y-1085024D01*
X811548Y-1104071D01*
X821071Y-1142167D01*
X821071Y-1189786D01*
X811548Y-1227881D01*
X802024Y-1246929D01*
X792500Y-1256452D01*
X773452Y-1265976D01*
X754405Y-1265976D01*
X735357Y-1256452D01*
X725833Y-1246929D01*
X716309Y-1227881D01*
X706786Y-1189786D01*
X706786Y-1142167D01*
X716309Y-1104071D01*
X725833Y-1085024D01*
X735357Y-1075500D01*
X754405Y-1065976D01*
X944881Y-1065976D02*
X963928Y-1065976D01*
X982976Y-1075500D01*
X992500Y-1085024D01*
X1002024Y-1104071D01*
X1011548Y-1142167D01*
X1011548Y-1189786D01*
X1002024Y-1227881D01*
X992500Y-1246929D01*
X982976Y-1256452D01*
X963928Y-1265976D01*
X944881Y-1265976D01*
X925833Y-1256452D01*
X916309Y-1246929D01*
X906786Y-1227881D01*
X897262Y-1189786D01*
X897262Y-1142167D01*
X906786Y-1104071D01*
X916309Y-1085024D01*
X925833Y-1075500D01*
X944881Y-1065976D01*
X1097262Y-1265976D02*
X1097262Y-1132643D01*
X1097262Y-1151690D02*
X1106786Y-1142167D01*
X1125833Y-1132643D01*
X1154405Y-1132643D01*
X1173452Y-1142167D01*
X1182976Y-1161214D01*
X1182976Y-1265976D01*
X1182976Y-1161214D02*
X1192500Y-1142167D01*
X1211548Y-1132643D01*
X1240119Y-1132643D01*
X1259167Y-1142167D01*
X1268690Y-1161214D01*
X1268690Y-1265976D01*
X1363929Y-1265976D02*
X1363929Y-1132643D01*
X1363929Y-1151690D02*
X1373452Y-1142167D01*
X1392500Y-1132643D01*
X1421071Y-1132643D01*
X1440119Y-1142167D01*
X1449643Y-1161214D01*
X1449643Y-1265976D01*
X1449643Y-1161214D02*
X1459167Y-1142167D01*
X1478214Y-1132643D01*
X1506786Y-1132643D01*
X1525833Y-1142167D01*
X1535357Y-1161214D01*
X1535357Y-1265976D01*
X1925833Y-1056452D02*
X1754405Y-1313595D01*
X2182976Y-1065976D02*
X2202024Y-1065976D01*
X2221071Y-1075500D01*
X2230595Y-1085024D01*
X2240119Y-1104071D01*
X2249643Y-1142167D01*
X2249643Y-1189786D01*
X2240119Y-1227881D01*
X2230595Y-1246929D01*
X2221071Y-1256452D01*
X2202024Y-1265976D01*
X2182976Y-1265976D01*
X2163929Y-1256452D01*
X2154405Y-1246929D01*
X2144881Y-1227881D01*
X2135357Y-1189786D01*
X2135357Y-1142167D01*
X2144881Y-1104071D01*
X2154405Y-1085024D01*
X2163929Y-1075500D01*
X2182976Y-1065976D01*
X2335357Y-1246929D02*
X2344881Y-1256452D01*
X2335357Y-1265976D01*
X2325833Y-1256452D01*
X2335357Y-1246929D01*
X2335357Y-1265976D01*
X2468690Y-1065976D02*
X2487738Y-1065976D01*
X2506786Y-1075500D01*
X2516310Y-1085024D01*
X2525833Y-1104071D01*
X2535357Y-1142167D01*
X2535357Y-1189786D01*
X2525833Y-1227881D01*
X2516310Y-1246929D01*
X2506786Y-1256452D01*
X2487738Y-1265976D01*
X2468690Y-1265976D01*
X2449643Y-1256452D01*
X2440119Y-1246929D01*
X2430595Y-1227881D01*
X2421071Y-1189786D01*
X2421071Y-1142167D01*
X2430595Y-1104071D01*
X2440119Y-1085024D01*
X2449643Y-1075500D01*
X2468690Y-1065976D01*
X2611548Y-1085024D02*
X2621071Y-1075500D01*
X2640119Y-1065976D01*
X2687738Y-1065976D01*
X2706786Y-1075500D01*
X2716310Y-1085024D01*
X2725833Y-1104071D01*
X2725833Y-1123119D01*
X2716310Y-1151690D01*
X2602024Y-1265976D01*
X2725833Y-1265976D01*
X2792500Y-1065976D02*
X2925833Y-1065976D01*
X2840119Y-1265976D01*
X3087738Y-1065976D02*
X3049643Y-1065976D01*
X3030595Y-1075500D01*
X3021071Y-1085024D01*
X3002024Y-1113595D01*
X2992500Y-1151690D01*
X2992500Y-1227881D01*
X3002024Y-1246929D01*
X3011548Y-1256452D01*
X3030595Y-1265976D01*
X3068690Y-1265976D01*
X3087738Y-1256452D01*
X3097262Y-1246929D01*
X3106786Y-1227881D01*
X3106786Y-1180262D01*
X3097262Y-1161214D01*
X3087738Y-1151690D01*
X3068690Y-1142167D01*
X3030595Y-1142167D01*
X3011548Y-1151690D01*
X3002024Y-1161214D01*
X2992500Y-1180262D01*
X3182976Y-1065976D02*
X3182976Y-1104071D01*
X3259167Y-1065976D02*
X3259167Y-1104071D01*
X3554405Y-1342167D02*
X3544881Y-1332643D01*
X3525833Y-1304071D01*
X3516309Y-1285024D01*
X3506786Y-1256452D01*
X3497262Y-1208833D01*
X3497262Y-1170738D01*
X3506786Y-1123119D01*
X3516309Y-1094548D01*
X3525833Y-1075500D01*
X3544881Y-1046928D01*
X3554405Y-1037405D01*
X3735357Y-1265976D02*
X3621071Y-1265976D01*
X3678214Y-1265976D02*
X3678214Y-1065976D01*
X3659167Y-1094548D01*
X3640119Y-1113595D01*
X3621071Y-1123119D01*
X3859167Y-1065976D02*
X3878214Y-1065976D01*
X3897262Y-1075500D01*
X3906786Y-1085024D01*
X3916309Y-1104071D01*
X3925833Y-1142167D01*
X3925833Y-1189786D01*
X3916309Y-1227881D01*
X3906786Y-1246929D01*
X3897262Y-1256452D01*
X3878214Y-1265976D01*
X3859167Y-1265976D01*
X3840119Y-1256452D01*
X3830595Y-1246929D01*
X3821071Y-1227881D01*
X3811548Y-1189786D01*
X3811548Y-1142167D01*
X3821071Y-1104071D01*
X3830595Y-1085024D01*
X3840119Y-1075500D01*
X3859167Y-1065976D01*
X4163928Y-1265976D02*
X4163928Y-1065976D01*
X4249643Y-1265976D02*
X4249643Y-1161214D01*
X4240119Y-1142167D01*
X4221071Y-1132643D01*
X4192500Y-1132643D01*
X4173452Y-1142167D01*
X4163928Y-1151690D01*
X4373452Y-1265976D02*
X4354405Y-1256452D01*
X4344881Y-1246929D01*
X4335357Y-1227881D01*
X4335357Y-1170738D01*
X4344881Y-1151690D01*
X4354405Y-1142167D01*
X4373452Y-1132643D01*
X4402024Y-1132643D01*
X4421071Y-1142167D01*
X4430595Y-1151690D01*
X4440119Y-1170738D01*
X4440119Y-1227881D01*
X4430595Y-1246929D01*
X4421071Y-1256452D01*
X4402024Y-1265976D01*
X4373452Y-1265976D01*
X4554405Y-1265976D02*
X4535357Y-1256452D01*
X4525833Y-1237405D01*
X4525833Y-1065976D01*
X4706786Y-1256452D02*
X4687738Y-1265976D01*
X4649643Y-1265976D01*
X4630595Y-1256452D01*
X4621071Y-1237405D01*
X4621071Y-1161214D01*
X4630595Y-1142167D01*
X4649643Y-1132643D01*
X4687738Y-1132643D01*
X4706786Y-1142167D01*
X4716310Y-1161214D01*
X4716310Y-1180262D01*
X4621071Y-1199310D01*
X4792500Y-1256452D02*
X4811548Y-1265976D01*
X4849643Y-1265976D01*
X4868690Y-1256452D01*
X4878214Y-1237405D01*
X4878214Y-1227881D01*
X4868690Y-1208833D01*
X4849643Y-1199310D01*
X4821071Y-1199310D01*
X4802024Y-1189786D01*
X4792500Y-1170738D01*
X4792500Y-1161214D01*
X4802024Y-1142167D01*
X4821071Y-1132643D01*
X4849643Y-1132643D01*
X4868690Y-1142167D01*
X4944881Y-1342167D02*
X4954405Y-1332643D01*
X4973452Y-1304071D01*
X4982976Y-1285024D01*
X4992500Y-1256452D01*
X5002024Y-1208833D01*
X5002024Y-1170738D01*
X4992500Y-1123119D01*
X4982976Y-1094548D01*
X4973452Y-1075500D01*
X4954405Y-1046928D01*
X4944881Y-1037405D01*
D15*
X-29215Y-1467784D02*
X-29215Y-1411215D01*
X-85785Y-1411215D01*
X-85785Y-1467784D01*
X-29215Y-1467784D01*
D11*
X278214Y-1329976D02*
X297262Y-1329976D01*
X316310Y-1339500D01*
X325833Y-1349024D01*
X335357Y-1368071D01*
X344881Y-1406167D01*
X344881Y-1453786D01*
X335357Y-1491881D01*
X325833Y-1510928D01*
X316310Y-1520452D01*
X297262Y-1529976D01*
X278214Y-1529976D01*
X259167Y-1520452D01*
X249643Y-1510928D01*
X240119Y-1491881D01*
X230595Y-1453786D01*
X230595Y-1406167D01*
X240119Y-1368071D01*
X249643Y-1349024D01*
X259167Y-1339500D01*
X278214Y-1329976D01*
X430595Y-1510928D02*
X440119Y-1520452D01*
X430595Y-1529976D01*
X421071Y-1520452D01*
X430595Y-1510928D01*
X430595Y-1529976D01*
X554405Y-1415690D02*
X535357Y-1406167D01*
X525833Y-1396643D01*
X516309Y-1377595D01*
X516309Y-1368071D01*
X525833Y-1349024D01*
X535357Y-1339500D01*
X554405Y-1329976D01*
X592500Y-1329976D01*
X611548Y-1339500D01*
X621071Y-1349024D01*
X630595Y-1368071D01*
X630595Y-1377595D01*
X621071Y-1396643D01*
X611548Y-1406167D01*
X592500Y-1415690D01*
X554405Y-1415690D01*
X535357Y-1425214D01*
X525833Y-1434738D01*
X516309Y-1453786D01*
X516309Y-1491881D01*
X525833Y-1510928D01*
X535357Y-1520452D01*
X554405Y-1529976D01*
X592500Y-1529976D01*
X611548Y-1520452D01*
X621071Y-1510928D01*
X630595Y-1491881D01*
X630595Y-1453786D01*
X621071Y-1434738D01*
X611548Y-1425214D01*
X592500Y-1415690D01*
X754405Y-1329976D02*
X773452Y-1329976D01*
X792500Y-1339500D01*
X802024Y-1349024D01*
X811548Y-1368071D01*
X821071Y-1406167D01*
X821071Y-1453786D01*
X811548Y-1491881D01*
X802024Y-1510928D01*
X792500Y-1520452D01*
X773452Y-1529976D01*
X754405Y-1529976D01*
X735357Y-1520452D01*
X725833Y-1510928D01*
X716309Y-1491881D01*
X706786Y-1453786D01*
X706786Y-1406167D01*
X716309Y-1368071D01*
X725833Y-1349024D01*
X735357Y-1339500D01*
X754405Y-1329976D01*
X944881Y-1329976D02*
X963928Y-1329976D01*
X982976Y-1339500D01*
X992500Y-1349024D01*
X1002024Y-1368071D01*
X1011548Y-1406167D01*
X1011548Y-1453786D01*
X1002024Y-1491881D01*
X992500Y-1510928D01*
X982976Y-1520452D01*
X963928Y-1529976D01*
X944881Y-1529976D01*
X925833Y-1520452D01*
X916309Y-1510928D01*
X906786Y-1491881D01*
X897262Y-1453786D01*
X897262Y-1406167D01*
X906786Y-1368071D01*
X916309Y-1349024D01*
X925833Y-1339500D01*
X944881Y-1329976D01*
X1097262Y-1529976D02*
X1097262Y-1396643D01*
X1097262Y-1415690D02*
X1106786Y-1406167D01*
X1125833Y-1396643D01*
X1154405Y-1396643D01*
X1173452Y-1406167D01*
X1182976Y-1425214D01*
X1182976Y-1529976D01*
X1182976Y-1425214D02*
X1192500Y-1406167D01*
X1211548Y-1396643D01*
X1240119Y-1396643D01*
X1259167Y-1406167D01*
X1268690Y-1425214D01*
X1268690Y-1529976D01*
X1363929Y-1529976D02*
X1363929Y-1396643D01*
X1363929Y-1415690D02*
X1373452Y-1406167D01*
X1392500Y-1396643D01*
X1421071Y-1396643D01*
X1440119Y-1406167D01*
X1449643Y-1425214D01*
X1449643Y-1529976D01*
X1449643Y-1425214D02*
X1459167Y-1406167D01*
X1478214Y-1396643D01*
X1506786Y-1396643D01*
X1525833Y-1406167D01*
X1535357Y-1425214D01*
X1535357Y-1529976D01*
X1925833Y-1320452D02*
X1754405Y-1577595D01*
X2182976Y-1329976D02*
X2202024Y-1329976D01*
X2221071Y-1339500D01*
X2230595Y-1349024D01*
X2240119Y-1368071D01*
X2249643Y-1406167D01*
X2249643Y-1453786D01*
X2240119Y-1491881D01*
X2230595Y-1510928D01*
X2221071Y-1520452D01*
X2202024Y-1529976D01*
X2182976Y-1529976D01*
X2163929Y-1520452D01*
X2154405Y-1510928D01*
X2144881Y-1491881D01*
X2135357Y-1453786D01*
X2135357Y-1406167D01*
X2144881Y-1368071D01*
X2154405Y-1349024D01*
X2163929Y-1339500D01*
X2182976Y-1329976D01*
X2335357Y-1510928D02*
X2344881Y-1520452D01*
X2335357Y-1529976D01*
X2325833Y-1520452D01*
X2335357Y-1510928D01*
X2335357Y-1529976D01*
X2468690Y-1329976D02*
X2487738Y-1329976D01*
X2506786Y-1339500D01*
X2516310Y-1349024D01*
X2525833Y-1368071D01*
X2535357Y-1406167D01*
X2535357Y-1453786D01*
X2525833Y-1491881D01*
X2516310Y-1510928D01*
X2506786Y-1520452D01*
X2487738Y-1529976D01*
X2468690Y-1529976D01*
X2449643Y-1520452D01*
X2440119Y-1510928D01*
X2430595Y-1491881D01*
X2421071Y-1453786D01*
X2421071Y-1406167D01*
X2430595Y-1368071D01*
X2440119Y-1349024D01*
X2449643Y-1339500D01*
X2468690Y-1329976D01*
X2602024Y-1329976D02*
X2725833Y-1329976D01*
X2659167Y-1406167D01*
X2687738Y-1406167D01*
X2706786Y-1415690D01*
X2716310Y-1425214D01*
X2725833Y-1444262D01*
X2725833Y-1491881D01*
X2716310Y-1510928D01*
X2706786Y-1520452D01*
X2687738Y-1529976D01*
X2630595Y-1529976D01*
X2611548Y-1520452D01*
X2602024Y-1510928D01*
X2916309Y-1529976D02*
X2802024Y-1529976D01*
X2859167Y-1529976D02*
X2859167Y-1329976D01*
X2840119Y-1358548D01*
X2821071Y-1377595D01*
X2802024Y-1387119D01*
X3097262Y-1329976D02*
X3002024Y-1329976D01*
X2992500Y-1425214D01*
X3002024Y-1415690D01*
X3021071Y-1406167D01*
X3068690Y-1406167D01*
X3087738Y-1415690D01*
X3097262Y-1425214D01*
X3106786Y-1444262D01*
X3106786Y-1491881D01*
X3097262Y-1510928D01*
X3087738Y-1520452D01*
X3068690Y-1529976D01*
X3021071Y-1529976D01*
X3002024Y-1520452D01*
X2992500Y-1510928D01*
X3182976Y-1329976D02*
X3182976Y-1368071D01*
X3259167Y-1329976D02*
X3259167Y-1368071D01*
X3554405Y-1606167D02*
X3544881Y-1596643D01*
X3525833Y-1568071D01*
X3516309Y-1549024D01*
X3506786Y-1520452D01*
X3497262Y-1472833D01*
X3497262Y-1434738D01*
X3506786Y-1387119D01*
X3516309Y-1358548D01*
X3525833Y-1339500D01*
X3544881Y-1310929D01*
X3554405Y-1301405D01*
X3611548Y-1329976D02*
X3735357Y-1329976D01*
X3668690Y-1406167D01*
X3697262Y-1406167D01*
X3716309Y-1415690D01*
X3725833Y-1425214D01*
X3735357Y-1444262D01*
X3735357Y-1491881D01*
X3725833Y-1510928D01*
X3716309Y-1520452D01*
X3697262Y-1529976D01*
X3640119Y-1529976D01*
X3621071Y-1520452D01*
X3611548Y-1510928D01*
X3906786Y-1329976D02*
X3868690Y-1329976D01*
X3849643Y-1339500D01*
X3840119Y-1349024D01*
X3821071Y-1377595D01*
X3811548Y-1415690D01*
X3811548Y-1491881D01*
X3821071Y-1510928D01*
X3830595Y-1520452D01*
X3849643Y-1529976D01*
X3887738Y-1529976D01*
X3906786Y-1520452D01*
X3916309Y-1510928D01*
X3925833Y-1491881D01*
X3925833Y-1444262D01*
X3916309Y-1425214D01*
X3906786Y-1415690D01*
X3887738Y-1406167D01*
X3849643Y-1406167D01*
X3830595Y-1415690D01*
X3821071Y-1425214D01*
X3811548Y-1444262D01*
X4163928Y-1529976D02*
X4163928Y-1329976D01*
X4249643Y-1529976D02*
X4249643Y-1425214D01*
X4240119Y-1406167D01*
X4221071Y-1396643D01*
X4192500Y-1396643D01*
X4173452Y-1406167D01*
X4163928Y-1415690D01*
X4373452Y-1529976D02*
X4354405Y-1520452D01*
X4344881Y-1510928D01*
X4335357Y-1491881D01*
X4335357Y-1434738D01*
X4344881Y-1415690D01*
X4354405Y-1406167D01*
X4373452Y-1396643D01*
X4402024Y-1396643D01*
X4421071Y-1406167D01*
X4430595Y-1415690D01*
X4440119Y-1434738D01*
X4440119Y-1491881D01*
X4430595Y-1510928D01*
X4421071Y-1520452D01*
X4402024Y-1529976D01*
X4373452Y-1529976D01*
X4554405Y-1529976D02*
X4535357Y-1520452D01*
X4525833Y-1501405D01*
X4525833Y-1329976D01*
X4706786Y-1520452D02*
X4687738Y-1529976D01*
X4649643Y-1529976D01*
X4630595Y-1520452D01*
X4621071Y-1501405D01*
X4621071Y-1425214D01*
X4630595Y-1406167D01*
X4649643Y-1396643D01*
X4687738Y-1396643D01*
X4706786Y-1406167D01*
X4716310Y-1425214D01*
X4716310Y-1444262D01*
X4621071Y-1463309D01*
X4792500Y-1520452D02*
X4811548Y-1529976D01*
X4849643Y-1529976D01*
X4868690Y-1520452D01*
X4878214Y-1501405D01*
X4878214Y-1491881D01*
X4868690Y-1472833D01*
X4849643Y-1463309D01*
X4821071Y-1463309D01*
X4802024Y-1453786D01*
X4792500Y-1434738D01*
X4792500Y-1425214D01*
X4802024Y-1406167D01*
X4821071Y-1396643D01*
X4849643Y-1396643D01*
X4868690Y-1406167D01*
X4944881Y-1606167D02*
X4954405Y-1596643D01*
X4973452Y-1568071D01*
X4982976Y-1549024D01*
X4992500Y-1520452D01*
X5002024Y-1472833D01*
X5002024Y-1434738D01*
X4992500Y-1387119D01*
X4982976Y-1358548D01*
X4973452Y-1339500D01*
X4954405Y-1310929D01*
X4944881Y-1301405D01*
D16*
X-67500Y-1753500D02*
X-17500Y-1703500D01*
X-67500Y-1653500D01*
X-117500Y-1703500D01*
X-67500Y-1753500D01*
D11*
X344881Y-1793976D02*
X230595Y-1793976D01*
X287738Y-1793976D02*
X287738Y-1593976D01*
X268690Y-1622548D01*
X249643Y-1641595D01*
X230595Y-1651119D01*
X430595Y-1774928D02*
X440119Y-1784452D01*
X430595Y-1793976D01*
X421071Y-1784452D01*
X430595Y-1774928D01*
X430595Y-1793976D01*
X563929Y-1593976D02*
X582976Y-1593976D01*
X602024Y-1603500D01*
X611548Y-1613024D01*
X621071Y-1632071D01*
X630595Y-1670167D01*
X630595Y-1717786D01*
X621071Y-1755881D01*
X611548Y-1774928D01*
X602024Y-1784452D01*
X582976Y-1793976D01*
X563929Y-1793976D01*
X544881Y-1784452D01*
X535357Y-1774928D01*
X525833Y-1755881D01*
X516309Y-1717786D01*
X516309Y-1670167D01*
X525833Y-1632071D01*
X535357Y-1613024D01*
X544881Y-1603500D01*
X563929Y-1593976D01*
X754405Y-1593976D02*
X773452Y-1593976D01*
X792500Y-1603500D01*
X802024Y-1613024D01*
X811548Y-1632071D01*
X821071Y-1670167D01*
X821071Y-1717786D01*
X811548Y-1755881D01*
X802024Y-1774928D01*
X792500Y-1784452D01*
X773452Y-1793976D01*
X754405Y-1793976D01*
X735357Y-1784452D01*
X725833Y-1774928D01*
X716309Y-1755881D01*
X706786Y-1717786D01*
X706786Y-1670167D01*
X716309Y-1632071D01*
X725833Y-1613024D01*
X735357Y-1603500D01*
X754405Y-1593976D01*
X944881Y-1593976D02*
X963928Y-1593976D01*
X982976Y-1603500D01*
X992500Y-1613024D01*
X1002024Y-1632071D01*
X1011548Y-1670167D01*
X1011548Y-1717786D01*
X1002024Y-1755881D01*
X992500Y-1774928D01*
X982976Y-1784452D01*
X963928Y-1793976D01*
X944881Y-1793976D01*
X925833Y-1784452D01*
X916309Y-1774928D01*
X906786Y-1755881D01*
X897262Y-1717786D01*
X897262Y-1670167D01*
X906786Y-1632071D01*
X916309Y-1613024D01*
X925833Y-1603500D01*
X944881Y-1593976D01*
X1097262Y-1793976D02*
X1097262Y-1660643D01*
X1097262Y-1679690D02*
X1106786Y-1670167D01*
X1125833Y-1660643D01*
X1154405Y-1660643D01*
X1173452Y-1670167D01*
X1182976Y-1689214D01*
X1182976Y-1793976D01*
X1182976Y-1689214D02*
X1192500Y-1670167D01*
X1211548Y-1660643D01*
X1240119Y-1660643D01*
X1259167Y-1670167D01*
X1268690Y-1689214D01*
X1268690Y-1793976D01*
X1363929Y-1793976D02*
X1363929Y-1660643D01*
X1363929Y-1679690D02*
X1373452Y-1670167D01*
X1392500Y-1660643D01*
X1421071Y-1660643D01*
X1440119Y-1670167D01*
X1449643Y-1689214D01*
X1449643Y-1793976D01*
X1449643Y-1689214D02*
X1459167Y-1670167D01*
X1478214Y-1660643D01*
X1506786Y-1660643D01*
X1525833Y-1670167D01*
X1535357Y-1689214D01*
X1535357Y-1793976D01*
X1925833Y-1584452D02*
X1754405Y-1841595D01*
X2182976Y-1593976D02*
X2202024Y-1593976D01*
X2221071Y-1603500D01*
X2230595Y-1613024D01*
X2240119Y-1632071D01*
X2249643Y-1670167D01*
X2249643Y-1717786D01*
X2240119Y-1755881D01*
X2230595Y-1774928D01*
X2221071Y-1784452D01*
X2202024Y-1793976D01*
X2182976Y-1793976D01*
X2163929Y-1784452D01*
X2154405Y-1774928D01*
X2144881Y-1755881D01*
X2135357Y-1717786D01*
X2135357Y-1670167D01*
X2144881Y-1632071D01*
X2154405Y-1613024D01*
X2163929Y-1603500D01*
X2182976Y-1593976D01*
X2335357Y-1774928D02*
X2344881Y-1784452D01*
X2335357Y-1793976D01*
X2325833Y-1784452D01*
X2335357Y-1774928D01*
X2335357Y-1793976D01*
X2468690Y-1593976D02*
X2487738Y-1593976D01*
X2506786Y-1603500D01*
X2516310Y-1613024D01*
X2525833Y-1632071D01*
X2535357Y-1670167D01*
X2535357Y-1717786D01*
X2525833Y-1755881D01*
X2516310Y-1774928D01*
X2506786Y-1784452D01*
X2487738Y-1793976D01*
X2468690Y-1793976D01*
X2449643Y-1784452D01*
X2440119Y-1774928D01*
X2430595Y-1755881D01*
X2421071Y-1717786D01*
X2421071Y-1670167D01*
X2430595Y-1632071D01*
X2440119Y-1613024D01*
X2449643Y-1603500D01*
X2468690Y-1593976D01*
X2602024Y-1593976D02*
X2725833Y-1593976D01*
X2659167Y-1670167D01*
X2687738Y-1670167D01*
X2706786Y-1679690D01*
X2716310Y-1689214D01*
X2725833Y-1708262D01*
X2725833Y-1755881D01*
X2716310Y-1774928D01*
X2706786Y-1784452D01*
X2687738Y-1793976D01*
X2630595Y-1793976D01*
X2611548Y-1784452D01*
X2602024Y-1774928D01*
X2821071Y-1793976D02*
X2859167Y-1793976D01*
X2878214Y-1784452D01*
X2887738Y-1774928D01*
X2906786Y-1746357D01*
X2916309Y-1708262D01*
X2916309Y-1632071D01*
X2906786Y-1613024D01*
X2897262Y-1603500D01*
X2878214Y-1593976D01*
X2840119Y-1593976D01*
X2821071Y-1603500D01*
X2811548Y-1613024D01*
X2802024Y-1632071D01*
X2802024Y-1679690D01*
X2811548Y-1698738D01*
X2821071Y-1708262D01*
X2840119Y-1717786D01*
X2878214Y-1717786D01*
X2897262Y-1708262D01*
X2906786Y-1698738D01*
X2916309Y-1679690D01*
X3087738Y-1660643D02*
X3087738Y-1793976D01*
X3040119Y-1584452D02*
X2992500Y-1727309D01*
X3116309Y-1727309D01*
X3182976Y-1593976D02*
X3182976Y-1632071D01*
X3259167Y-1593976D02*
X3259167Y-1632071D01*
X3554405Y-1870167D02*
X3544881Y-1860643D01*
X3525833Y-1832071D01*
X3516309Y-1813024D01*
X3506786Y-1784452D01*
X3497262Y-1736833D01*
X3497262Y-1698738D01*
X3506786Y-1651119D01*
X3516309Y-1622548D01*
X3525833Y-1603500D01*
X3544881Y-1574928D01*
X3554405Y-1565405D01*
X3611548Y-1593976D02*
X3735357Y-1593976D01*
X3668690Y-1670167D01*
X3697262Y-1670167D01*
X3716309Y-1679690D01*
X3725833Y-1689214D01*
X3735357Y-1708262D01*
X3735357Y-1755881D01*
X3725833Y-1774928D01*
X3716309Y-1784452D01*
X3697262Y-1793976D01*
X3640119Y-1793976D01*
X3621071Y-1784452D01*
X3611548Y-1774928D01*
X3916309Y-1593976D02*
X3821071Y-1593976D01*
X3811548Y-1689214D01*
X3821071Y-1679690D01*
X3840119Y-1670167D01*
X3887738Y-1670167D01*
X3906786Y-1679690D01*
X3916309Y-1689214D01*
X3925833Y-1708262D01*
X3925833Y-1755881D01*
X3916309Y-1774928D01*
X3906786Y-1784452D01*
X3887738Y-1793976D01*
X3840119Y-1793976D01*
X3821071Y-1784452D01*
X3811548Y-1774928D01*
X4163928Y-1793976D02*
X4163928Y-1593976D01*
X4249643Y-1793976D02*
X4249643Y-1689214D01*
X4240119Y-1670167D01*
X4221071Y-1660643D01*
X4192500Y-1660643D01*
X4173452Y-1670167D01*
X4163928Y-1679690D01*
X4373452Y-1793976D02*
X4354405Y-1784452D01*
X4344881Y-1774928D01*
X4335357Y-1755881D01*
X4335357Y-1698738D01*
X4344881Y-1679690D01*
X4354405Y-1670167D01*
X4373452Y-1660643D01*
X4402024Y-1660643D01*
X4421071Y-1670167D01*
X4430595Y-1679690D01*
X4440119Y-1698738D01*
X4440119Y-1755881D01*
X4430595Y-1774928D01*
X4421071Y-1784452D01*
X4402024Y-1793976D01*
X4373452Y-1793976D01*
X4554405Y-1793976D02*
X4535357Y-1784452D01*
X4525833Y-1765405D01*
X4525833Y-1593976D01*
X4706786Y-1784452D02*
X4687738Y-1793976D01*
X4649643Y-1793976D01*
X4630595Y-1784452D01*
X4621071Y-1765405D01*
X4621071Y-1689214D01*
X4630595Y-1670167D01*
X4649643Y-1660643D01*
X4687738Y-1660643D01*
X4706786Y-1670167D01*
X4716310Y-1689214D01*
X4716310Y-1708262D01*
X4621071Y-1727309D01*
X4792500Y-1784452D02*
X4811548Y-1793976D01*
X4849643Y-1793976D01*
X4868690Y-1784452D01*
X4878214Y-1765405D01*
X4878214Y-1755881D01*
X4868690Y-1736833D01*
X4849643Y-1727309D01*
X4821071Y-1727309D01*
X4802024Y-1717786D01*
X4792500Y-1698738D01*
X4792500Y-1689214D01*
X4802024Y-1670167D01*
X4821071Y-1660643D01*
X4849643Y-1660643D01*
X4868690Y-1670167D01*
X4944881Y-1870167D02*
X4954405Y-1860643D01*
X4973452Y-1832071D01*
X4982976Y-1813024D01*
X4992500Y-1784452D01*
X5002024Y-1736833D01*
X5002024Y-1698738D01*
X4992500Y-1651119D01*
X4982976Y-1622548D01*
X4973452Y-1603500D01*
X4954405Y-1574928D01*
X4944881Y-1565405D01*
X-217500Y-1867500D02*
X-17500Y-2067500D01*
X-17500Y-1867500D02*
X-217500Y-2067500D01*
X-17500Y-1967500D02*
G75*
G03*
X-17500Y-1967500I-100000J0D01*
G01*
X221071Y-1857976D02*
X344881Y-1857976D01*
X278214Y-1934167D01*
X306786Y-1934167D01*
X325833Y-1943690D01*
X335357Y-1953214D01*
X344881Y-1972262D01*
X344881Y-2019881D01*
X335357Y-2038928D01*
X325833Y-2048452D01*
X306786Y-2057976D01*
X249643Y-2057976D01*
X230595Y-2048452D01*
X221071Y-2038928D01*
X430595Y-2038928D02*
X440119Y-2048452D01*
X430595Y-2057976D01*
X421071Y-2048452D01*
X430595Y-2038928D01*
X430595Y-2057976D01*
X516309Y-1877024D02*
X525833Y-1867500D01*
X544881Y-1857976D01*
X592500Y-1857976D01*
X611548Y-1867500D01*
X621071Y-1877024D01*
X630595Y-1896071D01*
X630595Y-1915119D01*
X621071Y-1943690D01*
X506786Y-2057976D01*
X630595Y-2057976D01*
X754405Y-1857976D02*
X773452Y-1857976D01*
X792500Y-1867500D01*
X802024Y-1877024D01*
X811548Y-1896071D01*
X821071Y-1934167D01*
X821071Y-1981786D01*
X811548Y-2019881D01*
X802024Y-2038928D01*
X792500Y-2048452D01*
X773452Y-2057976D01*
X754405Y-2057976D01*
X735357Y-2048452D01*
X725833Y-2038928D01*
X716309Y-2019881D01*
X706786Y-1981786D01*
X706786Y-1934167D01*
X716309Y-1896071D01*
X725833Y-1877024D01*
X735357Y-1867500D01*
X754405Y-1857976D01*
X944881Y-1857976D02*
X963928Y-1857976D01*
X982976Y-1867500D01*
X992500Y-1877024D01*
X1002024Y-1896071D01*
X1011548Y-1934167D01*
X1011548Y-1981786D01*
X1002024Y-2019881D01*
X992500Y-2038928D01*
X982976Y-2048452D01*
X963928Y-2057976D01*
X944881Y-2057976D01*
X925833Y-2048452D01*
X916309Y-2038928D01*
X906786Y-2019881D01*
X897262Y-1981786D01*
X897262Y-1934167D01*
X906786Y-1896071D01*
X916309Y-1877024D01*
X925833Y-1867500D01*
X944881Y-1857976D01*
X1097262Y-2057976D02*
X1097262Y-1924643D01*
X1097262Y-1943690D02*
X1106786Y-1934167D01*
X1125833Y-1924643D01*
X1154405Y-1924643D01*
X1173452Y-1934167D01*
X1182976Y-1953214D01*
X1182976Y-2057976D01*
X1182976Y-1953214D02*
X1192500Y-1934167D01*
X1211548Y-1924643D01*
X1240119Y-1924643D01*
X1259167Y-1934167D01*
X1268690Y-1953214D01*
X1268690Y-2057976D01*
X1363929Y-2057976D02*
X1363929Y-1924643D01*
X1363929Y-1943690D02*
X1373452Y-1934167D01*
X1392500Y-1924643D01*
X1421071Y-1924643D01*
X1440119Y-1934167D01*
X1449643Y-1953214D01*
X1449643Y-2057976D01*
X1449643Y-1953214D02*
X1459167Y-1934167D01*
X1478214Y-1924643D01*
X1506786Y-1924643D01*
X1525833Y-1934167D01*
X1535357Y-1953214D01*
X1535357Y-2057976D01*
X1925833Y-1848452D02*
X1754405Y-2105595D01*
X2182976Y-1857976D02*
X2202024Y-1857976D01*
X2221071Y-1867500D01*
X2230595Y-1877024D01*
X2240119Y-1896071D01*
X2249643Y-1934167D01*
X2249643Y-1981786D01*
X2240119Y-2019881D01*
X2230595Y-2038928D01*
X2221071Y-2048452D01*
X2202024Y-2057976D01*
X2182976Y-2057976D01*
X2163929Y-2048452D01*
X2154405Y-2038928D01*
X2144881Y-2019881D01*
X2135357Y-1981786D01*
X2135357Y-1934167D01*
X2144881Y-1896071D01*
X2154405Y-1877024D01*
X2163929Y-1867500D01*
X2182976Y-1857976D01*
X2335357Y-2038928D02*
X2344881Y-2048452D01*
X2335357Y-2057976D01*
X2325833Y-2048452D01*
X2335357Y-2038928D01*
X2335357Y-2057976D01*
X2535357Y-2057976D02*
X2421071Y-2057976D01*
X2478214Y-2057976D02*
X2478214Y-1857976D01*
X2459167Y-1886548D01*
X2440119Y-1905595D01*
X2421071Y-1915119D01*
X2611548Y-1877024D02*
X2621071Y-1867500D01*
X2640119Y-1857976D01*
X2687738Y-1857976D01*
X2706786Y-1867500D01*
X2716310Y-1877024D01*
X2725833Y-1896071D01*
X2725833Y-1915119D01*
X2716310Y-1943690D01*
X2602024Y-2057976D01*
X2725833Y-2057976D01*
X2897262Y-1857976D02*
X2859167Y-1857976D01*
X2840119Y-1867500D01*
X2830595Y-1877024D01*
X2811548Y-1905595D01*
X2802024Y-1943690D01*
X2802024Y-2019881D01*
X2811548Y-2038928D01*
X2821071Y-2048452D01*
X2840119Y-2057976D01*
X2878214Y-2057976D01*
X2897262Y-2048452D01*
X2906786Y-2038928D01*
X2916309Y-2019881D01*
X2916309Y-1972262D01*
X2906786Y-1953214D01*
X2897262Y-1943690D01*
X2878214Y-1934167D01*
X2840119Y-1934167D01*
X2821071Y-1943690D01*
X2811548Y-1953214D01*
X2802024Y-1972262D01*
X3040119Y-1857976D02*
X3059167Y-1857976D01*
X3078214Y-1867500D01*
X3087738Y-1877024D01*
X3097262Y-1896071D01*
X3106786Y-1934167D01*
X3106786Y-1981786D01*
X3097262Y-2019881D01*
X3087738Y-2038928D01*
X3078214Y-2048452D01*
X3059167Y-2057976D01*
X3040119Y-2057976D01*
X3021071Y-2048452D01*
X3011548Y-2038928D01*
X3002024Y-2019881D01*
X2992500Y-1981786D01*
X2992500Y-1934167D01*
X3002024Y-1896071D01*
X3011548Y-1877024D01*
X3021071Y-1867500D01*
X3040119Y-1857976D01*
X3182976Y-1857976D02*
X3182976Y-1896071D01*
X3259167Y-1857976D02*
X3259167Y-1896071D01*
X3554405Y-2134167D02*
X3544881Y-2124643D01*
X3525833Y-2096071D01*
X3516309Y-2077024D01*
X3506786Y-2048452D01*
X3497262Y-2000833D01*
X3497262Y-1962738D01*
X3506786Y-1915119D01*
X3516309Y-1886548D01*
X3525833Y-1867500D01*
X3544881Y-1838928D01*
X3554405Y-1829405D01*
X3621071Y-1877024D02*
X3630595Y-1867500D01*
X3649643Y-1857976D01*
X3697262Y-1857976D01*
X3716309Y-1867500D01*
X3725833Y-1877024D01*
X3735357Y-1896071D01*
X3735357Y-1915119D01*
X3725833Y-1943690D01*
X3611548Y-2057976D01*
X3735357Y-2057976D01*
X3973452Y-2057976D02*
X3973452Y-1857976D01*
X4059167Y-2057976D02*
X4059167Y-1953214D01*
X4049643Y-1934167D01*
X4030595Y-1924643D01*
X4002024Y-1924643D01*
X3982976Y-1934167D01*
X3973452Y-1943690D01*
X4182976Y-2057976D02*
X4163928Y-2048452D01*
X4154405Y-2038928D01*
X4144881Y-2019881D01*
X4144881Y-1962738D01*
X4154405Y-1943690D01*
X4163928Y-1934167D01*
X4182976Y-1924643D01*
X4211548Y-1924643D01*
X4230595Y-1934167D01*
X4240119Y-1943690D01*
X4249643Y-1962738D01*
X4249643Y-2019881D01*
X4240119Y-2038928D01*
X4230595Y-2048452D01*
X4211548Y-2057976D01*
X4182976Y-2057976D01*
X4363929Y-2057976D02*
X4344881Y-2048452D01*
X4335357Y-2029405D01*
X4335357Y-1857976D01*
X4516310Y-2048452D02*
X4497262Y-2057976D01*
X4459167Y-2057976D01*
X4440119Y-2048452D01*
X4430595Y-2029405D01*
X4430595Y-1953214D01*
X4440119Y-1934167D01*
X4459167Y-1924643D01*
X4497262Y-1924643D01*
X4516310Y-1934167D01*
X4525833Y-1953214D01*
X4525833Y-1972262D01*
X4430595Y-1991309D01*
X4602024Y-2048452D02*
X4621071Y-2057976D01*
X4659167Y-2057976D01*
X4678214Y-2048452D01*
X4687738Y-2029405D01*
X4687738Y-2019881D01*
X4678214Y-2000833D01*
X4659167Y-1991309D01*
X4630595Y-1991309D01*
X4611548Y-1981786D01*
X4602024Y-1962738D01*
X4602024Y-1953214D01*
X4611548Y-1934167D01*
X4630595Y-1924643D01*
X4659167Y-1924643D01*
X4678214Y-1934167D01*
X4754405Y-2134167D02*
X4763929Y-2124643D01*
X4782976Y-2096071D01*
X4792500Y-2077024D01*
X4802024Y-2048452D01*
X4811548Y-2000833D01*
X4811548Y-1962738D01*
X4802024Y-1915119D01*
X4792500Y-1886548D01*
X4782976Y-1867500D01*
X4763929Y-1838928D01*
X4754405Y-1829405D01*
M02*
