%TF.GenerationSoftware,KiCad,Pcbnew,(6.0.4)*%
%TF.CreationDate,2022-10-03T14:38:54+02:00*%
%TF.ProjectId,GB-Dumper,47422d44-756d-4706-9572-2e6b69636164,0.6*%
%TF.SameCoordinates,PX57bcf00PY83cc3c0*%
%TF.FileFunction,Other,Comment*%
%FSLAX46Y46*%
G04 Gerber Fmt 4.6, Leading zero omitted, Abs format (unit mm)*
G04 Created by KiCad (PCBNEW (6.0.4)) date 2022-10-03 14:38:54*
%MOMM*%
%LPD*%
G01*
G04 APERTURE LIST*
%ADD10C,0.100000*%
%ADD11C,0.150000*%
%ADD12C,0.300000*%
%ADD13C,0.400000*%
%TA.AperFunction,Profile*%
%ADD14C,0.150000*%
%TD*%
G04 APERTURE END LIST*
D10*
D11*
X85002200Y-27807200D02*
X85002200Y-59807200D01*
X193002200Y-59807200D01*
X193002200Y-27807200D01*
X85002200Y-27807200D01*
D10*
D11*
X-82000000Y128200000D02*
X-82000000Y-61807200D01*
X195002200Y-61807200D01*
X195002200Y128200000D01*
X-82000000Y128200000D01*
D10*
D11*
X-80000000Y126200000D02*
X-80000000Y-59807200D01*
X193002200Y-59807200D01*
X193002200Y126200000D01*
X-80000000Y126200000D01*
D10*
D11*
X-32000000Y126200000D02*
X-32000000Y128200000D01*
D10*
D11*
X18000000Y126200000D02*
X18000000Y128200000D01*
D10*
D11*
X68000000Y126200000D02*
X68000000Y128200000D01*
D10*
D11*
X118000000Y126200000D02*
X118000000Y128200000D01*
D10*
D11*
X168000000Y126200000D02*
X168000000Y128200000D01*
D10*
D11*
X-55934524Y126611905D02*
X-56677381Y126611905D01*
X-56305953Y126611905D02*
X-56305953Y127911905D01*
X-56429762Y127726191D01*
X-56553572Y127602381D01*
X-56677381Y127540477D01*
D10*
D11*
X-6677381Y127788096D02*
X-6615477Y127850000D01*
X-6491667Y127911905D01*
X-6182143Y127911905D01*
X-6058334Y127850000D01*
X-5996429Y127788096D01*
X-5934524Y127664286D01*
X-5934524Y127540477D01*
X-5996429Y127354762D01*
X-6739286Y126611905D01*
X-5934524Y126611905D01*
D10*
D11*
X43260714Y127911905D02*
X44065476Y127911905D01*
X43632142Y127416667D01*
X43817857Y127416667D01*
X43941666Y127354762D01*
X44003571Y127292858D01*
X44065476Y127169048D01*
X44065476Y126859524D01*
X44003571Y126735715D01*
X43941666Y126673810D01*
X43817857Y126611905D01*
X43446428Y126611905D01*
X43322619Y126673810D01*
X43260714Y126735715D01*
D10*
D11*
X93941666Y127478572D02*
X93941666Y126611905D01*
X93632142Y127973810D02*
X93322619Y127045239D01*
X94127380Y127045239D01*
D10*
D11*
X144003571Y127911905D02*
X143384523Y127911905D01*
X143322619Y127292858D01*
X143384523Y127354762D01*
X143508333Y127416667D01*
X143817857Y127416667D01*
X143941666Y127354762D01*
X144003571Y127292858D01*
X144065476Y127169048D01*
X144065476Y126859524D01*
X144003571Y126735715D01*
X143941666Y126673810D01*
X143817857Y126611905D01*
X143508333Y126611905D01*
X143384523Y126673810D01*
X143322619Y126735715D01*
D10*
D11*
X193941666Y127911905D02*
X193694047Y127911905D01*
X193570238Y127850000D01*
X193508333Y127788096D01*
X193384523Y127602381D01*
X193322619Y127354762D01*
X193322619Y126859524D01*
X193384523Y126735715D01*
X193446428Y126673810D01*
X193570238Y126611905D01*
X193817857Y126611905D01*
X193941666Y126673810D01*
X194003571Y126735715D01*
X194065476Y126859524D01*
X194065476Y127169048D01*
X194003571Y127292858D01*
X193941666Y127354762D01*
X193817857Y127416667D01*
X193570238Y127416667D01*
X193446428Y127354762D01*
X193384523Y127292858D01*
X193322619Y127169048D01*
D10*
D11*
X-32000000Y-59807200D02*
X-32000000Y-61807200D01*
D10*
D11*
X18000000Y-59807200D02*
X18000000Y-61807200D01*
D10*
D11*
X68000000Y-59807200D02*
X68000000Y-61807200D01*
D10*
D11*
X118000000Y-59807200D02*
X118000000Y-61807200D01*
D10*
D11*
X168000000Y-59807200D02*
X168000000Y-61807200D01*
D10*
D11*
X-55934524Y-61395295D02*
X-56677381Y-61395295D01*
X-56305953Y-61395295D02*
X-56305953Y-60095295D01*
X-56429762Y-60281009D01*
X-56553572Y-60404819D01*
X-56677381Y-60466723D01*
D10*
D11*
X-6677381Y-60219104D02*
X-6615477Y-60157200D01*
X-6491667Y-60095295D01*
X-6182143Y-60095295D01*
X-6058334Y-60157200D01*
X-5996429Y-60219104D01*
X-5934524Y-60342914D01*
X-5934524Y-60466723D01*
X-5996429Y-60652438D01*
X-6739286Y-61395295D01*
X-5934524Y-61395295D01*
D10*
D11*
X43260714Y-60095295D02*
X44065476Y-60095295D01*
X43632142Y-60590533D01*
X43817857Y-60590533D01*
X43941666Y-60652438D01*
X44003571Y-60714342D01*
X44065476Y-60838152D01*
X44065476Y-61147676D01*
X44003571Y-61271485D01*
X43941666Y-61333390D01*
X43817857Y-61395295D01*
X43446428Y-61395295D01*
X43322619Y-61333390D01*
X43260714Y-61271485D01*
D10*
D11*
X93941666Y-60528628D02*
X93941666Y-61395295D01*
X93632142Y-60033390D02*
X93322619Y-60961961D01*
X94127380Y-60961961D01*
D10*
D11*
X144003571Y-60095295D02*
X143384523Y-60095295D01*
X143322619Y-60714342D01*
X143384523Y-60652438D01*
X143508333Y-60590533D01*
X143817857Y-60590533D01*
X143941666Y-60652438D01*
X144003571Y-60714342D01*
X144065476Y-60838152D01*
X144065476Y-61147676D01*
X144003571Y-61271485D01*
X143941666Y-61333390D01*
X143817857Y-61395295D01*
X143508333Y-61395295D01*
X143384523Y-61333390D01*
X143322619Y-61271485D01*
D10*
D11*
X193941666Y-60095295D02*
X193694047Y-60095295D01*
X193570238Y-60157200D01*
X193508333Y-60219104D01*
X193384523Y-60404819D01*
X193322619Y-60652438D01*
X193322619Y-61147676D01*
X193384523Y-61271485D01*
X193446428Y-61333390D01*
X193570238Y-61395295D01*
X193817857Y-61395295D01*
X193941666Y-61333390D01*
X194003571Y-61271485D01*
X194065476Y-61147676D01*
X194065476Y-60838152D01*
X194003571Y-60714342D01*
X193941666Y-60652438D01*
X193817857Y-60590533D01*
X193570238Y-60590533D01*
X193446428Y-60652438D01*
X193384523Y-60714342D01*
X193322619Y-60838152D01*
D10*
D11*
X-82000000Y78200000D02*
X-80000000Y78200000D01*
D10*
D11*
X-82000000Y28200000D02*
X-80000000Y28200000D01*
D10*
D11*
X-82000000Y-21800000D02*
X-80000000Y-21800000D01*
D10*
D11*
X-81309524Y102983334D02*
X-80690477Y102983334D01*
X-81433334Y102611905D02*
X-81000000Y103911905D01*
X-80566667Y102611905D01*
D10*
D11*
X-80907143Y53292858D02*
X-80721429Y53230953D01*
X-80659524Y53169048D01*
X-80597620Y53045239D01*
X-80597620Y52859524D01*
X-80659524Y52735715D01*
X-80721429Y52673810D01*
X-80845239Y52611905D01*
X-81340477Y52611905D01*
X-81340477Y53911905D01*
X-80907143Y53911905D01*
X-80783334Y53850000D01*
X-80721429Y53788096D01*
X-80659524Y53664286D01*
X-80659524Y53540477D01*
X-80721429Y53416667D01*
X-80783334Y53354762D01*
X-80907143Y53292858D01*
X-81340477Y53292858D01*
D10*
D11*
X-80597620Y2735715D02*
X-80659524Y2673810D01*
X-80845239Y2611905D01*
X-80969048Y2611905D01*
X-81154762Y2673810D01*
X-81278572Y2797620D01*
X-81340477Y2921429D01*
X-81402381Y3169048D01*
X-81402381Y3354762D01*
X-81340477Y3602381D01*
X-81278572Y3726191D01*
X-81154762Y3850000D01*
X-80969048Y3911905D01*
X-80845239Y3911905D01*
X-80659524Y3850000D01*
X-80597620Y3788096D01*
D10*
D11*
X-81340477Y-47388095D02*
X-81340477Y-46088095D01*
X-81030953Y-46088095D01*
X-80845239Y-46150000D01*
X-80721429Y-46273809D01*
X-80659524Y-46397619D01*
X-80597620Y-46645238D01*
X-80597620Y-46830952D01*
X-80659524Y-47078571D01*
X-80721429Y-47202380D01*
X-80845239Y-47326190D01*
X-81030953Y-47388095D01*
X-81340477Y-47388095D01*
D10*
D11*
X195002200Y78200000D02*
X193002200Y78200000D01*
D10*
D11*
X195002200Y28200000D02*
X193002200Y28200000D01*
D10*
D11*
X195002200Y-21800000D02*
X193002200Y-21800000D01*
D10*
D11*
X193692676Y102983334D02*
X194311723Y102983334D01*
X193568866Y102611905D02*
X194002200Y103911905D01*
X194435533Y102611905D01*
D10*
D11*
X194095057Y53292858D02*
X194280771Y53230953D01*
X194342676Y53169048D01*
X194404580Y53045239D01*
X194404580Y52859524D01*
X194342676Y52735715D01*
X194280771Y52673810D01*
X194156961Y52611905D01*
X193661723Y52611905D01*
X193661723Y53911905D01*
X194095057Y53911905D01*
X194218866Y53850000D01*
X194280771Y53788096D01*
X194342676Y53664286D01*
X194342676Y53540477D01*
X194280771Y53416667D01*
X194218866Y53354762D01*
X194095057Y53292858D01*
X193661723Y53292858D01*
D10*
D11*
X194404580Y2735715D02*
X194342676Y2673810D01*
X194156961Y2611905D01*
X194033152Y2611905D01*
X193847438Y2673810D01*
X193723628Y2797620D01*
X193661723Y2921429D01*
X193599819Y3169048D01*
X193599819Y3354762D01*
X193661723Y3602381D01*
X193723628Y3726191D01*
X193847438Y3850000D01*
X194033152Y3911905D01*
X194156961Y3911905D01*
X194342676Y3850000D01*
X194404580Y3788096D01*
D10*
D11*
X193661723Y-47388095D02*
X193661723Y-46088095D01*
X193971247Y-46088095D01*
X194156961Y-46150000D01*
X194280771Y-46273809D01*
X194342676Y-46397619D01*
X194404580Y-46645238D01*
X194404580Y-46830952D01*
X194342676Y-47078571D01*
X194280771Y-47202380D01*
X194156961Y-47326190D01*
X193971247Y-47388095D01*
X193661723Y-47388095D01*
D10*
D11*
X108434342Y-55585771D02*
X108434342Y-54085771D01*
X108791485Y-54085771D01*
X109005771Y-54157200D01*
X109148628Y-54300057D01*
X109220057Y-54442914D01*
X109291485Y-54728628D01*
X109291485Y-54942914D01*
X109220057Y-55228628D01*
X109148628Y-55371485D01*
X109005771Y-55514342D01*
X108791485Y-55585771D01*
X108434342Y-55585771D01*
X110577200Y-55585771D02*
X110577200Y-54800057D01*
X110505771Y-54657200D01*
X110362914Y-54585771D01*
X110077200Y-54585771D01*
X109934342Y-54657200D01*
X110577200Y-55514342D02*
X110434342Y-55585771D01*
X110077200Y-55585771D01*
X109934342Y-55514342D01*
X109862914Y-55371485D01*
X109862914Y-55228628D01*
X109934342Y-55085771D01*
X110077200Y-55014342D01*
X110434342Y-55014342D01*
X110577200Y-54942914D01*
X111077200Y-54585771D02*
X111648628Y-54585771D01*
X111291485Y-54085771D02*
X111291485Y-55371485D01*
X111362914Y-55514342D01*
X111505771Y-55585771D01*
X111648628Y-55585771D01*
X112720057Y-55514342D02*
X112577200Y-55585771D01*
X112291485Y-55585771D01*
X112148628Y-55514342D01*
X112077200Y-55371485D01*
X112077200Y-54800057D01*
X112148628Y-54657200D01*
X112291485Y-54585771D01*
X112577200Y-54585771D01*
X112720057Y-54657200D01*
X112791485Y-54800057D01*
X112791485Y-54942914D01*
X112077200Y-55085771D01*
X113434342Y-55442914D02*
X113505771Y-55514342D01*
X113434342Y-55585771D01*
X113362914Y-55514342D01*
X113434342Y-55442914D01*
X113434342Y-55585771D01*
X113434342Y-54657200D02*
X113505771Y-54728628D01*
X113434342Y-54800057D01*
X113362914Y-54728628D01*
X113434342Y-54657200D01*
X113434342Y-54800057D01*
X116077200Y-55585771D02*
X115220057Y-55585771D01*
X115648628Y-55585771D02*
X115648628Y-54085771D01*
X115505771Y-54300057D01*
X115362914Y-54442914D01*
X115220057Y-54514342D01*
X116577200Y-54085771D02*
X117505771Y-54085771D01*
X117005771Y-54657200D01*
X117220057Y-54657200D01*
X117362914Y-54728628D01*
X117434342Y-54800057D01*
X117505771Y-54942914D01*
X117505771Y-55300057D01*
X117434342Y-55442914D01*
X117362914Y-55514342D01*
X117220057Y-55585771D01*
X116791485Y-55585771D01*
X116648628Y-55514342D01*
X116577200Y-55442914D01*
X118148628Y-55442914D02*
X118220057Y-55514342D01*
X118148628Y-55585771D01*
X118077200Y-55514342D01*
X118148628Y-55442914D01*
X118148628Y-55585771D01*
X119148628Y-54085771D02*
X119291485Y-54085771D01*
X119434342Y-54157200D01*
X119505771Y-54228628D01*
X119577200Y-54371485D01*
X119648628Y-54657200D01*
X119648628Y-55014342D01*
X119577200Y-55300057D01*
X119505771Y-55442914D01*
X119434342Y-55514342D01*
X119291485Y-55585771D01*
X119148628Y-55585771D01*
X119005771Y-55514342D01*
X118934342Y-55442914D01*
X118862914Y-55300057D01*
X118791485Y-55014342D01*
X118791485Y-54657200D01*
X118862914Y-54371485D01*
X118934342Y-54228628D01*
X119005771Y-54157200D01*
X119148628Y-54085771D01*
X120362914Y-55585771D02*
X120648628Y-55585771D01*
X120791485Y-55514342D01*
X120862914Y-55442914D01*
X121005771Y-55228628D01*
X121077200Y-54942914D01*
X121077200Y-54371485D01*
X121005771Y-54228628D01*
X120934342Y-54157200D01*
X120791485Y-54085771D01*
X120505771Y-54085771D01*
X120362914Y-54157200D01*
X120291485Y-54228628D01*
X120220057Y-54371485D01*
X120220057Y-54728628D01*
X120291485Y-54871485D01*
X120362914Y-54942914D01*
X120505771Y-55014342D01*
X120791485Y-55014342D01*
X120934342Y-54942914D01*
X121005771Y-54871485D01*
X121077200Y-54728628D01*
X121720057Y-55442914D02*
X121791485Y-55514342D01*
X121720057Y-55585771D01*
X121648628Y-55514342D01*
X121720057Y-55442914D01*
X121720057Y-55585771D01*
X122362914Y-54228628D02*
X122434342Y-54157200D01*
X122577200Y-54085771D01*
X122934342Y-54085771D01*
X123077200Y-54157200D01*
X123148628Y-54228628D01*
X123220057Y-54371485D01*
X123220057Y-54514342D01*
X123148628Y-54728628D01*
X122291485Y-55585771D01*
X123220057Y-55585771D01*
X124148628Y-54085771D02*
X124291485Y-54085771D01*
X124434342Y-54157200D01*
X124505771Y-54228628D01*
X124577200Y-54371485D01*
X124648628Y-54657200D01*
X124648628Y-55014342D01*
X124577200Y-55300057D01*
X124505771Y-55442914D01*
X124434342Y-55514342D01*
X124291485Y-55585771D01*
X124148628Y-55585771D01*
X124005771Y-55514342D01*
X123934342Y-55442914D01*
X123862914Y-55300057D01*
X123791485Y-55014342D01*
X123791485Y-54657200D01*
X123862914Y-54371485D01*
X123934342Y-54228628D01*
X124005771Y-54157200D01*
X124148628Y-54085771D01*
X125220057Y-54228628D02*
X125291485Y-54157200D01*
X125434342Y-54085771D01*
X125791485Y-54085771D01*
X125934342Y-54157200D01*
X126005771Y-54228628D01*
X126077200Y-54371485D01*
X126077200Y-54514342D01*
X126005771Y-54728628D01*
X125148628Y-55585771D01*
X126077200Y-55585771D01*
X126648628Y-54228628D02*
X126720057Y-54157200D01*
X126862914Y-54085771D01*
X127220057Y-54085771D01*
X127362914Y-54157200D01*
X127434342Y-54228628D01*
X127505771Y-54371485D01*
X127505771Y-54514342D01*
X127434342Y-54728628D01*
X126577200Y-55585771D01*
X127505771Y-55585771D01*
X128148628Y-55014342D02*
X129291485Y-55014342D01*
X130291485Y-54085771D02*
X130434342Y-54085771D01*
X130577200Y-54157200D01*
X130648628Y-54228628D01*
X130720057Y-54371485D01*
X130791485Y-54657200D01*
X130791485Y-55014342D01*
X130720057Y-55300057D01*
X130648628Y-55442914D01*
X130577200Y-55514342D01*
X130434342Y-55585771D01*
X130291485Y-55585771D01*
X130148628Y-55514342D01*
X130077200Y-55442914D01*
X130005771Y-55300057D01*
X129934342Y-55014342D01*
X129934342Y-54657200D01*
X130005771Y-54371485D01*
X130077200Y-54228628D01*
X130148628Y-54157200D01*
X130291485Y-54085771D01*
X131505771Y-55585771D02*
X131791485Y-55585771D01*
X131934342Y-55514342D01*
X132005771Y-55442914D01*
X132148628Y-55228628D01*
X132220057Y-54942914D01*
X132220057Y-54371485D01*
X132148628Y-54228628D01*
X132077200Y-54157200D01*
X131934342Y-54085771D01*
X131648628Y-54085771D01*
X131505771Y-54157200D01*
X131434342Y-54228628D01*
X131362914Y-54371485D01*
X131362914Y-54728628D01*
X131434342Y-54871485D01*
X131505771Y-54942914D01*
X131648628Y-55014342D01*
X131934342Y-55014342D01*
X132077200Y-54942914D01*
X132148628Y-54871485D01*
X132220057Y-54728628D01*
X132862914Y-55014342D02*
X134005771Y-55014342D01*
X135505771Y-55585771D02*
X134648628Y-55585771D01*
X135077200Y-55585771D02*
X135077200Y-54085771D01*
X134934342Y-54300057D01*
X134791485Y-54442914D01*
X134648628Y-54514342D01*
X136005771Y-54085771D02*
X136934342Y-54085771D01*
X136434342Y-54657200D01*
X136648628Y-54657200D01*
X136791485Y-54728628D01*
X136862914Y-54800057D01*
X136934342Y-54942914D01*
X136934342Y-55300057D01*
X136862914Y-55442914D01*
X136791485Y-55514342D01*
X136648628Y-55585771D01*
X136220057Y-55585771D01*
X136077200Y-55514342D01*
X136005771Y-55442914D01*
D10*
D11*
X85002200Y-56307200D02*
X193002200Y-56307200D01*
D10*
D11*
X86434342Y-58385771D02*
X86434342Y-56885771D01*
X87291485Y-58385771D02*
X86648628Y-57528628D01*
X87291485Y-56885771D02*
X86434342Y-57742914D01*
X87934342Y-58385771D02*
X87934342Y-57385771D01*
X87934342Y-56885771D02*
X87862914Y-56957200D01*
X87934342Y-57028628D01*
X88005771Y-56957200D01*
X87934342Y-56885771D01*
X87934342Y-57028628D01*
X89505771Y-58242914D02*
X89434342Y-58314342D01*
X89220057Y-58385771D01*
X89077200Y-58385771D01*
X88862914Y-58314342D01*
X88720057Y-58171485D01*
X88648628Y-58028628D01*
X88577200Y-57742914D01*
X88577200Y-57528628D01*
X88648628Y-57242914D01*
X88720057Y-57100057D01*
X88862914Y-56957200D01*
X89077200Y-56885771D01*
X89220057Y-56885771D01*
X89434342Y-56957200D01*
X89505771Y-57028628D01*
X90791485Y-58385771D02*
X90791485Y-57600057D01*
X90720057Y-57457200D01*
X90577200Y-57385771D01*
X90291485Y-57385771D01*
X90148628Y-57457200D01*
X90791485Y-58314342D02*
X90648628Y-58385771D01*
X90291485Y-58385771D01*
X90148628Y-58314342D01*
X90077200Y-58171485D01*
X90077200Y-58028628D01*
X90148628Y-57885771D01*
X90291485Y-57814342D01*
X90648628Y-57814342D01*
X90791485Y-57742914D01*
X92148628Y-58385771D02*
X92148628Y-56885771D01*
X92148628Y-58314342D02*
X92005771Y-58385771D01*
X91720057Y-58385771D01*
X91577200Y-58314342D01*
X91505771Y-58242914D01*
X91434342Y-58100057D01*
X91434342Y-57671485D01*
X91505771Y-57528628D01*
X91577200Y-57457200D01*
X91720057Y-57385771D01*
X92005771Y-57385771D01*
X92148628Y-57457200D01*
X94005771Y-57600057D02*
X94505771Y-57600057D01*
X94720057Y-58385771D02*
X94005771Y-58385771D01*
X94005771Y-56885771D01*
X94720057Y-56885771D01*
X95362914Y-58242914D02*
X95434342Y-58314342D01*
X95362914Y-58385771D01*
X95291485Y-58314342D01*
X95362914Y-58242914D01*
X95362914Y-58385771D01*
X96077200Y-58385771D02*
X96077200Y-56885771D01*
X96434342Y-56885771D01*
X96648628Y-56957200D01*
X96791485Y-57100057D01*
X96862914Y-57242914D01*
X96934342Y-57528628D01*
X96934342Y-57742914D01*
X96862914Y-58028628D01*
X96791485Y-58171485D01*
X96648628Y-58314342D01*
X96434342Y-58385771D01*
X96077200Y-58385771D01*
X97577200Y-58242914D02*
X97648628Y-58314342D01*
X97577200Y-58385771D01*
X97505771Y-58314342D01*
X97577200Y-58242914D01*
X97577200Y-58385771D01*
X98220057Y-57957200D02*
X98934342Y-57957200D01*
X98077200Y-58385771D02*
X98577200Y-56885771D01*
X99077200Y-58385771D01*
X99577200Y-58242914D02*
X99648628Y-58314342D01*
X99577200Y-58385771D01*
X99505771Y-58314342D01*
X99577200Y-58242914D01*
X99577200Y-58385771D01*
X102577200Y-58385771D02*
X102577200Y-56885771D01*
X102720057Y-57814342D02*
X103148628Y-58385771D01*
X103148628Y-57385771D02*
X102577200Y-57957200D01*
X103791485Y-58385771D02*
X103791485Y-57385771D01*
X103791485Y-56885771D02*
X103720057Y-56957200D01*
X103791485Y-57028628D01*
X103862914Y-56957200D01*
X103791485Y-56885771D01*
X103791485Y-57028628D01*
X105148628Y-58314342D02*
X105005771Y-58385771D01*
X104720057Y-58385771D01*
X104577200Y-58314342D01*
X104505771Y-58242914D01*
X104434342Y-58100057D01*
X104434342Y-57671485D01*
X104505771Y-57528628D01*
X104577200Y-57457200D01*
X104720057Y-57385771D01*
X105005771Y-57385771D01*
X105148628Y-57457200D01*
X106434342Y-58385771D02*
X106434342Y-57600057D01*
X106362914Y-57457200D01*
X106220057Y-57385771D01*
X105934342Y-57385771D01*
X105791485Y-57457200D01*
X106434342Y-58314342D02*
X106291485Y-58385771D01*
X105934342Y-58385771D01*
X105791485Y-58314342D01*
X105720057Y-58171485D01*
X105720057Y-58028628D01*
X105791485Y-57885771D01*
X105934342Y-57814342D01*
X106291485Y-57814342D01*
X106434342Y-57742914D01*
X107791485Y-58385771D02*
X107791485Y-56885771D01*
X107791485Y-58314342D02*
X107648628Y-58385771D01*
X107362914Y-58385771D01*
X107220057Y-58314342D01*
X107148628Y-58242914D01*
X107077200Y-58100057D01*
X107077200Y-57671485D01*
X107148628Y-57528628D01*
X107220057Y-57457200D01*
X107362914Y-57385771D01*
X107648628Y-57385771D01*
X107791485Y-57457200D01*
X110077200Y-58957200D02*
X110005771Y-58885771D01*
X109862914Y-58671485D01*
X109791485Y-58528628D01*
X109720057Y-58314342D01*
X109648628Y-57957200D01*
X109648628Y-57671485D01*
X109720057Y-57314342D01*
X109791485Y-57100057D01*
X109862914Y-56957200D01*
X110005771Y-56742914D01*
X110077200Y-56671485D01*
X111291485Y-56885771D02*
X111005771Y-56885771D01*
X110862914Y-56957200D01*
X110791485Y-57028628D01*
X110648628Y-57242914D01*
X110577200Y-57528628D01*
X110577200Y-58100057D01*
X110648628Y-58242914D01*
X110720057Y-58314342D01*
X110862914Y-58385771D01*
X111148628Y-58385771D01*
X111291485Y-58314342D01*
X111362914Y-58242914D01*
X111434342Y-58100057D01*
X111434342Y-57742914D01*
X111362914Y-57600057D01*
X111291485Y-57528628D01*
X111148628Y-57457200D01*
X110862914Y-57457200D01*
X110720057Y-57528628D01*
X110648628Y-57600057D01*
X110577200Y-57742914D01*
X112077200Y-58242914D02*
X112148628Y-58314342D01*
X112077200Y-58385771D01*
X112005771Y-58314342D01*
X112077200Y-58242914D01*
X112077200Y-58385771D01*
X113077200Y-56885771D02*
X113220057Y-56885771D01*
X113362914Y-56957200D01*
X113434342Y-57028628D01*
X113505771Y-57171485D01*
X113577200Y-57457200D01*
X113577200Y-57814342D01*
X113505771Y-58100057D01*
X113434342Y-58242914D01*
X113362914Y-58314342D01*
X113220057Y-58385771D01*
X113077200Y-58385771D01*
X112934342Y-58314342D01*
X112862914Y-58242914D01*
X112791485Y-58100057D01*
X112720057Y-57814342D01*
X112720057Y-57457200D01*
X112791485Y-57171485D01*
X112862914Y-57028628D01*
X112934342Y-56957200D01*
X113077200Y-56885771D01*
X114220057Y-58242914D02*
X114291485Y-58314342D01*
X114220057Y-58385771D01*
X114148628Y-58314342D01*
X114220057Y-58242914D01*
X114220057Y-58385771D01*
X115577200Y-57385771D02*
X115577200Y-58385771D01*
X115220057Y-56814342D02*
X114862914Y-57885771D01*
X115791485Y-57885771D01*
X116220057Y-58957200D02*
X116291485Y-58885771D01*
X116434342Y-58671485D01*
X116505771Y-58528628D01*
X116577200Y-58314342D01*
X116648628Y-57957200D01*
X116648628Y-57671485D01*
X116577200Y-57314342D01*
X116505771Y-57100057D01*
X116434342Y-56957200D01*
X116291485Y-56742914D01*
X116220057Y-56671485D01*
D10*
D11*
X85002200Y-53307200D02*
X193002200Y-53307200D01*
D10*
D12*
X172411485Y-55585771D02*
X171911485Y-54871485D01*
X171554342Y-55585771D02*
X171554342Y-54085771D01*
X172125771Y-54085771D01*
X172268628Y-54157200D01*
X172340057Y-54228628D01*
X172411485Y-54371485D01*
X172411485Y-54585771D01*
X172340057Y-54728628D01*
X172268628Y-54800057D01*
X172125771Y-54871485D01*
X171554342Y-54871485D01*
X173625771Y-55514342D02*
X173482914Y-55585771D01*
X173197200Y-55585771D01*
X173054342Y-55514342D01*
X172982914Y-55371485D01*
X172982914Y-54800057D01*
X173054342Y-54657200D01*
X173197200Y-54585771D01*
X173482914Y-54585771D01*
X173625771Y-54657200D01*
X173697200Y-54800057D01*
X173697200Y-54942914D01*
X172982914Y-55085771D01*
X174197200Y-54585771D02*
X174554342Y-55585771D01*
X174911485Y-54585771D01*
X175482914Y-55442914D02*
X175554342Y-55514342D01*
X175482914Y-55585771D01*
X175411485Y-55514342D01*
X175482914Y-55442914D01*
X175482914Y-55585771D01*
X175482914Y-54657200D02*
X175554342Y-54728628D01*
X175482914Y-54800057D01*
X175411485Y-54728628D01*
X175482914Y-54657200D01*
X175482914Y-54800057D01*
X177625771Y-54085771D02*
X177768628Y-54085771D01*
X177911485Y-54157200D01*
X177982914Y-54228628D01*
X178054342Y-54371485D01*
X178125771Y-54657200D01*
X178125771Y-55014342D01*
X178054342Y-55300057D01*
X177982914Y-55442914D01*
X177911485Y-55514342D01*
X177768628Y-55585771D01*
X177625771Y-55585771D01*
X177482914Y-55514342D01*
X177411485Y-55442914D01*
X177340057Y-55300057D01*
X177268628Y-55014342D01*
X177268628Y-54657200D01*
X177340057Y-54371485D01*
X177411485Y-54228628D01*
X177482914Y-54157200D01*
X177625771Y-54085771D01*
X178768628Y-55442914D02*
X178840057Y-55514342D01*
X178768628Y-55585771D01*
X178697200Y-55514342D01*
X178768628Y-55442914D01*
X178768628Y-55585771D01*
X180125771Y-54085771D02*
X179840057Y-54085771D01*
X179697200Y-54157200D01*
X179625771Y-54228628D01*
X179482914Y-54442914D01*
X179411485Y-54728628D01*
X179411485Y-55300057D01*
X179482914Y-55442914D01*
X179554342Y-55514342D01*
X179697200Y-55585771D01*
X179982914Y-55585771D01*
X180125771Y-55514342D01*
X180197200Y-55442914D01*
X180268628Y-55300057D01*
X180268628Y-54942914D01*
X180197200Y-54800057D01*
X180125771Y-54728628D01*
X179982914Y-54657200D01*
X179697200Y-54657200D01*
X179554342Y-54728628D01*
X179482914Y-54800057D01*
X179411485Y-54942914D01*
D10*
D11*
X86362914Y-55514342D02*
X86577200Y-55585771D01*
X86934342Y-55585771D01*
X87077200Y-55514342D01*
X87148628Y-55442914D01*
X87220057Y-55300057D01*
X87220057Y-55157200D01*
X87148628Y-55014342D01*
X87077200Y-54942914D01*
X86934342Y-54871485D01*
X86648628Y-54800057D01*
X86505771Y-54728628D01*
X86434342Y-54657200D01*
X86362914Y-54514342D01*
X86362914Y-54371485D01*
X86434342Y-54228628D01*
X86505771Y-54157200D01*
X86648628Y-54085771D01*
X87005771Y-54085771D01*
X87220057Y-54157200D01*
X87862914Y-55585771D02*
X87862914Y-54585771D01*
X87862914Y-54085771D02*
X87791485Y-54157200D01*
X87862914Y-54228628D01*
X87934342Y-54157200D01*
X87862914Y-54085771D01*
X87862914Y-54228628D01*
X88434342Y-54585771D02*
X89220057Y-54585771D01*
X88434342Y-55585771D01*
X89220057Y-55585771D01*
X90362914Y-55514342D02*
X90220057Y-55585771D01*
X89934342Y-55585771D01*
X89791485Y-55514342D01*
X89720057Y-55371485D01*
X89720057Y-54800057D01*
X89791485Y-54657200D01*
X89934342Y-54585771D01*
X90220057Y-54585771D01*
X90362914Y-54657200D01*
X90434342Y-54800057D01*
X90434342Y-54942914D01*
X89720057Y-55085771D01*
X91077200Y-55442914D02*
X91148628Y-55514342D01*
X91077200Y-55585771D01*
X91005771Y-55514342D01*
X91077200Y-55442914D01*
X91077200Y-55585771D01*
X91077200Y-54657200D02*
X91148628Y-54728628D01*
X91077200Y-54800057D01*
X91005771Y-54728628D01*
X91077200Y-54657200D01*
X91077200Y-54800057D01*
X92862914Y-55157200D02*
X93577200Y-55157200D01*
X92720057Y-55585771D02*
X93220057Y-54085771D01*
X93720057Y-55585771D01*
X94862914Y-54585771D02*
X94862914Y-55585771D01*
X94505771Y-54014342D02*
X94148628Y-55085771D01*
X95077200Y-55085771D01*
D10*
D11*
X171434342Y-58385771D02*
X171434342Y-56885771D01*
X172791485Y-58385771D02*
X172791485Y-56885771D01*
X172791485Y-58314342D02*
X172648628Y-58385771D01*
X172362914Y-58385771D01*
X172220057Y-58314342D01*
X172148628Y-58242914D01*
X172077200Y-58100057D01*
X172077200Y-57671485D01*
X172148628Y-57528628D01*
X172220057Y-57457200D01*
X172362914Y-57385771D01*
X172648628Y-57385771D01*
X172791485Y-57457200D01*
X173505771Y-58242914D02*
X173577200Y-58314342D01*
X173505771Y-58385771D01*
X173434342Y-58314342D01*
X173505771Y-58242914D01*
X173505771Y-58385771D01*
X173505771Y-57457200D02*
X173577200Y-57528628D01*
X173505771Y-57600057D01*
X173434342Y-57528628D01*
X173505771Y-57457200D01*
X173505771Y-57600057D01*
X176148628Y-58385771D02*
X175291485Y-58385771D01*
X175720057Y-58385771D02*
X175720057Y-56885771D01*
X175577200Y-57100057D01*
X175434342Y-57242914D01*
X175291485Y-57314342D01*
X177862914Y-56814342D02*
X176577200Y-58742914D01*
X179148628Y-58385771D02*
X178291485Y-58385771D01*
X178720057Y-58385771D02*
X178720057Y-56885771D01*
X178577200Y-57100057D01*
X178434342Y-57242914D01*
X178291485Y-57314342D01*
D10*
D11*
X85002200Y-49307200D02*
X193002200Y-49307200D01*
D10*
D13*
X86714580Y-50011961D02*
X87857438Y-50011961D01*
X87036009Y-52011961D02*
X87286009Y-50011961D01*
X88274104Y-52011961D02*
X88440771Y-50678628D01*
X88524104Y-50011961D02*
X88416961Y-50107200D01*
X88500295Y-50202438D01*
X88607438Y-50107200D01*
X88524104Y-50011961D01*
X88500295Y-50202438D01*
X89107438Y-50678628D02*
X89869342Y-50678628D01*
X89476485Y-50011961D02*
X89262200Y-51726247D01*
X89333628Y-51916723D01*
X89512200Y-52011961D01*
X89702676Y-52011961D01*
X90655057Y-52011961D02*
X90476485Y-51916723D01*
X90405057Y-51726247D01*
X90619342Y-50011961D01*
X92190771Y-51916723D02*
X91988390Y-52011961D01*
X91607438Y-52011961D01*
X91428866Y-51916723D01*
X91357438Y-51726247D01*
X91452676Y-50964342D01*
X91571723Y-50773866D01*
X91774104Y-50678628D01*
X92155057Y-50678628D01*
X92333628Y-50773866D01*
X92405057Y-50964342D01*
X92381247Y-51154819D01*
X91405057Y-51345295D01*
X93155057Y-51821485D02*
X93238390Y-51916723D01*
X93131247Y-52011961D01*
X93047914Y-51916723D01*
X93155057Y-51821485D01*
X93131247Y-52011961D01*
X93286009Y-50773866D02*
X93369342Y-50869104D01*
X93262200Y-50964342D01*
X93178866Y-50869104D01*
X93286009Y-50773866D01*
X93262200Y-50964342D01*
X95583628Y-51440533D02*
X96536009Y-51440533D01*
X95321723Y-52011961D02*
X96238390Y-50011961D01*
X96655057Y-52011961D01*
X97321723Y-52011961D02*
X97488390Y-50678628D01*
X97440771Y-51059580D02*
X97559819Y-50869104D01*
X97666961Y-50773866D01*
X97869342Y-50678628D01*
X98059819Y-50678628D01*
X99416961Y-52011961D02*
X99666961Y-50011961D01*
X99428866Y-51916723D02*
X99226485Y-52011961D01*
X98845533Y-52011961D01*
X98666961Y-51916723D01*
X98583628Y-51821485D01*
X98512200Y-51631009D01*
X98583628Y-51059580D01*
X98702676Y-50869104D01*
X98809819Y-50773866D01*
X99012200Y-50678628D01*
X99393152Y-50678628D01*
X99571723Y-50773866D01*
X101393152Y-50678628D02*
X101226485Y-52011961D01*
X100536009Y-50678628D02*
X100405057Y-51726247D01*
X100476485Y-51916723D01*
X100655057Y-52011961D01*
X100940771Y-52011961D01*
X101143152Y-51916723D01*
X101250295Y-51821485D01*
X102178866Y-52011961D02*
X102345533Y-50678628D01*
X102428866Y-50011961D02*
X102321723Y-50107200D01*
X102405057Y-50202438D01*
X102512200Y-50107200D01*
X102428866Y-50011961D01*
X102405057Y-50202438D01*
X103297914Y-50678628D02*
X103131247Y-52011961D01*
X103274104Y-50869104D02*
X103381247Y-50773866D01*
X103583628Y-50678628D01*
X103869342Y-50678628D01*
X104047914Y-50773866D01*
X104119342Y-50964342D01*
X103988390Y-52011961D01*
X105226485Y-52011961D02*
X105047914Y-51916723D01*
X104964580Y-51821485D01*
X104893152Y-51631009D01*
X104964580Y-51059580D01*
X105083628Y-50869104D01*
X105190771Y-50773866D01*
X105393152Y-50678628D01*
X105678866Y-50678628D01*
X105857438Y-50773866D01*
X105940771Y-50869104D01*
X106012200Y-51059580D01*
X105940771Y-51631009D01*
X105821723Y-51821485D01*
X105714580Y-51916723D01*
X105512200Y-52011961D01*
X105226485Y-52011961D01*
X106845533Y-51250057D02*
X108369342Y-51250057D01*
X109226485Y-52011961D02*
X109476485Y-50011961D01*
X110369342Y-52011961D01*
X110619342Y-50011961D01*
X112178866Y-52011961D02*
X112309819Y-50964342D01*
X112238390Y-50773866D01*
X112059819Y-50678628D01*
X111678866Y-50678628D01*
X111476485Y-50773866D01*
X112190771Y-51916723D02*
X111988390Y-52011961D01*
X111512200Y-52011961D01*
X111333628Y-51916723D01*
X111262200Y-51726247D01*
X111286009Y-51535771D01*
X111405057Y-51345295D01*
X111607438Y-51250057D01*
X112083628Y-51250057D01*
X112286009Y-51154819D01*
X113297914Y-50678628D02*
X113131247Y-52011961D01*
X113274104Y-50869104D02*
X113381247Y-50773866D01*
X113583628Y-50678628D01*
X113869342Y-50678628D01*
X114047914Y-50773866D01*
X114119342Y-50964342D01*
X113988390Y-52011961D01*
X115226485Y-52011961D02*
X115047914Y-51916723D01*
X114964580Y-51821485D01*
X114893152Y-51631009D01*
X114964580Y-51059580D01*
X115083628Y-50869104D01*
X115190771Y-50773866D01*
X115393152Y-50678628D01*
X115678866Y-50678628D01*
X115857438Y-50773866D01*
X115940771Y-50869104D01*
X116012200Y-51059580D01*
X115940771Y-51631009D01*
X115821723Y-51821485D01*
X115714580Y-51916723D01*
X115512200Y-52011961D01*
X115226485Y-52011961D01*
X116845533Y-51250057D02*
X118369342Y-51250057D01*
X120512200Y-50107200D02*
X120333628Y-50011961D01*
X120047914Y-50011961D01*
X119750295Y-50107200D01*
X119536009Y-50297676D01*
X119416961Y-50488152D01*
X119274104Y-50869104D01*
X119238390Y-51154819D01*
X119286009Y-51535771D01*
X119357438Y-51726247D01*
X119524104Y-51916723D01*
X119797914Y-52011961D01*
X119988390Y-52011961D01*
X120286009Y-51916723D01*
X120393152Y-51821485D01*
X120476485Y-51154819D01*
X120095533Y-51154819D01*
X122024104Y-50964342D02*
X122297914Y-51059580D01*
X122381247Y-51154819D01*
X122452676Y-51345295D01*
X122416961Y-51631009D01*
X122297914Y-51821485D01*
X122190771Y-51916723D01*
X121988390Y-52011961D01*
X121226485Y-52011961D01*
X121476485Y-50011961D01*
X122143152Y-50011961D01*
X122321723Y-50107200D01*
X122405057Y-50202438D01*
X122476485Y-50392914D01*
X122452676Y-50583390D01*
X122333628Y-50773866D01*
X122226485Y-50869104D01*
X122024104Y-50964342D01*
X121357438Y-50964342D01*
X123321723Y-51250057D02*
X124845533Y-51250057D01*
X125702676Y-52011961D02*
X125952676Y-50011961D01*
X126428866Y-50011961D01*
X126702676Y-50107200D01*
X126869342Y-50297676D01*
X126940771Y-50488152D01*
X126988390Y-50869104D01*
X126952676Y-51154819D01*
X126809819Y-51535771D01*
X126690771Y-51726247D01*
X126476485Y-51916723D01*
X126178866Y-52011961D01*
X125702676Y-52011961D01*
X128726485Y-50678628D02*
X128559819Y-52011961D01*
X127869342Y-50678628D02*
X127738390Y-51726247D01*
X127809819Y-51916723D01*
X127988390Y-52011961D01*
X128274104Y-52011961D01*
X128476485Y-51916723D01*
X128583628Y-51821485D01*
X129512200Y-52011961D02*
X129678866Y-50678628D01*
X129655057Y-50869104D02*
X129762200Y-50773866D01*
X129964580Y-50678628D01*
X130250295Y-50678628D01*
X130428866Y-50773866D01*
X130500295Y-50964342D01*
X130369342Y-52011961D01*
X130500295Y-50964342D02*
X130619342Y-50773866D01*
X130821723Y-50678628D01*
X131107438Y-50678628D01*
X131286009Y-50773866D01*
X131357438Y-50964342D01*
X131226485Y-52011961D01*
X132345533Y-50678628D02*
X132095533Y-52678628D01*
X132333628Y-50773866D02*
X132536009Y-50678628D01*
X132916961Y-50678628D01*
X133095533Y-50773866D01*
X133178866Y-50869104D01*
X133250295Y-51059580D01*
X133178866Y-51631009D01*
X133059819Y-51821485D01*
X132952676Y-51916723D01*
X132750295Y-52011961D01*
X132369342Y-52011961D01*
X132190771Y-51916723D01*
X134762200Y-51916723D02*
X134559819Y-52011961D01*
X134178866Y-52011961D01*
X134000295Y-51916723D01*
X133928866Y-51726247D01*
X134024104Y-50964342D01*
X134143152Y-50773866D01*
X134345533Y-50678628D01*
X134726485Y-50678628D01*
X134905057Y-50773866D01*
X134976485Y-50964342D01*
X134952676Y-51154819D01*
X133976485Y-51345295D01*
X135702676Y-52011961D02*
X135869342Y-50678628D01*
X135821723Y-51059580D02*
X135940771Y-50869104D01*
X136047914Y-50773866D01*
X136250295Y-50678628D01*
X136440771Y-50678628D01*
D10*
D11*
X86934342Y-47400057D02*
X86434342Y-47400057D01*
X86434342Y-48185771D02*
X86434342Y-46685771D01*
X87148628Y-46685771D01*
X87720057Y-48185771D02*
X87720057Y-47185771D01*
X87720057Y-46685771D02*
X87648628Y-46757200D01*
X87720057Y-46828628D01*
X87791485Y-46757200D01*
X87720057Y-46685771D01*
X87720057Y-46828628D01*
X88648628Y-48185771D02*
X88505771Y-48114342D01*
X88434342Y-47971485D01*
X88434342Y-46685771D01*
X89791485Y-48114342D02*
X89648628Y-48185771D01*
X89362914Y-48185771D01*
X89220057Y-48114342D01*
X89148628Y-47971485D01*
X89148628Y-47400057D01*
X89220057Y-47257200D01*
X89362914Y-47185771D01*
X89648628Y-47185771D01*
X89791485Y-47257200D01*
X89862914Y-47400057D01*
X89862914Y-47542914D01*
X89148628Y-47685771D01*
X90505771Y-48042914D02*
X90577200Y-48114342D01*
X90505771Y-48185771D01*
X90434342Y-48114342D01*
X90505771Y-48042914D01*
X90505771Y-48185771D01*
X90505771Y-47257200D02*
X90577200Y-47328628D01*
X90505771Y-47400057D01*
X90434342Y-47328628D01*
X90505771Y-47257200D01*
X90505771Y-47400057D01*
X93148628Y-46757200D02*
X93005771Y-46685771D01*
X92791485Y-46685771D01*
X92577200Y-46757200D01*
X92434342Y-46900057D01*
X92362914Y-47042914D01*
X92291485Y-47328628D01*
X92291485Y-47542914D01*
X92362914Y-47828628D01*
X92434342Y-47971485D01*
X92577200Y-48114342D01*
X92791485Y-48185771D01*
X92934342Y-48185771D01*
X93148628Y-48114342D01*
X93220057Y-48042914D01*
X93220057Y-47542914D01*
X92934342Y-47542914D01*
X94362914Y-47400057D02*
X94577200Y-47471485D01*
X94648628Y-47542914D01*
X94720057Y-47685771D01*
X94720057Y-47900057D01*
X94648628Y-48042914D01*
X94577200Y-48114342D01*
X94434342Y-48185771D01*
X93862914Y-48185771D01*
X93862914Y-46685771D01*
X94362914Y-46685771D01*
X94505771Y-46757200D01*
X94577200Y-46828628D01*
X94648628Y-46971485D01*
X94648628Y-47114342D01*
X94577200Y-47257200D01*
X94505771Y-47328628D01*
X94362914Y-47400057D01*
X93862914Y-47400057D01*
X95362914Y-47614342D02*
X96505771Y-47614342D01*
X97220057Y-48185771D02*
X97220057Y-46685771D01*
X97577200Y-46685771D01*
X97791485Y-46757200D01*
X97934342Y-46900057D01*
X98005771Y-47042914D01*
X98077200Y-47328628D01*
X98077200Y-47542914D01*
X98005771Y-47828628D01*
X97934342Y-47971485D01*
X97791485Y-48114342D01*
X97577200Y-48185771D01*
X97220057Y-48185771D01*
X99362914Y-47185771D02*
X99362914Y-48185771D01*
X98720057Y-47185771D02*
X98720057Y-47971485D01*
X98791485Y-48114342D01*
X98934342Y-48185771D01*
X99148628Y-48185771D01*
X99291485Y-48114342D01*
X99362914Y-48042914D01*
X100077200Y-48185771D02*
X100077200Y-47185771D01*
X100077200Y-47328628D02*
X100148628Y-47257200D01*
X100291485Y-47185771D01*
X100505771Y-47185771D01*
X100648628Y-47257200D01*
X100720057Y-47400057D01*
X100720057Y-48185771D01*
X100720057Y-47400057D02*
X100791485Y-47257200D01*
X100934342Y-47185771D01*
X101148628Y-47185771D01*
X101291485Y-47257200D01*
X101362914Y-47400057D01*
X101362914Y-48185771D01*
X102077200Y-47185771D02*
X102077200Y-48685771D01*
X102077200Y-47257200D02*
X102220057Y-47185771D01*
X102505771Y-47185771D01*
X102648628Y-47257200D01*
X102720057Y-47328628D01*
X102791485Y-47471485D01*
X102791485Y-47900057D01*
X102720057Y-48042914D01*
X102648628Y-48114342D01*
X102505771Y-48185771D01*
X102220057Y-48185771D01*
X102077200Y-48114342D01*
X104005771Y-48114342D02*
X103862914Y-48185771D01*
X103577200Y-48185771D01*
X103434342Y-48114342D01*
X103362914Y-47971485D01*
X103362914Y-47400057D01*
X103434342Y-47257200D01*
X103577200Y-47185771D01*
X103862914Y-47185771D01*
X104005771Y-47257200D01*
X104077200Y-47400057D01*
X104077200Y-47542914D01*
X103362914Y-47685771D01*
X104720057Y-48185771D02*
X104720057Y-47185771D01*
X104720057Y-47471485D02*
X104791485Y-47328628D01*
X104862914Y-47257200D01*
X105005771Y-47185771D01*
X105148628Y-47185771D01*
X105648628Y-48042914D02*
X105720057Y-48114342D01*
X105648628Y-48185771D01*
X105577200Y-48114342D01*
X105648628Y-48042914D01*
X105648628Y-48185771D01*
X106362914Y-48185771D02*
X106362914Y-46685771D01*
X106505771Y-47614342D02*
X106934342Y-48185771D01*
X106934342Y-47185771D02*
X106362914Y-47757200D01*
X107577200Y-48185771D02*
X107577200Y-47185771D01*
X107577200Y-46685771D02*
X107505771Y-46757200D01*
X107577200Y-46828628D01*
X107648628Y-46757200D01*
X107577200Y-46685771D01*
X107577200Y-46828628D01*
X108934342Y-48114342D02*
X108791485Y-48185771D01*
X108505771Y-48185771D01*
X108362914Y-48114342D01*
X108291485Y-48042914D01*
X108220057Y-47900057D01*
X108220057Y-47471485D01*
X108291485Y-47328628D01*
X108362914Y-47257200D01*
X108505771Y-47185771D01*
X108791485Y-47185771D01*
X108934342Y-47257200D01*
X110220057Y-48185771D02*
X110220057Y-47400057D01*
X110148628Y-47257200D01*
X110005771Y-47185771D01*
X109720057Y-47185771D01*
X109577200Y-47257200D01*
X110220057Y-48114342D02*
X110077200Y-48185771D01*
X109720057Y-48185771D01*
X109577200Y-48114342D01*
X109505771Y-47971485D01*
X109505771Y-47828628D01*
X109577200Y-47685771D01*
X109720057Y-47614342D01*
X110077200Y-47614342D01*
X110220057Y-47542914D01*
X111577200Y-48185771D02*
X111577200Y-46685771D01*
X111577200Y-48114342D02*
X111434342Y-48185771D01*
X111148628Y-48185771D01*
X111005771Y-48114342D01*
X110934342Y-48042914D01*
X110862914Y-47900057D01*
X110862914Y-47471485D01*
X110934342Y-47328628D01*
X111005771Y-47257200D01*
X111148628Y-47185771D01*
X111434342Y-47185771D01*
X111577200Y-47257200D01*
X111934342Y-48328628D02*
X113077200Y-48328628D01*
X113434342Y-47185771D02*
X113434342Y-48685771D01*
X113434342Y-47257200D02*
X113577200Y-47185771D01*
X113862914Y-47185771D01*
X114005771Y-47257200D01*
X114077200Y-47328628D01*
X114148628Y-47471485D01*
X114148628Y-47900057D01*
X114077200Y-48042914D01*
X114005771Y-48114342D01*
X113862914Y-48185771D01*
X113577200Y-48185771D01*
X113434342Y-48114342D01*
X115434342Y-48114342D02*
X115291485Y-48185771D01*
X115005771Y-48185771D01*
X114862914Y-48114342D01*
X114791485Y-48042914D01*
X114720057Y-47900057D01*
X114720057Y-47471485D01*
X114791485Y-47328628D01*
X114862914Y-47257200D01*
X115005771Y-47185771D01*
X115291485Y-47185771D01*
X115434342Y-47257200D01*
X116077200Y-48185771D02*
X116077200Y-46685771D01*
X116077200Y-47257200D02*
X116220057Y-47185771D01*
X116505771Y-47185771D01*
X116648628Y-47257200D01*
X116720057Y-47328628D01*
X116791485Y-47471485D01*
X116791485Y-47900057D01*
X116720057Y-48042914D01*
X116648628Y-48114342D01*
X116505771Y-48185771D01*
X116220057Y-48185771D01*
X116077200Y-48114342D01*
D10*
D11*
X85002200Y-43307200D02*
X193002200Y-43307200D01*
D10*
D11*
X86362914Y-45414342D02*
X86577200Y-45485771D01*
X86934342Y-45485771D01*
X87077200Y-45414342D01*
X87148628Y-45342914D01*
X87220057Y-45200057D01*
X87220057Y-45057200D01*
X87148628Y-44914342D01*
X87077200Y-44842914D01*
X86934342Y-44771485D01*
X86648628Y-44700057D01*
X86505771Y-44628628D01*
X86434342Y-44557200D01*
X86362914Y-44414342D01*
X86362914Y-44271485D01*
X86434342Y-44128628D01*
X86505771Y-44057200D01*
X86648628Y-43985771D01*
X87005771Y-43985771D01*
X87220057Y-44057200D01*
X87862914Y-45485771D02*
X87862914Y-43985771D01*
X88505771Y-45485771D02*
X88505771Y-44700057D01*
X88434342Y-44557200D01*
X88291485Y-44485771D01*
X88077200Y-44485771D01*
X87934342Y-44557200D01*
X87862914Y-44628628D01*
X89791485Y-45414342D02*
X89648628Y-45485771D01*
X89362914Y-45485771D01*
X89220057Y-45414342D01*
X89148628Y-45271485D01*
X89148628Y-44700057D01*
X89220057Y-44557200D01*
X89362914Y-44485771D01*
X89648628Y-44485771D01*
X89791485Y-44557200D01*
X89862914Y-44700057D01*
X89862914Y-44842914D01*
X89148628Y-44985771D01*
X91077200Y-45414342D02*
X90934342Y-45485771D01*
X90648628Y-45485771D01*
X90505771Y-45414342D01*
X90434342Y-45271485D01*
X90434342Y-44700057D01*
X90505771Y-44557200D01*
X90648628Y-44485771D01*
X90934342Y-44485771D01*
X91077200Y-44557200D01*
X91148628Y-44700057D01*
X91148628Y-44842914D01*
X90434342Y-44985771D01*
X91577200Y-44485771D02*
X92148628Y-44485771D01*
X91791485Y-43985771D02*
X91791485Y-45271485D01*
X91862914Y-45414342D01*
X92005771Y-45485771D01*
X92148628Y-45485771D01*
X92648628Y-45342914D02*
X92720057Y-45414342D01*
X92648628Y-45485771D01*
X92577200Y-45414342D01*
X92648628Y-45342914D01*
X92648628Y-45485771D01*
X92648628Y-44557200D02*
X92720057Y-44628628D01*
X92648628Y-44700057D01*
X92577200Y-44628628D01*
X92648628Y-44557200D01*
X92648628Y-44700057D01*
D10*
D12*
X86982914Y-43057200D02*
X86911485Y-42985771D01*
X86768628Y-42771485D01*
X86697200Y-42628628D01*
X86625771Y-42414342D01*
X86554342Y-42057200D01*
X86554342Y-41771485D01*
X86625771Y-41414342D01*
X86697200Y-41200057D01*
X86768628Y-41057200D01*
X86911485Y-40842914D01*
X86982914Y-40771485D01*
X88411485Y-42342914D02*
X88340057Y-42414342D01*
X88125771Y-42485771D01*
X87982914Y-42485771D01*
X87768628Y-42414342D01*
X87625771Y-42271485D01*
X87554342Y-42128628D01*
X87482914Y-41842914D01*
X87482914Y-41628628D01*
X87554342Y-41342914D01*
X87625771Y-41200057D01*
X87768628Y-41057200D01*
X87982914Y-40985771D01*
X88125771Y-40985771D01*
X88340057Y-41057200D01*
X88411485Y-41128628D01*
X88911485Y-43057200D02*
X88982914Y-42985771D01*
X89125771Y-42771485D01*
X89197200Y-42628628D01*
X89268628Y-42414342D01*
X89340057Y-42057200D01*
X89340057Y-41771485D01*
X89268628Y-41414342D01*
X89197200Y-41200057D01*
X89125771Y-41057200D01*
X88982914Y-40842914D01*
X88911485Y-40771485D01*
X91054342Y-40985771D02*
X91411485Y-42485771D01*
X91697200Y-41414342D01*
X91982914Y-42485771D01*
X92340057Y-40985771D01*
X93125771Y-42485771D02*
X92982914Y-42414342D01*
X92911485Y-42342914D01*
X92840057Y-42200057D01*
X92840057Y-41771485D01*
X92911485Y-41628628D01*
X92982914Y-41557200D01*
X93125771Y-41485771D01*
X93340057Y-41485771D01*
X93482914Y-41557200D01*
X93554342Y-41628628D01*
X93625771Y-41771485D01*
X93625771Y-42200057D01*
X93554342Y-42342914D01*
X93482914Y-42414342D01*
X93340057Y-42485771D01*
X93125771Y-42485771D01*
X94911485Y-42485771D02*
X94911485Y-40985771D01*
X94911485Y-42414342D02*
X94768628Y-42485771D01*
X94482914Y-42485771D01*
X94340057Y-42414342D01*
X94268628Y-42342914D01*
X94197200Y-42200057D01*
X94197200Y-41771485D01*
X94268628Y-41628628D01*
X94340057Y-41557200D01*
X94482914Y-41485771D01*
X94768628Y-41485771D01*
X94911485Y-41557200D01*
X95840057Y-42485771D02*
X95697200Y-42414342D01*
X95625771Y-42342914D01*
X95554342Y-42200057D01*
X95554342Y-41771485D01*
X95625771Y-41628628D01*
X95697200Y-41557200D01*
X95840057Y-41485771D01*
X96054342Y-41485771D01*
X96197200Y-41557200D01*
X96268628Y-41628628D01*
X96340057Y-41771485D01*
X96340057Y-42200057D01*
X96268628Y-42342914D01*
X96197200Y-42414342D01*
X96054342Y-42485771D01*
X95840057Y-42485771D01*
X96840057Y-40985771D02*
X97197200Y-42485771D01*
X97482914Y-41414342D01*
X97768628Y-42485771D01*
X98125771Y-40985771D01*
X98697200Y-42485771D02*
X98697200Y-41485771D01*
X98697200Y-40985771D02*
X98625771Y-41057200D01*
X98697200Y-41128628D01*
X98768628Y-41057200D01*
X98697200Y-40985771D01*
X98697200Y-41128628D01*
X99982914Y-42414342D02*
X99840057Y-42485771D01*
X99554342Y-42485771D01*
X99411485Y-42414342D01*
X99340057Y-42271485D01*
X99340057Y-41700057D01*
X99411485Y-41557200D01*
X99554342Y-41485771D01*
X99840057Y-41485771D01*
X99982914Y-41557200D01*
X100054342Y-41700057D01*
X100054342Y-41842914D01*
X99340057Y-41985771D01*
X100625771Y-42414342D02*
X100768628Y-42485771D01*
X101054342Y-42485771D01*
X101197200Y-42414342D01*
X101268628Y-42271485D01*
X101268628Y-42200057D01*
X101197200Y-42057200D01*
X101054342Y-41985771D01*
X100840057Y-41985771D01*
X100697200Y-41914342D01*
X100625771Y-41771485D01*
X100625771Y-41700057D01*
X100697200Y-41557200D01*
X100840057Y-41485771D01*
X101054342Y-41485771D01*
X101197200Y-41557200D01*
X102482914Y-42414342D02*
X102340057Y-42485771D01*
X102054342Y-42485771D01*
X101911485Y-42414342D01*
X101840057Y-42271485D01*
X101840057Y-41700057D01*
X101911485Y-41557200D01*
X102054342Y-41485771D01*
X102340057Y-41485771D01*
X102482914Y-41557200D01*
X102554342Y-41700057D01*
X102554342Y-41842914D01*
X101840057Y-41985771D01*
X103411485Y-42485771D02*
X103268628Y-42414342D01*
X103197200Y-42271485D01*
X103197200Y-40985771D01*
D10*
D11*
D10*
D11*
D10*
D11*
D10*
D11*
D10*
D11*
X105002200Y-53307200D02*
X105002200Y-56307200D01*
D10*
D11*
X169002200Y-53307200D02*
X169002200Y-59807200D01*
D14*
X89356000Y72000000D02*
X89356000Y24000D01*
X-100000Y72000000D02*
X89356000Y72000000D01*
X0Y0D02*
X-100000Y72000000D01*
X89356000Y24000D02*
X0Y0D01*
X1666666Y0D02*
G75*
G03*
X1666666Y0I-1666666J0D01*
G01*
X-2500000Y0D02*
X2500000Y0D01*
X0Y2500000D02*
X0Y-2500000D01*
D11*
%TO.C,REF7*%
X88700000Y4000000D02*
G75*
G03*
X88700000Y4000000I-3200000J0D01*
G01*
%TO.C,REF6*%
X7200000Y68000000D02*
G75*
G03*
X7200000Y68000000I-3200000J0D01*
G01*
%TD*%
M02*
