%TF.GenerationSoftware,KiCad,Pcbnew,(6.0.4)*%
%TF.CreationDate,2022-10-03T14:36:14+02:00*%
%TF.ProjectId,GB-Dumper,47422d44-756d-4706-9572-2e6b69636164,0.6*%
%TF.SameCoordinates,Original*%
%TF.FileFunction,Component,L1,Top*%
%TF.FilePolarity,Positive*%
%FSLAX46Y46*%
G04 Gerber Fmt 4.6, Leading zero omitted, Abs format (unit mm)*
G04 Created by KiCad (PCBNEW (6.0.4)) date 2022-10-03 14:36:14*
%MOMM*%
%LPD*%
G01*
G04 APERTURE LIST*
%TA.AperFunction,ComponentMain*%
%ADD10C,0.300000*%
%TD*%
%TA.AperFunction,ComponentOutline,Courtyard*%
%ADD11C,0.100000*%
%TD*%
%TA.AperFunction,ComponentPin*%
%ADD12P,0.360000X4X0.000000*%
%TD*%
%TA.AperFunction,ComponentPin*%
%ADD13C,0.000000*%
%TD*%
%TA.AperFunction,Profile*%
%ADD14C,0.150000*%
%TD*%
G04 APERTURE END LIST*
D10*
%TO.C,"J1"*%
%TO.CFtp,"GameBoy_Cartridge_AGS_1x32-1MP_P1.50mm_Socket_Horizontal"*%
%TO.CVal,"GameBoy_Cartridge_MountingPin"*%
%TO.CLbN,"Button_Switch_Keyboard"*%
%TO.CMnt,SMD*%
%TO.CRot,-90*%
X167894000Y-100584000D03*
D11*
X177343999Y-84084000D02*
X177344000Y-84084001D01*
X179843999Y-84084001D01*
X179843999Y-91083999D01*
X177344000Y-91083999D01*
X177343999Y-91084000D01*
X177343999Y-110084000D01*
X177344000Y-110084001D01*
X179843999Y-110084001D01*
X179843999Y-117083999D01*
X177344000Y-117083999D01*
X177343999Y-117084000D01*
X177343999Y-130083999D01*
X158344001Y-130083999D01*
X158344001Y-124834000D01*
X158344000Y-124833999D01*
X155944001Y-124833999D01*
X155944001Y-76334001D01*
X158344000Y-76334001D01*
X158344001Y-76334000D01*
X158344001Y-71084001D01*
X177343999Y-71084001D01*
X177343999Y-84084000D01*
D12*
%TO.P,"J1","1","VCC"*%
X157644000Y-77334000D03*
D13*
%TO.P,"J1",*%
X165844000Y-87584000D03*
X165844000Y-113584000D03*
%TO.P,"J1","2","CLK"*%
X157644000Y-78834000D03*
%TO.P,"J1","3","~{WR}"*%
X157644000Y-80334000D03*
%TO.P,"J1","4","~{RD}"*%
X157644000Y-81834000D03*
%TO.P,"J1","5","~{CS}"*%
X157644000Y-83334000D03*
%TO.P,"J1","6","A0"*%
X157644000Y-84834000D03*
%TO.P,"J1","7","A1"*%
X157644000Y-86334000D03*
%TO.P,"J1","8","A2"*%
X157644000Y-87834000D03*
%TO.P,"J1","9","A3"*%
X157644000Y-89334000D03*
%TO.P,"J1","10","A4"*%
X157644000Y-90834000D03*
%TO.P,"J1","11","A5"*%
X157644000Y-92334000D03*
%TO.P,"J1","12","A6"*%
X157644000Y-93834000D03*
%TO.P,"J1","13","A7"*%
X157644000Y-95334000D03*
%TO.P,"J1","14","A8"*%
X157644000Y-96834000D03*
%TO.P,"J1","15","A9"*%
X157644000Y-98334000D03*
%TO.P,"J1","16","A10"*%
X157644000Y-99834000D03*
%TO.P,"J1","17","A11"*%
X157644000Y-101334000D03*
%TO.P,"J1","18","A12"*%
X157644000Y-102834000D03*
%TO.P,"J1","19","A13"*%
X157644000Y-104334000D03*
%TO.P,"J1","20","A14"*%
X157644000Y-105834000D03*
%TO.P,"J1","21","A15"*%
X157644000Y-107334000D03*
%TO.P,"J1","22","D0"*%
X157644000Y-108834000D03*
%TO.P,"J1","23","D1"*%
X157644000Y-110334000D03*
%TO.P,"J1","24","D2"*%
X157644000Y-111834000D03*
%TO.P,"J1","25","D3"*%
X157644000Y-113334000D03*
%TO.P,"J1","26","D4"*%
X157644000Y-114834000D03*
%TO.P,"J1","27","D5"*%
X157644000Y-116334000D03*
%TO.P,"J1","28","D6"*%
X157644000Y-117834000D03*
%TO.P,"J1","29","D7"*%
X157644000Y-119334000D03*
%TO.P,"J1","30","~{RES}"*%
X157644000Y-120834000D03*
%TO.P,"J1","31","VIN"*%
X157644000Y-122334000D03*
%TO.P,"J1","32","GND"*%
X157644000Y-123834000D03*
%TO.P,"J1","MP"*%
X177844000Y-87584000D03*
X177844000Y-113584000D03*
%TD*%
D10*
%TO.C,"J3"*%
%TO.CFtp,"PinHeader_1x02_P2.54mm_Vertical"*%
%TO.CVal,"Conn_01x02_Male"*%
%TO.CLbN,"Connector_PinHeader_2.54mm"*%
%TO.CMnt,TH*%
%TO.CRot,90*%
X150825000Y-135800000D03*
D11*
X155174999Y-137599999D02*
X149025001Y-137599999D01*
X149025001Y-134000001D01*
X155174999Y-134000001D01*
X155174999Y-137599999D01*
D12*
%TO.P,"J3","1","Pin_1"*%
X150825000Y-135800000D03*
D13*
%TO.P,"J3","2","Pin_2"*%
X153365000Y-135800000D03*
%TD*%
D10*
%TO.C,"G1"*%
%TO.CFtp,"thebrutzler_approved_small02"*%
%TO.CVal,"LOGO"*%
%TO.CLbN,"theBrutzler"*%
%TO.CMnt,TH*%
%TO.CRot,90*%
X108400000Y-93000000D03*
%TD*%
%TO.C,"U2"*%
%TO.CFtp,"DIP-16_W7.62mm"*%
%TO.CVal,"74HC595"*%
%TO.CLbN,"Package_DIP"*%
%TO.CMnt,TH*%
%TO.CRot,-90*%
X141209000Y-93482000D03*
D11*
X142758999Y-102181999D02*
X121909001Y-102181999D01*
X121909001Y-92382001D01*
X142758999Y-92382001D01*
X142758999Y-102181999D01*
D12*
%TO.P,"U2","1","QB"*%
X141209000Y-93482000D03*
D13*
%TO.P,"U2","2","QC"*%
X138669000Y-93482000D03*
%TO.P,"U2","3","QD"*%
X136129000Y-93482000D03*
%TO.P,"U2","4","QE"*%
X133589000Y-93482000D03*
%TO.P,"U2","5","QF"*%
X131049000Y-93482000D03*
%TO.P,"U2","6","QG"*%
X128509000Y-93482000D03*
%TO.P,"U2","7","QH"*%
X125969000Y-93482000D03*
%TO.P,"U2","8","GND"*%
X123429000Y-93482000D03*
%TO.P,"U2","9","QH'"*%
X123429000Y-101102000D03*
%TO.P,"U2","10","~{SRCLR}"*%
X125969000Y-101102000D03*
%TO.P,"U2","11","SRCLK"*%
X128509000Y-101102000D03*
%TO.P,"U2","12","RCLK"*%
X131049000Y-101102000D03*
%TO.P,"U2","13","~{OE}"*%
X133589000Y-101102000D03*
%TO.P,"U2","14","SER"*%
X136129000Y-101102000D03*
%TO.P,"U2","15","QA"*%
X138669000Y-101102000D03*
%TO.P,"U2","16","VCC"*%
X141209000Y-101102000D03*
%TD*%
D10*
%TO.C,"R1"*%
%TO.CFtp,"R_Axial_DIN0204_L3.6mm_D1.6mm_P7.62mm_Horizontal"*%
%TO.CVal,"470"*%
%TO.CLbN,"Resistor_THT"*%
%TO.CMnt,TH*%
%TO.CRot,0*%
X145750000Y-76100000D03*
D11*
X154319999Y-77149999D02*
X144800001Y-77149999D01*
X144800001Y-75050001D01*
X154319999Y-75050001D01*
X154319999Y-77149999D01*
D12*
%TO.P,"R1","1"*%
X145750000Y-76100000D03*
D13*
%TO.P,"R1","2"*%
X153370000Y-76100000D03*
%TD*%
D10*
%TO.C,"J4"*%
%TO.CFtp,"PinHeader_1x04_P2.00mm_Vertical"*%
%TO.CVal,"Conn_01x04_Female"*%
%TO.CLbN,"Connector_PinHeader_2.00mm"*%
%TO.CMnt,TH*%
%TO.CRot,180*%
X152000000Y-128750000D03*
D11*
X153499999Y-130249999D02*
X150500001Y-130249999D01*
X150500001Y-121250001D01*
X153499999Y-121250001D01*
X153499999Y-130249999D01*
D12*
%TO.P,"J4","1","Pin_1"*%
X152000000Y-128750000D03*
D13*
%TO.P,"J4","2","Pin_2"*%
X152000000Y-126750000D03*
%TO.P,"J4","3","Pin_3"*%
X152000000Y-124750000D03*
%TO.P,"J4","4","Pin_4"*%
X152000000Y-122750000D03*
%TD*%
D10*
%TO.C,"A1"*%
%TO.CFtp,"Arduino_Nano"*%
%TO.CVal,"Arduino_Nano_v3.x"*%
%TO.CLbN,"Module"*%
%TO.CMnt,TH*%
%TO.CRot,-90*%
X143002000Y-116596000D03*
D11*
X147061999Y-133345999D02*
X100842001Y-133345999D01*
X100842001Y-115066001D01*
X147061999Y-115066001D01*
X147061999Y-133345999D01*
D12*
%TO.P,"A1","1","D1/TX"*%
X143002000Y-116596000D03*
D13*
%TO.P,"A1","2","D0/RX"*%
X140462000Y-116596000D03*
%TO.P,"A1","3","~{RESET}"*%
X137922000Y-116596000D03*
%TO.P,"A1","4","GND"*%
X135382000Y-116596000D03*
%TO.P,"A1","5","D2"*%
X132842000Y-116596000D03*
%TO.P,"A1","6","D3"*%
X130302000Y-116596000D03*
%TO.P,"A1","7","D4"*%
X127762000Y-116596000D03*
%TO.P,"A1","8","D5"*%
X125222000Y-116596000D03*
%TO.P,"A1","9","D6"*%
X122682000Y-116596000D03*
%TO.P,"A1","10","D7"*%
X120142000Y-116596000D03*
%TO.P,"A1","11","D8"*%
X117602000Y-116596000D03*
%TO.P,"A1","12","D9"*%
X115062000Y-116596000D03*
%TO.P,"A1","13","D10"*%
X112522000Y-116596000D03*
%TO.P,"A1","14","D11"*%
X109982000Y-116596000D03*
%TO.P,"A1","15","D12"*%
X107442000Y-116596000D03*
%TO.P,"A1","16","D13"*%
X107442000Y-131836000D03*
%TO.P,"A1","17","3V3"*%
X109982000Y-131836000D03*
%TO.P,"A1","18","AREF"*%
X112522000Y-131836000D03*
%TO.P,"A1","19","A0"*%
X115062000Y-131836000D03*
%TO.P,"A1","20","A1"*%
X117602000Y-131836000D03*
%TO.P,"A1","21","A2"*%
X120142000Y-131836000D03*
%TO.P,"A1","22","A3"*%
X122682000Y-131836000D03*
%TO.P,"A1","23","A4"*%
X125222000Y-131836000D03*
%TO.P,"A1","24","A5"*%
X127762000Y-131836000D03*
%TO.P,"A1","25","A6"*%
X130302000Y-131836000D03*
%TO.P,"A1","26","A7"*%
X132842000Y-131836000D03*
%TO.P,"A1","27","+5V"*%
X135382000Y-131836000D03*
%TO.P,"A1","28","~{RESET}"*%
X137922000Y-131836000D03*
%TO.P,"A1","29","GND"*%
X140462000Y-131836000D03*
%TO.P,"A1","30","VIN"*%
X143002000Y-131836000D03*
%TD*%
D10*
%TO.C,"R3"*%
%TO.CFtp,"R_Axial_DIN0204_L3.6mm_D1.6mm_P7.62mm_Horizontal"*%
%TO.CVal,"470"*%
%TO.CLbN,"Resistor_THT"*%
%TO.CMnt,TH*%
%TO.CRot,0*%
X145790000Y-81500000D03*
D11*
X154359999Y-82549999D02*
X144840001Y-82549999D01*
X144840001Y-80450001D01*
X154359999Y-80450001D01*
X154359999Y-82549999D01*
D12*
%TO.P,"R3","1"*%
X145790000Y-81500000D03*
D13*
%TO.P,"R3","2"*%
X153410000Y-81500000D03*
%TD*%
D10*
%TO.C,"R5"*%
%TO.CFtp,"R_Axial_DIN0204_L3.6mm_D1.6mm_P7.62mm_Horizontal"*%
%TO.CVal,"470"*%
%TO.CLbN,"Resistor_THT"*%
%TO.CMnt,TH*%
%TO.CRot,0*%
X148690000Y-131700000D03*
D11*
X157259999Y-132749999D02*
X147740001Y-132749999D01*
X147740001Y-130650001D01*
X157259999Y-130650001D01*
X157259999Y-132749999D01*
D12*
%TO.P,"R5","1"*%
X148690000Y-131700000D03*
D13*
%TO.P,"R5","2"*%
X156310000Y-131700000D03*
%TD*%
D10*
%TO.C,"R4"*%
%TO.CFtp,"R_Axial_DIN0204_L3.6mm_D1.6mm_P7.62mm_Horizontal"*%
%TO.CVal,"470"*%
%TO.CLbN,"Resistor_THT"*%
%TO.CMnt,TH*%
%TO.CRot,0*%
X145790000Y-83900000D03*
D11*
X154359999Y-84949999D02*
X144840001Y-84949999D01*
X144840001Y-82850001D01*
X154359999Y-82850001D01*
X154359999Y-84949999D01*
D12*
%TO.P,"R4","1"*%
X145790000Y-83900000D03*
D13*
%TO.P,"R4","2"*%
X153410000Y-83900000D03*
%TD*%
D10*
%TO.C,"J2"*%
%TO.CFtp,"PinHeader_1x03_P2.54mm_Vertical"*%
%TO.CVal,"Conn_01x03_Male"*%
%TO.CLbN,"Connector_PinHeader_2.54mm"*%
%TO.CMnt,TH*%
%TO.CRot,-90*%
X152500000Y-72800000D03*
D11*
X154299999Y-74599999D02*
X145650001Y-74599999D01*
X145650001Y-71000001D01*
X154299999Y-71000001D01*
X154299999Y-74599999D01*
D12*
%TO.P,"J2","1","Pin_1"*%
X152500000Y-72800000D03*
D13*
%TO.P,"J2","2","Pin_2"*%
X149960000Y-72800000D03*
%TO.P,"J2","3","Pin_3"*%
X147420000Y-72800000D03*
%TD*%
D10*
%TO.C,"R2"*%
%TO.CFtp,"R_Axial_DIN0204_L3.6mm_D1.6mm_P7.62mm_Horizontal"*%
%TO.CVal,"470"*%
%TO.CLbN,"Resistor_THT"*%
%TO.CMnt,TH*%
%TO.CRot,0*%
X145790000Y-79200000D03*
D11*
X154359999Y-80249999D02*
X144840001Y-80249999D01*
X144840001Y-78150001D01*
X154359999Y-78150001D01*
X154359999Y-80249999D01*
D12*
%TO.P,"R2","1"*%
X145790000Y-79200000D03*
D13*
%TO.P,"R2","2"*%
X153410000Y-79200000D03*
%TD*%
D10*
%TO.C,"U1"*%
%TO.CFtp,"DIP-16_W7.62mm"*%
%TO.CVal,"74HC595"*%
%TO.CLbN,"Package_DIP"*%
%TO.CMnt,TH*%
%TO.CRot,90*%
X123459000Y-84826000D03*
D11*
X142758999Y-85925999D02*
X121909001Y-85925999D01*
X121909001Y-76126001D01*
X142758999Y-76126001D01*
X142758999Y-85925999D01*
D12*
%TO.P,"U1","1","QB"*%
X123459000Y-84826000D03*
D13*
%TO.P,"U1","2","QC"*%
X125999000Y-84826000D03*
%TO.P,"U1","3","QD"*%
X128539000Y-84826000D03*
%TO.P,"U1","4","QE"*%
X131079000Y-84826000D03*
%TO.P,"U1","5","QF"*%
X133619000Y-84826000D03*
%TO.P,"U1","6","QG"*%
X136159000Y-84826000D03*
%TO.P,"U1","7","QH"*%
X138699000Y-84826000D03*
%TO.P,"U1","8","GND"*%
X141239000Y-84826000D03*
%TO.P,"U1","9","QH'"*%
X141239000Y-77206000D03*
%TO.P,"U1","10","~{SRCLR}"*%
X138699000Y-77206000D03*
%TO.P,"U1","11","SRCLK"*%
X136159000Y-77206000D03*
%TO.P,"U1","12","RCLK"*%
X133619000Y-77206000D03*
%TO.P,"U1","13","~{OE}"*%
X131079000Y-77206000D03*
%TO.P,"U1","14","SER"*%
X128539000Y-77206000D03*
%TO.P,"U1","15","QA"*%
X125999000Y-77206000D03*
%TO.P,"U1","16","VCC"*%
X123459000Y-77206000D03*
%TD*%
D14*
X181356000Y-66200000D02*
X181356000Y-138176000D01*
X91900000Y-66200000D02*
X181356000Y-66200000D01*
X92000000Y-138200000D02*
X91900000Y-66200000D01*
X181356000Y-138176000D02*
X92000000Y-138200000D01*
X93666666Y-138200000D02*
G75*
G03*
X93666666Y-138200000I-1666666J0D01*
G01*
X89500000Y-138200000D02*
X94500000Y-138200000D01*
X92000000Y-135700000D02*
X92000000Y-140700000D01*
M02*
