%FSLAX45Y45*%
G04 Gerber Fmt 4.5, Leading zero omitted, Abs format (unit mm)*
G04 Created by KiCad (PCBNEW (6.0.4)) date 2022-10-03 14:37:33*
%MOMM*%
%LPD*%
G01*
G04 APERTURE LIST*
%TA.AperFunction,Profile*%
%ADD10C,0.150000*%
%TD*%
%ADD11C,0.200000*%
G04 APERTURE END LIST*
D10*
X8935600Y7200000D02*
X8935600Y2400D01*
X-10000Y7200000D02*
X8935600Y7200000D01*
X0Y0D02*
X-10000Y7200000D01*
X8935600Y2400D02*
X0Y0D01*
D11*
X7284400Y5161600D02*
X7484400Y4961600D01*
X7484400Y5161600D02*
X7284400Y4961600D01*
X7284400Y2561600D02*
X7484400Y2361600D01*
X7484400Y2561600D02*
X7284400Y2361600D01*
X240119Y-317976D02*
X240119Y-117976D01*
X287738Y-117976D01*
X316310Y-127500D01*
X335357Y-146548D01*
X344881Y-165595D01*
X354405Y-203690D01*
X354405Y-232262D01*
X344881Y-270357D01*
X335357Y-289405D01*
X316310Y-308452D01*
X287738Y-317976D01*
X240119Y-317976D01*
X440119Y-317976D02*
X440119Y-184643D01*
X440119Y-222738D02*
X449643Y-203690D01*
X459167Y-194167D01*
X478214Y-184643D01*
X497262Y-184643D01*
X563929Y-317976D02*
X563929Y-184643D01*
X563929Y-117976D02*
X554405Y-127500D01*
X563929Y-137024D01*
X573452Y-127500D01*
X563929Y-117976D01*
X563929Y-137024D01*
X687738Y-317976D02*
X668690Y-308452D01*
X659167Y-289405D01*
X659167Y-117976D01*
X792500Y-317976D02*
X773452Y-308452D01*
X763928Y-289405D01*
X763928Y-117976D01*
X1021071Y-317976D02*
X1021071Y-117976D01*
X1087738Y-260833D01*
X1154405Y-117976D01*
X1154405Y-317976D01*
X1335357Y-317976D02*
X1335357Y-213214D01*
X1325833Y-194167D01*
X1306786Y-184643D01*
X1268690Y-184643D01*
X1249643Y-194167D01*
X1335357Y-308452D02*
X1316310Y-317976D01*
X1268690Y-317976D01*
X1249643Y-308452D01*
X1240119Y-289405D01*
X1240119Y-270357D01*
X1249643Y-251309D01*
X1268690Y-241786D01*
X1316310Y-241786D01*
X1335357Y-232262D01*
X1430595Y-184643D02*
X1430595Y-384643D01*
X1430595Y-194167D02*
X1449643Y-184643D01*
X1487738Y-184643D01*
X1506786Y-194167D01*
X1516309Y-203690D01*
X1525833Y-222738D01*
X1525833Y-279881D01*
X1516309Y-298929D01*
X1506786Y-308452D01*
X1487738Y-317976D01*
X1449643Y-317976D01*
X1430595Y-308452D01*
X1611548Y-298929D02*
X1621071Y-308452D01*
X1611548Y-317976D01*
X1602024Y-308452D01*
X1611548Y-298929D01*
X1611548Y-317976D01*
X1611548Y-194167D02*
X1621071Y-203690D01*
X1611548Y-213214D01*
X1602024Y-203690D01*
X1611548Y-194167D01*
X1611548Y-213214D01*
X-217500Y-547500D02*
X-17500Y-747500D01*
X-17500Y-547500D02*
X-217500Y-747500D01*
X230595Y-557024D02*
X240119Y-547500D01*
X259167Y-537976D01*
X306786Y-537976D01*
X325833Y-547500D01*
X335357Y-557024D01*
X344881Y-576071D01*
X344881Y-595119D01*
X335357Y-623690D01*
X221071Y-737976D01*
X344881Y-737976D01*
X430595Y-718928D02*
X440119Y-728452D01*
X430595Y-737976D01*
X421071Y-728452D01*
X430595Y-718928D01*
X430595Y-737976D01*
X563929Y-537976D02*
X582976Y-537976D01*
X602024Y-547500D01*
X611548Y-557024D01*
X621071Y-576071D01*
X630595Y-614167D01*
X630595Y-661786D01*
X621071Y-699881D01*
X611548Y-718928D01*
X602024Y-728452D01*
X582976Y-737976D01*
X563929Y-737976D01*
X544881Y-728452D01*
X535357Y-718928D01*
X525833Y-699881D01*
X516309Y-661786D01*
X516309Y-614167D01*
X525833Y-576071D01*
X535357Y-557024D01*
X544881Y-547500D01*
X563929Y-537976D01*
X754405Y-537976D02*
X773452Y-537976D01*
X792500Y-547500D01*
X802024Y-557024D01*
X811548Y-576071D01*
X821071Y-614167D01*
X821071Y-661786D01*
X811548Y-699881D01*
X802024Y-718928D01*
X792500Y-728452D01*
X773452Y-737976D01*
X754405Y-737976D01*
X735357Y-728452D01*
X725833Y-718928D01*
X716309Y-699881D01*
X706786Y-661786D01*
X706786Y-614167D01*
X716309Y-576071D01*
X725833Y-557024D01*
X735357Y-547500D01*
X754405Y-537976D01*
X944881Y-537976D02*
X963928Y-537976D01*
X982976Y-547500D01*
X992500Y-557024D01*
X1002024Y-576071D01*
X1011548Y-614167D01*
X1011548Y-661786D01*
X1002024Y-699881D01*
X992500Y-718928D01*
X982976Y-728452D01*
X963928Y-737976D01*
X944881Y-737976D01*
X925833Y-728452D01*
X916309Y-718928D01*
X906786Y-699881D01*
X897262Y-661786D01*
X897262Y-614167D01*
X906786Y-576071D01*
X916309Y-557024D01*
X925833Y-547500D01*
X944881Y-537976D01*
X1097262Y-737976D02*
X1097262Y-604643D01*
X1097262Y-623690D02*
X1106786Y-614167D01*
X1125833Y-604643D01*
X1154405Y-604643D01*
X1173452Y-614167D01*
X1182976Y-633214D01*
X1182976Y-737976D01*
X1182976Y-633214D02*
X1192500Y-614167D01*
X1211548Y-604643D01*
X1240119Y-604643D01*
X1259167Y-614167D01*
X1268690Y-633214D01*
X1268690Y-737976D01*
X1363929Y-737976D02*
X1363929Y-604643D01*
X1363929Y-623690D02*
X1373452Y-614167D01*
X1392500Y-604643D01*
X1421071Y-604643D01*
X1440119Y-614167D01*
X1449643Y-633214D01*
X1449643Y-737976D01*
X1449643Y-633214D02*
X1459167Y-614167D01*
X1478214Y-604643D01*
X1506786Y-604643D01*
X1525833Y-614167D01*
X1535357Y-633214D01*
X1535357Y-737976D01*
X1925833Y-528452D02*
X1754405Y-785595D01*
X2182976Y-537976D02*
X2202024Y-537976D01*
X2221071Y-547500D01*
X2230595Y-557024D01*
X2240119Y-576071D01*
X2249643Y-614167D01*
X2249643Y-661786D01*
X2240119Y-699881D01*
X2230595Y-718928D01*
X2221071Y-728452D01*
X2202024Y-737976D01*
X2182976Y-737976D01*
X2163929Y-728452D01*
X2154405Y-718928D01*
X2144881Y-699881D01*
X2135357Y-661786D01*
X2135357Y-614167D01*
X2144881Y-576071D01*
X2154405Y-557024D01*
X2163929Y-547500D01*
X2182976Y-537976D01*
X2335357Y-718928D02*
X2344881Y-728452D01*
X2335357Y-737976D01*
X2325833Y-728452D01*
X2335357Y-718928D01*
X2335357Y-737976D01*
X2468690Y-537976D02*
X2487738Y-537976D01*
X2506786Y-547500D01*
X2516310Y-557024D01*
X2525833Y-576071D01*
X2535357Y-614167D01*
X2535357Y-661786D01*
X2525833Y-699881D01*
X2516310Y-718928D01*
X2506786Y-728452D01*
X2487738Y-737976D01*
X2468690Y-737976D01*
X2449643Y-728452D01*
X2440119Y-718928D01*
X2430595Y-699881D01*
X2421071Y-661786D01*
X2421071Y-614167D01*
X2430595Y-576071D01*
X2440119Y-557024D01*
X2449643Y-547500D01*
X2468690Y-537976D01*
X2602024Y-537976D02*
X2735357Y-537976D01*
X2649643Y-737976D01*
X2840119Y-623690D02*
X2821071Y-614167D01*
X2811548Y-604643D01*
X2802024Y-585595D01*
X2802024Y-576071D01*
X2811548Y-557024D01*
X2821071Y-547500D01*
X2840119Y-537976D01*
X2878214Y-537976D01*
X2897262Y-547500D01*
X2906786Y-557024D01*
X2916309Y-576071D01*
X2916309Y-585595D01*
X2906786Y-604643D01*
X2897262Y-614167D01*
X2878214Y-623690D01*
X2840119Y-623690D01*
X2821071Y-633214D01*
X2811548Y-642738D01*
X2802024Y-661786D01*
X2802024Y-699881D01*
X2811548Y-718928D01*
X2821071Y-728452D01*
X2840119Y-737976D01*
X2878214Y-737976D01*
X2897262Y-728452D01*
X2906786Y-718928D01*
X2916309Y-699881D01*
X2916309Y-661786D01*
X2906786Y-642738D01*
X2897262Y-633214D01*
X2878214Y-623690D01*
X2982976Y-537976D02*
X3116309Y-537976D01*
X3030595Y-737976D01*
X3182976Y-537976D02*
X3182976Y-576071D01*
X3259167Y-537976D02*
X3259167Y-576071D01*
X3554405Y-814167D02*
X3544881Y-804643D01*
X3525833Y-776071D01*
X3516309Y-757024D01*
X3506786Y-728452D01*
X3497262Y-680833D01*
X3497262Y-642738D01*
X3506786Y-595119D01*
X3516309Y-566548D01*
X3525833Y-547500D01*
X3544881Y-518928D01*
X3554405Y-509405D01*
X3621071Y-557024D02*
X3630595Y-547500D01*
X3649643Y-537976D01*
X3697262Y-537976D01*
X3716309Y-547500D01*
X3725833Y-557024D01*
X3735357Y-576071D01*
X3735357Y-595119D01*
X3725833Y-623690D01*
X3611548Y-737976D01*
X3735357Y-737976D01*
X3973452Y-737976D02*
X3973452Y-537976D01*
X4059167Y-737976D02*
X4059167Y-633214D01*
X4049643Y-614167D01*
X4030595Y-604643D01*
X4002024Y-604643D01*
X3982976Y-614167D01*
X3973452Y-623690D01*
X4182976Y-737976D02*
X4163928Y-728452D01*
X4154405Y-718928D01*
X4144881Y-699881D01*
X4144881Y-642738D01*
X4154405Y-623690D01*
X4163928Y-614167D01*
X4182976Y-604643D01*
X4211548Y-604643D01*
X4230595Y-614167D01*
X4240119Y-623690D01*
X4249643Y-642738D01*
X4249643Y-699881D01*
X4240119Y-718928D01*
X4230595Y-728452D01*
X4211548Y-737976D01*
X4182976Y-737976D01*
X4363929Y-737976D02*
X4344881Y-728452D01*
X4335357Y-709405D01*
X4335357Y-537976D01*
X4516310Y-728452D02*
X4497262Y-737976D01*
X4459167Y-737976D01*
X4440119Y-728452D01*
X4430595Y-709405D01*
X4430595Y-633214D01*
X4440119Y-614167D01*
X4459167Y-604643D01*
X4497262Y-604643D01*
X4516310Y-614167D01*
X4525833Y-633214D01*
X4525833Y-652262D01*
X4430595Y-671310D01*
X4602024Y-728452D02*
X4621071Y-737976D01*
X4659167Y-737976D01*
X4678214Y-728452D01*
X4687738Y-709405D01*
X4687738Y-699881D01*
X4678214Y-680833D01*
X4659167Y-671310D01*
X4630595Y-671310D01*
X4611548Y-661786D01*
X4602024Y-642738D01*
X4602024Y-633214D01*
X4611548Y-614167D01*
X4630595Y-604643D01*
X4659167Y-604643D01*
X4678214Y-614167D01*
X4754405Y-814167D02*
X4763929Y-804643D01*
X4782976Y-776071D01*
X4792500Y-757024D01*
X4802024Y-728452D01*
X4811548Y-680833D01*
X4811548Y-642738D01*
X4802024Y-595119D01*
X4792500Y-566548D01*
X4782976Y-547500D01*
X4763929Y-518928D01*
X4754405Y-509405D01*
X5116310Y-814167D02*
X5106786Y-804643D01*
X5087738Y-776071D01*
X5078214Y-757024D01*
X5068690Y-728452D01*
X5059167Y-680833D01*
X5059167Y-642738D01*
X5068690Y-595119D01*
X5078214Y-566548D01*
X5087738Y-547500D01*
X5106786Y-518928D01*
X5116310Y-509405D01*
X5192500Y-604643D02*
X5192500Y-737976D01*
X5192500Y-623690D02*
X5202024Y-614167D01*
X5221071Y-604643D01*
X5249643Y-604643D01*
X5268690Y-614167D01*
X5278214Y-633214D01*
X5278214Y-737976D01*
X5402024Y-737976D02*
X5382976Y-728452D01*
X5373452Y-718928D01*
X5363929Y-699881D01*
X5363929Y-642738D01*
X5373452Y-623690D01*
X5382976Y-614167D01*
X5402024Y-604643D01*
X5430595Y-604643D01*
X5449643Y-614167D01*
X5459167Y-623690D01*
X5468690Y-642738D01*
X5468690Y-699881D01*
X5459167Y-718928D01*
X5449643Y-728452D01*
X5430595Y-737976D01*
X5402024Y-737976D01*
X5525833Y-604643D02*
X5602024Y-604643D01*
X5554405Y-537976D02*
X5554405Y-709405D01*
X5563929Y-728452D01*
X5582976Y-737976D01*
X5602024Y-737976D01*
X5821071Y-604643D02*
X5821071Y-804643D01*
X5821071Y-614167D02*
X5840119Y-604643D01*
X5878214Y-604643D01*
X5897262Y-614167D01*
X5906786Y-623690D01*
X5916309Y-642738D01*
X5916309Y-699881D01*
X5906786Y-718928D01*
X5897262Y-728452D01*
X5878214Y-737976D01*
X5840119Y-737976D01*
X5821071Y-728452D01*
X6030595Y-737976D02*
X6011548Y-728452D01*
X6002024Y-709405D01*
X6002024Y-537976D01*
X6192500Y-737976D02*
X6192500Y-633214D01*
X6182976Y-614167D01*
X6163928Y-604643D01*
X6125833Y-604643D01*
X6106786Y-614167D01*
X6192500Y-728452D02*
X6173452Y-737976D01*
X6125833Y-737976D01*
X6106786Y-728452D01*
X6097262Y-709405D01*
X6097262Y-690357D01*
X6106786Y-671310D01*
X6125833Y-661786D01*
X6173452Y-661786D01*
X6192500Y-652262D01*
X6259167Y-604643D02*
X6335357Y-604643D01*
X6287738Y-537976D02*
X6287738Y-709405D01*
X6297262Y-728452D01*
X6316309Y-737976D01*
X6335357Y-737976D01*
X6478214Y-728452D02*
X6459167Y-737976D01*
X6421071Y-737976D01*
X6402024Y-728452D01*
X6392500Y-709405D01*
X6392500Y-633214D01*
X6402024Y-614167D01*
X6421071Y-604643D01*
X6459167Y-604643D01*
X6478214Y-614167D01*
X6487738Y-633214D01*
X6487738Y-652262D01*
X6392500Y-671310D01*
X6659167Y-737976D02*
X6659167Y-537976D01*
X6659167Y-728452D02*
X6640119Y-737976D01*
X6602024Y-737976D01*
X6582976Y-728452D01*
X6573452Y-718928D01*
X6563928Y-699881D01*
X6563928Y-642738D01*
X6573452Y-623690D01*
X6582976Y-614167D01*
X6602024Y-604643D01*
X6640119Y-604643D01*
X6659167Y-614167D01*
X6735357Y-814167D02*
X6744881Y-804643D01*
X6763928Y-776071D01*
X6773452Y-757024D01*
X6782976Y-728452D01*
X6792500Y-680833D01*
X6792500Y-642738D01*
X6782976Y-595119D01*
X6773452Y-566548D01*
X6763928Y-547500D01*
X6744881Y-518928D01*
X6735357Y-509405D01*
M02*
