%TF.GenerationSoftware,KiCad,Pcbnew,(6.0.4)*%
%TF.CreationDate,2022-10-03T14:38:54+02:00*%
%TF.ProjectId,GB-Dumper,47422d44-756d-4706-9572-2e6b69636164,0.6*%
%TF.SameCoordinates,PX57bcf00PY83cc3c0*%
%TF.FileFunction,AssemblyDrawing,Top*%
%FSLAX46Y46*%
G04 Gerber Fmt 4.6, Leading zero omitted, Abs format (unit mm)*
G04 Created by KiCad (PCBNEW (6.0.4)) date 2022-10-03 14:38:54*
%MOMM*%
%LPD*%
G01*
G04 APERTURE LIST*
%ADD10C,0.100000*%
%ADD11C,0.150000*%
%ADD12C,0.300000*%
%ADD13C,0.400000*%
%TA.AperFunction,Profile*%
%ADD14C,0.150000*%
%TD*%
%ADD15C,0.108000*%
G04 APERTURE END LIST*
D10*
D11*
X85002200Y-27807200D02*
X85002200Y-59807200D01*
X193002200Y-59807200D01*
X193002200Y-27807200D01*
X85002200Y-27807200D01*
D10*
D11*
X-82000000Y128200000D02*
X-82000000Y-61807200D01*
X195002200Y-61807200D01*
X195002200Y128200000D01*
X-82000000Y128200000D01*
D10*
D11*
X-80000000Y126200000D02*
X-80000000Y-59807200D01*
X193002200Y-59807200D01*
X193002200Y126200000D01*
X-80000000Y126200000D01*
D10*
D11*
X-32000000Y126200000D02*
X-32000000Y128200000D01*
D10*
D11*
X18000000Y126200000D02*
X18000000Y128200000D01*
D10*
D11*
X68000000Y126200000D02*
X68000000Y128200000D01*
D10*
D11*
X118000000Y126200000D02*
X118000000Y128200000D01*
D10*
D11*
X168000000Y126200000D02*
X168000000Y128200000D01*
D10*
D11*
X-55934524Y126611905D02*
X-56677381Y126611905D01*
X-56305953Y126611905D02*
X-56305953Y127911905D01*
X-56429762Y127726191D01*
X-56553572Y127602381D01*
X-56677381Y127540477D01*
D10*
D11*
X-6677381Y127788096D02*
X-6615477Y127850000D01*
X-6491667Y127911905D01*
X-6182143Y127911905D01*
X-6058334Y127850000D01*
X-5996429Y127788096D01*
X-5934524Y127664286D01*
X-5934524Y127540477D01*
X-5996429Y127354762D01*
X-6739286Y126611905D01*
X-5934524Y126611905D01*
D10*
D11*
X43260714Y127911905D02*
X44065476Y127911905D01*
X43632142Y127416667D01*
X43817857Y127416667D01*
X43941666Y127354762D01*
X44003571Y127292858D01*
X44065476Y127169048D01*
X44065476Y126859524D01*
X44003571Y126735715D01*
X43941666Y126673810D01*
X43817857Y126611905D01*
X43446428Y126611905D01*
X43322619Y126673810D01*
X43260714Y126735715D01*
D10*
D11*
X93941666Y127478572D02*
X93941666Y126611905D01*
X93632142Y127973810D02*
X93322619Y127045239D01*
X94127380Y127045239D01*
D10*
D11*
X144003571Y127911905D02*
X143384523Y127911905D01*
X143322619Y127292858D01*
X143384523Y127354762D01*
X143508333Y127416667D01*
X143817857Y127416667D01*
X143941666Y127354762D01*
X144003571Y127292858D01*
X144065476Y127169048D01*
X144065476Y126859524D01*
X144003571Y126735715D01*
X143941666Y126673810D01*
X143817857Y126611905D01*
X143508333Y126611905D01*
X143384523Y126673810D01*
X143322619Y126735715D01*
D10*
D11*
X193941666Y127911905D02*
X193694047Y127911905D01*
X193570238Y127850000D01*
X193508333Y127788096D01*
X193384523Y127602381D01*
X193322619Y127354762D01*
X193322619Y126859524D01*
X193384523Y126735715D01*
X193446428Y126673810D01*
X193570238Y126611905D01*
X193817857Y126611905D01*
X193941666Y126673810D01*
X194003571Y126735715D01*
X194065476Y126859524D01*
X194065476Y127169048D01*
X194003571Y127292858D01*
X193941666Y127354762D01*
X193817857Y127416667D01*
X193570238Y127416667D01*
X193446428Y127354762D01*
X193384523Y127292858D01*
X193322619Y127169048D01*
D10*
D11*
X-32000000Y-59807200D02*
X-32000000Y-61807200D01*
D10*
D11*
X18000000Y-59807200D02*
X18000000Y-61807200D01*
D10*
D11*
X68000000Y-59807200D02*
X68000000Y-61807200D01*
D10*
D11*
X118000000Y-59807200D02*
X118000000Y-61807200D01*
D10*
D11*
X168000000Y-59807200D02*
X168000000Y-61807200D01*
D10*
D11*
X-55934524Y-61395295D02*
X-56677381Y-61395295D01*
X-56305953Y-61395295D02*
X-56305953Y-60095295D01*
X-56429762Y-60281009D01*
X-56553572Y-60404819D01*
X-56677381Y-60466723D01*
D10*
D11*
X-6677381Y-60219104D02*
X-6615477Y-60157200D01*
X-6491667Y-60095295D01*
X-6182143Y-60095295D01*
X-6058334Y-60157200D01*
X-5996429Y-60219104D01*
X-5934524Y-60342914D01*
X-5934524Y-60466723D01*
X-5996429Y-60652438D01*
X-6739286Y-61395295D01*
X-5934524Y-61395295D01*
D10*
D11*
X43260714Y-60095295D02*
X44065476Y-60095295D01*
X43632142Y-60590533D01*
X43817857Y-60590533D01*
X43941666Y-60652438D01*
X44003571Y-60714342D01*
X44065476Y-60838152D01*
X44065476Y-61147676D01*
X44003571Y-61271485D01*
X43941666Y-61333390D01*
X43817857Y-61395295D01*
X43446428Y-61395295D01*
X43322619Y-61333390D01*
X43260714Y-61271485D01*
D10*
D11*
X93941666Y-60528628D02*
X93941666Y-61395295D01*
X93632142Y-60033390D02*
X93322619Y-60961961D01*
X94127380Y-60961961D01*
D10*
D11*
X144003571Y-60095295D02*
X143384523Y-60095295D01*
X143322619Y-60714342D01*
X143384523Y-60652438D01*
X143508333Y-60590533D01*
X143817857Y-60590533D01*
X143941666Y-60652438D01*
X144003571Y-60714342D01*
X144065476Y-60838152D01*
X144065476Y-61147676D01*
X144003571Y-61271485D01*
X143941666Y-61333390D01*
X143817857Y-61395295D01*
X143508333Y-61395295D01*
X143384523Y-61333390D01*
X143322619Y-61271485D01*
D10*
D11*
X193941666Y-60095295D02*
X193694047Y-60095295D01*
X193570238Y-60157200D01*
X193508333Y-60219104D01*
X193384523Y-60404819D01*
X193322619Y-60652438D01*
X193322619Y-61147676D01*
X193384523Y-61271485D01*
X193446428Y-61333390D01*
X193570238Y-61395295D01*
X193817857Y-61395295D01*
X193941666Y-61333390D01*
X194003571Y-61271485D01*
X194065476Y-61147676D01*
X194065476Y-60838152D01*
X194003571Y-60714342D01*
X193941666Y-60652438D01*
X193817857Y-60590533D01*
X193570238Y-60590533D01*
X193446428Y-60652438D01*
X193384523Y-60714342D01*
X193322619Y-60838152D01*
D10*
D11*
X-82000000Y78200000D02*
X-80000000Y78200000D01*
D10*
D11*
X-82000000Y28200000D02*
X-80000000Y28200000D01*
D10*
D11*
X-82000000Y-21800000D02*
X-80000000Y-21800000D01*
D10*
D11*
X-81309524Y102983334D02*
X-80690477Y102983334D01*
X-81433334Y102611905D02*
X-81000000Y103911905D01*
X-80566667Y102611905D01*
D10*
D11*
X-80907143Y53292858D02*
X-80721429Y53230953D01*
X-80659524Y53169048D01*
X-80597620Y53045239D01*
X-80597620Y52859524D01*
X-80659524Y52735715D01*
X-80721429Y52673810D01*
X-80845239Y52611905D01*
X-81340477Y52611905D01*
X-81340477Y53911905D01*
X-80907143Y53911905D01*
X-80783334Y53850000D01*
X-80721429Y53788096D01*
X-80659524Y53664286D01*
X-80659524Y53540477D01*
X-80721429Y53416667D01*
X-80783334Y53354762D01*
X-80907143Y53292858D01*
X-81340477Y53292858D01*
D10*
D11*
X-80597620Y2735715D02*
X-80659524Y2673810D01*
X-80845239Y2611905D01*
X-80969048Y2611905D01*
X-81154762Y2673810D01*
X-81278572Y2797620D01*
X-81340477Y2921429D01*
X-81402381Y3169048D01*
X-81402381Y3354762D01*
X-81340477Y3602381D01*
X-81278572Y3726191D01*
X-81154762Y3850000D01*
X-80969048Y3911905D01*
X-80845239Y3911905D01*
X-80659524Y3850000D01*
X-80597620Y3788096D01*
D10*
D11*
X-81340477Y-47388095D02*
X-81340477Y-46088095D01*
X-81030953Y-46088095D01*
X-80845239Y-46150000D01*
X-80721429Y-46273809D01*
X-80659524Y-46397619D01*
X-80597620Y-46645238D01*
X-80597620Y-46830952D01*
X-80659524Y-47078571D01*
X-80721429Y-47202380D01*
X-80845239Y-47326190D01*
X-81030953Y-47388095D01*
X-81340477Y-47388095D01*
D10*
D11*
X195002200Y78200000D02*
X193002200Y78200000D01*
D10*
D11*
X195002200Y28200000D02*
X193002200Y28200000D01*
D10*
D11*
X195002200Y-21800000D02*
X193002200Y-21800000D01*
D10*
D11*
X193692676Y102983334D02*
X194311723Y102983334D01*
X193568866Y102611905D02*
X194002200Y103911905D01*
X194435533Y102611905D01*
D10*
D11*
X194095057Y53292858D02*
X194280771Y53230953D01*
X194342676Y53169048D01*
X194404580Y53045239D01*
X194404580Y52859524D01*
X194342676Y52735715D01*
X194280771Y52673810D01*
X194156961Y52611905D01*
X193661723Y52611905D01*
X193661723Y53911905D01*
X194095057Y53911905D01*
X194218866Y53850000D01*
X194280771Y53788096D01*
X194342676Y53664286D01*
X194342676Y53540477D01*
X194280771Y53416667D01*
X194218866Y53354762D01*
X194095057Y53292858D01*
X193661723Y53292858D01*
D10*
D11*
X194404580Y2735715D02*
X194342676Y2673810D01*
X194156961Y2611905D01*
X194033152Y2611905D01*
X193847438Y2673810D01*
X193723628Y2797620D01*
X193661723Y2921429D01*
X193599819Y3169048D01*
X193599819Y3354762D01*
X193661723Y3602381D01*
X193723628Y3726191D01*
X193847438Y3850000D01*
X194033152Y3911905D01*
X194156961Y3911905D01*
X194342676Y3850000D01*
X194404580Y3788096D01*
D10*
D11*
X193661723Y-47388095D02*
X193661723Y-46088095D01*
X193971247Y-46088095D01*
X194156961Y-46150000D01*
X194280771Y-46273809D01*
X194342676Y-46397619D01*
X194404580Y-46645238D01*
X194404580Y-46830952D01*
X194342676Y-47078571D01*
X194280771Y-47202380D01*
X194156961Y-47326190D01*
X193971247Y-47388095D01*
X193661723Y-47388095D01*
D10*
D11*
X108434342Y-55585771D02*
X108434342Y-54085771D01*
X108791485Y-54085771D01*
X109005771Y-54157200D01*
X109148628Y-54300057D01*
X109220057Y-54442914D01*
X109291485Y-54728628D01*
X109291485Y-54942914D01*
X109220057Y-55228628D01*
X109148628Y-55371485D01*
X109005771Y-55514342D01*
X108791485Y-55585771D01*
X108434342Y-55585771D01*
X110577200Y-55585771D02*
X110577200Y-54800057D01*
X110505771Y-54657200D01*
X110362914Y-54585771D01*
X110077200Y-54585771D01*
X109934342Y-54657200D01*
X110577200Y-55514342D02*
X110434342Y-55585771D01*
X110077200Y-55585771D01*
X109934342Y-55514342D01*
X109862914Y-55371485D01*
X109862914Y-55228628D01*
X109934342Y-55085771D01*
X110077200Y-55014342D01*
X110434342Y-55014342D01*
X110577200Y-54942914D01*
X111077200Y-54585771D02*
X111648628Y-54585771D01*
X111291485Y-54085771D02*
X111291485Y-55371485D01*
X111362914Y-55514342D01*
X111505771Y-55585771D01*
X111648628Y-55585771D01*
X112720057Y-55514342D02*
X112577200Y-55585771D01*
X112291485Y-55585771D01*
X112148628Y-55514342D01*
X112077200Y-55371485D01*
X112077200Y-54800057D01*
X112148628Y-54657200D01*
X112291485Y-54585771D01*
X112577200Y-54585771D01*
X112720057Y-54657200D01*
X112791485Y-54800057D01*
X112791485Y-54942914D01*
X112077200Y-55085771D01*
X113434342Y-55442914D02*
X113505771Y-55514342D01*
X113434342Y-55585771D01*
X113362914Y-55514342D01*
X113434342Y-55442914D01*
X113434342Y-55585771D01*
X113434342Y-54657200D02*
X113505771Y-54728628D01*
X113434342Y-54800057D01*
X113362914Y-54728628D01*
X113434342Y-54657200D01*
X113434342Y-54800057D01*
X116077200Y-55585771D02*
X115220057Y-55585771D01*
X115648628Y-55585771D02*
X115648628Y-54085771D01*
X115505771Y-54300057D01*
X115362914Y-54442914D01*
X115220057Y-54514342D01*
X116577200Y-54085771D02*
X117505771Y-54085771D01*
X117005771Y-54657200D01*
X117220057Y-54657200D01*
X117362914Y-54728628D01*
X117434342Y-54800057D01*
X117505771Y-54942914D01*
X117505771Y-55300057D01*
X117434342Y-55442914D01*
X117362914Y-55514342D01*
X117220057Y-55585771D01*
X116791485Y-55585771D01*
X116648628Y-55514342D01*
X116577200Y-55442914D01*
X118148628Y-55442914D02*
X118220057Y-55514342D01*
X118148628Y-55585771D01*
X118077200Y-55514342D01*
X118148628Y-55442914D01*
X118148628Y-55585771D01*
X119148628Y-54085771D02*
X119291485Y-54085771D01*
X119434342Y-54157200D01*
X119505771Y-54228628D01*
X119577200Y-54371485D01*
X119648628Y-54657200D01*
X119648628Y-55014342D01*
X119577200Y-55300057D01*
X119505771Y-55442914D01*
X119434342Y-55514342D01*
X119291485Y-55585771D01*
X119148628Y-55585771D01*
X119005771Y-55514342D01*
X118934342Y-55442914D01*
X118862914Y-55300057D01*
X118791485Y-55014342D01*
X118791485Y-54657200D01*
X118862914Y-54371485D01*
X118934342Y-54228628D01*
X119005771Y-54157200D01*
X119148628Y-54085771D01*
X120362914Y-55585771D02*
X120648628Y-55585771D01*
X120791485Y-55514342D01*
X120862914Y-55442914D01*
X121005771Y-55228628D01*
X121077200Y-54942914D01*
X121077200Y-54371485D01*
X121005771Y-54228628D01*
X120934342Y-54157200D01*
X120791485Y-54085771D01*
X120505771Y-54085771D01*
X120362914Y-54157200D01*
X120291485Y-54228628D01*
X120220057Y-54371485D01*
X120220057Y-54728628D01*
X120291485Y-54871485D01*
X120362914Y-54942914D01*
X120505771Y-55014342D01*
X120791485Y-55014342D01*
X120934342Y-54942914D01*
X121005771Y-54871485D01*
X121077200Y-54728628D01*
X121720057Y-55442914D02*
X121791485Y-55514342D01*
X121720057Y-55585771D01*
X121648628Y-55514342D01*
X121720057Y-55442914D01*
X121720057Y-55585771D01*
X122362914Y-54228628D02*
X122434342Y-54157200D01*
X122577200Y-54085771D01*
X122934342Y-54085771D01*
X123077200Y-54157200D01*
X123148628Y-54228628D01*
X123220057Y-54371485D01*
X123220057Y-54514342D01*
X123148628Y-54728628D01*
X122291485Y-55585771D01*
X123220057Y-55585771D01*
X124148628Y-54085771D02*
X124291485Y-54085771D01*
X124434342Y-54157200D01*
X124505771Y-54228628D01*
X124577200Y-54371485D01*
X124648628Y-54657200D01*
X124648628Y-55014342D01*
X124577200Y-55300057D01*
X124505771Y-55442914D01*
X124434342Y-55514342D01*
X124291485Y-55585771D01*
X124148628Y-55585771D01*
X124005771Y-55514342D01*
X123934342Y-55442914D01*
X123862914Y-55300057D01*
X123791485Y-55014342D01*
X123791485Y-54657200D01*
X123862914Y-54371485D01*
X123934342Y-54228628D01*
X124005771Y-54157200D01*
X124148628Y-54085771D01*
X125220057Y-54228628D02*
X125291485Y-54157200D01*
X125434342Y-54085771D01*
X125791485Y-54085771D01*
X125934342Y-54157200D01*
X126005771Y-54228628D01*
X126077200Y-54371485D01*
X126077200Y-54514342D01*
X126005771Y-54728628D01*
X125148628Y-55585771D01*
X126077200Y-55585771D01*
X126648628Y-54228628D02*
X126720057Y-54157200D01*
X126862914Y-54085771D01*
X127220057Y-54085771D01*
X127362914Y-54157200D01*
X127434342Y-54228628D01*
X127505771Y-54371485D01*
X127505771Y-54514342D01*
X127434342Y-54728628D01*
X126577200Y-55585771D01*
X127505771Y-55585771D01*
X128148628Y-55014342D02*
X129291485Y-55014342D01*
X130291485Y-54085771D02*
X130434342Y-54085771D01*
X130577200Y-54157200D01*
X130648628Y-54228628D01*
X130720057Y-54371485D01*
X130791485Y-54657200D01*
X130791485Y-55014342D01*
X130720057Y-55300057D01*
X130648628Y-55442914D01*
X130577200Y-55514342D01*
X130434342Y-55585771D01*
X130291485Y-55585771D01*
X130148628Y-55514342D01*
X130077200Y-55442914D01*
X130005771Y-55300057D01*
X129934342Y-55014342D01*
X129934342Y-54657200D01*
X130005771Y-54371485D01*
X130077200Y-54228628D01*
X130148628Y-54157200D01*
X130291485Y-54085771D01*
X131505771Y-55585771D02*
X131791485Y-55585771D01*
X131934342Y-55514342D01*
X132005771Y-55442914D01*
X132148628Y-55228628D01*
X132220057Y-54942914D01*
X132220057Y-54371485D01*
X132148628Y-54228628D01*
X132077200Y-54157200D01*
X131934342Y-54085771D01*
X131648628Y-54085771D01*
X131505771Y-54157200D01*
X131434342Y-54228628D01*
X131362914Y-54371485D01*
X131362914Y-54728628D01*
X131434342Y-54871485D01*
X131505771Y-54942914D01*
X131648628Y-55014342D01*
X131934342Y-55014342D01*
X132077200Y-54942914D01*
X132148628Y-54871485D01*
X132220057Y-54728628D01*
X132862914Y-55014342D02*
X134005771Y-55014342D01*
X135505771Y-55585771D02*
X134648628Y-55585771D01*
X135077200Y-55585771D02*
X135077200Y-54085771D01*
X134934342Y-54300057D01*
X134791485Y-54442914D01*
X134648628Y-54514342D01*
X136005771Y-54085771D02*
X136934342Y-54085771D01*
X136434342Y-54657200D01*
X136648628Y-54657200D01*
X136791485Y-54728628D01*
X136862914Y-54800057D01*
X136934342Y-54942914D01*
X136934342Y-55300057D01*
X136862914Y-55442914D01*
X136791485Y-55514342D01*
X136648628Y-55585771D01*
X136220057Y-55585771D01*
X136077200Y-55514342D01*
X136005771Y-55442914D01*
D10*
D11*
X85002200Y-56307200D02*
X193002200Y-56307200D01*
D10*
D11*
X86434342Y-58385771D02*
X86434342Y-56885771D01*
X87291485Y-58385771D02*
X86648628Y-57528628D01*
X87291485Y-56885771D02*
X86434342Y-57742914D01*
X87934342Y-58385771D02*
X87934342Y-57385771D01*
X87934342Y-56885771D02*
X87862914Y-56957200D01*
X87934342Y-57028628D01*
X88005771Y-56957200D01*
X87934342Y-56885771D01*
X87934342Y-57028628D01*
X89505771Y-58242914D02*
X89434342Y-58314342D01*
X89220057Y-58385771D01*
X89077200Y-58385771D01*
X88862914Y-58314342D01*
X88720057Y-58171485D01*
X88648628Y-58028628D01*
X88577200Y-57742914D01*
X88577200Y-57528628D01*
X88648628Y-57242914D01*
X88720057Y-57100057D01*
X88862914Y-56957200D01*
X89077200Y-56885771D01*
X89220057Y-56885771D01*
X89434342Y-56957200D01*
X89505771Y-57028628D01*
X90791485Y-58385771D02*
X90791485Y-57600057D01*
X90720057Y-57457200D01*
X90577200Y-57385771D01*
X90291485Y-57385771D01*
X90148628Y-57457200D01*
X90791485Y-58314342D02*
X90648628Y-58385771D01*
X90291485Y-58385771D01*
X90148628Y-58314342D01*
X90077200Y-58171485D01*
X90077200Y-58028628D01*
X90148628Y-57885771D01*
X90291485Y-57814342D01*
X90648628Y-57814342D01*
X90791485Y-57742914D01*
X92148628Y-58385771D02*
X92148628Y-56885771D01*
X92148628Y-58314342D02*
X92005771Y-58385771D01*
X91720057Y-58385771D01*
X91577200Y-58314342D01*
X91505771Y-58242914D01*
X91434342Y-58100057D01*
X91434342Y-57671485D01*
X91505771Y-57528628D01*
X91577200Y-57457200D01*
X91720057Y-57385771D01*
X92005771Y-57385771D01*
X92148628Y-57457200D01*
X94005771Y-57600057D02*
X94505771Y-57600057D01*
X94720057Y-58385771D02*
X94005771Y-58385771D01*
X94005771Y-56885771D01*
X94720057Y-56885771D01*
X95362914Y-58242914D02*
X95434342Y-58314342D01*
X95362914Y-58385771D01*
X95291485Y-58314342D01*
X95362914Y-58242914D01*
X95362914Y-58385771D01*
X96077200Y-58385771D02*
X96077200Y-56885771D01*
X96434342Y-56885771D01*
X96648628Y-56957200D01*
X96791485Y-57100057D01*
X96862914Y-57242914D01*
X96934342Y-57528628D01*
X96934342Y-57742914D01*
X96862914Y-58028628D01*
X96791485Y-58171485D01*
X96648628Y-58314342D01*
X96434342Y-58385771D01*
X96077200Y-58385771D01*
X97577200Y-58242914D02*
X97648628Y-58314342D01*
X97577200Y-58385771D01*
X97505771Y-58314342D01*
X97577200Y-58242914D01*
X97577200Y-58385771D01*
X98220057Y-57957200D02*
X98934342Y-57957200D01*
X98077200Y-58385771D02*
X98577200Y-56885771D01*
X99077200Y-58385771D01*
X99577200Y-58242914D02*
X99648628Y-58314342D01*
X99577200Y-58385771D01*
X99505771Y-58314342D01*
X99577200Y-58242914D01*
X99577200Y-58385771D01*
X102577200Y-58385771D02*
X102577200Y-56885771D01*
X102720057Y-57814342D02*
X103148628Y-58385771D01*
X103148628Y-57385771D02*
X102577200Y-57957200D01*
X103791485Y-58385771D02*
X103791485Y-57385771D01*
X103791485Y-56885771D02*
X103720057Y-56957200D01*
X103791485Y-57028628D01*
X103862914Y-56957200D01*
X103791485Y-56885771D01*
X103791485Y-57028628D01*
X105148628Y-58314342D02*
X105005771Y-58385771D01*
X104720057Y-58385771D01*
X104577200Y-58314342D01*
X104505771Y-58242914D01*
X104434342Y-58100057D01*
X104434342Y-57671485D01*
X104505771Y-57528628D01*
X104577200Y-57457200D01*
X104720057Y-57385771D01*
X105005771Y-57385771D01*
X105148628Y-57457200D01*
X106434342Y-58385771D02*
X106434342Y-57600057D01*
X106362914Y-57457200D01*
X106220057Y-57385771D01*
X105934342Y-57385771D01*
X105791485Y-57457200D01*
X106434342Y-58314342D02*
X106291485Y-58385771D01*
X105934342Y-58385771D01*
X105791485Y-58314342D01*
X105720057Y-58171485D01*
X105720057Y-58028628D01*
X105791485Y-57885771D01*
X105934342Y-57814342D01*
X106291485Y-57814342D01*
X106434342Y-57742914D01*
X107791485Y-58385771D02*
X107791485Y-56885771D01*
X107791485Y-58314342D02*
X107648628Y-58385771D01*
X107362914Y-58385771D01*
X107220057Y-58314342D01*
X107148628Y-58242914D01*
X107077200Y-58100057D01*
X107077200Y-57671485D01*
X107148628Y-57528628D01*
X107220057Y-57457200D01*
X107362914Y-57385771D01*
X107648628Y-57385771D01*
X107791485Y-57457200D01*
X110077200Y-58957200D02*
X110005771Y-58885771D01*
X109862914Y-58671485D01*
X109791485Y-58528628D01*
X109720057Y-58314342D01*
X109648628Y-57957200D01*
X109648628Y-57671485D01*
X109720057Y-57314342D01*
X109791485Y-57100057D01*
X109862914Y-56957200D01*
X110005771Y-56742914D01*
X110077200Y-56671485D01*
X111291485Y-56885771D02*
X111005771Y-56885771D01*
X110862914Y-56957200D01*
X110791485Y-57028628D01*
X110648628Y-57242914D01*
X110577200Y-57528628D01*
X110577200Y-58100057D01*
X110648628Y-58242914D01*
X110720057Y-58314342D01*
X110862914Y-58385771D01*
X111148628Y-58385771D01*
X111291485Y-58314342D01*
X111362914Y-58242914D01*
X111434342Y-58100057D01*
X111434342Y-57742914D01*
X111362914Y-57600057D01*
X111291485Y-57528628D01*
X111148628Y-57457200D01*
X110862914Y-57457200D01*
X110720057Y-57528628D01*
X110648628Y-57600057D01*
X110577200Y-57742914D01*
X112077200Y-58242914D02*
X112148628Y-58314342D01*
X112077200Y-58385771D01*
X112005771Y-58314342D01*
X112077200Y-58242914D01*
X112077200Y-58385771D01*
X113077200Y-56885771D02*
X113220057Y-56885771D01*
X113362914Y-56957200D01*
X113434342Y-57028628D01*
X113505771Y-57171485D01*
X113577200Y-57457200D01*
X113577200Y-57814342D01*
X113505771Y-58100057D01*
X113434342Y-58242914D01*
X113362914Y-58314342D01*
X113220057Y-58385771D01*
X113077200Y-58385771D01*
X112934342Y-58314342D01*
X112862914Y-58242914D01*
X112791485Y-58100057D01*
X112720057Y-57814342D01*
X112720057Y-57457200D01*
X112791485Y-57171485D01*
X112862914Y-57028628D01*
X112934342Y-56957200D01*
X113077200Y-56885771D01*
X114220057Y-58242914D02*
X114291485Y-58314342D01*
X114220057Y-58385771D01*
X114148628Y-58314342D01*
X114220057Y-58242914D01*
X114220057Y-58385771D01*
X115577200Y-57385771D02*
X115577200Y-58385771D01*
X115220057Y-56814342D02*
X114862914Y-57885771D01*
X115791485Y-57885771D01*
X116220057Y-58957200D02*
X116291485Y-58885771D01*
X116434342Y-58671485D01*
X116505771Y-58528628D01*
X116577200Y-58314342D01*
X116648628Y-57957200D01*
X116648628Y-57671485D01*
X116577200Y-57314342D01*
X116505771Y-57100057D01*
X116434342Y-56957200D01*
X116291485Y-56742914D01*
X116220057Y-56671485D01*
D10*
D11*
X85002200Y-53307200D02*
X193002200Y-53307200D01*
D10*
D12*
X172411485Y-55585771D02*
X171911485Y-54871485D01*
X171554342Y-55585771D02*
X171554342Y-54085771D01*
X172125771Y-54085771D01*
X172268628Y-54157200D01*
X172340057Y-54228628D01*
X172411485Y-54371485D01*
X172411485Y-54585771D01*
X172340057Y-54728628D01*
X172268628Y-54800057D01*
X172125771Y-54871485D01*
X171554342Y-54871485D01*
X173625771Y-55514342D02*
X173482914Y-55585771D01*
X173197200Y-55585771D01*
X173054342Y-55514342D01*
X172982914Y-55371485D01*
X172982914Y-54800057D01*
X173054342Y-54657200D01*
X173197200Y-54585771D01*
X173482914Y-54585771D01*
X173625771Y-54657200D01*
X173697200Y-54800057D01*
X173697200Y-54942914D01*
X172982914Y-55085771D01*
X174197200Y-54585771D02*
X174554342Y-55585771D01*
X174911485Y-54585771D01*
X175482914Y-55442914D02*
X175554342Y-55514342D01*
X175482914Y-55585771D01*
X175411485Y-55514342D01*
X175482914Y-55442914D01*
X175482914Y-55585771D01*
X175482914Y-54657200D02*
X175554342Y-54728628D01*
X175482914Y-54800057D01*
X175411485Y-54728628D01*
X175482914Y-54657200D01*
X175482914Y-54800057D01*
X177625771Y-54085771D02*
X177768628Y-54085771D01*
X177911485Y-54157200D01*
X177982914Y-54228628D01*
X178054342Y-54371485D01*
X178125771Y-54657200D01*
X178125771Y-55014342D01*
X178054342Y-55300057D01*
X177982914Y-55442914D01*
X177911485Y-55514342D01*
X177768628Y-55585771D01*
X177625771Y-55585771D01*
X177482914Y-55514342D01*
X177411485Y-55442914D01*
X177340057Y-55300057D01*
X177268628Y-55014342D01*
X177268628Y-54657200D01*
X177340057Y-54371485D01*
X177411485Y-54228628D01*
X177482914Y-54157200D01*
X177625771Y-54085771D01*
X178768628Y-55442914D02*
X178840057Y-55514342D01*
X178768628Y-55585771D01*
X178697200Y-55514342D01*
X178768628Y-55442914D01*
X178768628Y-55585771D01*
X180125771Y-54085771D02*
X179840057Y-54085771D01*
X179697200Y-54157200D01*
X179625771Y-54228628D01*
X179482914Y-54442914D01*
X179411485Y-54728628D01*
X179411485Y-55300057D01*
X179482914Y-55442914D01*
X179554342Y-55514342D01*
X179697200Y-55585771D01*
X179982914Y-55585771D01*
X180125771Y-55514342D01*
X180197200Y-55442914D01*
X180268628Y-55300057D01*
X180268628Y-54942914D01*
X180197200Y-54800057D01*
X180125771Y-54728628D01*
X179982914Y-54657200D01*
X179697200Y-54657200D01*
X179554342Y-54728628D01*
X179482914Y-54800057D01*
X179411485Y-54942914D01*
D10*
D11*
X86362914Y-55514342D02*
X86577200Y-55585771D01*
X86934342Y-55585771D01*
X87077200Y-55514342D01*
X87148628Y-55442914D01*
X87220057Y-55300057D01*
X87220057Y-55157200D01*
X87148628Y-55014342D01*
X87077200Y-54942914D01*
X86934342Y-54871485D01*
X86648628Y-54800057D01*
X86505771Y-54728628D01*
X86434342Y-54657200D01*
X86362914Y-54514342D01*
X86362914Y-54371485D01*
X86434342Y-54228628D01*
X86505771Y-54157200D01*
X86648628Y-54085771D01*
X87005771Y-54085771D01*
X87220057Y-54157200D01*
X87862914Y-55585771D02*
X87862914Y-54585771D01*
X87862914Y-54085771D02*
X87791485Y-54157200D01*
X87862914Y-54228628D01*
X87934342Y-54157200D01*
X87862914Y-54085771D01*
X87862914Y-54228628D01*
X88434342Y-54585771D02*
X89220057Y-54585771D01*
X88434342Y-55585771D01*
X89220057Y-55585771D01*
X90362914Y-55514342D02*
X90220057Y-55585771D01*
X89934342Y-55585771D01*
X89791485Y-55514342D01*
X89720057Y-55371485D01*
X89720057Y-54800057D01*
X89791485Y-54657200D01*
X89934342Y-54585771D01*
X90220057Y-54585771D01*
X90362914Y-54657200D01*
X90434342Y-54800057D01*
X90434342Y-54942914D01*
X89720057Y-55085771D01*
X91077200Y-55442914D02*
X91148628Y-55514342D01*
X91077200Y-55585771D01*
X91005771Y-55514342D01*
X91077200Y-55442914D01*
X91077200Y-55585771D01*
X91077200Y-54657200D02*
X91148628Y-54728628D01*
X91077200Y-54800057D01*
X91005771Y-54728628D01*
X91077200Y-54657200D01*
X91077200Y-54800057D01*
X92862914Y-55157200D02*
X93577200Y-55157200D01*
X92720057Y-55585771D02*
X93220057Y-54085771D01*
X93720057Y-55585771D01*
X94862914Y-54585771D02*
X94862914Y-55585771D01*
X94505771Y-54014342D02*
X94148628Y-55085771D01*
X95077200Y-55085771D01*
D10*
D11*
X171434342Y-58385771D02*
X171434342Y-56885771D01*
X172791485Y-58385771D02*
X172791485Y-56885771D01*
X172791485Y-58314342D02*
X172648628Y-58385771D01*
X172362914Y-58385771D01*
X172220057Y-58314342D01*
X172148628Y-58242914D01*
X172077200Y-58100057D01*
X172077200Y-57671485D01*
X172148628Y-57528628D01*
X172220057Y-57457200D01*
X172362914Y-57385771D01*
X172648628Y-57385771D01*
X172791485Y-57457200D01*
X173505771Y-58242914D02*
X173577200Y-58314342D01*
X173505771Y-58385771D01*
X173434342Y-58314342D01*
X173505771Y-58242914D01*
X173505771Y-58385771D01*
X173505771Y-57457200D02*
X173577200Y-57528628D01*
X173505771Y-57600057D01*
X173434342Y-57528628D01*
X173505771Y-57457200D01*
X173505771Y-57600057D01*
X176148628Y-58385771D02*
X175291485Y-58385771D01*
X175720057Y-58385771D02*
X175720057Y-56885771D01*
X175577200Y-57100057D01*
X175434342Y-57242914D01*
X175291485Y-57314342D01*
X177862914Y-56814342D02*
X176577200Y-58742914D01*
X179148628Y-58385771D02*
X178291485Y-58385771D01*
X178720057Y-58385771D02*
X178720057Y-56885771D01*
X178577200Y-57100057D01*
X178434342Y-57242914D01*
X178291485Y-57314342D01*
D10*
D11*
X85002200Y-49307200D02*
X193002200Y-49307200D01*
D10*
D13*
X86714580Y-50011961D02*
X87857438Y-50011961D01*
X87036009Y-52011961D02*
X87286009Y-50011961D01*
X88274104Y-52011961D02*
X88440771Y-50678628D01*
X88524104Y-50011961D02*
X88416961Y-50107200D01*
X88500295Y-50202438D01*
X88607438Y-50107200D01*
X88524104Y-50011961D01*
X88500295Y-50202438D01*
X89107438Y-50678628D02*
X89869342Y-50678628D01*
X89476485Y-50011961D02*
X89262200Y-51726247D01*
X89333628Y-51916723D01*
X89512200Y-52011961D01*
X89702676Y-52011961D01*
X90655057Y-52011961D02*
X90476485Y-51916723D01*
X90405057Y-51726247D01*
X90619342Y-50011961D01*
X92190771Y-51916723D02*
X91988390Y-52011961D01*
X91607438Y-52011961D01*
X91428866Y-51916723D01*
X91357438Y-51726247D01*
X91452676Y-50964342D01*
X91571723Y-50773866D01*
X91774104Y-50678628D01*
X92155057Y-50678628D01*
X92333628Y-50773866D01*
X92405057Y-50964342D01*
X92381247Y-51154819D01*
X91405057Y-51345295D01*
X93155057Y-51821485D02*
X93238390Y-51916723D01*
X93131247Y-52011961D01*
X93047914Y-51916723D01*
X93155057Y-51821485D01*
X93131247Y-52011961D01*
X93286009Y-50773866D02*
X93369342Y-50869104D01*
X93262200Y-50964342D01*
X93178866Y-50869104D01*
X93286009Y-50773866D01*
X93262200Y-50964342D01*
X95583628Y-51440533D02*
X96536009Y-51440533D01*
X95321723Y-52011961D02*
X96238390Y-50011961D01*
X96655057Y-52011961D01*
X97321723Y-52011961D02*
X97488390Y-50678628D01*
X97440771Y-51059580D02*
X97559819Y-50869104D01*
X97666961Y-50773866D01*
X97869342Y-50678628D01*
X98059819Y-50678628D01*
X99416961Y-52011961D02*
X99666961Y-50011961D01*
X99428866Y-51916723D02*
X99226485Y-52011961D01*
X98845533Y-52011961D01*
X98666961Y-51916723D01*
X98583628Y-51821485D01*
X98512200Y-51631009D01*
X98583628Y-51059580D01*
X98702676Y-50869104D01*
X98809819Y-50773866D01*
X99012200Y-50678628D01*
X99393152Y-50678628D01*
X99571723Y-50773866D01*
X101393152Y-50678628D02*
X101226485Y-52011961D01*
X100536009Y-50678628D02*
X100405057Y-51726247D01*
X100476485Y-51916723D01*
X100655057Y-52011961D01*
X100940771Y-52011961D01*
X101143152Y-51916723D01*
X101250295Y-51821485D01*
X102178866Y-52011961D02*
X102345533Y-50678628D01*
X102428866Y-50011961D02*
X102321723Y-50107200D01*
X102405057Y-50202438D01*
X102512200Y-50107200D01*
X102428866Y-50011961D01*
X102405057Y-50202438D01*
X103297914Y-50678628D02*
X103131247Y-52011961D01*
X103274104Y-50869104D02*
X103381247Y-50773866D01*
X103583628Y-50678628D01*
X103869342Y-50678628D01*
X104047914Y-50773866D01*
X104119342Y-50964342D01*
X103988390Y-52011961D01*
X105226485Y-52011961D02*
X105047914Y-51916723D01*
X104964580Y-51821485D01*
X104893152Y-51631009D01*
X104964580Y-51059580D01*
X105083628Y-50869104D01*
X105190771Y-50773866D01*
X105393152Y-50678628D01*
X105678866Y-50678628D01*
X105857438Y-50773866D01*
X105940771Y-50869104D01*
X106012200Y-51059580D01*
X105940771Y-51631009D01*
X105821723Y-51821485D01*
X105714580Y-51916723D01*
X105512200Y-52011961D01*
X105226485Y-52011961D01*
X106845533Y-51250057D02*
X108369342Y-51250057D01*
X109226485Y-52011961D02*
X109476485Y-50011961D01*
X110369342Y-52011961D01*
X110619342Y-50011961D01*
X112178866Y-52011961D02*
X112309819Y-50964342D01*
X112238390Y-50773866D01*
X112059819Y-50678628D01*
X111678866Y-50678628D01*
X111476485Y-50773866D01*
X112190771Y-51916723D02*
X111988390Y-52011961D01*
X111512200Y-52011961D01*
X111333628Y-51916723D01*
X111262200Y-51726247D01*
X111286009Y-51535771D01*
X111405057Y-51345295D01*
X111607438Y-51250057D01*
X112083628Y-51250057D01*
X112286009Y-51154819D01*
X113297914Y-50678628D02*
X113131247Y-52011961D01*
X113274104Y-50869104D02*
X113381247Y-50773866D01*
X113583628Y-50678628D01*
X113869342Y-50678628D01*
X114047914Y-50773866D01*
X114119342Y-50964342D01*
X113988390Y-52011961D01*
X115226485Y-52011961D02*
X115047914Y-51916723D01*
X114964580Y-51821485D01*
X114893152Y-51631009D01*
X114964580Y-51059580D01*
X115083628Y-50869104D01*
X115190771Y-50773866D01*
X115393152Y-50678628D01*
X115678866Y-50678628D01*
X115857438Y-50773866D01*
X115940771Y-50869104D01*
X116012200Y-51059580D01*
X115940771Y-51631009D01*
X115821723Y-51821485D01*
X115714580Y-51916723D01*
X115512200Y-52011961D01*
X115226485Y-52011961D01*
X116845533Y-51250057D02*
X118369342Y-51250057D01*
X120512200Y-50107200D02*
X120333628Y-50011961D01*
X120047914Y-50011961D01*
X119750295Y-50107200D01*
X119536009Y-50297676D01*
X119416961Y-50488152D01*
X119274104Y-50869104D01*
X119238390Y-51154819D01*
X119286009Y-51535771D01*
X119357438Y-51726247D01*
X119524104Y-51916723D01*
X119797914Y-52011961D01*
X119988390Y-52011961D01*
X120286009Y-51916723D01*
X120393152Y-51821485D01*
X120476485Y-51154819D01*
X120095533Y-51154819D01*
X122024104Y-50964342D02*
X122297914Y-51059580D01*
X122381247Y-51154819D01*
X122452676Y-51345295D01*
X122416961Y-51631009D01*
X122297914Y-51821485D01*
X122190771Y-51916723D01*
X121988390Y-52011961D01*
X121226485Y-52011961D01*
X121476485Y-50011961D01*
X122143152Y-50011961D01*
X122321723Y-50107200D01*
X122405057Y-50202438D01*
X122476485Y-50392914D01*
X122452676Y-50583390D01*
X122333628Y-50773866D01*
X122226485Y-50869104D01*
X122024104Y-50964342D01*
X121357438Y-50964342D01*
X123321723Y-51250057D02*
X124845533Y-51250057D01*
X125702676Y-52011961D02*
X125952676Y-50011961D01*
X126428866Y-50011961D01*
X126702676Y-50107200D01*
X126869342Y-50297676D01*
X126940771Y-50488152D01*
X126988390Y-50869104D01*
X126952676Y-51154819D01*
X126809819Y-51535771D01*
X126690771Y-51726247D01*
X126476485Y-51916723D01*
X126178866Y-52011961D01*
X125702676Y-52011961D01*
X128726485Y-50678628D02*
X128559819Y-52011961D01*
X127869342Y-50678628D02*
X127738390Y-51726247D01*
X127809819Y-51916723D01*
X127988390Y-52011961D01*
X128274104Y-52011961D01*
X128476485Y-51916723D01*
X128583628Y-51821485D01*
X129512200Y-52011961D02*
X129678866Y-50678628D01*
X129655057Y-50869104D02*
X129762200Y-50773866D01*
X129964580Y-50678628D01*
X130250295Y-50678628D01*
X130428866Y-50773866D01*
X130500295Y-50964342D01*
X130369342Y-52011961D01*
X130500295Y-50964342D02*
X130619342Y-50773866D01*
X130821723Y-50678628D01*
X131107438Y-50678628D01*
X131286009Y-50773866D01*
X131357438Y-50964342D01*
X131226485Y-52011961D01*
X132345533Y-50678628D02*
X132095533Y-52678628D01*
X132333628Y-50773866D02*
X132536009Y-50678628D01*
X132916961Y-50678628D01*
X133095533Y-50773866D01*
X133178866Y-50869104D01*
X133250295Y-51059580D01*
X133178866Y-51631009D01*
X133059819Y-51821485D01*
X132952676Y-51916723D01*
X132750295Y-52011961D01*
X132369342Y-52011961D01*
X132190771Y-51916723D01*
X134762200Y-51916723D02*
X134559819Y-52011961D01*
X134178866Y-52011961D01*
X134000295Y-51916723D01*
X133928866Y-51726247D01*
X134024104Y-50964342D01*
X134143152Y-50773866D01*
X134345533Y-50678628D01*
X134726485Y-50678628D01*
X134905057Y-50773866D01*
X134976485Y-50964342D01*
X134952676Y-51154819D01*
X133976485Y-51345295D01*
X135702676Y-52011961D02*
X135869342Y-50678628D01*
X135821723Y-51059580D02*
X135940771Y-50869104D01*
X136047914Y-50773866D01*
X136250295Y-50678628D01*
X136440771Y-50678628D01*
D10*
D11*
X86934342Y-47400057D02*
X86434342Y-47400057D01*
X86434342Y-48185771D02*
X86434342Y-46685771D01*
X87148628Y-46685771D01*
X87720057Y-48185771D02*
X87720057Y-47185771D01*
X87720057Y-46685771D02*
X87648628Y-46757200D01*
X87720057Y-46828628D01*
X87791485Y-46757200D01*
X87720057Y-46685771D01*
X87720057Y-46828628D01*
X88648628Y-48185771D02*
X88505771Y-48114342D01*
X88434342Y-47971485D01*
X88434342Y-46685771D01*
X89791485Y-48114342D02*
X89648628Y-48185771D01*
X89362914Y-48185771D01*
X89220057Y-48114342D01*
X89148628Y-47971485D01*
X89148628Y-47400057D01*
X89220057Y-47257200D01*
X89362914Y-47185771D01*
X89648628Y-47185771D01*
X89791485Y-47257200D01*
X89862914Y-47400057D01*
X89862914Y-47542914D01*
X89148628Y-47685771D01*
X90505771Y-48042914D02*
X90577200Y-48114342D01*
X90505771Y-48185771D01*
X90434342Y-48114342D01*
X90505771Y-48042914D01*
X90505771Y-48185771D01*
X90505771Y-47257200D02*
X90577200Y-47328628D01*
X90505771Y-47400057D01*
X90434342Y-47328628D01*
X90505771Y-47257200D01*
X90505771Y-47400057D01*
X93148628Y-46757200D02*
X93005771Y-46685771D01*
X92791485Y-46685771D01*
X92577200Y-46757200D01*
X92434342Y-46900057D01*
X92362914Y-47042914D01*
X92291485Y-47328628D01*
X92291485Y-47542914D01*
X92362914Y-47828628D01*
X92434342Y-47971485D01*
X92577200Y-48114342D01*
X92791485Y-48185771D01*
X92934342Y-48185771D01*
X93148628Y-48114342D01*
X93220057Y-48042914D01*
X93220057Y-47542914D01*
X92934342Y-47542914D01*
X94362914Y-47400057D02*
X94577200Y-47471485D01*
X94648628Y-47542914D01*
X94720057Y-47685771D01*
X94720057Y-47900057D01*
X94648628Y-48042914D01*
X94577200Y-48114342D01*
X94434342Y-48185771D01*
X93862914Y-48185771D01*
X93862914Y-46685771D01*
X94362914Y-46685771D01*
X94505771Y-46757200D01*
X94577200Y-46828628D01*
X94648628Y-46971485D01*
X94648628Y-47114342D01*
X94577200Y-47257200D01*
X94505771Y-47328628D01*
X94362914Y-47400057D01*
X93862914Y-47400057D01*
X95362914Y-47614342D02*
X96505771Y-47614342D01*
X97220057Y-48185771D02*
X97220057Y-46685771D01*
X97577200Y-46685771D01*
X97791485Y-46757200D01*
X97934342Y-46900057D01*
X98005771Y-47042914D01*
X98077200Y-47328628D01*
X98077200Y-47542914D01*
X98005771Y-47828628D01*
X97934342Y-47971485D01*
X97791485Y-48114342D01*
X97577200Y-48185771D01*
X97220057Y-48185771D01*
X99362914Y-47185771D02*
X99362914Y-48185771D01*
X98720057Y-47185771D02*
X98720057Y-47971485D01*
X98791485Y-48114342D01*
X98934342Y-48185771D01*
X99148628Y-48185771D01*
X99291485Y-48114342D01*
X99362914Y-48042914D01*
X100077200Y-48185771D02*
X100077200Y-47185771D01*
X100077200Y-47328628D02*
X100148628Y-47257200D01*
X100291485Y-47185771D01*
X100505771Y-47185771D01*
X100648628Y-47257200D01*
X100720057Y-47400057D01*
X100720057Y-48185771D01*
X100720057Y-47400057D02*
X100791485Y-47257200D01*
X100934342Y-47185771D01*
X101148628Y-47185771D01*
X101291485Y-47257200D01*
X101362914Y-47400057D01*
X101362914Y-48185771D01*
X102077200Y-47185771D02*
X102077200Y-48685771D01*
X102077200Y-47257200D02*
X102220057Y-47185771D01*
X102505771Y-47185771D01*
X102648628Y-47257200D01*
X102720057Y-47328628D01*
X102791485Y-47471485D01*
X102791485Y-47900057D01*
X102720057Y-48042914D01*
X102648628Y-48114342D01*
X102505771Y-48185771D01*
X102220057Y-48185771D01*
X102077200Y-48114342D01*
X104005771Y-48114342D02*
X103862914Y-48185771D01*
X103577200Y-48185771D01*
X103434342Y-48114342D01*
X103362914Y-47971485D01*
X103362914Y-47400057D01*
X103434342Y-47257200D01*
X103577200Y-47185771D01*
X103862914Y-47185771D01*
X104005771Y-47257200D01*
X104077200Y-47400057D01*
X104077200Y-47542914D01*
X103362914Y-47685771D01*
X104720057Y-48185771D02*
X104720057Y-47185771D01*
X104720057Y-47471485D02*
X104791485Y-47328628D01*
X104862914Y-47257200D01*
X105005771Y-47185771D01*
X105148628Y-47185771D01*
X105648628Y-48042914D02*
X105720057Y-48114342D01*
X105648628Y-48185771D01*
X105577200Y-48114342D01*
X105648628Y-48042914D01*
X105648628Y-48185771D01*
X106362914Y-48185771D02*
X106362914Y-46685771D01*
X106505771Y-47614342D02*
X106934342Y-48185771D01*
X106934342Y-47185771D02*
X106362914Y-47757200D01*
X107577200Y-48185771D02*
X107577200Y-47185771D01*
X107577200Y-46685771D02*
X107505771Y-46757200D01*
X107577200Y-46828628D01*
X107648628Y-46757200D01*
X107577200Y-46685771D01*
X107577200Y-46828628D01*
X108934342Y-48114342D02*
X108791485Y-48185771D01*
X108505771Y-48185771D01*
X108362914Y-48114342D01*
X108291485Y-48042914D01*
X108220057Y-47900057D01*
X108220057Y-47471485D01*
X108291485Y-47328628D01*
X108362914Y-47257200D01*
X108505771Y-47185771D01*
X108791485Y-47185771D01*
X108934342Y-47257200D01*
X110220057Y-48185771D02*
X110220057Y-47400057D01*
X110148628Y-47257200D01*
X110005771Y-47185771D01*
X109720057Y-47185771D01*
X109577200Y-47257200D01*
X110220057Y-48114342D02*
X110077200Y-48185771D01*
X109720057Y-48185771D01*
X109577200Y-48114342D01*
X109505771Y-47971485D01*
X109505771Y-47828628D01*
X109577200Y-47685771D01*
X109720057Y-47614342D01*
X110077200Y-47614342D01*
X110220057Y-47542914D01*
X111577200Y-48185771D02*
X111577200Y-46685771D01*
X111577200Y-48114342D02*
X111434342Y-48185771D01*
X111148628Y-48185771D01*
X111005771Y-48114342D01*
X110934342Y-48042914D01*
X110862914Y-47900057D01*
X110862914Y-47471485D01*
X110934342Y-47328628D01*
X111005771Y-47257200D01*
X111148628Y-47185771D01*
X111434342Y-47185771D01*
X111577200Y-47257200D01*
X111934342Y-48328628D02*
X113077200Y-48328628D01*
X113434342Y-47185771D02*
X113434342Y-48685771D01*
X113434342Y-47257200D02*
X113577200Y-47185771D01*
X113862914Y-47185771D01*
X114005771Y-47257200D01*
X114077200Y-47328628D01*
X114148628Y-47471485D01*
X114148628Y-47900057D01*
X114077200Y-48042914D01*
X114005771Y-48114342D01*
X113862914Y-48185771D01*
X113577200Y-48185771D01*
X113434342Y-48114342D01*
X115434342Y-48114342D02*
X115291485Y-48185771D01*
X115005771Y-48185771D01*
X114862914Y-48114342D01*
X114791485Y-48042914D01*
X114720057Y-47900057D01*
X114720057Y-47471485D01*
X114791485Y-47328628D01*
X114862914Y-47257200D01*
X115005771Y-47185771D01*
X115291485Y-47185771D01*
X115434342Y-47257200D01*
X116077200Y-48185771D02*
X116077200Y-46685771D01*
X116077200Y-47257200D02*
X116220057Y-47185771D01*
X116505771Y-47185771D01*
X116648628Y-47257200D01*
X116720057Y-47328628D01*
X116791485Y-47471485D01*
X116791485Y-47900057D01*
X116720057Y-48042914D01*
X116648628Y-48114342D01*
X116505771Y-48185771D01*
X116220057Y-48185771D01*
X116077200Y-48114342D01*
D10*
D11*
X85002200Y-43307200D02*
X193002200Y-43307200D01*
D10*
D11*
X86362914Y-45414342D02*
X86577200Y-45485771D01*
X86934342Y-45485771D01*
X87077200Y-45414342D01*
X87148628Y-45342914D01*
X87220057Y-45200057D01*
X87220057Y-45057200D01*
X87148628Y-44914342D01*
X87077200Y-44842914D01*
X86934342Y-44771485D01*
X86648628Y-44700057D01*
X86505771Y-44628628D01*
X86434342Y-44557200D01*
X86362914Y-44414342D01*
X86362914Y-44271485D01*
X86434342Y-44128628D01*
X86505771Y-44057200D01*
X86648628Y-43985771D01*
X87005771Y-43985771D01*
X87220057Y-44057200D01*
X87862914Y-45485771D02*
X87862914Y-43985771D01*
X88505771Y-45485771D02*
X88505771Y-44700057D01*
X88434342Y-44557200D01*
X88291485Y-44485771D01*
X88077200Y-44485771D01*
X87934342Y-44557200D01*
X87862914Y-44628628D01*
X89791485Y-45414342D02*
X89648628Y-45485771D01*
X89362914Y-45485771D01*
X89220057Y-45414342D01*
X89148628Y-45271485D01*
X89148628Y-44700057D01*
X89220057Y-44557200D01*
X89362914Y-44485771D01*
X89648628Y-44485771D01*
X89791485Y-44557200D01*
X89862914Y-44700057D01*
X89862914Y-44842914D01*
X89148628Y-44985771D01*
X91077200Y-45414342D02*
X90934342Y-45485771D01*
X90648628Y-45485771D01*
X90505771Y-45414342D01*
X90434342Y-45271485D01*
X90434342Y-44700057D01*
X90505771Y-44557200D01*
X90648628Y-44485771D01*
X90934342Y-44485771D01*
X91077200Y-44557200D01*
X91148628Y-44700057D01*
X91148628Y-44842914D01*
X90434342Y-44985771D01*
X91577200Y-44485771D02*
X92148628Y-44485771D01*
X91791485Y-43985771D02*
X91791485Y-45271485D01*
X91862914Y-45414342D01*
X92005771Y-45485771D01*
X92148628Y-45485771D01*
X92648628Y-45342914D02*
X92720057Y-45414342D01*
X92648628Y-45485771D01*
X92577200Y-45414342D01*
X92648628Y-45342914D01*
X92648628Y-45485771D01*
X92648628Y-44557200D02*
X92720057Y-44628628D01*
X92648628Y-44700057D01*
X92577200Y-44628628D01*
X92648628Y-44557200D01*
X92648628Y-44700057D01*
D10*
D12*
X86982914Y-43057200D02*
X86911485Y-42985771D01*
X86768628Y-42771485D01*
X86697200Y-42628628D01*
X86625771Y-42414342D01*
X86554342Y-42057200D01*
X86554342Y-41771485D01*
X86625771Y-41414342D01*
X86697200Y-41200057D01*
X86768628Y-41057200D01*
X86911485Y-40842914D01*
X86982914Y-40771485D01*
X88411485Y-42342914D02*
X88340057Y-42414342D01*
X88125771Y-42485771D01*
X87982914Y-42485771D01*
X87768628Y-42414342D01*
X87625771Y-42271485D01*
X87554342Y-42128628D01*
X87482914Y-41842914D01*
X87482914Y-41628628D01*
X87554342Y-41342914D01*
X87625771Y-41200057D01*
X87768628Y-41057200D01*
X87982914Y-40985771D01*
X88125771Y-40985771D01*
X88340057Y-41057200D01*
X88411485Y-41128628D01*
X88911485Y-43057200D02*
X88982914Y-42985771D01*
X89125771Y-42771485D01*
X89197200Y-42628628D01*
X89268628Y-42414342D01*
X89340057Y-42057200D01*
X89340057Y-41771485D01*
X89268628Y-41414342D01*
X89197200Y-41200057D01*
X89125771Y-41057200D01*
X88982914Y-40842914D01*
X88911485Y-40771485D01*
X91054342Y-40985771D02*
X91411485Y-42485771D01*
X91697200Y-41414342D01*
X91982914Y-42485771D01*
X92340057Y-40985771D01*
X93125771Y-42485771D02*
X92982914Y-42414342D01*
X92911485Y-42342914D01*
X92840057Y-42200057D01*
X92840057Y-41771485D01*
X92911485Y-41628628D01*
X92982914Y-41557200D01*
X93125771Y-41485771D01*
X93340057Y-41485771D01*
X93482914Y-41557200D01*
X93554342Y-41628628D01*
X93625771Y-41771485D01*
X93625771Y-42200057D01*
X93554342Y-42342914D01*
X93482914Y-42414342D01*
X93340057Y-42485771D01*
X93125771Y-42485771D01*
X94911485Y-42485771D02*
X94911485Y-40985771D01*
X94911485Y-42414342D02*
X94768628Y-42485771D01*
X94482914Y-42485771D01*
X94340057Y-42414342D01*
X94268628Y-42342914D01*
X94197200Y-42200057D01*
X94197200Y-41771485D01*
X94268628Y-41628628D01*
X94340057Y-41557200D01*
X94482914Y-41485771D01*
X94768628Y-41485771D01*
X94911485Y-41557200D01*
X95840057Y-42485771D02*
X95697200Y-42414342D01*
X95625771Y-42342914D01*
X95554342Y-42200057D01*
X95554342Y-41771485D01*
X95625771Y-41628628D01*
X95697200Y-41557200D01*
X95840057Y-41485771D01*
X96054342Y-41485771D01*
X96197200Y-41557200D01*
X96268628Y-41628628D01*
X96340057Y-41771485D01*
X96340057Y-42200057D01*
X96268628Y-42342914D01*
X96197200Y-42414342D01*
X96054342Y-42485771D01*
X95840057Y-42485771D01*
X96840057Y-40985771D02*
X97197200Y-42485771D01*
X97482914Y-41414342D01*
X97768628Y-42485771D01*
X98125771Y-40985771D01*
X98697200Y-42485771D02*
X98697200Y-41485771D01*
X98697200Y-40985771D02*
X98625771Y-41057200D01*
X98697200Y-41128628D01*
X98768628Y-41057200D01*
X98697200Y-40985771D01*
X98697200Y-41128628D01*
X99982914Y-42414342D02*
X99840057Y-42485771D01*
X99554342Y-42485771D01*
X99411485Y-42414342D01*
X99340057Y-42271485D01*
X99340057Y-41700057D01*
X99411485Y-41557200D01*
X99554342Y-41485771D01*
X99840057Y-41485771D01*
X99982914Y-41557200D01*
X100054342Y-41700057D01*
X100054342Y-41842914D01*
X99340057Y-41985771D01*
X100625771Y-42414342D02*
X100768628Y-42485771D01*
X101054342Y-42485771D01*
X101197200Y-42414342D01*
X101268628Y-42271485D01*
X101268628Y-42200057D01*
X101197200Y-42057200D01*
X101054342Y-41985771D01*
X100840057Y-41985771D01*
X100697200Y-41914342D01*
X100625771Y-41771485D01*
X100625771Y-41700057D01*
X100697200Y-41557200D01*
X100840057Y-41485771D01*
X101054342Y-41485771D01*
X101197200Y-41557200D01*
X102482914Y-42414342D02*
X102340057Y-42485771D01*
X102054342Y-42485771D01*
X101911485Y-42414342D01*
X101840057Y-42271485D01*
X101840057Y-41700057D01*
X101911485Y-41557200D01*
X102054342Y-41485771D01*
X102340057Y-41485771D01*
X102482914Y-41557200D01*
X102554342Y-41700057D01*
X102554342Y-41842914D01*
X101840057Y-41985771D01*
X103411485Y-42485771D02*
X103268628Y-42414342D01*
X103197200Y-42271485D01*
X103197200Y-40985771D01*
D10*
D11*
D10*
D11*
D10*
D11*
D10*
D11*
D10*
D11*
X105002200Y-53307200D02*
X105002200Y-56307200D01*
D10*
D11*
X169002200Y-53307200D02*
X169002200Y-59807200D01*
D14*
X89356000Y72000000D02*
X89356000Y24000D01*
X-100000Y72000000D02*
X89356000Y72000000D01*
X0Y0D02*
X-100000Y72000000D01*
X89356000Y24000D02*
X0Y0D01*
X1666666Y0D02*
G75*
G03*
X1666666Y0I-1666666J0D01*
G01*
X-2500000Y0D02*
X2500000Y0D01*
X0Y2500000D02*
X0Y-2500000D01*
D11*
%TO.C,J1*%
X82760000Y26258858D02*
X82712380Y26163620D01*
X82712380Y26020762D01*
X82760000Y25877905D01*
X82855238Y25782667D01*
X82950476Y25735048D01*
X83140952Y25687429D01*
X83283809Y25687429D01*
X83474285Y25735048D01*
X83569523Y25782667D01*
X83664761Y25877905D01*
X83712380Y26020762D01*
X83712380Y26116000D01*
X83664761Y26258858D01*
X83617142Y26306477D01*
X83283809Y26306477D01*
X83283809Y26116000D01*
X83712380Y27163620D02*
X83188571Y27163620D01*
X83093333Y27116000D01*
X83045714Y27020762D01*
X83045714Y26830286D01*
X83093333Y26735048D01*
X83664761Y27163620D02*
X83712380Y27068381D01*
X83712380Y26830286D01*
X83664761Y26735048D01*
X83569523Y26687429D01*
X83474285Y26687429D01*
X83379047Y26735048D01*
X83331428Y26830286D01*
X83331428Y27068381D01*
X83283809Y27163620D01*
X83712380Y27639810D02*
X83045714Y27639810D01*
X83140952Y27639810D02*
X83093333Y27687429D01*
X83045714Y27782667D01*
X83045714Y27925524D01*
X83093333Y28020762D01*
X83188571Y28068381D01*
X83712380Y28068381D01*
X83188571Y28068381D02*
X83093333Y28116000D01*
X83045714Y28211239D01*
X83045714Y28354096D01*
X83093333Y28449334D01*
X83188571Y28496953D01*
X83712380Y28496953D01*
X83664761Y29354096D02*
X83712380Y29258858D01*
X83712380Y29068381D01*
X83664761Y28973143D01*
X83569523Y28925524D01*
X83188571Y28925524D01*
X83093333Y28973143D01*
X83045714Y29068381D01*
X83045714Y29258858D01*
X83093333Y29354096D01*
X83188571Y29401715D01*
X83283809Y29401715D01*
X83379047Y28925524D01*
X83188571Y30163620D02*
X83236190Y30306477D01*
X83283809Y30354096D01*
X83379047Y30401715D01*
X83521904Y30401715D01*
X83617142Y30354096D01*
X83664761Y30306477D01*
X83712380Y30211239D01*
X83712380Y29830286D01*
X82712380Y29830286D01*
X82712380Y30163620D01*
X82760000Y30258858D01*
X82807619Y30306477D01*
X82902857Y30354096D01*
X82998095Y30354096D01*
X83093333Y30306477D01*
X83140952Y30258858D01*
X83188571Y30163620D01*
X83188571Y29830286D01*
X83712380Y30973143D02*
X83664761Y30877905D01*
X83617142Y30830286D01*
X83521904Y30782667D01*
X83236190Y30782667D01*
X83140952Y30830286D01*
X83093333Y30877905D01*
X83045714Y30973143D01*
X83045714Y31116000D01*
X83093333Y31211239D01*
X83140952Y31258858D01*
X83236190Y31306477D01*
X83521904Y31306477D01*
X83617142Y31258858D01*
X83664761Y31211239D01*
X83712380Y31116000D01*
X83712380Y30973143D01*
X83045714Y31639810D02*
X83712380Y31877905D01*
X83045714Y32116000D02*
X83712380Y31877905D01*
X83950476Y31782667D01*
X83998095Y31735048D01*
X84045714Y31639810D01*
X83807619Y32258858D02*
X83807619Y33020762D01*
X83617142Y33830286D02*
X83664761Y33782667D01*
X83712380Y33639810D01*
X83712380Y33544572D01*
X83664761Y33401715D01*
X83569523Y33306477D01*
X83474285Y33258858D01*
X83283809Y33211239D01*
X83140952Y33211239D01*
X82950476Y33258858D01*
X82855238Y33306477D01*
X82760000Y33401715D01*
X82712380Y33544572D01*
X82712380Y33639810D01*
X82760000Y33782667D01*
X82807619Y33830286D01*
X83712380Y34687429D02*
X83188571Y34687429D01*
X83093333Y34639810D01*
X83045714Y34544572D01*
X83045714Y34354096D01*
X83093333Y34258858D01*
X83664761Y34687429D02*
X83712380Y34592191D01*
X83712380Y34354096D01*
X83664761Y34258858D01*
X83569523Y34211239D01*
X83474285Y34211239D01*
X83379047Y34258858D01*
X83331428Y34354096D01*
X83331428Y34592191D01*
X83283809Y34687429D01*
X83712380Y35163620D02*
X83045714Y35163620D01*
X83236190Y35163620D02*
X83140952Y35211239D01*
X83093333Y35258858D01*
X83045714Y35354096D01*
X83045714Y35449334D01*
X83045714Y35639810D02*
X83045714Y36020762D01*
X82712380Y35782667D02*
X83569523Y35782667D01*
X83664761Y35830286D01*
X83712380Y35925524D01*
X83712380Y36020762D01*
X83712380Y36354096D02*
X83045714Y36354096D01*
X83236190Y36354096D02*
X83140952Y36401715D01*
X83093333Y36449334D01*
X83045714Y36544572D01*
X83045714Y36639810D01*
X83712380Y36973143D02*
X83045714Y36973143D01*
X82712380Y36973143D02*
X82760000Y36925524D01*
X82807619Y36973143D01*
X82760000Y37020762D01*
X82712380Y36973143D01*
X82807619Y36973143D01*
X83712380Y37877905D02*
X82712380Y37877905D01*
X83664761Y37877905D02*
X83712380Y37782667D01*
X83712380Y37592191D01*
X83664761Y37496953D01*
X83617142Y37449334D01*
X83521904Y37401715D01*
X83236190Y37401715D01*
X83140952Y37449334D01*
X83093333Y37496953D01*
X83045714Y37592191D01*
X83045714Y37782667D01*
X83093333Y37877905D01*
X83045714Y38782667D02*
X83855238Y38782667D01*
X83950476Y38735048D01*
X83998095Y38687429D01*
X84045714Y38592191D01*
X84045714Y38449334D01*
X83998095Y38354096D01*
X83664761Y38782667D02*
X83712380Y38687429D01*
X83712380Y38496953D01*
X83664761Y38401715D01*
X83617142Y38354096D01*
X83521904Y38306477D01*
X83236190Y38306477D01*
X83140952Y38354096D01*
X83093333Y38401715D01*
X83045714Y38496953D01*
X83045714Y38687429D01*
X83093333Y38782667D01*
X83664761Y39639810D02*
X83712380Y39544572D01*
X83712380Y39354096D01*
X83664761Y39258858D01*
X83569523Y39211239D01*
X83188571Y39211239D01*
X83093333Y39258858D01*
X83045714Y39354096D01*
X83045714Y39544572D01*
X83093333Y39639810D01*
X83188571Y39687429D01*
X83283809Y39687429D01*
X83379047Y39211239D01*
X83807619Y39877905D02*
X83807619Y40639810D01*
X83712380Y40877905D02*
X82712380Y40877905D01*
X83426666Y41211239D01*
X82712380Y41544572D01*
X83712380Y41544572D01*
X83712380Y42163620D02*
X83664761Y42068381D01*
X83617142Y42020762D01*
X83521904Y41973143D01*
X83236190Y41973143D01*
X83140952Y42020762D01*
X83093333Y42068381D01*
X83045714Y42163620D01*
X83045714Y42306477D01*
X83093333Y42401715D01*
X83140952Y42449334D01*
X83236190Y42496953D01*
X83521904Y42496953D01*
X83617142Y42449334D01*
X83664761Y42401715D01*
X83712380Y42306477D01*
X83712380Y42163620D01*
X83045714Y43354096D02*
X83712380Y43354096D01*
X83045714Y42925524D02*
X83569523Y42925524D01*
X83664761Y42973143D01*
X83712380Y43068381D01*
X83712380Y43211239D01*
X83664761Y43306477D01*
X83617142Y43354096D01*
X83045714Y43830286D02*
X83712380Y43830286D01*
X83140952Y43830286D02*
X83093333Y43877905D01*
X83045714Y43973143D01*
X83045714Y44116000D01*
X83093333Y44211239D01*
X83188571Y44258858D01*
X83712380Y44258858D01*
X83045714Y44592191D02*
X83045714Y44973143D01*
X82712380Y44735048D02*
X83569523Y44735048D01*
X83664761Y44782667D01*
X83712380Y44877905D01*
X83712380Y44973143D01*
X83712380Y45306477D02*
X83045714Y45306477D01*
X82712380Y45306477D02*
X82760000Y45258858D01*
X82807619Y45306477D01*
X82760000Y45354096D01*
X82712380Y45306477D01*
X82807619Y45306477D01*
X83045714Y45782667D02*
X83712380Y45782667D01*
X83140952Y45782667D02*
X83093333Y45830286D01*
X83045714Y45925524D01*
X83045714Y46068381D01*
X83093333Y46163620D01*
X83188571Y46211239D01*
X83712380Y46211239D01*
X83045714Y47116000D02*
X83855238Y47116000D01*
X83950476Y47068381D01*
X83998095Y47020762D01*
X84045714Y46925524D01*
X84045714Y46782667D01*
X83998095Y46687429D01*
X83664761Y47116000D02*
X83712380Y47020762D01*
X83712380Y46830286D01*
X83664761Y46735048D01*
X83617142Y46687429D01*
X83521904Y46639810D01*
X83236190Y46639810D01*
X83140952Y46687429D01*
X83093333Y46735048D01*
X83045714Y46830286D01*
X83045714Y47020762D01*
X83093333Y47116000D01*
X83712380Y47592191D02*
X82712380Y47592191D01*
X82712380Y47973143D01*
X82760000Y48068381D01*
X82807619Y48116000D01*
X82902857Y48163620D01*
X83045714Y48163620D01*
X83140952Y48116000D01*
X83188571Y48068381D01*
X83236190Y47973143D01*
X83236190Y47592191D01*
X83712380Y48592191D02*
X83045714Y48592191D01*
X82712380Y48592191D02*
X82760000Y48544572D01*
X82807619Y48592191D01*
X82760000Y48639810D01*
X82712380Y48592191D01*
X82807619Y48592191D01*
X83045714Y49068381D02*
X83712380Y49068381D01*
X83140952Y49068381D02*
X83093333Y49116000D01*
X83045714Y49211239D01*
X83045714Y49354096D01*
X83093333Y49449334D01*
X83188571Y49496953D01*
X83712380Y49496953D01*
X64932380Y64206667D02*
X65646666Y64206667D01*
X65789523Y64159048D01*
X65884761Y64063810D01*
X65932380Y63920953D01*
X65932380Y63825715D01*
X65932380Y65206667D02*
X65932380Y64635239D01*
X65932380Y64920953D02*
X64932380Y64920953D01*
X65075238Y64825715D01*
X65170476Y64730477D01*
X65218095Y64635239D01*
%TO.C,J3*%
X70857142Y1116667D02*
X70904761Y1069048D01*
X70952380Y926191D01*
X70952380Y830953D01*
X70904761Y688096D01*
X70809523Y592858D01*
X70714285Y545239D01*
X70523809Y497620D01*
X70380952Y497620D01*
X70190476Y545239D01*
X70095238Y592858D01*
X70000000Y688096D01*
X69952380Y830953D01*
X69952380Y926191D01*
X70000000Y1069048D01*
X70047619Y1116667D01*
X70952380Y1688096D02*
X70904761Y1592858D01*
X70857142Y1545239D01*
X70761904Y1497620D01*
X70476190Y1497620D01*
X70380952Y1545239D01*
X70333333Y1592858D01*
X70285714Y1688096D01*
X70285714Y1830953D01*
X70333333Y1926191D01*
X70380952Y1973810D01*
X70476190Y2021429D01*
X70761904Y2021429D01*
X70857142Y1973810D01*
X70904761Y1926191D01*
X70952380Y1830953D01*
X70952380Y1688096D01*
X70285714Y2450000D02*
X70952380Y2450000D01*
X70380952Y2450000D02*
X70333333Y2497620D01*
X70285714Y2592858D01*
X70285714Y2735715D01*
X70333333Y2830953D01*
X70428571Y2878572D01*
X70952380Y2878572D01*
X70285714Y3354762D02*
X70952380Y3354762D01*
X70380952Y3354762D02*
X70333333Y3402381D01*
X70285714Y3497620D01*
X70285714Y3640477D01*
X70333333Y3735715D01*
X70428571Y3783334D01*
X70952380Y3783334D01*
X71047619Y4021429D02*
X71047619Y4783334D01*
X69952380Y5211905D02*
X69952380Y5307143D01*
X70000000Y5402381D01*
X70047619Y5450000D01*
X70142857Y5497620D01*
X70333333Y5545239D01*
X70571428Y5545239D01*
X70761904Y5497620D01*
X70857142Y5450000D01*
X70904761Y5402381D01*
X70952380Y5307143D01*
X70952380Y5211905D01*
X70904761Y5116667D01*
X70857142Y5069048D01*
X70761904Y5021429D01*
X70571428Y4973810D01*
X70333333Y4973810D01*
X70142857Y5021429D01*
X70047619Y5069048D01*
X70000000Y5116667D01*
X69952380Y5211905D01*
X70952380Y6497620D02*
X70952380Y5926191D01*
X70952380Y6211905D02*
X69952380Y6211905D01*
X70095238Y6116667D01*
X70190476Y6021429D01*
X70238095Y5926191D01*
X70952380Y6830953D02*
X70285714Y7354762D01*
X70285714Y6830953D02*
X70952380Y7354762D01*
X69952380Y7926191D02*
X69952380Y8021429D01*
X70000000Y8116667D01*
X70047619Y8164286D01*
X70142857Y8211905D01*
X70333333Y8259524D01*
X70571428Y8259524D01*
X70761904Y8211905D01*
X70857142Y8164286D01*
X70904761Y8116667D01*
X70952380Y8021429D01*
X70952380Y7926191D01*
X70904761Y7830953D01*
X70857142Y7783334D01*
X70761904Y7735715D01*
X70571428Y7688096D01*
X70333333Y7688096D01*
X70142857Y7735715D01*
X70047619Y7783334D01*
X70000000Y7830953D01*
X69952380Y7926191D01*
X70047619Y8640477D02*
X70000000Y8688096D01*
X69952380Y8783334D01*
X69952380Y9021429D01*
X70000000Y9116667D01*
X70047619Y9164286D01*
X70142857Y9211905D01*
X70238095Y9211905D01*
X70380952Y9164286D01*
X70952380Y8592858D01*
X70952380Y9211905D01*
X71047619Y9402381D02*
X71047619Y10164286D01*
X70952380Y10402381D02*
X69952380Y10402381D01*
X70666666Y10735715D01*
X69952380Y11069048D01*
X70952380Y11069048D01*
X70952380Y11973810D02*
X70428571Y11973810D01*
X70333333Y11926191D01*
X70285714Y11830953D01*
X70285714Y11640477D01*
X70333333Y11545239D01*
X70904761Y11973810D02*
X70952380Y11878572D01*
X70952380Y11640477D01*
X70904761Y11545239D01*
X70809523Y11497620D01*
X70714285Y11497620D01*
X70619047Y11545239D01*
X70571428Y11640477D01*
X70571428Y11878572D01*
X70523809Y11973810D01*
X70952380Y12592858D02*
X70904761Y12497620D01*
X70809523Y12450000D01*
X69952380Y12450000D01*
X70904761Y13354762D02*
X70952380Y13259524D01*
X70952380Y13069048D01*
X70904761Y12973810D01*
X70809523Y12926191D01*
X70428571Y12926191D01*
X70333333Y12973810D01*
X70285714Y13069048D01*
X70285714Y13259524D01*
X70333333Y13354762D01*
X70428571Y13402381D01*
X70523809Y13402381D01*
X70619047Y12926191D01*
X59761666Y2947620D02*
X59761666Y2233334D01*
X59714047Y2090477D01*
X59618809Y1995239D01*
X59475952Y1947620D01*
X59380714Y1947620D01*
X60142619Y2947620D02*
X60761666Y2947620D01*
X60428333Y2566667D01*
X60571190Y2566667D01*
X60666428Y2519048D01*
X60714047Y2471429D01*
X60761666Y2376191D01*
X60761666Y2138096D01*
X60714047Y2042858D01*
X60666428Y1995239D01*
X60571190Y1947620D01*
X60285476Y1947620D01*
X60190238Y1995239D01*
X60142619Y2042858D01*
%TO.C,U2*%
X30214095Y39433620D02*
X30880761Y39433620D01*
X30452190Y38433620D01*
X31690285Y39100286D02*
X31690285Y38433620D01*
X31452190Y39481239D02*
X31214095Y38766953D01*
X31833142Y38766953D01*
X32214095Y38433620D02*
X32214095Y39433620D01*
X32214095Y38957429D02*
X32785523Y38957429D01*
X32785523Y38433620D02*
X32785523Y39433620D01*
X33833142Y38528858D02*
X33785523Y38481239D01*
X33642666Y38433620D01*
X33547428Y38433620D01*
X33404571Y38481239D01*
X33309333Y38576477D01*
X33261714Y38671715D01*
X33214095Y38862191D01*
X33214095Y39005048D01*
X33261714Y39195524D01*
X33309333Y39290762D01*
X33404571Y39386000D01*
X33547428Y39433620D01*
X33642666Y39433620D01*
X33785523Y39386000D01*
X33833142Y39338381D01*
X34737904Y39433620D02*
X34261714Y39433620D01*
X34214095Y38957429D01*
X34261714Y39005048D01*
X34356952Y39052667D01*
X34595047Y39052667D01*
X34690285Y39005048D01*
X34737904Y38957429D01*
X34785523Y38862191D01*
X34785523Y38624096D01*
X34737904Y38528858D01*
X34690285Y38481239D01*
X34595047Y38433620D01*
X34356952Y38433620D01*
X34261714Y38481239D01*
X34214095Y38528858D01*
X35261714Y38433620D02*
X35452190Y38433620D01*
X35547428Y38481239D01*
X35595047Y38528858D01*
X35690285Y38671715D01*
X35737904Y38862191D01*
X35737904Y39243143D01*
X35690285Y39338381D01*
X35642666Y39386000D01*
X35547428Y39433620D01*
X35356952Y39433620D01*
X35261714Y39386000D01*
X35214095Y39338381D01*
X35166476Y39243143D01*
X35166476Y39005048D01*
X35214095Y38909810D01*
X35261714Y38862191D01*
X35356952Y38814572D01*
X35547428Y38814572D01*
X35642666Y38862191D01*
X35690285Y38909810D01*
X35737904Y39005048D01*
X36642666Y39433620D02*
X36166476Y39433620D01*
X36118857Y38957429D01*
X36166476Y39005048D01*
X36261714Y39052667D01*
X36499809Y39052667D01*
X36595047Y39005048D01*
X36642666Y38957429D01*
X36690285Y38862191D01*
X36690285Y38624096D01*
X36642666Y38528858D01*
X36595047Y38481239D01*
X36499809Y38433620D01*
X36261714Y38433620D01*
X36166476Y38481239D01*
X36118857Y38528858D01*
X50962380Y36092096D02*
X51771904Y36092096D01*
X51867142Y36139715D01*
X51914761Y36187334D01*
X51962380Y36282572D01*
X51962380Y36473048D01*
X51914761Y36568286D01*
X51867142Y36615905D01*
X51771904Y36663524D01*
X50962380Y36663524D01*
X51057619Y37092096D02*
X51010000Y37139715D01*
X50962380Y37234953D01*
X50962380Y37473048D01*
X51010000Y37568286D01*
X51057619Y37615905D01*
X51152857Y37663524D01*
X51248095Y37663524D01*
X51390952Y37615905D01*
X51962380Y37044477D01*
X51962380Y37663524D01*
%TO.C,R1*%
X58791714Y61596096D02*
X59458380Y61596096D01*
X58410761Y61358000D02*
X59125047Y61119905D01*
X59125047Y61738953D01*
X58458380Y62024667D02*
X58458380Y62691334D01*
X59458380Y62262762D01*
X58458380Y63262762D02*
X58458380Y63358000D01*
X58506000Y63453239D01*
X58553619Y63500858D01*
X58648857Y63548477D01*
X58839333Y63596096D01*
X59077428Y63596096D01*
X59267904Y63548477D01*
X59363142Y63500858D01*
X59410761Y63453239D01*
X59458380Y63358000D01*
X59458380Y63262762D01*
X59410761Y63167524D01*
X59363142Y63119905D01*
X59267904Y63072286D01*
X59077428Y63024667D01*
X58839333Y63024667D01*
X58648857Y63072286D01*
X58553619Y63119905D01*
X58506000Y63167524D01*
X58458380Y63262762D01*
D15*
X57631714Y61980000D02*
X57288857Y61740000D01*
X57631714Y61568572D02*
X56911714Y61568572D01*
X56911714Y61842858D01*
X56946000Y61911429D01*
X56980285Y61945715D01*
X57048857Y61980000D01*
X57151714Y61980000D01*
X57220285Y61945715D01*
X57254571Y61911429D01*
X57288857Y61842858D01*
X57288857Y61568572D01*
X57631714Y62665715D02*
X57631714Y62254286D01*
X57631714Y62460000D02*
X56911714Y62460000D01*
X57014571Y62391429D01*
X57083142Y62322858D01*
X57117428Y62254286D01*
D11*
%TO.C,J4*%
X55857142Y8814286D02*
X55904761Y8766667D01*
X55952380Y8623810D01*
X55952380Y8528572D01*
X55904761Y8385715D01*
X55809523Y8290477D01*
X55714285Y8242858D01*
X55523809Y8195239D01*
X55380952Y8195239D01*
X55190476Y8242858D01*
X55095238Y8290477D01*
X55000000Y8385715D01*
X54952380Y8528572D01*
X54952380Y8623810D01*
X55000000Y8766667D01*
X55047619Y8814286D01*
X55952380Y9385715D02*
X55904761Y9290477D01*
X55857142Y9242858D01*
X55761904Y9195239D01*
X55476190Y9195239D01*
X55380952Y9242858D01*
X55333333Y9290477D01*
X55285714Y9385715D01*
X55285714Y9528572D01*
X55333333Y9623810D01*
X55380952Y9671429D01*
X55476190Y9719048D01*
X55761904Y9719048D01*
X55857142Y9671429D01*
X55904761Y9623810D01*
X55952380Y9528572D01*
X55952380Y9385715D01*
X55285714Y10147620D02*
X55952380Y10147620D01*
X55380952Y10147620D02*
X55333333Y10195239D01*
X55285714Y10290477D01*
X55285714Y10433334D01*
X55333333Y10528572D01*
X55428571Y10576191D01*
X55952380Y10576191D01*
X55285714Y11052381D02*
X55952380Y11052381D01*
X55380952Y11052381D02*
X55333333Y11100000D01*
X55285714Y11195239D01*
X55285714Y11338096D01*
X55333333Y11433334D01*
X55428571Y11480953D01*
X55952380Y11480953D01*
X56047619Y11719048D02*
X56047619Y12480953D01*
X54952380Y12909524D02*
X54952380Y13004762D01*
X55000000Y13100000D01*
X55047619Y13147620D01*
X55142857Y13195239D01*
X55333333Y13242858D01*
X55571428Y13242858D01*
X55761904Y13195239D01*
X55857142Y13147620D01*
X55904761Y13100000D01*
X55952380Y13004762D01*
X55952380Y12909524D01*
X55904761Y12814286D01*
X55857142Y12766667D01*
X55761904Y12719048D01*
X55571428Y12671429D01*
X55333333Y12671429D01*
X55142857Y12719048D01*
X55047619Y12766667D01*
X55000000Y12814286D01*
X54952380Y12909524D01*
X55952380Y14195239D02*
X55952380Y13623810D01*
X55952380Y13909524D02*
X54952380Y13909524D01*
X55095238Y13814286D01*
X55190476Y13719048D01*
X55238095Y13623810D01*
X55952380Y14528572D02*
X55285714Y15052381D01*
X55285714Y14528572D02*
X55952380Y15052381D01*
X54952380Y15623810D02*
X54952380Y15719048D01*
X55000000Y15814286D01*
X55047619Y15861905D01*
X55142857Y15909524D01*
X55333333Y15957143D01*
X55571428Y15957143D01*
X55761904Y15909524D01*
X55857142Y15861905D01*
X55904761Y15814286D01*
X55952380Y15719048D01*
X55952380Y15623810D01*
X55904761Y15528572D01*
X55857142Y15480953D01*
X55761904Y15433334D01*
X55571428Y15385715D01*
X55333333Y15385715D01*
X55142857Y15433334D01*
X55047619Y15480953D01*
X55000000Y15528572D01*
X54952380Y15623810D01*
X55285714Y16814286D02*
X55952380Y16814286D01*
X54904761Y16576191D02*
X55619047Y16338096D01*
X55619047Y16957143D01*
X56047619Y17100000D02*
X56047619Y17861905D01*
X55428571Y18433334D02*
X55428571Y18100000D01*
X55952380Y18100000D02*
X54952380Y18100000D01*
X54952380Y18576191D01*
X55904761Y19338096D02*
X55952380Y19242858D01*
X55952380Y19052381D01*
X55904761Y18957143D01*
X55809523Y18909524D01*
X55428571Y18909524D01*
X55333333Y18957143D01*
X55285714Y19052381D01*
X55285714Y19242858D01*
X55333333Y19338096D01*
X55428571Y19385715D01*
X55523809Y19385715D01*
X55619047Y18909524D01*
X55952380Y19814286D02*
X55285714Y19814286D01*
X55380952Y19814286D02*
X55333333Y19861905D01*
X55285714Y19957143D01*
X55285714Y20100000D01*
X55333333Y20195239D01*
X55428571Y20242858D01*
X55952380Y20242858D01*
X55428571Y20242858D02*
X55333333Y20290477D01*
X55285714Y20385715D01*
X55285714Y20528572D01*
X55333333Y20623810D01*
X55428571Y20671429D01*
X55952380Y20671429D01*
X55952380Y21576191D02*
X55428571Y21576191D01*
X55333333Y21528572D01*
X55285714Y21433334D01*
X55285714Y21242858D01*
X55333333Y21147620D01*
X55904761Y21576191D02*
X55952380Y21480953D01*
X55952380Y21242858D01*
X55904761Y21147620D01*
X55809523Y21100000D01*
X55714285Y21100000D01*
X55619047Y21147620D01*
X55571428Y21242858D01*
X55571428Y21480953D01*
X55523809Y21576191D01*
X55952380Y22195239D02*
X55904761Y22100000D01*
X55809523Y22052381D01*
X54952380Y22052381D01*
X55904761Y22957143D02*
X55952380Y22861905D01*
X55952380Y22671429D01*
X55904761Y22576191D01*
X55809523Y22528572D01*
X55428571Y22528572D01*
X55333333Y22576191D01*
X55285714Y22671429D01*
X55285714Y22861905D01*
X55333333Y22957143D01*
X55428571Y23004762D01*
X55523809Y23004762D01*
X55619047Y22528572D01*
X60802380Y12116667D02*
X61516666Y12116667D01*
X61659523Y12069048D01*
X61754761Y11973810D01*
X61802380Y11830953D01*
X61802380Y11735715D01*
X61135714Y13021429D02*
X61802380Y13021429D01*
X60754761Y12783334D02*
X61469047Y12545239D01*
X61469047Y13164286D01*
%TO.C,A1*%
X48120666Y7753905D02*
X48120666Y8230096D01*
X48406380Y7658667D02*
X47406380Y7992000D01*
X48406380Y8325334D01*
X48406380Y8658667D02*
X47739714Y8658667D01*
X47930190Y8658667D02*
X47834952Y8706286D01*
X47787333Y8753905D01*
X47739714Y8849143D01*
X47739714Y8944381D01*
X48406380Y9706286D02*
X47406380Y9706286D01*
X48358761Y9706286D02*
X48406380Y9611048D01*
X48406380Y9420572D01*
X48358761Y9325334D01*
X48311142Y9277715D01*
X48215904Y9230096D01*
X47930190Y9230096D01*
X47834952Y9277715D01*
X47787333Y9325334D01*
X47739714Y9420572D01*
X47739714Y9611048D01*
X47787333Y9706286D01*
X47739714Y10611048D02*
X48406380Y10611048D01*
X47739714Y10182477D02*
X48263523Y10182477D01*
X48358761Y10230096D01*
X48406380Y10325334D01*
X48406380Y10468191D01*
X48358761Y10563429D01*
X48311142Y10611048D01*
X48406380Y11087239D02*
X47739714Y11087239D01*
X47406380Y11087239D02*
X47454000Y11039620D01*
X47501619Y11087239D01*
X47454000Y11134858D01*
X47406380Y11087239D01*
X47501619Y11087239D01*
X47739714Y11563429D02*
X48406380Y11563429D01*
X47834952Y11563429D02*
X47787333Y11611048D01*
X47739714Y11706286D01*
X47739714Y11849143D01*
X47787333Y11944381D01*
X47882571Y11992000D01*
X48406380Y11992000D01*
X48406380Y12611048D02*
X48358761Y12515810D01*
X48311142Y12468191D01*
X48215904Y12420572D01*
X47930190Y12420572D01*
X47834952Y12468191D01*
X47787333Y12515810D01*
X47739714Y12611048D01*
X47739714Y12753905D01*
X47787333Y12849143D01*
X47834952Y12896762D01*
X47930190Y12944381D01*
X48215904Y12944381D01*
X48311142Y12896762D01*
X48358761Y12849143D01*
X48406380Y12753905D01*
X48406380Y12611048D01*
X48501619Y13134858D02*
X48501619Y13896762D01*
X48406380Y14134858D02*
X47406380Y14134858D01*
X48406380Y14706286D01*
X47406380Y14706286D01*
X48406380Y15611048D02*
X47882571Y15611048D01*
X47787333Y15563429D01*
X47739714Y15468191D01*
X47739714Y15277715D01*
X47787333Y15182477D01*
X48358761Y15611048D02*
X48406380Y15515810D01*
X48406380Y15277715D01*
X48358761Y15182477D01*
X48263523Y15134858D01*
X48168285Y15134858D01*
X48073047Y15182477D01*
X48025428Y15277715D01*
X48025428Y15515810D01*
X47977809Y15611048D01*
X47739714Y16087239D02*
X48406380Y16087239D01*
X47834952Y16087239D02*
X47787333Y16134858D01*
X47739714Y16230096D01*
X47739714Y16372953D01*
X47787333Y16468191D01*
X47882571Y16515810D01*
X48406380Y16515810D01*
X48406380Y17134858D02*
X48358761Y17039620D01*
X48311142Y16992000D01*
X48215904Y16944381D01*
X47930190Y16944381D01*
X47834952Y16992000D01*
X47787333Y17039620D01*
X47739714Y17134858D01*
X47739714Y17277715D01*
X47787333Y17372953D01*
X47834952Y17420572D01*
X47930190Y17468191D01*
X48215904Y17468191D01*
X48311142Y17420572D01*
X48358761Y17372953D01*
X48406380Y17277715D01*
X48406380Y17134858D01*
X48501619Y17658667D02*
X48501619Y18420572D01*
X47739714Y18563429D02*
X48406380Y18801524D01*
X47739714Y19039620D01*
X47406380Y19325334D02*
X47406380Y19944381D01*
X47787333Y19611048D01*
X47787333Y19753905D01*
X47834952Y19849143D01*
X47882571Y19896762D01*
X47977809Y19944381D01*
X48215904Y19944381D01*
X48311142Y19896762D01*
X48358761Y19849143D01*
X48406380Y19753905D01*
X48406380Y19468191D01*
X48358761Y19372953D01*
X48311142Y19325334D01*
X48311142Y20372953D02*
X48358761Y20420572D01*
X48406380Y20372953D01*
X48358761Y20325334D01*
X48311142Y20372953D01*
X48406380Y20372953D01*
X48406380Y20753905D02*
X47739714Y21277715D01*
X47739714Y20753905D02*
X48406380Y21277715D01*
X53666666Y7285715D02*
X53666666Y7761905D01*
X53952380Y7190477D02*
X52952380Y7523810D01*
X53952380Y7857143D01*
X53952380Y8714286D02*
X53952380Y8142858D01*
X53952380Y8428572D02*
X52952380Y8428572D01*
X53095238Y8333334D01*
X53190476Y8238096D01*
X53238095Y8142858D01*
%TO.C,R3*%
X58385714Y53538096D02*
X59052380Y53538096D01*
X58004761Y53300000D02*
X58719047Y53061905D01*
X58719047Y53680953D01*
X58052380Y53966667D02*
X58052380Y54633334D01*
X59052380Y54204762D01*
X58052380Y55204762D02*
X58052380Y55300000D01*
X58100000Y55395239D01*
X58147619Y55442858D01*
X58242857Y55490477D01*
X58433333Y55538096D01*
X58671428Y55538096D01*
X58861904Y55490477D01*
X58957142Y55442858D01*
X59004761Y55395239D01*
X59052380Y55300000D01*
X59052380Y55204762D01*
X59004761Y55109524D01*
X58957142Y55061905D01*
X58861904Y55014286D01*
X58671428Y54966667D01*
X58433333Y54966667D01*
X58242857Y55014286D01*
X58147619Y55061905D01*
X58100000Y55109524D01*
X58052380Y55204762D01*
D15*
X58025714Y56480000D02*
X57682857Y56240000D01*
X58025714Y56068572D02*
X57305714Y56068572D01*
X57305714Y56342858D01*
X57340000Y56411429D01*
X57374285Y56445715D01*
X57442857Y56480000D01*
X57545714Y56480000D01*
X57614285Y56445715D01*
X57648571Y56411429D01*
X57682857Y56342858D01*
X57682857Y56068572D01*
X57305714Y56720000D02*
X57305714Y57165715D01*
X57580000Y56925715D01*
X57580000Y57028572D01*
X57614285Y57097143D01*
X57648571Y57131429D01*
X57717142Y57165715D01*
X57888571Y57165715D01*
X57957142Y57131429D01*
X57991428Y57097143D01*
X58025714Y57028572D01*
X58025714Y56822858D01*
X57991428Y56754286D01*
X57957142Y56720000D01*
D11*
%TO.C,R5*%
X61585714Y5538096D02*
X62252380Y5538096D01*
X61204761Y5300000D02*
X61919047Y5061905D01*
X61919047Y5680953D01*
X61252380Y5966667D02*
X61252380Y6633334D01*
X62252380Y6204762D01*
X61252380Y7204762D02*
X61252380Y7300000D01*
X61300000Y7395239D01*
X61347619Y7442858D01*
X61442857Y7490477D01*
X61633333Y7538096D01*
X61871428Y7538096D01*
X62061904Y7490477D01*
X62157142Y7442858D01*
X62204761Y7395239D01*
X62252380Y7300000D01*
X62252380Y7204762D01*
X62204761Y7109524D01*
X62157142Y7061905D01*
X62061904Y7014286D01*
X61871428Y6966667D01*
X61633333Y6966667D01*
X61442857Y7014286D01*
X61347619Y7061905D01*
X61300000Y7109524D01*
X61252380Y7204762D01*
D15*
X60825714Y6380000D02*
X60482857Y6140000D01*
X60825714Y5968572D02*
X60105714Y5968572D01*
X60105714Y6242858D01*
X60140000Y6311429D01*
X60174285Y6345715D01*
X60242857Y6380000D01*
X60345714Y6380000D01*
X60414285Y6345715D01*
X60448571Y6311429D01*
X60482857Y6242858D01*
X60482857Y5968572D01*
X60105714Y7031429D02*
X60105714Y6688572D01*
X60448571Y6654286D01*
X60414285Y6688572D01*
X60380000Y6757143D01*
X60380000Y6928572D01*
X60414285Y6997143D01*
X60448571Y7031429D01*
X60517142Y7065715D01*
X60688571Y7065715D01*
X60757142Y7031429D01*
X60791428Y6997143D01*
X60825714Y6928572D01*
X60825714Y6757143D01*
X60791428Y6688572D01*
X60757142Y6654286D01*
D11*
%TO.C,R4*%
X58585714Y55938096D02*
X59252380Y55938096D01*
X58204761Y55700000D02*
X58919047Y55461905D01*
X58919047Y56080953D01*
X58252380Y56366667D02*
X58252380Y57033334D01*
X59252380Y56604762D01*
X58252380Y57604762D02*
X58252380Y57700000D01*
X58300000Y57795239D01*
X58347619Y57842858D01*
X58442857Y57890477D01*
X58633333Y57938096D01*
X58871428Y57938096D01*
X59061904Y57890477D01*
X59157142Y57842858D01*
X59204761Y57795239D01*
X59252380Y57700000D01*
X59252380Y57604762D01*
X59204761Y57509524D01*
X59157142Y57461905D01*
X59061904Y57414286D01*
X58871428Y57366667D01*
X58633333Y57366667D01*
X58442857Y57414286D01*
X58347619Y57461905D01*
X58300000Y57509524D01*
X58252380Y57604762D01*
D15*
X57925714Y54180000D02*
X57582857Y53940000D01*
X57925714Y53768572D02*
X57205714Y53768572D01*
X57205714Y54042858D01*
X57240000Y54111429D01*
X57274285Y54145715D01*
X57342857Y54180000D01*
X57445714Y54180000D01*
X57514285Y54145715D01*
X57548571Y54111429D01*
X57582857Y54042858D01*
X57582857Y53768572D01*
X57445714Y54797143D02*
X57925714Y54797143D01*
X57171428Y54625715D02*
X57685714Y54454286D01*
X57685714Y54900000D01*
D11*
%TO.C,J2*%
X53447142Y59566667D02*
X53494761Y59519048D01*
X53542380Y59376191D01*
X53542380Y59280953D01*
X53494761Y59138096D01*
X53399523Y59042858D01*
X53304285Y58995239D01*
X53113809Y58947620D01*
X52970952Y58947620D01*
X52780476Y58995239D01*
X52685238Y59042858D01*
X52590000Y59138096D01*
X52542380Y59280953D01*
X52542380Y59376191D01*
X52590000Y59519048D01*
X52637619Y59566667D01*
X53542380Y60138096D02*
X53494761Y60042858D01*
X53447142Y59995239D01*
X53351904Y59947620D01*
X53066190Y59947620D01*
X52970952Y59995239D01*
X52923333Y60042858D01*
X52875714Y60138096D01*
X52875714Y60280953D01*
X52923333Y60376191D01*
X52970952Y60423810D01*
X53066190Y60471429D01*
X53351904Y60471429D01*
X53447142Y60423810D01*
X53494761Y60376191D01*
X53542380Y60280953D01*
X53542380Y60138096D01*
X52875714Y60900000D02*
X53542380Y60900000D01*
X52970952Y60900000D02*
X52923333Y60947620D01*
X52875714Y61042858D01*
X52875714Y61185715D01*
X52923333Y61280953D01*
X53018571Y61328572D01*
X53542380Y61328572D01*
X52875714Y61804762D02*
X53542380Y61804762D01*
X52970952Y61804762D02*
X52923333Y61852381D01*
X52875714Y61947620D01*
X52875714Y62090477D01*
X52923333Y62185715D01*
X53018571Y62233334D01*
X53542380Y62233334D01*
X53637619Y62471429D02*
X53637619Y63233334D01*
X52542380Y63661905D02*
X52542380Y63757143D01*
X52590000Y63852381D01*
X52637619Y63900000D01*
X52732857Y63947620D01*
X52923333Y63995239D01*
X53161428Y63995239D01*
X53351904Y63947620D01*
X53447142Y63900000D01*
X53494761Y63852381D01*
X53542380Y63757143D01*
X53542380Y63661905D01*
X53494761Y63566667D01*
X53447142Y63519048D01*
X53351904Y63471429D01*
X53161428Y63423810D01*
X52923333Y63423810D01*
X52732857Y63471429D01*
X52637619Y63519048D01*
X52590000Y63566667D01*
X52542380Y63661905D01*
X53542380Y64947620D02*
X53542380Y64376191D01*
X53542380Y64661905D02*
X52542380Y64661905D01*
X52685238Y64566667D01*
X52780476Y64471429D01*
X52828095Y64376191D01*
X53542380Y65280953D02*
X52875714Y65804762D01*
X52875714Y65280953D02*
X53542380Y65804762D01*
X52542380Y66376191D02*
X52542380Y66471429D01*
X52590000Y66566667D01*
X52637619Y66614286D01*
X52732857Y66661905D01*
X52923333Y66709524D01*
X53161428Y66709524D01*
X53351904Y66661905D01*
X53447142Y66614286D01*
X53494761Y66566667D01*
X53542380Y66471429D01*
X53542380Y66376191D01*
X53494761Y66280953D01*
X53447142Y66233334D01*
X53351904Y66185715D01*
X53161428Y66138096D01*
X52923333Y66138096D01*
X52732857Y66185715D01*
X52637619Y66233334D01*
X52590000Y66280953D01*
X52542380Y66376191D01*
X52542380Y67042858D02*
X52542380Y67661905D01*
X52923333Y67328572D01*
X52923333Y67471429D01*
X52970952Y67566667D01*
X53018571Y67614286D01*
X53113809Y67661905D01*
X53351904Y67661905D01*
X53447142Y67614286D01*
X53494761Y67566667D01*
X53542380Y67471429D01*
X53542380Y67185715D01*
X53494761Y67090477D01*
X53447142Y67042858D01*
X53637619Y67852381D02*
X53637619Y68614286D01*
X53542380Y68852381D02*
X52542380Y68852381D01*
X53256666Y69185715D01*
X52542380Y69519048D01*
X53542380Y69519048D01*
X53542380Y70423810D02*
X53018571Y70423810D01*
X52923333Y70376191D01*
X52875714Y70280953D01*
X52875714Y70090477D01*
X52923333Y69995239D01*
X53494761Y70423810D02*
X53542380Y70328572D01*
X53542380Y70090477D01*
X53494761Y69995239D01*
X53399523Y69947620D01*
X53304285Y69947620D01*
X53209047Y69995239D01*
X53161428Y70090477D01*
X53161428Y70328572D01*
X53113809Y70423810D01*
X53542380Y71042858D02*
X53494761Y70947620D01*
X53399523Y70900000D01*
X52542380Y70900000D01*
X53494761Y71804762D02*
X53542380Y71709524D01*
X53542380Y71519048D01*
X53494761Y71423810D01*
X53399523Y71376191D01*
X53018571Y71376191D01*
X52923333Y71423810D01*
X52875714Y71519048D01*
X52875714Y71709524D01*
X52923333Y71804762D01*
X53018571Y71852381D01*
X53113809Y71852381D01*
X53209047Y71376191D01*
X57626666Y65947620D02*
X57626666Y65233334D01*
X57579047Y65090477D01*
X57483809Y64995239D01*
X57340952Y64947620D01*
X57245714Y64947620D01*
X58055238Y65852381D02*
X58102857Y65900000D01*
X58198095Y65947620D01*
X58436190Y65947620D01*
X58531428Y65900000D01*
X58579047Y65852381D01*
X58626666Y65757143D01*
X58626666Y65661905D01*
X58579047Y65519048D01*
X58007619Y64947620D01*
X58626666Y64947620D01*
%TO.C,REF7*%
X84752380Y3547620D02*
X84419047Y4023810D01*
X84180952Y3547620D02*
X84180952Y4547620D01*
X84561904Y4547620D01*
X84657142Y4500000D01*
X84704761Y4452381D01*
X84752380Y4357143D01*
X84752380Y4214286D01*
X84704761Y4119048D01*
X84657142Y4071429D01*
X84561904Y4023810D01*
X84180952Y4023810D01*
X85180952Y4071429D02*
X85514285Y4071429D01*
X85657142Y3547620D02*
X85180952Y3547620D01*
X85180952Y4547620D01*
X85657142Y4547620D01*
X86419047Y4071429D02*
X86085714Y4071429D01*
X86085714Y3547620D02*
X86085714Y4547620D01*
X86561904Y4547620D01*
X86847619Y4547620D02*
X87514285Y4547620D01*
X87085714Y3547620D01*
%TO.C,R2*%
X58585714Y58438096D02*
X59252380Y58438096D01*
X58204761Y58200000D02*
X58919047Y57961905D01*
X58919047Y58580953D01*
X58252380Y58866667D02*
X58252380Y59533334D01*
X59252380Y59104762D01*
X58252380Y60104762D02*
X58252380Y60200000D01*
X58300000Y60295239D01*
X58347619Y60342858D01*
X58442857Y60390477D01*
X58633333Y60438096D01*
X58871428Y60438096D01*
X59061904Y60390477D01*
X59157142Y60342858D01*
X59204761Y60295239D01*
X59252380Y60200000D01*
X59252380Y60104762D01*
X59204761Y60009524D01*
X59157142Y59961905D01*
X59061904Y59914286D01*
X58871428Y59866667D01*
X58633333Y59866667D01*
X58442857Y59914286D01*
X58347619Y59961905D01*
X58300000Y60009524D01*
X58252380Y60104762D01*
D15*
X57925714Y58880000D02*
X57582857Y58640000D01*
X57925714Y58468572D02*
X57205714Y58468572D01*
X57205714Y58742858D01*
X57240000Y58811429D01*
X57274285Y58845715D01*
X57342857Y58880000D01*
X57445714Y58880000D01*
X57514285Y58845715D01*
X57548571Y58811429D01*
X57582857Y58742858D01*
X57582857Y58468572D01*
X57274285Y59154286D02*
X57240000Y59188572D01*
X57205714Y59257143D01*
X57205714Y59428572D01*
X57240000Y59497143D01*
X57274285Y59531429D01*
X57342857Y59565715D01*
X57411428Y59565715D01*
X57514285Y59531429D01*
X57925714Y59120000D01*
X57925714Y59565715D01*
D11*
%TO.C,REF6*%
X8252380Y40895239D02*
X7252380Y40895239D01*
X7966666Y41228572D01*
X7252380Y41561905D01*
X8252380Y41561905D01*
X8252380Y42180953D02*
X8204761Y42085715D01*
X8157142Y42038096D01*
X8061904Y41990477D01*
X7776190Y41990477D01*
X7680952Y42038096D01*
X7633333Y42085715D01*
X7585714Y42180953D01*
X7585714Y42323810D01*
X7633333Y42419048D01*
X7680952Y42466667D01*
X7776190Y42514286D01*
X8061904Y42514286D01*
X8157142Y42466667D01*
X8204761Y42419048D01*
X8252380Y42323810D01*
X8252380Y42180953D01*
X7585714Y43371429D02*
X8252380Y43371429D01*
X7585714Y42942858D02*
X8109523Y42942858D01*
X8204761Y42990477D01*
X8252380Y43085715D01*
X8252380Y43228572D01*
X8204761Y43323810D01*
X8157142Y43371429D01*
X7585714Y43847620D02*
X8252380Y43847620D01*
X7680952Y43847620D02*
X7633333Y43895239D01*
X7585714Y43990477D01*
X7585714Y44133334D01*
X7633333Y44228572D01*
X7728571Y44276191D01*
X8252380Y44276191D01*
X7585714Y44609524D02*
X7585714Y44990477D01*
X7252380Y44752381D02*
X8109523Y44752381D01*
X8204761Y44800000D01*
X8252380Y44895239D01*
X8252380Y44990477D01*
X8252380Y45323810D02*
X7585714Y45323810D01*
X7252380Y45323810D02*
X7300000Y45276191D01*
X7347619Y45323810D01*
X7300000Y45371429D01*
X7252380Y45323810D01*
X7347619Y45323810D01*
X7585714Y45800000D02*
X8252380Y45800000D01*
X7680952Y45800000D02*
X7633333Y45847620D01*
X7585714Y45942858D01*
X7585714Y46085715D01*
X7633333Y46180953D01*
X7728571Y46228572D01*
X8252380Y46228572D01*
X7585714Y47133334D02*
X8395238Y47133334D01*
X8490476Y47085715D01*
X8538095Y47038096D01*
X8585714Y46942858D01*
X8585714Y46800000D01*
X8538095Y46704762D01*
X8204761Y47133334D02*
X8252380Y47038096D01*
X8252380Y46847620D01*
X8204761Y46752381D01*
X8157142Y46704762D01*
X8061904Y46657143D01*
X7776190Y46657143D01*
X7680952Y46704762D01*
X7633333Y46752381D01*
X7585714Y46847620D01*
X7585714Y47038096D01*
X7633333Y47133334D01*
X8252380Y47609524D02*
X7252380Y47609524D01*
X7728571Y47609524D02*
X7728571Y48180953D01*
X8252380Y48180953D02*
X7252380Y48180953D01*
X8252380Y48800000D02*
X8204761Y48704762D01*
X8157142Y48657143D01*
X8061904Y48609524D01*
X7776190Y48609524D01*
X7680952Y48657143D01*
X7633333Y48704762D01*
X7585714Y48800000D01*
X7585714Y48942858D01*
X7633333Y49038096D01*
X7680952Y49085715D01*
X7776190Y49133334D01*
X8061904Y49133334D01*
X8157142Y49085715D01*
X8204761Y49038096D01*
X8252380Y48942858D01*
X8252380Y48800000D01*
X8252380Y49704762D02*
X8204761Y49609524D01*
X8109523Y49561905D01*
X7252380Y49561905D01*
X8204761Y50466667D02*
X8252380Y50371429D01*
X8252380Y50180953D01*
X8204761Y50085715D01*
X8109523Y50038096D01*
X7728571Y50038096D01*
X7633333Y50085715D01*
X7585714Y50180953D01*
X7585714Y50371429D01*
X7633333Y50466667D01*
X7728571Y50514286D01*
X7823809Y50514286D01*
X7919047Y50038096D01*
X8347619Y50704762D02*
X8347619Y51466667D01*
X7252380Y51609524D02*
X7252380Y52228572D01*
X7633333Y51895239D01*
X7633333Y52038096D01*
X7680952Y52133334D01*
X7728571Y52180953D01*
X7823809Y52228572D01*
X8061904Y52228572D01*
X8157142Y52180953D01*
X8204761Y52133334D01*
X8252380Y52038096D01*
X8252380Y51752381D01*
X8204761Y51657143D01*
X8157142Y51609524D01*
X8157142Y52657143D02*
X8204761Y52704762D01*
X8252380Y52657143D01*
X8204761Y52609524D01*
X8157142Y52657143D01*
X8252380Y52657143D01*
X7347619Y53085715D02*
X7300000Y53133334D01*
X7252380Y53228572D01*
X7252380Y53466667D01*
X7300000Y53561905D01*
X7347619Y53609524D01*
X7442857Y53657143D01*
X7538095Y53657143D01*
X7680952Y53609524D01*
X8252380Y53038096D01*
X8252380Y53657143D01*
X8252380Y54085715D02*
X7585714Y54085715D01*
X7680952Y54085715D02*
X7633333Y54133334D01*
X7585714Y54228572D01*
X7585714Y54371429D01*
X7633333Y54466667D01*
X7728571Y54514286D01*
X8252380Y54514286D01*
X7728571Y54514286D02*
X7633333Y54561905D01*
X7585714Y54657143D01*
X7585714Y54800000D01*
X7633333Y54895239D01*
X7728571Y54942858D01*
X8252380Y54942858D01*
X8252380Y55419048D02*
X7585714Y55419048D01*
X7680952Y55419048D02*
X7633333Y55466667D01*
X7585714Y55561905D01*
X7585714Y55704762D01*
X7633333Y55800000D01*
X7728571Y55847620D01*
X8252380Y55847620D01*
X7728571Y55847620D02*
X7633333Y55895239D01*
X7585714Y55990477D01*
X7585714Y56133334D01*
X7633333Y56228572D01*
X7728571Y56276191D01*
X8252380Y56276191D01*
X8347619Y56514286D02*
X8347619Y57276191D01*
X8252380Y57514286D02*
X7252380Y57514286D01*
X7966666Y57847620D01*
X7252380Y58180953D01*
X8252380Y58180953D01*
X7252380Y58561905D02*
X7252380Y59180953D01*
X7633333Y58847620D01*
X7633333Y58990477D01*
X7680952Y59085715D01*
X7728571Y59133334D01*
X7823809Y59180953D01*
X8061904Y59180953D01*
X8157142Y59133334D01*
X8204761Y59085715D01*
X8252380Y58990477D01*
X8252380Y58704762D01*
X8204761Y58609524D01*
X8157142Y58561905D01*
X8347619Y59371429D02*
X8347619Y60133334D01*
X8252380Y60371429D02*
X7252380Y60371429D01*
X7252380Y60752381D01*
X7300000Y60847620D01*
X7347619Y60895239D01*
X7442857Y60942858D01*
X7585714Y60942858D01*
X7680952Y60895239D01*
X7728571Y60847620D01*
X7776190Y60752381D01*
X7776190Y60371429D01*
X8252380Y61800000D02*
X7728571Y61800000D01*
X7633333Y61752381D01*
X7585714Y61657143D01*
X7585714Y61466667D01*
X7633333Y61371429D01*
X8204761Y61800000D02*
X8252380Y61704762D01*
X8252380Y61466667D01*
X8204761Y61371429D01*
X8109523Y61323810D01*
X8014285Y61323810D01*
X7919047Y61371429D01*
X7871428Y61466667D01*
X7871428Y61704762D01*
X7823809Y61800000D01*
X8252380Y62704762D02*
X7252380Y62704762D01*
X8204761Y62704762D02*
X8252380Y62609524D01*
X8252380Y62419048D01*
X8204761Y62323810D01*
X8157142Y62276191D01*
X8061904Y62228572D01*
X7776190Y62228572D01*
X7680952Y62276191D01*
X7633333Y62323810D01*
X7585714Y62419048D01*
X7585714Y62609524D01*
X7633333Y62704762D01*
X8347619Y62942858D02*
X8347619Y63704762D01*
X7252380Y63800000D02*
X8252380Y64133334D01*
X7252380Y64466667D01*
X8252380Y64800000D02*
X7585714Y64800000D01*
X7252380Y64800000D02*
X7300000Y64752381D01*
X7347619Y64800000D01*
X7300000Y64847620D01*
X7252380Y64800000D01*
X7347619Y64800000D01*
X8252380Y65704762D02*
X7728571Y65704762D01*
X7633333Y65657143D01*
X7585714Y65561905D01*
X7585714Y65371429D01*
X7633333Y65276191D01*
X8204761Y65704762D02*
X8252380Y65609524D01*
X8252380Y65371429D01*
X8204761Y65276191D01*
X8109523Y65228572D01*
X8014285Y65228572D01*
X7919047Y65276191D01*
X7871428Y65371429D01*
X7871428Y65609524D01*
X7823809Y65704762D01*
X3252380Y67547620D02*
X2919047Y68023810D01*
X2680952Y67547620D02*
X2680952Y68547620D01*
X3061904Y68547620D01*
X3157142Y68500000D01*
X3204761Y68452381D01*
X3252380Y68357143D01*
X3252380Y68214286D01*
X3204761Y68119048D01*
X3157142Y68071429D01*
X3061904Y68023810D01*
X2680952Y68023810D01*
X3680952Y68071429D02*
X4014285Y68071429D01*
X4157142Y67547620D02*
X3680952Y67547620D01*
X3680952Y68547620D01*
X4157142Y68547620D01*
X4919047Y68071429D02*
X4585714Y68071429D01*
X4585714Y67547620D02*
X4585714Y68547620D01*
X5061904Y68547620D01*
X5871428Y68547620D02*
X5680952Y68547620D01*
X5585714Y68500000D01*
X5538095Y68452381D01*
X5442857Y68309524D01*
X5395238Y68119048D01*
X5395238Y67738096D01*
X5442857Y67642858D01*
X5490476Y67595239D01*
X5585714Y67547620D01*
X5776190Y67547620D01*
X5871428Y67595239D01*
X5919047Y67642858D01*
X5966666Y67738096D01*
X5966666Y67976191D01*
X5919047Y68071429D01*
X5871428Y68119048D01*
X5776190Y68166667D01*
X5585714Y68166667D01*
X5490476Y68119048D01*
X5442857Y68071429D01*
X5395238Y67976191D01*
%TO.C,U1*%
X50902380Y53438096D02*
X50902380Y54104762D01*
X51902380Y53676191D01*
X51235714Y54914286D02*
X51902380Y54914286D01*
X50854761Y54676191D02*
X51569047Y54438096D01*
X51569047Y55057143D01*
X51902380Y55438096D02*
X50902380Y55438096D01*
X51378571Y55438096D02*
X51378571Y56009524D01*
X51902380Y56009524D02*
X50902380Y56009524D01*
X51807142Y57057143D02*
X51854761Y57009524D01*
X51902380Y56866667D01*
X51902380Y56771429D01*
X51854761Y56628572D01*
X51759523Y56533334D01*
X51664285Y56485715D01*
X51473809Y56438096D01*
X51330952Y56438096D01*
X51140476Y56485715D01*
X51045238Y56533334D01*
X50950000Y56628572D01*
X50902380Y56771429D01*
X50902380Y56866667D01*
X50950000Y57009524D01*
X50997619Y57057143D01*
X50902380Y57961905D02*
X50902380Y57485715D01*
X51378571Y57438096D01*
X51330952Y57485715D01*
X51283333Y57580953D01*
X51283333Y57819048D01*
X51330952Y57914286D01*
X51378571Y57961905D01*
X51473809Y58009524D01*
X51711904Y58009524D01*
X51807142Y57961905D01*
X51854761Y57914286D01*
X51902380Y57819048D01*
X51902380Y57580953D01*
X51854761Y57485715D01*
X51807142Y57438096D01*
X51902380Y58485715D02*
X51902380Y58676191D01*
X51854761Y58771429D01*
X51807142Y58819048D01*
X51664285Y58914286D01*
X51473809Y58961905D01*
X51092857Y58961905D01*
X50997619Y58914286D01*
X50950000Y58866667D01*
X50902380Y58771429D01*
X50902380Y58580953D01*
X50950000Y58485715D01*
X50997619Y58438096D01*
X51092857Y58390477D01*
X51330952Y58390477D01*
X51426190Y58438096D01*
X51473809Y58485715D01*
X51521428Y58580953D01*
X51521428Y58771429D01*
X51473809Y58866667D01*
X51426190Y58914286D01*
X51330952Y58961905D01*
X50902380Y59866667D02*
X50902380Y59390477D01*
X51378571Y59342858D01*
X51330952Y59390477D01*
X51283333Y59485715D01*
X51283333Y59723810D01*
X51330952Y59819048D01*
X51378571Y59866667D01*
X51473809Y59914286D01*
X51711904Y59914286D01*
X51807142Y59866667D01*
X51854761Y59819048D01*
X51902380Y59723810D01*
X51902380Y59485715D01*
X51854761Y59390477D01*
X51807142Y59342858D01*
X28610380Y58190096D02*
X29419904Y58190096D01*
X29515142Y58237715D01*
X29562761Y58285334D01*
X29610380Y58380572D01*
X29610380Y58571048D01*
X29562761Y58666286D01*
X29515142Y58713905D01*
X29419904Y58761524D01*
X28610380Y58761524D01*
X29610380Y59761524D02*
X29610380Y59190096D01*
X29610380Y59475810D02*
X28610380Y59475810D01*
X28753238Y59380572D01*
X28848476Y59285334D01*
X28896095Y59190096D01*
D10*
%TO.C,J1*%
X84844000Y66616000D02*
X66844000Y66616000D01*
X66844000Y8616000D02*
X66844000Y66616000D01*
X84844000Y8616000D02*
X66844000Y8616000D01*
X84844000Y8616000D02*
X84844000Y66616000D01*
%TO.C,J3*%
X62635000Y3670000D02*
X62635000Y1130000D01*
X57555000Y1765000D02*
X57555000Y3670000D01*
X57555000Y3670000D02*
X62635000Y3670000D01*
X58190000Y1130000D02*
X57555000Y1765000D01*
X62635000Y1130000D02*
X58190000Y1130000D01*
%TO.C,U2*%
X30159000Y37733000D02*
X30159000Y44083000D01*
X49479000Y44083000D02*
X50479000Y43083000D01*
X30159000Y44083000D02*
X49479000Y44083000D01*
X50479000Y37733000D02*
X30159000Y37733000D01*
X50479000Y43083000D02*
X50479000Y37733000D01*
%TO.C,R1*%
X59360000Y62900000D02*
X55760000Y62900000D01*
X53750000Y62100000D02*
X55760000Y62100000D01*
X61370000Y62100000D02*
X59360000Y62100000D01*
X55760000Y62900000D02*
X55760000Y61300000D01*
X55760000Y61300000D02*
X59360000Y61300000D01*
X59360000Y61300000D02*
X59360000Y62900000D01*
%TO.C,J4*%
X59000000Y16450000D02*
X61000000Y16450000D01*
X60500000Y8450000D02*
X59000000Y8450000D01*
X61000000Y16450000D02*
X61000000Y8950000D01*
X59000000Y8450000D02*
X59000000Y16450000D01*
X61000000Y8950000D02*
X60500000Y8450000D01*
%TO.C,A1*%
X9092000Y17794000D02*
X19252000Y17794000D01*
X19252000Y10174000D02*
X9092000Y10174000D01*
X11632000Y22874000D02*
X53542000Y22874000D01*
X11632000Y5094000D02*
X11632000Y22874000D01*
X19252000Y17794000D02*
X19252000Y10174000D01*
X53542000Y22874000D02*
X54812000Y21604000D01*
X54812000Y5094000D02*
X11632000Y5094000D01*
X9092000Y10174000D02*
X9092000Y17794000D01*
X54812000Y21604000D02*
X54812000Y5094000D01*
%TO.C,R3*%
X55800000Y57500000D02*
X55800000Y55900000D01*
X55800000Y55900000D02*
X59400000Y55900000D01*
X59400000Y57500000D02*
X55800000Y57500000D01*
X53790000Y56700000D02*
X55800000Y56700000D01*
X61410000Y56700000D02*
X59400000Y56700000D01*
X59400000Y55900000D02*
X59400000Y57500000D01*
%TO.C,R5*%
X62300000Y5700000D02*
X62300000Y7300000D01*
X64310000Y6500000D02*
X62300000Y6500000D01*
X62300000Y7300000D02*
X58700000Y7300000D01*
X58700000Y7300000D02*
X58700000Y5700000D01*
X56690000Y6500000D02*
X58700000Y6500000D01*
X58700000Y5700000D02*
X62300000Y5700000D01*
%TO.C,R4*%
X53790000Y54300000D02*
X55800000Y54300000D01*
X61410000Y54300000D02*
X59400000Y54300000D01*
X59400000Y53500000D02*
X59400000Y55100000D01*
X55800000Y55100000D02*
X55800000Y53500000D01*
X59400000Y55100000D02*
X55800000Y55100000D01*
X55800000Y53500000D02*
X59400000Y53500000D01*
%TO.C,J2*%
X54150000Y64130000D02*
X54150000Y66670000D01*
X54150000Y66670000D02*
X61135000Y66670000D01*
X61770000Y64130000D02*
X54150000Y64130000D01*
X61770000Y66035000D02*
X61770000Y64130000D01*
X61135000Y66670000D02*
X61770000Y66035000D01*
%TO.C,R2*%
X59400000Y58200000D02*
X59400000Y59800000D01*
X55800000Y59800000D02*
X55800000Y58200000D01*
X53790000Y59000000D02*
X55800000Y59000000D01*
X59400000Y59800000D02*
X55800000Y59800000D01*
X55800000Y58200000D02*
X59400000Y58200000D01*
X61410000Y59000000D02*
X59400000Y59000000D01*
%TO.C,U1*%
X30189000Y60359000D02*
X50509000Y60359000D01*
X50509000Y54009000D02*
X31189000Y54009000D01*
X30189000Y55009000D02*
X30189000Y60359000D01*
X50509000Y60359000D02*
X50509000Y54009000D01*
X31189000Y54009000D02*
X30189000Y55009000D01*
%TD*%
%TO.C,J1*%
X74794000Y50616000D02*
G75*
G03*
X74794000Y50616000I-950000J0D01*
G01*
X74794000Y24616000D02*
G75*
G03*
X74794000Y24616000I-950000J0D01*
G01*
X64494000Y61316000D02*
X64494000Y60416000D01*
X66794000Y60416000D01*
X66794000Y61316000D01*
X64494000Y61316000D01*
X64494000Y59816000D02*
X64494000Y58916000D01*
X66794000Y58916000D01*
X66794000Y59816000D01*
X64494000Y59816000D01*
X64494000Y58316000D02*
X64494000Y57416000D01*
X66794000Y57416000D01*
X66794000Y58316000D01*
X64494000Y58316000D01*
X64494000Y56816000D02*
X64494000Y55916000D01*
X66794000Y55916000D01*
X66794000Y56816000D01*
X64494000Y56816000D01*
X64494000Y55316000D02*
X64494000Y54416000D01*
X66794000Y54416000D01*
X66794000Y55316000D01*
X64494000Y55316000D01*
X64494000Y53816000D02*
X64494000Y52916000D01*
X66794000Y52916000D01*
X66794000Y53816000D01*
X64494000Y53816000D01*
X64494000Y52316000D02*
X64494000Y51416000D01*
X66794000Y51416000D01*
X66794000Y52316000D01*
X64494000Y52316000D01*
X64494000Y50816000D02*
X64494000Y49916000D01*
X66794000Y49916000D01*
X66794000Y50816000D01*
X64494000Y50816000D01*
X64494000Y49316000D02*
X64494000Y48416000D01*
X66794000Y48416000D01*
X66794000Y49316000D01*
X64494000Y49316000D01*
X64494000Y47816000D02*
X64494000Y46916000D01*
X66794000Y46916000D01*
X66794000Y47816000D01*
X64494000Y47816000D01*
X64494000Y46316000D02*
X64494000Y45416000D01*
X66794000Y45416000D01*
X66794000Y46316000D01*
X64494000Y46316000D01*
X64494000Y44816000D02*
X64494000Y43916000D01*
X66794000Y43916000D01*
X66794000Y44816000D01*
X64494000Y44816000D01*
X64494000Y43316000D02*
X64494000Y42416000D01*
X66794000Y42416000D01*
X66794000Y43316000D01*
X64494000Y43316000D01*
X64494000Y41816000D02*
X64494000Y40916000D01*
X66794000Y40916000D01*
X66794000Y41816000D01*
X64494000Y41816000D01*
X64494000Y40316000D02*
X64494000Y39416000D01*
X66794000Y39416000D01*
X66794000Y40316000D01*
X64494000Y40316000D01*
X64494000Y38816000D02*
X64494000Y37916000D01*
X66794000Y37916000D01*
X66794000Y38816000D01*
X64494000Y38816000D01*
X64494000Y37316000D02*
X64494000Y36416000D01*
X66794000Y36416000D01*
X66794000Y37316000D01*
X64494000Y37316000D01*
X64494000Y35816000D02*
X64494000Y34916000D01*
X66794000Y34916000D01*
X66794000Y35816000D01*
X64494000Y35816000D01*
X64494000Y34316000D02*
X64494000Y33416000D01*
X66794000Y33416000D01*
X66794000Y34316000D01*
X64494000Y34316000D01*
X64494000Y32816000D02*
X64494000Y31916000D01*
X66794000Y31916000D01*
X66794000Y32816000D01*
X64494000Y32816000D01*
X64494000Y31316000D02*
X64494000Y30416000D01*
X66794000Y30416000D01*
X66794000Y31316000D01*
X64494000Y31316000D01*
X64494000Y29816000D02*
X64494000Y28916000D01*
X66794000Y28916000D01*
X66794000Y29816000D01*
X64494000Y29816000D01*
X64494000Y28316000D02*
X64494000Y27416000D01*
X66794000Y27416000D01*
X66794000Y28316000D01*
X64494000Y28316000D01*
X64494000Y26816000D02*
X64494000Y25916000D01*
X66794000Y25916000D01*
X66794000Y26816000D01*
X64494000Y26816000D01*
X64494000Y25316000D02*
X64494000Y24416000D01*
X66794000Y24416000D01*
X66794000Y25316000D01*
X64494000Y25316000D01*
X64494000Y23816000D02*
X64494000Y22916000D01*
X66794000Y22916000D01*
X66794000Y23816000D01*
X64494000Y23816000D01*
X64494000Y22316000D02*
X64494000Y21416000D01*
X66794000Y21416000D01*
X66794000Y22316000D01*
X64494000Y22316000D01*
X64494000Y20816000D02*
X64494000Y19916000D01*
X66794000Y19916000D01*
X66794000Y20816000D01*
X64494000Y20816000D01*
X64494000Y19316000D02*
X64494000Y18416000D01*
X66794000Y18416000D01*
X66794000Y19316000D01*
X64494000Y19316000D01*
X64494000Y17816000D02*
X64494000Y16916000D01*
X66794000Y16916000D01*
X66794000Y17816000D01*
X64494000Y17816000D01*
X64494000Y16316000D02*
X64494000Y15416000D01*
X66794000Y15416000D01*
X66794000Y16316000D01*
X64494000Y16316000D01*
X64494000Y14816000D02*
X64494000Y13916000D01*
X66794000Y13916000D01*
X66794000Y14816000D01*
X64494000Y14816000D01*
X84394000Y53566000D02*
X84394000Y47666000D01*
X87294000Y47666000D01*
X87294000Y53566000D01*
X84394000Y53566000D01*
X84394000Y27566000D02*
X84394000Y21666000D01*
X87294000Y21666000D01*
X87294000Y27566000D01*
X84394000Y27566000D01*
%TD*%
%TO.C,J3*%
X59575000Y2400000D02*
G75*
G03*
X59575000Y2400000I-750000J0D01*
G01*
X61365000Y1650000D02*
X61365000Y1650000D01*
X61365000Y3150000D02*
X61365000Y3150000D01*
X61365000Y1650000D02*
G75*
G03*
X61365000Y3150000I0J750000D01*
G01*
X61365000Y3150000D02*
G75*
G03*
X61365000Y1650000I0J-750000D01*
G01*
%TD*%
%TO.C,U2*%
X48459000Y45468000D02*
X48459000Y43968000D01*
X49959000Y43968000D01*
X49959000Y45468000D01*
X48459000Y45468000D01*
X46669000Y45468000D02*
X46669000Y45468000D01*
X46669000Y43968000D02*
X46669000Y43968000D01*
X46669000Y45468000D02*
G75*
G03*
X46669000Y43968000I0J-750000D01*
G01*
X46669000Y43968000D02*
G75*
G03*
X46669000Y45468000I0J750000D01*
G01*
X44129000Y45468000D02*
X44129000Y45468000D01*
X44129000Y43968000D02*
X44129000Y43968000D01*
X44129000Y45468000D02*
G75*
G03*
X44129000Y43968000I0J-750000D01*
G01*
X44129000Y43968000D02*
G75*
G03*
X44129000Y45468000I0J750000D01*
G01*
X41589000Y45468000D02*
X41589000Y45468000D01*
X41589000Y43968000D02*
X41589000Y43968000D01*
X41589000Y45468000D02*
G75*
G03*
X41589000Y43968000I0J-750000D01*
G01*
X41589000Y43968000D02*
G75*
G03*
X41589000Y45468000I0J750000D01*
G01*
X39049000Y45468000D02*
X39049000Y45468000D01*
X39049000Y43968000D02*
X39049000Y43968000D01*
X39049000Y45468000D02*
G75*
G03*
X39049000Y43968000I0J-750000D01*
G01*
X39049000Y43968000D02*
G75*
G03*
X39049000Y45468000I0J750000D01*
G01*
X36509000Y45468000D02*
X36509000Y45468000D01*
X36509000Y43968000D02*
X36509000Y43968000D01*
X36509000Y45468000D02*
G75*
G03*
X36509000Y43968000I0J-750000D01*
G01*
X36509000Y43968000D02*
G75*
G03*
X36509000Y45468000I0J750000D01*
G01*
X33969000Y45468000D02*
X33969000Y45468000D01*
X33969000Y43968000D02*
X33969000Y43968000D01*
X33969000Y45468000D02*
G75*
G03*
X33969000Y43968000I0J-750000D01*
G01*
X33969000Y43968000D02*
G75*
G03*
X33969000Y45468000I0J750000D01*
G01*
X31429000Y45468000D02*
X31429000Y45468000D01*
X31429000Y43968000D02*
X31429000Y43968000D01*
X31429000Y45468000D02*
G75*
G03*
X31429000Y43968000I0J-750000D01*
G01*
X31429000Y43968000D02*
G75*
G03*
X31429000Y45468000I0J750000D01*
G01*
X31429000Y37848000D02*
X31429000Y37848000D01*
X31429000Y36348000D02*
X31429000Y36348000D01*
X31429000Y37848000D02*
G75*
G03*
X31429000Y36348000I0J-750000D01*
G01*
X31429000Y36348000D02*
G75*
G03*
X31429000Y37848000I0J750000D01*
G01*
X33969000Y37848000D02*
X33969000Y37848000D01*
X33969000Y36348000D02*
X33969000Y36348000D01*
X33969000Y37848000D02*
G75*
G03*
X33969000Y36348000I0J-750000D01*
G01*
X33969000Y36348000D02*
G75*
G03*
X33969000Y37848000I0J750000D01*
G01*
X36509000Y37848000D02*
X36509000Y37848000D01*
X36509000Y36348000D02*
X36509000Y36348000D01*
X36509000Y37848000D02*
G75*
G03*
X36509000Y36348000I0J-750000D01*
G01*
X36509000Y36348000D02*
G75*
G03*
X36509000Y37848000I0J750000D01*
G01*
X39049000Y37848000D02*
X39049000Y37848000D01*
X39049000Y36348000D02*
X39049000Y36348000D01*
X39049000Y37848000D02*
G75*
G03*
X39049000Y36348000I0J-750000D01*
G01*
X39049000Y36348000D02*
G75*
G03*
X39049000Y37848000I0J750000D01*
G01*
X41589000Y37848000D02*
X41589000Y37848000D01*
X41589000Y36348000D02*
X41589000Y36348000D01*
X41589000Y37848000D02*
G75*
G03*
X41589000Y36348000I0J-750000D01*
G01*
X41589000Y36348000D02*
G75*
G03*
X41589000Y37848000I0J750000D01*
G01*
X44129000Y37848000D02*
X44129000Y37848000D01*
X44129000Y36348000D02*
X44129000Y36348000D01*
X44129000Y37848000D02*
G75*
G03*
X44129000Y36348000I0J-750000D01*
G01*
X44129000Y36348000D02*
G75*
G03*
X44129000Y37848000I0J750000D01*
G01*
X46669000Y37848000D02*
X46669000Y37848000D01*
X46669000Y36348000D02*
X46669000Y36348000D01*
X46669000Y37848000D02*
G75*
G03*
X46669000Y36348000I0J-750000D01*
G01*
X46669000Y36348000D02*
G75*
G03*
X46669000Y37848000I0J750000D01*
G01*
X49209000Y37848000D02*
X49209000Y37848000D01*
X49209000Y36348000D02*
X49209000Y36348000D01*
X49209000Y37848000D02*
G75*
G03*
X49209000Y36348000I0J-750000D01*
G01*
X49209000Y36348000D02*
G75*
G03*
X49209000Y37848000I0J750000D01*
G01*
%TD*%
%TO.C,R1*%
X54400000Y62100000D02*
G75*
G03*
X54400000Y62100000I-650000J0D01*
G01*
X60720000Y62100000D02*
X60720000Y62100000D01*
X62020000Y62100000D02*
X62020000Y62100000D01*
X60720000Y62100000D02*
G75*
G03*
X62020000Y62100000I650000J0D01*
G01*
X62020000Y62100000D02*
G75*
G03*
X60720000Y62100000I-650000J0D01*
G01*
%TD*%
%TO.C,J4*%
X59375000Y10075000D02*
X59375000Y8825000D01*
X60625000Y8825000D01*
X60625000Y10075000D01*
X59375000Y10075000D01*
X60625000Y11450000D02*
X60625000Y11450000D01*
X59375000Y11450000D02*
X59375000Y11450000D01*
X60625000Y11450000D02*
G75*
G03*
X59375000Y11450000I-625000J0D01*
G01*
X59375000Y11450000D02*
G75*
G03*
X60625000Y11450000I625000J0D01*
G01*
X60625000Y13450000D02*
X60625000Y13450000D01*
X59375000Y13450000D02*
X59375000Y13450000D01*
X60625000Y13450000D02*
G75*
G03*
X59375000Y13450000I-625000J0D01*
G01*
X59375000Y13450000D02*
G75*
G03*
X60625000Y13450000I625000J0D01*
G01*
X60625000Y15450000D02*
X60625000Y15450000D01*
X59375000Y15450000D02*
X59375000Y15450000D01*
X60625000Y15450000D02*
G75*
G03*
X59375000Y15450000I-625000J0D01*
G01*
X59375000Y15450000D02*
G75*
G03*
X60625000Y15450000I625000J0D01*
G01*
%TD*%
%TO.C,A1*%
X50252000Y22354000D02*
X50252000Y20854000D01*
X51752000Y20854000D01*
X51752000Y22354000D01*
X50252000Y22354000D01*
X48462000Y22354000D02*
X48462000Y22354000D01*
X48462000Y20854000D02*
X48462000Y20854000D01*
X48462000Y22354000D02*
G75*
G03*
X48462000Y20854000I0J-750000D01*
G01*
X48462000Y20854000D02*
G75*
G03*
X48462000Y22354000I0J750000D01*
G01*
X45922000Y22354000D02*
X45922000Y22354000D01*
X45922000Y20854000D02*
X45922000Y20854000D01*
X45922000Y22354000D02*
G75*
G03*
X45922000Y20854000I0J-750000D01*
G01*
X45922000Y20854000D02*
G75*
G03*
X45922000Y22354000I0J750000D01*
G01*
X43382000Y22354000D02*
X43382000Y22354000D01*
X43382000Y20854000D02*
X43382000Y20854000D01*
X43382000Y22354000D02*
G75*
G03*
X43382000Y20854000I0J-750000D01*
G01*
X43382000Y20854000D02*
G75*
G03*
X43382000Y22354000I0J750000D01*
G01*
X40842000Y22354000D02*
X40842000Y22354000D01*
X40842000Y20854000D02*
X40842000Y20854000D01*
X40842000Y22354000D02*
G75*
G03*
X40842000Y20854000I0J-750000D01*
G01*
X40842000Y20854000D02*
G75*
G03*
X40842000Y22354000I0J750000D01*
G01*
X38302000Y22354000D02*
X38302000Y22354000D01*
X38302000Y20854000D02*
X38302000Y20854000D01*
X38302000Y22354000D02*
G75*
G03*
X38302000Y20854000I0J-750000D01*
G01*
X38302000Y20854000D02*
G75*
G03*
X38302000Y22354000I0J750000D01*
G01*
X35762000Y22354000D02*
X35762000Y22354000D01*
X35762000Y20854000D02*
X35762000Y20854000D01*
X35762000Y22354000D02*
G75*
G03*
X35762000Y20854000I0J-750000D01*
G01*
X35762000Y20854000D02*
G75*
G03*
X35762000Y22354000I0J750000D01*
G01*
X33222000Y22354000D02*
X33222000Y22354000D01*
X33222000Y20854000D02*
X33222000Y20854000D01*
X33222000Y22354000D02*
G75*
G03*
X33222000Y20854000I0J-750000D01*
G01*
X33222000Y20854000D02*
G75*
G03*
X33222000Y22354000I0J750000D01*
G01*
X30682000Y22354000D02*
X30682000Y22354000D01*
X30682000Y20854000D02*
X30682000Y20854000D01*
X30682000Y22354000D02*
G75*
G03*
X30682000Y20854000I0J-750000D01*
G01*
X30682000Y20854000D02*
G75*
G03*
X30682000Y22354000I0J750000D01*
G01*
X28142000Y22354000D02*
X28142000Y22354000D01*
X28142000Y20854000D02*
X28142000Y20854000D01*
X28142000Y22354000D02*
G75*
G03*
X28142000Y20854000I0J-750000D01*
G01*
X28142000Y20854000D02*
G75*
G03*
X28142000Y22354000I0J750000D01*
G01*
X25602000Y22354000D02*
X25602000Y22354000D01*
X25602000Y20854000D02*
X25602000Y20854000D01*
X25602000Y22354000D02*
G75*
G03*
X25602000Y20854000I0J-750000D01*
G01*
X25602000Y20854000D02*
G75*
G03*
X25602000Y22354000I0J750000D01*
G01*
X23062000Y22354000D02*
X23062000Y22354000D01*
X23062000Y20854000D02*
X23062000Y20854000D01*
X23062000Y22354000D02*
G75*
G03*
X23062000Y20854000I0J-750000D01*
G01*
X23062000Y20854000D02*
G75*
G03*
X23062000Y22354000I0J750000D01*
G01*
X20522000Y22354000D02*
X20522000Y22354000D01*
X20522000Y20854000D02*
X20522000Y20854000D01*
X20522000Y22354000D02*
G75*
G03*
X20522000Y20854000I0J-750000D01*
G01*
X20522000Y20854000D02*
G75*
G03*
X20522000Y22354000I0J750000D01*
G01*
X17982000Y22354000D02*
X17982000Y22354000D01*
X17982000Y20854000D02*
X17982000Y20854000D01*
X17982000Y22354000D02*
G75*
G03*
X17982000Y20854000I0J-750000D01*
G01*
X17982000Y20854000D02*
G75*
G03*
X17982000Y22354000I0J750000D01*
G01*
X15442000Y22354000D02*
X15442000Y22354000D01*
X15442000Y20854000D02*
X15442000Y20854000D01*
X15442000Y22354000D02*
G75*
G03*
X15442000Y20854000I0J-750000D01*
G01*
X15442000Y20854000D02*
G75*
G03*
X15442000Y22354000I0J750000D01*
G01*
X15442000Y7114000D02*
X15442000Y7114000D01*
X15442000Y5614000D02*
X15442000Y5614000D01*
X15442000Y7114000D02*
G75*
G03*
X15442000Y5614000I0J-750000D01*
G01*
X15442000Y5614000D02*
G75*
G03*
X15442000Y7114000I0J750000D01*
G01*
X17982000Y7114000D02*
X17982000Y7114000D01*
X17982000Y5614000D02*
X17982000Y5614000D01*
X17982000Y7114000D02*
G75*
G03*
X17982000Y5614000I0J-750000D01*
G01*
X17982000Y5614000D02*
G75*
G03*
X17982000Y7114000I0J750000D01*
G01*
X20522000Y7114000D02*
X20522000Y7114000D01*
X20522000Y5614000D02*
X20522000Y5614000D01*
X20522000Y7114000D02*
G75*
G03*
X20522000Y5614000I0J-750000D01*
G01*
X20522000Y5614000D02*
G75*
G03*
X20522000Y7114000I0J750000D01*
G01*
X23062000Y7114000D02*
X23062000Y7114000D01*
X23062000Y5614000D02*
X23062000Y5614000D01*
X23062000Y7114000D02*
G75*
G03*
X23062000Y5614000I0J-750000D01*
G01*
X23062000Y5614000D02*
G75*
G03*
X23062000Y7114000I0J750000D01*
G01*
X25602000Y7114000D02*
X25602000Y7114000D01*
X25602000Y5614000D02*
X25602000Y5614000D01*
X25602000Y7114000D02*
G75*
G03*
X25602000Y5614000I0J-750000D01*
G01*
X25602000Y5614000D02*
G75*
G03*
X25602000Y7114000I0J750000D01*
G01*
X28142000Y7114000D02*
X28142000Y7114000D01*
X28142000Y5614000D02*
X28142000Y5614000D01*
X28142000Y7114000D02*
G75*
G03*
X28142000Y5614000I0J-750000D01*
G01*
X28142000Y5614000D02*
G75*
G03*
X28142000Y7114000I0J750000D01*
G01*
X30682000Y7114000D02*
X30682000Y7114000D01*
X30682000Y5614000D02*
X30682000Y5614000D01*
X30682000Y7114000D02*
G75*
G03*
X30682000Y5614000I0J-750000D01*
G01*
X30682000Y5614000D02*
G75*
G03*
X30682000Y7114000I0J750000D01*
G01*
X33222000Y7114000D02*
X33222000Y7114000D01*
X33222000Y5614000D02*
X33222000Y5614000D01*
X33222000Y7114000D02*
G75*
G03*
X33222000Y5614000I0J-750000D01*
G01*
X33222000Y5614000D02*
G75*
G03*
X33222000Y7114000I0J750000D01*
G01*
X35762000Y7114000D02*
X35762000Y7114000D01*
X35762000Y5614000D02*
X35762000Y5614000D01*
X35762000Y7114000D02*
G75*
G03*
X35762000Y5614000I0J-750000D01*
G01*
X35762000Y5614000D02*
G75*
G03*
X35762000Y7114000I0J750000D01*
G01*
X38302000Y7114000D02*
X38302000Y7114000D01*
X38302000Y5614000D02*
X38302000Y5614000D01*
X38302000Y7114000D02*
G75*
G03*
X38302000Y5614000I0J-750000D01*
G01*
X38302000Y5614000D02*
G75*
G03*
X38302000Y7114000I0J750000D01*
G01*
X40842000Y7114000D02*
X40842000Y7114000D01*
X40842000Y5614000D02*
X40842000Y5614000D01*
X40842000Y7114000D02*
G75*
G03*
X40842000Y5614000I0J-750000D01*
G01*
X40842000Y5614000D02*
G75*
G03*
X40842000Y7114000I0J750000D01*
G01*
X43382000Y7114000D02*
X43382000Y7114000D01*
X43382000Y5614000D02*
X43382000Y5614000D01*
X43382000Y7114000D02*
G75*
G03*
X43382000Y5614000I0J-750000D01*
G01*
X43382000Y5614000D02*
G75*
G03*
X43382000Y7114000I0J750000D01*
G01*
X45922000Y7114000D02*
X45922000Y7114000D01*
X45922000Y5614000D02*
X45922000Y5614000D01*
X45922000Y7114000D02*
G75*
G03*
X45922000Y5614000I0J-750000D01*
G01*
X45922000Y5614000D02*
G75*
G03*
X45922000Y7114000I0J750000D01*
G01*
X48462000Y7114000D02*
X48462000Y7114000D01*
X48462000Y5614000D02*
X48462000Y5614000D01*
X48462000Y7114000D02*
G75*
G03*
X48462000Y5614000I0J-750000D01*
G01*
X48462000Y5614000D02*
G75*
G03*
X48462000Y7114000I0J750000D01*
G01*
X51002000Y7114000D02*
X51002000Y7114000D01*
X51002000Y5614000D02*
X51002000Y5614000D01*
X51002000Y7114000D02*
G75*
G03*
X51002000Y5614000I0J-750000D01*
G01*
X51002000Y5614000D02*
G75*
G03*
X51002000Y7114000I0J750000D01*
G01*
%TD*%
%TO.C,R3*%
X54440000Y56700000D02*
G75*
G03*
X54440000Y56700000I-650000J0D01*
G01*
X60760000Y56700000D02*
X60760000Y56700000D01*
X62060000Y56700000D02*
X62060000Y56700000D01*
X60760000Y56700000D02*
G75*
G03*
X62060000Y56700000I650000J0D01*
G01*
X62060000Y56700000D02*
G75*
G03*
X60760000Y56700000I-650000J0D01*
G01*
%TD*%
%TO.C,R5*%
X57340000Y6500000D02*
G75*
G03*
X57340000Y6500000I-650000J0D01*
G01*
X63660000Y6500000D02*
X63660000Y6500000D01*
X64960000Y6500000D02*
X64960000Y6500000D01*
X63660000Y6500000D02*
G75*
G03*
X64960000Y6500000I650000J0D01*
G01*
X64960000Y6500000D02*
G75*
G03*
X63660000Y6500000I-650000J0D01*
G01*
%TD*%
%TO.C,R4*%
X54440000Y54300000D02*
G75*
G03*
X54440000Y54300000I-650000J0D01*
G01*
X60760000Y54300000D02*
X60760000Y54300000D01*
X62060000Y54300000D02*
X62060000Y54300000D01*
X60760000Y54300000D02*
G75*
G03*
X62060000Y54300000I650000J0D01*
G01*
X62060000Y54300000D02*
G75*
G03*
X60760000Y54300000I-650000J0D01*
G01*
%TD*%
%TO.C,J2*%
X59750000Y66150000D02*
X59750000Y64650000D01*
X61250000Y64650000D01*
X61250000Y66150000D01*
X59750000Y66150000D01*
X57960000Y66150000D02*
X57960000Y66150000D01*
X57960000Y64650000D02*
X57960000Y64650000D01*
X57960000Y66150000D02*
G75*
G03*
X57960000Y64650000I0J-750000D01*
G01*
X57960000Y64650000D02*
G75*
G03*
X57960000Y66150000I0J750000D01*
G01*
X55420000Y66150000D02*
X55420000Y66150000D01*
X55420000Y64650000D02*
X55420000Y64650000D01*
X55420000Y66150000D02*
G75*
G03*
X55420000Y64650000I0J-750000D01*
G01*
X55420000Y64650000D02*
G75*
G03*
X55420000Y66150000I0J750000D01*
G01*
%TD*%
%TO.C,REF7*%
X88250000Y4000000D02*
G75*
G03*
X88250000Y4000000I-350000J0D01*
G01*
X84152944Y2302944D02*
G75*
G03*
X84152944Y2302944I-350000J0D01*
G01*
X83450000Y4000000D02*
G75*
G03*
X83450000Y4000000I-350000J0D01*
G01*
X88650000Y4000000D02*
G75*
G03*
X88650000Y4000000I-3150000J0D01*
G01*
X85850000Y1600000D02*
G75*
G03*
X85850000Y1600000I-350000J0D01*
G01*
X84152944Y5697056D02*
G75*
G03*
X84152944Y5697056I-350000J0D01*
G01*
X87547056Y5697056D02*
G75*
G03*
X87547056Y5697056I-350000J0D01*
G01*
X87547056Y2302944D02*
G75*
G03*
X87547056Y2302944I-350000J0D01*
G01*
X85850000Y6400000D02*
G75*
G03*
X85850000Y6400000I-350000J0D01*
G01*
%TD*%
%TO.C,R2*%
X54440000Y59000000D02*
G75*
G03*
X54440000Y59000000I-650000J0D01*
G01*
X60760000Y59000000D02*
X60760000Y59000000D01*
X62060000Y59000000D02*
X62060000Y59000000D01*
X60760000Y59000000D02*
G75*
G03*
X62060000Y59000000I650000J0D01*
G01*
X62060000Y59000000D02*
G75*
G03*
X60760000Y59000000I-650000J0D01*
G01*
%TD*%
%TO.C,REF6*%
X6047056Y69697056D02*
G75*
G03*
X6047056Y69697056I-350000J0D01*
G01*
X1950000Y68000000D02*
G75*
G03*
X1950000Y68000000I-350000J0D01*
G01*
X4350000Y70400000D02*
G75*
G03*
X4350000Y70400000I-350000J0D01*
G01*
X2652944Y66302944D02*
G75*
G03*
X2652944Y66302944I-350000J0D01*
G01*
X6750000Y68000000D02*
G75*
G03*
X6750000Y68000000I-350000J0D01*
G01*
X4350000Y65600000D02*
G75*
G03*
X4350000Y65600000I-350000J0D01*
G01*
X2652944Y69697056D02*
G75*
G03*
X2652944Y69697056I-350000J0D01*
G01*
X7150000Y68000000D02*
G75*
G03*
X7150000Y68000000I-3150000J0D01*
G01*
X6047056Y66302944D02*
G75*
G03*
X6047056Y66302944I-350000J0D01*
G01*
%TD*%
%TO.C,U1*%
X30709000Y54124000D02*
X30709000Y52624000D01*
X32209000Y52624000D01*
X32209000Y54124000D01*
X30709000Y54124000D01*
X33999000Y52624000D02*
X33999000Y52624000D01*
X33999000Y54124000D02*
X33999000Y54124000D01*
X33999000Y52624000D02*
G75*
G03*
X33999000Y54124000I0J750000D01*
G01*
X33999000Y54124000D02*
G75*
G03*
X33999000Y52624000I0J-750000D01*
G01*
X36539000Y52624000D02*
X36539000Y52624000D01*
X36539000Y54124000D02*
X36539000Y54124000D01*
X36539000Y52624000D02*
G75*
G03*
X36539000Y54124000I0J750000D01*
G01*
X36539000Y54124000D02*
G75*
G03*
X36539000Y52624000I0J-750000D01*
G01*
X39079000Y52624000D02*
X39079000Y52624000D01*
X39079000Y54124000D02*
X39079000Y54124000D01*
X39079000Y52624000D02*
G75*
G03*
X39079000Y54124000I0J750000D01*
G01*
X39079000Y54124000D02*
G75*
G03*
X39079000Y52624000I0J-750000D01*
G01*
X41619000Y52624000D02*
X41619000Y52624000D01*
X41619000Y54124000D02*
X41619000Y54124000D01*
X41619000Y52624000D02*
G75*
G03*
X41619000Y54124000I0J750000D01*
G01*
X41619000Y54124000D02*
G75*
G03*
X41619000Y52624000I0J-750000D01*
G01*
X44159000Y52624000D02*
X44159000Y52624000D01*
X44159000Y54124000D02*
X44159000Y54124000D01*
X44159000Y52624000D02*
G75*
G03*
X44159000Y54124000I0J750000D01*
G01*
X44159000Y54124000D02*
G75*
G03*
X44159000Y52624000I0J-750000D01*
G01*
X46699000Y52624000D02*
X46699000Y52624000D01*
X46699000Y54124000D02*
X46699000Y54124000D01*
X46699000Y52624000D02*
G75*
G03*
X46699000Y54124000I0J750000D01*
G01*
X46699000Y54124000D02*
G75*
G03*
X46699000Y52624000I0J-750000D01*
G01*
X49239000Y52624000D02*
X49239000Y52624000D01*
X49239000Y54124000D02*
X49239000Y54124000D01*
X49239000Y52624000D02*
G75*
G03*
X49239000Y54124000I0J750000D01*
G01*
X49239000Y54124000D02*
G75*
G03*
X49239000Y52624000I0J-750000D01*
G01*
X49239000Y60244000D02*
X49239000Y60244000D01*
X49239000Y61744000D02*
X49239000Y61744000D01*
X49239000Y60244000D02*
G75*
G03*
X49239000Y61744000I0J750000D01*
G01*
X49239000Y61744000D02*
G75*
G03*
X49239000Y60244000I0J-750000D01*
G01*
X46699000Y60244000D02*
X46699000Y60244000D01*
X46699000Y61744000D02*
X46699000Y61744000D01*
X46699000Y60244000D02*
G75*
G03*
X46699000Y61744000I0J750000D01*
G01*
X46699000Y61744000D02*
G75*
G03*
X46699000Y60244000I0J-750000D01*
G01*
X44159000Y60244000D02*
X44159000Y60244000D01*
X44159000Y61744000D02*
X44159000Y61744000D01*
X44159000Y60244000D02*
G75*
G03*
X44159000Y61744000I0J750000D01*
G01*
X44159000Y61744000D02*
G75*
G03*
X44159000Y60244000I0J-750000D01*
G01*
X41619000Y60244000D02*
X41619000Y60244000D01*
X41619000Y61744000D02*
X41619000Y61744000D01*
X41619000Y60244000D02*
G75*
G03*
X41619000Y61744000I0J750000D01*
G01*
X41619000Y61744000D02*
G75*
G03*
X41619000Y60244000I0J-750000D01*
G01*
X39079000Y60244000D02*
X39079000Y60244000D01*
X39079000Y61744000D02*
X39079000Y61744000D01*
X39079000Y60244000D02*
G75*
G03*
X39079000Y61744000I0J750000D01*
G01*
X39079000Y61744000D02*
G75*
G03*
X39079000Y60244000I0J-750000D01*
G01*
X36539000Y60244000D02*
X36539000Y60244000D01*
X36539000Y61744000D02*
X36539000Y61744000D01*
X36539000Y60244000D02*
G75*
G03*
X36539000Y61744000I0J750000D01*
G01*
X36539000Y61744000D02*
G75*
G03*
X36539000Y60244000I0J-750000D01*
G01*
X33999000Y60244000D02*
X33999000Y60244000D01*
X33999000Y61744000D02*
X33999000Y61744000D01*
X33999000Y60244000D02*
G75*
G03*
X33999000Y61744000I0J750000D01*
G01*
X33999000Y61744000D02*
G75*
G03*
X33999000Y60244000I0J-750000D01*
G01*
X31459000Y60244000D02*
X31459000Y60244000D01*
X31459000Y61744000D02*
X31459000Y61744000D01*
X31459000Y60244000D02*
G75*
G03*
X31459000Y61744000I0J750000D01*
G01*
X31459000Y61744000D02*
G75*
G03*
X31459000Y60244000I0J-750000D01*
G01*
%TD*%
M02*
