  0
SECTION
  2
HEADER
  9
$ANGBASE
  50
0.0
  9
$ANGDIR
  70
1
  9
$MEASUREMENT
  70
0
  0
ENDSEC
  0
SECTION
  2
TABLES
  0
TABLE
  2
LTYPE
  70
4
  0
LTYPE
  5
40F
  2
CONTINUOUS
  70
0
  3
Solid line
  72
65
  73
0
  40
0.0
  0
LTYPE
  5
410
  2
DASHDOT
 70
0
  3
Dash Dot ____ _ ____ _
 72
65
 73
4
 40
2.0
 49
1.25
 49
-0.25
 49
0.25
 49
-0.25
  0
LTYPE
  5
411
  2
DASHED
 70
0
  3
Dashed __ __ __ __ __
 72
65
 73
2
 40
0.75
 49
0.5
 49
-0.25
  0
LTYPE
  5
43B
  2
DOTTED
 70
0
  3
Dotted .  .  .  .
 72
65
 73
2
 40
0.2
 49
0.0
 49
-0.2
  0
ENDTAB
  0
TABLE
  2
STYLE
  70
4
  0
STYLE
  2
KICAD
  70
0
  40
0
  41
1
  42
1
  50
0
  71
0
  3
isocp.shx
  0
STYLE
  2
KICADB
  70
0
  40
0
  41
1
  42
1
  50
0
  71
0
  3
isocp.shx
  0
STYLE
  2
KICADI
  70
0
  40
0
  41
1
  42
1
  50
15
  71
0
  3
isocp.shx
  0
STYLE
  2
KICADBI
  70
0
  40
0
  41
1
  42
1
  50
15
  71
0
  3
isocp.shx
  0
ENDTAB
  0
TABLE
  2
LAYER
  70
1
  0
LAYER
  2
BLACK
  70
0
  62
7
  6
CONTINUOUS
  0
ENDTAB
  0
ENDSEC
  0
SECTION
  2
ENTITIES
0
LINE
8
BLACK
6
CONTINUOUS
10
6.96859
20
-6.53572
11
6.96859
21
-7.79556
0
LINE
8
BLACK
6
CONTINUOUS
10
6.96859
20
-7.79556
11
11.2206
21
-7.79556
0
LINE
8
BLACK
6
CONTINUOUS
10
11.2206
20
-7.79556
11
11.2206
21
-6.53572
0
LINE
8
BLACK
6
CONTINUOUS
10
11.2206
20
-6.53572
11
6.96859
21
-6.53572
0
LINE
8
BLACK
6
CONTINUOUS
10
0.393701
20
-0.393701
11
0.393701
21
-7.8743
0
LINE
8
BLACK
6
CONTINUOUS
10
0.393701
20
-7.8743
11
11.2993
21
-7.8743
0
LINE
8
BLACK
6
CONTINUOUS
10
11.2993
20
-7.8743
11
11.2993
21
-0.393701
0
LINE
8
BLACK
6
CONTINUOUS
10
11.2993
20
-0.393701
11
0.393701
21
-0.393701
0
LINE
8
BLACK
6
CONTINUOUS
10
0.472441
20
-0.472441
11
0.472441
21
-7.79556
0
LINE
8
BLACK
6
CONTINUOUS
10
0.472441
20
-7.79556
11
11.2206
21
-7.79556
0
LINE
8
BLACK
6
CONTINUOUS
10
11.2206
20
-7.79556
11
11.2206
21
-0.472441
0
LINE
8
BLACK
6
CONTINUOUS
10
11.2206
20
-0.472441
11
0.472441
21
-0.472441
0
LINE
8
BLACK
6
CONTINUOUS
10
2.3622
20
-0.472441
11
2.3622
21
-0.393701
0
LINE
8
BLACK
6
CONTINUOUS
10
4.33071
20
-0.472441
11
4.33071
21
-0.393701
0
LINE
8
BLACK
6
CONTINUOUS
10
6.29921
20
-0.472441
11
6.29921
21
-0.393701
0
LINE
8
BLACK
6
CONTINUOUS
10
8.26772
20
-0.472441
11
8.26772
21
-0.393701
0
LINE
8
BLACK
6
CONTINUOUS
10
10.2362
20
-0.472441
11
10.2362
21
-0.393701
0
LINE
8
BLACK
6
CONTINUOUS
10
1.4199
20
-0.456224
11
1.39065
21
-0.456224
0
LINE
8
BLACK
6
CONTINUOUS
10
1.40528
20
-0.456224
11
1.40528
21
-0.405043
0
LINE
8
BLACK
6
CONTINUOUS
10
1.40528
20
-0.405043
11
1.4004
21
-0.412355
0
LINE
8
BLACK
6
CONTINUOUS
10
1.4004
20
-0.412355
11
1.39553
21
-0.417229
0
LINE
8
BLACK
6
CONTINUOUS
10
1.39553
20
-0.417229
11
1.39065
21
-0.419666
0
LINE
8
BLACK
6
CONTINUOUS
10
3.35916
20
-0.409917
11
3.3616
21
-0.40748
0
LINE
8
BLACK
6
CONTINUOUS
10
3.3616
20
-0.40748
11
3.36647
21
-0.405043
0
LINE
8
BLACK
6
CONTINUOUS
10
3.36647
20
-0.405043
11
3.37866
21
-0.405043
0
LINE
8
BLACK
6
CONTINUOUS
10
3.37866
20
-0.405043
11
3.38353
21
-0.40748
0
LINE
8
BLACK
6
CONTINUOUS
10
3.38353
20
-0.40748
11
3.38597
21
-0.409917
0
LINE
8
BLACK
6
CONTINUOUS
10
3.38597
20
-0.409917
11
3.3884
21
-0.414792
0
LINE
8
BLACK
6
CONTINUOUS
10
3.3884
20
-0.414792
11
3.3884
21
-0.419666
0
LINE
8
BLACK
6
CONTINUOUS
10
3.3884
20
-0.419666
11
3.38597
21
-0.426978
0
LINE
8
BLACK
6
CONTINUOUS
10
3.38597
20
-0.426978
11
3.35672
21
-0.456224
0
LINE
8
BLACK
6
CONTINUOUS
10
3.35672
20
-0.456224
11
3.3884
21
-0.456224
0
LINE
8
BLACK
6
CONTINUOUS
10
5.32522
20
-0.405043
11
5.35691
21
-0.405043
0
LINE
8
BLACK
6
CONTINUOUS
10
5.35691
20
-0.405043
11
5.33985
21
-0.424541
0
LINE
8
BLACK
6
CONTINUOUS
10
5.33985
20
-0.424541
11
5.34716
21
-0.424541
0
LINE
8
BLACK
6
CONTINUOUS
10
5.34716
20
-0.424541
11
5.35203
21
-0.426978
0
LINE
8
BLACK
6
CONTINUOUS
10
5.35203
20
-0.426978
11
5.35447
21
-0.429415
0
LINE
8
BLACK
6
CONTINUOUS
10
5.35447
20
-0.429415
11
5.35691
21
-0.434289
0
LINE
8
BLACK
6
CONTINUOUS
10
5.35691
20
-0.434289
11
5.35691
21
-0.446475
0
LINE
8
BLACK
6
CONTINUOUS
10
5.35691
20
-0.446475
11
5.35447
21
-0.45135
0
LINE
8
BLACK
6
CONTINUOUS
10
5.35447
20
-0.45135
11
5.35203
21
-0.453787
0
LINE
8
BLACK
6
CONTINUOUS
10
5.35203
20
-0.453787
11
5.34716
21
-0.456224
0
LINE
8
BLACK
6
CONTINUOUS
10
5.34716
20
-0.456224
11
5.33254
21
-0.456224
0
LINE
8
BLACK
6
CONTINUOUS
10
5.33254
20
-0.456224
11
5.32766
21
-0.453787
0
LINE
8
BLACK
6
CONTINUOUS
10
5.32766
20
-0.453787
11
5.32522
21
-0.45135
0
LINE
8
BLACK
6
CONTINUOUS
10
7.32054
20
-0.422103
11
7.32054
21
-0.456224
0
LINE
8
BLACK
6
CONTINUOUS
10
7.30835
20
-0.402606
11
7.29617
21
-0.439164
0
LINE
8
BLACK
6
CONTINUOUS
10
7.29617
20
-0.439164
11
7.32785
21
-0.439164
0
LINE
8
BLACK
6
CONTINUOUS
10
9.29148
20
-0.405043
11
9.26711
21
-0.405043
0
LINE
8
BLACK
6
CONTINUOUS
10
9.26711
20
-0.405043
11
9.26467
21
-0.429415
0
LINE
8
BLACK
6
CONTINUOUS
10
9.26467
20
-0.429415
11
9.26711
21
-0.426978
0
LINE
8
BLACK
6
CONTINUOUS
10
9.26711
20
-0.426978
11
9.27198
21
-0.424541
0
LINE
8
BLACK
6
CONTINUOUS
10
9.27198
20
-0.424541
11
9.28417
21
-0.424541
0
LINE
8
BLACK
6
CONTINUOUS
10
9.28417
20
-0.424541
11
9.28904
21
-0.426978
0
LINE
8
BLACK
6
CONTINUOUS
10
9.28904
20
-0.426978
11
9.29148
21
-0.429415
0
LINE
8
BLACK
6
CONTINUOUS
10
9.29148
20
-0.429415
11
9.29392
21
-0.434289
0
LINE
8
BLACK
6
CONTINUOUS
10
9.29392
20
-0.434289
11
9.29392
21
-0.446475
0
LINE
8
BLACK
6
CONTINUOUS
10
9.29392
20
-0.446475
11
9.29148
21
-0.45135
0
LINE
8
BLACK
6
CONTINUOUS
10
9.29148
20
-0.45135
11
9.28904
21
-0.453787
0
LINE
8
BLACK
6
CONTINUOUS
10
9.28904
20
-0.453787
11
9.28417
21
-0.456224
0
LINE
8
BLACK
6
CONTINUOUS
10
9.28417
20
-0.456224
11
9.27198
21
-0.456224
0
LINE
8
BLACK
6
CONTINUOUS
10
9.27198
20
-0.456224
11
9.26711
21
-0.453787
0
LINE
8
BLACK
6
CONTINUOUS
10
9.26711
20
-0.453787
11
9.26467
21
-0.45135
0
LINE
8
BLACK
6
CONTINUOUS
10
11.2575
20
-0.405043
11
11.2478
21
-0.405043
0
LINE
8
BLACK
6
CONTINUOUS
10
11.2478
20
-0.405043
11
11.2429
21
-0.40748
0
LINE
8
BLACK
6
CONTINUOUS
10
11.2429
20
-0.40748
11
11.2405
21
-0.409917
0
LINE
8
BLACK
6
CONTINUOUS
10
11.2405
20
-0.409917
11
11.2356
21
-0.417229
0
LINE
8
BLACK
6
CONTINUOUS
10
11.2356
20
-0.417229
11
11.2332
21
-0.426978
0
LINE
8
BLACK
6
CONTINUOUS
10
11.2332
20
-0.426978
11
11.2332
21
-0.446475
0
LINE
8
BLACK
6
CONTINUOUS
10
11.2332
20
-0.446475
11
11.2356
21
-0.45135
0
LINE
8
BLACK
6
CONTINUOUS
10
11.2356
20
-0.45135
11
11.238
21
-0.453787
0
LINE
8
BLACK
6
CONTINUOUS
10
11.238
20
-0.453787
11
11.2429
21
-0.456224
0
LINE
8
BLACK
6
CONTINUOUS
10
11.2429
20
-0.456224
11
11.2527
21
-0.456224
0
LINE
8
BLACK
6
CONTINUOUS
10
11.2527
20
-0.456224
11
11.2575
21
-0.453787
0
LINE
8
BLACK
6
CONTINUOUS
10
11.2575
20
-0.453787
11
11.26
21
-0.45135
0
LINE
8
BLACK
6
CONTINUOUS
10
11.26
20
-0.45135
11
11.2624
21
-0.446475
0
LINE
8
BLACK
6
CONTINUOUS
10
11.2624
20
-0.446475
11
11.2624
21
-0.434289
0
LINE
8
BLACK
6
CONTINUOUS
10
11.2624
20
-0.434289
11
11.26
21
-0.429415
0
LINE
8
BLACK
6
CONTINUOUS
10
11.26
20
-0.429415
11
11.2575
21
-0.426978
0
LINE
8
BLACK
6
CONTINUOUS
10
11.2575
20
-0.426978
11
11.2527
21
-0.424541
0
LINE
8
BLACK
6
CONTINUOUS
10
11.2527
20
-0.424541
11
11.2429
21
-0.424541
0
LINE
8
BLACK
6
CONTINUOUS
10
11.2429
20
-0.424541
11
11.238
21
-0.426978
0
LINE
8
BLACK
6
CONTINUOUS
10
11.238
20
-0.426978
11
11.2356
21
-0.429415
0
LINE
8
BLACK
6
CONTINUOUS
10
11.2356
20
-0.429415
11
11.2332
21
-0.434289
0
LINE
8
BLACK
6
CONTINUOUS
10
2.3622
20
-7.79556
11
2.3622
21
-7.8743
0
LINE
8
BLACK
6
CONTINUOUS
10
4.33071
20
-7.79556
11
4.33071
21
-7.8743
0
LINE
8
BLACK
6
CONTINUOUS
10
6.29921
20
-7.79556
11
6.29921
21
-7.8743
0
LINE
8
BLACK
6
CONTINUOUS
10
8.26772
20
-7.79556
11
8.26772
21
-7.8743
0
LINE
8
BLACK
6
CONTINUOUS
10
10.2362
20
-7.79556
11
10.2362
21
-7.8743
0
LINE
8
BLACK
6
CONTINUOUS
10
1.4199
20
-7.85808
11
1.39065
21
-7.85808
0
LINE
8
BLACK
6
CONTINUOUS
10
1.40528
20
-7.85808
11
1.40528
21
-7.8069
0
LINE
8
BLACK
6
CONTINUOUS
10
1.40528
20
-7.8069
11
1.4004
21
-7.81421
0
LINE
8
BLACK
6
CONTINUOUS
10
1.4004
20
-7.81421
11
1.39553
21
-7.81909
0
LINE
8
BLACK
6
CONTINUOUS
10
1.39553
20
-7.81909
11
1.39065
21
-7.82152
0
LINE
8
BLACK
6
CONTINUOUS
10
3.35916
20
-7.81178
11
3.3616
21
-7.80934
0
LINE
8
BLACK
6
CONTINUOUS
10
3.3616
20
-7.80934
11
3.36647
21
-7.8069
0
LINE
8
BLACK
6
CONTINUOUS
10
3.36647
20
-7.8069
11
3.37866
21
-7.8069
0
LINE
8
BLACK
6
CONTINUOUS
10
3.37866
20
-7.8069
11
3.38353
21
-7.80934
0
LINE
8
BLACK
6
CONTINUOUS
10
3.38353
20
-7.80934
11
3.38597
21
-7.81178
0
LINE
8
BLACK
6
CONTINUOUS
10
3.38597
20
-7.81178
11
3.3884
21
-7.81665
0
LINE
8
BLACK
6
CONTINUOUS
10
3.3884
20
-7.81665
11
3.3884
21
-7.82152
0
LINE
8
BLACK
6
CONTINUOUS
10
3.3884
20
-7.82152
11
3.38597
21
-7.82884
0
LINE
8
BLACK
6
CONTINUOUS
10
3.38597
20
-7.82884
11
3.35672
21
-7.85808
0
LINE
8
BLACK
6
CONTINUOUS
10
3.35672
20
-7.85808
11
3.3884
21
-7.85808
0
LINE
8
BLACK
6
CONTINUOUS
10
5.32522
20
-7.8069
11
5.35691
21
-7.8069
0
LINE
8
BLACK
6
CONTINUOUS
10
5.35691
20
-7.8069
11
5.33985
21
-7.8264
0
LINE
8
BLACK
6
CONTINUOUS
10
5.33985
20
-7.8264
11
5.34716
21
-7.8264
0
LINE
8
BLACK
6
CONTINUOUS
10
5.34716
20
-7.8264
11
5.35203
21
-7.82884
0
LINE
8
BLACK
6
CONTINUOUS
10
5.35203
20
-7.82884
11
5.35447
21
-7.83127
0
LINE
8
BLACK
6
CONTINUOUS
10
5.35447
20
-7.83127
11
5.35691
21
-7.83615
0
LINE
8
BLACK
6
CONTINUOUS
10
5.35691
20
-7.83615
11
5.35691
21
-7.84833
0
LINE
8
BLACK
6
CONTINUOUS
10
5.35691
20
-7.84833
11
5.35447
21
-7.85321
0
LINE
8
BLACK
6
CONTINUOUS
10
5.35447
20
-7.85321
11
5.35203
21
-7.85565
0
LINE
8
BLACK
6
CONTINUOUS
10
5.35203
20
-7.85565
11
5.34716
21
-7.85808
0
LINE
8
BLACK
6
CONTINUOUS
10
5.34716
20
-7.85808
11
5.33254
21
-7.85808
0
LINE
8
BLACK
6
CONTINUOUS
10
5.33254
20
-7.85808
11
5.32766
21
-7.85565
0
LINE
8
BLACK
6
CONTINUOUS
10
5.32766
20
-7.85565
11
5.32522
21
-7.85321
0
LINE
8
BLACK
6
CONTINUOUS
10
7.32054
20
-7.82396
11
7.32054
21
-7.85808
0
LINE
8
BLACK
6
CONTINUOUS
10
7.30835
20
-7.80446
11
7.29617
21
-7.84102
0
LINE
8
BLACK
6
CONTINUOUS
10
7.29617
20
-7.84102
11
7.32785
21
-7.84102
0
LINE
8
BLACK
6
CONTINUOUS
10
9.29148
20
-7.8069
11
9.26711
21
-7.8069
0
LINE
8
BLACK
6
CONTINUOUS
10
9.26711
20
-7.8069
11
9.26467
21
-7.83127
0
LINE
8
BLACK
6
CONTINUOUS
10
9.26467
20
-7.83127
11
9.26711
21
-7.82884
0
LINE
8
BLACK
6
CONTINUOUS
10
9.26711
20
-7.82884
11
9.27198
21
-7.8264
0
LINE
8
BLACK
6
CONTINUOUS
10
9.27198
20
-7.8264
11
9.28417
21
-7.8264
0
LINE
8
BLACK
6
CONTINUOUS
10
9.28417
20
-7.8264
11
9.28904
21
-7.82884
0
LINE
8
BLACK
6
CONTINUOUS
10
9.28904
20
-7.82884
11
9.29148
21
-7.83127
0
LINE
8
BLACK
6
CONTINUOUS
10
9.29148
20
-7.83127
11
9.29392
21
-7.83615
0
LINE
8
BLACK
6
CONTINUOUS
10
9.29392
20
-7.83615
11
9.29392
21
-7.84833
0
LINE
8
BLACK
6
CONTINUOUS
10
9.29392
20
-7.84833
11
9.29148
21
-7.85321
0
LINE
8
BLACK
6
CONTINUOUS
10
9.29148
20
-7.85321
11
9.28904
21
-7.85565
0
LINE
8
BLACK
6
CONTINUOUS
10
9.28904
20
-7.85565
11
9.28417
21
-7.85808
0
LINE
8
BLACK
6
CONTINUOUS
10
9.28417
20
-7.85808
11
9.27198
21
-7.85808
0
LINE
8
BLACK
6
CONTINUOUS
10
9.27198
20
-7.85808
11
9.26711
21
-7.85565
0
LINE
8
BLACK
6
CONTINUOUS
10
9.26711
20
-7.85565
11
9.26467
21
-7.85321
0
LINE
8
BLACK
6
CONTINUOUS
10
11.2575
20
-7.8069
11
11.2478
21
-7.8069
0
LINE
8
BLACK
6
CONTINUOUS
10
11.2478
20
-7.8069
11
11.2429
21
-7.80934
0
LINE
8
BLACK
6
CONTINUOUS
10
11.2429
20
-7.80934
11
11.2405
21
-7.81178
0
LINE
8
BLACK
6
CONTINUOUS
10
11.2405
20
-7.81178
11
11.2356
21
-7.81909
0
LINE
8
BLACK
6
CONTINUOUS
10
11.2356
20
-7.81909
11
11.2332
21
-7.82884
0
LINE
8
BLACK
6
CONTINUOUS
10
11.2332
20
-7.82884
11
11.2332
21
-7.84833
0
LINE
8
BLACK
6
CONTINUOUS
10
11.2332
20
-7.84833
11
11.2356
21
-7.85321
0
LINE
8
BLACK
6
CONTINUOUS
10
11.2356
20
-7.85321
11
11.238
21
-7.85565
0
LINE
8
BLACK
6
CONTINUOUS
10
11.238
20
-7.85565
11
11.2429
21
-7.85808
0
LINE
8
BLACK
6
CONTINUOUS
10
11.2429
20
-7.85808
11
11.2527
21
-7.85808
0
LINE
8
BLACK
6
CONTINUOUS
10
11.2527
20
-7.85808
11
11.2575
21
-7.85565
0
LINE
8
BLACK
6
CONTINUOUS
10
11.2575
20
-7.85565
11
11.26
21
-7.85321
0
LINE
8
BLACK
6
CONTINUOUS
10
11.26
20
-7.85321
11
11.2624
21
-7.84833
0
LINE
8
BLACK
6
CONTINUOUS
10
11.2624
20
-7.84833
11
11.2624
21
-7.83615
0
LINE
8
BLACK
6
CONTINUOUS
10
11.2624
20
-7.83615
11
11.26
21
-7.83127
0
LINE
8
BLACK
6
CONTINUOUS
10
11.26
20
-7.83127
11
11.2575
21
-7.82884
0
LINE
8
BLACK
6
CONTINUOUS
10
11.2575
20
-7.82884
11
11.2527
21
-7.8264
0
LINE
8
BLACK
6
CONTINUOUS
10
11.2527
20
-7.8264
11
11.2429
21
-7.8264
0
LINE
8
BLACK
6
CONTINUOUS
10
11.2429
20
-7.8264
11
11.238
21
-7.82884
0
LINE
8
BLACK
6
CONTINUOUS
10
11.238
20
-7.82884
11
11.2356
21
-7.83127
0
LINE
8
BLACK
6
CONTINUOUS
10
11.2356
20
-7.83127
11
11.2332
21
-7.83615
0
LINE
8
BLACK
6
CONTINUOUS
10
0.393701
20
-2.3622
11
0.472441
21
-2.3622
0
LINE
8
BLACK
6
CONTINUOUS
10
0.393701
20
-4.33071
11
0.472441
21
-4.33071
0
LINE
8
BLACK
6
CONTINUOUS
10
0.393701
20
-6.29921
11
0.472441
21
-6.29921
0
LINE
8
BLACK
6
CONTINUOUS
10
0.420885
20
-1.38648
11
0.445257
21
-1.38648
0
LINE
8
BLACK
6
CONTINUOUS
10
0.41601
20
-1.40111
11
0.433071
21
-1.34993
0
LINE
8
BLACK
6
CONTINUOUS
10
0.433071
20
-1.34993
11
0.450131
21
-1.40111
0
LINE
8
BLACK
6
CONTINUOUS
10
0.436727
20
-3.3428
11
0.444038
21
-3.34524
0
LINE
8
BLACK
6
CONTINUOUS
10
0.444038
20
-3.34524
11
0.446475
21
-3.34768
0
LINE
8
BLACK
6
CONTINUOUS
10
0.446475
20
-3.34768
11
0.448913
21
-3.35255
0
LINE
8
BLACK
6
CONTINUOUS
10
0.448913
20
-3.35255
11
0.448913
21
-3.35986
0
LINE
8
BLACK
6
CONTINUOUS
10
0.448913
20
-3.35986
11
0.446475
21
-3.36474
0
LINE
8
BLACK
6
CONTINUOUS
10
0.446475
20
-3.36474
11
0.444038
21
-3.36717
0
LINE
8
BLACK
6
CONTINUOUS
10
0.444038
20
-3.36717
11
0.439164
21
-3.36961
0
LINE
8
BLACK
6
CONTINUOUS
10
0.439164
20
-3.36961
11
0.419666
21
-3.36961
0
LINE
8
BLACK
6
CONTINUOUS
10
0.419666
20
-3.36961
11
0.419666
21
-3.31843
0
LINE
8
BLACK
6
CONTINUOUS
10
0.419666
20
-3.31843
11
0.436727
21
-3.31843
0
LINE
8
BLACK
6
CONTINUOUS
10
0.436727
20
-3.31843
11
0.441601
21
-3.32087
0
LINE
8
BLACK
6
CONTINUOUS
10
0.441601
20
-3.32087
11
0.444038
21
-3.3233
0
LINE
8
BLACK
6
CONTINUOUS
10
0.444038
20
-3.3233
11
0.446475
21
-3.32818
0
LINE
8
BLACK
6
CONTINUOUS
10
0.446475
20
-3.32818
11
0.446475
21
-3.33305
0
LINE
8
BLACK
6
CONTINUOUS
10
0.446475
20
-3.33305
11
0.444038
21
-3.33793
0
LINE
8
BLACK
6
CONTINUOUS
10
0.444038
20
-3.33793
11
0.441601
21
-3.34036
0
LINE
8
BLACK
6
CONTINUOUS
10
0.441601
20
-3.34036
11
0.436727
21
-3.3428
0
LINE
8
BLACK
6
CONTINUOUS
10
0.436727
20
-3.3428
11
0.419666
21
-3.3428
0
LINE
8
BLACK
6
CONTINUOUS
10
0.448913
20
-5.33324
11
0.446475
21
-5.33568
0
LINE
8
BLACK
6
CONTINUOUS
10
0.446475
20
-5.33568
11
0.439164
21
-5.33811
0
LINE
8
BLACK
6
CONTINUOUS
10
0.439164
20
-5.33811
11
0.434289
21
-5.33811
0
LINE
8
BLACK
6
CONTINUOUS
10
0.434289
20
-5.33811
11
0.426978
21
-5.33568
0
LINE
8
BLACK
6
CONTINUOUS
10
0.426978
20
-5.33568
11
0.422103
21
-5.3308
0
LINE
8
BLACK
6
CONTINUOUS
10
0.422103
20
-5.3308
11
0.419666
21
-5.32593
0
LINE
8
BLACK
6
CONTINUOUS
10
0.419666
20
-5.32593
11
0.417229
21
-5.31618
0
LINE
8
BLACK
6
CONTINUOUS
10
0.417229
20
-5.31618
11
0.417229
21
-5.30887
0
LINE
8
BLACK
6
CONTINUOUS
10
0.417229
20
-5.30887
11
0.419666
21
-5.29912
0
LINE
8
BLACK
6
CONTINUOUS
10
0.419666
20
-5.29912
11
0.422103
21
-5.29424
0
LINE
8
BLACK
6
CONTINUOUS
10
0.422103
20
-5.29424
11
0.426978
21
-5.28937
0
LINE
8
BLACK
6
CONTINUOUS
10
0.426978
20
-5.28937
11
0.434289
21
-5.28693
0
LINE
8
BLACK
6
CONTINUOUS
10
0.434289
20
-5.28693
11
0.439164
21
-5.28693
0
LINE
8
BLACK
6
CONTINUOUS
10
0.439164
20
-5.28693
11
0.446475
21
-5.28937
0
LINE
8
BLACK
6
CONTINUOUS
10
0.446475
20
-5.28937
11
0.448913
21
-5.29181
0
LINE
8
BLACK
6
CONTINUOUS
10
0.419666
20
-7.30662
11
0.419666
21
-7.25544
0
LINE
8
BLACK
6
CONTINUOUS
10
0.419666
20
-7.25544
11
0.431852
21
-7.25544
0
LINE
8
BLACK
6
CONTINUOUS
10
0.431852
20
-7.25544
11
0.439164
21
-7.25787
0
LINE
8
BLACK
6
CONTINUOUS
10
0.439164
20
-7.25787
11
0.444038
21
-7.26275
0
LINE
8
BLACK
6
CONTINUOUS
10
0.444038
20
-7.26275
11
0.446475
21
-7.26762
0
LINE
8
BLACK
6
CONTINUOUS
10
0.446475
20
-7.26762
11
0.448913
21
-7.27737
0
LINE
8
BLACK
6
CONTINUOUS
10
0.448913
20
-7.27737
11
0.448913
21
-7.28468
0
LINE
8
BLACK
6
CONTINUOUS
10
0.448913
20
-7.28468
11
0.446475
21
-7.29443
0
LINE
8
BLACK
6
CONTINUOUS
10
0.446475
20
-7.29443
11
0.444038
21
-7.29931
0
LINE
8
BLACK
6
CONTINUOUS
10
0.444038
20
-7.29931
11
0.439164
21
-7.30418
0
LINE
8
BLACK
6
CONTINUOUS
10
0.439164
20
-7.30418
11
0.431852
21
-7.30662
0
LINE
8
BLACK
6
CONTINUOUS
10
0.431852
20
-7.30662
11
0.419666
21
-7.30662
0
LINE
8
BLACK
6
CONTINUOUS
10
11.2993
20
-2.3622
11
11.2206
21
-2.3622
0
LINE
8
BLACK
6
CONTINUOUS
10
11.2993
20
-4.33071
11
11.2206
21
-4.33071
0
LINE
8
BLACK
6
CONTINUOUS
10
11.2993
20
-6.29921
11
11.2206
21
-6.29921
0
LINE
8
BLACK
6
CONTINUOUS
10
11.2477
20
-1.38648
11
11.2721
21
-1.38648
0
LINE
8
BLACK
6
CONTINUOUS
10
11.2429
20
-1.40111
11
11.2599
21
-1.34993
0
LINE
8
BLACK
6
CONTINUOUS
10
11.2599
20
-1.34993
11
11.277
21
-1.40111
0
LINE
8
BLACK
6
CONTINUOUS
10
11.2636
20
-3.3428
11
11.2709
21
-3.34524
0
LINE
8
BLACK
6
CONTINUOUS
10
11.2709
20
-3.34524
11
11.2733
21
-3.34768
0
LINE
8
BLACK
6
CONTINUOUS
10
11.2733
20
-3.34768
11
11.2758
21
-3.35255
0
LINE
8
BLACK
6
CONTINUOUS
10
11.2758
20
-3.35255
11
11.2758
21
-3.35986
0
LINE
8
BLACK
6
CONTINUOUS
10
11.2758
20
-3.35986
11
11.2733
21
-3.36474
0
LINE
8
BLACK
6
CONTINUOUS
10
11.2733
20
-3.36474
11
11.2709
21
-3.36717
0
LINE
8
BLACK
6
CONTINUOUS
10
11.2709
20
-3.36717
11
11.266
21
-3.36961
0
LINE
8
BLACK
6
CONTINUOUS
10
11.266
20
-3.36961
11
11.2465
21
-3.36961
0
LINE
8
BLACK
6
CONTINUOUS
10
11.2465
20
-3.36961
11
11.2465
21
-3.31843
0
LINE
8
BLACK
6
CONTINUOUS
10
11.2465
20
-3.31843
11
11.2636
21
-3.31843
0
LINE
8
BLACK
6
CONTINUOUS
10
11.2636
20
-3.31843
11
11.2685
21
-3.32087
0
LINE
8
BLACK
6
CONTINUOUS
10
11.2685
20
-3.32087
11
11.2709
21
-3.3233
0
LINE
8
BLACK
6
CONTINUOUS
10
11.2709
20
-3.3233
11
11.2733
21
-3.32818
0
LINE
8
BLACK
6
CONTINUOUS
10
11.2733
20
-3.32818
11
11.2733
21
-3.33305
0
LINE
8
BLACK
6
CONTINUOUS
10
11.2733
20
-3.33305
11
11.2709
21
-3.33793
0
LINE
8
BLACK
6
CONTINUOUS
10
11.2709
20
-3.33793
11
11.2685
21
-3.34036
0
LINE
8
BLACK
6
CONTINUOUS
10
11.2685
20
-3.34036
11
11.2636
21
-3.3428
0
LINE
8
BLACK
6
CONTINUOUS
10
11.2636
20
-3.3428
11
11.2465
21
-3.3428
0
LINE
8
BLACK
6
CONTINUOUS
10
11.2758
20
-5.33324
11
11.2733
21
-5.33568
0
LINE
8
BLACK
6
CONTINUOUS
10
11.2733
20
-5.33568
11
11.266
21
-5.33811
0
LINE
8
BLACK
6
CONTINUOUS
10
11.266
20
-5.33811
11
11.2611
21
-5.33811
0
LINE
8
BLACK
6
CONTINUOUS
10
11.2611
20
-5.33811
11
11.2538
21
-5.33568
0
LINE
8
BLACK
6
CONTINUOUS
10
11.2538
20
-5.33568
11
11.249
21
-5.3308
0
LINE
8
BLACK
6
CONTINUOUS
10
11.249
20
-5.3308
11
11.2465
21
-5.32593
0
LINE
8
BLACK
6
CONTINUOUS
10
11.2465
20
-5.32593
11
11.2441
21
-5.31618
0
LINE
8
BLACK
6
CONTINUOUS
10
11.2441
20
-5.31618
11
11.2441
21
-5.30887
0
LINE
8
BLACK
6
CONTINUOUS
10
11.2441
20
-5.30887
11
11.2465
21
-5.29912
0
LINE
8
BLACK
6
CONTINUOUS
10
11.2465
20
-5.29912
11
11.249
21
-5.29424
0
LINE
8
BLACK
6
CONTINUOUS
10
11.249
20
-5.29424
11
11.2538
21
-5.28937
0
LINE
8
BLACK
6
CONTINUOUS
10
11.2538
20
-5.28937
11
11.2611
21
-5.28693
0
LINE
8
BLACK
6
CONTINUOUS
10
11.2611
20
-5.28693
11
11.266
21
-5.28693
0
LINE
8
BLACK
6
CONTINUOUS
10
11.266
20
-5.28693
11
11.2733
21
-5.28937
0
LINE
8
BLACK
6
CONTINUOUS
10
11.2733
20
-5.28937
11
11.2758
21
-5.29181
0
LINE
8
BLACK
6
CONTINUOUS
10
11.2465
20
-7.30662
11
11.2465
21
-7.25544
0
LINE
8
BLACK
6
CONTINUOUS
10
11.2465
20
-7.25544
11
11.2587
21
-7.25544
0
LINE
8
BLACK
6
CONTINUOUS
10
11.2587
20
-7.25544
11
11.266
21
-7.25787
0
LINE
8
BLACK
6
CONTINUOUS
10
11.266
20
-7.25787
11
11.2709
21
-7.26275
0
LINE
8
BLACK
6
CONTINUOUS
10
11.2709
20
-7.26275
11
11.2733
21
-7.26762
0
LINE
8
BLACK
6
CONTINUOUS
10
11.2733
20
-7.26762
11
11.2758
21
-7.27737
0
LINE
8
BLACK
6
CONTINUOUS
10
11.2758
20
-7.27737
11
11.2758
21
-7.28468
0
LINE
8
BLACK
6
CONTINUOUS
10
11.2758
20
-7.28468
11
11.2733
21
-7.29443
0
LINE
8
BLACK
6
CONTINUOUS
10
11.2733
20
-7.29443
11
11.2709
21
-7.29931
0
LINE
8
BLACK
6
CONTINUOUS
10
11.2709
20
-7.29931
11
11.266
21
-7.30418
0
LINE
8
BLACK
6
CONTINUOUS
10
11.266
20
-7.30418
11
11.2587
21
-7.30662
0
LINE
8
BLACK
6
CONTINUOUS
10
11.2587
20
-7.30662
11
11.2465
21
-7.30662
0
LINE
8
BLACK
6
CONTINUOUS
10
7.89112
20
-7.62936
11
7.89112
21
-7.57031
0
LINE
8
BLACK
6
CONTINUOUS
10
7.89112
20
-7.57031
11
7.90518
21
-7.57031
0
LINE
8
BLACK
6
CONTINUOUS
10
7.90518
20
-7.57031
11
7.91361
21
-7.57312
0
LINE
8
BLACK
6
CONTINUOUS
10
7.91361
20
-7.57312
11
7.91924
21
-7.57874
0
LINE
8
BLACK
6
CONTINUOUS
10
7.91924
20
-7.57874
11
7.92205
21
-7.58437
0
LINE
8
BLACK
6
CONTINUOUS
10
7.92205
20
-7.58437
11
7.92486
21
-7.59562
0
LINE
8
BLACK
6
CONTINUOUS
10
7.92486
20
-7.59562
11
7.92486
21
-7.60405
0
LINE
8
BLACK
6
CONTINUOUS
10
7.92486
20
-7.60405
11
7.92205
21
-7.6153
0
LINE
8
BLACK
6
CONTINUOUS
10
7.92205
20
-7.6153
11
7.91924
21
-7.62092
0
LINE
8
BLACK
6
CONTINUOUS
10
7.91924
20
-7.62092
11
7.91361
21
-7.62655
0
LINE
8
BLACK
6
CONTINUOUS
10
7.91361
20
-7.62655
11
7.90518
21
-7.62936
0
LINE
8
BLACK
6
CONTINUOUS
10
7.90518
20
-7.62936
11
7.89112
21
-7.62936
0
LINE
8
BLACK
6
CONTINUOUS
10
7.97548
20
-7.62936
11
7.97548
21
-7.59843
0
LINE
8
BLACK
6
CONTINUOUS
10
7.97548
20
-7.59843
11
7.97267
21
-7.5928
0
LINE
8
BLACK
6
CONTINUOUS
10
7.97267
20
-7.5928
11
7.96704
21
-7.58999
0
LINE
8
BLACK
6
CONTINUOUS
10
7.96704
20
-7.58999
11
7.9558
21
-7.58999
0
LINE
8
BLACK
6
CONTINUOUS
10
7.9558
20
-7.58999
11
7.95017
21
-7.5928
0
LINE
8
BLACK
6
CONTINUOUS
10
7.97548
20
-7.62655
11
7.96986
21
-7.62936
0
LINE
8
BLACK
6
CONTINUOUS
10
7.96986
20
-7.62936
11
7.9558
21
-7.62936
0
LINE
8
BLACK
6
CONTINUOUS
10
7.9558
20
-7.62936
11
7.95017
21
-7.62655
0
LINE
8
BLACK
6
CONTINUOUS
10
7.95017
20
-7.62655
11
7.94736
21
-7.62092
0
LINE
8
BLACK
6
CONTINUOUS
10
7.94736
20
-7.62092
11
7.94736
21
-7.6153
0
LINE
8
BLACK
6
CONTINUOUS
10
7.94736
20
-7.6153
11
7.95017
21
-7.60968
0
LINE
8
BLACK
6
CONTINUOUS
10
7.95017
20
-7.60968
11
7.9558
21
-7.60686
0
LINE
8
BLACK
6
CONTINUOUS
10
7.9558
20
-7.60686
11
7.96986
21
-7.60686
0
LINE
8
BLACK
6
CONTINUOUS
10
7.96986
20
-7.60686
11
7.97548
21
-7.60405
0
LINE
8
BLACK
6
CONTINUOUS
10
7.99517
20
-7.58999
11
8.01766
21
-7.58999
0
LINE
8
BLACK
6
CONTINUOUS
10
8.0036
20
-7.57031
11
8.0036
21
-7.62092
0
LINE
8
BLACK
6
CONTINUOUS
10
8.0036
20
-7.62092
11
8.00641
21
-7.62655
0
LINE
8
BLACK
6
CONTINUOUS
10
8.00641
20
-7.62655
11
8.01204
21
-7.62936
0
LINE
8
BLACK
6
CONTINUOUS
10
8.01204
20
-7.62936
11
8.01766
21
-7.62936
0
LINE
8
BLACK
6
CONTINUOUS
10
8.05984
20
-7.62655
11
8.05422
21
-7.62936
0
LINE
8
BLACK
6
CONTINUOUS
10
8.05422
20
-7.62936
11
8.04297
21
-7.62936
0
LINE
8
BLACK
6
CONTINUOUS
10
8.04297
20
-7.62936
11
8.03735
21
-7.62655
0
LINE
8
BLACK
6
CONTINUOUS
10
8.03735
20
-7.62655
11
8.03454
21
-7.62092
0
LINE
8
BLACK
6
CONTINUOUS
10
8.03454
20
-7.62092
11
8.03454
21
-7.59843
0
LINE
8
BLACK
6
CONTINUOUS
10
8.03454
20
-7.59843
11
8.03735
21
-7.5928
0
LINE
8
BLACK
6
CONTINUOUS
10
8.03735
20
-7.5928
11
8.04297
21
-7.58999
0
LINE
8
BLACK
6
CONTINUOUS
10
8.04297
20
-7.58999
11
8.05422
21
-7.58999
0
LINE
8
BLACK
6
CONTINUOUS
10
8.05422
20
-7.58999
11
8.05984
21
-7.5928
0
LINE
8
BLACK
6
CONTINUOUS
10
8.05984
20
-7.5928
11
8.06266
21
-7.59843
0
LINE
8
BLACK
6
CONTINUOUS
10
8.06266
20
-7.59843
11
8.06266
21
-7.60405
0
LINE
8
BLACK
6
CONTINUOUS
10
8.06266
20
-7.60405
11
8.03454
21
-7.60968
0
LINE
8
BLACK
6
CONTINUOUS
10
8.08797
20
-7.62374
11
8.09078
21
-7.62655
0
LINE
8
BLACK
6
CONTINUOUS
10
8.09078
20
-7.62655
11
8.08797
21
-7.62936
0
LINE
8
BLACK
6
CONTINUOUS
10
8.08797
20
-7.62936
11
8.08515
21
-7.62655
0
LINE
8
BLACK
6
CONTINUOUS
10
8.08515
20
-7.62655
11
8.08797
21
-7.62374
0
LINE
8
BLACK
6
CONTINUOUS
10
8.08797
20
-7.62374
11
8.08797
21
-7.62936
0
LINE
8
BLACK
6
CONTINUOUS
10
8.08797
20
-7.5928
11
8.09078
21
-7.59562
0
LINE
8
BLACK
6
CONTINUOUS
10
8.09078
20
-7.59562
11
8.08797
21
-7.59843
0
LINE
8
BLACK
6
CONTINUOUS
10
8.08797
20
-7.59843
11
8.08515
21
-7.59562
0
LINE
8
BLACK
6
CONTINUOUS
10
8.08515
20
-7.59562
11
8.08797
21
-7.5928
0
LINE
8
BLACK
6
CONTINUOUS
10
8.08797
20
-7.5928
11
8.08797
21
-7.59843
0
LINE
8
BLACK
6
CONTINUOUS
10
8.19202
20
-7.62936
11
8.15827
21
-7.62936
0
LINE
8
BLACK
6
CONTINUOUS
10
8.17514
20
-7.62936
11
8.17514
21
-7.57031
0
LINE
8
BLACK
6
CONTINUOUS
10
8.17514
20
-7.57031
11
8.16952
21
-7.57874
0
LINE
8
BLACK
6
CONTINUOUS
10
8.16952
20
-7.57874
11
8.16389
21
-7.58437
0
LINE
8
BLACK
6
CONTINUOUS
10
8.16389
20
-7.58437
11
8.15827
21
-7.58718
0
LINE
8
BLACK
6
CONTINUOUS
10
8.2117
20
-7.57031
11
8.24826
21
-7.57031
0
LINE
8
BLACK
6
CONTINUOUS
10
8.24826
20
-7.57031
11
8.22857
21
-7.5928
0
LINE
8
BLACK
6
CONTINUOUS
10
8.22857
20
-7.5928
11
8.23701
21
-7.5928
0
LINE
8
BLACK
6
CONTINUOUS
10
8.23701
20
-7.5928
11
8.24263
21
-7.59562
0
LINE
8
BLACK
6
CONTINUOUS
10
8.24263
20
-7.59562
11
8.24545
21
-7.59843
0
LINE
8
BLACK
6
CONTINUOUS
10
8.24545
20
-7.59843
11
8.24826
21
-7.60405
0
LINE
8
BLACK
6
CONTINUOUS
10
8.24826
20
-7.60405
11
8.24826
21
-7.61811
0
LINE
8
BLACK
6
CONTINUOUS
10
8.24826
20
-7.61811
11
8.24545
21
-7.62374
0
LINE
8
BLACK
6
CONTINUOUS
10
8.24545
20
-7.62374
11
8.24263
21
-7.62655
0
LINE
8
BLACK
6
CONTINUOUS
10
8.24263
20
-7.62655
11
8.23701
21
-7.62936
0
LINE
8
BLACK
6
CONTINUOUS
10
8.23701
20
-7.62936
11
8.22014
21
-7.62936
0
LINE
8
BLACK
6
CONTINUOUS
10
8.22014
20
-7.62936
11
8.21451
21
-7.62655
0
LINE
8
BLACK
6
CONTINUOUS
10
8.21451
20
-7.62655
11
8.2117
21
-7.62374
0
LINE
8
BLACK
6
CONTINUOUS
10
8.27357
20
-7.62374
11
8.27638
21
-7.62655
0
LINE
8
BLACK
6
CONTINUOUS
10
8.27638
20
-7.62655
11
8.27357
21
-7.62936
0
LINE
8
BLACK
6
CONTINUOUS
10
8.27357
20
-7.62936
11
8.27076
21
-7.62655
0
LINE
8
BLACK
6
CONTINUOUS
10
8.27076
20
-7.62655
11
8.27357
21
-7.62374
0
LINE
8
BLACK
6
CONTINUOUS
10
8.27357
20
-7.62374
11
8.27357
21
-7.62936
0
LINE
8
BLACK
6
CONTINUOUS
10
8.31294
20
-7.57031
11
8.31856
21
-7.57031
0
LINE
8
BLACK
6
CONTINUOUS
10
8.31856
20
-7.57031
11
8.32419
21
-7.57312
0
LINE
8
BLACK
6
CONTINUOUS
10
8.32419
20
-7.57312
11
8.327
21
-7.57593
0
LINE
8
BLACK
6
CONTINUOUS
10
8.327
20
-7.57593
11
8.32981
21
-7.58155
0
LINE
8
BLACK
6
CONTINUOUS
10
8.32981
20
-7.58155
11
8.33262
21
-7.5928
0
LINE
8
BLACK
6
CONTINUOUS
10
8.33262
20
-7.5928
11
8.33262
21
-7.60686
0
LINE
8
BLACK
6
CONTINUOUS
10
8.33262
20
-7.60686
11
8.32981
21
-7.61811
0
LINE
8
BLACK
6
CONTINUOUS
10
8.32981
20
-7.61811
11
8.327
21
-7.62374
0
LINE
8
BLACK
6
CONTINUOUS
10
8.327
20
-7.62374
11
8.32419
21
-7.62655
0
LINE
8
BLACK
6
CONTINUOUS
10
8.32419
20
-7.62655
11
8.31856
21
-7.62936
0
LINE
8
BLACK
6
CONTINUOUS
10
8.31856
20
-7.62936
11
8.31294
21
-7.62936
0
LINE
8
BLACK
6
CONTINUOUS
10
8.31294
20
-7.62936
11
8.30731
21
-7.62655
0
LINE
8
BLACK
6
CONTINUOUS
10
8.30731
20
-7.62655
11
8.3045
21
-7.62374
0
LINE
8
BLACK
6
CONTINUOUS
10
8.3045
20
-7.62374
11
8.30169
21
-7.61811
0
LINE
8
BLACK
6
CONTINUOUS
10
8.30169
20
-7.61811
11
8.29888
21
-7.60686
0
LINE
8
BLACK
6
CONTINUOUS
10
8.29888
20
-7.60686
11
8.29888
21
-7.5928
0
LINE
8
BLACK
6
CONTINUOUS
10
8.29888
20
-7.5928
11
8.30169
21
-7.58155
0
LINE
8
BLACK
6
CONTINUOUS
10
8.30169
20
-7.58155
11
8.3045
21
-7.57593
0
LINE
8
BLACK
6
CONTINUOUS
10
8.3045
20
-7.57593
11
8.30731
21
-7.57312
0
LINE
8
BLACK
6
CONTINUOUS
10
8.30731
20
-7.57312
11
8.31294
21
-7.57031
0
LINE
8
BLACK
6
CONTINUOUS
10
8.36074
20
-7.62936
11
8.37199
21
-7.62936
0
LINE
8
BLACK
6
CONTINUOUS
10
8.37199
20
-7.62936
11
8.37762
21
-7.62655
0
LINE
8
BLACK
6
CONTINUOUS
10
8.37762
20
-7.62655
11
8.38043
21
-7.62374
0
LINE
8
BLACK
6
CONTINUOUS
10
8.38043
20
-7.62374
11
8.38605
21
-7.6153
0
LINE
8
BLACK
6
CONTINUOUS
10
8.38605
20
-7.6153
11
8.38887
21
-7.60405
0
LINE
8
BLACK
6
CONTINUOUS
10
8.38887
20
-7.60405
11
8.38887
21
-7.58155
0
LINE
8
BLACK
6
CONTINUOUS
10
8.38887
20
-7.58155
11
8.38605
21
-7.57593
0
LINE
8
BLACK
6
CONTINUOUS
10
8.38605
20
-7.57593
11
8.38324
21
-7.57312
0
LINE
8
BLACK
6
CONTINUOUS
10
8.38324
20
-7.57312
11
8.37762
21
-7.57031
0
LINE
8
BLACK
6
CONTINUOUS
10
8.37762
20
-7.57031
11
8.36637
21
-7.57031
0
LINE
8
BLACK
6
CONTINUOUS
10
8.36637
20
-7.57031
11
8.36074
21
-7.57312
0
LINE
8
BLACK
6
CONTINUOUS
10
8.36074
20
-7.57312
11
8.35793
21
-7.57593
0
LINE
8
BLACK
6
CONTINUOUS
10
8.35793
20
-7.57593
11
8.35512
21
-7.58155
0
LINE
8
BLACK
6
CONTINUOUS
10
8.35512
20
-7.58155
11
8.35512
21
-7.59562
0
LINE
8
BLACK
6
CONTINUOUS
10
8.35512
20
-7.59562
11
8.35793
21
-7.60124
0
LINE
8
BLACK
6
CONTINUOUS
10
8.35793
20
-7.60124
11
8.36074
21
-7.60405
0
LINE
8
BLACK
6
CONTINUOUS
10
8.36074
20
-7.60405
11
8.36637
21
-7.60686
0
LINE
8
BLACK
6
CONTINUOUS
10
8.36637
20
-7.60686
11
8.37762
21
-7.60686
0
LINE
8
BLACK
6
CONTINUOUS
10
8.37762
20
-7.60686
11
8.38324
21
-7.60405
0
LINE
8
BLACK
6
CONTINUOUS
10
8.38324
20
-7.60405
11
8.38605
21
-7.60124
0
LINE
8
BLACK
6
CONTINUOUS
10
8.38605
20
-7.60124
11
8.38887
21
-7.59562
0
LINE
8
BLACK
6
CONTINUOUS
10
8.41418
20
-7.62374
11
8.41699
21
-7.62655
0
LINE
8
BLACK
6
CONTINUOUS
10
8.41699
20
-7.62655
11
8.41418
21
-7.62936
0
LINE
8
BLACK
6
CONTINUOUS
10
8.41418
20
-7.62936
11
8.41136
21
-7.62655
0
LINE
8
BLACK
6
CONTINUOUS
10
8.41136
20
-7.62655
11
8.41418
21
-7.62374
0
LINE
8
BLACK
6
CONTINUOUS
10
8.41418
20
-7.62374
11
8.41418
21
-7.62936
0
LINE
8
BLACK
6
CONTINUOUS
10
8.43948
20
-7.57593
11
8.4423
21
-7.57312
0
LINE
8
BLACK
6
CONTINUOUS
10
8.4423
20
-7.57312
11
8.44792
21
-7.57031
0
LINE
8
BLACK
6
CONTINUOUS
10
8.44792
20
-7.57031
11
8.46198
21
-7.57031
0
LINE
8
BLACK
6
CONTINUOUS
10
8.46198
20
-7.57031
11
8.46761
21
-7.57312
0
LINE
8
BLACK
6
CONTINUOUS
10
8.46761
20
-7.57312
11
8.47042
21
-7.57593
0
LINE
8
BLACK
6
CONTINUOUS
10
8.47042
20
-7.57593
11
8.47323
21
-7.58155
0
LINE
8
BLACK
6
CONTINUOUS
10
8.47323
20
-7.58155
11
8.47323
21
-7.58718
0
LINE
8
BLACK
6
CONTINUOUS
10
8.47323
20
-7.58718
11
8.47042
21
-7.59562
0
LINE
8
BLACK
6
CONTINUOUS
10
8.47042
20
-7.59562
11
8.43667
21
-7.62936
0
LINE
8
BLACK
6
CONTINUOUS
10
8.43667
20
-7.62936
11
8.47323
21
-7.62936
0
LINE
8
BLACK
6
CONTINUOUS
10
8.50979
20
-7.57031
11
8.51541
21
-7.57031
0
LINE
8
BLACK
6
CONTINUOUS
10
8.51541
20
-7.57031
11
8.52104
21
-7.57312
0
LINE
8
BLACK
6
CONTINUOUS
10
8.52104
20
-7.57312
11
8.52385
21
-7.57593
0
LINE
8
BLACK
6
CONTINUOUS
10
8.52385
20
-7.57593
11
8.52666
21
-7.58155
0
LINE
8
BLACK
6
CONTINUOUS
10
8.52666
20
-7.58155
11
8.52947
21
-7.5928
0
LINE
8
BLACK
6
CONTINUOUS
10
8.52947
20
-7.5928
11
8.52947
21
-7.60686
0
LINE
8
BLACK
6
CONTINUOUS
10
8.52947
20
-7.60686
11
8.52666
21
-7.61811
0
LINE
8
BLACK
6
CONTINUOUS
10
8.52666
20
-7.61811
11
8.52385
21
-7.62374
0
LINE
8
BLACK
6
CONTINUOUS
10
8.52385
20
-7.62374
11
8.52104
21
-7.62655
0
LINE
8
BLACK
6
CONTINUOUS
10
8.52104
20
-7.62655
11
8.51541
21
-7.62936
0
LINE
8
BLACK
6
CONTINUOUS
10
8.51541
20
-7.62936
11
8.50979
21
-7.62936
0
LINE
8
BLACK
6
CONTINUOUS
10
8.50979
20
-7.62936
11
8.50416
21
-7.62655
0
LINE
8
BLACK
6
CONTINUOUS
10
8.50416
20
-7.62655
11
8.50135
21
-7.62374
0
LINE
8
BLACK
6
CONTINUOUS
10
8.50135
20
-7.62374
11
8.49854
21
-7.61811
0
LINE
8
BLACK
6
CONTINUOUS
10
8.49854
20
-7.61811
11
8.49573
21
-7.60686
0
LINE
8
BLACK
6
CONTINUOUS
10
8.49573
20
-7.60686
11
8.49573
21
-7.5928
0
LINE
8
BLACK
6
CONTINUOUS
10
8.49573
20
-7.5928
11
8.49854
21
-7.58155
0
LINE
8
BLACK
6
CONTINUOUS
10
8.49854
20
-7.58155
11
8.50135
21
-7.57593
0
LINE
8
BLACK
6
CONTINUOUS
10
8.50135
20
-7.57593
11
8.50416
21
-7.57312
0
LINE
8
BLACK
6
CONTINUOUS
10
8.50416
20
-7.57312
11
8.50979
21
-7.57031
0
LINE
8
BLACK
6
CONTINUOUS
10
8.55197
20
-7.57593
11
8.55478
21
-7.57312
0
LINE
8
BLACK
6
CONTINUOUS
10
8.55478
20
-7.57312
11
8.56041
21
-7.57031
0
LINE
8
BLACK
6
CONTINUOUS
10
8.56041
20
-7.57031
11
8.57447
21
-7.57031
0
LINE
8
BLACK
6
CONTINUOUS
10
8.57447
20
-7.57031
11
8.58009
21
-7.57312
0
LINE
8
BLACK
6
CONTINUOUS
10
8.58009
20
-7.57312
11
8.5829
21
-7.57593
0
LINE
8
BLACK
6
CONTINUOUS
10
8.5829
20
-7.57593
11
8.58572
21
-7.58155
0
LINE
8
BLACK
6
CONTINUOUS
10
8.58572
20
-7.58155
11
8.58572
21
-7.58718
0
LINE
8
BLACK
6
CONTINUOUS
10
8.58572
20
-7.58718
11
8.5829
21
-7.59562
0
LINE
8
BLACK
6
CONTINUOUS
10
8.5829
20
-7.59562
11
8.54916
21
-7.62936
0
LINE
8
BLACK
6
CONTINUOUS
10
8.54916
20
-7.62936
11
8.58572
21
-7.62936
0
LINE
8
BLACK
6
CONTINUOUS
10
8.60821
20
-7.57593
11
8.61103
21
-7.57312
0
LINE
8
BLACK
6
CONTINUOUS
10
8.61103
20
-7.57312
11
8.61665
21
-7.57031
0
LINE
8
BLACK
6
CONTINUOUS
10
8.61665
20
-7.57031
11
8.63071
21
-7.57031
0
LINE
8
BLACK
6
CONTINUOUS
10
8.63071
20
-7.57031
11
8.63634
21
-7.57312
0
LINE
8
BLACK
6
CONTINUOUS
10
8.63634
20
-7.57312
11
8.63915
21
-7.57593
0
LINE
8
BLACK
6
CONTINUOUS
10
8.63915
20
-7.57593
11
8.64196
21
-7.58155
0
LINE
8
BLACK
6
CONTINUOUS
10
8.64196
20
-7.58155
11
8.64196
21
-7.58718
0
LINE
8
BLACK
6
CONTINUOUS
10
8.64196
20
-7.58718
11
8.63915
21
-7.59562
0
LINE
8
BLACK
6
CONTINUOUS
10
8.63915
20
-7.59562
11
8.6054
21
-7.62936
0
LINE
8
BLACK
6
CONTINUOUS
10
8.6054
20
-7.62936
11
8.64196
21
-7.62936
0
LINE
8
BLACK
6
CONTINUOUS
10
8.66727
20
-7.60686
11
8.71226
21
-7.60686
0
LINE
8
BLACK
6
CONTINUOUS
10
8.75163
20
-7.57031
11
8.75726
21
-7.57031
0
LINE
8
BLACK
6
CONTINUOUS
10
8.75726
20
-7.57031
11
8.76288
21
-7.57312
0
LINE
8
BLACK
6
CONTINUOUS
10
8.76288
20
-7.57312
11
8.76569
21
-7.57593
0
LINE
8
BLACK
6
CONTINUOUS
10
8.76569
20
-7.57593
11
8.76851
21
-7.58155
0
LINE
8
BLACK
6
CONTINUOUS
10
8.76851
20
-7.58155
11
8.77132
21
-7.5928
0
LINE
8
BLACK
6
CONTINUOUS
10
8.77132
20
-7.5928
11
8.77132
21
-7.60686
0
LINE
8
BLACK
6
CONTINUOUS
10
8.77132
20
-7.60686
11
8.76851
21
-7.61811
0
LINE
8
BLACK
6
CONTINUOUS
10
8.76851
20
-7.61811
11
8.76569
21
-7.62374
0
LINE
8
BLACK
6
CONTINUOUS
10
8.76569
20
-7.62374
11
8.76288
21
-7.62655
0
LINE
8
BLACK
6
CONTINUOUS
10
8.76288
20
-7.62655
11
8.75726
21
-7.62936
0
LINE
8
BLACK
6
CONTINUOUS
10
8.75726
20
-7.62936
11
8.75163
21
-7.62936
0
LINE
8
BLACK
6
CONTINUOUS
10
8.75163
20
-7.62936
11
8.74601
21
-7.62655
0
LINE
8
BLACK
6
CONTINUOUS
10
8.74601
20
-7.62655
11
8.7432
21
-7.62374
0
LINE
8
BLACK
6
CONTINUOUS
10
8.7432
20
-7.62374
11
8.74038
21
-7.61811
0
LINE
8
BLACK
6
CONTINUOUS
10
8.74038
20
-7.61811
11
8.73757
21
-7.60686
0
LINE
8
BLACK
6
CONTINUOUS
10
8.73757
20
-7.60686
11
8.73757
21
-7.5928
0
LINE
8
BLACK
6
CONTINUOUS
10
8.73757
20
-7.5928
11
8.74038
21
-7.58155
0
LINE
8
BLACK
6
CONTINUOUS
10
8.74038
20
-7.58155
11
8.7432
21
-7.57593
0
LINE
8
BLACK
6
CONTINUOUS
10
8.7432
20
-7.57593
11
8.74601
21
-7.57312
0
LINE
8
BLACK
6
CONTINUOUS
10
8.74601
20
-7.57312
11
8.75163
21
-7.57031
0
LINE
8
BLACK
6
CONTINUOUS
10
8.79944
20
-7.62936
11
8.81069
21
-7.62936
0
LINE
8
BLACK
6
CONTINUOUS
10
8.81069
20
-7.62936
11
8.81631
21
-7.62655
0
LINE
8
BLACK
6
CONTINUOUS
10
8.81631
20
-7.62655
11
8.81912
21
-7.62374
0
LINE
8
BLACK
6
CONTINUOUS
10
8.81912
20
-7.62374
11
8.82475
21
-7.6153
0
LINE
8
BLACK
6
CONTINUOUS
10
8.82475
20
-7.6153
11
8.82756
21
-7.60405
0
LINE
8
BLACK
6
CONTINUOUS
10
8.82756
20
-7.60405
11
8.82756
21
-7.58155
0
LINE
8
BLACK
6
CONTINUOUS
10
8.82756
20
-7.58155
11
8.82475
21
-7.57593
0
LINE
8
BLACK
6
CONTINUOUS
10
8.82475
20
-7.57593
11
8.82194
21
-7.57312
0
LINE
8
BLACK
6
CONTINUOUS
10
8.82194
20
-7.57312
11
8.81631
21
-7.57031
0
LINE
8
BLACK
6
CONTINUOUS
10
8.81631
20
-7.57031
11
8.80506
21
-7.57031
0
LINE
8
BLACK
6
CONTINUOUS
10
8.80506
20
-7.57031
11
8.79944
21
-7.57312
0
LINE
8
BLACK
6
CONTINUOUS
10
8.79944
20
-7.57312
11
8.79663
21
-7.57593
0
LINE
8
BLACK
6
CONTINUOUS
10
8.79663
20
-7.57593
11
8.79382
21
-7.58155
0
LINE
8
BLACK
6
CONTINUOUS
10
8.79382
20
-7.58155
11
8.79382
21
-7.59562
0
LINE
8
BLACK
6
CONTINUOUS
10
8.79382
20
-7.59562
11
8.79663
21
-7.60124
0
LINE
8
BLACK
6
CONTINUOUS
10
8.79663
20
-7.60124
11
8.79944
21
-7.60405
0
LINE
8
BLACK
6
CONTINUOUS
10
8.79944
20
-7.60405
11
8.80506
21
-7.60686
0
LINE
8
BLACK
6
CONTINUOUS
10
8.80506
20
-7.60686
11
8.81631
21
-7.60686
0
LINE
8
BLACK
6
CONTINUOUS
10
8.81631
20
-7.60686
11
8.82194
21
-7.60405
0
LINE
8
BLACK
6
CONTINUOUS
10
8.82194
20
-7.60405
11
8.82475
21
-7.60124
0
LINE
8
BLACK
6
CONTINUOUS
10
8.82475
20
-7.60124
11
8.82756
21
-7.59562
0
LINE
8
BLACK
6
CONTINUOUS
10
8.85287
20
-7.60686
11
8.89786
21
-7.60686
0
LINE
8
BLACK
6
CONTINUOUS
10
8.95692
20
-7.62936
11
8.92317
21
-7.62936
0
LINE
8
BLACK
6
CONTINUOUS
10
8.94005
20
-7.62936
11
8.94005
21
-7.57031
0
LINE
8
BLACK
6
CONTINUOUS
10
8.94005
20
-7.57031
11
8.93442
21
-7.57874
0
LINE
8
BLACK
6
CONTINUOUS
10
8.93442
20
-7.57874
11
8.9288
21
-7.58437
0
LINE
8
BLACK
6
CONTINUOUS
10
8.9288
20
-7.58437
11
8.92317
21
-7.58718
0
LINE
8
BLACK
6
CONTINUOUS
10
8.97661
20
-7.57031
11
9.01316
21
-7.57031
0
LINE
8
BLACK
6
CONTINUOUS
10
9.01316
20
-7.57031
11
8.99348
21
-7.5928
0
LINE
8
BLACK
6
CONTINUOUS
10
8.99348
20
-7.5928
11
9.00191
21
-7.5928
0
LINE
8
BLACK
6
CONTINUOUS
10
9.00191
20
-7.5928
11
9.00754
21
-7.59562
0
LINE
8
BLACK
6
CONTINUOUS
10
9.00754
20
-7.59562
11
9.01035
21
-7.59843
0
LINE
8
BLACK
6
CONTINUOUS
10
9.01035
20
-7.59843
11
9.01316
21
-7.60405
0
LINE
8
BLACK
6
CONTINUOUS
10
9.01316
20
-7.60405
11
9.01316
21
-7.61811
0
LINE
8
BLACK
6
CONTINUOUS
10
9.01316
20
-7.61811
11
9.01035
21
-7.62374
0
LINE
8
BLACK
6
CONTINUOUS
10
9.01035
20
-7.62374
11
9.00754
21
-7.62655
0
LINE
8
BLACK
6
CONTINUOUS
10
9.00754
20
-7.62655
11
9.00191
21
-7.62936
0
LINE
8
BLACK
6
CONTINUOUS
10
9.00191
20
-7.62936
11
8.98504
21
-7.62936
0
LINE
8
BLACK
6
CONTINUOUS
10
8.98504
20
-7.62936
11
8.97942
21
-7.62655
0
LINE
8
BLACK
6
CONTINUOUS
10
8.97942
20
-7.62655
11
8.97661
21
-7.62374
0
LINE
8
BLACK
6
CONTINUOUS
10
6.96859
20
-7.65776
11
11.2206
21
-7.65776
0
LINE
8
BLACK
6
CONTINUOUS
10
7.02497
20
-7.7396
11
7.02497
21
-7.68054
0
LINE
8
BLACK
6
CONTINUOUS
10
7.05872
20
-7.7396
11
7.03341
21
-7.70585
0
LINE
8
BLACK
6
CONTINUOUS
10
7.05872
20
-7.68054
11
7.02497
21
-7.71429
0
LINE
8
BLACK
6
CONTINUOUS
10
7.08403
20
-7.7396
11
7.08403
21
-7.70023
0
LINE
8
BLACK
6
CONTINUOUS
10
7.08403
20
-7.68054
11
7.08122
21
-7.68335
0
LINE
8
BLACK
6
CONTINUOUS
10
7.08122
20
-7.68335
11
7.08403
21
-7.68617
0
LINE
8
BLACK
6
CONTINUOUS
10
7.08403
20
-7.68617
11
7.08684
21
-7.68335
0
LINE
8
BLACK
6
CONTINUOUS
10
7.08684
20
-7.68335
11
7.08403
21
-7.68054
0
LINE
8
BLACK
6
CONTINUOUS
10
7.08403
20
-7.68054
11
7.08403
21
-7.68617
0
LINE
8
BLACK
6
CONTINUOUS
10
7.1459
20
-7.73397
11
7.14308
21
-7.73679
0
LINE
8
BLACK
6
CONTINUOUS
10
7.14308
20
-7.73679
11
7.13465
21
-7.7396
0
LINE
8
BLACK
6
CONTINUOUS
10
7.13465
20
-7.7396
11
7.12902
21
-7.7396
0
LINE
8
BLACK
6
CONTINUOUS
10
7.12902
20
-7.7396
11
7.12059
21
-7.73679
0
LINE
8
BLACK
6
CONTINUOUS
10
7.12059
20
-7.73679
11
7.11496
21
-7.73116
0
LINE
8
BLACK
6
CONTINUOUS
10
7.11496
20
-7.73116
11
7.11215
21
-7.72554
0
LINE
8
BLACK
6
CONTINUOUS
10
7.11215
20
-7.72554
11
7.10934
21
-7.71429
0
LINE
8
BLACK
6
CONTINUOUS
10
7.10934
20
-7.71429
11
7.10934
21
-7.70585
0
LINE
8
BLACK
6
CONTINUOUS
10
7.10934
20
-7.70585
11
7.11215
21
-7.6946
0
LINE
8
BLACK
6
CONTINUOUS
10
7.11215
20
-7.6946
11
7.11496
21
-7.68898
0
LINE
8
BLACK
6
CONTINUOUS
10
7.11496
20
-7.68898
11
7.12059
21
-7.68335
0
LINE
8
BLACK
6
CONTINUOUS
10
7.12059
20
-7.68335
11
7.12902
21
-7.68054
0
LINE
8
BLACK
6
CONTINUOUS
10
7.12902
20
-7.68054
11
7.13465
21
-7.68054
0
LINE
8
BLACK
6
CONTINUOUS
10
7.13465
20
-7.68054
11
7.14308
21
-7.68335
0
LINE
8
BLACK
6
CONTINUOUS
10
7.14308
20
-7.68335
11
7.1459
21
-7.68617
0
LINE
8
BLACK
6
CONTINUOUS
10
7.19652
20
-7.7396
11
7.19652
21
-7.70866
0
LINE
8
BLACK
6
CONTINUOUS
10
7.19652
20
-7.70866
11
7.1937
21
-7.70304
0
LINE
8
BLACK
6
CONTINUOUS
10
7.1937
20
-7.70304
11
7.18808
21
-7.70023
0
LINE
8
BLACK
6
CONTINUOUS
10
7.18808
20
-7.70023
11
7.17683
21
-7.70023
0
LINE
8
BLACK
6
CONTINUOUS
10
7.17683
20
-7.70023
11
7.17121
21
-7.70304
0
LINE
8
BLACK
6
CONTINUOUS
10
7.19652
20
-7.73679
11
7.19089
21
-7.7396
0
LINE
8
BLACK
6
CONTINUOUS
10
7.19089
20
-7.7396
11
7.17683
21
-7.7396
0
LINE
8
BLACK
6
CONTINUOUS
10
7.17683
20
-7.7396
11
7.17121
21
-7.73679
0
LINE
8
BLACK
6
CONTINUOUS
10
7.17121
20
-7.73679
11
7.16839
21
-7.73116
0
LINE
8
BLACK
6
CONTINUOUS
10
7.16839
20
-7.73116
11
7.16839
21
-7.72554
0
LINE
8
BLACK
6
CONTINUOUS
10
7.16839
20
-7.72554
11
7.17121
21
-7.71991
0
LINE
8
BLACK
6
CONTINUOUS
10
7.17121
20
-7.71991
11
7.17683
21
-7.7171
0
LINE
8
BLACK
6
CONTINUOUS
10
7.17683
20
-7.7171
11
7.19089
21
-7.7171
0
LINE
8
BLACK
6
CONTINUOUS
10
7.19089
20
-7.7171
11
7.19652
21
-7.71429
0
LINE
8
BLACK
6
CONTINUOUS
10
7.24995
20
-7.7396
11
7.24995
21
-7.68054
0
LINE
8
BLACK
6
CONTINUOUS
10
7.24995
20
-7.73679
11
7.24432
21
-7.7396
0
LINE
8
BLACK
6
CONTINUOUS
10
7.24432
20
-7.7396
11
7.23307
21
-7.7396
0
LINE
8
BLACK
6
CONTINUOUS
10
7.23307
20
-7.7396
11
7.22745
21
-7.73679
0
LINE
8
BLACK
6
CONTINUOUS
10
7.22745
20
-7.73679
11
7.22464
21
-7.73397
0
LINE
8
BLACK
6
CONTINUOUS
10
7.22464
20
-7.73397
11
7.22182
21
-7.72835
0
LINE
8
BLACK
6
CONTINUOUS
10
7.22182
20
-7.72835
11
7.22182
21
-7.71148
0
LINE
8
BLACK
6
CONTINUOUS
10
7.22182
20
-7.71148
11
7.22464
21
-7.70585
0
LINE
8
BLACK
6
CONTINUOUS
10
7.22464
20
-7.70585
11
7.22745
21
-7.70304
0
LINE
8
BLACK
6
CONTINUOUS
10
7.22745
20
-7.70304
11
7.23307
21
-7.70023
0
LINE
8
BLACK
6
CONTINUOUS
10
7.23307
20
-7.70023
11
7.24432
21
-7.70023
0
LINE
8
BLACK
6
CONTINUOUS
10
7.24432
20
-7.70023
11
7.24995
21
-7.70304
0
LINE
8
BLACK
6
CONTINUOUS
10
7.32306
20
-7.70866
11
7.34275
21
-7.70866
0
LINE
8
BLACK
6
CONTINUOUS
10
7.35118
20
-7.7396
11
7.32306
21
-7.7396
0
LINE
8
BLACK
6
CONTINUOUS
10
7.32306
20
-7.7396
11
7.32306
21
-7.68054
0
LINE
8
BLACK
6
CONTINUOUS
10
7.32306
20
-7.68054
11
7.35118
21
-7.68054
0
LINE
8
BLACK
6
CONTINUOUS
10
7.37649
20
-7.73397
11
7.3793
21
-7.73679
0
LINE
8
BLACK
6
CONTINUOUS
10
7.3793
20
-7.73679
11
7.37649
21
-7.7396
0
LINE
8
BLACK
6
CONTINUOUS
10
7.37649
20
-7.7396
11
7.37368
21
-7.73679
0
LINE
8
BLACK
6
CONTINUOUS
10
7.37368
20
-7.73679
11
7.37649
21
-7.73397
0
LINE
8
BLACK
6
CONTINUOUS
10
7.37649
20
-7.73397
11
7.37649
21
-7.7396
0
LINE
8
BLACK
6
CONTINUOUS
10
7.40461
20
-7.7396
11
7.40461
21
-7.68054
0
LINE
8
BLACK
6
CONTINUOUS
10
7.40461
20
-7.68054
11
7.41867
21
-7.68054
0
LINE
8
BLACK
6
CONTINUOUS
10
7.41867
20
-7.68054
11
7.42711
21
-7.68335
0
LINE
8
BLACK
6
CONTINUOUS
10
7.42711
20
-7.68335
11
7.43274
21
-7.68898
0
LINE
8
BLACK
6
CONTINUOUS
10
7.43274
20
-7.68898
11
7.43555
21
-7.6946
0
LINE
8
BLACK
6
CONTINUOUS
10
7.43555
20
-7.6946
11
7.43836
21
-7.70585
0
LINE
8
BLACK
6
CONTINUOUS
10
7.43836
20
-7.70585
11
7.43836
21
-7.71429
0
LINE
8
BLACK
6
CONTINUOUS
10
7.43836
20
-7.71429
11
7.43555
21
-7.72554
0
LINE
8
BLACK
6
CONTINUOUS
10
7.43555
20
-7.72554
11
7.43274
21
-7.73116
0
LINE
8
BLACK
6
CONTINUOUS
10
7.43274
20
-7.73116
11
7.42711
21
-7.73679
0
LINE
8
BLACK
6
CONTINUOUS
10
7.42711
20
-7.73679
11
7.41867
21
-7.7396
0
LINE
8
BLACK
6
CONTINUOUS
10
7.41867
20
-7.7396
11
7.40461
21
-7.7396
0
LINE
8
BLACK
6
CONTINUOUS
10
7.46367
20
-7.73397
11
7.46648
21
-7.73679
0
LINE
8
BLACK
6
CONTINUOUS
10
7.46648
20
-7.73679
11
7.46367
21
-7.7396
0
LINE
8
BLACK
6
CONTINUOUS
10
7.46367
20
-7.7396
11
7.46086
21
-7.73679
0
LINE
8
BLACK
6
CONTINUOUS
10
7.46086
20
-7.73679
11
7.46367
21
-7.73397
0
LINE
8
BLACK
6
CONTINUOUS
10
7.46367
20
-7.73397
11
7.46367
21
-7.7396
0
LINE
8
BLACK
6
CONTINUOUS
10
7.48898
20
-7.72272
11
7.5171
21
-7.72272
0
LINE
8
BLACK
6
CONTINUOUS
10
7.48335
20
-7.7396
11
7.50304
21
-7.68054
0
LINE
8
BLACK
6
CONTINUOUS
10
7.50304
20
-7.68054
11
7.52272
21
-7.7396
0
LINE
8
BLACK
6
CONTINUOUS
10
7.54241
20
-7.73397
11
7.54522
21
-7.73679
0
LINE
8
BLACK
6
CONTINUOUS
10
7.54522
20
-7.73679
11
7.54241
21
-7.7396
0
LINE
8
BLACK
6
CONTINUOUS
10
7.54241
20
-7.7396
11
7.5396
21
-7.73679
0
LINE
8
BLACK
6
CONTINUOUS
10
7.5396
20
-7.73679
11
7.54241
21
-7.73397
0
LINE
8
BLACK
6
CONTINUOUS
10
7.54241
20
-7.73397
11
7.54241
21
-7.7396
0
LINE
8
BLACK
6
CONTINUOUS
10
7.66052
20
-7.7396
11
7.66052
21
-7.68054
0
LINE
8
BLACK
6
CONTINUOUS
10
7.66614
20
-7.7171
11
7.68302
21
-7.7396
0
LINE
8
BLACK
6
CONTINUOUS
10
7.68302
20
-7.70023
11
7.66052
21
-7.72272
0
LINE
8
BLACK
6
CONTINUOUS
10
7.70833
20
-7.7396
11
7.70833
21
-7.70023
0
LINE
8
BLACK
6
CONTINUOUS
10
7.70833
20
-7.68054
11
7.70551
21
-7.68335
0
LINE
8
BLACK
6
CONTINUOUS
10
7.70551
20
-7.68335
11
7.70833
21
-7.68617
0
LINE
8
BLACK
6
CONTINUOUS
10
7.70833
20
-7.68617
11
7.71114
21
-7.68335
0
LINE
8
BLACK
6
CONTINUOUS
10
7.71114
20
-7.68335
11
7.70833
21
-7.68054
0
LINE
8
BLACK
6
CONTINUOUS
10
7.70833
20
-7.68054
11
7.70833
21
-7.68617
0
LINE
8
BLACK
6
CONTINUOUS
10
7.76176
20
-7.73679
11
7.75613
21
-7.7396
0
LINE
8
BLACK
6
CONTINUOUS
10
7.75613
20
-7.7396
11
7.74488
21
-7.7396
0
LINE
8
BLACK
6
CONTINUOUS
10
7.74488
20
-7.7396
11
7.73926
21
-7.73679
0
LINE
8
BLACK
6
CONTINUOUS
10
7.73926
20
-7.73679
11
7.73645
21
-7.73397
0
LINE
8
BLACK
6
CONTINUOUS
10
7.73645
20
-7.73397
11
7.73364
21
-7.72835
0
LINE
8
BLACK
6
CONTINUOUS
10
7.73364
20
-7.72835
11
7.73364
21
-7.71148
0
LINE
8
BLACK
6
CONTINUOUS
10
7.73364
20
-7.71148
11
7.73645
21
-7.70585
0
LINE
8
BLACK
6
CONTINUOUS
10
7.73645
20
-7.70585
11
7.73926
21
-7.70304
0
LINE
8
BLACK
6
CONTINUOUS
10
7.73926
20
-7.70304
11
7.74488
21
-7.70023
0
LINE
8
BLACK
6
CONTINUOUS
10
7.74488
20
-7.70023
11
7.75613
21
-7.70023
0
LINE
8
BLACK
6
CONTINUOUS
10
7.75613
20
-7.70023
11
7.76176
21
-7.70304
0
LINE
8
BLACK
6
CONTINUOUS
10
7.81238
20
-7.7396
11
7.81238
21
-7.70866
0
LINE
8
BLACK
6
CONTINUOUS
10
7.81238
20
-7.70866
11
7.80956
21
-7.70304
0
LINE
8
BLACK
6
CONTINUOUS
10
7.80956
20
-7.70304
11
7.80394
21
-7.70023
0
LINE
8
BLACK
6
CONTINUOUS
10
7.80394
20
-7.70023
11
7.79269
21
-7.70023
0
LINE
8
BLACK
6
CONTINUOUS
10
7.79269
20
-7.70023
11
7.78707
21
-7.70304
0
LINE
8
BLACK
6
CONTINUOUS
10
7.81238
20
-7.73679
11
7.80675
21
-7.7396
0
LINE
8
BLACK
6
CONTINUOUS
10
7.80675
20
-7.7396
11
7.79269
21
-7.7396
0
LINE
8
BLACK
6
CONTINUOUS
10
7.79269
20
-7.7396
11
7.78707
21
-7.73679
0
LINE
8
BLACK
6
CONTINUOUS
10
7.78707
20
-7.73679
11
7.78425
21
-7.73116
0
LINE
8
BLACK
6
CONTINUOUS
10
7.78425
20
-7.73116
11
7.78425
21
-7.72554
0
LINE
8
BLACK
6
CONTINUOUS
10
7.78425
20
-7.72554
11
7.78707
21
-7.71991
0
LINE
8
BLACK
6
CONTINUOUS
10
7.78707
20
-7.71991
11
7.79269
21
-7.7171
0
LINE
8
BLACK
6
CONTINUOUS
10
7.79269
20
-7.7171
11
7.80675
21
-7.7171
0
LINE
8
BLACK
6
CONTINUOUS
10
7.80675
20
-7.7171
11
7.81238
21
-7.71429
0
LINE
8
BLACK
6
CONTINUOUS
10
7.86581
20
-7.7396
11
7.86581
21
-7.68054
0
LINE
8
BLACK
6
CONTINUOUS
10
7.86581
20
-7.73679
11
7.86018
21
-7.7396
0
LINE
8
BLACK
6
CONTINUOUS
10
7.86018
20
-7.7396
11
7.84893
21
-7.7396
0
LINE
8
BLACK
6
CONTINUOUS
10
7.84893
20
-7.7396
11
7.84331
21
-7.73679
0
LINE
8
BLACK
6
CONTINUOUS
10
7.84331
20
-7.73679
11
7.8405
21
-7.73397
0
LINE
8
BLACK
6
CONTINUOUS
10
7.8405
20
-7.73397
11
7.83769
21
-7.72835
0
LINE
8
BLACK
6
CONTINUOUS
10
7.83769
20
-7.72835
11
7.83769
21
-7.71148
0
LINE
8
BLACK
6
CONTINUOUS
10
7.83769
20
-7.71148
11
7.8405
21
-7.70585
0
LINE
8
BLACK
6
CONTINUOUS
10
7.8405
20
-7.70585
11
7.84331
21
-7.70304
0
LINE
8
BLACK
6
CONTINUOUS
10
7.84331
20
-7.70304
11
7.84893
21
-7.70023
0
LINE
8
BLACK
6
CONTINUOUS
10
7.84893
20
-7.70023
11
7.86018
21
-7.70023
0
LINE
8
BLACK
6
CONTINUOUS
10
7.86018
20
-7.70023
11
7.86581
21
-7.70304
0
LINE
8
BLACK
6
CONTINUOUS
10
7.9558
20
-7.76209
11
7.95298
21
-7.75928
0
LINE
8
BLACK
6
CONTINUOUS
10
7.95298
20
-7.75928
11
7.94736
21
-7.75085
0
LINE
8
BLACK
6
CONTINUOUS
10
7.94736
20
-7.75085
11
7.94455
21
-7.74522
0
LINE
8
BLACK
6
CONTINUOUS
10
7.94455
20
-7.74522
11
7.94173
21
-7.73679
0
LINE
8
BLACK
6
CONTINUOUS
10
7.94173
20
-7.73679
11
7.93892
21
-7.72272
0
LINE
8
BLACK
6
CONTINUOUS
10
7.93892
20
-7.72272
11
7.93892
21
-7.71148
0
LINE
8
BLACK
6
CONTINUOUS
10
7.93892
20
-7.71148
11
7.94173
21
-7.69742
0
LINE
8
BLACK
6
CONTINUOUS
10
7.94173
20
-7.69742
11
7.94455
21
-7.68898
0
LINE
8
BLACK
6
CONTINUOUS
10
7.94455
20
-7.68898
11
7.94736
21
-7.68335
0
LINE
8
BLACK
6
CONTINUOUS
10
7.94736
20
-7.68335
11
7.95298
21
-7.67492
0
LINE
8
BLACK
6
CONTINUOUS
10
7.95298
20
-7.67492
11
7.9558
21
-7.67211
0
LINE
8
BLACK
6
CONTINUOUS
10
8.0036
20
-7.68054
11
7.99235
21
-7.68054
0
LINE
8
BLACK
6
CONTINUOUS
10
7.99235
20
-7.68054
11
7.98673
21
-7.68335
0
LINE
8
BLACK
6
CONTINUOUS
10
7.98673
20
-7.68335
11
7.98392
21
-7.68617
0
LINE
8
BLACK
6
CONTINUOUS
10
7.98392
20
-7.68617
11
7.97829
21
-7.6946
0
LINE
8
BLACK
6
CONTINUOUS
10
7.97829
20
-7.6946
11
7.97548
21
-7.70585
0
LINE
8
BLACK
6
CONTINUOUS
10
7.97548
20
-7.70585
11
7.97548
21
-7.72835
0
LINE
8
BLACK
6
CONTINUOUS
10
7.97548
20
-7.72835
11
7.97829
21
-7.73397
0
LINE
8
BLACK
6
CONTINUOUS
10
7.97829
20
-7.73397
11
7.9811
21
-7.73679
0
LINE
8
BLACK
6
CONTINUOUS
10
7.9811
20
-7.73679
11
7.98673
21
-7.7396
0
LINE
8
BLACK
6
CONTINUOUS
10
7.98673
20
-7.7396
11
7.99798
21
-7.7396
0
LINE
8
BLACK
6
CONTINUOUS
10
7.99798
20
-7.7396
11
8.0036
21
-7.73679
0
LINE
8
BLACK
6
CONTINUOUS
10
8.0036
20
-7.73679
11
8.00641
21
-7.73397
0
LINE
8
BLACK
6
CONTINUOUS
10
8.00641
20
-7.73397
11
8.00923
21
-7.72835
0
LINE
8
BLACK
6
CONTINUOUS
10
8.00923
20
-7.72835
11
8.00923
21
-7.71429
0
LINE
8
BLACK
6
CONTINUOUS
10
8.00923
20
-7.71429
11
8.00641
21
-7.70866
0
LINE
8
BLACK
6
CONTINUOUS
10
8.00641
20
-7.70866
11
8.0036
21
-7.70585
0
LINE
8
BLACK
6
CONTINUOUS
10
8.0036
20
-7.70585
11
7.99798
21
-7.70304
0
LINE
8
BLACK
6
CONTINUOUS
10
7.99798
20
-7.70304
11
7.98673
21
-7.70304
0
LINE
8
BLACK
6
CONTINUOUS
10
7.98673
20
-7.70304
11
7.9811
21
-7.70585
0
LINE
8
BLACK
6
CONTINUOUS
10
7.9811
20
-7.70585
11
7.97829
21
-7.70866
0
LINE
8
BLACK
6
CONTINUOUS
10
7.97829
20
-7.70866
11
7.97548
21
-7.71429
0
LINE
8
BLACK
6
CONTINUOUS
10
8.03454
20
-7.73397
11
8.03735
21
-7.73679
0
LINE
8
BLACK
6
CONTINUOUS
10
8.03735
20
-7.73679
11
8.03454
21
-7.7396
0
LINE
8
BLACK
6
CONTINUOUS
10
8.03454
20
-7.7396
11
8.03172
21
-7.73679
0
LINE
8
BLACK
6
CONTINUOUS
10
8.03172
20
-7.73679
11
8.03454
21
-7.73397
0
LINE
8
BLACK
6
CONTINUOUS
10
8.03454
20
-7.73397
11
8.03454
21
-7.7396
0
LINE
8
BLACK
6
CONTINUOUS
10
8.07391
20
-7.68054
11
8.07953
21
-7.68054
0
LINE
8
BLACK
6
CONTINUOUS
10
8.07953
20
-7.68054
11
8.08515
21
-7.68335
0
LINE
8
BLACK
6
CONTINUOUS
10
8.08515
20
-7.68335
11
8.08797
21
-7.68617
0
LINE
8
BLACK
6
CONTINUOUS
10
8.08797
20
-7.68617
11
8.09078
21
-7.69179
0
LINE
8
BLACK
6
CONTINUOUS
10
8.09078
20
-7.69179
11
8.09359
21
-7.70304
0
LINE
8
BLACK
6
CONTINUOUS
10
8.09359
20
-7.70304
11
8.09359
21
-7.7171
0
LINE
8
BLACK
6
CONTINUOUS
10
8.09359
20
-7.7171
11
8.09078
21
-7.72835
0
LINE
8
BLACK
6
CONTINUOUS
10
8.09078
20
-7.72835
11
8.08797
21
-7.73397
0
LINE
8
BLACK
6
CONTINUOUS
10
8.08797
20
-7.73397
11
8.08515
21
-7.73679
0
LINE
8
BLACK
6
CONTINUOUS
10
8.08515
20
-7.73679
11
8.07953
21
-7.7396
0
LINE
8
BLACK
6
CONTINUOUS
10
8.07953
20
-7.7396
11
8.07391
21
-7.7396
0
LINE
8
BLACK
6
CONTINUOUS
10
8.07391
20
-7.7396
11
8.06828
21
-7.73679
0
LINE
8
BLACK
6
CONTINUOUS
10
8.06828
20
-7.73679
11
8.06547
21
-7.73397
0
LINE
8
BLACK
6
CONTINUOUS
10
8.06547
20
-7.73397
11
8.06266
21
-7.72835
0
LINE
8
BLACK
6
CONTINUOUS
10
8.06266
20
-7.72835
11
8.05984
21
-7.7171
0
LINE
8
BLACK
6
CONTINUOUS
10
8.05984
20
-7.7171
11
8.05984
21
-7.70304
0
LINE
8
BLACK
6
CONTINUOUS
10
8.05984
20
-7.70304
11
8.06266
21
-7.69179
0
LINE
8
BLACK
6
CONTINUOUS
10
8.06266
20
-7.69179
11
8.06547
21
-7.68617
0
LINE
8
BLACK
6
CONTINUOUS
10
8.06547
20
-7.68617
11
8.06828
21
-7.68335
0
LINE
8
BLACK
6
CONTINUOUS
10
8.06828
20
-7.68335
11
8.07391
21
-7.68054
0
LINE
8
BLACK
6
CONTINUOUS
10
8.1189
20
-7.73397
11
8.12171
21
-7.73679
0
LINE
8
BLACK
6
CONTINUOUS
10
8.12171
20
-7.73679
11
8.1189
21
-7.7396
0
LINE
8
BLACK
6
CONTINUOUS
10
8.1189
20
-7.7396
11
8.11609
21
-7.73679
0
LINE
8
BLACK
6
CONTINUOUS
10
8.11609
20
-7.73679
11
8.1189
21
-7.73397
0
LINE
8
BLACK
6
CONTINUOUS
10
8.1189
20
-7.73397
11
8.1189
21
-7.7396
0
LINE
8
BLACK
6
CONTINUOUS
10
8.17233
20
-7.70023
11
8.17233
21
-7.7396
0
LINE
8
BLACK
6
CONTINUOUS
10
8.15827
20
-7.67773
11
8.14421
21
-7.71991
0
LINE
8
BLACK
6
CONTINUOUS
10
8.14421
20
-7.71991
11
8.18077
21
-7.71991
0
LINE
8
BLACK
6
CONTINUOUS
10
8.19764
20
-7.76209
11
8.20045
21
-7.75928
0
LINE
8
BLACK
6
CONTINUOUS
10
8.20045
20
-7.75928
11
8.20608
21
-7.75085
0
LINE
8
BLACK
6
CONTINUOUS
10
8.20608
20
-7.75085
11
8.20889
21
-7.74522
0
LINE
8
BLACK
6
CONTINUOUS
10
8.20889
20
-7.74522
11
8.2117
21
-7.73679
0
LINE
8
BLACK
6
CONTINUOUS
10
8.2117
20
-7.73679
11
8.21451
21
-7.72272
0
LINE
8
BLACK
6
CONTINUOUS
10
8.21451
20
-7.72272
11
8.21451
21
-7.71148
0
LINE
8
BLACK
6
CONTINUOUS
10
8.21451
20
-7.71148
11
8.2117
21
-7.69742
0
LINE
8
BLACK
6
CONTINUOUS
10
8.2117
20
-7.69742
11
8.20889
21
-7.68898
0
LINE
8
BLACK
6
CONTINUOUS
10
8.20889
20
-7.68898
11
8.20608
21
-7.68335
0
LINE
8
BLACK
6
CONTINUOUS
10
8.20608
20
-7.68335
11
8.20045
21
-7.67492
0
LINE
8
BLACK
6
CONTINUOUS
10
8.20045
20
-7.67492
11
8.19764
21
-7.67211
0
LINE
8
BLACK
6
CONTINUOUS
10
6.96859
20
-7.53965
11
11.2206
21
-7.53965
0
LINE
8
BLACK
6
CONTINUOUS
10
10.4099
20
-7.62936
11
10.3902
21
-7.60124
0
LINE
8
BLACK
6
CONTINUOUS
10
10.3762
20
-7.62936
11
10.3762
21
-7.57031
0
LINE
8
BLACK
6
CONTINUOUS
10
10.3762
20
-7.57031
11
10.3987
21
-7.57031
0
LINE
8
BLACK
6
CONTINUOUS
10
10.3987
20
-7.57031
11
10.4043
21
-7.57312
0
LINE
8
BLACK
6
CONTINUOUS
10
10.4043
20
-7.57312
11
10.4071
21
-7.57593
0
LINE
8
BLACK
6
CONTINUOUS
10
10.4071
20
-7.57593
11
10.4099
21
-7.58155
0
LINE
8
BLACK
6
CONTINUOUS
10
10.4099
20
-7.58155
11
10.4099
21
-7.58999
0
LINE
8
BLACK
6
CONTINUOUS
10
10.4099
20
-7.58999
11
10.4071
21
-7.59562
0
LINE
8
BLACK
6
CONTINUOUS
10
10.4071
20
-7.59562
11
10.4043
21
-7.59843
0
LINE
8
BLACK
6
CONTINUOUS
10
10.4043
20
-7.59843
11
10.3987
21
-7.60124
0
LINE
8
BLACK
6
CONTINUOUS
10
10.3987
20
-7.60124
11
10.3762
21
-7.60124
0
LINE
8
BLACK
6
CONTINUOUS
10
10.4577
20
-7.62655
11
10.4521
21
-7.62936
0
LINE
8
BLACK
6
CONTINUOUS
10
10.4521
20
-7.62936
11
10.4408
21
-7.62936
0
LINE
8
BLACK
6
CONTINUOUS
10
10.4408
20
-7.62936
11
10.4352
21
-7.62655
0
LINE
8
BLACK
6
CONTINUOUS
10
10.4352
20
-7.62655
11
10.4324
21
-7.62092
0
LINE
8
BLACK
6
CONTINUOUS
10
10.4324
20
-7.62092
11
10.4324
21
-7.59843
0
LINE
8
BLACK
6
CONTINUOUS
10
10.4324
20
-7.59843
11
10.4352
21
-7.5928
0
LINE
8
BLACK
6
CONTINUOUS
10
10.4352
20
-7.5928
11
10.4408
21
-7.58999
0
LINE
8
BLACK
6
CONTINUOUS
10
10.4408
20
-7.58999
11
10.4521
21
-7.58999
0
LINE
8
BLACK
6
CONTINUOUS
10
10.4521
20
-7.58999
11
10.4577
21
-7.5928
0
LINE
8
BLACK
6
CONTINUOUS
10
10.4577
20
-7.5928
11
10.4605
21
-7.59843
0
LINE
8
BLACK
6
CONTINUOUS
10
10.4605
20
-7.59843
11
10.4605
21
-7.60405
0
LINE
8
BLACK
6
CONTINUOUS
10
10.4605
20
-7.60405
11
10.4324
21
-7.60968
0
LINE
8
BLACK
6
CONTINUOUS
10
10.4802
20
-7.58999
11
10.4943
21
-7.62936
0
LINE
8
BLACK
6
CONTINUOUS
10
10.4943
20
-7.62936
11
10.5083
21
-7.58999
0
LINE
8
BLACK
6
CONTINUOUS
10
10.5308
20
-7.62374
11
10.5336
21
-7.62655
0
LINE
8
BLACK
6
CONTINUOUS
10
10.5336
20
-7.62655
11
10.5308
21
-7.62936
0
LINE
8
BLACK
6
CONTINUOUS
10
10.5308
20
-7.62936
11
10.528
21
-7.62655
0
LINE
8
BLACK
6
CONTINUOUS
10
10.528
20
-7.62655
11
10.5308
21
-7.62374
0
LINE
8
BLACK
6
CONTINUOUS
10
10.5308
20
-7.62374
11
10.5308
21
-7.62936
0
LINE
8
BLACK
6
CONTINUOUS
10
10.5308
20
-7.5928
11
10.5336
21
-7.59562
0
LINE
8
BLACK
6
CONTINUOUS
10
10.5336
20
-7.59562
11
10.5308
21
-7.59843
0
LINE
8
BLACK
6
CONTINUOUS
10
10.5308
20
-7.59843
11
10.528
21
-7.59562
0
LINE
8
BLACK
6
CONTINUOUS
10
10.528
20
-7.59562
11
10.5308
21
-7.5928
0
LINE
8
BLACK
6
CONTINUOUS
10
10.5308
20
-7.5928
11
10.5308
21
-7.59843
0
LINE
8
BLACK
6
CONTINUOUS
10
10.6152
20
-7.57031
11
10.6208
21
-7.57031
0
LINE
8
BLACK
6
CONTINUOUS
10
10.6208
20
-7.57031
11
10.6264
21
-7.57312
0
LINE
8
BLACK
6
CONTINUOUS
10
10.6264
20
-7.57312
11
10.6292
21
-7.57593
0
LINE
8
BLACK
6
CONTINUOUS
10
10.6292
20
-7.57593
11
10.6321
21
-7.58155
0
LINE
8
BLACK
6
CONTINUOUS
10
10.6321
20
-7.58155
11
10.6349
21
-7.5928
0
LINE
8
BLACK
6
CONTINUOUS
10
10.6349
20
-7.5928
11
10.6349
21
-7.60686
0
LINE
8
BLACK
6
CONTINUOUS
10
10.6349
20
-7.60686
11
10.6321
21
-7.61811
0
LINE
8
BLACK
6
CONTINUOUS
10
10.6321
20
-7.61811
11
10.6292
21
-7.62374
0
LINE
8
BLACK
6
CONTINUOUS
10
10.6292
20
-7.62374
11
10.6264
21
-7.62655
0
LINE
8
BLACK
6
CONTINUOUS
10
10.6264
20
-7.62655
11
10.6208
21
-7.62936
0
LINE
8
BLACK
6
CONTINUOUS
10
10.6208
20
-7.62936
11
10.6152
21
-7.62936
0
LINE
8
BLACK
6
CONTINUOUS
10
10.6152
20
-7.62936
11
10.6096
21
-7.62655
0
LINE
8
BLACK
6
CONTINUOUS
10
10.6096
20
-7.62655
11
10.6068
21
-7.62374
0
LINE
8
BLACK
6
CONTINUOUS
10
10.6068
20
-7.62374
11
10.6039
21
-7.61811
0
LINE
8
BLACK
6
CONTINUOUS
10
10.6039
20
-7.61811
11
10.6011
21
-7.60686
0
LINE
8
BLACK
6
CONTINUOUS
10
10.6011
20
-7.60686
11
10.6011
21
-7.5928
0
LINE
8
BLACK
6
CONTINUOUS
10
10.6011
20
-7.5928
11
10.6039
21
-7.58155
0
LINE
8
BLACK
6
CONTINUOUS
10
10.6039
20
-7.58155
11
10.6068
21
-7.57593
0
LINE
8
BLACK
6
CONTINUOUS
10
10.6068
20
-7.57593
11
10.6096
21
-7.57312
0
LINE
8
BLACK
6
CONTINUOUS
10
10.6096
20
-7.57312
11
10.6152
21
-7.57031
0
LINE
8
BLACK
6
CONTINUOUS
10
10.6602
20
-7.62374
11
10.663
21
-7.62655
0
LINE
8
BLACK
6
CONTINUOUS
10
10.663
20
-7.62655
11
10.6602
21
-7.62936
0
LINE
8
BLACK
6
CONTINUOUS
10
10.6602
20
-7.62936
11
10.6574
21
-7.62655
0
LINE
8
BLACK
6
CONTINUOUS
10
10.6574
20
-7.62655
11
10.6602
21
-7.62374
0
LINE
8
BLACK
6
CONTINUOUS
10
10.6602
20
-7.62374
11
10.6602
21
-7.62936
0
LINE
8
BLACK
6
CONTINUOUS
10
10.7136
20
-7.57031
11
10.7024
21
-7.57031
0
LINE
8
BLACK
6
CONTINUOUS
10
10.7024
20
-7.57031
11
10.6967
21
-7.57312
0
LINE
8
BLACK
6
CONTINUOUS
10
10.6967
20
-7.57312
11
10.6939
21
-7.57593
0
LINE
8
BLACK
6
CONTINUOUS
10
10.6939
20
-7.57593
11
10.6883
21
-7.58437
0
LINE
8
BLACK
6
CONTINUOUS
10
10.6883
20
-7.58437
11
10.6855
21
-7.59562
0
LINE
8
BLACK
6
CONTINUOUS
10
10.6855
20
-7.59562
11
10.6855
21
-7.61811
0
LINE
8
BLACK
6
CONTINUOUS
10
10.6855
20
-7.61811
11
10.6883
21
-7.62374
0
LINE
8
BLACK
6
CONTINUOUS
10
10.6883
20
-7.62374
11
10.6911
21
-7.62655
0
LINE
8
BLACK
6
CONTINUOUS
10
10.6911
20
-7.62655
11
10.6967
21
-7.62936
0
LINE
8
BLACK
6
CONTINUOUS
10
10.6967
20
-7.62936
11
10.708
21
-7.62936
0
LINE
8
BLACK
6
CONTINUOUS
10
10.708
20
-7.62936
11
10.7136
21
-7.62655
0
LINE
8
BLACK
6
CONTINUOUS
10
10.7136
20
-7.62655
11
10.7164
21
-7.62374
0
LINE
8
BLACK
6
CONTINUOUS
10
10.7164
20
-7.62374
11
10.7192
21
-7.61811
0
LINE
8
BLACK
6
CONTINUOUS
10
10.7192
20
-7.61811
11
10.7192
21
-7.60405
0
LINE
8
BLACK
6
CONTINUOUS
10
10.7192
20
-7.60405
11
10.7164
21
-7.59843
0
LINE
8
BLACK
6
CONTINUOUS
10
10.7164
20
-7.59843
11
10.7136
21
-7.59562
0
LINE
8
BLACK
6
CONTINUOUS
10
10.7136
20
-7.59562
11
10.708
21
-7.5928
0
LINE
8
BLACK
6
CONTINUOUS
10
10.708
20
-7.5928
11
10.6967
21
-7.5928
0
LINE
8
BLACK
6
CONTINUOUS
10
10.6967
20
-7.5928
11
10.6911
21
-7.59562
0
LINE
8
BLACK
6
CONTINUOUS
10
10.6911
20
-7.59562
11
10.6883
21
-7.59843
0
LINE
8
BLACK
6
CONTINUOUS
10
10.6883
20
-7.59843
11
10.6855
21
-7.60405
0
LINE
8
BLACK
6
CONTINUOUS
10
7.02216
20
-7.62655
11
7.0306
21
-7.62936
0
LINE
8
BLACK
6
CONTINUOUS
10
7.0306
20
-7.62936
11
7.04466
21
-7.62936
0
LINE
8
BLACK
6
CONTINUOUS
10
7.04466
20
-7.62936
11
7.05028
21
-7.62655
0
LINE
8
BLACK
6
CONTINUOUS
10
7.05028
20
-7.62655
11
7.0531
21
-7.62374
0
LINE
8
BLACK
6
CONTINUOUS
10
7.0531
20
-7.62374
11
7.05591
21
-7.61811
0
LINE
8
BLACK
6
CONTINUOUS
10
7.05591
20
-7.61811
11
7.05591
21
-7.61249
0
LINE
8
BLACK
6
CONTINUOUS
10
7.05591
20
-7.61249
11
7.0531
21
-7.60686
0
LINE
8
BLACK
6
CONTINUOUS
10
7.0531
20
-7.60686
11
7.05028
21
-7.60405
0
LINE
8
BLACK
6
CONTINUOUS
10
7.05028
20
-7.60405
11
7.04466
21
-7.60124
0
LINE
8
BLACK
6
CONTINUOUS
10
7.04466
20
-7.60124
11
7.03341
21
-7.59843
0
LINE
8
BLACK
6
CONTINUOUS
10
7.03341
20
-7.59843
11
7.02779
21
-7.59562
0
LINE
8
BLACK
6
CONTINUOUS
10
7.02779
20
-7.59562
11
7.02497
21
-7.5928
0
LINE
8
BLACK
6
CONTINUOUS
10
7.02497
20
-7.5928
11
7.02216
21
-7.58718
0
LINE
8
BLACK
6
CONTINUOUS
10
7.02216
20
-7.58718
11
7.02216
21
-7.58155
0
LINE
8
BLACK
6
CONTINUOUS
10
7.02216
20
-7.58155
11
7.02497
21
-7.57593
0
LINE
8
BLACK
6
CONTINUOUS
10
7.02497
20
-7.57593
11
7.02779
21
-7.57312
0
LINE
8
BLACK
6
CONTINUOUS
10
7.02779
20
-7.57312
11
7.03341
21
-7.57031
0
LINE
8
BLACK
6
CONTINUOUS
10
7.03341
20
-7.57031
11
7.04747
21
-7.57031
0
LINE
8
BLACK
6
CONTINUOUS
10
7.04747
20
-7.57031
11
7.05591
21
-7.57312
0
LINE
8
BLACK
6
CONTINUOUS
10
7.08122
20
-7.62936
11
7.08122
21
-7.58999
0
LINE
8
BLACK
6
CONTINUOUS
10
7.08122
20
-7.57031
11
7.0784
21
-7.57312
0
LINE
8
BLACK
6
CONTINUOUS
10
7.0784
20
-7.57312
11
7.08122
21
-7.57593
0
LINE
8
BLACK
6
CONTINUOUS
10
7.08122
20
-7.57593
11
7.08403
21
-7.57312
0
LINE
8
BLACK
6
CONTINUOUS
10
7.08403
20
-7.57312
11
7.08122
21
-7.57031
0
LINE
8
BLACK
6
CONTINUOUS
10
7.08122
20
-7.57031
11
7.08122
21
-7.57593
0
LINE
8
BLACK
6
CONTINUOUS
10
7.10371
20
-7.58999
11
7.13465
21
-7.58999
0
LINE
8
BLACK
6
CONTINUOUS
10
7.13465
20
-7.58999
11
7.10371
21
-7.62936
0
LINE
8
BLACK
6
CONTINUOUS
10
7.10371
20
-7.62936
11
7.13465
21
-7.62936
0
LINE
8
BLACK
6
CONTINUOUS
10
7.17964
20
-7.62655
11
7.17402
21
-7.62936
0
LINE
8
BLACK
6
CONTINUOUS
10
7.17402
20
-7.62936
11
7.16277
21
-7.62936
0
LINE
8
BLACK
6
CONTINUOUS
10
7.16277
20
-7.62936
11
7.15715
21
-7.62655
0
LINE
8
BLACK
6
CONTINUOUS
10
7.15715
20
-7.62655
11
7.15433
21
-7.62092
0
LINE
8
BLACK
6
CONTINUOUS
10
7.15433
20
-7.62092
11
7.15433
21
-7.59843
0
LINE
8
BLACK
6
CONTINUOUS
10
7.15433
20
-7.59843
11
7.15715
21
-7.5928
0
LINE
8
BLACK
6
CONTINUOUS
10
7.15715
20
-7.5928
11
7.16277
21
-7.58999
0
LINE
8
BLACK
6
CONTINUOUS
10
7.16277
20
-7.58999
11
7.17402
21
-7.58999
0
LINE
8
BLACK
6
CONTINUOUS
10
7.17402
20
-7.58999
11
7.17964
21
-7.5928
0
LINE
8
BLACK
6
CONTINUOUS
10
7.17964
20
-7.5928
11
7.18245
21
-7.59843
0
LINE
8
BLACK
6
CONTINUOUS
10
7.18245
20
-7.59843
11
7.18245
21
-7.60405
0
LINE
8
BLACK
6
CONTINUOUS
10
7.18245
20
-7.60405
11
7.15433
21
-7.60968
0
LINE
8
BLACK
6
CONTINUOUS
10
7.20776
20
-7.62374
11
7.21058
21
-7.62655
0
LINE
8
BLACK
6
CONTINUOUS
10
7.21058
20
-7.62655
11
7.20776
21
-7.62936
0
LINE
8
BLACK
6
CONTINUOUS
10
7.20776
20
-7.62936
11
7.20495
21
-7.62655
0
LINE
8
BLACK
6
CONTINUOUS
10
7.20495
20
-7.62655
11
7.20776
21
-7.62374
0
LINE
8
BLACK
6
CONTINUOUS
10
7.20776
20
-7.62374
11
7.20776
21
-7.62936
0
LINE
8
BLACK
6
CONTINUOUS
10
7.20776
20
-7.5928
11
7.21058
21
-7.59562
0
LINE
8
BLACK
6
CONTINUOUS
10
7.21058
20
-7.59562
11
7.20776
21
-7.59843
0
LINE
8
BLACK
6
CONTINUOUS
10
7.20776
20
-7.59843
11
7.20495
21
-7.59562
0
LINE
8
BLACK
6
CONTINUOUS
10
7.20495
20
-7.59562
11
7.20776
21
-7.5928
0
LINE
8
BLACK
6
CONTINUOUS
10
7.20776
20
-7.5928
11
7.20776
21
-7.59843
0
LINE
8
BLACK
6
CONTINUOUS
10
7.27807
20
-7.61249
11
7.30619
21
-7.61249
0
LINE
8
BLACK
6
CONTINUOUS
10
7.27244
20
-7.62936
11
7.29213
21
-7.57031
0
LINE
8
BLACK
6
CONTINUOUS
10
7.29213
20
-7.57031
11
7.31181
21
-7.62936
0
LINE
8
BLACK
6
CONTINUOUS
10
7.35681
20
-7.58999
11
7.35681
21
-7.62936
0
LINE
8
BLACK
6
CONTINUOUS
10
7.34275
20
-7.56749
11
7.32869
21
-7.60968
0
LINE
8
BLACK
6
CONTINUOUS
10
7.32869
20
-7.60968
11
7.36524
21
-7.60968
0
LINE
8
BLACK
6
CONTINUOUS
10
10.3714
20
-7.7396
11
10.3714
21
-7.68054
0
LINE
8
BLACK
6
CONTINUOUS
10
10.4249
20
-7.7396
11
10.4249
21
-7.68054
0
LINE
8
BLACK
6
CONTINUOUS
10
10.4249
20
-7.73679
11
10.4192
21
-7.7396
0
LINE
8
BLACK
6
CONTINUOUS
10
10.4192
20
-7.7396
11
10.408
21
-7.7396
0
LINE
8
BLACK
6
CONTINUOUS
10
10.408
20
-7.7396
11
10.4024
21
-7.73679
0
LINE
8
BLACK
6
CONTINUOUS
10
10.4024
20
-7.73679
11
10.3996
21
-7.73397
0
LINE
8
BLACK
6
CONTINUOUS
10
10.3996
20
-7.73397
11
10.3967
21
-7.72835
0
LINE
8
BLACK
6
CONTINUOUS
10
10.3967
20
-7.72835
11
10.3967
21
-7.71148
0
LINE
8
BLACK
6
CONTINUOUS
10
10.3967
20
-7.71148
11
10.3996
21
-7.70585
0
LINE
8
BLACK
6
CONTINUOUS
10
10.3996
20
-7.70585
11
10.4024
21
-7.70304
0
LINE
8
BLACK
6
CONTINUOUS
10
10.4024
20
-7.70304
11
10.408
21
-7.70023
0
LINE
8
BLACK
6
CONTINUOUS
10
10.408
20
-7.70023
11
10.4192
21
-7.70023
0
LINE
8
BLACK
6
CONTINUOUS
10
10.4192
20
-7.70023
11
10.4249
21
-7.70304
0
LINE
8
BLACK
6
CONTINUOUS
10
10.453
20
-7.73397
11
10.4558
21
-7.73679
0
LINE
8
BLACK
6
CONTINUOUS
10
10.4558
20
-7.73679
11
10.453
21
-7.7396
0
LINE
8
BLACK
6
CONTINUOUS
10
10.453
20
-7.7396
11
10.4502
21
-7.73679
0
LINE
8
BLACK
6
CONTINUOUS
10
10.4502
20
-7.73679
11
10.453
21
-7.73397
0
LINE
8
BLACK
6
CONTINUOUS
10
10.453
20
-7.73397
11
10.453
21
-7.7396
0
LINE
8
BLACK
6
CONTINUOUS
10
10.453
20
-7.70304
11
10.4558
21
-7.70585
0
LINE
8
BLACK
6
CONTINUOUS
10
10.4558
20
-7.70585
11
10.453
21
-7.70866
0
LINE
8
BLACK
6
CONTINUOUS
10
10.453
20
-7.70866
11
10.4502
21
-7.70585
0
LINE
8
BLACK
6
CONTINUOUS
10
10.4502
20
-7.70585
11
10.453
21
-7.70304
0
LINE
8
BLACK
6
CONTINUOUS
10
10.453
20
-7.70304
11
10.453
21
-7.70866
0
LINE
8
BLACK
6
CONTINUOUS
10
10.557
20
-7.7396
11
10.5233
21
-7.7396
0
LINE
8
BLACK
6
CONTINUOUS
10
10.5402
20
-7.7396
11
10.5402
21
-7.68054
0
LINE
8
BLACK
6
CONTINUOUS
10
10.5402
20
-7.68054
11
10.5345
21
-7.68898
0
LINE
8
BLACK
6
CONTINUOUS
10
10.5345
20
-7.68898
11
10.5289
21
-7.6946
0
LINE
8
BLACK
6
CONTINUOUS
10
10.5289
20
-7.6946
11
10.5233
21
-7.69742
0
LINE
8
BLACK
6
CONTINUOUS
10
10.6245
20
-7.67773
11
10.5739
21
-7.75366
0
LINE
8
BLACK
6
CONTINUOUS
10
10.6751
20
-7.7396
11
10.6414
21
-7.7396
0
LINE
8
BLACK
6
CONTINUOUS
10
10.6583
20
-7.7396
11
10.6583
21
-7.68054
0
LINE
8
BLACK
6
CONTINUOUS
10
10.6583
20
-7.68054
11
10.6526
21
-7.68898
0
LINE
8
BLACK
6
CONTINUOUS
10
10.6526
20
-7.68898
11
10.647
21
-7.6946
0
LINE
8
BLACK
6
CONTINUOUS
10
10.647
20
-7.6946
11
10.6414
21
-7.69742
0
LINE
8
BLACK
6
CONTINUOUS
10
6.96859
20
-7.38217
11
11.2206
21
-7.38217
0
LINE
8
BLACK
6
CONTINUOUS
10
7.03601
20
-7.40992
11
7.081
21
-7.40992
0
LINE
8
BLACK
6
CONTINUOUS
10
7.04866
20
-7.48866
11
7.0585
21
-7.40992
0
LINE
8
BLACK
6
CONTINUOUS
10
7.09741
20
-7.48866
11
7.10397
21
-7.43617
0
LINE
8
BLACK
6
CONTINUOUS
10
7.10725
20
-7.40992
11
7.10303
21
-7.41367
0
LINE
8
BLACK
6
CONTINUOUS
10
7.10303
20
-7.41367
11
7.10631
21
-7.41742
0
LINE
8
BLACK
6
CONTINUOUS
10
7.10631
20
-7.41742
11
7.11053
21
-7.41367
0
LINE
8
BLACK
6
CONTINUOUS
10
7.11053
20
-7.41367
11
7.10725
21
-7.40992
0
LINE
8
BLACK
6
CONTINUOUS
10
7.10725
20
-7.40992
11
7.10631
21
-7.41742
0
LINE
8
BLACK
6
CONTINUOUS
10
7.13021
20
-7.43617
11
7.16021
21
-7.43617
0
LINE
8
BLACK
6
CONTINUOUS
10
7.14474
20
-7.40992
11
7.13631
21
-7.47741
0
LINE
8
BLACK
6
CONTINUOUS
10
7.13631
20
-7.47741
11
7.13912
21
-7.48491
0
LINE
8
BLACK
6
CONTINUOUS
10
7.13912
20
-7.48491
11
7.14615
21
-7.48866
0
LINE
8
BLACK
6
CONTINUOUS
10
7.14615
20
-7.48866
11
7.15365
21
-7.48866
0
LINE
8
BLACK
6
CONTINUOUS
10
7.19114
20
-7.48866
11
7.18411
21
-7.48491
0
LINE
8
BLACK
6
CONTINUOUS
10
7.18411
20
-7.48491
11
7.1813
21
-7.47741
0
LINE
8
BLACK
6
CONTINUOUS
10
7.1813
20
-7.47741
11
7.18974
21
-7.40992
0
LINE
8
BLACK
6
CONTINUOUS
10
7.25161
20
-7.48491
11
7.24364
21
-7.48866
0
LINE
8
BLACK
6
CONTINUOUS
10
7.24364
20
-7.48866
11
7.22864
21
-7.48866
0
LINE
8
BLACK
6
CONTINUOUS
10
7.22864
20
-7.48866
11
7.22161
21
-7.48491
0
LINE
8
BLACK
6
CONTINUOUS
10
7.22161
20
-7.48491
11
7.2188
21
-7.47741
0
LINE
8
BLACK
6
CONTINUOUS
10
7.2188
20
-7.47741
11
7.22255
21
-7.44742
0
LINE
8
BLACK
6
CONTINUOUS
10
7.22255
20
-7.44742
11
7.22723
21
-7.43992
0
LINE
8
BLACK
6
CONTINUOUS
10
7.22723
20
-7.43992
11
7.2352
21
-7.43617
0
LINE
8
BLACK
6
CONTINUOUS
10
7.2352
20
-7.43617
11
7.2502
21
-7.43617
0
LINE
8
BLACK
6
CONTINUOUS
10
7.2502
20
-7.43617
11
7.25723
21
-7.43992
0
LINE
8
BLACK
6
CONTINUOUS
10
7.25723
20
-7.43992
11
7.26004
21
-7.44742
0
LINE
8
BLACK
6
CONTINUOUS
10
7.26004
20
-7.44742
11
7.2591
21
-7.45491
0
LINE
8
BLACK
6
CONTINUOUS
10
7.2591
20
-7.45491
11
7.22067
21
-7.46241
0
LINE
8
BLACK
6
CONTINUOUS
10
7.28957
20
-7.48116
11
7.29285
21
-7.48491
0
LINE
8
BLACK
6
CONTINUOUS
10
7.29285
20
-7.48491
11
7.28863
21
-7.48866
0
LINE
8
BLACK
6
CONTINUOUS
10
7.28863
20
-7.48866
11
7.28535
21
-7.48491
0
LINE
8
BLACK
6
CONTINUOUS
10
7.28535
20
-7.48491
11
7.28957
21
-7.48116
0
LINE
8
BLACK
6
CONTINUOUS
10
7.28957
20
-7.48116
11
7.28863
21
-7.48866
0
LINE
8
BLACK
6
CONTINUOUS
10
7.29472
20
-7.43992
11
7.29801
21
-7.44367
0
LINE
8
BLACK
6
CONTINUOUS
10
7.29801
20
-7.44367
11
7.29379
21
-7.44742
0
LINE
8
BLACK
6
CONTINUOUS
10
7.29379
20
-7.44742
11
7.29051
21
-7.44367
0
LINE
8
BLACK
6
CONTINUOUS
10
7.29051
20
-7.44367
11
7.29472
21
-7.43992
0
LINE
8
BLACK
6
CONTINUOUS
10
7.29472
20
-7.43992
11
7.29379
21
-7.44742
0
LINE
8
BLACK
6
CONTINUOUS
10
7.38518
20
-7.46616
11
7.42268
21
-7.46616
0
LINE
8
BLACK
6
CONTINUOUS
10
7.37487
20
-7.48866
11
7.41096
21
-7.40992
0
LINE
8
BLACK
6
CONTINUOUS
10
7.41096
20
-7.40992
11
7.42736
21
-7.48866
0
LINE
8
BLACK
6
CONTINUOUS
10
7.45361
20
-7.48866
11
7.46017
21
-7.43617
0
LINE
8
BLACK
6
CONTINUOUS
10
7.4583
20
-7.45116
11
7.46298
21
-7.44367
0
LINE
8
BLACK
6
CONTINUOUS
10
7.46298
20
-7.44367
11
7.4672
21
-7.43992
0
LINE
8
BLACK
6
CONTINUOUS
10
7.4672
20
-7.43992
11
7.47517
21
-7.43617
0
LINE
8
BLACK
6
CONTINUOUS
10
7.47517
20
-7.43617
11
7.48267
21
-7.43617
0
LINE
8
BLACK
6
CONTINUOUS
10
7.5361
20
-7.48866
11
7.54594
21
-7.40992
0
LINE
8
BLACK
6
CONTINUOUS
10
7.53657
20
-7.48491
11
7.5286
21
-7.48866
0
LINE
8
BLACK
6
CONTINUOUS
10
7.5286
20
-7.48866
11
7.5136
21
-7.48866
0
LINE
8
BLACK
6
CONTINUOUS
10
7.5136
20
-7.48866
11
7.50657
21
-7.48491
0
LINE
8
BLACK
6
CONTINUOUS
10
7.50657
20
-7.48491
11
7.50329
21
-7.48116
0
LINE
8
BLACK
6
CONTINUOUS
10
7.50329
20
-7.48116
11
7.50048
21
-7.47366
0
LINE
8
BLACK
6
CONTINUOUS
10
7.50048
20
-7.47366
11
7.50329
21
-7.45116
0
LINE
8
BLACK
6
CONTINUOUS
10
7.50329
20
-7.45116
11
7.50798
21
-7.44367
0
LINE
8
BLACK
6
CONTINUOUS
10
7.50798
20
-7.44367
11
7.5122
21
-7.43992
0
LINE
8
BLACK
6
CONTINUOUS
10
7.5122
20
-7.43992
11
7.52017
21
-7.43617
0
LINE
8
BLACK
6
CONTINUOUS
10
7.52017
20
-7.43617
11
7.53516
21
-7.43617
0
LINE
8
BLACK
6
CONTINUOUS
10
7.53516
20
-7.43617
11
7.54219
21
-7.43992
0
LINE
8
BLACK
6
CONTINUOUS
10
7.6139
20
-7.43617
11
7.60734
21
-7.48866
0
LINE
8
BLACK
6
CONTINUOUS
10
7.58016
20
-7.43617
11
7.575
21
-7.47741
0
LINE
8
BLACK
6
CONTINUOUS
10
7.575
20
-7.47741
11
7.57781
21
-7.48491
0
LINE
8
BLACK
6
CONTINUOUS
10
7.57781
20
-7.48491
11
7.58484
21
-7.48866
0
LINE
8
BLACK
6
CONTINUOUS
10
7.58484
20
-7.48866
11
7.59609
21
-7.48866
0
LINE
8
BLACK
6
CONTINUOUS
10
7.59609
20
-7.48866
11
7.60406
21
-7.48491
0
LINE
8
BLACK
6
CONTINUOUS
10
7.60406
20
-7.48491
11
7.60828
21
-7.48116
0
LINE
8
BLACK
6
CONTINUOUS
10
7.64484
20
-7.48866
11
7.6514
21
-7.43617
0
LINE
8
BLACK
6
CONTINUOUS
10
7.65468
20
-7.40992
11
7.65046
21
-7.41367
0
LINE
8
BLACK
6
CONTINUOUS
10
7.65046
20
-7.41367
11
7.65374
21
-7.41742
0
LINE
8
BLACK
6
CONTINUOUS
10
7.65374
20
-7.41742
11
7.65796
21
-7.41367
0
LINE
8
BLACK
6
CONTINUOUS
10
7.65796
20
-7.41367
11
7.65468
21
-7.40992
0
LINE
8
BLACK
6
CONTINUOUS
10
7.65468
20
-7.40992
11
7.65374
21
-7.41742
0
LINE
8
BLACK
6
CONTINUOUS
10
7.68889
20
-7.43617
11
7.68233
21
-7.48866
0
LINE
8
BLACK
6
CONTINUOUS
10
7.68796
20
-7.44367
11
7.69218
21
-7.43992
0
LINE
8
BLACK
6
CONTINUOUS
10
7.69218
20
-7.43992
11
7.70014
21
-7.43617
0
LINE
8
BLACK
6
CONTINUOUS
10
7.70014
20
-7.43617
11
7.71139
21
-7.43617
0
LINE
8
BLACK
6
CONTINUOUS
10
7.71139
20
-7.43617
11
7.71842
21
-7.43992
0
LINE
8
BLACK
6
CONTINUOUS
10
7.71842
20
-7.43992
11
7.72123
21
-7.44742
0
LINE
8
BLACK
6
CONTINUOUS
10
7.72123
20
-7.44742
11
7.71608
21
-7.48866
0
LINE
8
BLACK
6
CONTINUOUS
10
7.76482
20
-7.48866
11
7.75779
21
-7.48491
0
LINE
8
BLACK
6
CONTINUOUS
10
7.75779
20
-7.48491
11
7.75451
21
-7.48116
0
LINE
8
BLACK
6
CONTINUOUS
10
7.75451
20
-7.48116
11
7.7517
21
-7.47366
0
LINE
8
BLACK
6
CONTINUOUS
10
7.7517
20
-7.47366
11
7.75451
21
-7.45116
0
LINE
8
BLACK
6
CONTINUOUS
10
7.75451
20
-7.45116
11
7.7592
21
-7.44367
0
LINE
8
BLACK
6
CONTINUOUS
10
7.7592
20
-7.44367
11
7.76342
21
-7.43992
0
LINE
8
BLACK
6
CONTINUOUS
10
7.76342
20
-7.43992
11
7.77138
21
-7.43617
0
LINE
8
BLACK
6
CONTINUOUS
10
7.77138
20
-7.43617
11
7.78263
21
-7.43617
0
LINE
8
BLACK
6
CONTINUOUS
10
7.78263
20
-7.43617
11
7.78966
21
-7.43992
0
LINE
8
BLACK
6
CONTINUOUS
10
7.78966
20
-7.43992
11
7.79294
21
-7.44367
0
LINE
8
BLACK
6
CONTINUOUS
10
7.79294
20
-7.44367
11
7.79576
21
-7.45116
0
LINE
8
BLACK
6
CONTINUOUS
10
7.79576
20
-7.45116
11
7.79294
21
-7.47366
0
LINE
8
BLACK
6
CONTINUOUS
10
7.79294
20
-7.47366
11
7.78826
21
-7.48116
0
LINE
8
BLACK
6
CONTINUOUS
10
7.78826
20
-7.48116
11
7.78404
21
-7.48491
0
LINE
8
BLACK
6
CONTINUOUS
10
7.78404
20
-7.48491
11
7.77607
21
-7.48866
0
LINE
8
BLACK
6
CONTINUOUS
10
7.77607
20
-7.48866
11
7.76482
21
-7.48866
0
LINE
8
BLACK
6
CONTINUOUS
10
7.82856
20
-7.45866
11
7.88856
21
-7.45866
0
LINE
8
BLACK
6
CONTINUOUS
10
7.9223
20
-7.48866
11
7.93215
21
-7.40992
0
LINE
8
BLACK
6
CONTINUOUS
10
7.93215
20
-7.40992
11
7.9673
21
-7.48866
0
LINE
8
BLACK
6
CONTINUOUS
10
7.9673
20
-7.48866
11
7.97714
21
-7.40992
0
LINE
8
BLACK
6
CONTINUOUS
10
8.03854
20
-7.48866
11
8.04369
21
-7.44742
0
LINE
8
BLACK
6
CONTINUOUS
10
8.04369
20
-7.44742
11
8.04088
21
-7.43992
0
LINE
8
BLACK
6
CONTINUOUS
10
8.04088
20
-7.43992
11
8.03385
21
-7.43617
0
LINE
8
BLACK
6
CONTINUOUS
10
8.03385
20
-7.43617
11
8.01885
21
-7.43617
0
LINE
8
BLACK
6
CONTINUOUS
10
8.01885
20
-7.43617
11
8.01089
21
-7.43992
0
LINE
8
BLACK
6
CONTINUOUS
10
8.03901
20
-7.48491
11
8.03104
21
-7.48866
0
LINE
8
BLACK
6
CONTINUOUS
10
8.03104
20
-7.48866
11
8.01229
21
-7.48866
0
LINE
8
BLACK
6
CONTINUOUS
10
8.01229
20
-7.48866
11
8.00526
21
-7.48491
0
LINE
8
BLACK
6
CONTINUOUS
10
8.00526
20
-7.48491
11
8.00245
21
-7.47741
0
LINE
8
BLACK
6
CONTINUOUS
10
8.00245
20
-7.47741
11
8.00339
21
-7.46991
0
LINE
8
BLACK
6
CONTINUOUS
10
8.00339
20
-7.46991
11
8.00807
21
-7.46241
0
LINE
8
BLACK
6
CONTINUOUS
10
8.00807
20
-7.46241
11
8.01604
21
-7.45866
0
LINE
8
BLACK
6
CONTINUOUS
10
8.01604
20
-7.45866
11
8.03479
21
-7.45866
0
LINE
8
BLACK
6
CONTINUOUS
10
8.03479
20
-7.45866
11
8.04276
21
-7.45491
0
LINE
8
BLACK
6
CONTINUOUS
10
8.0826
20
-7.43617
11
8.07603
21
-7.48866
0
LINE
8
BLACK
6
CONTINUOUS
10
8.08166
20
-7.44367
11
8.08588
21
-7.43992
0
LINE
8
BLACK
6
CONTINUOUS
10
8.08588
20
-7.43992
11
8.09384
21
-7.43617
0
LINE
8
BLACK
6
CONTINUOUS
10
8.09384
20
-7.43617
11
8.10509
21
-7.43617
0
LINE
8
BLACK
6
CONTINUOUS
10
8.10509
20
-7.43617
11
8.11212
21
-7.43992
0
LINE
8
BLACK
6
CONTINUOUS
10
8.11212
20
-7.43992
11
8.11493
21
-7.44742
0
LINE
8
BLACK
6
CONTINUOUS
10
8.11493
20
-7.44742
11
8.10978
21
-7.48866
0
LINE
8
BLACK
6
CONTINUOUS
10
8.15852
20
-7.48866
11
8.15149
21
-7.48491
0
LINE
8
BLACK
6
CONTINUOUS
10
8.15149
20
-7.48491
11
8.14821
21
-7.48116
0
LINE
8
BLACK
6
CONTINUOUS
10
8.14821
20
-7.48116
11
8.1454
21
-7.47366
0
LINE
8
BLACK
6
CONTINUOUS
10
8.1454
20
-7.47366
11
8.14821
21
-7.45116
0
LINE
8
BLACK
6
CONTINUOUS
10
8.14821
20
-7.45116
11
8.1529
21
-7.44367
0
LINE
8
BLACK
6
CONTINUOUS
10
8.1529
20
-7.44367
11
8.15712
21
-7.43992
0
LINE
8
BLACK
6
CONTINUOUS
10
8.15712
20
-7.43992
11
8.16508
21
-7.43617
0
LINE
8
BLACK
6
CONTINUOUS
10
8.16508
20
-7.43617
11
8.17633
21
-7.43617
0
LINE
8
BLACK
6
CONTINUOUS
10
8.17633
20
-7.43617
11
8.18336
21
-7.43992
0
LINE
8
BLACK
6
CONTINUOUS
10
8.18336
20
-7.43992
11
8.18664
21
-7.44367
0
LINE
8
BLACK
6
CONTINUOUS
10
8.18664
20
-7.44367
11
8.18946
21
-7.45116
0
LINE
8
BLACK
6
CONTINUOUS
10
8.18946
20
-7.45116
11
8.18664
21
-7.47366
0
LINE
8
BLACK
6
CONTINUOUS
10
8.18664
20
-7.47366
11
8.18196
21
-7.48116
0
LINE
8
BLACK
6
CONTINUOUS
10
8.18196
20
-7.48116
11
8.17774
21
-7.48491
0
LINE
8
BLACK
6
CONTINUOUS
10
8.17774
20
-7.48491
11
8.16977
21
-7.48866
0
LINE
8
BLACK
6
CONTINUOUS
10
8.16977
20
-7.48866
11
8.15852
21
-7.48866
0
LINE
8
BLACK
6
CONTINUOUS
10
8.22227
20
-7.45866
11
8.28226
21
-7.45866
0
LINE
8
BLACK
6
CONTINUOUS
10
8.36662
20
-7.41367
11
8.35959
21
-7.40992
0
LINE
8
BLACK
6
CONTINUOUS
10
8.35959
20
-7.40992
11
8.34834
21
-7.40992
0
LINE
8
BLACK
6
CONTINUOUS
10
8.34834
20
-7.40992
11
8.33663
21
-7.41367
0
LINE
8
BLACK
6
CONTINUOUS
10
8.33663
20
-7.41367
11
8.32819
21
-7.42117
0
LINE
8
BLACK
6
CONTINUOUS
10
8.32819
20
-7.42117
11
8.3235
21
-7.42867
0
LINE
8
BLACK
6
CONTINUOUS
10
8.3235
20
-7.42867
11
8.31788
21
-7.44367
0
LINE
8
BLACK
6
CONTINUOUS
10
8.31788
20
-7.44367
11
8.31647
21
-7.45491
0
LINE
8
BLACK
6
CONTINUOUS
10
8.31647
20
-7.45491
11
8.31835
21
-7.46991
0
LINE
8
BLACK
6
CONTINUOUS
10
8.31835
20
-7.46991
11
8.32116
21
-7.47741
0
LINE
8
BLACK
6
CONTINUOUS
10
8.32116
20
-7.47741
11
8.32772
21
-7.48491
0
LINE
8
BLACK
6
CONTINUOUS
10
8.32772
20
-7.48491
11
8.3385
21
-7.48866
0
LINE
8
BLACK
6
CONTINUOUS
10
8.3385
20
-7.48866
11
8.346
21
-7.48866
0
LINE
8
BLACK
6
CONTINUOUS
10
8.346
20
-7.48866
11
8.35772
21
-7.48491
0
LINE
8
BLACK
6
CONTINUOUS
10
8.35772
20
-7.48491
11
8.36194
21
-7.48116
0
LINE
8
BLACK
6
CONTINUOUS
10
8.36194
20
-7.48116
11
8.36522
21
-7.45491
0
LINE
8
BLACK
6
CONTINUOUS
10
8.36522
20
-7.45491
11
8.35022
21
-7.45491
0
LINE
8
BLACK
6
CONTINUOUS
10
8.42615
20
-7.44742
11
8.43693
21
-7.45116
0
LINE
8
BLACK
6
CONTINUOUS
10
8.43693
20
-7.45116
11
8.44021
21
-7.45491
0
LINE
8
BLACK
6
CONTINUOUS
10
8.44021
20
-7.45491
11
8.44302
21
-7.46241
0
LINE
8
BLACK
6
CONTINUOUS
10
8.44302
20
-7.46241
11
8.44161
21
-7.47366
0
LINE
8
BLACK
6
CONTINUOUS
10
8.44161
20
-7.47366
11
8.43693
21
-7.48116
0
LINE
8
BLACK
6
CONTINUOUS
10
8.43693
20
-7.48116
11
8.43271
21
-7.48491
0
LINE
8
BLACK
6
CONTINUOUS
10
8.43271
20
-7.48491
11
8.42474
21
-7.48866
0
LINE
8
BLACK
6
CONTINUOUS
10
8.42474
20
-7.48866
11
8.39474
21
-7.48866
0
LINE
8
BLACK
6
CONTINUOUS
10
8.39474
20
-7.48866
11
8.40459
21
-7.40992
0
LINE
8
BLACK
6
CONTINUOUS
10
8.40459
20
-7.40992
11
8.43083
21
-7.40992
0
LINE
8
BLACK
6
CONTINUOUS
10
8.43083
20
-7.40992
11
8.43786
21
-7.41367
0
LINE
8
BLACK
6
CONTINUOUS
10
8.43786
20
-7.41367
11
8.44114
21
-7.41742
0
LINE
8
BLACK
6
CONTINUOUS
10
8.44114
20
-7.41742
11
8.44396
21
-7.42492
0
LINE
8
BLACK
6
CONTINUOUS
10
8.44396
20
-7.42492
11
8.44302
21
-7.43242
0
LINE
8
BLACK
6
CONTINUOUS
10
8.44302
20
-7.43242
11
8.43833
21
-7.43992
0
LINE
8
BLACK
6
CONTINUOUS
10
8.43833
20
-7.43992
11
8.43411
21
-7.44367
0
LINE
8
BLACK
6
CONTINUOUS
10
8.43411
20
-7.44367
11
8.42615
21
-7.44742
0
LINE
8
BLACK
6
CONTINUOUS
10
8.42615
20
-7.44742
11
8.3999
21
-7.44742
0
LINE
8
BLACK
6
CONTINUOUS
10
8.47723
20
-7.45866
11
8.53723
21
-7.45866
0
LINE
8
BLACK
6
CONTINUOUS
10
8.57097
20
-7.48866
11
8.58081
21
-7.40992
0
LINE
8
BLACK
6
CONTINUOUS
10
8.58081
20
-7.40992
11
8.59956
21
-7.40992
0
LINE
8
BLACK
6
CONTINUOUS
10
8.59956
20
-7.40992
11
8.61034
21
-7.41367
0
LINE
8
BLACK
6
CONTINUOUS
10
8.61034
20
-7.41367
11
8.6169
21
-7.42117
0
LINE
8
BLACK
6
CONTINUOUS
10
8.6169
20
-7.42117
11
8.61972
21
-7.42867
0
LINE
8
BLACK
6
CONTINUOUS
10
8.61972
20
-7.42867
11
8.62159
21
-7.44367
0
LINE
8
BLACK
6
CONTINUOUS
10
8.62159
20
-7.44367
11
8.62018
21
-7.45491
0
LINE
8
BLACK
6
CONTINUOUS
10
8.62018
20
-7.45491
11
8.61456
21
-7.46991
0
LINE
8
BLACK
6
CONTINUOUS
10
8.61456
20
-7.46991
11
8.60987
21
-7.47741
0
LINE
8
BLACK
6
CONTINUOUS
10
8.60987
20
-7.47741
11
8.60144
21
-7.48491
0
LINE
8
BLACK
6
CONTINUOUS
10
8.60144
20
-7.48491
11
8.58972
21
-7.48866
0
LINE
8
BLACK
6
CONTINUOUS
10
8.58972
20
-7.48866
11
8.57097
21
-7.48866
0
LINE
8
BLACK
6
CONTINUOUS
10
8.69002
20
-7.43617
11
8.68346
21
-7.48866
0
LINE
8
BLACK
6
CONTINUOUS
10
8.65627
20
-7.43617
11
8.65112
21
-7.47741
0
LINE
8
BLACK
6
CONTINUOUS
10
8.65112
20
-7.47741
11
8.65393
21
-7.48491
0
LINE
8
BLACK
6
CONTINUOUS
10
8.65393
20
-7.48491
11
8.66096
21
-7.48866
0
LINE
8
BLACK
6
CONTINUOUS
10
8.66096
20
-7.48866
11
8.67221
21
-7.48866
0
LINE
8
BLACK
6
CONTINUOUS
10
8.67221
20
-7.48866
11
8.68018
21
-7.48491
0
LINE
8
BLACK
6
CONTINUOUS
10
8.68018
20
-7.48491
11
8.68439
21
-7.48116
0
LINE
8
BLACK
6
CONTINUOUS
10
8.72095
20
-7.48866
11
8.72751
21
-7.43617
0
LINE
8
BLACK
6
CONTINUOUS
10
8.72658
20
-7.44367
11
8.7308
21
-7.43992
0
LINE
8
BLACK
6
CONTINUOUS
10
8.7308
20
-7.43992
11
8.73876
21
-7.43617
0
LINE
8
BLACK
6
CONTINUOUS
10
8.73876
20
-7.43617
11
8.75001
21
-7.43617
0
LINE
8
BLACK
6
CONTINUOUS
10
8.75001
20
-7.43617
11
8.75704
21
-7.43992
0
LINE
8
BLACK
6
CONTINUOUS
10
8.75704
20
-7.43992
11
8.75985
21
-7.44742
0
LINE
8
BLACK
6
CONTINUOUS
10
8.75985
20
-7.44742
11
8.7547
21
-7.48866
0
LINE
8
BLACK
6
CONTINUOUS
10
8.75985
20
-7.44742
11
8.76454
21
-7.43992
0
LINE
8
BLACK
6
CONTINUOUS
10
8.76454
20
-7.43992
11
8.77251
21
-7.43617
0
LINE
8
BLACK
6
CONTINUOUS
10
8.77251
20
-7.43617
11
8.78376
21
-7.43617
0
LINE
8
BLACK
6
CONTINUOUS
10
8.78376
20
-7.43617
11
8.79079
21
-7.43992
0
LINE
8
BLACK
6
CONTINUOUS
10
8.79079
20
-7.43992
11
8.7936
21
-7.44742
0
LINE
8
BLACK
6
CONTINUOUS
10
8.7936
20
-7.44742
11
8.78844
21
-7.48866
0
LINE
8
BLACK
6
CONTINUOUS
10
8.8325
20
-7.43617
11
8.82266
21
-7.51491
0
LINE
8
BLACK
6
CONTINUOUS
10
8.83203
20
-7.43992
11
8.84
21
-7.43617
0
LINE
8
BLACK
6
CONTINUOUS
10
8.84
20
-7.43617
11
8.855
21
-7.43617
0
LINE
8
BLACK
6
CONTINUOUS
10
8.855
20
-7.43617
11
8.86203
21
-7.43992
0
LINE
8
BLACK
6
CONTINUOUS
10
8.86203
20
-7.43992
11
8.86531
21
-7.44367
0
LINE
8
BLACK
6
CONTINUOUS
10
8.86531
20
-7.44367
11
8.86812
21
-7.45116
0
LINE
8
BLACK
6
CONTINUOUS
10
8.86812
20
-7.45116
11
8.86531
21
-7.47366
0
LINE
8
BLACK
6
CONTINUOUS
10
8.86531
20
-7.47366
11
8.86062
21
-7.48116
0
LINE
8
BLACK
6
CONTINUOUS
10
8.86062
20
-7.48116
11
8.8564
21
-7.48491
0
LINE
8
BLACK
6
CONTINUOUS
10
8.8564
20
-7.48491
11
8.84844
21
-7.48866
0
LINE
8
BLACK
6
CONTINUOUS
10
8.84844
20
-7.48866
11
8.83344
21
-7.48866
0
LINE
8
BLACK
6
CONTINUOUS
10
8.83344
20
-7.48866
11
8.82641
21
-7.48491
0
LINE
8
BLACK
6
CONTINUOUS
10
8.92765
20
-7.48491
11
8.91968
21
-7.48866
0
LINE
8
BLACK
6
CONTINUOUS
10
8.91968
20
-7.48866
11
8.90468
21
-7.48866
0
LINE
8
BLACK
6
CONTINUOUS
10
8.90468
20
-7.48866
11
8.89765
21
-7.48491
0
LINE
8
BLACK
6
CONTINUOUS
10
8.89765
20
-7.48491
11
8.89484
21
-7.47741
0
LINE
8
BLACK
6
CONTINUOUS
10
8.89484
20
-7.47741
11
8.89859
21
-7.44742
0
LINE
8
BLACK
6
CONTINUOUS
10
8.89859
20
-7.44742
11
8.90327
21
-7.43992
0
LINE
8
BLACK
6
CONTINUOUS
10
8.90327
20
-7.43992
11
8.91124
21
-7.43617
0
LINE
8
BLACK
6
CONTINUOUS
10
8.91124
20
-7.43617
11
8.92624
21
-7.43617
0
LINE
8
BLACK
6
CONTINUOUS
10
8.92624
20
-7.43617
11
8.93327
21
-7.43992
0
LINE
8
BLACK
6
CONTINUOUS
10
8.93327
20
-7.43992
11
8.93608
21
-7.44742
0
LINE
8
BLACK
6
CONTINUOUS
10
8.93608
20
-7.44742
11
8.93514
21
-7.45491
0
LINE
8
BLACK
6
CONTINUOUS
10
8.93514
20
-7.45491
11
8.89671
21
-7.46241
0
LINE
8
BLACK
6
CONTINUOUS
10
8.96467
20
-7.48866
11
8.97123
21
-7.43617
0
LINE
8
BLACK
6
CONTINUOUS
10
8.96936
20
-7.45116
11
8.97405
21
-7.44367
0
LINE
8
BLACK
6
CONTINUOUS
10
8.97405
20
-7.44367
11
8.97826
21
-7.43992
0
LINE
8
BLACK
6
CONTINUOUS
10
8.97826
20
-7.43992
11
8.98623
21
-7.43617
0
LINE
8
BLACK
6
CONTINUOUS
10
8.98623
20
-7.43617
11
8.99373
21
-7.43617
0
LINE
8
BLACK
6
CONTINUOUS
10
7.04466
20
-7.30709
11
7.02497
21
-7.30709
0
LINE
8
BLACK
6
CONTINUOUS
10
7.02497
20
-7.33802
11
7.02497
21
-7.27897
0
LINE
8
BLACK
6
CONTINUOUS
10
7.02497
20
-7.27897
11
7.0531
21
-7.27897
0
LINE
8
BLACK
6
CONTINUOUS
10
7.07559
20
-7.33802
11
7.07559
21
-7.29865
0
LINE
8
BLACK
6
CONTINUOUS
10
7.07559
20
-7.27897
11
7.07278
21
-7.28178
0
LINE
8
BLACK
6
CONTINUOUS
10
7.07278
20
-7.28178
11
7.07559
21
-7.28459
0
LINE
8
BLACK
6
CONTINUOUS
10
7.07559
20
-7.28459
11
7.0784
21
-7.28178
0
LINE
8
BLACK
6
CONTINUOUS
10
7.0784
20
-7.28178
11
7.07559
21
-7.27897
0
LINE
8
BLACK
6
CONTINUOUS
10
7.07559
20
-7.27897
11
7.07559
21
-7.28459
0
LINE
8
BLACK
6
CONTINUOUS
10
7.11215
20
-7.33802
11
7.10653
21
-7.33521
0
LINE
8
BLACK
6
CONTINUOUS
10
7.10653
20
-7.33521
11
7.10371
21
-7.32959
0
LINE
8
BLACK
6
CONTINUOUS
10
7.10371
20
-7.32959
11
7.10371
21
-7.27897
0
LINE
8
BLACK
6
CONTINUOUS
10
7.15715
20
-7.33521
11
7.15152
21
-7.33802
0
LINE
8
BLACK
6
CONTINUOUS
10
7.15152
20
-7.33802
11
7.14027
21
-7.33802
0
LINE
8
BLACK
6
CONTINUOUS
10
7.14027
20
-7.33802
11
7.13465
21
-7.33521
0
LINE
8
BLACK
6
CONTINUOUS
10
7.13465
20
-7.33521
11
7.13184
21
-7.32959
0
LINE
8
BLACK
6
CONTINUOUS
10
7.13184
20
-7.32959
11
7.13184
21
-7.30709
0
LINE
8
BLACK
6
CONTINUOUS
10
7.13184
20
-7.30709
11
7.13465
21
-7.30146
0
LINE
8
BLACK
6
CONTINUOUS
10
7.13465
20
-7.30146
11
7.14027
21
-7.29865
0
LINE
8
BLACK
6
CONTINUOUS
10
7.14027
20
-7.29865
11
7.15152
21
-7.29865
0
LINE
8
BLACK
6
CONTINUOUS
10
7.15152
20
-7.29865
11
7.15715
21
-7.30146
0
LINE
8
BLACK
6
CONTINUOUS
10
7.15715
20
-7.30146
11
7.15996
21
-7.30709
0
LINE
8
BLACK
6
CONTINUOUS
10
7.15996
20
-7.30709
11
7.15996
21
-7.31271
0
LINE
8
BLACK
6
CONTINUOUS
10
7.15996
20
-7.31271
11
7.13184
21
-7.31834
0
LINE
8
BLACK
6
CONTINUOUS
10
7.18527
20
-7.3324
11
7.18808
21
-7.33521
0
LINE
8
BLACK
6
CONTINUOUS
10
7.18808
20
-7.33521
11
7.18527
21
-7.33802
0
LINE
8
BLACK
6
CONTINUOUS
10
7.18527
20
-7.33802
11
7.18245
21
-7.33521
0
LINE
8
BLACK
6
CONTINUOUS
10
7.18245
20
-7.33521
11
7.18527
21
-7.3324
0
LINE
8
BLACK
6
CONTINUOUS
10
7.18527
20
-7.3324
11
7.18527
21
-7.33802
0
LINE
8
BLACK
6
CONTINUOUS
10
7.18527
20
-7.30146
11
7.18808
21
-7.30428
0
LINE
8
BLACK
6
CONTINUOUS
10
7.18808
20
-7.30428
11
7.18527
21
-7.30709
0
LINE
8
BLACK
6
CONTINUOUS
10
7.18527
20
-7.30709
11
7.18245
21
-7.30428
0
LINE
8
BLACK
6
CONTINUOUS
10
7.18245
20
-7.30428
11
7.18527
21
-7.30146
0
LINE
8
BLACK
6
CONTINUOUS
10
7.18527
20
-7.30146
11
7.18527
21
-7.30709
0
LINE
8
BLACK
6
CONTINUOUS
10
7.28932
20
-7.28178
11
7.28369
21
-7.27897
0
LINE
8
BLACK
6
CONTINUOUS
10
7.28369
20
-7.27897
11
7.27526
21
-7.27897
0
LINE
8
BLACK
6
CONTINUOUS
10
7.27526
20
-7.27897
11
7.26682
21
-7.28178
0
LINE
8
BLACK
6
CONTINUOUS
10
7.26682
20
-7.28178
11
7.26119
21
-7.2874
0
LINE
8
BLACK
6
CONTINUOUS
10
7.26119
20
-7.2874
11
7.25838
21
-7.29303
0
LINE
8
BLACK
6
CONTINUOUS
10
7.25838
20
-7.29303
11
7.25557
21
-7.30428
0
LINE
8
BLACK
6
CONTINUOUS
10
7.25557
20
-7.30428
11
7.25557
21
-7.31271
0
LINE
8
BLACK
6
CONTINUOUS
10
7.25557
20
-7.31271
11
7.25838
21
-7.32396
0
LINE
8
BLACK
6
CONTINUOUS
10
7.25838
20
-7.32396
11
7.26119
21
-7.32959
0
LINE
8
BLACK
6
CONTINUOUS
10
7.26119
20
-7.32959
11
7.26682
21
-7.33521
0
LINE
8
BLACK
6
CONTINUOUS
10
7.26682
20
-7.33521
11
7.27526
21
-7.33802
0
LINE
8
BLACK
6
CONTINUOUS
10
7.27526
20
-7.33802
11
7.28088
21
-7.33802
0
LINE
8
BLACK
6
CONTINUOUS
10
7.28088
20
-7.33802
11
7.28932
21
-7.33521
0
LINE
8
BLACK
6
CONTINUOUS
10
7.28932
20
-7.33521
11
7.29213
21
-7.3324
0
LINE
8
BLACK
6
CONTINUOUS
10
7.29213
20
-7.3324
11
7.29213
21
-7.31271
0
LINE
8
BLACK
6
CONTINUOUS
10
7.29213
20
-7.31271
11
7.28088
21
-7.31271
0
LINE
8
BLACK
6
CONTINUOUS
10
7.33712
20
-7.30709
11
7.34556
21
-7.3099
0
LINE
8
BLACK
6
CONTINUOUS
10
7.34556
20
-7.3099
11
7.34837
21
-7.31271
0
LINE
8
BLACK
6
CONTINUOUS
10
7.34837
20
-7.31271
11
7.35118
21
-7.31834
0
LINE
8
BLACK
6
CONTINUOUS
10
7.35118
20
-7.31834
11
7.35118
21
-7.32677
0
LINE
8
BLACK
6
CONTINUOUS
10
7.35118
20
-7.32677
11
7.34837
21
-7.3324
0
LINE
8
BLACK
6
CONTINUOUS
10
7.34837
20
-7.3324
11
7.34556
21
-7.33521
0
LINE
8
BLACK
6
CONTINUOUS
10
7.34556
20
-7.33521
11
7.33993
21
-7.33802
0
LINE
8
BLACK
6
CONTINUOUS
10
7.33993
20
-7.33802
11
7.31744
21
-7.33802
0
LINE
8
BLACK
6
CONTINUOUS
10
7.31744
20
-7.33802
11
7.31744
21
-7.27897
0
LINE
8
BLACK
6
CONTINUOUS
10
7.31744
20
-7.27897
11
7.33712
21
-7.27897
0
LINE
8
BLACK
6
CONTINUOUS
10
7.33712
20
-7.27897
11
7.34275
21
-7.28178
0
LINE
8
BLACK
6
CONTINUOUS
10
7.34275
20
-7.28178
11
7.34556
21
-7.28459
0
LINE
8
BLACK
6
CONTINUOUS
10
7.34556
20
-7.28459
11
7.34837
21
-7.29022
0
LINE
8
BLACK
6
CONTINUOUS
10
7.34837
20
-7.29022
11
7.34837
21
-7.29584
0
LINE
8
BLACK
6
CONTINUOUS
10
7.34837
20
-7.29584
11
7.34556
21
-7.30146
0
LINE
8
BLACK
6
CONTINUOUS
10
7.34556
20
-7.30146
11
7.34275
21
-7.30428
0
LINE
8
BLACK
6
CONTINUOUS
10
7.34275
20
-7.30428
11
7.33712
21
-7.30709
0
LINE
8
BLACK
6
CONTINUOUS
10
7.33712
20
-7.30709
11
7.31744
21
-7.30709
0
LINE
8
BLACK
6
CONTINUOUS
10
7.37649
20
-7.31553
11
7.42149
21
-7.31553
0
LINE
8
BLACK
6
CONTINUOUS
10
7.44961
20
-7.33802
11
7.44961
21
-7.27897
0
LINE
8
BLACK
6
CONTINUOUS
10
7.44961
20
-7.27897
11
7.46367
21
-7.27897
0
LINE
8
BLACK
6
CONTINUOUS
10
7.46367
20
-7.27897
11
7.47211
21
-7.28178
0
LINE
8
BLACK
6
CONTINUOUS
10
7.47211
20
-7.28178
11
7.47773
21
-7.2874
0
LINE
8
BLACK
6
CONTINUOUS
10
7.47773
20
-7.2874
11
7.48054
21
-7.29303
0
LINE
8
BLACK
6
CONTINUOUS
10
7.48054
20
-7.29303
11
7.48335
21
-7.30428
0
LINE
8
BLACK
6
CONTINUOUS
10
7.48335
20
-7.30428
11
7.48335
21
-7.31271
0
LINE
8
BLACK
6
CONTINUOUS
10
7.48335
20
-7.31271
11
7.48054
21
-7.32396
0
LINE
8
BLACK
6
CONTINUOUS
10
7.48054
20
-7.32396
11
7.47773
21
-7.32959
0
LINE
8
BLACK
6
CONTINUOUS
10
7.47773
20
-7.32959
11
7.47211
21
-7.33521
0
LINE
8
BLACK
6
CONTINUOUS
10
7.47211
20
-7.33521
11
7.46367
21
-7.33802
0
LINE
8
BLACK
6
CONTINUOUS
10
7.46367
20
-7.33802
11
7.44961
21
-7.33802
0
LINE
8
BLACK
6
CONTINUOUS
10
7.53397
20
-7.29865
11
7.53397
21
-7.33802
0
LINE
8
BLACK
6
CONTINUOUS
10
7.50866
20
-7.29865
11
7.50866
21
-7.32959
0
LINE
8
BLACK
6
CONTINUOUS
10
7.50866
20
-7.32959
11
7.51148
21
-7.33521
0
LINE
8
BLACK
6
CONTINUOUS
10
7.51148
20
-7.33521
11
7.5171
21
-7.33802
0
LINE
8
BLACK
6
CONTINUOUS
10
7.5171
20
-7.33802
11
7.52554
21
-7.33802
0
LINE
8
BLACK
6
CONTINUOUS
10
7.52554
20
-7.33802
11
7.53116
21
-7.33521
0
LINE
8
BLACK
6
CONTINUOUS
10
7.53116
20
-7.33521
11
7.53397
21
-7.3324
0
LINE
8
BLACK
6
CONTINUOUS
10
7.56209
20
-7.33802
11
7.56209
21
-7.29865
0
LINE
8
BLACK
6
CONTINUOUS
10
7.56209
20
-7.30428
11
7.56491
21
-7.30146
0
LINE
8
BLACK
6
CONTINUOUS
10
7.56491
20
-7.30146
11
7.57053
21
-7.29865
0
LINE
8
BLACK
6
CONTINUOUS
10
7.57053
20
-7.29865
11
7.57897
21
-7.29865
0
LINE
8
BLACK
6
CONTINUOUS
10
7.57897
20
-7.29865
11
7.58459
21
-7.30146
0
LINE
8
BLACK
6
CONTINUOUS
10
7.58459
20
-7.30146
11
7.5874
21
-7.30709
0
LINE
8
BLACK
6
CONTINUOUS
10
7.5874
20
-7.30709
11
7.5874
21
-7.33802
0
LINE
8
BLACK
6
CONTINUOUS
10
7.5874
20
-7.30709
11
7.59022
21
-7.30146
0
LINE
8
BLACK
6
CONTINUOUS
10
7.59022
20
-7.30146
11
7.59584
21
-7.29865
0
LINE
8
BLACK
6
CONTINUOUS
10
7.59584
20
-7.29865
11
7.60428
21
-7.29865
0
LINE
8
BLACK
6
CONTINUOUS
10
7.60428
20
-7.29865
11
7.6099
21
-7.30146
0
LINE
8
BLACK
6
CONTINUOUS
10
7.6099
20
-7.30146
11
7.61271
21
-7.30709
0
LINE
8
BLACK
6
CONTINUOUS
10
7.61271
20
-7.30709
11
7.61271
21
-7.33802
0
LINE
8
BLACK
6
CONTINUOUS
10
7.64083
20
-7.29865
11
7.64083
21
-7.35771
0
LINE
8
BLACK
6
CONTINUOUS
10
7.64083
20
-7.30146
11
7.64646
21
-7.29865
0
LINE
8
BLACK
6
CONTINUOUS
10
7.64646
20
-7.29865
11
7.65771
21
-7.29865
0
LINE
8
BLACK
6
CONTINUOUS
10
7.65771
20
-7.29865
11
7.66333
21
-7.30146
0
LINE
8
BLACK
6
CONTINUOUS
10
7.66333
20
-7.30146
11
7.66614
21
-7.30428
0
LINE
8
BLACK
6
CONTINUOUS
10
7.66614
20
-7.30428
11
7.66896
21
-7.3099
0
LINE
8
BLACK
6
CONTINUOUS
10
7.66896
20
-7.3099
11
7.66896
21
-7.32677
0
LINE
8
BLACK
6
CONTINUOUS
10
7.66896
20
-7.32677
11
7.66614
21
-7.3324
0
LINE
8
BLACK
6
CONTINUOUS
10
7.66614
20
-7.3324
11
7.66333
21
-7.33521
0
LINE
8
BLACK
6
CONTINUOUS
10
7.66333
20
-7.33521
11
7.65771
21
-7.33802
0
LINE
8
BLACK
6
CONTINUOUS
10
7.65771
20
-7.33802
11
7.64646
21
-7.33802
0
LINE
8
BLACK
6
CONTINUOUS
10
7.64646
20
-7.33802
11
7.64083
21
-7.33521
0
LINE
8
BLACK
6
CONTINUOUS
10
7.71676
20
-7.33521
11
7.71114
21
-7.33802
0
LINE
8
BLACK
6
CONTINUOUS
10
7.71114
20
-7.33802
11
7.69989
21
-7.33802
0
LINE
8
BLACK
6
CONTINUOUS
10
7.69989
20
-7.33802
11
7.69427
21
-7.33521
0
LINE
8
BLACK
6
CONTINUOUS
10
7.69427
20
-7.33521
11
7.69145
21
-7.32959
0
LINE
8
BLACK
6
CONTINUOUS
10
7.69145
20
-7.32959
11
7.69145
21
-7.30709
0
LINE
8
BLACK
6
CONTINUOUS
10
7.69145
20
-7.30709
11
7.69427
21
-7.30146
0
LINE
8
BLACK
6
CONTINUOUS
10
7.69427
20
-7.30146
11
7.69989
21
-7.29865
0
LINE
8
BLACK
6
CONTINUOUS
10
7.69989
20
-7.29865
11
7.71114
21
-7.29865
0
LINE
8
BLACK
6
CONTINUOUS
10
7.71114
20
-7.29865
11
7.71676
21
-7.30146
0
LINE
8
BLACK
6
CONTINUOUS
10
7.71676
20
-7.30146
11
7.71957
21
-7.30709
0
LINE
8
BLACK
6
CONTINUOUS
10
7.71957
20
-7.30709
11
7.71957
21
-7.31271
0
LINE
8
BLACK
6
CONTINUOUS
10
7.71957
20
-7.31271
11
7.69145
21
-7.31834
0
LINE
8
BLACK
6
CONTINUOUS
10
7.74488
20
-7.33802
11
7.74488
21
-7.29865
0
LINE
8
BLACK
6
CONTINUOUS
10
7.74488
20
-7.3099
11
7.7477
21
-7.30428
0
LINE
8
BLACK
6
CONTINUOUS
10
7.7477
20
-7.30428
11
7.75051
21
-7.30146
0
LINE
8
BLACK
6
CONTINUOUS
10
7.75051
20
-7.30146
11
7.75613
21
-7.29865
0
LINE
8
BLACK
6
CONTINUOUS
10
7.75613
20
-7.29865
11
7.76176
21
-7.29865
0
LINE
8
BLACK
6
CONTINUOUS
10
7.78144
20
-7.3324
11
7.78425
21
-7.33521
0
LINE
8
BLACK
6
CONTINUOUS
10
7.78425
20
-7.33521
11
7.78144
21
-7.33802
0
LINE
8
BLACK
6
CONTINUOUS
10
7.78144
20
-7.33802
11
7.77863
21
-7.33521
0
LINE
8
BLACK
6
CONTINUOUS
10
7.77863
20
-7.33521
11
7.78144
21
-7.3324
0
LINE
8
BLACK
6
CONTINUOUS
10
7.78144
20
-7.3324
11
7.78144
21
-7.33802
0
LINE
8
BLACK
6
CONTINUOUS
10
7.80956
20
-7.33802
11
7.80956
21
-7.27897
0
LINE
8
BLACK
6
CONTINUOUS
10
7.81519
20
-7.31553
11
7.83206
21
-7.33802
0
LINE
8
BLACK
6
CONTINUOUS
10
7.83206
20
-7.29865
11
7.80956
21
-7.32115
0
LINE
8
BLACK
6
CONTINUOUS
10
7.85737
20
-7.33802
11
7.85737
21
-7.29865
0
LINE
8
BLACK
6
CONTINUOUS
10
7.85737
20
-7.27897
11
7.85456
21
-7.28178
0
LINE
8
BLACK
6
CONTINUOUS
10
7.85456
20
-7.28178
11
7.85737
21
-7.28459
0
LINE
8
BLACK
6
CONTINUOUS
10
7.85737
20
-7.28459
11
7.86018
21
-7.28178
0
LINE
8
BLACK
6
CONTINUOUS
10
7.86018
20
-7.28178
11
7.85737
21
-7.27897
0
LINE
8
BLACK
6
CONTINUOUS
10
7.85737
20
-7.27897
11
7.85737
21
-7.28459
0
LINE
8
BLACK
6
CONTINUOUS
10
7.9108
20
-7.33521
11
7.90518
21
-7.33802
0
LINE
8
BLACK
6
CONTINUOUS
10
7.90518
20
-7.33802
11
7.89393
21
-7.33802
0
LINE
8
BLACK
6
CONTINUOUS
10
7.89393
20
-7.33802
11
7.8883
21
-7.33521
0
LINE
8
BLACK
6
CONTINUOUS
10
7.8883
20
-7.33521
11
7.88549
21
-7.3324
0
LINE
8
BLACK
6
CONTINUOUS
10
7.88549
20
-7.3324
11
7.88268
21
-7.32677
0
LINE
8
BLACK
6
CONTINUOUS
10
7.88268
20
-7.32677
11
7.88268
21
-7.3099
0
LINE
8
BLACK
6
CONTINUOUS
10
7.88268
20
-7.3099
11
7.88549
21
-7.30428
0
LINE
8
BLACK
6
CONTINUOUS
10
7.88549
20
-7.30428
11
7.8883
21
-7.30146
0
LINE
8
BLACK
6
CONTINUOUS
10
7.8883
20
-7.30146
11
7.89393
21
-7.29865
0
LINE
8
BLACK
6
CONTINUOUS
10
7.89393
20
-7.29865
11
7.90518
21
-7.29865
0
LINE
8
BLACK
6
CONTINUOUS
10
7.90518
20
-7.29865
11
7.9108
21
-7.30146
0
LINE
8
BLACK
6
CONTINUOUS
10
7.96142
20
-7.33802
11
7.96142
21
-7.30709
0
LINE
8
BLACK
6
CONTINUOUS
10
7.96142
20
-7.30709
11
7.95861
21
-7.30146
0
LINE
8
BLACK
6
CONTINUOUS
10
7.95861
20
-7.30146
11
7.95298
21
-7.29865
0
LINE
8
BLACK
6
CONTINUOUS
10
7.95298
20
-7.29865
11
7.94173
21
-7.29865
0
LINE
8
BLACK
6
CONTINUOUS
10
7.94173
20
-7.29865
11
7.93611
21
-7.30146
0
LINE
8
BLACK
6
CONTINUOUS
10
7.96142
20
-7.33521
11
7.9558
21
-7.33802
0
LINE
8
BLACK
6
CONTINUOUS
10
7.9558
20
-7.33802
11
7.94173
21
-7.33802
0
LINE
8
BLACK
6
CONTINUOUS
10
7.94173
20
-7.33802
11
7.93611
21
-7.33521
0
LINE
8
BLACK
6
CONTINUOUS
10
7.93611
20
-7.33521
11
7.9333
21
-7.32959
0
LINE
8
BLACK
6
CONTINUOUS
10
7.9333
20
-7.32959
11
7.9333
21
-7.32396
0
LINE
8
BLACK
6
CONTINUOUS
10
7.9333
20
-7.32396
11
7.93611
21
-7.31834
0
LINE
8
BLACK
6
CONTINUOUS
10
7.93611
20
-7.31834
11
7.94173
21
-7.31553
0
LINE
8
BLACK
6
CONTINUOUS
10
7.94173
20
-7.31553
11
7.9558
21
-7.31553
0
LINE
8
BLACK
6
CONTINUOUS
10
7.9558
20
-7.31553
11
7.96142
21
-7.31271
0
LINE
8
BLACK
6
CONTINUOUS
10
8.01485
20
-7.33802
11
8.01485
21
-7.27897
0
LINE
8
BLACK
6
CONTINUOUS
10
8.01485
20
-7.33521
11
8.00923
21
-7.33802
0
LINE
8
BLACK
6
CONTINUOUS
10
8.00923
20
-7.33802
11
7.99798
21
-7.33802
0
LINE
8
BLACK
6
CONTINUOUS
10
7.99798
20
-7.33802
11
7.99235
21
-7.33521
0
LINE
8
BLACK
6
CONTINUOUS
10
7.99235
20
-7.33521
11
7.98954
21
-7.3324
0
LINE
8
BLACK
6
CONTINUOUS
10
7.98954
20
-7.3324
11
7.98673
21
-7.32677
0
LINE
8
BLACK
6
CONTINUOUS
10
7.98673
20
-7.32677
11
7.98673
21
-7.3099
0
LINE
8
BLACK
6
CONTINUOUS
10
7.98673
20
-7.3099
11
7.98954
21
-7.30428
0
LINE
8
BLACK
6
CONTINUOUS
10
7.98954
20
-7.30428
11
7.99235
21
-7.30146
0
LINE
8
BLACK
6
CONTINUOUS
10
7.99235
20
-7.30146
11
7.99798
21
-7.29865
0
LINE
8
BLACK
6
CONTINUOUS
10
7.99798
20
-7.29865
11
8.00923
21
-7.29865
0
LINE
8
BLACK
6
CONTINUOUS
10
8.00923
20
-7.29865
11
8.01485
21
-7.30146
0
LINE
8
BLACK
6
CONTINUOUS
10
8.02891
20
-7.34365
11
8.07391
21
-7.34365
0
LINE
8
BLACK
6
CONTINUOUS
10
8.08797
20
-7.29865
11
8.08797
21
-7.35771
0
LINE
8
BLACK
6
CONTINUOUS
10
8.08797
20
-7.30146
11
8.09359
21
-7.29865
0
LINE
8
BLACK
6
CONTINUOUS
10
8.09359
20
-7.29865
11
8.10484
21
-7.29865
0
LINE
8
BLACK
6
CONTINUOUS
10
8.10484
20
-7.29865
11
8.11046
21
-7.30146
0
LINE
8
BLACK
6
CONTINUOUS
10
8.11046
20
-7.30146
11
8.11328
21
-7.30428
0
LINE
8
BLACK
6
CONTINUOUS
10
8.11328
20
-7.30428
11
8.11609
21
-7.3099
0
LINE
8
BLACK
6
CONTINUOUS
10
8.11609
20
-7.3099
11
8.11609
21
-7.32677
0
LINE
8
BLACK
6
CONTINUOUS
10
8.11609
20
-7.32677
11
8.11328
21
-7.3324
0
LINE
8
BLACK
6
CONTINUOUS
10
8.11328
20
-7.3324
11
8.11046
21
-7.33521
0
LINE
8
BLACK
6
CONTINUOUS
10
8.11046
20
-7.33521
11
8.10484
21
-7.33802
0
LINE
8
BLACK
6
CONTINUOUS
10
8.10484
20
-7.33802
11
8.09359
21
-7.33802
0
LINE
8
BLACK
6
CONTINUOUS
10
8.09359
20
-7.33802
11
8.08797
21
-7.33521
0
LINE
8
BLACK
6
CONTINUOUS
10
8.16671
20
-7.33521
11
8.16108
21
-7.33802
0
LINE
8
BLACK
6
CONTINUOUS
10
8.16108
20
-7.33802
11
8.14983
21
-7.33802
0
LINE
8
BLACK
6
CONTINUOUS
10
8.14983
20
-7.33802
11
8.14421
21
-7.33521
0
LINE
8
BLACK
6
CONTINUOUS
10
8.14421
20
-7.33521
11
8.1414
21
-7.3324
0
LINE
8
BLACK
6
CONTINUOUS
10
8.1414
20
-7.3324
11
8.13858
21
-7.32677
0
LINE
8
BLACK
6
CONTINUOUS
10
8.13858
20
-7.32677
11
8.13858
21
-7.3099
0
LINE
8
BLACK
6
CONTINUOUS
10
8.13858
20
-7.3099
11
8.1414
21
-7.30428
0
LINE
8
BLACK
6
CONTINUOUS
10
8.1414
20
-7.30428
11
8.14421
21
-7.30146
0
LINE
8
BLACK
6
CONTINUOUS
10
8.14421
20
-7.30146
11
8.14983
21
-7.29865
0
LINE
8
BLACK
6
CONTINUOUS
10
8.14983
20
-7.29865
11
8.16108
21
-7.29865
0
LINE
8
BLACK
6
CONTINUOUS
10
8.16108
20
-7.29865
11
8.16671
21
-7.30146
0
LINE
8
BLACK
6
CONTINUOUS
10
8.19202
20
-7.33802
11
8.19202
21
-7.27897
0
LINE
8
BLACK
6
CONTINUOUS
10
8.19202
20
-7.30146
11
8.19764
21
-7.29865
0
LINE
8
BLACK
6
CONTINUOUS
10
8.19764
20
-7.29865
11
8.20889
21
-7.29865
0
LINE
8
BLACK
6
CONTINUOUS
10
8.20889
20
-7.29865
11
8.21451
21
-7.30146
0
LINE
8
BLACK
6
CONTINUOUS
10
8.21451
20
-7.30146
11
8.21733
21
-7.30428
0
LINE
8
BLACK
6
CONTINUOUS
10
8.21733
20
-7.30428
11
8.22014
21
-7.3099
0
LINE
8
BLACK
6
CONTINUOUS
10
8.22014
20
-7.3099
11
8.22014
21
-7.32677
0
LINE
8
BLACK
6
CONTINUOUS
10
8.22014
20
-7.32677
11
8.21733
21
-7.3324
0
LINE
8
BLACK
6
CONTINUOUS
10
8.21733
20
-7.3324
11
8.21451
21
-7.33521
0
LINE
8
BLACK
6
CONTINUOUS
10
8.21451
20
-7.33521
11
8.20889
21
-7.33802
0
LINE
8
BLACK
6
CONTINUOUS
10
8.20889
20
-7.33802
11
8.19764
21
-7.33802
0
LINE
8
BLACK
6
CONTINUOUS
10
8.19764
20
-7.33802
11
8.19202
21
-7.33521
0
LINE
8
BLACK
6
CONTINUOUS
10
6.96859
20
-7.14595
11
11.2206
21
-7.14595
0
LINE
8
BLACK
6
CONTINUOUS
10
7.02216
20
-7.22891
11
7.0306
21
-7.23172
0
LINE
8
BLACK
6
CONTINUOUS
10
7.0306
20
-7.23172
11
7.04466
21
-7.23172
0
LINE
8
BLACK
6
CONTINUOUS
10
7.04466
20
-7.23172
11
7.05028
21
-7.22891
0
LINE
8
BLACK
6
CONTINUOUS
10
7.05028
20
-7.22891
11
7.0531
21
-7.2261
0
LINE
8
BLACK
6
CONTINUOUS
10
7.0531
20
-7.2261
11
7.05591
21
-7.22047
0
LINE
8
BLACK
6
CONTINUOUS
10
7.05591
20
-7.22047
11
7.05591
21
-7.21485
0
LINE
8
BLACK
6
CONTINUOUS
10
7.05591
20
-7.21485
11
7.0531
21
-7.20923
0
LINE
8
BLACK
6
CONTINUOUS
10
7.0531
20
-7.20923
11
7.05028
21
-7.20641
0
LINE
8
BLACK
6
CONTINUOUS
10
7.05028
20
-7.20641
11
7.04466
21
-7.2036
0
LINE
8
BLACK
6
CONTINUOUS
10
7.04466
20
-7.2036
11
7.03341
21
-7.20079
0
LINE
8
BLACK
6
CONTINUOUS
10
7.03341
20
-7.20079
11
7.02779
21
-7.19798
0
LINE
8
BLACK
6
CONTINUOUS
10
7.02779
20
-7.19798
11
7.02497
21
-7.19517
0
LINE
8
BLACK
6
CONTINUOUS
10
7.02497
20
-7.19517
11
7.02216
21
-7.18954
0
LINE
8
BLACK
6
CONTINUOUS
10
7.02216
20
-7.18954
11
7.02216
21
-7.18392
0
LINE
8
BLACK
6
CONTINUOUS
10
7.02216
20
-7.18392
11
7.02497
21
-7.17829
0
LINE
8
BLACK
6
CONTINUOUS
10
7.02497
20
-7.17829
11
7.02779
21
-7.17548
0
LINE
8
BLACK
6
CONTINUOUS
10
7.02779
20
-7.17548
11
7.03341
21
-7.17267
0
LINE
8
BLACK
6
CONTINUOUS
10
7.03341
20
-7.17267
11
7.04747
21
-7.17267
0
LINE
8
BLACK
6
CONTINUOUS
10
7.04747
20
-7.17267
11
7.05591
21
-7.17548
0
LINE
8
BLACK
6
CONTINUOUS
10
7.08122
20
-7.23172
11
7.08122
21
-7.17267
0
LINE
8
BLACK
6
CONTINUOUS
10
7.10653
20
-7.23172
11
7.10653
21
-7.20079
0
LINE
8
BLACK
6
CONTINUOUS
10
7.10653
20
-7.20079
11
7.10371
21
-7.19517
0
LINE
8
BLACK
6
CONTINUOUS
10
7.10371
20
-7.19517
11
7.09809
21
-7.19235
0
LINE
8
BLACK
6
CONTINUOUS
10
7.09809
20
-7.19235
11
7.08965
21
-7.19235
0
LINE
8
BLACK
6
CONTINUOUS
10
7.08965
20
-7.19235
11
7.08403
21
-7.19517
0
LINE
8
BLACK
6
CONTINUOUS
10
7.08403
20
-7.19517
11
7.08122
21
-7.19798
0
LINE
8
BLACK
6
CONTINUOUS
10
7.15715
20
-7.22891
11
7.15152
21
-7.23172
0
LINE
8
BLACK
6
CONTINUOUS
10
7.15152
20
-7.23172
11
7.14027
21
-7.23172
0
LINE
8
BLACK
6
CONTINUOUS
10
7.14027
20
-7.23172
11
7.13465
21
-7.22891
0
LINE
8
BLACK
6
CONTINUOUS
10
7.13465
20
-7.22891
11
7.13184
21
-7.22329
0
LINE
8
BLACK
6
CONTINUOUS
10
7.13184
20
-7.22329
11
7.13184
21
-7.20079
0
LINE
8
BLACK
6
CONTINUOUS
10
7.13184
20
-7.20079
11
7.13465
21
-7.19517
0
LINE
8
BLACK
6
CONTINUOUS
10
7.13465
20
-7.19517
11
7.14027
21
-7.19235
0
LINE
8
BLACK
6
CONTINUOUS
10
7.14027
20
-7.19235
11
7.15152
21
-7.19235
0
LINE
8
BLACK
6
CONTINUOUS
10
7.15152
20
-7.19235
11
7.15715
21
-7.19517
0
LINE
8
BLACK
6
CONTINUOUS
10
7.15715
20
-7.19517
11
7.15996
21
-7.20079
0
LINE
8
BLACK
6
CONTINUOUS
10
7.15996
20
-7.20079
11
7.15996
21
-7.20641
0
LINE
8
BLACK
6
CONTINUOUS
10
7.15996
20
-7.20641
11
7.13184
21
-7.21204
0
LINE
8
BLACK
6
CONTINUOUS
10
7.20776
20
-7.22891
11
7.20214
21
-7.23172
0
LINE
8
BLACK
6
CONTINUOUS
10
7.20214
20
-7.23172
11
7.19089
21
-7.23172
0
LINE
8
BLACK
6
CONTINUOUS
10
7.19089
20
-7.23172
11
7.18527
21
-7.22891
0
LINE
8
BLACK
6
CONTINUOUS
10
7.18527
20
-7.22891
11
7.18245
21
-7.22329
0
LINE
8
BLACK
6
CONTINUOUS
10
7.18245
20
-7.22329
11
7.18245
21
-7.20079
0
LINE
8
BLACK
6
CONTINUOUS
10
7.18245
20
-7.20079
11
7.18527
21
-7.19517
0
LINE
8
BLACK
6
CONTINUOUS
10
7.18527
20
-7.19517
11
7.19089
21
-7.19235
0
LINE
8
BLACK
6
CONTINUOUS
10
7.19089
20
-7.19235
11
7.20214
21
-7.19235
0
LINE
8
BLACK
6
CONTINUOUS
10
7.20214
20
-7.19235
11
7.20776
21
-7.19517
0
LINE
8
BLACK
6
CONTINUOUS
10
7.20776
20
-7.19517
11
7.21058
21
-7.20079
0
LINE
8
BLACK
6
CONTINUOUS
10
7.21058
20
-7.20079
11
7.21058
21
-7.20641
0
LINE
8
BLACK
6
CONTINUOUS
10
7.21058
20
-7.20641
11
7.18245
21
-7.21204
0
LINE
8
BLACK
6
CONTINUOUS
10
7.22745
20
-7.19235
11
7.24995
21
-7.19235
0
LINE
8
BLACK
6
CONTINUOUS
10
7.23589
20
-7.17267
11
7.23589
21
-7.22329
0
LINE
8
BLACK
6
CONTINUOUS
10
7.23589
20
-7.22329
11
7.2387
21
-7.22891
0
LINE
8
BLACK
6
CONTINUOUS
10
7.2387
20
-7.22891
11
7.24432
21
-7.23172
0
LINE
8
BLACK
6
CONTINUOUS
10
7.24432
20
-7.23172
11
7.24995
21
-7.23172
0
LINE
8
BLACK
6
CONTINUOUS
10
7.26963
20
-7.2261
11
7.27244
21
-7.22891
0
LINE
8
BLACK
6
CONTINUOUS
10
7.27244
20
-7.22891
11
7.26963
21
-7.23172
0
LINE
8
BLACK
6
CONTINUOUS
10
7.26963
20
-7.23172
11
7.26682
21
-7.22891
0
LINE
8
BLACK
6
CONTINUOUS
10
7.26682
20
-7.22891
11
7.26963
21
-7.2261
0
LINE
8
BLACK
6
CONTINUOUS
10
7.26963
20
-7.2261
11
7.26963
21
-7.23172
0
LINE
8
BLACK
6
CONTINUOUS
10
7.26963
20
-7.19517
11
7.27244
21
-7.19798
0
LINE
8
BLACK
6
CONTINUOUS
10
7.27244
20
-7.19798
11
7.26963
21
-7.20079
0
LINE
8
BLACK
6
CONTINUOUS
10
7.26963
20
-7.20079
11
7.26682
21
-7.19798
0
LINE
8
BLACK
6
CONTINUOUS
10
7.26682
20
-7.19798
11
7.26963
21
-7.19517
0
LINE
8
BLACK
6
CONTINUOUS
10
7.26963
20
-7.19517
11
7.26963
21
-7.20079
0
LINE
8
BLACK
6
CONTINUOUS
10
7.04657
20
-7.13611
11
7.04376
21
-7.1333
0
LINE
8
BLACK
6
CONTINUOUS
10
7.04376
20
-7.1333
11
7.03813
21
-7.12486
0
LINE
8
BLACK
6
CONTINUOUS
10
7.03813
20
-7.12486
11
7.03532
21
-7.11924
0
LINE
8
BLACK
6
CONTINUOUS
10
7.03532
20
-7.11924
11
7.03251
21
-7.1108
0
LINE
8
BLACK
6
CONTINUOUS
10
7.03251
20
-7.1108
11
7.0297
21
-7.09674
0
LINE
8
BLACK
6
CONTINUOUS
10
7.0297
20
-7.09674
11
7.0297
21
-7.08549
0
LINE
8
BLACK
6
CONTINUOUS
10
7.0297
20
-7.08549
11
7.03251
21
-7.07143
0
LINE
8
BLACK
6
CONTINUOUS
10
7.03251
20
-7.07143
11
7.03532
21
-7.06299
0
LINE
8
BLACK
6
CONTINUOUS
10
7.03532
20
-7.06299
11
7.03813
21
-7.05737
0
LINE
8
BLACK
6
CONTINUOUS
10
7.03813
20
-7.05737
11
7.04376
21
-7.04893
0
LINE
8
BLACK
6
CONTINUOUS
10
7.04376
20
-7.04893
11
7.04657
21
-7.04612
0
LINE
8
BLACK
6
CONTINUOUS
10
7.10281
20
-7.10799
11
7.1
21
-7.1108
0
LINE
8
BLACK
6
CONTINUOUS
10
7.1
20
-7.1108
11
7.09157
21
-7.11361
0
LINE
8
BLACK
6
CONTINUOUS
10
7.09157
20
-7.11361
11
7.08594
21
-7.11361
0
LINE
8
BLACK
6
CONTINUOUS
10
7.08594
20
-7.11361
11
7.07751
21
-7.1108
0
LINE
8
BLACK
6
CONTINUOUS
10
7.07751
20
-7.1108
11
7.07188
21
-7.10518
0
LINE
8
BLACK
6
CONTINUOUS
10
7.07188
20
-7.10518
11
7.06907
21
-7.09955
0
LINE
8
BLACK
6
CONTINUOUS
10
7.06907
20
-7.09955
11
7.06626
21
-7.0883
0
LINE
8
BLACK
6
CONTINUOUS
10
7.06626
20
-7.0883
11
7.06626
21
-7.07987
0
LINE
8
BLACK
6
CONTINUOUS
10
7.06626
20
-7.07987
11
7.06907
21
-7.06862
0
LINE
8
BLACK
6
CONTINUOUS
10
7.06907
20
-7.06862
11
7.07188
21
-7.06299
0
LINE
8
BLACK
6
CONTINUOUS
10
7.07188
20
-7.06299
11
7.07751
21
-7.05737
0
LINE
8
BLACK
6
CONTINUOUS
10
7.07751
20
-7.05737
11
7.08594
21
-7.05456
0
LINE
8
BLACK
6
CONTINUOUS
10
7.08594
20
-7.05456
11
7.09157
21
-7.05456
0
LINE
8
BLACK
6
CONTINUOUS
10
7.09157
20
-7.05456
11
7.1
21
-7.05737
0
LINE
8
BLACK
6
CONTINUOUS
10
7.1
20
-7.05737
11
7.10281
21
-7.06018
0
LINE
8
BLACK
6
CONTINUOUS
10
7.1225
20
-7.13611
11
7.12531
21
-7.1333
0
LINE
8
BLACK
6
CONTINUOUS
10
7.12531
20
-7.1333
11
7.13094
21
-7.12486
0
LINE
8
BLACK
6
CONTINUOUS
10
7.13094
20
-7.12486
11
7.13375
21
-7.11924
0
LINE
8
BLACK
6
CONTINUOUS
10
7.13375
20
-7.11924
11
7.13656
21
-7.1108
0
LINE
8
BLACK
6
CONTINUOUS
10
7.13656
20
-7.1108
11
7.13937
21
-7.09674
0
LINE
8
BLACK
6
CONTINUOUS
10
7.13937
20
-7.09674
11
7.13937
21
-7.08549
0
LINE
8
BLACK
6
CONTINUOUS
10
7.13937
20
-7.08549
11
7.13656
21
-7.07143
0
LINE
8
BLACK
6
CONTINUOUS
10
7.13656
20
-7.07143
11
7.13375
21
-7.06299
0
LINE
8
BLACK
6
CONTINUOUS
10
7.13375
20
-7.06299
11
7.13094
21
-7.05737
0
LINE
8
BLACK
6
CONTINUOUS
10
7.13094
20
-7.05737
11
7.12531
21
-7.04893
0
LINE
8
BLACK
6
CONTINUOUS
10
7.12531
20
-7.04893
11
7.1225
21
-7.04612
0
LINE
8
BLACK
6
CONTINUOUS
10
7.20686
20
-7.05456
11
7.22092
21
-7.11361
0
LINE
8
BLACK
6
CONTINUOUS
10
7.22092
20
-7.11361
11
7.23217
21
-7.07143
0
LINE
8
BLACK
6
CONTINUOUS
10
7.23217
20
-7.07143
11
7.24342
21
-7.11361
0
LINE
8
BLACK
6
CONTINUOUS
10
7.24342
20
-7.11361
11
7.25748
21
-7.05456
0
LINE
8
BLACK
6
CONTINUOUS
10
7.28842
20
-7.11361
11
7.28279
21
-7.1108
0
LINE
8
BLACK
6
CONTINUOUS
10
7.28279
20
-7.1108
11
7.27998
21
-7.10799
0
LINE
8
BLACK
6
CONTINUOUS
10
7.27998
20
-7.10799
11
7.27717
21
-7.10236
0
LINE
8
BLACK
6
CONTINUOUS
10
7.27717
20
-7.10236
11
7.27717
21
-7.08549
0
LINE
8
BLACK
6
CONTINUOUS
10
7.27717
20
-7.08549
11
7.27998
21
-7.07987
0
LINE
8
BLACK
6
CONTINUOUS
10
7.27998
20
-7.07987
11
7.28279
21
-7.07706
0
LINE
8
BLACK
6
CONTINUOUS
10
7.28279
20
-7.07706
11
7.28842
21
-7.07424
0
LINE
8
BLACK
6
CONTINUOUS
10
7.28842
20
-7.07424
11
7.29685
21
-7.07424
0
LINE
8
BLACK
6
CONTINUOUS
10
7.29685
20
-7.07424
11
7.30248
21
-7.07706
0
LINE
8
BLACK
6
CONTINUOUS
10
7.30248
20
-7.07706
11
7.30529
21
-7.07987
0
LINE
8
BLACK
6
CONTINUOUS
10
7.30529
20
-7.07987
11
7.3081
21
-7.08549
0
LINE
8
BLACK
6
CONTINUOUS
10
7.3081
20
-7.08549
11
7.3081
21
-7.10236
0
LINE
8
BLACK
6
CONTINUOUS
10
7.3081
20
-7.10236
11
7.30529
21
-7.10799
0
LINE
8
BLACK
6
CONTINUOUS
10
7.30529
20
-7.10799
11
7.30248
21
-7.1108
0
LINE
8
BLACK
6
CONTINUOUS
10
7.30248
20
-7.1108
11
7.29685
21
-7.11361
0
LINE
8
BLACK
6
CONTINUOUS
10
7.29685
20
-7.11361
11
7.28842
21
-7.11361
0
LINE
8
BLACK
6
CONTINUOUS
10
7.35872
20
-7.11361
11
7.35872
21
-7.05456
0
LINE
8
BLACK
6
CONTINUOUS
10
7.35872
20
-7.1108
11
7.3531
21
-7.11361
0
LINE
8
BLACK
6
CONTINUOUS
10
7.3531
20
-7.11361
11
7.34185
21
-7.11361
0
LINE
8
BLACK
6
CONTINUOUS
10
7.34185
20
-7.11361
11
7.33622
21
-7.1108
0
LINE
8
BLACK
6
CONTINUOUS
10
7.33622
20
-7.1108
11
7.33341
21
-7.10799
0
LINE
8
BLACK
6
CONTINUOUS
10
7.33341
20
-7.10799
11
7.3306
21
-7.10236
0
LINE
8
BLACK
6
CONTINUOUS
10
7.3306
20
-7.10236
11
7.3306
21
-7.08549
0
LINE
8
BLACK
6
CONTINUOUS
10
7.3306
20
-7.08549
11
7.33341
21
-7.07987
0
LINE
8
BLACK
6
CONTINUOUS
10
7.33341
20
-7.07987
11
7.33622
21
-7.07706
0
LINE
8
BLACK
6
CONTINUOUS
10
7.33622
20
-7.07706
11
7.34185
21
-7.07424
0
LINE
8
BLACK
6
CONTINUOUS
10
7.34185
20
-7.07424
11
7.3531
21
-7.07424
0
LINE
8
BLACK
6
CONTINUOUS
10
7.3531
20
-7.07424
11
7.35872
21
-7.07706
0
LINE
8
BLACK
6
CONTINUOUS
10
7.39528
20
-7.11361
11
7.38965
21
-7.1108
0
LINE
8
BLACK
6
CONTINUOUS
10
7.38965
20
-7.1108
11
7.38684
21
-7.10799
0
LINE
8
BLACK
6
CONTINUOUS
10
7.38684
20
-7.10799
11
7.38403
21
-7.10236
0
LINE
8
BLACK
6
CONTINUOUS
10
7.38403
20
-7.10236
11
7.38403
21
-7.08549
0
LINE
8
BLACK
6
CONTINUOUS
10
7.38403
20
-7.08549
11
7.38684
21
-7.07987
0
LINE
8
BLACK
6
CONTINUOUS
10
7.38684
20
-7.07987
11
7.38965
21
-7.07706
0
LINE
8
BLACK
6
CONTINUOUS
10
7.38965
20
-7.07706
11
7.39528
21
-7.07424
0
LINE
8
BLACK
6
CONTINUOUS
10
7.39528
20
-7.07424
11
7.40371
21
-7.07424
0
LINE
8
BLACK
6
CONTINUOUS
10
7.40371
20
-7.07424
11
7.40934
21
-7.07706
0
LINE
8
BLACK
6
CONTINUOUS
10
7.40934
20
-7.07706
11
7.41215
21
-7.07987
0
LINE
8
BLACK
6
CONTINUOUS
10
7.41215
20
-7.07987
11
7.41496
21
-7.08549
0
LINE
8
BLACK
6
CONTINUOUS
10
7.41496
20
-7.08549
11
7.41496
21
-7.10236
0
LINE
8
BLACK
6
CONTINUOUS
10
7.41496
20
-7.10236
11
7.41215
21
-7.10799
0
LINE
8
BLACK
6
CONTINUOUS
10
7.41215
20
-7.10799
11
7.40934
21
-7.1108
0
LINE
8
BLACK
6
CONTINUOUS
10
7.40934
20
-7.1108
11
7.40371
21
-7.11361
0
LINE
8
BLACK
6
CONTINUOUS
10
7.40371
20
-7.11361
11
7.39528
21
-7.11361
0
LINE
8
BLACK
6
CONTINUOUS
10
7.43465
20
-7.05456
11
7.44871
21
-7.11361
0
LINE
8
BLACK
6
CONTINUOUS
10
7.44871
20
-7.11361
11
7.45996
21
-7.07143
0
LINE
8
BLACK
6
CONTINUOUS
10
7.45996
20
-7.07143
11
7.47121
21
-7.11361
0
LINE
8
BLACK
6
CONTINUOUS
10
7.47121
20
-7.11361
11
7.48527
21
-7.05456
0
LINE
8
BLACK
6
CONTINUOUS
10
7.50776
20
-7.11361
11
7.50776
21
-7.07424
0
LINE
8
BLACK
6
CONTINUOUS
10
7.50776
20
-7.05456
11
7.50495
21
-7.05737
0
LINE
8
BLACK
6
CONTINUOUS
10
7.50495
20
-7.05737
11
7.50776
21
-7.06018
0
LINE
8
BLACK
6
CONTINUOUS
10
7.50776
20
-7.06018
11
7.51058
21
-7.05737
0
LINE
8
BLACK
6
CONTINUOUS
10
7.51058
20
-7.05737
11
7.50776
21
-7.05456
0
LINE
8
BLACK
6
CONTINUOUS
10
7.50776
20
-7.05456
11
7.50776
21
-7.06018
0
LINE
8
BLACK
6
CONTINUOUS
10
7.55838
20
-7.1108
11
7.55276
21
-7.11361
0
LINE
8
BLACK
6
CONTINUOUS
10
7.55276
20
-7.11361
11
7.54151
21
-7.11361
0
LINE
8
BLACK
6
CONTINUOUS
10
7.54151
20
-7.11361
11
7.53589
21
-7.1108
0
LINE
8
BLACK
6
CONTINUOUS
10
7.53589
20
-7.1108
11
7.53307
21
-7.10518
0
LINE
8
BLACK
6
CONTINUOUS
10
7.53307
20
-7.10518
11
7.53307
21
-7.08268
0
LINE
8
BLACK
6
CONTINUOUS
10
7.53307
20
-7.08268
11
7.53589
21
-7.07706
0
LINE
8
BLACK
6
CONTINUOUS
10
7.53589
20
-7.07706
11
7.54151
21
-7.07424
0
LINE
8
BLACK
6
CONTINUOUS
10
7.54151
20
-7.07424
11
7.55276
21
-7.07424
0
LINE
8
BLACK
6
CONTINUOUS
10
7.55276
20
-7.07424
11
7.55838
21
-7.07706
0
LINE
8
BLACK
6
CONTINUOUS
10
7.55838
20
-7.07706
11
7.56119
21
-7.08268
0
LINE
8
BLACK
6
CONTINUOUS
10
7.56119
20
-7.08268
11
7.56119
21
-7.0883
0
LINE
8
BLACK
6
CONTINUOUS
10
7.56119
20
-7.0883
11
7.53307
21
-7.09393
0
LINE
8
BLACK
6
CONTINUOUS
10
7.58369
20
-7.1108
11
7.58932
21
-7.11361
0
LINE
8
BLACK
6
CONTINUOUS
10
7.58932
20
-7.11361
11
7.60056
21
-7.11361
0
LINE
8
BLACK
6
CONTINUOUS
10
7.60056
20
-7.11361
11
7.60619
21
-7.1108
0
LINE
8
BLACK
6
CONTINUOUS
10
7.60619
20
-7.1108
11
7.609
21
-7.10518
0
LINE
8
BLACK
6
CONTINUOUS
10
7.609
20
-7.10518
11
7.609
21
-7.10236
0
LINE
8
BLACK
6
CONTINUOUS
10
7.609
20
-7.10236
11
7.60619
21
-7.09674
0
LINE
8
BLACK
6
CONTINUOUS
10
7.60619
20
-7.09674
11
7.60056
21
-7.09393
0
LINE
8
BLACK
6
CONTINUOUS
10
7.60056
20
-7.09393
11
7.59213
21
-7.09393
0
LINE
8
BLACK
6
CONTINUOUS
10
7.59213
20
-7.09393
11
7.5865
21
-7.09112
0
LINE
8
BLACK
6
CONTINUOUS
10
7.5865
20
-7.09112
11
7.58369
21
-7.08549
0
LINE
8
BLACK
6
CONTINUOUS
10
7.58369
20
-7.08549
11
7.58369
21
-7.08268
0
LINE
8
BLACK
6
CONTINUOUS
10
7.58369
20
-7.08268
11
7.5865
21
-7.07706
0
LINE
8
BLACK
6
CONTINUOUS
10
7.5865
20
-7.07706
11
7.59213
21
-7.07424
0
LINE
8
BLACK
6
CONTINUOUS
10
7.59213
20
-7.07424
11
7.60056
21
-7.07424
0
LINE
8
BLACK
6
CONTINUOUS
10
7.60056
20
-7.07424
11
7.60619
21
-7.07706
0
LINE
8
BLACK
6
CONTINUOUS
10
7.65681
20
-7.1108
11
7.65118
21
-7.11361
0
LINE
8
BLACK
6
CONTINUOUS
10
7.65118
20
-7.11361
11
7.63993
21
-7.11361
0
LINE
8
BLACK
6
CONTINUOUS
10
7.63993
20
-7.11361
11
7.63431
21
-7.1108
0
LINE
8
BLACK
6
CONTINUOUS
10
7.63431
20
-7.1108
11
7.6315
21
-7.10518
0
LINE
8
BLACK
6
CONTINUOUS
10
7.6315
20
-7.10518
11
7.6315
21
-7.08268
0
LINE
8
BLACK
6
CONTINUOUS
10
7.6315
20
-7.08268
11
7.63431
21
-7.07706
0
LINE
8
BLACK
6
CONTINUOUS
10
7.63431
20
-7.07706
11
7.63993
21
-7.07424
0
LINE
8
BLACK
6
CONTINUOUS
10
7.63993
20
-7.07424
11
7.65118
21
-7.07424
0
LINE
8
BLACK
6
CONTINUOUS
10
7.65118
20
-7.07424
11
7.65681
21
-7.07706
0
LINE
8
BLACK
6
CONTINUOUS
10
7.65681
20
-7.07706
11
7.65962
21
-7.08268
0
LINE
8
BLACK
6
CONTINUOUS
10
7.65962
20
-7.08268
11
7.65962
21
-7.0883
0
LINE
8
BLACK
6
CONTINUOUS
10
7.65962
20
-7.0883
11
7.6315
21
-7.09393
0
LINE
8
BLACK
6
CONTINUOUS
10
7.69337
20
-7.11361
11
7.68774
21
-7.1108
0
LINE
8
BLACK
6
CONTINUOUS
10
7.68774
20
-7.1108
11
7.68493
21
-7.10518
0
LINE
8
BLACK
6
CONTINUOUS
10
7.68493
20
-7.10518
11
7.68493
21
-7.05456
0
LINE
8
BLACK
6
CONTINUOUS
10
7.75599
20
-7.53965
11
7.75599
21
-7.65776
0
LINE
8
BLACK
6
CONTINUOUS
10
10.2757
20
-7.53965
11
10.2757
21
-7.79556
0
LINE
8
BLACK
6
CONTINUOUS
10
7.14038
20
-2.60341
11
7.14051
21
-2.60339
0
LINE
8
BLACK
6
CONTINUOUS
10
7.14051
20
-2.60339
11
7.14063
21
-2.60346
0
LINE
8
BLACK
6
CONTINUOUS
10
7.14063
20
-2.60346
11
7.14101
21
-2.60352
0
LINE
8
BLACK
6
CONTINUOUS
10
7.14101
20
-2.60352
11
7.1416
21
-2.60402
0
LINE
8
BLACK
6
CONTINUOUS
10
7.1416
20
-2.60402
11
7.14226
21
-2.6044
0
LINE
8
BLACK
6
CONTINUOUS
10
7.14226
20
-2.6044
11
7.14235
21
-2.60465
0
LINE
8
BLACK
6
CONTINUOUS
10
7.14235
20
-2.60465
11
7.14256
21
-2.60482
0
LINE
8
BLACK
6
CONTINUOUS
10
7.14256
20
-2.60482
11
7.14269
21
-2.60558
0
LINE
8
BLACK
6
CONTINUOUS
10
7.14269
20
-2.60558
11
7.14295
21
-2.6063
0
LINE
8
BLACK
6
CONTINUOUS
10
7.14295
20
-2.6063
11
7.14295
21
-5.44
0
LINE
8
BLACK
6
CONTINUOUS
10
7.14295
20
-5.44
11
7.14289
21
-5.44038
0
LINE
8
BLACK
6
CONTINUOUS
10
7.14289
20
-5.44038
11
7.14291
21
-5.44051
0
LINE
8
BLACK
6
CONTINUOUS
10
7.14291
20
-5.44051
11
7.14284
21
-5.44063
0
LINE
8
BLACK
6
CONTINUOUS
10
7.14284
20
-5.44063
11
7.14277
21
-5.44101
0
LINE
8
BLACK
6
CONTINUOUS
10
7.14277
20
-5.44101
11
7.14228
21
-5.4416
0
LINE
8
BLACK
6
CONTINUOUS
10
7.14228
20
-5.4416
11
7.1419
21
-5.44226
0
LINE
8
BLACK
6
CONTINUOUS
10
7.1419
20
-5.44226
11
7.14165
21
-5.44235
0
LINE
8
BLACK
6
CONTINUOUS
10
7.14165
20
-5.44235
11
7.14148
21
-5.44256
0
LINE
8
BLACK
6
CONTINUOUS
10
7.14148
20
-5.44256
11
7.14072
21
-5.44269
0
LINE
8
BLACK
6
CONTINUOUS
10
7.14072
20
-5.44269
11
7.14
21
-5.44295
0
LINE
8
BLACK
6
CONTINUOUS
10
7.14
20
-5.44295
11
3.62205
21
-5.4439
0
LINE
8
BLACK
6
CONTINUOUS
10
3.62205
20
-5.4439
11
3.62167
21
-5.44383
0
LINE
8
BLACK
6
CONTINUOUS
10
3.62167
20
-5.44383
11
3.62154
21
-5.44385
0
LINE
8
BLACK
6
CONTINUOUS
10
3.62154
20
-5.44385
11
3.62142
21
-5.44379
0
LINE
8
BLACK
6
CONTINUOUS
10
3.62142
20
-5.44379
11
3.62104
21
-5.44372
0
LINE
8
BLACK
6
CONTINUOUS
10
3.62104
20
-5.44372
11
3.62045
21
-5.44323
0
LINE
8
BLACK
6
CONTINUOUS
10
3.62045
20
-5.44323
11
3.61979
21
-5.44285
0
LINE
8
BLACK
6
CONTINUOUS
10
3.61979
20
-5.44285
11
3.6197
21
-5.44259
0
LINE
8
BLACK
6
CONTINUOUS
10
3.6197
20
-5.44259
11
3.61949
21
-5.44242
0
LINE
8
BLACK
6
CONTINUOUS
10
3.61949
20
-5.44242
11
3.61936
21
-5.44167
0
LINE
8
BLACK
6
CONTINUOUS
10
3.61936
20
-5.44167
11
3.61909
21
-5.44095
0
LINE
8
BLACK
6
CONTINUOUS
10
3.61909
20
-5.44095
11
3.61516
21
-2.6063
0
LINE
8
BLACK
6
CONTINUOUS
10
3.61516
20
-2.6063
11
3.61523
21
-2.60592
0
LINE
8
BLACK
6
CONTINUOUS
10
3.61523
20
-2.60592
11
3.6152
21
-2.60579
0
LINE
8
BLACK
6
CONTINUOUS
10
3.6152
20
-2.60579
11
3.61527
21
-2.60567
0
LINE
8
BLACK
6
CONTINUOUS
10
3.61527
20
-2.60567
11
3.61533
21
-2.60529
0
LINE
8
BLACK
6
CONTINUOUS
10
3.61533
20
-2.60529
11
3.61583
21
-2.6047
0
LINE
8
BLACK
6
CONTINUOUS
10
3.61583
20
-2.6047
11
3.61621
21
-2.60404
0
LINE
8
BLACK
6
CONTINUOUS
10
3.61621
20
-2.60404
11
3.61646
21
-2.60395
0
LINE
8
BLACK
6
CONTINUOUS
10
3.61646
20
-2.60395
11
3.61663
21
-2.60374
0
LINE
8
BLACK
6
CONTINUOUS
10
3.61663
20
-2.60374
11
3.61739
21
-2.60361
0
LINE
8
BLACK
6
CONTINUOUS
10
3.61739
20
-2.60361
11
3.61811
21
-2.60335
0
LINE
8
BLACK
6
CONTINUOUS
10
3.61811
20
-2.60335
11
7.14
21
-2.60335
0
LINE
8
BLACK
6
CONTINUOUS
10
7.14
20
-2.60335
11
7.14038
21
-2.60341
0
LINE
8
BLACK
6
CONTINUOUS
10
3.62107
20
-2.60925
11
3.625
21
-5.43799
0
LINE
8
BLACK
6
CONTINUOUS
10
3.625
20
-5.43799
11
7.13705
21
-5.43705
0
LINE
8
BLACK
6
CONTINUOUS
10
7.13705
20
-5.43705
11
7.13705
21
-2.60925
0
LINE
8
BLACK
6
CONTINUOUS
10
7.13705
20
-2.60925
11
3.62107
21
-2.60925
0
LINE
8
BLACK
6
CONTINUOUS
10
5.86643
20
-5.41802
11
5.86614
21
-5.41732
0
LINE
8
BLACK
6
CONTINUOUS
10
5.86614
20
-5.41732
11
5.86614
21
-5.27559
0
LINE
8
BLACK
6
CONTINUOUS
10
5.86614
20
-5.27559
11
5.86643
21
-5.27489
0
LINE
8
BLACK
6
CONTINUOUS
10
5.86643
20
-5.27489
11
5.86713
21
-5.27461
0
LINE
8
BLACK
6
CONTINUOUS
10
5.86713
20
-5.27461
11
6.10925
21
-5.27461
0
LINE
8
BLACK
6
CONTINUOUS
10
6.10925
20
-5.27461
11
6.10995
21
-5.27489
0
LINE
8
BLACK
6
CONTINUOUS
10
6.10995
20
-5.27489
11
6.11024
21
-5.27559
0
LINE
8
BLACK
6
CONTINUOUS
10
6.11024
20
-5.27559
11
6.11024
21
-5.41732
0
LINE
8
BLACK
6
CONTINUOUS
10
6.11024
20
-5.41732
11
6.10995
21
-5.41802
0
LINE
8
BLACK
6
CONTINUOUS
10
6.10995
20
-5.41802
11
6.10925
21
-5.41831
0
LINE
8
BLACK
6
CONTINUOUS
10
6.10925
20
-5.41831
11
5.86713
21
-5.41831
0
LINE
8
BLACK
6
CONTINUOUS
10
5.86713
20
-5.41831
11
5.86643
21
-5.41802
0
LINE
8
BLACK
6
CONTINUOUS
10
5.86811
20
-5.27657
11
5.86811
21
-5.41634
0
LINE
8
BLACK
6
CONTINUOUS
10
5.86811
20
-5.41634
11
6.10827
21
-5.41634
0
LINE
8
BLACK
6
CONTINUOUS
10
6.10827
20
-5.41634
11
6.10827
21
-5.27657
0
LINE
8
BLACK
6
CONTINUOUS
10
6.10827
20
-5.27657
11
5.86811
21
-5.27657
0
LINE
8
BLACK
6
CONTINUOUS
10
3.96946
20
-5.25054
11
3.96917
21
-5.24984
0
LINE
8
BLACK
6
CONTINUOUS
10
3.96917
20
-5.24984
11
3.96917
21
-4.53016
0
LINE
8
BLACK
6
CONTINUOUS
10
3.96917
20
-4.53016
11
3.96946
21
-4.52946
0
LINE
8
BLACK
6
CONTINUOUS
10
3.96946
20
-4.52946
11
3.97016
21
-4.52917
0
LINE
8
BLACK
6
CONTINUOUS
10
3.97016
20
-4.52917
11
5.78984
21
-4.52917
0
LINE
8
BLACK
6
CONTINUOUS
10
5.78984
20
-4.52917
11
5.79054
21
-4.52946
0
LINE
8
BLACK
6
CONTINUOUS
10
5.79054
20
-4.52946
11
5.79083
21
-4.53016
0
LINE
8
BLACK
6
CONTINUOUS
10
5.79083
20
-4.53016
11
5.79083
21
-5.24984
0
LINE
8
BLACK
6
CONTINUOUS
10
5.79083
20
-5.24984
11
5.79054
21
-5.25054
0
LINE
8
BLACK
6
CONTINUOUS
10
5.79054
20
-5.25054
11
5.78984
21
-5.25083
0
LINE
8
BLACK
6
CONTINUOUS
10
5.78984
20
-5.25083
11
3.97016
21
-5.25083
0
LINE
8
BLACK
6
CONTINUOUS
10
3.97016
20
-5.25083
11
3.96946
21
-5.25054
0
LINE
8
BLACK
6
CONTINUOUS
10
3.97114
20
-4.53114
11
3.97114
21
-5.24886
0
LINE
8
BLACK
6
CONTINUOUS
10
3.97114
20
-5.24886
11
5.78886
21
-5.24886
0
LINE
8
BLACK
6
CONTINUOUS
10
5.78886
20
-5.24886
11
5.78886
21
-4.53114
0
LINE
8
BLACK
6
CONTINUOUS
10
5.78886
20
-4.53114
11
3.97114
21
-4.53114
0
LINE
8
BLACK
6
CONTINUOUS
10
5.81584
20
-5.22707
11
5.81555
21
-5.22638
0
LINE
8
BLACK
6
CONTINUOUS
10
5.81555
20
-5.22638
11
5.81555
21
-5.1437
0
LINE
8
BLACK
6
CONTINUOUS
10
5.81555
20
-5.1437
11
5.81584
21
-5.143
0
LINE
8
BLACK
6
CONTINUOUS
10
5.81584
20
-5.143
11
5.81654
21
-5.14272
0
LINE
8
BLACK
6
CONTINUOUS
10
5.81654
20
-5.14272
11
6.19134
21
-5.14272
0
LINE
8
BLACK
6
CONTINUOUS
10
6.19134
20
-5.14272
11
6.19203
21
-5.143
0
LINE
8
BLACK
6
CONTINUOUS
10
6.19203
20
-5.143
11
6.19232
21
-5.1437
0
LINE
8
BLACK
6
CONTINUOUS
10
6.19232
20
-5.1437
11
6.19232
21
-5.22638
0
LINE
8
BLACK
6
CONTINUOUS
10
6.19232
20
-5.22638
11
6.19203
21
-5.22707
0
LINE
8
BLACK
6
CONTINUOUS
10
6.19203
20
-5.22707
11
6.19134
21
-5.22736
0
LINE
8
BLACK
6
CONTINUOUS
10
6.19134
20
-5.22736
11
5.81654
21
-5.22736
0
LINE
8
BLACK
6
CONTINUOUS
10
5.81654
20
-5.22736
11
5.81584
21
-5.22707
0
LINE
8
BLACK
6
CONTINUOUS
10
5.81752
20
-5.14469
11
5.81752
21
-5.22539
0
LINE
8
BLACK
6
CONTINUOUS
10
5.81752
20
-5.22539
11
6.19035
21
-5.22539
0
LINE
8
BLACK
6
CONTINUOUS
10
6.19035
20
-5.22539
11
6.19035
21
-5.14469
0
LINE
8
BLACK
6
CONTINUOUS
10
6.19035
20
-5.14469
11
5.81752
21
-5.14469
0
LINE
8
BLACK
6
CONTINUOUS
10
5.9245
20
-5.12865
11
5.92421
21
-5.12795
0
LINE
8
BLACK
6
CONTINUOUS
10
5.92421
20
-5.12795
11
5.92421
21
-4.77362
0
LINE
8
BLACK
6
CONTINUOUS
10
5.92421
20
-4.77362
11
5.9245
21
-4.77293
0
LINE
8
BLACK
6
CONTINUOUS
10
5.9245
20
-4.77293
11
5.9252
21
-4.77264
0
LINE
8
BLACK
6
CONTINUOUS
10
5.9252
20
-4.77264
11
6.04331
21
-4.77264
0
LINE
8
BLACK
6
CONTINUOUS
10
6.04331
20
-4.77264
11
6.044
21
-4.77293
0
LINE
8
BLACK
6
CONTINUOUS
10
6.044
20
-4.77293
11
6.04429
21
-4.77362
0
LINE
8
BLACK
6
CONTINUOUS
10
6.04429
20
-4.77362
11
6.04429
21
-5.12795
0
LINE
8
BLACK
6
CONTINUOUS
10
6.04429
20
-5.12795
11
6.044
21
-5.12865
0
LINE
8
BLACK
6
CONTINUOUS
10
6.044
20
-5.12865
11
6.04331
21
-5.12894
0
LINE
8
BLACK
6
CONTINUOUS
10
6.04331
20
-5.12894
11
5.9252
21
-5.12894
0
LINE
8
BLACK
6
CONTINUOUS
10
5.9252
20
-5.12894
11
5.9245
21
-5.12865
0
LINE
8
BLACK
6
CONTINUOUS
10
5.92618
20
-4.77461
11
5.92618
21
-5.12697
0
LINE
8
BLACK
6
CONTINUOUS
10
5.92618
20
-5.12697
11
6.04232
21
-5.12697
0
LINE
8
BLACK
6
CONTINUOUS
10
6.04232
20
-5.12697
11
6.04232
21
-4.77461
0
LINE
8
BLACK
6
CONTINUOUS
10
6.04232
20
-4.77461
11
5.92618
21
-4.77461
0
LINE
8
BLACK
6
CONTINUOUS
10
7.08146
20
-3.31039
11
7.08146
21
-3.58598
0
LINE
8
BLACK
6
CONTINUOUS
10
7.08146
20
-3.58598
11
7.08117
21
-3.58668
0
LINE
8
BLACK
6
CONTINUOUS
10
7.08117
20
-3.58668
11
7.08047
21
-3.58697
0
LINE
8
BLACK
6
CONTINUOUS
10
7.08047
20
-3.58697
11
6.98303
21
-3.58697
0
LINE
8
BLACK
6
CONTINUOUS
10
6.98303
20
-3.58697
11
6.98303
21
-4.33303
0
LINE
8
BLACK
6
CONTINUOUS
10
6.98303
20
-4.33303
11
7.08047
21
-4.33303
0
LINE
8
BLACK
6
CONTINUOUS
10
7.08047
20
-4.33303
11
7.08117
21
-4.33332
0
LINE
8
BLACK
6
CONTINUOUS
10
7.08117
20
-4.33332
11
7.08146
21
-4.33402
0
LINE
8
BLACK
6
CONTINUOUS
10
7.08146
20
-4.33402
11
7.08146
21
-4.60961
0
LINE
8
BLACK
6
CONTINUOUS
10
7.08146
20
-4.60961
11
7.08117
21
-4.6103
0
LINE
8
BLACK
6
CONTINUOUS
10
7.08117
20
-4.6103
11
7.08047
21
-4.61059
0
LINE
8
BLACK
6
CONTINUOUS
10
7.08047
20
-4.61059
11
6.98303
21
-4.61059
0
LINE
8
BLACK
6
CONTINUOUS
10
6.98303
20
-4.61059
11
6.98303
21
-5.12142
0
LINE
8
BLACK
6
CONTINUOUS
10
6.98303
20
-5.12142
11
6.98274
21
-5.12211
0
LINE
8
BLACK
6
CONTINUOUS
10
6.98274
20
-5.12211
11
6.98205
21
-5.1224
0
LINE
8
BLACK
6
CONTINUOUS
10
6.98205
20
-5.1224
11
6.23402
21
-5.1224
0
LINE
8
BLACK
6
CONTINUOUS
10
6.23402
20
-5.1224
11
6.23332
21
-5.12211
0
LINE
8
BLACK
6
CONTINUOUS
10
6.23332
20
-5.12211
11
6.23303
21
-5.12142
0
LINE
8
BLACK
6
CONTINUOUS
10
6.23303
20
-5.12142
11
6.23303
21
-4.91571
0
LINE
8
BLACK
6
CONTINUOUS
10
6.23303
20
-4.91571
11
6.13953
21
-4.91571
0
LINE
8
BLACK
6
CONTINUOUS
10
6.13953
20
-4.91571
11
6.13883
21
-4.91542
0
LINE
8
BLACK
6
CONTINUOUS
10
6.13883
20
-4.91542
11
6.13854
21
-4.91472
0
LINE
8
BLACK
6
CONTINUOUS
10
6.13854
20
-4.91472
11
6.13854
21
-3.00528
0
LINE
8
BLACK
6
CONTINUOUS
10
6.13854
20
-3.00528
11
6.13883
21
-3.00458
0
LINE
8
BLACK
6
CONTINUOUS
10
6.13883
20
-3.00458
11
6.13953
21
-3.00429
0
LINE
8
BLACK
6
CONTINUOUS
10
6.13953
20
-3.00429
11
6.23303
21
-3.00429
0
LINE
8
BLACK
6
CONTINUOUS
10
6.23303
20
-3.00429
11
6.23303
21
-2.79858
0
LINE
8
BLACK
6
CONTINUOUS
10
6.23303
20
-2.79858
11
6.23332
21
-2.79789
0
LINE
8
BLACK
6
CONTINUOUS
10
6.23332
20
-2.79789
11
6.23402
21
-2.7976
0
LINE
8
BLACK
6
CONTINUOUS
10
6.23402
20
-2.7976
11
6.98205
21
-2.7976
0
LINE
8
BLACK
6
CONTINUOUS
10
6.98205
20
-2.7976
11
6.98274
21
-2.79789
0
LINE
8
BLACK
6
CONTINUOUS
10
6.98274
20
-2.79789
11
6.98303
21
-2.79858
0
LINE
8
BLACK
6
CONTINUOUS
10
6.98303
20
-2.79858
11
6.98303
21
-3.30941
0
LINE
8
BLACK
6
CONTINUOUS
10
6.98303
20
-3.30941
11
7.08047
21
-3.30941
0
LINE
8
BLACK
6
CONTINUOUS
10
7.08047
20
-3.30941
11
7.08117
21
-3.3097
0
LINE
8
BLACK
6
CONTINUOUS
10
7.08117
20
-3.3097
11
7.08146
21
-3.31039
0
LINE
8
BLACK
6
CONTINUOUS
10
6.14051
20
-4.91374
11
6.23402
21
-4.91374
0
LINE
8
BLACK
6
CONTINUOUS
10
6.23402
20
-4.91374
11
6.23471
21
-4.91403
0
LINE
8
BLACK
6
CONTINUOUS
10
6.23471
20
-4.91403
11
6.235
21
-4.91472
0
LINE
8
BLACK
6
CONTINUOUS
10
6.235
20
-4.91472
11
6.235
21
-5.12043
0
LINE
8
BLACK
6
CONTINUOUS
10
6.235
20
-5.12043
11
6.98106
21
-5.12043
0
LINE
8
BLACK
6
CONTINUOUS
10
6.98106
20
-5.12043
11
6.98106
21
-4.60961
0
LINE
8
BLACK
6
CONTINUOUS
10
6.98106
20
-4.60961
11
6.98135
21
-4.60891
0
LINE
8
BLACK
6
CONTINUOUS
10
6.98135
20
-4.60891
11
6.98205
21
-4.60862
0
LINE
8
BLACK
6
CONTINUOUS
10
6.98205
20
-4.60862
11
7.07949
21
-4.60862
0
LINE
8
BLACK
6
CONTINUOUS
10
7.07949
20
-4.60862
11
7.07949
21
-4.335
0
LINE
8
BLACK
6
CONTINUOUS
10
7.07949
20
-4.335
11
6.98205
21
-4.335
0
LINE
8
BLACK
6
CONTINUOUS
10
6.98205
20
-4.335
11
6.98135
21
-4.33471
0
LINE
8
BLACK
6
CONTINUOUS
10
6.98135
20
-4.33471
11
6.98106
21
-4.33402
0
LINE
8
BLACK
6
CONTINUOUS
10
6.98106
20
-4.33402
11
6.98106
21
-3.58598
0
LINE
8
BLACK
6
CONTINUOUS
10
6.98106
20
-3.58598
11
6.98135
21
-3.58529
0
LINE
8
BLACK
6
CONTINUOUS
10
6.98135
20
-3.58529
11
6.98205
21
-3.585
0
LINE
8
BLACK
6
CONTINUOUS
10
6.98205
20
-3.585
11
7.07949
21
-3.585
0
LINE
8
BLACK
6
CONTINUOUS
10
7.07949
20
-3.585
11
7.07949
21
-3.31138
0
LINE
8
BLACK
6
CONTINUOUS
10
7.07949
20
-3.31138
11
6.98205
21
-3.31138
0
LINE
8
BLACK
6
CONTINUOUS
10
6.98205
20
-3.31138
11
6.98135
21
-3.31109
0
LINE
8
BLACK
6
CONTINUOUS
10
6.98135
20
-3.31109
11
6.98106
21
-3.31039
0
LINE
8
BLACK
6
CONTINUOUS
10
6.98106
20
-3.31039
11
6.98106
21
-2.79957
0
LINE
8
BLACK
6
CONTINUOUS
10
6.98106
20
-2.79957
11
6.235
21
-2.79957
0
LINE
8
BLACK
6
CONTINUOUS
10
6.235
20
-2.79957
11
6.235
21
-3.00528
0
LINE
8
BLACK
6
CONTINUOUS
10
6.235
20
-3.00528
11
6.23471
21
-3.00597
0
LINE
8
BLACK
6
CONTINUOUS
10
6.23471
20
-3.00597
11
6.23402
21
-3.00626
0
LINE
8
BLACK
6
CONTINUOUS
10
6.23402
20
-3.00626
11
6.14051
21
-3.00626
0
LINE
8
BLACK
6
CONTINUOUS
10
6.14051
20
-3.00626
11
6.14051
21
-4.91374
0
LINE
8
BLACK
6
CONTINUOUS
10
4.79887
20
-4.02361
11
4.79858
21
-4.02291
0
LINE
8
BLACK
6
CONTINUOUS
10
4.79858
20
-4.02291
11
4.79858
21
-3.63709
0
LINE
8
BLACK
6
CONTINUOUS
10
4.79858
20
-3.63709
11
4.79887
21
-3.63639
0
LINE
8
BLACK
6
CONTINUOUS
10
4.79887
20
-3.63639
11
4.79957
21
-3.6361
0
LINE
8
BLACK
6
CONTINUOUS
10
4.79957
20
-3.6361
11
5.62043
21
-3.6361
0
LINE
8
BLACK
6
CONTINUOUS
10
5.62043
20
-3.6361
11
5.62113
21
-3.63639
0
LINE
8
BLACK
6
CONTINUOUS
10
5.62113
20
-3.63639
11
5.62142
21
-3.63709
0
LINE
8
BLACK
6
CONTINUOUS
10
5.62142
20
-3.63709
11
5.62142
21
-4.02291
0
LINE
8
BLACK
6
CONTINUOUS
10
5.62142
20
-4.02291
11
5.62113
21
-4.02361
0
LINE
8
BLACK
6
CONTINUOUS
10
5.62113
20
-4.02361
11
5.62043
21
-4.0239
0
LINE
8
BLACK
6
CONTINUOUS
10
5.62043
20
-4.0239
11
4.79957
21
-4.0239
0
LINE
8
BLACK
6
CONTINUOUS
10
4.79957
20
-4.0239
11
4.79887
21
-4.02361
0
LINE
8
BLACK
6
CONTINUOUS
10
4.80055
20
-3.63807
11
4.80055
21
-4.02193
0
LINE
8
BLACK
6
CONTINUOUS
10
4.80055
20
-4.02193
11
5.61945
21
-4.02193
0
LINE
8
BLACK
6
CONTINUOUS
10
5.61945
20
-4.02193
11
5.61945
21
-3.63807
0
LINE
8
BLACK
6
CONTINUOUS
10
5.61945
20
-3.63807
11
4.80055
21
-3.63807
0
LINE
8
BLACK
6
CONTINUOUS
10
4.79887
20
-3.38361
11
4.79858
21
-3.38291
0
LINE
8
BLACK
6
CONTINUOUS
10
4.79858
20
-3.38291
11
4.79858
21
-2.99709
0
LINE
8
BLACK
6
CONTINUOUS
10
4.79858
20
-2.99709
11
4.79887
21
-2.99639
0
LINE
8
BLACK
6
CONTINUOUS
10
4.79887
20
-2.99639
11
4.79957
21
-2.9961
0
LINE
8
BLACK
6
CONTINUOUS
10
4.79957
20
-2.9961
11
5.62043
21
-2.9961
0
LINE
8
BLACK
6
CONTINUOUS
10
5.62043
20
-2.9961
11
5.62113
21
-2.99639
0
LINE
8
BLACK
6
CONTINUOUS
10
5.62113
20
-2.99639
11
5.62142
21
-2.99709
0
LINE
8
BLACK
6
CONTINUOUS
10
5.62142
20
-2.99709
11
5.62142
21
-3.38291
0
LINE
8
BLACK
6
CONTINUOUS
10
5.62142
20
-3.38291
11
5.62113
21
-3.38361
0
LINE
8
BLACK
6
CONTINUOUS
10
5.62113
20
-3.38361
11
5.62043
21
-3.3839
0
LINE
8
BLACK
6
CONTINUOUS
10
5.62043
20
-3.3839
11
4.79957
21
-3.3839
0
LINE
8
BLACK
6
CONTINUOUS
10
4.79957
20
-3.3839
11
4.79887
21
-3.38361
0
LINE
8
BLACK
6
CONTINUOUS
10
4.80055
20
-2.99807
11
4.80055
21
-3.38193
0
LINE
8
BLACK
6
CONTINUOUS
10
4.80055
20
-3.38193
11
5.61945
21
-3.38193
0
LINE
8
BLACK
6
CONTINUOUS
10
5.61945
20
-3.38193
11
5.61945
21
-2.99807
0
LINE
8
BLACK
6
CONTINUOUS
10
5.61945
20
-2.99807
11
4.80055
21
-2.99807
0
LINE
8
BLACK
6
CONTINUOUS
10
5.70167
20
-3.34518
11
5.70138
21
-3.34449
0
LINE
8
BLACK
6
CONTINUOUS
10
5.70138
20
-3.34449
11
5.70138
21
-3.26181
0
LINE
8
BLACK
6
CONTINUOUS
10
5.70138
20
-3.26181
11
5.70167
21
-3.26112
0
LINE
8
BLACK
6
CONTINUOUS
10
5.70167
20
-3.26112
11
5.70236
21
-3.26083
0
LINE
8
BLACK
6
CONTINUOUS
10
5.70236
20
-3.26083
11
6.07717
21
-3.26083
0
LINE
8
BLACK
6
CONTINUOUS
10
6.07717
20
-3.26083
11
6.07786
21
-3.26112
0
LINE
8
BLACK
6
CONTINUOUS
10
6.07786
20
-3.26112
11
6.07815
21
-3.26181
0
LINE
8
BLACK
6
CONTINUOUS
10
6.07815
20
-3.26181
11
6.07815
21
-3.34449
0
LINE
8
BLACK
6
CONTINUOUS
10
6.07815
20
-3.34449
11
6.07786
21
-3.34518
0
LINE
8
BLACK
6
CONTINUOUS
10
6.07786
20
-3.34518
11
6.07717
21
-3.34547
0
LINE
8
BLACK
6
CONTINUOUS
10
6.07717
20
-3.34547
11
5.70236
21
-3.34547
0
LINE
8
BLACK
6
CONTINUOUS
10
5.70236
20
-3.34547
11
5.70167
21
-3.34518
0
LINE
8
BLACK
6
CONTINUOUS
10
5.70335
20
-3.2628
11
5.70335
21
-3.3435
0
LINE
8
BLACK
6
CONTINUOUS
10
5.70335
20
-3.3435
11
6.07618
21
-3.3435
0
LINE
8
BLACK
6
CONTINUOUS
10
6.07618
20
-3.3435
11
6.07618
21
-3.2628
0
LINE
8
BLACK
6
CONTINUOUS
10
6.07618
20
-3.2628
11
5.70335
21
-3.2628
0
LINE
8
BLACK
6
CONTINUOUS
10
5.70167
20
-3.2507
11
5.70138
21
-3.25
0
LINE
8
BLACK
6
CONTINUOUS
10
5.70138
20
-3.25
11
5.70138
21
-3.16732
0
LINE
8
BLACK
6
CONTINUOUS
10
5.70138
20
-3.16732
11
5.70167
21
-3.16663
0
LINE
8
BLACK
6
CONTINUOUS
10
5.70167
20
-3.16663
11
5.70236
21
-3.16634
0
LINE
8
BLACK
6
CONTINUOUS
10
5.70236
20
-3.16634
11
6.07717
21
-3.16634
0
LINE
8
BLACK
6
CONTINUOUS
10
6.07717
20
-3.16634
11
6.07786
21
-3.16663
0
LINE
8
BLACK
6
CONTINUOUS
10
6.07786
20
-3.16663
11
6.07815
21
-3.16732
0
LINE
8
BLACK
6
CONTINUOUS
10
6.07815
20
-3.16732
11
6.07815
21
-3.25
0
LINE
8
BLACK
6
CONTINUOUS
10
6.07815
20
-3.25
11
6.07786
21
-3.2507
0
LINE
8
BLACK
6
CONTINUOUS
10
6.07786
20
-3.2507
11
6.07717
21
-3.25098
0
LINE
8
BLACK
6
CONTINUOUS
10
6.07717
20
-3.25098
11
5.70236
21
-3.25098
0
LINE
8
BLACK
6
CONTINUOUS
10
5.70236
20
-3.25098
11
5.70167
21
-3.2507
0
LINE
8
BLACK
6
CONTINUOUS
10
5.70335
20
-3.16831
11
5.70335
21
-3.24902
0
LINE
8
BLACK
6
CONTINUOUS
10
5.70335
20
-3.24902
11
6.07618
21
-3.24902
0
LINE
8
BLACK
6
CONTINUOUS
10
6.07618
20
-3.24902
11
6.07618
21
-3.16831
0
LINE
8
BLACK
6
CONTINUOUS
10
6.07618
20
-3.16831
11
5.70335
21
-3.16831
0
LINE
8
BLACK
6
CONTINUOUS
10
5.70167
20
-3.16014
11
5.70138
21
-3.15945
0
LINE
8
BLACK
6
CONTINUOUS
10
5.70138
20
-3.15945
11
5.70138
21
-3.07677
0
LINE
8
BLACK
6
CONTINUOUS
10
5.70138
20
-3.07677
11
5.70167
21
-3.07608
0
LINE
8
BLACK
6
CONTINUOUS
10
5.70167
20
-3.07608
11
5.70236
21
-3.07579
0
LINE
8
BLACK
6
CONTINUOUS
10
5.70236
20
-3.07579
11
6.07717
21
-3.07579
0
LINE
8
BLACK
6
CONTINUOUS
10
6.07717
20
-3.07579
11
6.07786
21
-3.07608
0
LINE
8
BLACK
6
CONTINUOUS
10
6.07786
20
-3.07608
11
6.07815
21
-3.07677
0
LINE
8
BLACK
6
CONTINUOUS
10
6.07815
20
-3.07677
11
6.07815
21
-3.15945
0
LINE
8
BLACK
6
CONTINUOUS
10
6.07815
20
-3.15945
11
6.07786
21
-3.16014
0
LINE
8
BLACK
6
CONTINUOUS
10
6.07786
20
-3.16014
11
6.07717
21
-3.16043
0
LINE
8
BLACK
6
CONTINUOUS
10
6.07717
20
-3.16043
11
5.70236
21
-3.16043
0
LINE
8
BLACK
6
CONTINUOUS
10
5.70236
20
-3.16043
11
5.70167
21
-3.16014
0
LINE
8
BLACK
6
CONTINUOUS
10
5.70335
20
-3.07776
11
5.70335
21
-3.15846
0
LINE
8
BLACK
6
CONTINUOUS
10
5.70335
20
-3.15846
11
6.07618
21
-3.15846
0
LINE
8
BLACK
6
CONTINUOUS
10
6.07618
20
-3.15846
11
6.07618
21
-3.07776
0
LINE
8
BLACK
6
CONTINUOUS
10
6.07618
20
-3.07776
11
5.70335
21
-3.07776
0
LINE
8
BLACK
6
CONTINUOUS
10
5.70009
20
-3.0381
11
5.6998
21
-3.0374
0
LINE
8
BLACK
6
CONTINUOUS
10
5.6998
20
-3.0374
11
5.6998
21
-2.95472
0
LINE
8
BLACK
6
CONTINUOUS
10
5.6998
20
-2.95472
11
5.70009
21
-2.95403
0
LINE
8
BLACK
6
CONTINUOUS
10
5.70009
20
-2.95403
11
5.70079
21
-2.95374
0
LINE
8
BLACK
6
CONTINUOUS
10
5.70079
20
-2.95374
11
6.07559
21
-2.95374
0
LINE
8
BLACK
6
CONTINUOUS
10
6.07559
20
-2.95374
11
6.07629
21
-2.95403
0
LINE
8
BLACK
6
CONTINUOUS
10
6.07629
20
-2.95403
11
6.07657
21
-2.95472
0
LINE
8
BLACK
6
CONTINUOUS
10
6.07657
20
-2.95472
11
6.07657
21
-3.0374
0
LINE
8
BLACK
6
CONTINUOUS
10
6.07657
20
-3.0374
11
6.07629
21
-3.0381
0
LINE
8
BLACK
6
CONTINUOUS
10
6.07629
20
-3.0381
11
6.07559
21
-3.03839
0
LINE
8
BLACK
6
CONTINUOUS
10
6.07559
20
-3.03839
11
5.70079
21
-3.03839
0
LINE
8
BLACK
6
CONTINUOUS
10
5.70079
20
-3.03839
11
5.70009
21
-3.0381
0
LINE
8
BLACK
6
CONTINUOUS
10
5.70177
20
-2.95571
11
5.70177
21
-3.03642
0
LINE
8
BLACK
6
CONTINUOUS
10
5.70177
20
-3.03642
11
6.07461
21
-3.03642
0
LINE
8
BLACK
6
CONTINUOUS
10
6.07461
20
-3.03642
11
6.07461
21
-2.95571
0
LINE
8
BLACK
6
CONTINUOUS
10
6.07461
20
-2.95571
11
5.70177
21
-2.95571
0
LINE
8
BLACK
6
CONTINUOUS
10
5.73356
20
-2.9377
11
5.73327
21
-2.93701
0
LINE
8
BLACK
6
CONTINUOUS
10
5.73327
20
-2.93701
11
5.73327
21
-2.79528
0
LINE
8
BLACK
6
CONTINUOUS
10
5.73327
20
-2.79528
11
5.73356
21
-2.79458
0
LINE
8
BLACK
6
CONTINUOUS
10
5.73356
20
-2.79458
11
5.73425
21
-2.79429
0
LINE
8
BLACK
6
CONTINUOUS
10
5.73425
20
-2.79429
11
6.0748
21
-2.79429
0
LINE
8
BLACK
6
CONTINUOUS
10
6.0748
20
-2.79429
11
6.0755
21
-2.79458
0
LINE
8
BLACK
6
CONTINUOUS
10
6.0755
20
-2.79458
11
6.07579
21
-2.79528
0
LINE
8
BLACK
6
CONTINUOUS
10
6.07579
20
-2.79528
11
6.07579
21
-2.93701
0
LINE
8
BLACK
6
CONTINUOUS
10
6.07579
20
-2.93701
11
6.0755
21
-2.9377
0
LINE
8
BLACK
6
CONTINUOUS
10
6.0755
20
-2.9377
11
6.0748
21
-2.93799
0
LINE
8
BLACK
6
CONTINUOUS
10
6.0748
20
-2.93799
11
5.73425
21
-2.93799
0
LINE
8
BLACK
6
CONTINUOUS
10
5.73425
20
-2.93799
11
5.73356
21
-2.9377
0
LINE
8
BLACK
6
CONTINUOUS
10
5.73524
20
-2.79626
11
5.73524
21
-2.93602
0
LINE
8
BLACK
6
CONTINUOUS
10
5.73524
20
-2.93602
11
6.07382
21
-2.93602
0
LINE
8
BLACK
6
CONTINUOUS
10
6.07382
20
-2.93602
11
6.07382
21
-2.79626
0
LINE
8
BLACK
6
CONTINUOUS
10
6.07382
20
-2.79626
11
5.73524
21
-2.79626
0
LINE
8
BLACK
6
CONTINUOUS
10
6.85437
20
-5.25502
11
6.85807
21
-5.24119
0
LINE
8
BLACK
6
CONTINUOUS
10
6.85807
20
-5.24119
11
6.86321
21
-5.22782
0
LINE
8
BLACK
6
CONTINUOUS
10
6.86321
20
-5.22782
11
6.86971
21
-5.21506
0
LINE
8
BLACK
6
CONTINUOUS
10
6.86971
20
-5.21506
11
6.87751
21
-5.20305
0
LINE
8
BLACK
6
CONTINUOUS
10
6.87751
20
-5.20305
11
6.88652
21
-5.19192
0
LINE
8
BLACK
6
CONTINUOUS
10
6.88652
20
-5.19192
11
6.89664
21
-5.18179
0
LINE
8
BLACK
6
CONTINUOUS
10
6.89664
20
-5.18179
11
6.90777
21
-5.17278
0
LINE
8
BLACK
6
CONTINUOUS
10
6.90777
20
-5.17278
11
6.91978
21
-5.16498
0
LINE
8
BLACK
6
CONTINUOUS
10
6.91978
20
-5.16498
11
6.93254
21
-5.15848
0
LINE
8
BLACK
6
CONTINUOUS
10
6.93254
20
-5.15848
11
6.94591
21
-5.15335
0
LINE
8
BLACK
6
CONTINUOUS
10
6.94591
20
-5.15335
11
6.95974
21
-5.14964
0
LINE
8
BLACK
6
CONTINUOUS
10
6.95974
20
-5.14964
11
6.97389
21
-5.1474
0
LINE
8
BLACK
6
CONTINUOUS
10
6.97389
20
-5.1474
11
6.98819
21
-5.14665
0
LINE
8
BLACK
6
CONTINUOUS
10
6.98819
20
-5.14665
11
7.00249
21
-5.1474
0
LINE
8
BLACK
6
CONTINUOUS
10
7.00249
20
-5.1474
11
7.01663
21
-5.14964
0
LINE
8
BLACK
6
CONTINUOUS
10
7.01663
20
-5.14964
11
7.03047
21
-5.15335
0
LINE
8
BLACK
6
CONTINUOUS
10
7.03047
20
-5.15335
11
7.04384
21
-5.15848
0
LINE
8
BLACK
6
CONTINUOUS
10
7.04384
20
-5.15848
11
7.05659
21
-5.16498
0
LINE
8
BLACK
6
CONTINUOUS
10
7.05659
20
-5.16498
11
7.0686
21
-5.17278
0
LINE
8
BLACK
6
CONTINUOUS
10
7.0686
20
-5.17278
11
7.07973
21
-5.18179
0
LINE
8
BLACK
6
CONTINUOUS
10
7.07973
20
-5.18179
11
7.08986
21
-5.19192
0
LINE
8
BLACK
6
CONTINUOUS
10
7.08986
20
-5.19192
11
7.09887
21
-5.20305
0
LINE
8
BLACK
6
CONTINUOUS
10
7.09887
20
-5.20305
11
7.10667
21
-5.21506
0
LINE
8
BLACK
6
CONTINUOUS
10
7.10667
20
-5.21506
11
7.11317
21
-5.22782
0
LINE
8
BLACK
6
CONTINUOUS
10
7.11317
20
-5.22782
11
7.1183
21
-5.24119
0
LINE
8
BLACK
6
CONTINUOUS
10
7.1183
20
-5.24119
11
7.12201
21
-5.25502
0
LINE
8
BLACK
6
CONTINUOUS
10
7.12201
20
-5.25502
11
7.12425
21
-5.26916
0
LINE
8
BLACK
6
CONTINUOUS
10
7.12425
20
-5.26916
11
7.125
21
-5.28346
0
LINE
8
BLACK
6
CONTINUOUS
10
7.125
20
-5.28346
11
7.12425
21
-5.29777
0
LINE
8
BLACK
6
CONTINUOUS
10
7.12425
20
-5.29777
11
7.12201
21
-5.31191
0
LINE
8
BLACK
6
CONTINUOUS
10
7.12201
20
-5.31191
11
7.1183
21
-5.32574
0
LINE
8
BLACK
6
CONTINUOUS
10
7.1183
20
-5.32574
11
7.11317
21
-5.33911
0
LINE
8
BLACK
6
CONTINUOUS
10
7.11317
20
-5.33911
11
7.10667
21
-5.35187
0
LINE
8
BLACK
6
CONTINUOUS
10
7.10667
20
-5.35187
11
7.09887
21
-5.36388
0
LINE
8
BLACK
6
CONTINUOUS
10
7.09887
20
-5.36388
11
7.08986
21
-5.37501
0
LINE
8
BLACK
6
CONTINUOUS
10
7.08986
20
-5.37501
11
7.07973
21
-5.38513
0
LINE
8
BLACK
6
CONTINUOUS
10
7.07973
20
-5.38513
11
7.0686
21
-5.39415
0
LINE
8
BLACK
6
CONTINUOUS
10
7.0686
20
-5.39415
11
7.05659
21
-5.40195
0
LINE
8
BLACK
6
CONTINUOUS
10
7.05659
20
-5.40195
11
7.04384
21
-5.40845
0
LINE
8
BLACK
6
CONTINUOUS
10
7.04384
20
-5.40845
11
7.03047
21
-5.41358
0
LINE
8
BLACK
6
CONTINUOUS
10
7.03047
20
-5.41358
11
7.01663
21
-5.41729
0
LINE
8
BLACK
6
CONTINUOUS
10
7.01663
20
-5.41729
11
7.00249
21
-5.41953
0
LINE
8
BLACK
6
CONTINUOUS
10
7.00249
20
-5.41953
11
6.98819
21
-5.42028
0
LINE
8
BLACK
6
CONTINUOUS
10
6.98819
20
-5.42028
11
6.97389
21
-5.41953
0
LINE
8
BLACK
6
CONTINUOUS
10
6.97389
20
-5.41953
11
6.95974
21
-5.41729
0
LINE
8
BLACK
6
CONTINUOUS
10
6.95974
20
-5.41729
11
6.94591
21
-5.41358
0
LINE
8
BLACK
6
CONTINUOUS
10
6.94591
20
-5.41358
11
6.93254
21
-5.40845
0
LINE
8
BLACK
6
CONTINUOUS
10
6.93254
20
-5.40845
11
6.91978
21
-5.40195
0
LINE
8
BLACK
6
CONTINUOUS
10
6.91978
20
-5.40195
11
6.90777
21
-5.39415
0
LINE
8
BLACK
6
CONTINUOUS
10
6.90777
20
-5.39415
11
6.89664
21
-5.38513
0
LINE
8
BLACK
6
CONTINUOUS
10
6.89664
20
-5.38513
11
6.88652
21
-5.37501
0
LINE
8
BLACK
6
CONTINUOUS
10
6.88652
20
-5.37501
11
6.87751
21
-5.36388
0
LINE
8
BLACK
6
CONTINUOUS
10
6.87751
20
-5.36388
11
6.86971
21
-5.35187
0
LINE
8
BLACK
6
CONTINUOUS
10
6.86971
20
-5.35187
11
6.86321
21
-5.33911
0
LINE
8
BLACK
6
CONTINUOUS
10
6.86321
20
-5.33911
11
6.85807
21
-5.32574
0
LINE
8
BLACK
6
CONTINUOUS
10
6.85807
20
-5.32574
11
6.85437
21
-5.31191
0
LINE
8
BLACK
6
CONTINUOUS
10
6.85437
20
-5.31191
11
6.85213
21
-5.29777
0
LINE
8
BLACK
6
CONTINUOUS
10
6.85213
20
-5.29777
11
6.85138
21
-5.28346
0
LINE
8
BLACK
6
CONTINUOUS
10
6.85138
20
-5.28346
11
6.8514
21
-5.28299
0
LINE
8
BLACK
6
CONTINUOUS
10
6.8514
20
-5.28299
11
6.85213
21
-5.26916
0
LINE
8
BLACK
6
CONTINUOUS
10
6.85213
20
-5.26916
11
6.85437
21
-5.25502
0
LINE
8
BLACK
6
CONTINUOUS
10
6.8562
20
-5.312
11
6.86005
21
-5.32609
0
LINE
8
BLACK
6
CONTINUOUS
10
6.86005
20
-5.32609
11
6.86541
21
-5.33968
0
LINE
8
BLACK
6
CONTINUOUS
10
6.86541
20
-5.33968
11
6.87219
21
-5.35261
0
LINE
8
BLACK
6
CONTINUOUS
10
6.87219
20
-5.35261
11
6.88034
21
-5.36473
0
LINE
8
BLACK
6
CONTINUOUS
10
6.88034
20
-5.36473
11
6.88975
21
-5.37591
0
LINE
8
BLACK
6
CONTINUOUS
10
6.88975
20
-5.37591
11
6.90031
21
-5.386
0
LINE
8
BLACK
6
CONTINUOUS
10
6.90031
20
-5.386
11
6.9119
21
-5.39489
0
LINE
8
BLACK
6
CONTINUOUS
10
6.9119
20
-5.39489
11
6.92438
21
-5.40248
0
LINE
8
BLACK
6
CONTINUOUS
10
6.92438
20
-5.40248
11
6.9376
21
-5.40867
0
LINE
8
BLACK
6
CONTINUOUS
10
6.9376
20
-5.40867
11
6.95142
21
-5.4134
0
LINE
8
BLACK
6
CONTINUOUS
10
6.95142
20
-5.4134
11
6.96567
21
-5.41661
0
LINE
8
BLACK
6
CONTINUOUS
10
6.96567
20
-5.41661
11
6.98018
21
-5.41827
0
LINE
8
BLACK
6
CONTINUOUS
10
6.98018
20
-5.41827
11
6.99479
21
-5.41834
0
LINE
8
BLACK
6
CONTINUOUS
10
6.99479
20
-5.41834
11
7.00931
21
-5.41684
0
LINE
8
BLACK
6
CONTINUOUS
10
7.00931
20
-5.41684
11
7.0236
21
-5.41378
0
LINE
8
BLACK
6
CONTINUOUS
10
7.0236
20
-5.41378
11
7.03746
21
-5.40919
0
LINE
8
BLACK
6
CONTINUOUS
10
7.03746
20
-5.40919
11
7.05075
21
-5.40314
0
LINE
8
BLACK
6
CONTINUOUS
10
7.05075
20
-5.40314
11
7.06331
21
-5.39568
0
LINE
8
BLACK
6
CONTINUOUS
10
7.06331
20
-5.39568
11
7.07499
21
-5.38691
0
LINE
8
BLACK
6
CONTINUOUS
10
7.07499
20
-5.38691
11
7.08566
21
-5.37693
0
LINE
8
BLACK
6
CONTINUOUS
10
7.08566
20
-5.37693
11
7.09518
21
-5.36586
0
LINE
8
BLACK
6
CONTINUOUS
10
7.09518
20
-5.36586
11
7.10345
21
-5.35382
0
LINE
8
BLACK
6
CONTINUOUS
10
7.10345
20
-5.35382
11
7.11038
21
-5.34096
0
LINE
8
BLACK
6
CONTINUOUS
10
7.11038
20
-5.34096
11
7.11587
21
-5.32743
0
LINE
8
BLACK
6
CONTINUOUS
10
7.11587
20
-5.32743
11
7.11987
21
-5.31338
0
LINE
8
BLACK
6
CONTINUOUS
10
7.11987
20
-5.31338
11
7.12233
21
-5.29899
0
LINE
8
BLACK
6
CONTINUOUS
10
7.12233
20
-5.29899
11
7.12323
21
-5.28441
0
LINE
8
BLACK
6
CONTINUOUS
10
7.12323
20
-5.28441
11
7.12323
21
-5.28346
0
LINE
8
BLACK
6
CONTINUOUS
10
7.12323
20
-5.28346
11
7.12244
21
-5.26888
0
LINE
8
BLACK
6
CONTINUOUS
10
7.12244
20
-5.26888
11
7.12008
21
-5.25447
0
LINE
8
BLACK
6
CONTINUOUS
10
7.12008
20
-5.25447
11
7.11618
21
-5.24039
0
LINE
8
BLACK
6
CONTINUOUS
10
7.11618
20
-5.24039
11
7.11078
21
-5.22682
0
LINE
8
BLACK
6
CONTINUOUS
10
7.11078
20
-5.22682
11
7.10394
21
-5.21391
0
LINE
8
BLACK
6
CONTINUOUS
10
7.10394
20
-5.21391
11
7.09575
21
-5.20182
0
LINE
8
BLACK
6
CONTINUOUS
10
7.09575
20
-5.20182
11
7.08631
21
-5.19068
0
LINE
8
BLACK
6
CONTINUOUS
10
7.08631
20
-5.19068
11
7.07571
21
-5.18063
0
LINE
8
BLACK
6
CONTINUOUS
10
7.07571
20
-5.18063
11
7.06409
21
-5.17178
0
LINE
8
BLACK
6
CONTINUOUS
10
7.06409
20
-5.17178
11
7.05159
21
-5.16423
0
LINE
8
BLACK
6
CONTINUOUS
10
7.05159
20
-5.16423
11
7.03834
21
-5.15808
0
LINE
8
BLACK
6
CONTINUOUS
10
7.03834
20
-5.15808
11
7.0245
21
-5.1534
0
LINE
8
BLACK
6
CONTINUOUS
10
7.0245
20
-5.1534
11
7.01024
21
-5.15024
0
LINE
8
BLACK
6
CONTINUOUS
10
7.01024
20
-5.15024
11
6.99573
21
-5.14863
0
LINE
8
BLACK
6
CONTINUOUS
10
6.99573
20
-5.14863
11
6.98112
21
-5.14861
0
LINE
8
BLACK
6
CONTINUOUS
10
6.98112
20
-5.14861
11
6.9666
21
-5.15016
0
LINE
8
BLACK
6
CONTINUOUS
10
6.9666
20
-5.15016
11
6.95233
21
-5.15327
0
LINE
8
BLACK
6
CONTINUOUS
10
6.95233
20
-5.15327
11
6.93848
21
-5.15791
0
LINE
8
BLACK
6
CONTINUOUS
10
6.93848
20
-5.15791
11
6.92521
21
-5.16401
0
LINE
8
BLACK
6
CONTINUOUS
10
6.92521
20
-5.16401
11
6.91268
21
-5.17151
0
LINE
8
BLACK
6
CONTINUOUS
10
6.91268
20
-5.17151
11
6.90103
21
-5.18032
0
LINE
8
BLACK
6
CONTINUOUS
10
6.90103
20
-5.18032
11
6.8904
21
-5.19034
0
LINE
8
BLACK
6
CONTINUOUS
10
6.8904
20
-5.19034
11
6.88091
21
-5.20144
0
LINE
8
BLACK
6
CONTINUOUS
10
6.88091
20
-5.20144
11
6.87268
21
-5.21351
0
LINE
8
BLACK
6
CONTINUOUS
10
6.87268
20
-5.21351
11
6.8658
21
-5.22639
0
LINE
8
BLACK
6
CONTINUOUS
10
6.8658
20
-5.22639
11
6.86035
21
-5.23995
0
LINE
8
BLACK
6
CONTINUOUS
10
6.86035
20
-5.23995
11
6.8564
21
-5.25401
0
LINE
8
BLACK
6
CONTINUOUS
10
6.8564
20
-5.25401
11
6.85399
21
-5.26841
0
LINE
8
BLACK
6
CONTINUOUS
10
6.85399
20
-5.26841
11
6.85315
21
-5.28299
0
LINE
8
BLACK
6
CONTINUOUS
10
6.85315
20
-5.28299
11
6.85389
21
-5.29758
0
LINE
8
BLACK
6
CONTINUOUS
10
6.85389
20
-5.29758
11
6.8562
21
-5.312
0
LINE
8
BLACK
6
CONTINUOUS
10
3.64571
20
-2.73533
11
3.64941
21
-2.7215
0
LINE
8
BLACK
6
CONTINUOUS
10
3.64941
20
-2.7215
11
3.65454
21
-2.70813
0
LINE
8
BLACK
6
CONTINUOUS
10
3.65454
20
-2.70813
11
3.66105
21
-2.69537
0
LINE
8
BLACK
6
CONTINUOUS
10
3.66105
20
-2.69537
11
3.66885
21
-2.68336
0
LINE
8
BLACK
6
CONTINUOUS
10
3.66885
20
-2.68336
11
3.67786
21
-2.67224
0
LINE
8
BLACK
6
CONTINUOUS
10
3.67786
20
-2.67224
11
3.68798
21
-2.66211
0
LINE
8
BLACK
6
CONTINUOUS
10
3.68798
20
-2.66211
11
3.69911
21
-2.6531
0
LINE
8
BLACK
6
CONTINUOUS
10
3.69911
20
-2.6531
11
3.71112
21
-2.6453
0
LINE
8
BLACK
6
CONTINUOUS
10
3.71112
20
-2.6453
11
3.72388
21
-2.6388
0
LINE
8
BLACK
6
CONTINUOUS
10
3.72388
20
-2.6388
11
3.73725
21
-2.63366
0
LINE
8
BLACK
6
CONTINUOUS
10
3.73725
20
-2.63366
11
3.75108
21
-2.62996
0
LINE
8
BLACK
6
CONTINUOUS
10
3.75108
20
-2.62996
11
3.76523
21
-2.62772
0
LINE
8
BLACK
6
CONTINUOUS
10
3.76523
20
-2.62772
11
3.77953
21
-2.62697
0
LINE
8
BLACK
6
CONTINUOUS
10
3.77953
20
-2.62697
11
3.79383
21
-2.62772
0
LINE
8
BLACK
6
CONTINUOUS
10
3.79383
20
-2.62772
11
3.80797
21
-2.62996
0
LINE
8
BLACK
6
CONTINUOUS
10
3.80797
20
-2.62996
11
3.8218
21
-2.63366
0
LINE
8
BLACK
6
CONTINUOUS
10
3.8218
20
-2.63366
11
3.83517
21
-2.6388
0
LINE
8
BLACK
6
CONTINUOUS
10
3.83517
20
-2.6388
11
3.84793
21
-2.6453
0
LINE
8
BLACK
6
CONTINUOUS
10
3.84793
20
-2.6453
11
3.85994
21
-2.6531
0
LINE
8
BLACK
6
CONTINUOUS
10
3.85994
20
-2.6531
11
3.87107
21
-2.66211
0
LINE
8
BLACK
6
CONTINUOUS
10
3.87107
20
-2.66211
11
3.8812
21
-2.67224
0
LINE
8
BLACK
6
CONTINUOUS
10
3.8812
20
-2.67224
11
3.89021
21
-2.68336
0
LINE
8
BLACK
6
CONTINUOUS
10
3.89021
20
-2.68336
11
3.89801
21
-2.69537
0
LINE
8
BLACK
6
CONTINUOUS
10
3.89801
20
-2.69537
11
3.90451
21
-2.70813
0
LINE
8
BLACK
6
CONTINUOUS
10
3.90451
20
-2.70813
11
3.90964
21
-2.7215
0
LINE
8
BLACK
6
CONTINUOUS
10
3.90964
20
-2.7215
11
3.91335
21
-2.73533
0
LINE
8
BLACK
6
CONTINUOUS
10
3.91335
20
-2.73533
11
3.91559
21
-2.74948
0
LINE
8
BLACK
6
CONTINUOUS
10
3.91559
20
-2.74948
11
3.91634
21
-2.76378
0
LINE
8
BLACK
6
CONTINUOUS
10
3.91634
20
-2.76378
11
3.91559
21
-2.77808
0
LINE
8
BLACK
6
CONTINUOUS
10
3.91559
20
-2.77808
11
3.91335
21
-2.79222
0
LINE
8
BLACK
6
CONTINUOUS
10
3.91335
20
-2.79222
11
3.90964
21
-2.80606
0
LINE
8
BLACK
6
CONTINUOUS
10
3.90964
20
-2.80606
11
3.90451
21
-2.81943
0
LINE
8
BLACK
6
CONTINUOUS
10
3.90451
20
-2.81943
11
3.89801
21
-2.83219
0
LINE
8
BLACK
6
CONTINUOUS
10
3.89801
20
-2.83219
11
3.89021
21
-2.8442
0
LINE
8
BLACK
6
CONTINUOUS
10
3.89021
20
-2.8442
11
3.8812
21
-2.85532
0
LINE
8
BLACK
6
CONTINUOUS
10
3.8812
20
-2.85532
11
3.87107
21
-2.86545
0
LINE
8
BLACK
6
CONTINUOUS
10
3.87107
20
-2.86545
11
3.85994
21
-2.87446
0
LINE
8
BLACK
6
CONTINUOUS
10
3.85994
20
-2.87446
11
3.84793
21
-2.88226
0
LINE
8
BLACK
6
CONTINUOUS
10
3.84793
20
-2.88226
11
3.83517
21
-2.88876
0
LINE
8
BLACK
6
CONTINUOUS
10
3.83517
20
-2.88876
11
3.8218
21
-2.89389
0
LINE
8
BLACK
6
CONTINUOUS
10
3.8218
20
-2.89389
11
3.80797
21
-2.8976
0
LINE
8
BLACK
6
CONTINUOUS
10
3.80797
20
-2.8976
11
3.79383
21
-2.89984
0
LINE
8
BLACK
6
CONTINUOUS
10
3.79383
20
-2.89984
11
3.77953
21
-2.90059
0
LINE
8
BLACK
6
CONTINUOUS
10
3.77953
20
-2.90059
11
3.76523
21
-2.89984
0
LINE
8
BLACK
6
CONTINUOUS
10
3.76523
20
-2.89984
11
3.75108
21
-2.8976
0
LINE
8
BLACK
6
CONTINUOUS
10
3.75108
20
-2.8976
11
3.73725
21
-2.89389
0
LINE
8
BLACK
6
CONTINUOUS
10
3.73725
20
-2.89389
11
3.72388
21
-2.88876
0
LINE
8
BLACK
6
CONTINUOUS
10
3.72388
20
-2.88876
11
3.71112
21
-2.88226
0
LINE
8
BLACK
6
CONTINUOUS
10
3.71112
20
-2.88226
11
3.69911
21
-2.87446
0
LINE
8
BLACK
6
CONTINUOUS
10
3.69911
20
-2.87446
11
3.68798
21
-2.86545
0
LINE
8
BLACK
6
CONTINUOUS
10
3.68798
20
-2.86545
11
3.67786
21
-2.85532
0
LINE
8
BLACK
6
CONTINUOUS
10
3.67786
20
-2.85532
11
3.66885
21
-2.8442
0
LINE
8
BLACK
6
CONTINUOUS
10
3.66885
20
-2.8442
11
3.66105
21
-2.83219
0
LINE
8
BLACK
6
CONTINUOUS
10
3.66105
20
-2.83219
11
3.65454
21
-2.81943
0
LINE
8
BLACK
6
CONTINUOUS
10
3.65454
20
-2.81943
11
3.64941
21
-2.80606
0
LINE
8
BLACK
6
CONTINUOUS
10
3.64941
20
-2.80606
11
3.64571
21
-2.79222
0
LINE
8
BLACK
6
CONTINUOUS
10
3.64571
20
-2.79222
11
3.64347
21
-2.77808
0
LINE
8
BLACK
6
CONTINUOUS
10
3.64347
20
-2.77808
11
3.64272
21
-2.76378
0
LINE
8
BLACK
6
CONTINUOUS
10
3.64272
20
-2.76378
11
3.64274
21
-2.76331
0
LINE
8
BLACK
6
CONTINUOUS
10
3.64274
20
-2.76331
11
3.64347
21
-2.74948
0
LINE
8
BLACK
6
CONTINUOUS
10
3.64347
20
-2.74948
11
3.64571
21
-2.73533
0
LINE
8
BLACK
6
CONTINUOUS
10
3.64754
20
-2.79232
11
3.65139
21
-2.8064
0
LINE
8
BLACK
6
CONTINUOUS
10
3.65139
20
-2.8064
11
3.65674
21
-2.81999
0
LINE
8
BLACK
6
CONTINUOUS
10
3.65674
20
-2.81999
11
3.66353
21
-2.83293
0
LINE
8
BLACK
6
CONTINUOUS
10
3.66353
20
-2.83293
11
3.67168
21
-2.84505
0
LINE
8
BLACK
6
CONTINUOUS
10
3.67168
20
-2.84505
11
3.68109
21
-2.85622
0
LINE
8
BLACK
6
CONTINUOUS
10
3.68109
20
-2.85622
11
3.69165
21
-2.86631
0
LINE
8
BLACK
6
CONTINUOUS
10
3.69165
20
-2.86631
11
3.70323
21
-2.8752
0
LINE
8
BLACK
6
CONTINUOUS
10
3.70323
20
-2.8752
11
3.71571
21
-2.88279
0
LINE
8
BLACK
6
CONTINUOUS
10
3.71571
20
-2.88279
11
3.72894
21
-2.88899
0
LINE
8
BLACK
6
CONTINUOUS
10
3.72894
20
-2.88899
11
3.74276
21
-2.89372
0
LINE
8
BLACK
6
CONTINUOUS
10
3.74276
20
-2.89372
11
3.75701
21
-2.89693
0
LINE
8
BLACK
6
CONTINUOUS
10
3.75701
20
-2.89693
11
3.77152
21
-2.89858
0
LINE
8
BLACK
6
CONTINUOUS
10
3.77152
20
-2.89858
11
3.78612
21
-2.89866
0
LINE
8
BLACK
6
CONTINUOUS
10
3.78612
20
-2.89866
11
3.80065
21
-2.89716
0
LINE
8
BLACK
6
CONTINUOUS
10
3.80065
20
-2.89716
11
3.81493
21
-2.8941
0
LINE
8
BLACK
6
CONTINUOUS
10
3.81493
20
-2.8941
11
3.8288
21
-2.88951
0
LINE
8
BLACK
6
CONTINUOUS
10
3.8288
20
-2.88951
11
3.84209
21
-2.88345
0
LINE
8
BLACK
6
CONTINUOUS
10
3.84209
20
-2.88345
11
3.85465
21
-2.876
0
LINE
8
BLACK
6
CONTINUOUS
10
3.85465
20
-2.876
11
3.86633
21
-2.86723
0
LINE
8
BLACK
6
CONTINUOUS
10
3.86633
20
-2.86723
11
3.87699
21
-2.85725
0
LINE
8
BLACK
6
CONTINUOUS
10
3.87699
20
-2.85725
11
3.88652
21
-2.84617
0
LINE
8
BLACK
6
CONTINUOUS
10
3.88652
20
-2.84617
11
3.89479
21
-2.83414
0
LINE
8
BLACK
6
CONTINUOUS
10
3.89479
20
-2.83414
11
3.90172
21
-2.82128
0
LINE
8
BLACK
6
CONTINUOUS
10
3.90172
20
-2.82128
11
3.90721
21
-2.80774
0
LINE
8
BLACK
6
CONTINUOUS
10
3.90721
20
-2.80774
11
3.91121
21
-2.7937
0
LINE
8
BLACK
6
CONTINUOUS
10
3.91121
20
-2.7937
11
3.91367
21
-2.7793
0
LINE
8
BLACK
6
CONTINUOUS
10
3.91367
20
-2.7793
11
3.91456
21
-2.76472
0
LINE
8
BLACK
6
CONTINUOUS
10
3.91456
20
-2.76472
11
3.91457
21
-2.76378
0
LINE
8
BLACK
6
CONTINUOUS
10
3.91457
20
-2.76378
11
3.91378
21
-2.7492
0
LINE
8
BLACK
6
CONTINUOUS
10
3.91378
20
-2.7492
11
3.91142
21
-2.73478
0
LINE
8
BLACK
6
CONTINUOUS
10
3.91142
20
-2.73478
11
3.90751
21
-2.72071
0
LINE
8
BLACK
6
CONTINUOUS
10
3.90751
20
-2.72071
11
3.90211
21
-2.70714
0
LINE
8
BLACK
6
CONTINUOUS
10
3.90211
20
-2.70714
11
3.89528
21
-2.69423
0
LINE
8
BLACK
6
CONTINUOUS
10
3.89528
20
-2.69423
11
3.88709
21
-2.68213
0
LINE
8
BLACK
6
CONTINUOUS
10
3.88709
20
-2.68213
11
3.87764
21
-2.67099
0
LINE
8
BLACK
6
CONTINUOUS
10
3.87764
20
-2.67099
11
3.86705
21
-2.66094
0
LINE
8
BLACK
6
CONTINUOUS
10
3.86705
20
-2.66094
11
3.85543
21
-2.65209
0
LINE
8
BLACK
6
CONTINUOUS
10
3.85543
20
-2.65209
11
3.84293
21
-2.64455
0
LINE
8
BLACK
6
CONTINUOUS
10
3.84293
20
-2.64455
11
3.82968
21
-2.6384
0
LINE
8
BLACK
6
CONTINUOUS
10
3.82968
20
-2.6384
11
3.81584
21
-2.63371
0
LINE
8
BLACK
6
CONTINUOUS
10
3.81584
20
-2.63371
11
3.80158
21
-2.63055
0
LINE
8
BLACK
6
CONTINUOUS
10
3.80158
20
-2.63055
11
3.78707
21
-2.62895
0
LINE
8
BLACK
6
CONTINUOUS
10
3.78707
20
-2.62895
11
3.77246
21
-2.62892
0
LINE
8
BLACK
6
CONTINUOUS
10
3.77246
20
-2.62892
11
3.75794
21
-2.63048
0
LINE
8
BLACK
6
CONTINUOUS
10
3.75794
20
-2.63048
11
3.74367
21
-2.63359
0
LINE
8
BLACK
6
CONTINUOUS
10
3.74367
20
-2.63359
11
3.72982
21
-2.63822
0
LINE
8
BLACK
6
CONTINUOUS
10
3.72982
20
-2.63822
11
3.71655
21
-2.64433
0
LINE
8
BLACK
6
CONTINUOUS
10
3.71655
20
-2.64433
11
3.70401
21
-2.65183
0
LINE
8
BLACK
6
CONTINUOUS
10
3.70401
20
-2.65183
11
3.69236
21
-2.66064
0
LINE
8
BLACK
6
CONTINUOUS
10
3.69236
20
-2.66064
11
3.68173
21
-2.67065
0
LINE
8
BLACK
6
CONTINUOUS
10
3.68173
20
-2.67065
11
3.67225
21
-2.68176
0
LINE
8
BLACK
6
CONTINUOUS
10
3.67225
20
-2.68176
11
3.66402
21
-2.69382
0
LINE
8
BLACK
6
CONTINUOUS
10
3.66402
20
-2.69382
11
3.65714
21
-2.70671
0
LINE
8
BLACK
6
CONTINUOUS
10
3.65714
20
-2.70671
11
3.65169
21
-2.72026
0
LINE
8
BLACK
6
CONTINUOUS
10
3.65169
20
-2.72026
11
3.64774
21
-2.73432
0
LINE
8
BLACK
6
CONTINUOUS
10
3.64774
20
-2.73432
11
3.64533
21
-2.74873
0
LINE
8
BLACK
6
CONTINUOUS
10
3.64533
20
-2.74873
11
3.64449
21
-2.76331
0
LINE
8
BLACK
6
CONTINUOUS
10
3.64449
20
-2.76331
11
3.64523
21
-2.7779
0
LINE
8
BLACK
6
CONTINUOUS
10
3.64523
20
-2.7779
11
3.64754
21
-2.79232
  0
ENDSEC
  0
EOF
