%TF.GenerationSoftware,KiCad,Pcbnew,8.0.3*%
%TF.CreationDate,2024-06-28T19:00:12+02:00*%
%TF.ProjectId,GB-Dumper,47422d44-756d-4706-9572-2e6b69636164,0.83*%
%TF.SameCoordinates,PXafee930PY945b7e0*%
%TF.FileFunction,Paste,Top*%
%TF.FilePolarity,Positive*%
%FSLAX46Y46*%
G04 Gerber Fmt 4.6, Leading zero omitted, Abs format (unit mm)*
G04 Created by KiCad (PCBNEW 8.0.3) date 2024-06-28 19:00:12*
%MOMM*%
%LPD*%
G01*
G04 APERTURE LIST*
%ADD10C,0.100000*%
%ADD11C,0.150000*%
%ADD12C,0.300000*%
%ADD13C,0.400000*%
%ADD14R,2.400000X1.000000*%
%ADD15R,3.000000X6.000000*%
%TA.AperFunction,Profile*%
%ADD16C,0.150000*%
%TD*%
G04 APERTURE END LIST*
D10*
D11*
X-7475800Y-10443200D02*
X100524200Y-10443200D01*
X100524200Y-42443200D01*
X-7475800Y-42443200D01*
X-7475800Y-10443200D01*
D10*
D11*
X-174478000Y145564000D02*
X102524200Y145564000D01*
X102524200Y-44443200D01*
X-174478000Y-44443200D01*
X-174478000Y145564000D01*
D10*
D11*
X-172478000Y143564000D02*
X100524200Y143564000D01*
X100524200Y-42443200D01*
X-172478000Y-42443200D01*
X-172478000Y143564000D01*
D10*
D11*
X-124478000Y143564000D02*
X-124478000Y145564000D01*
D10*
D11*
X-74478000Y143564000D02*
X-74478000Y145564000D01*
D10*
D11*
X-24478000Y143564000D02*
X-24478000Y145564000D01*
D10*
D11*
X25522000Y143564000D02*
X25522000Y145564000D01*
D10*
D11*
X75522000Y143564000D02*
X75522000Y145564000D01*
D10*
D11*
X-148388840Y143970396D02*
X-149131697Y143970396D01*
X-148760269Y143970396D02*
X-148760269Y145270396D01*
X-148760269Y145270396D02*
X-148884078Y145084681D01*
X-148884078Y145084681D02*
X-149007888Y144960872D01*
X-149007888Y144960872D02*
X-149131697Y144898967D01*
D10*
D11*
X-99131697Y145146586D02*
X-99069793Y145208491D01*
X-99069793Y145208491D02*
X-98945983Y145270396D01*
X-98945983Y145270396D02*
X-98636459Y145270396D01*
X-98636459Y145270396D02*
X-98512650Y145208491D01*
X-98512650Y145208491D02*
X-98450745Y145146586D01*
X-98450745Y145146586D02*
X-98388840Y145022777D01*
X-98388840Y145022777D02*
X-98388840Y144898967D01*
X-98388840Y144898967D02*
X-98450745Y144713253D01*
X-98450745Y144713253D02*
X-99193602Y143970396D01*
X-99193602Y143970396D02*
X-98388840Y143970396D01*
D10*
D11*
X-49193602Y145270396D02*
X-48388840Y145270396D01*
X-48388840Y145270396D02*
X-48822174Y144775158D01*
X-48822174Y144775158D02*
X-48636459Y144775158D01*
X-48636459Y144775158D02*
X-48512650Y144713253D01*
X-48512650Y144713253D02*
X-48450745Y144651348D01*
X-48450745Y144651348D02*
X-48388840Y144527539D01*
X-48388840Y144527539D02*
X-48388840Y144218015D01*
X-48388840Y144218015D02*
X-48450745Y144094205D01*
X-48450745Y144094205D02*
X-48512650Y144032300D01*
X-48512650Y144032300D02*
X-48636459Y143970396D01*
X-48636459Y143970396D02*
X-49007888Y143970396D01*
X-49007888Y143970396D02*
X-49131697Y144032300D01*
X-49131697Y144032300D02*
X-49193602Y144094205D01*
D10*
D11*
X1487350Y144837062D02*
X1487350Y143970396D01*
X1177826Y145332300D02*
X868303Y144403729D01*
X868303Y144403729D02*
X1673064Y144403729D01*
D10*
D11*
X51549255Y145270396D02*
X50930207Y145270396D01*
X50930207Y145270396D02*
X50868303Y144651348D01*
X50868303Y144651348D02*
X50930207Y144713253D01*
X50930207Y144713253D02*
X51054017Y144775158D01*
X51054017Y144775158D02*
X51363541Y144775158D01*
X51363541Y144775158D02*
X51487350Y144713253D01*
X51487350Y144713253D02*
X51549255Y144651348D01*
X51549255Y144651348D02*
X51611160Y144527539D01*
X51611160Y144527539D02*
X51611160Y144218015D01*
X51611160Y144218015D02*
X51549255Y144094205D01*
X51549255Y144094205D02*
X51487350Y144032300D01*
X51487350Y144032300D02*
X51363541Y143970396D01*
X51363541Y143970396D02*
X51054017Y143970396D01*
X51054017Y143970396D02*
X50930207Y144032300D01*
X50930207Y144032300D02*
X50868303Y144094205D01*
D10*
D11*
X101487350Y145270396D02*
X101239731Y145270396D01*
X101239731Y145270396D02*
X101115922Y145208491D01*
X101115922Y145208491D02*
X101054017Y145146586D01*
X101054017Y145146586D02*
X100930207Y144960872D01*
X100930207Y144960872D02*
X100868303Y144713253D01*
X100868303Y144713253D02*
X100868303Y144218015D01*
X100868303Y144218015D02*
X100930207Y144094205D01*
X100930207Y144094205D02*
X100992112Y144032300D01*
X100992112Y144032300D02*
X101115922Y143970396D01*
X101115922Y143970396D02*
X101363541Y143970396D01*
X101363541Y143970396D02*
X101487350Y144032300D01*
X101487350Y144032300D02*
X101549255Y144094205D01*
X101549255Y144094205D02*
X101611160Y144218015D01*
X101611160Y144218015D02*
X101611160Y144527539D01*
X101611160Y144527539D02*
X101549255Y144651348D01*
X101549255Y144651348D02*
X101487350Y144713253D01*
X101487350Y144713253D02*
X101363541Y144775158D01*
X101363541Y144775158D02*
X101115922Y144775158D01*
X101115922Y144775158D02*
X100992112Y144713253D01*
X100992112Y144713253D02*
X100930207Y144651348D01*
X100930207Y144651348D02*
X100868303Y144527539D01*
D10*
D11*
X-124478000Y-42443200D02*
X-124478000Y-44443200D01*
D10*
D11*
X-74478000Y-42443200D02*
X-74478000Y-44443200D01*
D10*
D11*
X-24478000Y-42443200D02*
X-24478000Y-44443200D01*
D10*
D11*
X25522000Y-42443200D02*
X25522000Y-44443200D01*
D10*
D11*
X75522000Y-42443200D02*
X75522000Y-44443200D01*
D10*
D11*
X-148388840Y-44036804D02*
X-149131697Y-44036804D01*
X-148760269Y-44036804D02*
X-148760269Y-42736804D01*
X-148760269Y-42736804D02*
X-148884078Y-42922519D01*
X-148884078Y-42922519D02*
X-149007888Y-43046328D01*
X-149007888Y-43046328D02*
X-149131697Y-43108233D01*
D10*
D11*
X-99131697Y-42860614D02*
X-99069793Y-42798709D01*
X-99069793Y-42798709D02*
X-98945983Y-42736804D01*
X-98945983Y-42736804D02*
X-98636459Y-42736804D01*
X-98636459Y-42736804D02*
X-98512650Y-42798709D01*
X-98512650Y-42798709D02*
X-98450745Y-42860614D01*
X-98450745Y-42860614D02*
X-98388840Y-42984423D01*
X-98388840Y-42984423D02*
X-98388840Y-43108233D01*
X-98388840Y-43108233D02*
X-98450745Y-43293947D01*
X-98450745Y-43293947D02*
X-99193602Y-44036804D01*
X-99193602Y-44036804D02*
X-98388840Y-44036804D01*
D10*
D11*
X-49193602Y-42736804D02*
X-48388840Y-42736804D01*
X-48388840Y-42736804D02*
X-48822174Y-43232042D01*
X-48822174Y-43232042D02*
X-48636459Y-43232042D01*
X-48636459Y-43232042D02*
X-48512650Y-43293947D01*
X-48512650Y-43293947D02*
X-48450745Y-43355852D01*
X-48450745Y-43355852D02*
X-48388840Y-43479661D01*
X-48388840Y-43479661D02*
X-48388840Y-43789185D01*
X-48388840Y-43789185D02*
X-48450745Y-43912995D01*
X-48450745Y-43912995D02*
X-48512650Y-43974900D01*
X-48512650Y-43974900D02*
X-48636459Y-44036804D01*
X-48636459Y-44036804D02*
X-49007888Y-44036804D01*
X-49007888Y-44036804D02*
X-49131697Y-43974900D01*
X-49131697Y-43974900D02*
X-49193602Y-43912995D01*
D10*
D11*
X1487350Y-43170138D02*
X1487350Y-44036804D01*
X1177826Y-42674900D02*
X868303Y-43603471D01*
X868303Y-43603471D02*
X1673064Y-43603471D01*
D10*
D11*
X51549255Y-42736804D02*
X50930207Y-42736804D01*
X50930207Y-42736804D02*
X50868303Y-43355852D01*
X50868303Y-43355852D02*
X50930207Y-43293947D01*
X50930207Y-43293947D02*
X51054017Y-43232042D01*
X51054017Y-43232042D02*
X51363541Y-43232042D01*
X51363541Y-43232042D02*
X51487350Y-43293947D01*
X51487350Y-43293947D02*
X51549255Y-43355852D01*
X51549255Y-43355852D02*
X51611160Y-43479661D01*
X51611160Y-43479661D02*
X51611160Y-43789185D01*
X51611160Y-43789185D02*
X51549255Y-43912995D01*
X51549255Y-43912995D02*
X51487350Y-43974900D01*
X51487350Y-43974900D02*
X51363541Y-44036804D01*
X51363541Y-44036804D02*
X51054017Y-44036804D01*
X51054017Y-44036804D02*
X50930207Y-43974900D01*
X50930207Y-43974900D02*
X50868303Y-43912995D01*
D10*
D11*
X101487350Y-42736804D02*
X101239731Y-42736804D01*
X101239731Y-42736804D02*
X101115922Y-42798709D01*
X101115922Y-42798709D02*
X101054017Y-42860614D01*
X101054017Y-42860614D02*
X100930207Y-43046328D01*
X100930207Y-43046328D02*
X100868303Y-43293947D01*
X100868303Y-43293947D02*
X100868303Y-43789185D01*
X100868303Y-43789185D02*
X100930207Y-43912995D01*
X100930207Y-43912995D02*
X100992112Y-43974900D01*
X100992112Y-43974900D02*
X101115922Y-44036804D01*
X101115922Y-44036804D02*
X101363541Y-44036804D01*
X101363541Y-44036804D02*
X101487350Y-43974900D01*
X101487350Y-43974900D02*
X101549255Y-43912995D01*
X101549255Y-43912995D02*
X101611160Y-43789185D01*
X101611160Y-43789185D02*
X101611160Y-43479661D01*
X101611160Y-43479661D02*
X101549255Y-43355852D01*
X101549255Y-43355852D02*
X101487350Y-43293947D01*
X101487350Y-43293947D02*
X101363541Y-43232042D01*
X101363541Y-43232042D02*
X101115922Y-43232042D01*
X101115922Y-43232042D02*
X100992112Y-43293947D01*
X100992112Y-43293947D02*
X100930207Y-43355852D01*
X100930207Y-43355852D02*
X100868303Y-43479661D01*
D10*
D11*
X-174478000Y95564000D02*
X-172478000Y95564000D01*
D10*
D11*
X-174478000Y45564000D02*
X-172478000Y45564000D01*
D10*
D11*
X-174478000Y-4436000D02*
X-172478000Y-4436000D01*
D10*
D11*
X-173787524Y120341824D02*
X-173168477Y120341824D01*
X-173911334Y119970396D02*
X-173478001Y121270396D01*
X-173478001Y121270396D02*
X-173044667Y119970396D01*
D10*
D11*
X-173385143Y70651348D02*
X-173199429Y70589443D01*
X-173199429Y70589443D02*
X-173137524Y70527539D01*
X-173137524Y70527539D02*
X-173075620Y70403729D01*
X-173075620Y70403729D02*
X-173075620Y70218015D01*
X-173075620Y70218015D02*
X-173137524Y70094205D01*
X-173137524Y70094205D02*
X-173199429Y70032300D01*
X-173199429Y70032300D02*
X-173323239Y69970396D01*
X-173323239Y69970396D02*
X-173818477Y69970396D01*
X-173818477Y69970396D02*
X-173818477Y71270396D01*
X-173818477Y71270396D02*
X-173385143Y71270396D01*
X-173385143Y71270396D02*
X-173261334Y71208491D01*
X-173261334Y71208491D02*
X-173199429Y71146586D01*
X-173199429Y71146586D02*
X-173137524Y71022777D01*
X-173137524Y71022777D02*
X-173137524Y70898967D01*
X-173137524Y70898967D02*
X-173199429Y70775158D01*
X-173199429Y70775158D02*
X-173261334Y70713253D01*
X-173261334Y70713253D02*
X-173385143Y70651348D01*
X-173385143Y70651348D02*
X-173818477Y70651348D01*
D10*
D11*
X-173075620Y20094205D02*
X-173137524Y20032300D01*
X-173137524Y20032300D02*
X-173323239Y19970396D01*
X-173323239Y19970396D02*
X-173447048Y19970396D01*
X-173447048Y19970396D02*
X-173632762Y20032300D01*
X-173632762Y20032300D02*
X-173756572Y20156110D01*
X-173756572Y20156110D02*
X-173818477Y20279920D01*
X-173818477Y20279920D02*
X-173880381Y20527539D01*
X-173880381Y20527539D02*
X-173880381Y20713253D01*
X-173880381Y20713253D02*
X-173818477Y20960872D01*
X-173818477Y20960872D02*
X-173756572Y21084681D01*
X-173756572Y21084681D02*
X-173632762Y21208491D01*
X-173632762Y21208491D02*
X-173447048Y21270396D01*
X-173447048Y21270396D02*
X-173323239Y21270396D01*
X-173323239Y21270396D02*
X-173137524Y21208491D01*
X-173137524Y21208491D02*
X-173075620Y21146586D01*
D10*
D11*
X-173818477Y-30029604D02*
X-173818477Y-28729604D01*
X-173818477Y-28729604D02*
X-173508953Y-28729604D01*
X-173508953Y-28729604D02*
X-173323239Y-28791509D01*
X-173323239Y-28791509D02*
X-173199429Y-28915319D01*
X-173199429Y-28915319D02*
X-173137524Y-29039128D01*
X-173137524Y-29039128D02*
X-173075620Y-29286747D01*
X-173075620Y-29286747D02*
X-173075620Y-29472461D01*
X-173075620Y-29472461D02*
X-173137524Y-29720080D01*
X-173137524Y-29720080D02*
X-173199429Y-29843890D01*
X-173199429Y-29843890D02*
X-173323239Y-29967700D01*
X-173323239Y-29967700D02*
X-173508953Y-30029604D01*
X-173508953Y-30029604D02*
X-173818477Y-30029604D01*
D10*
D11*
X102524200Y95564000D02*
X100524200Y95564000D01*
D10*
D11*
X102524200Y45564000D02*
X100524200Y45564000D01*
D10*
D11*
X102524200Y-4436000D02*
X100524200Y-4436000D01*
D10*
D11*
X101214676Y120341824D02*
X101833723Y120341824D01*
X101090866Y119970396D02*
X101524199Y121270396D01*
X101524199Y121270396D02*
X101957533Y119970396D01*
D10*
D11*
X101617057Y70651348D02*
X101802771Y70589443D01*
X101802771Y70589443D02*
X101864676Y70527539D01*
X101864676Y70527539D02*
X101926580Y70403729D01*
X101926580Y70403729D02*
X101926580Y70218015D01*
X101926580Y70218015D02*
X101864676Y70094205D01*
X101864676Y70094205D02*
X101802771Y70032300D01*
X101802771Y70032300D02*
X101678961Y69970396D01*
X101678961Y69970396D02*
X101183723Y69970396D01*
X101183723Y69970396D02*
X101183723Y71270396D01*
X101183723Y71270396D02*
X101617057Y71270396D01*
X101617057Y71270396D02*
X101740866Y71208491D01*
X101740866Y71208491D02*
X101802771Y71146586D01*
X101802771Y71146586D02*
X101864676Y71022777D01*
X101864676Y71022777D02*
X101864676Y70898967D01*
X101864676Y70898967D02*
X101802771Y70775158D01*
X101802771Y70775158D02*
X101740866Y70713253D01*
X101740866Y70713253D02*
X101617057Y70651348D01*
X101617057Y70651348D02*
X101183723Y70651348D01*
D10*
D11*
X101926580Y20094205D02*
X101864676Y20032300D01*
X101864676Y20032300D02*
X101678961Y19970396D01*
X101678961Y19970396D02*
X101555152Y19970396D01*
X101555152Y19970396D02*
X101369438Y20032300D01*
X101369438Y20032300D02*
X101245628Y20156110D01*
X101245628Y20156110D02*
X101183723Y20279920D01*
X101183723Y20279920D02*
X101121819Y20527539D01*
X101121819Y20527539D02*
X101121819Y20713253D01*
X101121819Y20713253D02*
X101183723Y20960872D01*
X101183723Y20960872D02*
X101245628Y21084681D01*
X101245628Y21084681D02*
X101369438Y21208491D01*
X101369438Y21208491D02*
X101555152Y21270396D01*
X101555152Y21270396D02*
X101678961Y21270396D01*
X101678961Y21270396D02*
X101864676Y21208491D01*
X101864676Y21208491D02*
X101926580Y21146586D01*
D10*
D11*
X101183723Y-30029604D02*
X101183723Y-28729604D01*
X101183723Y-28729604D02*
X101493247Y-28729604D01*
X101493247Y-28729604D02*
X101678961Y-28791509D01*
X101678961Y-28791509D02*
X101802771Y-28915319D01*
X101802771Y-28915319D02*
X101864676Y-29039128D01*
X101864676Y-29039128D02*
X101926580Y-29286747D01*
X101926580Y-29286747D02*
X101926580Y-29472461D01*
X101926580Y-29472461D02*
X101864676Y-29720080D01*
X101864676Y-29720080D02*
X101802771Y-29843890D01*
X101802771Y-29843890D02*
X101678961Y-29967700D01*
X101678961Y-29967700D02*
X101493247Y-30029604D01*
X101493247Y-30029604D02*
X101183723Y-30029604D01*
D10*
D11*
X15980026Y-38229328D02*
X15980026Y-36729328D01*
X15980026Y-36729328D02*
X16337169Y-36729328D01*
X16337169Y-36729328D02*
X16551455Y-36800757D01*
X16551455Y-36800757D02*
X16694312Y-36943614D01*
X16694312Y-36943614D02*
X16765741Y-37086471D01*
X16765741Y-37086471D02*
X16837169Y-37372185D01*
X16837169Y-37372185D02*
X16837169Y-37586471D01*
X16837169Y-37586471D02*
X16765741Y-37872185D01*
X16765741Y-37872185D02*
X16694312Y-38015042D01*
X16694312Y-38015042D02*
X16551455Y-38157900D01*
X16551455Y-38157900D02*
X16337169Y-38229328D01*
X16337169Y-38229328D02*
X15980026Y-38229328D01*
X18122884Y-38229328D02*
X18122884Y-37443614D01*
X18122884Y-37443614D02*
X18051455Y-37300757D01*
X18051455Y-37300757D02*
X17908598Y-37229328D01*
X17908598Y-37229328D02*
X17622884Y-37229328D01*
X17622884Y-37229328D02*
X17480026Y-37300757D01*
X18122884Y-38157900D02*
X17980026Y-38229328D01*
X17980026Y-38229328D02*
X17622884Y-38229328D01*
X17622884Y-38229328D02*
X17480026Y-38157900D01*
X17480026Y-38157900D02*
X17408598Y-38015042D01*
X17408598Y-38015042D02*
X17408598Y-37872185D01*
X17408598Y-37872185D02*
X17480026Y-37729328D01*
X17480026Y-37729328D02*
X17622884Y-37657900D01*
X17622884Y-37657900D02*
X17980026Y-37657900D01*
X17980026Y-37657900D02*
X18122884Y-37586471D01*
X18622884Y-37229328D02*
X19194312Y-37229328D01*
X18837169Y-36729328D02*
X18837169Y-38015042D01*
X18837169Y-38015042D02*
X18908598Y-38157900D01*
X18908598Y-38157900D02*
X19051455Y-38229328D01*
X19051455Y-38229328D02*
X19194312Y-38229328D01*
X20265741Y-38157900D02*
X20122884Y-38229328D01*
X20122884Y-38229328D02*
X19837170Y-38229328D01*
X19837170Y-38229328D02*
X19694312Y-38157900D01*
X19694312Y-38157900D02*
X19622884Y-38015042D01*
X19622884Y-38015042D02*
X19622884Y-37443614D01*
X19622884Y-37443614D02*
X19694312Y-37300757D01*
X19694312Y-37300757D02*
X19837170Y-37229328D01*
X19837170Y-37229328D02*
X20122884Y-37229328D01*
X20122884Y-37229328D02*
X20265741Y-37300757D01*
X20265741Y-37300757D02*
X20337170Y-37443614D01*
X20337170Y-37443614D02*
X20337170Y-37586471D01*
X20337170Y-37586471D02*
X19622884Y-37729328D01*
X20980026Y-38086471D02*
X21051455Y-38157900D01*
X21051455Y-38157900D02*
X20980026Y-38229328D01*
X20980026Y-38229328D02*
X20908598Y-38157900D01*
X20908598Y-38157900D02*
X20980026Y-38086471D01*
X20980026Y-38086471D02*
X20980026Y-38229328D01*
X20980026Y-37300757D02*
X21051455Y-37372185D01*
X21051455Y-37372185D02*
X20980026Y-37443614D01*
X20980026Y-37443614D02*
X20908598Y-37372185D01*
X20908598Y-37372185D02*
X20980026Y-37300757D01*
X20980026Y-37300757D02*
X20980026Y-37443614D01*
X22765741Y-36872185D02*
X22837169Y-36800757D01*
X22837169Y-36800757D02*
X22980027Y-36729328D01*
X22980027Y-36729328D02*
X23337169Y-36729328D01*
X23337169Y-36729328D02*
X23480027Y-36800757D01*
X23480027Y-36800757D02*
X23551455Y-36872185D01*
X23551455Y-36872185D02*
X23622884Y-37015042D01*
X23622884Y-37015042D02*
X23622884Y-37157900D01*
X23622884Y-37157900D02*
X23551455Y-37372185D01*
X23551455Y-37372185D02*
X22694312Y-38229328D01*
X22694312Y-38229328D02*
X23622884Y-38229328D01*
X24551455Y-36729328D02*
X24694312Y-36729328D01*
X24694312Y-36729328D02*
X24837169Y-36800757D01*
X24837169Y-36800757D02*
X24908598Y-36872185D01*
X24908598Y-36872185D02*
X24980026Y-37015042D01*
X24980026Y-37015042D02*
X25051455Y-37300757D01*
X25051455Y-37300757D02*
X25051455Y-37657900D01*
X25051455Y-37657900D02*
X24980026Y-37943614D01*
X24980026Y-37943614D02*
X24908598Y-38086471D01*
X24908598Y-38086471D02*
X24837169Y-38157900D01*
X24837169Y-38157900D02*
X24694312Y-38229328D01*
X24694312Y-38229328D02*
X24551455Y-38229328D01*
X24551455Y-38229328D02*
X24408598Y-38157900D01*
X24408598Y-38157900D02*
X24337169Y-38086471D01*
X24337169Y-38086471D02*
X24265740Y-37943614D01*
X24265740Y-37943614D02*
X24194312Y-37657900D01*
X24194312Y-37657900D02*
X24194312Y-37300757D01*
X24194312Y-37300757D02*
X24265740Y-37015042D01*
X24265740Y-37015042D02*
X24337169Y-36872185D01*
X24337169Y-36872185D02*
X24408598Y-36800757D01*
X24408598Y-36800757D02*
X24551455Y-36729328D01*
X25622883Y-36872185D02*
X25694311Y-36800757D01*
X25694311Y-36800757D02*
X25837169Y-36729328D01*
X25837169Y-36729328D02*
X26194311Y-36729328D01*
X26194311Y-36729328D02*
X26337169Y-36800757D01*
X26337169Y-36800757D02*
X26408597Y-36872185D01*
X26408597Y-36872185D02*
X26480026Y-37015042D01*
X26480026Y-37015042D02*
X26480026Y-37157900D01*
X26480026Y-37157900D02*
X26408597Y-37372185D01*
X26408597Y-37372185D02*
X25551454Y-38229328D01*
X25551454Y-38229328D02*
X26480026Y-38229328D01*
X27765740Y-37229328D02*
X27765740Y-38229328D01*
X27408597Y-36657900D02*
X27051454Y-37729328D01*
X27051454Y-37729328D02*
X27980025Y-37729328D01*
X28551453Y-37657900D02*
X29694311Y-37657900D01*
X30694311Y-36729328D02*
X30837168Y-36729328D01*
X30837168Y-36729328D02*
X30980025Y-36800757D01*
X30980025Y-36800757D02*
X31051454Y-36872185D01*
X31051454Y-36872185D02*
X31122882Y-37015042D01*
X31122882Y-37015042D02*
X31194311Y-37300757D01*
X31194311Y-37300757D02*
X31194311Y-37657900D01*
X31194311Y-37657900D02*
X31122882Y-37943614D01*
X31122882Y-37943614D02*
X31051454Y-38086471D01*
X31051454Y-38086471D02*
X30980025Y-38157900D01*
X30980025Y-38157900D02*
X30837168Y-38229328D01*
X30837168Y-38229328D02*
X30694311Y-38229328D01*
X30694311Y-38229328D02*
X30551454Y-38157900D01*
X30551454Y-38157900D02*
X30480025Y-38086471D01*
X30480025Y-38086471D02*
X30408596Y-37943614D01*
X30408596Y-37943614D02*
X30337168Y-37657900D01*
X30337168Y-37657900D02*
X30337168Y-37300757D01*
X30337168Y-37300757D02*
X30408596Y-37015042D01*
X30408596Y-37015042D02*
X30480025Y-36872185D01*
X30480025Y-36872185D02*
X30551454Y-36800757D01*
X30551454Y-36800757D02*
X30694311Y-36729328D01*
X32480025Y-36729328D02*
X32194310Y-36729328D01*
X32194310Y-36729328D02*
X32051453Y-36800757D01*
X32051453Y-36800757D02*
X31980025Y-36872185D01*
X31980025Y-36872185D02*
X31837167Y-37086471D01*
X31837167Y-37086471D02*
X31765739Y-37372185D01*
X31765739Y-37372185D02*
X31765739Y-37943614D01*
X31765739Y-37943614D02*
X31837167Y-38086471D01*
X31837167Y-38086471D02*
X31908596Y-38157900D01*
X31908596Y-38157900D02*
X32051453Y-38229328D01*
X32051453Y-38229328D02*
X32337167Y-38229328D01*
X32337167Y-38229328D02*
X32480025Y-38157900D01*
X32480025Y-38157900D02*
X32551453Y-38086471D01*
X32551453Y-38086471D02*
X32622882Y-37943614D01*
X32622882Y-37943614D02*
X32622882Y-37586471D01*
X32622882Y-37586471D02*
X32551453Y-37443614D01*
X32551453Y-37443614D02*
X32480025Y-37372185D01*
X32480025Y-37372185D02*
X32337167Y-37300757D01*
X32337167Y-37300757D02*
X32051453Y-37300757D01*
X32051453Y-37300757D02*
X31908596Y-37372185D01*
X31908596Y-37372185D02*
X31837167Y-37443614D01*
X31837167Y-37443614D02*
X31765739Y-37586471D01*
X33265738Y-37657900D02*
X34408596Y-37657900D01*
X35408596Y-36729328D02*
X35551453Y-36729328D01*
X35551453Y-36729328D02*
X35694310Y-36800757D01*
X35694310Y-36800757D02*
X35765739Y-36872185D01*
X35765739Y-36872185D02*
X35837167Y-37015042D01*
X35837167Y-37015042D02*
X35908596Y-37300757D01*
X35908596Y-37300757D02*
X35908596Y-37657900D01*
X35908596Y-37657900D02*
X35837167Y-37943614D01*
X35837167Y-37943614D02*
X35765739Y-38086471D01*
X35765739Y-38086471D02*
X35694310Y-38157900D01*
X35694310Y-38157900D02*
X35551453Y-38229328D01*
X35551453Y-38229328D02*
X35408596Y-38229328D01*
X35408596Y-38229328D02*
X35265739Y-38157900D01*
X35265739Y-38157900D02*
X35194310Y-38086471D01*
X35194310Y-38086471D02*
X35122881Y-37943614D01*
X35122881Y-37943614D02*
X35051453Y-37657900D01*
X35051453Y-37657900D02*
X35051453Y-37300757D01*
X35051453Y-37300757D02*
X35122881Y-37015042D01*
X35122881Y-37015042D02*
X35194310Y-36872185D01*
X35194310Y-36872185D02*
X35265739Y-36800757D01*
X35265739Y-36800757D02*
X35408596Y-36729328D01*
X36480024Y-36872185D02*
X36551452Y-36800757D01*
X36551452Y-36800757D02*
X36694310Y-36729328D01*
X36694310Y-36729328D02*
X37051452Y-36729328D01*
X37051452Y-36729328D02*
X37194310Y-36800757D01*
X37194310Y-36800757D02*
X37265738Y-36872185D01*
X37265738Y-36872185D02*
X37337167Y-37015042D01*
X37337167Y-37015042D02*
X37337167Y-37157900D01*
X37337167Y-37157900D02*
X37265738Y-37372185D01*
X37265738Y-37372185D02*
X36408595Y-38229328D01*
X36408595Y-38229328D02*
X37337167Y-38229328D01*
D10*
D11*
X-7475800Y-38943200D02*
X100524200Y-38943200D01*
D10*
D11*
X-6019974Y-41029328D02*
X-6019974Y-39529328D01*
X-5162831Y-41029328D02*
X-5805688Y-40172185D01*
X-5162831Y-39529328D02*
X-6019974Y-40386471D01*
X-4519974Y-41029328D02*
X-4519974Y-40029328D01*
X-4519974Y-39529328D02*
X-4591402Y-39600757D01*
X-4591402Y-39600757D02*
X-4519974Y-39672185D01*
X-4519974Y-39672185D02*
X-4448545Y-39600757D01*
X-4448545Y-39600757D02*
X-4519974Y-39529328D01*
X-4519974Y-39529328D02*
X-4519974Y-39672185D01*
X-2948545Y-40886471D02*
X-3019973Y-40957900D01*
X-3019973Y-40957900D02*
X-3234259Y-41029328D01*
X-3234259Y-41029328D02*
X-3377116Y-41029328D01*
X-3377116Y-41029328D02*
X-3591402Y-40957900D01*
X-3591402Y-40957900D02*
X-3734259Y-40815042D01*
X-3734259Y-40815042D02*
X-3805688Y-40672185D01*
X-3805688Y-40672185D02*
X-3877116Y-40386471D01*
X-3877116Y-40386471D02*
X-3877116Y-40172185D01*
X-3877116Y-40172185D02*
X-3805688Y-39886471D01*
X-3805688Y-39886471D02*
X-3734259Y-39743614D01*
X-3734259Y-39743614D02*
X-3591402Y-39600757D01*
X-3591402Y-39600757D02*
X-3377116Y-39529328D01*
X-3377116Y-39529328D02*
X-3234259Y-39529328D01*
X-3234259Y-39529328D02*
X-3019973Y-39600757D01*
X-3019973Y-39600757D02*
X-2948545Y-39672185D01*
X-1662830Y-41029328D02*
X-1662830Y-40243614D01*
X-1662830Y-40243614D02*
X-1734259Y-40100757D01*
X-1734259Y-40100757D02*
X-1877116Y-40029328D01*
X-1877116Y-40029328D02*
X-2162830Y-40029328D01*
X-2162830Y-40029328D02*
X-2305688Y-40100757D01*
X-1662830Y-40957900D02*
X-1805688Y-41029328D01*
X-1805688Y-41029328D02*
X-2162830Y-41029328D01*
X-2162830Y-41029328D02*
X-2305688Y-40957900D01*
X-2305688Y-40957900D02*
X-2377116Y-40815042D01*
X-2377116Y-40815042D02*
X-2377116Y-40672185D01*
X-2377116Y-40672185D02*
X-2305688Y-40529328D01*
X-2305688Y-40529328D02*
X-2162830Y-40457900D01*
X-2162830Y-40457900D02*
X-1805688Y-40457900D01*
X-1805688Y-40457900D02*
X-1662830Y-40386471D01*
X-305687Y-41029328D02*
X-305687Y-39529328D01*
X-305687Y-40957900D02*
X-448545Y-41029328D01*
X-448545Y-41029328D02*
X-734259Y-41029328D01*
X-734259Y-41029328D02*
X-877116Y-40957900D01*
X-877116Y-40957900D02*
X-948545Y-40886471D01*
X-948545Y-40886471D02*
X-1019973Y-40743614D01*
X-1019973Y-40743614D02*
X-1019973Y-40315042D01*
X-1019973Y-40315042D02*
X-948545Y-40172185D01*
X-948545Y-40172185D02*
X-877116Y-40100757D01*
X-877116Y-40100757D02*
X-734259Y-40029328D01*
X-734259Y-40029328D02*
X-448545Y-40029328D01*
X-448545Y-40029328D02*
X-305687Y-40100757D01*
X1551455Y-40243614D02*
X2051455Y-40243614D01*
X2265741Y-41029328D02*
X1551455Y-41029328D01*
X1551455Y-41029328D02*
X1551455Y-39529328D01*
X1551455Y-39529328D02*
X2265741Y-39529328D01*
X2908598Y-40886471D02*
X2980027Y-40957900D01*
X2980027Y-40957900D02*
X2908598Y-41029328D01*
X2908598Y-41029328D02*
X2837170Y-40957900D01*
X2837170Y-40957900D02*
X2908598Y-40886471D01*
X2908598Y-40886471D02*
X2908598Y-41029328D01*
X3622884Y-41029328D02*
X3622884Y-39529328D01*
X3622884Y-39529328D02*
X3980027Y-39529328D01*
X3980027Y-39529328D02*
X4194313Y-39600757D01*
X4194313Y-39600757D02*
X4337170Y-39743614D01*
X4337170Y-39743614D02*
X4408599Y-39886471D01*
X4408599Y-39886471D02*
X4480027Y-40172185D01*
X4480027Y-40172185D02*
X4480027Y-40386471D01*
X4480027Y-40386471D02*
X4408599Y-40672185D01*
X4408599Y-40672185D02*
X4337170Y-40815042D01*
X4337170Y-40815042D02*
X4194313Y-40957900D01*
X4194313Y-40957900D02*
X3980027Y-41029328D01*
X3980027Y-41029328D02*
X3622884Y-41029328D01*
X5122884Y-40886471D02*
X5194313Y-40957900D01*
X5194313Y-40957900D02*
X5122884Y-41029328D01*
X5122884Y-41029328D02*
X5051456Y-40957900D01*
X5051456Y-40957900D02*
X5122884Y-40886471D01*
X5122884Y-40886471D02*
X5122884Y-41029328D01*
X5765742Y-40600757D02*
X6480028Y-40600757D01*
X5622885Y-41029328D02*
X6122885Y-39529328D01*
X6122885Y-39529328D02*
X6622885Y-41029328D01*
X7122884Y-40886471D02*
X7194313Y-40957900D01*
X7194313Y-40957900D02*
X7122884Y-41029328D01*
X7122884Y-41029328D02*
X7051456Y-40957900D01*
X7051456Y-40957900D02*
X7122884Y-40886471D01*
X7122884Y-40886471D02*
X7122884Y-41029328D01*
X9194313Y-40172185D02*
X9051456Y-40100757D01*
X9051456Y-40100757D02*
X8980027Y-40029328D01*
X8980027Y-40029328D02*
X8908599Y-39886471D01*
X8908599Y-39886471D02*
X8908599Y-39815042D01*
X8908599Y-39815042D02*
X8980027Y-39672185D01*
X8980027Y-39672185D02*
X9051456Y-39600757D01*
X9051456Y-39600757D02*
X9194313Y-39529328D01*
X9194313Y-39529328D02*
X9480027Y-39529328D01*
X9480027Y-39529328D02*
X9622885Y-39600757D01*
X9622885Y-39600757D02*
X9694313Y-39672185D01*
X9694313Y-39672185D02*
X9765742Y-39815042D01*
X9765742Y-39815042D02*
X9765742Y-39886471D01*
X9765742Y-39886471D02*
X9694313Y-40029328D01*
X9694313Y-40029328D02*
X9622885Y-40100757D01*
X9622885Y-40100757D02*
X9480027Y-40172185D01*
X9480027Y-40172185D02*
X9194313Y-40172185D01*
X9194313Y-40172185D02*
X9051456Y-40243614D01*
X9051456Y-40243614D02*
X8980027Y-40315042D01*
X8980027Y-40315042D02*
X8908599Y-40457900D01*
X8908599Y-40457900D02*
X8908599Y-40743614D01*
X8908599Y-40743614D02*
X8980027Y-40886471D01*
X8980027Y-40886471D02*
X9051456Y-40957900D01*
X9051456Y-40957900D02*
X9194313Y-41029328D01*
X9194313Y-41029328D02*
X9480027Y-41029328D01*
X9480027Y-41029328D02*
X9622885Y-40957900D01*
X9622885Y-40957900D02*
X9694313Y-40886471D01*
X9694313Y-40886471D02*
X9765742Y-40743614D01*
X9765742Y-40743614D02*
X9765742Y-40457900D01*
X9765742Y-40457900D02*
X9694313Y-40315042D01*
X9694313Y-40315042D02*
X9622885Y-40243614D01*
X9622885Y-40243614D02*
X9480027Y-40172185D01*
X10408598Y-40886471D02*
X10480027Y-40957900D01*
X10480027Y-40957900D02*
X10408598Y-41029328D01*
X10408598Y-41029328D02*
X10337170Y-40957900D01*
X10337170Y-40957900D02*
X10408598Y-40886471D01*
X10408598Y-40886471D02*
X10408598Y-41029328D01*
X11408599Y-39529328D02*
X11551456Y-39529328D01*
X11551456Y-39529328D02*
X11694313Y-39600757D01*
X11694313Y-39600757D02*
X11765742Y-39672185D01*
X11765742Y-39672185D02*
X11837170Y-39815042D01*
X11837170Y-39815042D02*
X11908599Y-40100757D01*
X11908599Y-40100757D02*
X11908599Y-40457900D01*
X11908599Y-40457900D02*
X11837170Y-40743614D01*
X11837170Y-40743614D02*
X11765742Y-40886471D01*
X11765742Y-40886471D02*
X11694313Y-40957900D01*
X11694313Y-40957900D02*
X11551456Y-41029328D01*
X11551456Y-41029328D02*
X11408599Y-41029328D01*
X11408599Y-41029328D02*
X11265742Y-40957900D01*
X11265742Y-40957900D02*
X11194313Y-40886471D01*
X11194313Y-40886471D02*
X11122884Y-40743614D01*
X11122884Y-40743614D02*
X11051456Y-40457900D01*
X11051456Y-40457900D02*
X11051456Y-40100757D01*
X11051456Y-40100757D02*
X11122884Y-39815042D01*
X11122884Y-39815042D02*
X11194313Y-39672185D01*
X11194313Y-39672185D02*
X11265742Y-39600757D01*
X11265742Y-39600757D02*
X11408599Y-39529328D01*
X12551455Y-40886471D02*
X12622884Y-40957900D01*
X12622884Y-40957900D02*
X12551455Y-41029328D01*
X12551455Y-41029328D02*
X12480027Y-40957900D01*
X12480027Y-40957900D02*
X12551455Y-40886471D01*
X12551455Y-40886471D02*
X12551455Y-41029328D01*
X13122884Y-39529328D02*
X14051456Y-39529328D01*
X14051456Y-39529328D02*
X13551456Y-40100757D01*
X13551456Y-40100757D02*
X13765741Y-40100757D01*
X13765741Y-40100757D02*
X13908599Y-40172185D01*
X13908599Y-40172185D02*
X13980027Y-40243614D01*
X13980027Y-40243614D02*
X14051456Y-40386471D01*
X14051456Y-40386471D02*
X14051456Y-40743614D01*
X14051456Y-40743614D02*
X13980027Y-40886471D01*
X13980027Y-40886471D02*
X13908599Y-40957900D01*
X13908599Y-40957900D02*
X13765741Y-41029328D01*
X13765741Y-41029328D02*
X13337170Y-41029328D01*
X13337170Y-41029328D02*
X13194313Y-40957900D01*
X13194313Y-40957900D02*
X13122884Y-40886471D01*
D10*
D11*
X-7475800Y-35943200D02*
X100524200Y-35943200D01*
D10*
D12*
X79935853Y-38221528D02*
X79435853Y-37507242D01*
X79078710Y-38221528D02*
X79078710Y-36721528D01*
X79078710Y-36721528D02*
X79650139Y-36721528D01*
X79650139Y-36721528D02*
X79792996Y-36792957D01*
X79792996Y-36792957D02*
X79864425Y-36864385D01*
X79864425Y-36864385D02*
X79935853Y-37007242D01*
X79935853Y-37007242D02*
X79935853Y-37221528D01*
X79935853Y-37221528D02*
X79864425Y-37364385D01*
X79864425Y-37364385D02*
X79792996Y-37435814D01*
X79792996Y-37435814D02*
X79650139Y-37507242D01*
X79650139Y-37507242D02*
X79078710Y-37507242D01*
X81150139Y-38150100D02*
X81007282Y-38221528D01*
X81007282Y-38221528D02*
X80721568Y-38221528D01*
X80721568Y-38221528D02*
X80578710Y-38150100D01*
X80578710Y-38150100D02*
X80507282Y-38007242D01*
X80507282Y-38007242D02*
X80507282Y-37435814D01*
X80507282Y-37435814D02*
X80578710Y-37292957D01*
X80578710Y-37292957D02*
X80721568Y-37221528D01*
X80721568Y-37221528D02*
X81007282Y-37221528D01*
X81007282Y-37221528D02*
X81150139Y-37292957D01*
X81150139Y-37292957D02*
X81221568Y-37435814D01*
X81221568Y-37435814D02*
X81221568Y-37578671D01*
X81221568Y-37578671D02*
X80507282Y-37721528D01*
X81721567Y-37221528D02*
X82078710Y-38221528D01*
X82078710Y-38221528D02*
X82435853Y-37221528D01*
X83007281Y-38078671D02*
X83078710Y-38150100D01*
X83078710Y-38150100D02*
X83007281Y-38221528D01*
X83007281Y-38221528D02*
X82935853Y-38150100D01*
X82935853Y-38150100D02*
X83007281Y-38078671D01*
X83007281Y-38078671D02*
X83007281Y-38221528D01*
X83007281Y-37292957D02*
X83078710Y-37364385D01*
X83078710Y-37364385D02*
X83007281Y-37435814D01*
X83007281Y-37435814D02*
X82935853Y-37364385D01*
X82935853Y-37364385D02*
X83007281Y-37292957D01*
X83007281Y-37292957D02*
X83007281Y-37435814D01*
X85150139Y-36721528D02*
X85292996Y-36721528D01*
X85292996Y-36721528D02*
X85435853Y-36792957D01*
X85435853Y-36792957D02*
X85507282Y-36864385D01*
X85507282Y-36864385D02*
X85578710Y-37007242D01*
X85578710Y-37007242D02*
X85650139Y-37292957D01*
X85650139Y-37292957D02*
X85650139Y-37650100D01*
X85650139Y-37650100D02*
X85578710Y-37935814D01*
X85578710Y-37935814D02*
X85507282Y-38078671D01*
X85507282Y-38078671D02*
X85435853Y-38150100D01*
X85435853Y-38150100D02*
X85292996Y-38221528D01*
X85292996Y-38221528D02*
X85150139Y-38221528D01*
X85150139Y-38221528D02*
X85007282Y-38150100D01*
X85007282Y-38150100D02*
X84935853Y-38078671D01*
X84935853Y-38078671D02*
X84864424Y-37935814D01*
X84864424Y-37935814D02*
X84792996Y-37650100D01*
X84792996Y-37650100D02*
X84792996Y-37292957D01*
X84792996Y-37292957D02*
X84864424Y-37007242D01*
X84864424Y-37007242D02*
X84935853Y-36864385D01*
X84935853Y-36864385D02*
X85007282Y-36792957D01*
X85007282Y-36792957D02*
X85150139Y-36721528D01*
X86292995Y-38078671D02*
X86364424Y-38150100D01*
X86364424Y-38150100D02*
X86292995Y-38221528D01*
X86292995Y-38221528D02*
X86221567Y-38150100D01*
X86221567Y-38150100D02*
X86292995Y-38078671D01*
X86292995Y-38078671D02*
X86292995Y-38221528D01*
X87221567Y-37364385D02*
X87078710Y-37292957D01*
X87078710Y-37292957D02*
X87007281Y-37221528D01*
X87007281Y-37221528D02*
X86935853Y-37078671D01*
X86935853Y-37078671D02*
X86935853Y-37007242D01*
X86935853Y-37007242D02*
X87007281Y-36864385D01*
X87007281Y-36864385D02*
X87078710Y-36792957D01*
X87078710Y-36792957D02*
X87221567Y-36721528D01*
X87221567Y-36721528D02*
X87507281Y-36721528D01*
X87507281Y-36721528D02*
X87650139Y-36792957D01*
X87650139Y-36792957D02*
X87721567Y-36864385D01*
X87721567Y-36864385D02*
X87792996Y-37007242D01*
X87792996Y-37007242D02*
X87792996Y-37078671D01*
X87792996Y-37078671D02*
X87721567Y-37221528D01*
X87721567Y-37221528D02*
X87650139Y-37292957D01*
X87650139Y-37292957D02*
X87507281Y-37364385D01*
X87507281Y-37364385D02*
X87221567Y-37364385D01*
X87221567Y-37364385D02*
X87078710Y-37435814D01*
X87078710Y-37435814D02*
X87007281Y-37507242D01*
X87007281Y-37507242D02*
X86935853Y-37650100D01*
X86935853Y-37650100D02*
X86935853Y-37935814D01*
X86935853Y-37935814D02*
X87007281Y-38078671D01*
X87007281Y-38078671D02*
X87078710Y-38150100D01*
X87078710Y-38150100D02*
X87221567Y-38221528D01*
X87221567Y-38221528D02*
X87507281Y-38221528D01*
X87507281Y-38221528D02*
X87650139Y-38150100D01*
X87650139Y-38150100D02*
X87721567Y-38078671D01*
X87721567Y-38078671D02*
X87792996Y-37935814D01*
X87792996Y-37935814D02*
X87792996Y-37650100D01*
X87792996Y-37650100D02*
X87721567Y-37507242D01*
X87721567Y-37507242D02*
X87650139Y-37435814D01*
X87650139Y-37435814D02*
X87507281Y-37364385D01*
X88292995Y-36721528D02*
X89221567Y-36721528D01*
X89221567Y-36721528D02*
X88721567Y-37292957D01*
X88721567Y-37292957D02*
X88935852Y-37292957D01*
X88935852Y-37292957D02*
X89078710Y-37364385D01*
X89078710Y-37364385D02*
X89150138Y-37435814D01*
X89150138Y-37435814D02*
X89221567Y-37578671D01*
X89221567Y-37578671D02*
X89221567Y-37935814D01*
X89221567Y-37935814D02*
X89150138Y-38078671D01*
X89150138Y-38078671D02*
X89078710Y-38150100D01*
X89078710Y-38150100D02*
X88935852Y-38221528D01*
X88935852Y-38221528D02*
X88507281Y-38221528D01*
X88507281Y-38221528D02*
X88364424Y-38150100D01*
X88364424Y-38150100D02*
X88292995Y-38078671D01*
D10*
D11*
X-6091402Y-38157900D02*
X-5877116Y-38229328D01*
X-5877116Y-38229328D02*
X-5519974Y-38229328D01*
X-5519974Y-38229328D02*
X-5377116Y-38157900D01*
X-5377116Y-38157900D02*
X-5305688Y-38086471D01*
X-5305688Y-38086471D02*
X-5234259Y-37943614D01*
X-5234259Y-37943614D02*
X-5234259Y-37800757D01*
X-5234259Y-37800757D02*
X-5305688Y-37657900D01*
X-5305688Y-37657900D02*
X-5377116Y-37586471D01*
X-5377116Y-37586471D02*
X-5519974Y-37515042D01*
X-5519974Y-37515042D02*
X-5805688Y-37443614D01*
X-5805688Y-37443614D02*
X-5948545Y-37372185D01*
X-5948545Y-37372185D02*
X-6019974Y-37300757D01*
X-6019974Y-37300757D02*
X-6091402Y-37157900D01*
X-6091402Y-37157900D02*
X-6091402Y-37015042D01*
X-6091402Y-37015042D02*
X-6019974Y-36872185D01*
X-6019974Y-36872185D02*
X-5948545Y-36800757D01*
X-5948545Y-36800757D02*
X-5805688Y-36729328D01*
X-5805688Y-36729328D02*
X-5448545Y-36729328D01*
X-5448545Y-36729328D02*
X-5234259Y-36800757D01*
X-4591403Y-38229328D02*
X-4591403Y-37229328D01*
X-4591403Y-36729328D02*
X-4662831Y-36800757D01*
X-4662831Y-36800757D02*
X-4591403Y-36872185D01*
X-4591403Y-36872185D02*
X-4519974Y-36800757D01*
X-4519974Y-36800757D02*
X-4591403Y-36729328D01*
X-4591403Y-36729328D02*
X-4591403Y-36872185D01*
X-4019974Y-37229328D02*
X-3234259Y-37229328D01*
X-3234259Y-37229328D02*
X-4019974Y-38229328D01*
X-4019974Y-38229328D02*
X-3234259Y-38229328D01*
X-2091402Y-38157900D02*
X-2234259Y-38229328D01*
X-2234259Y-38229328D02*
X-2519973Y-38229328D01*
X-2519973Y-38229328D02*
X-2662831Y-38157900D01*
X-2662831Y-38157900D02*
X-2734259Y-38015042D01*
X-2734259Y-38015042D02*
X-2734259Y-37443614D01*
X-2734259Y-37443614D02*
X-2662831Y-37300757D01*
X-2662831Y-37300757D02*
X-2519973Y-37229328D01*
X-2519973Y-37229328D02*
X-2234259Y-37229328D01*
X-2234259Y-37229328D02*
X-2091402Y-37300757D01*
X-2091402Y-37300757D02*
X-2019973Y-37443614D01*
X-2019973Y-37443614D02*
X-2019973Y-37586471D01*
X-2019973Y-37586471D02*
X-2734259Y-37729328D01*
X-1377117Y-38086471D02*
X-1305688Y-38157900D01*
X-1305688Y-38157900D02*
X-1377117Y-38229328D01*
X-1377117Y-38229328D02*
X-1448545Y-38157900D01*
X-1448545Y-38157900D02*
X-1377117Y-38086471D01*
X-1377117Y-38086471D02*
X-1377117Y-38229328D01*
X-1377117Y-37300757D02*
X-1305688Y-37372185D01*
X-1305688Y-37372185D02*
X-1377117Y-37443614D01*
X-1377117Y-37443614D02*
X-1448545Y-37372185D01*
X-1448545Y-37372185D02*
X-1377117Y-37300757D01*
X-1377117Y-37300757D02*
X-1377117Y-37443614D01*
X408598Y-37800757D02*
X1122884Y-37800757D01*
X265741Y-38229328D02*
X765741Y-36729328D01*
X765741Y-36729328D02*
X1265741Y-38229328D01*
X2408598Y-37229328D02*
X2408598Y-38229328D01*
X2051455Y-36657900D02*
X1694312Y-37729328D01*
X1694312Y-37729328D02*
X2622883Y-37729328D01*
D10*
D11*
X78980026Y-41029328D02*
X78980026Y-39529328D01*
X80337170Y-41029328D02*
X80337170Y-39529328D01*
X80337170Y-40957900D02*
X80194312Y-41029328D01*
X80194312Y-41029328D02*
X79908598Y-41029328D01*
X79908598Y-41029328D02*
X79765741Y-40957900D01*
X79765741Y-40957900D02*
X79694312Y-40886471D01*
X79694312Y-40886471D02*
X79622884Y-40743614D01*
X79622884Y-40743614D02*
X79622884Y-40315042D01*
X79622884Y-40315042D02*
X79694312Y-40172185D01*
X79694312Y-40172185D02*
X79765741Y-40100757D01*
X79765741Y-40100757D02*
X79908598Y-40029328D01*
X79908598Y-40029328D02*
X80194312Y-40029328D01*
X80194312Y-40029328D02*
X80337170Y-40100757D01*
X81051455Y-40886471D02*
X81122884Y-40957900D01*
X81122884Y-40957900D02*
X81051455Y-41029328D01*
X81051455Y-41029328D02*
X80980027Y-40957900D01*
X80980027Y-40957900D02*
X81051455Y-40886471D01*
X81051455Y-40886471D02*
X81051455Y-41029328D01*
X81051455Y-40100757D02*
X81122884Y-40172185D01*
X81122884Y-40172185D02*
X81051455Y-40243614D01*
X81051455Y-40243614D02*
X80980027Y-40172185D01*
X80980027Y-40172185D02*
X81051455Y-40100757D01*
X81051455Y-40100757D02*
X81051455Y-40243614D01*
X83694313Y-41029328D02*
X82837170Y-41029328D01*
X83265741Y-41029328D02*
X83265741Y-39529328D01*
X83265741Y-39529328D02*
X83122884Y-39743614D01*
X83122884Y-39743614D02*
X82980027Y-39886471D01*
X82980027Y-39886471D02*
X82837170Y-39957900D01*
X85408598Y-39457900D02*
X84122884Y-41386471D01*
X86694313Y-41029328D02*
X85837170Y-41029328D01*
X86265741Y-41029328D02*
X86265741Y-39529328D01*
X86265741Y-39529328D02*
X86122884Y-39743614D01*
X86122884Y-39743614D02*
X85980027Y-39886471D01*
X85980027Y-39886471D02*
X85837170Y-39957900D01*
D10*
D11*
X-7475800Y-31943200D02*
X100524200Y-31943200D01*
D10*
D13*
X-5784072Y-32647638D02*
X-4641215Y-32647638D01*
X-5462643Y-34647638D02*
X-5212643Y-32647638D01*
X-4224548Y-34647638D02*
X-4057881Y-33314304D01*
X-3974548Y-32647638D02*
X-4081691Y-32742876D01*
X-4081691Y-32742876D02*
X-3998357Y-32838114D01*
X-3998357Y-32838114D02*
X-3891214Y-32742876D01*
X-3891214Y-32742876D02*
X-3974548Y-32647638D01*
X-3974548Y-32647638D02*
X-3998357Y-32838114D01*
X-3391214Y-33314304D02*
X-2629310Y-33314304D01*
X-3022167Y-32647638D02*
X-3236452Y-34361923D01*
X-3236452Y-34361923D02*
X-3165024Y-34552400D01*
X-3165024Y-34552400D02*
X-2986452Y-34647638D01*
X-2986452Y-34647638D02*
X-2795976Y-34647638D01*
X-1843595Y-34647638D02*
X-2022167Y-34552400D01*
X-2022167Y-34552400D02*
X-2093595Y-34361923D01*
X-2093595Y-34361923D02*
X-1879310Y-32647638D01*
X-307881Y-34552400D02*
X-510262Y-34647638D01*
X-510262Y-34647638D02*
X-891215Y-34647638D01*
X-891215Y-34647638D02*
X-1069786Y-34552400D01*
X-1069786Y-34552400D02*
X-1141215Y-34361923D01*
X-1141215Y-34361923D02*
X-1045976Y-33600019D01*
X-1045976Y-33600019D02*
X-926929Y-33409542D01*
X-926929Y-33409542D02*
X-724548Y-33314304D01*
X-724548Y-33314304D02*
X-343596Y-33314304D01*
X-343596Y-33314304D02*
X-165024Y-33409542D01*
X-165024Y-33409542D02*
X-93596Y-33600019D01*
X-93596Y-33600019D02*
X-117405Y-33790495D01*
X-117405Y-33790495D02*
X-1093596Y-33980971D01*
X656405Y-34457161D02*
X739738Y-34552400D01*
X739738Y-34552400D02*
X632595Y-34647638D01*
X632595Y-34647638D02*
X549262Y-34552400D01*
X549262Y-34552400D02*
X656405Y-34457161D01*
X656405Y-34457161D02*
X632595Y-34647638D01*
X787357Y-33409542D02*
X870690Y-33504780D01*
X870690Y-33504780D02*
X763548Y-33600019D01*
X763548Y-33600019D02*
X680214Y-33504780D01*
X680214Y-33504780D02*
X787357Y-33409542D01*
X787357Y-33409542D02*
X763548Y-33600019D01*
X4394501Y-32742876D02*
X4215929Y-32647638D01*
X4215929Y-32647638D02*
X3930215Y-32647638D01*
X3930215Y-32647638D02*
X3632596Y-32742876D01*
X3632596Y-32742876D02*
X3418310Y-32933352D01*
X3418310Y-32933352D02*
X3299262Y-33123828D01*
X3299262Y-33123828D02*
X3156405Y-33504780D01*
X3156405Y-33504780D02*
X3120691Y-33790495D01*
X3120691Y-33790495D02*
X3168310Y-34171447D01*
X3168310Y-34171447D02*
X3239739Y-34361923D01*
X3239739Y-34361923D02*
X3406405Y-34552400D01*
X3406405Y-34552400D02*
X3680215Y-34647638D01*
X3680215Y-34647638D02*
X3870691Y-34647638D01*
X3870691Y-34647638D02*
X4168310Y-34552400D01*
X4168310Y-34552400D02*
X4275453Y-34457161D01*
X4275453Y-34457161D02*
X4358786Y-33790495D01*
X4358786Y-33790495D02*
X3977834Y-33790495D01*
X5906405Y-33600019D02*
X6180215Y-33695257D01*
X6180215Y-33695257D02*
X6263548Y-33790495D01*
X6263548Y-33790495D02*
X6334977Y-33980971D01*
X6334977Y-33980971D02*
X6299262Y-34266685D01*
X6299262Y-34266685D02*
X6180215Y-34457161D01*
X6180215Y-34457161D02*
X6073072Y-34552400D01*
X6073072Y-34552400D02*
X5870691Y-34647638D01*
X5870691Y-34647638D02*
X5108786Y-34647638D01*
X5108786Y-34647638D02*
X5358786Y-32647638D01*
X5358786Y-32647638D02*
X6025453Y-32647638D01*
X6025453Y-32647638D02*
X6204024Y-32742876D01*
X6204024Y-32742876D02*
X6287358Y-32838114D01*
X6287358Y-32838114D02*
X6358786Y-33028590D01*
X6358786Y-33028590D02*
X6334977Y-33219066D01*
X6334977Y-33219066D02*
X6215929Y-33409542D01*
X6215929Y-33409542D02*
X6108786Y-33504780D01*
X6108786Y-33504780D02*
X5906405Y-33600019D01*
X5906405Y-33600019D02*
X5239739Y-33600019D01*
X7204024Y-33885733D02*
X8727834Y-33885733D01*
X9584976Y-34647638D02*
X9834976Y-32647638D01*
X9834976Y-32647638D02*
X10311167Y-32647638D01*
X10311167Y-32647638D02*
X10584976Y-32742876D01*
X10584976Y-32742876D02*
X10751643Y-32933352D01*
X10751643Y-32933352D02*
X10823071Y-33123828D01*
X10823071Y-33123828D02*
X10870691Y-33504780D01*
X10870691Y-33504780D02*
X10834976Y-33790495D01*
X10834976Y-33790495D02*
X10692119Y-34171447D01*
X10692119Y-34171447D02*
X10573071Y-34361923D01*
X10573071Y-34361923D02*
X10358786Y-34552400D01*
X10358786Y-34552400D02*
X10061167Y-34647638D01*
X10061167Y-34647638D02*
X9584976Y-34647638D01*
X12608786Y-33314304D02*
X12442119Y-34647638D01*
X11751643Y-33314304D02*
X11620691Y-34361923D01*
X11620691Y-34361923D02*
X11692119Y-34552400D01*
X11692119Y-34552400D02*
X11870691Y-34647638D01*
X11870691Y-34647638D02*
X12156405Y-34647638D01*
X12156405Y-34647638D02*
X12358786Y-34552400D01*
X12358786Y-34552400D02*
X12465929Y-34457161D01*
X13394500Y-34647638D02*
X13561167Y-33314304D01*
X13537357Y-33504780D02*
X13644500Y-33409542D01*
X13644500Y-33409542D02*
X13846881Y-33314304D01*
X13846881Y-33314304D02*
X14132595Y-33314304D01*
X14132595Y-33314304D02*
X14311167Y-33409542D01*
X14311167Y-33409542D02*
X14382595Y-33600019D01*
X14382595Y-33600019D02*
X14251643Y-34647638D01*
X14382595Y-33600019D02*
X14501643Y-33409542D01*
X14501643Y-33409542D02*
X14704024Y-33314304D01*
X14704024Y-33314304D02*
X14989738Y-33314304D01*
X14989738Y-33314304D02*
X15168310Y-33409542D01*
X15168310Y-33409542D02*
X15239738Y-33600019D01*
X15239738Y-33600019D02*
X15108786Y-34647638D01*
X16227834Y-33314304D02*
X15977834Y-35314304D01*
X16215929Y-33409542D02*
X16418310Y-33314304D01*
X16418310Y-33314304D02*
X16799262Y-33314304D01*
X16799262Y-33314304D02*
X16977834Y-33409542D01*
X16977834Y-33409542D02*
X17061167Y-33504780D01*
X17061167Y-33504780D02*
X17132596Y-33695257D01*
X17132596Y-33695257D02*
X17061167Y-34266685D01*
X17061167Y-34266685D02*
X16942120Y-34457161D01*
X16942120Y-34457161D02*
X16834977Y-34552400D01*
X16834977Y-34552400D02*
X16632596Y-34647638D01*
X16632596Y-34647638D02*
X16251643Y-34647638D01*
X16251643Y-34647638D02*
X16073072Y-34552400D01*
X18644501Y-34552400D02*
X18442120Y-34647638D01*
X18442120Y-34647638D02*
X18061167Y-34647638D01*
X18061167Y-34647638D02*
X17882596Y-34552400D01*
X17882596Y-34552400D02*
X17811167Y-34361923D01*
X17811167Y-34361923D02*
X17906406Y-33600019D01*
X17906406Y-33600019D02*
X18025453Y-33409542D01*
X18025453Y-33409542D02*
X18227834Y-33314304D01*
X18227834Y-33314304D02*
X18608786Y-33314304D01*
X18608786Y-33314304D02*
X18787358Y-33409542D01*
X18787358Y-33409542D02*
X18858786Y-33600019D01*
X18858786Y-33600019D02*
X18834977Y-33790495D01*
X18834977Y-33790495D02*
X17858786Y-33980971D01*
X19584977Y-34647638D02*
X19751644Y-33314304D01*
X19704025Y-33695257D02*
X19823072Y-33504780D01*
X19823072Y-33504780D02*
X19930215Y-33409542D01*
X19930215Y-33409542D02*
X20132596Y-33314304D01*
X20132596Y-33314304D02*
X20323072Y-33314304D01*
D10*
D11*
X-5519974Y-30043614D02*
X-6019974Y-30043614D01*
X-6019974Y-30829328D02*
X-6019974Y-29329328D01*
X-6019974Y-29329328D02*
X-5305688Y-29329328D01*
X-4734260Y-30829328D02*
X-4734260Y-29829328D01*
X-4734260Y-29329328D02*
X-4805688Y-29400757D01*
X-4805688Y-29400757D02*
X-4734260Y-29472185D01*
X-4734260Y-29472185D02*
X-4662831Y-29400757D01*
X-4662831Y-29400757D02*
X-4734260Y-29329328D01*
X-4734260Y-29329328D02*
X-4734260Y-29472185D01*
X-3805688Y-30829328D02*
X-3948545Y-30757900D01*
X-3948545Y-30757900D02*
X-4019974Y-30615042D01*
X-4019974Y-30615042D02*
X-4019974Y-29329328D01*
X-2662831Y-30757900D02*
X-2805688Y-30829328D01*
X-2805688Y-30829328D02*
X-3091402Y-30829328D01*
X-3091402Y-30829328D02*
X-3234260Y-30757900D01*
X-3234260Y-30757900D02*
X-3305688Y-30615042D01*
X-3305688Y-30615042D02*
X-3305688Y-30043614D01*
X-3305688Y-30043614D02*
X-3234260Y-29900757D01*
X-3234260Y-29900757D02*
X-3091402Y-29829328D01*
X-3091402Y-29829328D02*
X-2805688Y-29829328D01*
X-2805688Y-29829328D02*
X-2662831Y-29900757D01*
X-2662831Y-29900757D02*
X-2591402Y-30043614D01*
X-2591402Y-30043614D02*
X-2591402Y-30186471D01*
X-2591402Y-30186471D02*
X-3305688Y-30329328D01*
X-1948546Y-30686471D02*
X-1877117Y-30757900D01*
X-1877117Y-30757900D02*
X-1948546Y-30829328D01*
X-1948546Y-30829328D02*
X-2019974Y-30757900D01*
X-2019974Y-30757900D02*
X-1948546Y-30686471D01*
X-1948546Y-30686471D02*
X-1948546Y-30829328D01*
X-1948546Y-29900757D02*
X-1877117Y-29972185D01*
X-1877117Y-29972185D02*
X-1948546Y-30043614D01*
X-1948546Y-30043614D02*
X-2019974Y-29972185D01*
X-2019974Y-29972185D02*
X-1948546Y-29900757D01*
X-1948546Y-29900757D02*
X-1948546Y-30043614D01*
X694312Y-29400757D02*
X551455Y-29329328D01*
X551455Y-29329328D02*
X337169Y-29329328D01*
X337169Y-29329328D02*
X122883Y-29400757D01*
X122883Y-29400757D02*
X-19974Y-29543614D01*
X-19974Y-29543614D02*
X-91403Y-29686471D01*
X-91403Y-29686471D02*
X-162831Y-29972185D01*
X-162831Y-29972185D02*
X-162831Y-30186471D01*
X-162831Y-30186471D02*
X-91403Y-30472185D01*
X-91403Y-30472185D02*
X-19974Y-30615042D01*
X-19974Y-30615042D02*
X122883Y-30757900D01*
X122883Y-30757900D02*
X337169Y-30829328D01*
X337169Y-30829328D02*
X480026Y-30829328D01*
X480026Y-30829328D02*
X694312Y-30757900D01*
X694312Y-30757900D02*
X765740Y-30686471D01*
X765740Y-30686471D02*
X765740Y-30186471D01*
X765740Y-30186471D02*
X480026Y-30186471D01*
X1908597Y-30043614D02*
X2122883Y-30115042D01*
X2122883Y-30115042D02*
X2194312Y-30186471D01*
X2194312Y-30186471D02*
X2265740Y-30329328D01*
X2265740Y-30329328D02*
X2265740Y-30543614D01*
X2265740Y-30543614D02*
X2194312Y-30686471D01*
X2194312Y-30686471D02*
X2122883Y-30757900D01*
X2122883Y-30757900D02*
X1980026Y-30829328D01*
X1980026Y-30829328D02*
X1408597Y-30829328D01*
X1408597Y-30829328D02*
X1408597Y-29329328D01*
X1408597Y-29329328D02*
X1908597Y-29329328D01*
X1908597Y-29329328D02*
X2051455Y-29400757D01*
X2051455Y-29400757D02*
X2122883Y-29472185D01*
X2122883Y-29472185D02*
X2194312Y-29615042D01*
X2194312Y-29615042D02*
X2194312Y-29757900D01*
X2194312Y-29757900D02*
X2122883Y-29900757D01*
X2122883Y-29900757D02*
X2051455Y-29972185D01*
X2051455Y-29972185D02*
X1908597Y-30043614D01*
X1908597Y-30043614D02*
X1408597Y-30043614D01*
X2908597Y-30257900D02*
X4051455Y-30257900D01*
X4765740Y-30829328D02*
X4765740Y-29329328D01*
X4765740Y-29329328D02*
X5122883Y-29329328D01*
X5122883Y-29329328D02*
X5337169Y-29400757D01*
X5337169Y-29400757D02*
X5480026Y-29543614D01*
X5480026Y-29543614D02*
X5551455Y-29686471D01*
X5551455Y-29686471D02*
X5622883Y-29972185D01*
X5622883Y-29972185D02*
X5622883Y-30186471D01*
X5622883Y-30186471D02*
X5551455Y-30472185D01*
X5551455Y-30472185D02*
X5480026Y-30615042D01*
X5480026Y-30615042D02*
X5337169Y-30757900D01*
X5337169Y-30757900D02*
X5122883Y-30829328D01*
X5122883Y-30829328D02*
X4765740Y-30829328D01*
X6908598Y-29829328D02*
X6908598Y-30829328D01*
X6265740Y-29829328D02*
X6265740Y-30615042D01*
X6265740Y-30615042D02*
X6337169Y-30757900D01*
X6337169Y-30757900D02*
X6480026Y-30829328D01*
X6480026Y-30829328D02*
X6694312Y-30829328D01*
X6694312Y-30829328D02*
X6837169Y-30757900D01*
X6837169Y-30757900D02*
X6908598Y-30686471D01*
X7622883Y-30829328D02*
X7622883Y-29829328D01*
X7622883Y-29972185D02*
X7694312Y-29900757D01*
X7694312Y-29900757D02*
X7837169Y-29829328D01*
X7837169Y-29829328D02*
X8051455Y-29829328D01*
X8051455Y-29829328D02*
X8194312Y-29900757D01*
X8194312Y-29900757D02*
X8265741Y-30043614D01*
X8265741Y-30043614D02*
X8265741Y-30829328D01*
X8265741Y-30043614D02*
X8337169Y-29900757D01*
X8337169Y-29900757D02*
X8480026Y-29829328D01*
X8480026Y-29829328D02*
X8694312Y-29829328D01*
X8694312Y-29829328D02*
X8837169Y-29900757D01*
X8837169Y-29900757D02*
X8908598Y-30043614D01*
X8908598Y-30043614D02*
X8908598Y-30829328D01*
X9622883Y-29829328D02*
X9622883Y-31329328D01*
X9622883Y-29900757D02*
X9765741Y-29829328D01*
X9765741Y-29829328D02*
X10051455Y-29829328D01*
X10051455Y-29829328D02*
X10194312Y-29900757D01*
X10194312Y-29900757D02*
X10265741Y-29972185D01*
X10265741Y-29972185D02*
X10337169Y-30115042D01*
X10337169Y-30115042D02*
X10337169Y-30543614D01*
X10337169Y-30543614D02*
X10265741Y-30686471D01*
X10265741Y-30686471D02*
X10194312Y-30757900D01*
X10194312Y-30757900D02*
X10051455Y-30829328D01*
X10051455Y-30829328D02*
X9765741Y-30829328D01*
X9765741Y-30829328D02*
X9622883Y-30757900D01*
X11551455Y-30757900D02*
X11408598Y-30829328D01*
X11408598Y-30829328D02*
X11122884Y-30829328D01*
X11122884Y-30829328D02*
X10980026Y-30757900D01*
X10980026Y-30757900D02*
X10908598Y-30615042D01*
X10908598Y-30615042D02*
X10908598Y-30043614D01*
X10908598Y-30043614D02*
X10980026Y-29900757D01*
X10980026Y-29900757D02*
X11122884Y-29829328D01*
X11122884Y-29829328D02*
X11408598Y-29829328D01*
X11408598Y-29829328D02*
X11551455Y-29900757D01*
X11551455Y-29900757D02*
X11622884Y-30043614D01*
X11622884Y-30043614D02*
X11622884Y-30186471D01*
X11622884Y-30186471D02*
X10908598Y-30329328D01*
X12265740Y-30829328D02*
X12265740Y-29829328D01*
X12265740Y-30115042D02*
X12337169Y-29972185D01*
X12337169Y-29972185D02*
X12408598Y-29900757D01*
X12408598Y-29900757D02*
X12551455Y-29829328D01*
X12551455Y-29829328D02*
X12694312Y-29829328D01*
X13194311Y-30686471D02*
X13265740Y-30757900D01*
X13265740Y-30757900D02*
X13194311Y-30829328D01*
X13194311Y-30829328D02*
X13122883Y-30757900D01*
X13122883Y-30757900D02*
X13194311Y-30686471D01*
X13194311Y-30686471D02*
X13194311Y-30829328D01*
X13908597Y-30829328D02*
X13908597Y-29329328D01*
X14051455Y-30257900D02*
X14480026Y-30829328D01*
X14480026Y-29829328D02*
X13908597Y-30400757D01*
X15122883Y-30829328D02*
X15122883Y-29829328D01*
X15122883Y-29329328D02*
X15051455Y-29400757D01*
X15051455Y-29400757D02*
X15122883Y-29472185D01*
X15122883Y-29472185D02*
X15194312Y-29400757D01*
X15194312Y-29400757D02*
X15122883Y-29329328D01*
X15122883Y-29329328D02*
X15122883Y-29472185D01*
X16480027Y-30757900D02*
X16337169Y-30829328D01*
X16337169Y-30829328D02*
X16051455Y-30829328D01*
X16051455Y-30829328D02*
X15908598Y-30757900D01*
X15908598Y-30757900D02*
X15837169Y-30686471D01*
X15837169Y-30686471D02*
X15765741Y-30543614D01*
X15765741Y-30543614D02*
X15765741Y-30115042D01*
X15765741Y-30115042D02*
X15837169Y-29972185D01*
X15837169Y-29972185D02*
X15908598Y-29900757D01*
X15908598Y-29900757D02*
X16051455Y-29829328D01*
X16051455Y-29829328D02*
X16337169Y-29829328D01*
X16337169Y-29829328D02*
X16480027Y-29900757D01*
X17765741Y-30829328D02*
X17765741Y-30043614D01*
X17765741Y-30043614D02*
X17694312Y-29900757D01*
X17694312Y-29900757D02*
X17551455Y-29829328D01*
X17551455Y-29829328D02*
X17265741Y-29829328D01*
X17265741Y-29829328D02*
X17122883Y-29900757D01*
X17765741Y-30757900D02*
X17622883Y-30829328D01*
X17622883Y-30829328D02*
X17265741Y-30829328D01*
X17265741Y-30829328D02*
X17122883Y-30757900D01*
X17122883Y-30757900D02*
X17051455Y-30615042D01*
X17051455Y-30615042D02*
X17051455Y-30472185D01*
X17051455Y-30472185D02*
X17122883Y-30329328D01*
X17122883Y-30329328D02*
X17265741Y-30257900D01*
X17265741Y-30257900D02*
X17622883Y-30257900D01*
X17622883Y-30257900D02*
X17765741Y-30186471D01*
X19122884Y-30829328D02*
X19122884Y-29329328D01*
X19122884Y-30757900D02*
X18980026Y-30829328D01*
X18980026Y-30829328D02*
X18694312Y-30829328D01*
X18694312Y-30829328D02*
X18551455Y-30757900D01*
X18551455Y-30757900D02*
X18480026Y-30686471D01*
X18480026Y-30686471D02*
X18408598Y-30543614D01*
X18408598Y-30543614D02*
X18408598Y-30115042D01*
X18408598Y-30115042D02*
X18480026Y-29972185D01*
X18480026Y-29972185D02*
X18551455Y-29900757D01*
X18551455Y-29900757D02*
X18694312Y-29829328D01*
X18694312Y-29829328D02*
X18980026Y-29829328D01*
X18980026Y-29829328D02*
X19122884Y-29900757D01*
X19480027Y-30972185D02*
X20622884Y-30972185D01*
X20980026Y-29829328D02*
X20980026Y-31329328D01*
X20980026Y-29900757D02*
X21122884Y-29829328D01*
X21122884Y-29829328D02*
X21408598Y-29829328D01*
X21408598Y-29829328D02*
X21551455Y-29900757D01*
X21551455Y-29900757D02*
X21622884Y-29972185D01*
X21622884Y-29972185D02*
X21694312Y-30115042D01*
X21694312Y-30115042D02*
X21694312Y-30543614D01*
X21694312Y-30543614D02*
X21622884Y-30686471D01*
X21622884Y-30686471D02*
X21551455Y-30757900D01*
X21551455Y-30757900D02*
X21408598Y-30829328D01*
X21408598Y-30829328D02*
X21122884Y-30829328D01*
X21122884Y-30829328D02*
X20980026Y-30757900D01*
X22980027Y-30757900D02*
X22837169Y-30829328D01*
X22837169Y-30829328D02*
X22551455Y-30829328D01*
X22551455Y-30829328D02*
X22408598Y-30757900D01*
X22408598Y-30757900D02*
X22337169Y-30686471D01*
X22337169Y-30686471D02*
X22265741Y-30543614D01*
X22265741Y-30543614D02*
X22265741Y-30115042D01*
X22265741Y-30115042D02*
X22337169Y-29972185D01*
X22337169Y-29972185D02*
X22408598Y-29900757D01*
X22408598Y-29900757D02*
X22551455Y-29829328D01*
X22551455Y-29829328D02*
X22837169Y-29829328D01*
X22837169Y-29829328D02*
X22980027Y-29900757D01*
X23622883Y-30829328D02*
X23622883Y-29329328D01*
X23622883Y-29900757D02*
X23765741Y-29829328D01*
X23765741Y-29829328D02*
X24051455Y-29829328D01*
X24051455Y-29829328D02*
X24194312Y-29900757D01*
X24194312Y-29900757D02*
X24265741Y-29972185D01*
X24265741Y-29972185D02*
X24337169Y-30115042D01*
X24337169Y-30115042D02*
X24337169Y-30543614D01*
X24337169Y-30543614D02*
X24265741Y-30686471D01*
X24265741Y-30686471D02*
X24194312Y-30757900D01*
X24194312Y-30757900D02*
X24051455Y-30829328D01*
X24051455Y-30829328D02*
X23765741Y-30829328D01*
X23765741Y-30829328D02*
X23622883Y-30757900D01*
D10*
D11*
X-7475800Y-25943200D02*
X100524200Y-25943200D01*
D10*
D11*
X-6091402Y-28057900D02*
X-5877116Y-28129328D01*
X-5877116Y-28129328D02*
X-5519974Y-28129328D01*
X-5519974Y-28129328D02*
X-5377116Y-28057900D01*
X-5377116Y-28057900D02*
X-5305688Y-27986471D01*
X-5305688Y-27986471D02*
X-5234259Y-27843614D01*
X-5234259Y-27843614D02*
X-5234259Y-27700757D01*
X-5234259Y-27700757D02*
X-5305688Y-27557900D01*
X-5305688Y-27557900D02*
X-5377116Y-27486471D01*
X-5377116Y-27486471D02*
X-5519974Y-27415042D01*
X-5519974Y-27415042D02*
X-5805688Y-27343614D01*
X-5805688Y-27343614D02*
X-5948545Y-27272185D01*
X-5948545Y-27272185D02*
X-6019974Y-27200757D01*
X-6019974Y-27200757D02*
X-6091402Y-27057900D01*
X-6091402Y-27057900D02*
X-6091402Y-26915042D01*
X-6091402Y-26915042D02*
X-6019974Y-26772185D01*
X-6019974Y-26772185D02*
X-5948545Y-26700757D01*
X-5948545Y-26700757D02*
X-5805688Y-26629328D01*
X-5805688Y-26629328D02*
X-5448545Y-26629328D01*
X-5448545Y-26629328D02*
X-5234259Y-26700757D01*
X-4591403Y-28129328D02*
X-4591403Y-26629328D01*
X-3948545Y-28129328D02*
X-3948545Y-27343614D01*
X-3948545Y-27343614D02*
X-4019974Y-27200757D01*
X-4019974Y-27200757D02*
X-4162831Y-27129328D01*
X-4162831Y-27129328D02*
X-4377117Y-27129328D01*
X-4377117Y-27129328D02*
X-4519974Y-27200757D01*
X-4519974Y-27200757D02*
X-4591403Y-27272185D01*
X-2662831Y-28057900D02*
X-2805688Y-28129328D01*
X-2805688Y-28129328D02*
X-3091402Y-28129328D01*
X-3091402Y-28129328D02*
X-3234260Y-28057900D01*
X-3234260Y-28057900D02*
X-3305688Y-27915042D01*
X-3305688Y-27915042D02*
X-3305688Y-27343614D01*
X-3305688Y-27343614D02*
X-3234260Y-27200757D01*
X-3234260Y-27200757D02*
X-3091402Y-27129328D01*
X-3091402Y-27129328D02*
X-2805688Y-27129328D01*
X-2805688Y-27129328D02*
X-2662831Y-27200757D01*
X-2662831Y-27200757D02*
X-2591402Y-27343614D01*
X-2591402Y-27343614D02*
X-2591402Y-27486471D01*
X-2591402Y-27486471D02*
X-3305688Y-27629328D01*
X-1377117Y-28057900D02*
X-1519974Y-28129328D01*
X-1519974Y-28129328D02*
X-1805688Y-28129328D01*
X-1805688Y-28129328D02*
X-1948546Y-28057900D01*
X-1948546Y-28057900D02*
X-2019974Y-27915042D01*
X-2019974Y-27915042D02*
X-2019974Y-27343614D01*
X-2019974Y-27343614D02*
X-1948546Y-27200757D01*
X-1948546Y-27200757D02*
X-1805688Y-27129328D01*
X-1805688Y-27129328D02*
X-1519974Y-27129328D01*
X-1519974Y-27129328D02*
X-1377117Y-27200757D01*
X-1377117Y-27200757D02*
X-1305688Y-27343614D01*
X-1305688Y-27343614D02*
X-1305688Y-27486471D01*
X-1305688Y-27486471D02*
X-2019974Y-27629328D01*
X-877117Y-27129328D02*
X-305689Y-27129328D01*
X-662832Y-26629328D02*
X-662832Y-27915042D01*
X-662832Y-27915042D02*
X-591403Y-28057900D01*
X-591403Y-28057900D02*
X-448546Y-28129328D01*
X-448546Y-28129328D02*
X-305689Y-28129328D01*
X194311Y-27986471D02*
X265740Y-28057900D01*
X265740Y-28057900D02*
X194311Y-28129328D01*
X194311Y-28129328D02*
X122883Y-28057900D01*
X122883Y-28057900D02*
X194311Y-27986471D01*
X194311Y-27986471D02*
X194311Y-28129328D01*
X194311Y-27200757D02*
X265740Y-27272185D01*
X265740Y-27272185D02*
X194311Y-27343614D01*
X194311Y-27343614D02*
X122883Y-27272185D01*
X122883Y-27272185D02*
X194311Y-27200757D01*
X194311Y-27200757D02*
X194311Y-27343614D01*
D10*
D12*
X-5492718Y-25692957D02*
X-5564147Y-25621528D01*
X-5564147Y-25621528D02*
X-5707004Y-25407242D01*
X-5707004Y-25407242D02*
X-5778432Y-25264385D01*
X-5778432Y-25264385D02*
X-5849861Y-25050100D01*
X-5849861Y-25050100D02*
X-5921290Y-24692957D01*
X-5921290Y-24692957D02*
X-5921290Y-24407242D01*
X-5921290Y-24407242D02*
X-5849861Y-24050100D01*
X-5849861Y-24050100D02*
X-5778432Y-23835814D01*
X-5778432Y-23835814D02*
X-5707004Y-23692957D01*
X-5707004Y-23692957D02*
X-5564147Y-23478671D01*
X-5564147Y-23478671D02*
X-5492718Y-23407242D01*
X-4064147Y-24978671D02*
X-4135575Y-25050100D01*
X-4135575Y-25050100D02*
X-4349861Y-25121528D01*
X-4349861Y-25121528D02*
X-4492718Y-25121528D01*
X-4492718Y-25121528D02*
X-4707004Y-25050100D01*
X-4707004Y-25050100D02*
X-4849861Y-24907242D01*
X-4849861Y-24907242D02*
X-4921290Y-24764385D01*
X-4921290Y-24764385D02*
X-4992718Y-24478671D01*
X-4992718Y-24478671D02*
X-4992718Y-24264385D01*
X-4992718Y-24264385D02*
X-4921290Y-23978671D01*
X-4921290Y-23978671D02*
X-4849861Y-23835814D01*
X-4849861Y-23835814D02*
X-4707004Y-23692957D01*
X-4707004Y-23692957D02*
X-4492718Y-23621528D01*
X-4492718Y-23621528D02*
X-4349861Y-23621528D01*
X-4349861Y-23621528D02*
X-4135575Y-23692957D01*
X-4135575Y-23692957D02*
X-4064147Y-23764385D01*
X-3564147Y-25692957D02*
X-3492718Y-25621528D01*
X-3492718Y-25621528D02*
X-3349861Y-25407242D01*
X-3349861Y-25407242D02*
X-3278432Y-25264385D01*
X-3278432Y-25264385D02*
X-3207004Y-25050100D01*
X-3207004Y-25050100D02*
X-3135575Y-24692957D01*
X-3135575Y-24692957D02*
X-3135575Y-24407242D01*
X-3135575Y-24407242D02*
X-3207004Y-24050100D01*
X-3207004Y-24050100D02*
X-3278432Y-23835814D01*
X-3278432Y-23835814D02*
X-3349861Y-23692957D01*
X-3349861Y-23692957D02*
X-3492718Y-23478671D01*
X-3492718Y-23478671D02*
X-3564147Y-23407242D01*
X-1421290Y-23621528D02*
X-1064147Y-25121528D01*
X-1064147Y-25121528D02*
X-778433Y-24050100D01*
X-778433Y-24050100D02*
X-492718Y-25121528D01*
X-492718Y-25121528D02*
X-135575Y-23621528D01*
X650139Y-25121528D02*
X507282Y-25050100D01*
X507282Y-25050100D02*
X435853Y-24978671D01*
X435853Y-24978671D02*
X364425Y-24835814D01*
X364425Y-24835814D02*
X364425Y-24407242D01*
X364425Y-24407242D02*
X435853Y-24264385D01*
X435853Y-24264385D02*
X507282Y-24192957D01*
X507282Y-24192957D02*
X650139Y-24121528D01*
X650139Y-24121528D02*
X864425Y-24121528D01*
X864425Y-24121528D02*
X1007282Y-24192957D01*
X1007282Y-24192957D02*
X1078711Y-24264385D01*
X1078711Y-24264385D02*
X1150139Y-24407242D01*
X1150139Y-24407242D02*
X1150139Y-24835814D01*
X1150139Y-24835814D02*
X1078711Y-24978671D01*
X1078711Y-24978671D02*
X1007282Y-25050100D01*
X1007282Y-25050100D02*
X864425Y-25121528D01*
X864425Y-25121528D02*
X650139Y-25121528D01*
X2435854Y-25121528D02*
X2435854Y-23621528D01*
X2435854Y-25050100D02*
X2292996Y-25121528D01*
X2292996Y-25121528D02*
X2007282Y-25121528D01*
X2007282Y-25121528D02*
X1864425Y-25050100D01*
X1864425Y-25050100D02*
X1792996Y-24978671D01*
X1792996Y-24978671D02*
X1721568Y-24835814D01*
X1721568Y-24835814D02*
X1721568Y-24407242D01*
X1721568Y-24407242D02*
X1792996Y-24264385D01*
X1792996Y-24264385D02*
X1864425Y-24192957D01*
X1864425Y-24192957D02*
X2007282Y-24121528D01*
X2007282Y-24121528D02*
X2292996Y-24121528D01*
X2292996Y-24121528D02*
X2435854Y-24192957D01*
X3364425Y-25121528D02*
X3221568Y-25050100D01*
X3221568Y-25050100D02*
X3150139Y-24978671D01*
X3150139Y-24978671D02*
X3078711Y-24835814D01*
X3078711Y-24835814D02*
X3078711Y-24407242D01*
X3078711Y-24407242D02*
X3150139Y-24264385D01*
X3150139Y-24264385D02*
X3221568Y-24192957D01*
X3221568Y-24192957D02*
X3364425Y-24121528D01*
X3364425Y-24121528D02*
X3578711Y-24121528D01*
X3578711Y-24121528D02*
X3721568Y-24192957D01*
X3721568Y-24192957D02*
X3792997Y-24264385D01*
X3792997Y-24264385D02*
X3864425Y-24407242D01*
X3864425Y-24407242D02*
X3864425Y-24835814D01*
X3864425Y-24835814D02*
X3792997Y-24978671D01*
X3792997Y-24978671D02*
X3721568Y-25050100D01*
X3721568Y-25050100D02*
X3578711Y-25121528D01*
X3578711Y-25121528D02*
X3364425Y-25121528D01*
X4364425Y-23621528D02*
X4721568Y-25121528D01*
X4721568Y-25121528D02*
X5007282Y-24050100D01*
X5007282Y-24050100D02*
X5292997Y-25121528D01*
X5292997Y-25121528D02*
X5650140Y-23621528D01*
X6221568Y-25121528D02*
X6221568Y-24121528D01*
X6221568Y-23621528D02*
X6150140Y-23692957D01*
X6150140Y-23692957D02*
X6221568Y-23764385D01*
X6221568Y-23764385D02*
X6292997Y-23692957D01*
X6292997Y-23692957D02*
X6221568Y-23621528D01*
X6221568Y-23621528D02*
X6221568Y-23764385D01*
X7507283Y-25050100D02*
X7364426Y-25121528D01*
X7364426Y-25121528D02*
X7078712Y-25121528D01*
X7078712Y-25121528D02*
X6935854Y-25050100D01*
X6935854Y-25050100D02*
X6864426Y-24907242D01*
X6864426Y-24907242D02*
X6864426Y-24335814D01*
X6864426Y-24335814D02*
X6935854Y-24192957D01*
X6935854Y-24192957D02*
X7078712Y-24121528D01*
X7078712Y-24121528D02*
X7364426Y-24121528D01*
X7364426Y-24121528D02*
X7507283Y-24192957D01*
X7507283Y-24192957D02*
X7578712Y-24335814D01*
X7578712Y-24335814D02*
X7578712Y-24478671D01*
X7578712Y-24478671D02*
X6864426Y-24621528D01*
X8150140Y-25050100D02*
X8292997Y-25121528D01*
X8292997Y-25121528D02*
X8578711Y-25121528D01*
X8578711Y-25121528D02*
X8721568Y-25050100D01*
X8721568Y-25050100D02*
X8792997Y-24907242D01*
X8792997Y-24907242D02*
X8792997Y-24835814D01*
X8792997Y-24835814D02*
X8721568Y-24692957D01*
X8721568Y-24692957D02*
X8578711Y-24621528D01*
X8578711Y-24621528D02*
X8364426Y-24621528D01*
X8364426Y-24621528D02*
X8221568Y-24550100D01*
X8221568Y-24550100D02*
X8150140Y-24407242D01*
X8150140Y-24407242D02*
X8150140Y-24335814D01*
X8150140Y-24335814D02*
X8221568Y-24192957D01*
X8221568Y-24192957D02*
X8364426Y-24121528D01*
X8364426Y-24121528D02*
X8578711Y-24121528D01*
X8578711Y-24121528D02*
X8721568Y-24192957D01*
X10007283Y-25050100D02*
X9864426Y-25121528D01*
X9864426Y-25121528D02*
X9578712Y-25121528D01*
X9578712Y-25121528D02*
X9435854Y-25050100D01*
X9435854Y-25050100D02*
X9364426Y-24907242D01*
X9364426Y-24907242D02*
X9364426Y-24335814D01*
X9364426Y-24335814D02*
X9435854Y-24192957D01*
X9435854Y-24192957D02*
X9578712Y-24121528D01*
X9578712Y-24121528D02*
X9864426Y-24121528D01*
X9864426Y-24121528D02*
X10007283Y-24192957D01*
X10007283Y-24192957D02*
X10078712Y-24335814D01*
X10078712Y-24335814D02*
X10078712Y-24478671D01*
X10078712Y-24478671D02*
X9364426Y-24621528D01*
X10935854Y-25121528D02*
X10792997Y-25050100D01*
X10792997Y-25050100D02*
X10721568Y-24907242D01*
X10721568Y-24907242D02*
X10721568Y-23621528D01*
D10*
D11*
X12524200Y-35943200D02*
X12524200Y-38943200D01*
D10*
D11*
X76524200Y-35943200D02*
X76524200Y-42443200D01*
D14*
%TO.C,J1*%
X65644000Y60866000D03*
X65644000Y59366000D03*
X65644000Y57866000D03*
X65644000Y56366000D03*
X65644000Y54866000D03*
X65644000Y53366000D03*
X65644000Y51866000D03*
X65644000Y50366000D03*
X65644000Y48866000D03*
X65644000Y47366000D03*
X65644000Y45866000D03*
X65644000Y44366000D03*
X65644000Y42866000D03*
X65644000Y41366000D03*
X65644000Y39866000D03*
X65644000Y38366000D03*
X65644000Y36866000D03*
X65644000Y35366000D03*
X65644000Y33866000D03*
X65644000Y32366000D03*
X65644000Y30866000D03*
X65644000Y29366000D03*
X65644000Y27866000D03*
X65644000Y26366000D03*
X65644000Y24866000D03*
X65644000Y23366000D03*
X65644000Y21866000D03*
X65644000Y20366000D03*
X65644000Y18866000D03*
X65644000Y17366000D03*
X65644000Y15866000D03*
X65644000Y14366000D03*
D15*
X85844000Y50616000D03*
X85844000Y24616000D03*
%TD*%
D16*
X89356000Y72000000D02*
X89356000Y24000D01*
X-100000Y72000000D02*
X89356000Y72000000D01*
X0Y0D02*
X-100000Y72000000D01*
X89356000Y24000D02*
X0Y0D01*
M02*
