%TF.GenerationSoftware,KiCad,Pcbnew,8.0.3*%
%TF.CreationDate,2024-06-28T19:00:09+02:00*%
%TF.ProjectId,GB-Dumper,47422d44-756d-4706-9572-2e6b69636164,0.83*%
%TF.SameCoordinates,PXafee930PY945b7e0*%
%TF.FileFunction,Plated,1,2,PTH,Drill*%
%TF.FilePolarity,Positive*%
%FSLAX46Y46*%
G04 Gerber Fmt 4.6, Leading zero omitted, Abs format (unit mm)*
G04 Created by KiCad (PCBNEW 8.0.3) date 2024-06-28 19:00:09*
%MOMM*%
%LPD*%
G01*
G04 APERTURE LIST*
%TA.AperFunction,ViaDrill*%
%ADD10C,0.400000*%
%TD*%
%TA.AperFunction,ComponentDrill*%
%ADD11C,0.600000*%
%TD*%
%TA.AperFunction,ComponentDrill*%
%ADD12C,0.700000*%
%TD*%
%TA.AperFunction,ComponentDrill*%
%ADD13C,0.800000*%
%TD*%
%TA.AperFunction,ComponentDrill*%
%ADD14C,0.900000*%
%TD*%
%TA.AperFunction,ComponentDrill*%
%ADD15C,1.000000*%
%TD*%
%TA.AperFunction,ComponentDrill*%
%ADD16C,1.100000*%
%TD*%
%TA.AperFunction,ComponentDrill*%
%ADD17C,1.200000*%
%TD*%
%TA.AperFunction,ComponentDrill*%
%ADD18C,3.200000*%
%TD*%
G04 APERTURE END LIST*
D10*
X1810000Y3470000D03*
X6762000Y17474000D03*
X6922000Y48514000D03*
X8362000Y70564000D03*
X9232000Y15044000D03*
X9382000Y10924000D03*
X10402000Y25774000D03*
X11382000Y28934000D03*
X13972000Y13544000D03*
X14252000Y19534000D03*
X16492000Y15104000D03*
X17122000Y2224000D03*
X18490000Y17042000D03*
X18490000Y10946000D03*
X21752000Y17194000D03*
X22982000Y18464000D03*
X24192000Y3984000D03*
X24702000Y24284000D03*
X24742000Y15774000D03*
X26002000Y32034000D03*
X26242000Y37034000D03*
X26792000Y60994000D03*
X29374500Y54888000D03*
X29462000Y56044000D03*
X29470000Y57310000D03*
X29898000Y26278000D03*
X30292000Y24884000D03*
X30682000Y55665500D03*
X30700000Y13275000D03*
X31294000Y41448000D03*
X31400000Y32800000D03*
X31444000Y49808000D03*
X31500000Y58100000D03*
X32714000Y51623500D03*
X32818000Y26462000D03*
X32850000Y46450000D03*
X33220000Y25200000D03*
X33302000Y13284000D03*
X33602000Y58104000D03*
X33984000Y49808000D03*
X34379500Y41448000D03*
X35254000Y31520000D03*
X35780000Y26600000D03*
X36232511Y41525000D03*
X36270000Y48048267D03*
X36322000Y13284000D03*
X36778000Y49046000D03*
X36780000Y58010000D03*
X36867000Y15699000D03*
X37660000Y27790000D03*
X37672000Y62604000D03*
X37794000Y32536000D03*
X37962000Y40674000D03*
X39064000Y48030000D03*
X39092000Y43054000D03*
X39662000Y58034000D03*
X40072000Y65654000D03*
X40330000Y45440000D03*
X40400000Y33500000D03*
X40842000Y35584000D03*
X41048022Y41525000D03*
X42002000Y47044000D03*
X42902000Y58034000D03*
X42932000Y40234000D03*
X43112000Y33864000D03*
X43128000Y35584000D03*
X43712000Y14424000D03*
X44542000Y41614000D03*
X45097930Y46438211D03*
X45152000Y62574000D03*
X45668000Y35584000D03*
X45702000Y43404000D03*
X47552000Y58024000D03*
X48082000Y41654000D03*
X48092000Y43224000D03*
X48422000Y29230000D03*
X48562000Y67244000D03*
X50002000Y38644000D03*
X50032000Y4064000D03*
X50042000Y40954000D03*
X50502000Y62744000D03*
X51842000Y53104000D03*
X53952000Y16364000D03*
X55052000Y39564000D03*
X55082000Y36374000D03*
X56432000Y46364000D03*
X56472000Y44264000D03*
X56502000Y51744000D03*
X62432000Y40934000D03*
X63422000Y17584000D03*
X63460000Y21340000D03*
X64622000Y7494000D03*
X65672000Y12644000D03*
X67922000Y4414000D03*
X72820000Y37320000D03*
X75652000Y69214000D03*
X85800000Y54888000D03*
X85800000Y20344000D03*
X87570000Y70310000D03*
X88090000Y37360000D03*
D11*
%TO.C,C1*%
X71844600Y69394000D03*
X73844600Y69394000D03*
D12*
%TO.C,R2*%
X53790000Y59000000D03*
%TO.C,R3*%
X53790000Y56700000D03*
%TO.C,R4*%
X53790000Y54300000D03*
%TO.C,R1*%
X54502000Y1934000D03*
%TO.C,R5*%
X56172000Y4104000D03*
%TO.C,R2*%
X61410000Y59000000D03*
%TO.C,R3*%
X61410000Y56700000D03*
%TO.C,R4*%
X61410000Y54300000D03*
%TO.C,R1*%
X62122000Y1934000D03*
%TO.C,R5*%
X63792000Y4104000D03*
D13*
%TO.C,U2*%
X31429000Y44718000D03*
X31429000Y37098000D03*
%TO.C,U1*%
X31459000Y60994000D03*
X31459000Y53374000D03*
%TO.C,U2*%
X33969000Y44718000D03*
X33969000Y37098000D03*
%TO.C,U1*%
X33999000Y60994000D03*
X33999000Y53374000D03*
%TO.C,U2*%
X36509000Y44718000D03*
X36509000Y37098000D03*
%TO.C,U1*%
X36539000Y60994000D03*
X36539000Y53374000D03*
%TO.C,U2*%
X39049000Y44718000D03*
X39049000Y37098000D03*
%TO.C,U1*%
X39079000Y60994000D03*
X39079000Y53374000D03*
%TO.C,U2*%
X41589000Y44718000D03*
X41589000Y37098000D03*
%TO.C,U1*%
X41619000Y60994000D03*
X41619000Y53374000D03*
%TO.C,U2*%
X44129000Y44718000D03*
X44129000Y37098000D03*
%TO.C,U1*%
X44159000Y60994000D03*
X44159000Y53374000D03*
%TO.C,U2*%
X46669000Y44718000D03*
X46669000Y37098000D03*
%TO.C,U1*%
X46699000Y60994000D03*
X46699000Y53374000D03*
%TO.C,U2*%
X49209000Y44718000D03*
X49209000Y37098000D03*
%TO.C,U1*%
X49239000Y60994000D03*
X49239000Y53374000D03*
D14*
%TO.C,SW1*%
X53342000Y66364000D03*
X57342000Y66364000D03*
X61342000Y66364000D03*
D15*
%TO.C,J7*%
X6652000Y32794000D03*
X6652000Y30254000D03*
X6652000Y27714000D03*
X6652000Y25174000D03*
X6652000Y22634000D03*
X6652000Y20094000D03*
%TO.C,A1*%
X15372000Y21374000D03*
X15372000Y6134000D03*
%TO.C,J2*%
X16582000Y30004000D03*
%TO.C,A1*%
X17912000Y21374000D03*
X17912000Y6134000D03*
%TO.C,J2*%
X19122000Y30004000D03*
%TO.C,A1*%
X20452000Y21374000D03*
X20452000Y6134000D03*
%TO.C,J2*%
X21662000Y30004000D03*
%TO.C,A1*%
X22992000Y21374000D03*
X22992000Y6134000D03*
X25532000Y21374000D03*
X25532000Y6134000D03*
X28072000Y21374000D03*
X28072000Y6134000D03*
X30612000Y21374000D03*
X30612000Y6134000D03*
X33152000Y21374000D03*
X33152000Y6134000D03*
X35692000Y21374000D03*
X35692000Y6134000D03*
X38232000Y21374000D03*
X38232000Y6134000D03*
X40772000Y21374000D03*
X40772000Y6134000D03*
%TO.C,J5*%
X41262000Y69614000D03*
%TO.C,A1*%
X43312000Y21374000D03*
X43312000Y6134000D03*
%TO.C,J5*%
X43802000Y69614000D03*
%TO.C,A1*%
X45852000Y21374000D03*
X45852000Y6134000D03*
%TO.C,J5*%
X46342000Y69614000D03*
%TO.C,A1*%
X48392000Y21374000D03*
X48392000Y6134000D03*
X50932000Y21374000D03*
X50932000Y6134000D03*
%TO.C,J4*%
X60542000Y15474000D03*
X60542000Y12934000D03*
X60542000Y10394000D03*
X60542000Y7854000D03*
%TO.C,J3*%
X73847000Y5784000D03*
X76387000Y5784000D03*
X78927000Y5784000D03*
D16*
%TO.C,BTN*%
X2532000Y45334000D03*
X2532000Y38834000D03*
X7032000Y45334000D03*
X7032000Y38834000D03*
D17*
%TO.C,TP1*%
X6622000Y2964000D03*
%TO.C,SW1*%
X51342000Y70614000D03*
X51342000Y64614000D03*
X63342000Y70614000D03*
X63342000Y64614000D03*
D18*
%TO.C,REF999\u002A\u002A*%
X4142000Y67844000D03*
%TO.C,REF888\u002A\u002A*%
X85092000Y4104000D03*
M02*
