%TF.GenerationSoftware,KiCad,Pcbnew,(6.0.4)*%
%TF.CreationDate,2023-10-13T20:42:21+02:00*%
%TF.ProjectId,GB-Dumper,47422d44-756d-4706-9572-2e6b69636164,0.7*%
%TF.SameCoordinates,Original*%
%TF.FileFunction,Plated,1,2,PTH,Drill*%
%TF.FilePolarity,Positive*%
%FSLAX46Y46*%
G04 Gerber Fmt 4.6, Leading zero omitted, Abs format (unit mm)*
G04 Created by KiCad (PCBNEW (6.0.4)) date 2023-10-13 20:42:21*
%MOMM*%
%LPD*%
G01*
G04 APERTURE LIST*
%TA.AperFunction,ViaDrill*%
%ADD10C,0.400000*%
%TD*%
%TA.AperFunction,ComponentDrill*%
%ADD11C,0.500000*%
%TD*%
%TA.AperFunction,ComponentDrill*%
%ADD12C,0.600000*%
%TD*%
%TA.AperFunction,ComponentDrill*%
%ADD13C,0.700000*%
%TD*%
%TA.AperFunction,ComponentDrill*%
%ADD14C,0.800000*%
%TD*%
%TA.AperFunction,ComponentDrill*%
%ADD15C,1.000000*%
%TD*%
%TA.AperFunction,ComponentDrill*%
%ADD16C,3.200000*%
%TD*%
G04 APERTURE END LIST*
D10*
X186288000Y-152094000D03*
X186778000Y-115864000D03*
X194078000Y-144714000D03*
X194128000Y-138589000D03*
X194178000Y-84664000D03*
X194278000Y-131364000D03*
X198678000Y-142089000D03*
X201253000Y-131739000D03*
X202968000Y-138522000D03*
X202968000Y-144618000D03*
X205088000Y-136414000D03*
X206278000Y-125264000D03*
X209368000Y-135424000D03*
X210577500Y-116864000D03*
X211578000Y-131864000D03*
X211768000Y-94394000D03*
X213768000Y-99534000D03*
X213852500Y-100676000D03*
X213890000Y-152238000D03*
X213948000Y-98254000D03*
X214652000Y-129378000D03*
X215160000Y-99898500D03*
X215178000Y-142289000D03*
X215478000Y-131464000D03*
X215772000Y-114116000D03*
X215878000Y-122764000D03*
X215922000Y-105756000D03*
X215978000Y-97464000D03*
X217192000Y-103940500D03*
X217296000Y-129102000D03*
X217328000Y-109114000D03*
X217355464Y-89886536D03*
X217698000Y-130364000D03*
X217728000Y-142214000D03*
X217991500Y-97464000D03*
X218462000Y-105756000D03*
X218857500Y-114116000D03*
X219732000Y-124044000D03*
X220258000Y-128964000D03*
X220710511Y-114039000D03*
X220748000Y-107515733D03*
X221256000Y-106518000D03*
X221258000Y-97554000D03*
X221878000Y-84664000D03*
X221878000Y-92964000D03*
X222138000Y-127774000D03*
X222272000Y-123028000D03*
X223542000Y-107534000D03*
X223753000Y-114064000D03*
X223934821Y-97520821D03*
X224288536Y-90023464D03*
X224808000Y-110124000D03*
X224818000Y-103054000D03*
X224878000Y-122064000D03*
X224978000Y-126514000D03*
X225320000Y-119980000D03*
X225526022Y-114039000D03*
X226336000Y-152238000D03*
X226607989Y-108296000D03*
X226948000Y-97424000D03*
X227128000Y-141164000D03*
X227208000Y-115464000D03*
X227606000Y-119980000D03*
X227649282Y-121178617D03*
X227778000Y-154764000D03*
X228698000Y-114414000D03*
X229128000Y-133063500D03*
X229128000Y-152214000D03*
X229575930Y-109125789D03*
X229878000Y-92964000D03*
X230018000Y-121144000D03*
X230108000Y-112964000D03*
X230146000Y-119980000D03*
X232348000Y-113934000D03*
X232438000Y-112454000D03*
X232438000Y-119984000D03*
X232678000Y-97464000D03*
X233218000Y-114794000D03*
X234464000Y-116678000D03*
X234488000Y-114504000D03*
X234578000Y-147364000D03*
X235778000Y-102964000D03*
X238508000Y-139024000D03*
X238528000Y-110836000D03*
X241478000Y-134264000D03*
X247378000Y-91364000D03*
X247478000Y-111064000D03*
X247618000Y-101914000D03*
X247678000Y-98064000D03*
X247678000Y-118264000D03*
X247858000Y-137824000D03*
X247938000Y-134224000D03*
X250128000Y-143464000D03*
X257298000Y-118244000D03*
X261878000Y-84464000D03*
X261878000Y-154764000D03*
X270278000Y-100676000D03*
X270278000Y-135220000D03*
X272048000Y-85254000D03*
X272568000Y-118204000D03*
D11*
%TO.C,REF6*%
X186078000Y-87564000D03*
X186780944Y-85866944D03*
X186780944Y-89261056D03*
X188478000Y-85164000D03*
X188478000Y-89964000D03*
X190175056Y-85866944D03*
X190175056Y-89261056D03*
X190878000Y-87564000D03*
%TO.C,REF7*%
X267578000Y-151564000D03*
X268280944Y-149866944D03*
X268280944Y-153261056D03*
X269978000Y-149164000D03*
X269978000Y-153964000D03*
X271675056Y-149866944D03*
X271675056Y-153261056D03*
X272378000Y-151564000D03*
D12*
%TO.C,C1*%
X188508000Y-152064000D03*
X190508000Y-152064000D03*
D13*
%TO.C,R1*%
X238228000Y-93464000D03*
%TO.C,R2*%
X238268000Y-96564000D03*
%TO.C,R3*%
X238268000Y-98864000D03*
%TO.C,R4*%
X238268000Y-101264000D03*
%TO.C,R5*%
X241168000Y-149064000D03*
%TO.C,R1*%
X245848000Y-93464000D03*
%TO.C,R2*%
X245888000Y-96564000D03*
%TO.C,R3*%
X245888000Y-98864000D03*
%TO.C,R4*%
X245888000Y-101264000D03*
%TO.C,R5*%
X248788000Y-149064000D03*
D14*
%TO.C,U2*%
X215907000Y-110846000D03*
X215907000Y-118466000D03*
%TO.C,U1*%
X215937000Y-94570000D03*
X215937000Y-102190000D03*
%TO.C,U2*%
X218447000Y-110846000D03*
X218447000Y-118466000D03*
%TO.C,U1*%
X218477000Y-94570000D03*
X218477000Y-102190000D03*
%TO.C,U2*%
X220987000Y-110846000D03*
X220987000Y-118466000D03*
%TO.C,U1*%
X221017000Y-94570000D03*
X221017000Y-102190000D03*
%TO.C,U2*%
X223527000Y-110846000D03*
X223527000Y-118466000D03*
%TO.C,U1*%
X223557000Y-94570000D03*
X223557000Y-102190000D03*
%TO.C,U2*%
X226067000Y-110846000D03*
X226067000Y-118466000D03*
%TO.C,U1*%
X226097000Y-94570000D03*
X226097000Y-102190000D03*
%TO.C,U2*%
X228607000Y-110846000D03*
X228607000Y-118466000D03*
%TO.C,U1*%
X228637000Y-94570000D03*
X228637000Y-102190000D03*
%TO.C,U2*%
X231147000Y-110846000D03*
X231147000Y-118466000D03*
%TO.C,U1*%
X231177000Y-94570000D03*
X231177000Y-102190000D03*
%TO.C,U2*%
X233687000Y-110846000D03*
X233687000Y-118466000D03*
%TO.C,U1*%
X233717000Y-94570000D03*
X233717000Y-102190000D03*
%TO.C,J4*%
X244478000Y-140114000D03*
X244478000Y-142114000D03*
X244478000Y-144114000D03*
X244478000Y-146114000D03*
D15*
%TO.C,A1*%
X199920000Y-133960000D03*
X199920000Y-149200000D03*
X202460000Y-133960000D03*
X202460000Y-149200000D03*
X205000000Y-133960000D03*
X205000000Y-149200000D03*
X207540000Y-133960000D03*
X207540000Y-149200000D03*
X210080000Y-133960000D03*
X210080000Y-149200000D03*
X212620000Y-133960000D03*
X212620000Y-149200000D03*
X215160000Y-133960000D03*
X215160000Y-149200000D03*
X217700000Y-133960000D03*
X217700000Y-149200000D03*
X220240000Y-133960000D03*
X220240000Y-149200000D03*
X222780000Y-133960000D03*
X222780000Y-149200000D03*
X225320000Y-133960000D03*
X225320000Y-149200000D03*
X227860000Y-133960000D03*
X227860000Y-149200000D03*
X230400000Y-133960000D03*
X230400000Y-149200000D03*
X232940000Y-133960000D03*
X232940000Y-149200000D03*
X235480000Y-133960000D03*
X235480000Y-149200000D03*
%TO.C,J2*%
X239898000Y-90164000D03*
X242438000Y-90164000D03*
%TO.C,J3*%
X243303000Y-153164000D03*
%TO.C,J2*%
X244978000Y-90164000D03*
%TO.C,J3*%
X245843000Y-153164000D03*
D16*
%TO.C,REF6*%
X188478000Y-87564000D03*
%TO.C,REF7*%
X269978000Y-151564000D03*
M02*
