%TF.GenerationSoftware,KiCad,Pcbnew,(6.0.4)*%
%TF.CreationDate,2023-10-13T20:42:48+02:00*%
%TF.ProjectId,GB-Dumper,47422d44-756d-4706-9572-2e6b69636164,0.7*%
%TF.SameCoordinates,Original*%
%TF.FileFunction,Soldermask,Top*%
%TF.FilePolarity,Negative*%
%FSLAX46Y46*%
G04 Gerber Fmt 4.6, Leading zero omitted, Abs format (unit mm)*
G04 Created by KiCad (PCBNEW (6.0.4)) date 2023-10-13 20:42:48*
%MOMM*%
%LPD*%
G01*
G04 APERTURE LIST*
%ADD10C,0.100000*%
%ADD11C,0.150000*%
%ADD12C,0.300000*%
%ADD13C,0.400000*%
%TA.AperFunction,Profile*%
%ADD14C,0.150000*%
%TD*%
%ADD15C,0.010000*%
%ADD16C,2.000000*%
%ADD17R,2.400000X1.000000*%
%ADD18R,3.000000X6.000000*%
%ADD19C,1.600000*%
%ADD20O,1.600000X1.600000*%
%ADD21R,1.600000X1.600000*%
%ADD22C,1.400000*%
%ADD23O,1.400000X1.400000*%
%ADD24R,1.350000X1.350000*%
%ADD25O,1.350000X1.350000*%
%ADD26R,1.200000X1.200000*%
%ADD27C,1.200000*%
%ADD28C,0.800000*%
%ADD29C,6.400000*%
G04 APERTURE END LIST*
D10*
D11*
X177002200Y-166007200D02*
X177002200Y-198007200D01*
X285002200Y-198007200D01*
X285002200Y-166007200D01*
X177002200Y-166007200D01*
D10*
D11*
X10000000Y-10000000D02*
X10000000Y-200007200D01*
X287002200Y-200007200D01*
X287002200Y-10000000D01*
X10000000Y-10000000D01*
D10*
D11*
X12000000Y-12000000D02*
X12000000Y-198007200D01*
X285002200Y-198007200D01*
X285002200Y-12000000D01*
X12000000Y-12000000D01*
D10*
D11*
X60000000Y-12000000D02*
X60000000Y-10000000D01*
D10*
D11*
X110000000Y-12000000D02*
X110000000Y-10000000D01*
D10*
D11*
X160000000Y-12000000D02*
X160000000Y-10000000D01*
D10*
D11*
X210000000Y-12000000D02*
X210000000Y-10000000D01*
D10*
D11*
X260000000Y-12000000D02*
X260000000Y-10000000D01*
D10*
D11*
X36065476Y-11588095D02*
X35322619Y-11588095D01*
X35694047Y-11588095D02*
X35694047Y-10288095D01*
X35570238Y-10473809D01*
X35446428Y-10597619D01*
X35322619Y-10659523D01*
D10*
D11*
X85322619Y-10411904D02*
X85384523Y-10350000D01*
X85508333Y-10288095D01*
X85817857Y-10288095D01*
X85941666Y-10350000D01*
X86003571Y-10411904D01*
X86065476Y-10535714D01*
X86065476Y-10659523D01*
X86003571Y-10845238D01*
X85260714Y-11588095D01*
X86065476Y-11588095D01*
D10*
D11*
X135260714Y-10288095D02*
X136065476Y-10288095D01*
X135632142Y-10783333D01*
X135817857Y-10783333D01*
X135941666Y-10845238D01*
X136003571Y-10907142D01*
X136065476Y-11030952D01*
X136065476Y-11340476D01*
X136003571Y-11464285D01*
X135941666Y-11526190D01*
X135817857Y-11588095D01*
X135446428Y-11588095D01*
X135322619Y-11526190D01*
X135260714Y-11464285D01*
D10*
D11*
X185941666Y-10721428D02*
X185941666Y-11588095D01*
X185632142Y-10226190D02*
X185322619Y-11154761D01*
X186127380Y-11154761D01*
D10*
D11*
X236003571Y-10288095D02*
X235384523Y-10288095D01*
X235322619Y-10907142D01*
X235384523Y-10845238D01*
X235508333Y-10783333D01*
X235817857Y-10783333D01*
X235941666Y-10845238D01*
X236003571Y-10907142D01*
X236065476Y-11030952D01*
X236065476Y-11340476D01*
X236003571Y-11464285D01*
X235941666Y-11526190D01*
X235817857Y-11588095D01*
X235508333Y-11588095D01*
X235384523Y-11526190D01*
X235322619Y-11464285D01*
D10*
D11*
X285941666Y-10288095D02*
X285694047Y-10288095D01*
X285570238Y-10350000D01*
X285508333Y-10411904D01*
X285384523Y-10597619D01*
X285322619Y-10845238D01*
X285322619Y-11340476D01*
X285384523Y-11464285D01*
X285446428Y-11526190D01*
X285570238Y-11588095D01*
X285817857Y-11588095D01*
X285941666Y-11526190D01*
X286003571Y-11464285D01*
X286065476Y-11340476D01*
X286065476Y-11030952D01*
X286003571Y-10907142D01*
X285941666Y-10845238D01*
X285817857Y-10783333D01*
X285570238Y-10783333D01*
X285446428Y-10845238D01*
X285384523Y-10907142D01*
X285322619Y-11030952D01*
D10*
D11*
X60000000Y-198007200D02*
X60000000Y-200007200D01*
D10*
D11*
X110000000Y-198007200D02*
X110000000Y-200007200D01*
D10*
D11*
X160000000Y-198007200D02*
X160000000Y-200007200D01*
D10*
D11*
X210000000Y-198007200D02*
X210000000Y-200007200D01*
D10*
D11*
X260000000Y-198007200D02*
X260000000Y-200007200D01*
D10*
D11*
X36065476Y-199595295D02*
X35322619Y-199595295D01*
X35694047Y-199595295D02*
X35694047Y-198295295D01*
X35570238Y-198481009D01*
X35446428Y-198604819D01*
X35322619Y-198666723D01*
D10*
D11*
X85322619Y-198419104D02*
X85384523Y-198357200D01*
X85508333Y-198295295D01*
X85817857Y-198295295D01*
X85941666Y-198357200D01*
X86003571Y-198419104D01*
X86065476Y-198542914D01*
X86065476Y-198666723D01*
X86003571Y-198852438D01*
X85260714Y-199595295D01*
X86065476Y-199595295D01*
D10*
D11*
X135260714Y-198295295D02*
X136065476Y-198295295D01*
X135632142Y-198790533D01*
X135817857Y-198790533D01*
X135941666Y-198852438D01*
X136003571Y-198914342D01*
X136065476Y-199038152D01*
X136065476Y-199347676D01*
X136003571Y-199471485D01*
X135941666Y-199533390D01*
X135817857Y-199595295D01*
X135446428Y-199595295D01*
X135322619Y-199533390D01*
X135260714Y-199471485D01*
D10*
D11*
X185941666Y-198728628D02*
X185941666Y-199595295D01*
X185632142Y-198233390D02*
X185322619Y-199161961D01*
X186127380Y-199161961D01*
D10*
D11*
X236003571Y-198295295D02*
X235384523Y-198295295D01*
X235322619Y-198914342D01*
X235384523Y-198852438D01*
X235508333Y-198790533D01*
X235817857Y-198790533D01*
X235941666Y-198852438D01*
X236003571Y-198914342D01*
X236065476Y-199038152D01*
X236065476Y-199347676D01*
X236003571Y-199471485D01*
X235941666Y-199533390D01*
X235817857Y-199595295D01*
X235508333Y-199595295D01*
X235384523Y-199533390D01*
X235322619Y-199471485D01*
D10*
D11*
X285941666Y-198295295D02*
X285694047Y-198295295D01*
X285570238Y-198357200D01*
X285508333Y-198419104D01*
X285384523Y-198604819D01*
X285322619Y-198852438D01*
X285322619Y-199347676D01*
X285384523Y-199471485D01*
X285446428Y-199533390D01*
X285570238Y-199595295D01*
X285817857Y-199595295D01*
X285941666Y-199533390D01*
X286003571Y-199471485D01*
X286065476Y-199347676D01*
X286065476Y-199038152D01*
X286003571Y-198914342D01*
X285941666Y-198852438D01*
X285817857Y-198790533D01*
X285570238Y-198790533D01*
X285446428Y-198852438D01*
X285384523Y-198914342D01*
X285322619Y-199038152D01*
D10*
D11*
X10000000Y-60000000D02*
X12000000Y-60000000D01*
D10*
D11*
X10000000Y-110000000D02*
X12000000Y-110000000D01*
D10*
D11*
X10000000Y-160000000D02*
X12000000Y-160000000D01*
D10*
D11*
X10690476Y-35216666D02*
X11309523Y-35216666D01*
X10566666Y-35588095D02*
X11000000Y-34288095D01*
X11433333Y-35588095D01*
D10*
D11*
X11092857Y-84907142D02*
X11278571Y-84969047D01*
X11340476Y-85030952D01*
X11402380Y-85154761D01*
X11402380Y-85340476D01*
X11340476Y-85464285D01*
X11278571Y-85526190D01*
X11154761Y-85588095D01*
X10659523Y-85588095D01*
X10659523Y-84288095D01*
X11092857Y-84288095D01*
X11216666Y-84350000D01*
X11278571Y-84411904D01*
X11340476Y-84535714D01*
X11340476Y-84659523D01*
X11278571Y-84783333D01*
X11216666Y-84845238D01*
X11092857Y-84907142D01*
X10659523Y-84907142D01*
D10*
D11*
X11402380Y-135464285D02*
X11340476Y-135526190D01*
X11154761Y-135588095D01*
X11030952Y-135588095D01*
X10845238Y-135526190D01*
X10721428Y-135402380D01*
X10659523Y-135278571D01*
X10597619Y-135030952D01*
X10597619Y-134845238D01*
X10659523Y-134597619D01*
X10721428Y-134473809D01*
X10845238Y-134350000D01*
X11030952Y-134288095D01*
X11154761Y-134288095D01*
X11340476Y-134350000D01*
X11402380Y-134411904D01*
D10*
D11*
X10659523Y-185588095D02*
X10659523Y-184288095D01*
X10969047Y-184288095D01*
X11154761Y-184350000D01*
X11278571Y-184473809D01*
X11340476Y-184597619D01*
X11402380Y-184845238D01*
X11402380Y-185030952D01*
X11340476Y-185278571D01*
X11278571Y-185402380D01*
X11154761Y-185526190D01*
X10969047Y-185588095D01*
X10659523Y-185588095D01*
D10*
D11*
X287002200Y-60000000D02*
X285002200Y-60000000D01*
D10*
D11*
X287002200Y-110000000D02*
X285002200Y-110000000D01*
D10*
D11*
X287002200Y-160000000D02*
X285002200Y-160000000D01*
D10*
D11*
X285692676Y-35216666D02*
X286311723Y-35216666D01*
X285568866Y-35588095D02*
X286002200Y-34288095D01*
X286435533Y-35588095D01*
D10*
D11*
X286095057Y-84907142D02*
X286280771Y-84969047D01*
X286342676Y-85030952D01*
X286404580Y-85154761D01*
X286404580Y-85340476D01*
X286342676Y-85464285D01*
X286280771Y-85526190D01*
X286156961Y-85588095D01*
X285661723Y-85588095D01*
X285661723Y-84288095D01*
X286095057Y-84288095D01*
X286218866Y-84350000D01*
X286280771Y-84411904D01*
X286342676Y-84535714D01*
X286342676Y-84659523D01*
X286280771Y-84783333D01*
X286218866Y-84845238D01*
X286095057Y-84907142D01*
X285661723Y-84907142D01*
D10*
D11*
X286404580Y-135464285D02*
X286342676Y-135526190D01*
X286156961Y-135588095D01*
X286033152Y-135588095D01*
X285847438Y-135526190D01*
X285723628Y-135402380D01*
X285661723Y-135278571D01*
X285599819Y-135030952D01*
X285599819Y-134845238D01*
X285661723Y-134597619D01*
X285723628Y-134473809D01*
X285847438Y-134350000D01*
X286033152Y-134288095D01*
X286156961Y-134288095D01*
X286342676Y-134350000D01*
X286404580Y-134411904D01*
D10*
D11*
X285661723Y-185588095D02*
X285661723Y-184288095D01*
X285971247Y-184288095D01*
X286156961Y-184350000D01*
X286280771Y-184473809D01*
X286342676Y-184597619D01*
X286404580Y-184845238D01*
X286404580Y-185030952D01*
X286342676Y-185278571D01*
X286280771Y-185402380D01*
X286156961Y-185526190D01*
X285971247Y-185588095D01*
X285661723Y-185588095D01*
D10*
D11*
X200434342Y-193785771D02*
X200434342Y-192285771D01*
X200791485Y-192285771D01*
X201005771Y-192357200D01*
X201148628Y-192500057D01*
X201220057Y-192642914D01*
X201291485Y-192928628D01*
X201291485Y-193142914D01*
X201220057Y-193428628D01*
X201148628Y-193571485D01*
X201005771Y-193714342D01*
X200791485Y-193785771D01*
X200434342Y-193785771D01*
X202577200Y-193785771D02*
X202577200Y-193000057D01*
X202505771Y-192857200D01*
X202362914Y-192785771D01*
X202077200Y-192785771D01*
X201934342Y-192857200D01*
X202577200Y-193714342D02*
X202434342Y-193785771D01*
X202077200Y-193785771D01*
X201934342Y-193714342D01*
X201862914Y-193571485D01*
X201862914Y-193428628D01*
X201934342Y-193285771D01*
X202077200Y-193214342D01*
X202434342Y-193214342D01*
X202577200Y-193142914D01*
X203077200Y-192785771D02*
X203648628Y-192785771D01*
X203291485Y-192285771D02*
X203291485Y-193571485D01*
X203362914Y-193714342D01*
X203505771Y-193785771D01*
X203648628Y-193785771D01*
X204720057Y-193714342D02*
X204577200Y-193785771D01*
X204291485Y-193785771D01*
X204148628Y-193714342D01*
X204077200Y-193571485D01*
X204077200Y-193000057D01*
X204148628Y-192857200D01*
X204291485Y-192785771D01*
X204577200Y-192785771D01*
X204720057Y-192857200D01*
X204791485Y-193000057D01*
X204791485Y-193142914D01*
X204077200Y-193285771D01*
X205434342Y-193642914D02*
X205505771Y-193714342D01*
X205434342Y-193785771D01*
X205362914Y-193714342D01*
X205434342Y-193642914D01*
X205434342Y-193785771D01*
X205434342Y-192857200D02*
X205505771Y-192928628D01*
X205434342Y-193000057D01*
X205362914Y-192928628D01*
X205434342Y-192857200D01*
X205434342Y-193000057D01*
X207220057Y-192428628D02*
X207291485Y-192357200D01*
X207434342Y-192285771D01*
X207791485Y-192285771D01*
X207934342Y-192357200D01*
X208005771Y-192428628D01*
X208077200Y-192571485D01*
X208077200Y-192714342D01*
X208005771Y-192928628D01*
X207148628Y-193785771D01*
X208077200Y-193785771D01*
X209005771Y-192285771D02*
X209148628Y-192285771D01*
X209291485Y-192357200D01*
X209362914Y-192428628D01*
X209434342Y-192571485D01*
X209505771Y-192857200D01*
X209505771Y-193214342D01*
X209434342Y-193500057D01*
X209362914Y-193642914D01*
X209291485Y-193714342D01*
X209148628Y-193785771D01*
X209005771Y-193785771D01*
X208862914Y-193714342D01*
X208791485Y-193642914D01*
X208720057Y-193500057D01*
X208648628Y-193214342D01*
X208648628Y-192857200D01*
X208720057Y-192571485D01*
X208791485Y-192428628D01*
X208862914Y-192357200D01*
X209005771Y-192285771D01*
X210077200Y-192428628D02*
X210148628Y-192357200D01*
X210291485Y-192285771D01*
X210648628Y-192285771D01*
X210791485Y-192357200D01*
X210862914Y-192428628D01*
X210934342Y-192571485D01*
X210934342Y-192714342D01*
X210862914Y-192928628D01*
X210005771Y-193785771D01*
X210934342Y-193785771D01*
X211434342Y-192285771D02*
X212362914Y-192285771D01*
X211862914Y-192857200D01*
X212077200Y-192857200D01*
X212220057Y-192928628D01*
X212291485Y-193000057D01*
X212362914Y-193142914D01*
X212362914Y-193500057D01*
X212291485Y-193642914D01*
X212220057Y-193714342D01*
X212077200Y-193785771D01*
X211648628Y-193785771D01*
X211505771Y-193714342D01*
X211434342Y-193642914D01*
X213005771Y-193214342D02*
X214148628Y-193214342D01*
X215148628Y-192285771D02*
X215291485Y-192285771D01*
X215434342Y-192357200D01*
X215505771Y-192428628D01*
X215577200Y-192571485D01*
X215648628Y-192857200D01*
X215648628Y-193214342D01*
X215577200Y-193500057D01*
X215505771Y-193642914D01*
X215434342Y-193714342D01*
X215291485Y-193785771D01*
X215148628Y-193785771D01*
X215005771Y-193714342D01*
X214934342Y-193642914D01*
X214862914Y-193500057D01*
X214791485Y-193214342D01*
X214791485Y-192857200D01*
X214862914Y-192571485D01*
X214934342Y-192428628D01*
X215005771Y-192357200D01*
X215148628Y-192285771D01*
X217005771Y-192285771D02*
X216291485Y-192285771D01*
X216220057Y-193000057D01*
X216291485Y-192928628D01*
X216434342Y-192857200D01*
X216791485Y-192857200D01*
X216934342Y-192928628D01*
X217005771Y-193000057D01*
X217077200Y-193142914D01*
X217077200Y-193500057D01*
X217005771Y-193642914D01*
X216934342Y-193714342D01*
X216791485Y-193785771D01*
X216434342Y-193785771D01*
X216291485Y-193714342D01*
X216220057Y-193642914D01*
X217720057Y-193214342D02*
X218862914Y-193214342D01*
X220362914Y-193785771D02*
X219505771Y-193785771D01*
X219934342Y-193785771D02*
X219934342Y-192285771D01*
X219791485Y-192500057D01*
X219648628Y-192642914D01*
X219505771Y-192714342D01*
X221648628Y-192285771D02*
X221362914Y-192285771D01*
X221220057Y-192357200D01*
X221148628Y-192428628D01*
X221005771Y-192642914D01*
X220934342Y-192928628D01*
X220934342Y-193500057D01*
X221005771Y-193642914D01*
X221077200Y-193714342D01*
X221220057Y-193785771D01*
X221505771Y-193785771D01*
X221648628Y-193714342D01*
X221720057Y-193642914D01*
X221791485Y-193500057D01*
X221791485Y-193142914D01*
X221720057Y-193000057D01*
X221648628Y-192928628D01*
X221505771Y-192857200D01*
X221220057Y-192857200D01*
X221077200Y-192928628D01*
X221005771Y-193000057D01*
X220934342Y-193142914D01*
D10*
D11*
X177002200Y-194507200D02*
X285002200Y-194507200D01*
D10*
D11*
X178434342Y-196585771D02*
X178434342Y-195085771D01*
X179291485Y-196585771D02*
X178648628Y-195728628D01*
X179291485Y-195085771D02*
X178434342Y-195942914D01*
X179934342Y-196585771D02*
X179934342Y-195585771D01*
X179934342Y-195085771D02*
X179862914Y-195157200D01*
X179934342Y-195228628D01*
X180005771Y-195157200D01*
X179934342Y-195085771D01*
X179934342Y-195228628D01*
X181505771Y-196442914D02*
X181434342Y-196514342D01*
X181220057Y-196585771D01*
X181077200Y-196585771D01*
X180862914Y-196514342D01*
X180720057Y-196371485D01*
X180648628Y-196228628D01*
X180577200Y-195942914D01*
X180577200Y-195728628D01*
X180648628Y-195442914D01*
X180720057Y-195300057D01*
X180862914Y-195157200D01*
X181077200Y-195085771D01*
X181220057Y-195085771D01*
X181434342Y-195157200D01*
X181505771Y-195228628D01*
X182791485Y-196585771D02*
X182791485Y-195800057D01*
X182720057Y-195657200D01*
X182577200Y-195585771D01*
X182291485Y-195585771D01*
X182148628Y-195657200D01*
X182791485Y-196514342D02*
X182648628Y-196585771D01*
X182291485Y-196585771D01*
X182148628Y-196514342D01*
X182077200Y-196371485D01*
X182077200Y-196228628D01*
X182148628Y-196085771D01*
X182291485Y-196014342D01*
X182648628Y-196014342D01*
X182791485Y-195942914D01*
X184148628Y-196585771D02*
X184148628Y-195085771D01*
X184148628Y-196514342D02*
X184005771Y-196585771D01*
X183720057Y-196585771D01*
X183577200Y-196514342D01*
X183505771Y-196442914D01*
X183434342Y-196300057D01*
X183434342Y-195871485D01*
X183505771Y-195728628D01*
X183577200Y-195657200D01*
X183720057Y-195585771D01*
X184005771Y-195585771D01*
X184148628Y-195657200D01*
X186005771Y-195800057D02*
X186505771Y-195800057D01*
X186720057Y-196585771D02*
X186005771Y-196585771D01*
X186005771Y-195085771D01*
X186720057Y-195085771D01*
X187362914Y-196442914D02*
X187434342Y-196514342D01*
X187362914Y-196585771D01*
X187291485Y-196514342D01*
X187362914Y-196442914D01*
X187362914Y-196585771D01*
X188077200Y-196585771D02*
X188077200Y-195085771D01*
X188434342Y-195085771D01*
X188648628Y-195157200D01*
X188791485Y-195300057D01*
X188862914Y-195442914D01*
X188934342Y-195728628D01*
X188934342Y-195942914D01*
X188862914Y-196228628D01*
X188791485Y-196371485D01*
X188648628Y-196514342D01*
X188434342Y-196585771D01*
X188077200Y-196585771D01*
X189577200Y-196442914D02*
X189648628Y-196514342D01*
X189577200Y-196585771D01*
X189505771Y-196514342D01*
X189577200Y-196442914D01*
X189577200Y-196585771D01*
X190220057Y-196157200D02*
X190934342Y-196157200D01*
X190077200Y-196585771D02*
X190577200Y-195085771D01*
X191077200Y-196585771D01*
X191577200Y-196442914D02*
X191648628Y-196514342D01*
X191577200Y-196585771D01*
X191505771Y-196514342D01*
X191577200Y-196442914D01*
X191577200Y-196585771D01*
X194577200Y-196585771D02*
X194577200Y-195085771D01*
X194720057Y-196014342D02*
X195148628Y-196585771D01*
X195148628Y-195585771D02*
X194577200Y-196157200D01*
X195791485Y-196585771D02*
X195791485Y-195585771D01*
X195791485Y-195085771D02*
X195720057Y-195157200D01*
X195791485Y-195228628D01*
X195862914Y-195157200D01*
X195791485Y-195085771D01*
X195791485Y-195228628D01*
X197148628Y-196514342D02*
X197005771Y-196585771D01*
X196720057Y-196585771D01*
X196577200Y-196514342D01*
X196505771Y-196442914D01*
X196434342Y-196300057D01*
X196434342Y-195871485D01*
X196505771Y-195728628D01*
X196577200Y-195657200D01*
X196720057Y-195585771D01*
X197005771Y-195585771D01*
X197148628Y-195657200D01*
X198434342Y-196585771D02*
X198434342Y-195800057D01*
X198362914Y-195657200D01*
X198220057Y-195585771D01*
X197934342Y-195585771D01*
X197791485Y-195657200D01*
X198434342Y-196514342D02*
X198291485Y-196585771D01*
X197934342Y-196585771D01*
X197791485Y-196514342D01*
X197720057Y-196371485D01*
X197720057Y-196228628D01*
X197791485Y-196085771D01*
X197934342Y-196014342D01*
X198291485Y-196014342D01*
X198434342Y-195942914D01*
X199791485Y-196585771D02*
X199791485Y-195085771D01*
X199791485Y-196514342D02*
X199648628Y-196585771D01*
X199362914Y-196585771D01*
X199220057Y-196514342D01*
X199148628Y-196442914D01*
X199077200Y-196300057D01*
X199077200Y-195871485D01*
X199148628Y-195728628D01*
X199220057Y-195657200D01*
X199362914Y-195585771D01*
X199648628Y-195585771D01*
X199791485Y-195657200D01*
X202077200Y-197157200D02*
X202005771Y-197085771D01*
X201862914Y-196871485D01*
X201791485Y-196728628D01*
X201720057Y-196514342D01*
X201648628Y-196157200D01*
X201648628Y-195871485D01*
X201720057Y-195514342D01*
X201791485Y-195300057D01*
X201862914Y-195157200D01*
X202005771Y-194942914D01*
X202077200Y-194871485D01*
X203291485Y-195085771D02*
X203005771Y-195085771D01*
X202862914Y-195157200D01*
X202791485Y-195228628D01*
X202648628Y-195442914D01*
X202577200Y-195728628D01*
X202577200Y-196300057D01*
X202648628Y-196442914D01*
X202720057Y-196514342D01*
X202862914Y-196585771D01*
X203148628Y-196585771D01*
X203291485Y-196514342D01*
X203362914Y-196442914D01*
X203434342Y-196300057D01*
X203434342Y-195942914D01*
X203362914Y-195800057D01*
X203291485Y-195728628D01*
X203148628Y-195657200D01*
X202862914Y-195657200D01*
X202720057Y-195728628D01*
X202648628Y-195800057D01*
X202577200Y-195942914D01*
X204077200Y-196442914D02*
X204148628Y-196514342D01*
X204077200Y-196585771D01*
X204005771Y-196514342D01*
X204077200Y-196442914D01*
X204077200Y-196585771D01*
X205077200Y-195085771D02*
X205220057Y-195085771D01*
X205362914Y-195157200D01*
X205434342Y-195228628D01*
X205505771Y-195371485D01*
X205577200Y-195657200D01*
X205577200Y-196014342D01*
X205505771Y-196300057D01*
X205434342Y-196442914D01*
X205362914Y-196514342D01*
X205220057Y-196585771D01*
X205077200Y-196585771D01*
X204934342Y-196514342D01*
X204862914Y-196442914D01*
X204791485Y-196300057D01*
X204720057Y-196014342D01*
X204720057Y-195657200D01*
X204791485Y-195371485D01*
X204862914Y-195228628D01*
X204934342Y-195157200D01*
X205077200Y-195085771D01*
X206220057Y-196442914D02*
X206291485Y-196514342D01*
X206220057Y-196585771D01*
X206148628Y-196514342D01*
X206220057Y-196442914D01*
X206220057Y-196585771D01*
X207577200Y-195585771D02*
X207577200Y-196585771D01*
X207220057Y-195014342D02*
X206862914Y-196085771D01*
X207791485Y-196085771D01*
X208220057Y-197157200D02*
X208291485Y-197085771D01*
X208434342Y-196871485D01*
X208505771Y-196728628D01*
X208577200Y-196514342D01*
X208648628Y-196157200D01*
X208648628Y-195871485D01*
X208577200Y-195514342D01*
X208505771Y-195300057D01*
X208434342Y-195157200D01*
X208291485Y-194942914D01*
X208220057Y-194871485D01*
D10*
D11*
X177002200Y-191507200D02*
X285002200Y-191507200D01*
D10*
D12*
X264411485Y-193785771D02*
X263911485Y-193071485D01*
X263554342Y-193785771D02*
X263554342Y-192285771D01*
X264125771Y-192285771D01*
X264268628Y-192357200D01*
X264340057Y-192428628D01*
X264411485Y-192571485D01*
X264411485Y-192785771D01*
X264340057Y-192928628D01*
X264268628Y-193000057D01*
X264125771Y-193071485D01*
X263554342Y-193071485D01*
X265625771Y-193714342D02*
X265482914Y-193785771D01*
X265197200Y-193785771D01*
X265054342Y-193714342D01*
X264982914Y-193571485D01*
X264982914Y-193000057D01*
X265054342Y-192857200D01*
X265197200Y-192785771D01*
X265482914Y-192785771D01*
X265625771Y-192857200D01*
X265697200Y-193000057D01*
X265697200Y-193142914D01*
X264982914Y-193285771D01*
X266197200Y-192785771D02*
X266554342Y-193785771D01*
X266911485Y-192785771D01*
X267482914Y-193642914D02*
X267554342Y-193714342D01*
X267482914Y-193785771D01*
X267411485Y-193714342D01*
X267482914Y-193642914D01*
X267482914Y-193785771D01*
X267482914Y-192857200D02*
X267554342Y-192928628D01*
X267482914Y-193000057D01*
X267411485Y-192928628D01*
X267482914Y-192857200D01*
X267482914Y-193000057D01*
X269625771Y-192285771D02*
X269768628Y-192285771D01*
X269911485Y-192357200D01*
X269982914Y-192428628D01*
X270054342Y-192571485D01*
X270125771Y-192857200D01*
X270125771Y-193214342D01*
X270054342Y-193500057D01*
X269982914Y-193642914D01*
X269911485Y-193714342D01*
X269768628Y-193785771D01*
X269625771Y-193785771D01*
X269482914Y-193714342D01*
X269411485Y-193642914D01*
X269340057Y-193500057D01*
X269268628Y-193214342D01*
X269268628Y-192857200D01*
X269340057Y-192571485D01*
X269411485Y-192428628D01*
X269482914Y-192357200D01*
X269625771Y-192285771D01*
X270768628Y-193642914D02*
X270840057Y-193714342D01*
X270768628Y-193785771D01*
X270697200Y-193714342D01*
X270768628Y-193642914D01*
X270768628Y-193785771D01*
X271340057Y-192285771D02*
X272340057Y-192285771D01*
X271697200Y-193785771D01*
D10*
D11*
X178362914Y-193714342D02*
X178577200Y-193785771D01*
X178934342Y-193785771D01*
X179077200Y-193714342D01*
X179148628Y-193642914D01*
X179220057Y-193500057D01*
X179220057Y-193357200D01*
X179148628Y-193214342D01*
X179077200Y-193142914D01*
X178934342Y-193071485D01*
X178648628Y-193000057D01*
X178505771Y-192928628D01*
X178434342Y-192857200D01*
X178362914Y-192714342D01*
X178362914Y-192571485D01*
X178434342Y-192428628D01*
X178505771Y-192357200D01*
X178648628Y-192285771D01*
X179005771Y-192285771D01*
X179220057Y-192357200D01*
X179862914Y-193785771D02*
X179862914Y-192785771D01*
X179862914Y-192285771D02*
X179791485Y-192357200D01*
X179862914Y-192428628D01*
X179934342Y-192357200D01*
X179862914Y-192285771D01*
X179862914Y-192428628D01*
X180434342Y-192785771D02*
X181220057Y-192785771D01*
X180434342Y-193785771D01*
X181220057Y-193785771D01*
X182362914Y-193714342D02*
X182220057Y-193785771D01*
X181934342Y-193785771D01*
X181791485Y-193714342D01*
X181720057Y-193571485D01*
X181720057Y-193000057D01*
X181791485Y-192857200D01*
X181934342Y-192785771D01*
X182220057Y-192785771D01*
X182362914Y-192857200D01*
X182434342Y-193000057D01*
X182434342Y-193142914D01*
X181720057Y-193285771D01*
X183077200Y-193642914D02*
X183148628Y-193714342D01*
X183077200Y-193785771D01*
X183005771Y-193714342D01*
X183077200Y-193642914D01*
X183077200Y-193785771D01*
X183077200Y-192857200D02*
X183148628Y-192928628D01*
X183077200Y-193000057D01*
X183005771Y-192928628D01*
X183077200Y-192857200D01*
X183077200Y-193000057D01*
X184862914Y-193357200D02*
X185577200Y-193357200D01*
X184720057Y-193785771D02*
X185220057Y-192285771D01*
X185720057Y-193785771D01*
X186862914Y-192785771D02*
X186862914Y-193785771D01*
X186505771Y-192214342D02*
X186148628Y-193285771D01*
X187077200Y-193285771D01*
D10*
D11*
X263434342Y-196585771D02*
X263434342Y-195085771D01*
X264791485Y-196585771D02*
X264791485Y-195085771D01*
X264791485Y-196514342D02*
X264648628Y-196585771D01*
X264362914Y-196585771D01*
X264220057Y-196514342D01*
X264148628Y-196442914D01*
X264077200Y-196300057D01*
X264077200Y-195871485D01*
X264148628Y-195728628D01*
X264220057Y-195657200D01*
X264362914Y-195585771D01*
X264648628Y-195585771D01*
X264791485Y-195657200D01*
X265505771Y-196442914D02*
X265577200Y-196514342D01*
X265505771Y-196585771D01*
X265434342Y-196514342D01*
X265505771Y-196442914D01*
X265505771Y-196585771D01*
X265505771Y-195657200D02*
X265577200Y-195728628D01*
X265505771Y-195800057D01*
X265434342Y-195728628D01*
X265505771Y-195657200D01*
X265505771Y-195800057D01*
X268148628Y-196585771D02*
X267291485Y-196585771D01*
X267720057Y-196585771D02*
X267720057Y-195085771D01*
X267577200Y-195300057D01*
X267434342Y-195442914D01*
X267291485Y-195514342D01*
X269862914Y-195014342D02*
X268577200Y-196942914D01*
X271148628Y-196585771D02*
X270291485Y-196585771D01*
X270720057Y-196585771D02*
X270720057Y-195085771D01*
X270577200Y-195300057D01*
X270434342Y-195442914D01*
X270291485Y-195514342D01*
D10*
D11*
X177002200Y-187507200D02*
X285002200Y-187507200D01*
D10*
D13*
X178714580Y-188211961D02*
X179857438Y-188211961D01*
X179036009Y-190211961D02*
X179286009Y-188211961D01*
X180274104Y-190211961D02*
X180440771Y-188878628D01*
X180524104Y-188211961D02*
X180416961Y-188307200D01*
X180500295Y-188402438D01*
X180607438Y-188307200D01*
X180524104Y-188211961D01*
X180500295Y-188402438D01*
X181107438Y-188878628D02*
X181869342Y-188878628D01*
X181476485Y-188211961D02*
X181262200Y-189926247D01*
X181333628Y-190116723D01*
X181512200Y-190211961D01*
X181702676Y-190211961D01*
X182655057Y-190211961D02*
X182476485Y-190116723D01*
X182405057Y-189926247D01*
X182619342Y-188211961D01*
X184190771Y-190116723D02*
X183988390Y-190211961D01*
X183607438Y-190211961D01*
X183428866Y-190116723D01*
X183357438Y-189926247D01*
X183452676Y-189164342D01*
X183571723Y-188973866D01*
X183774104Y-188878628D01*
X184155057Y-188878628D01*
X184333628Y-188973866D01*
X184405057Y-189164342D01*
X184381247Y-189354819D01*
X183405057Y-189545295D01*
X185155057Y-190021485D02*
X185238390Y-190116723D01*
X185131247Y-190211961D01*
X185047914Y-190116723D01*
X185155057Y-190021485D01*
X185131247Y-190211961D01*
X185286009Y-188973866D02*
X185369342Y-189069104D01*
X185262200Y-189164342D01*
X185178866Y-189069104D01*
X185286009Y-188973866D01*
X185262200Y-189164342D01*
X187583628Y-189640533D02*
X188536009Y-189640533D01*
X187321723Y-190211961D02*
X188238390Y-188211961D01*
X188655057Y-190211961D01*
X189321723Y-190211961D02*
X189488390Y-188878628D01*
X189440771Y-189259580D02*
X189559819Y-189069104D01*
X189666961Y-188973866D01*
X189869342Y-188878628D01*
X190059819Y-188878628D01*
X191416961Y-190211961D02*
X191666961Y-188211961D01*
X191428866Y-190116723D02*
X191226485Y-190211961D01*
X190845533Y-190211961D01*
X190666961Y-190116723D01*
X190583628Y-190021485D01*
X190512200Y-189831009D01*
X190583628Y-189259580D01*
X190702676Y-189069104D01*
X190809819Y-188973866D01*
X191012200Y-188878628D01*
X191393152Y-188878628D01*
X191571723Y-188973866D01*
X193393152Y-188878628D02*
X193226485Y-190211961D01*
X192536009Y-188878628D02*
X192405057Y-189926247D01*
X192476485Y-190116723D01*
X192655057Y-190211961D01*
X192940771Y-190211961D01*
X193143152Y-190116723D01*
X193250295Y-190021485D01*
X194178866Y-190211961D02*
X194345533Y-188878628D01*
X194428866Y-188211961D02*
X194321723Y-188307200D01*
X194405057Y-188402438D01*
X194512200Y-188307200D01*
X194428866Y-188211961D01*
X194405057Y-188402438D01*
X195297914Y-188878628D02*
X195131247Y-190211961D01*
X195274104Y-189069104D02*
X195381247Y-188973866D01*
X195583628Y-188878628D01*
X195869342Y-188878628D01*
X196047914Y-188973866D01*
X196119342Y-189164342D01*
X195988390Y-190211961D01*
X197226485Y-190211961D02*
X197047914Y-190116723D01*
X196964580Y-190021485D01*
X196893152Y-189831009D01*
X196964580Y-189259580D01*
X197083628Y-189069104D01*
X197190771Y-188973866D01*
X197393152Y-188878628D01*
X197678866Y-188878628D01*
X197857438Y-188973866D01*
X197940771Y-189069104D01*
X198012200Y-189259580D01*
X197940771Y-189831009D01*
X197821723Y-190021485D01*
X197714580Y-190116723D01*
X197512200Y-190211961D01*
X197226485Y-190211961D01*
X198845533Y-189450057D02*
X200369342Y-189450057D01*
X201226485Y-190211961D02*
X201476485Y-188211961D01*
X202369342Y-190211961D01*
X202619342Y-188211961D01*
X204178866Y-190211961D02*
X204309819Y-189164342D01*
X204238390Y-188973866D01*
X204059819Y-188878628D01*
X203678866Y-188878628D01*
X203476485Y-188973866D01*
X204190771Y-190116723D02*
X203988390Y-190211961D01*
X203512200Y-190211961D01*
X203333628Y-190116723D01*
X203262200Y-189926247D01*
X203286009Y-189735771D01*
X203405057Y-189545295D01*
X203607438Y-189450057D01*
X204083628Y-189450057D01*
X204286009Y-189354819D01*
X205297914Y-188878628D02*
X205131247Y-190211961D01*
X205274104Y-189069104D02*
X205381247Y-188973866D01*
X205583628Y-188878628D01*
X205869342Y-188878628D01*
X206047914Y-188973866D01*
X206119342Y-189164342D01*
X205988390Y-190211961D01*
X207226485Y-190211961D02*
X207047914Y-190116723D01*
X206964580Y-190021485D01*
X206893152Y-189831009D01*
X206964580Y-189259580D01*
X207083628Y-189069104D01*
X207190771Y-188973866D01*
X207393152Y-188878628D01*
X207678866Y-188878628D01*
X207857438Y-188973866D01*
X207940771Y-189069104D01*
X208012200Y-189259580D01*
X207940771Y-189831009D01*
X207821723Y-190021485D01*
X207714580Y-190116723D01*
X207512200Y-190211961D01*
X207226485Y-190211961D01*
X208845533Y-189450057D02*
X210369342Y-189450057D01*
X212512200Y-188307200D02*
X212333628Y-188211961D01*
X212047914Y-188211961D01*
X211750295Y-188307200D01*
X211536009Y-188497676D01*
X211416961Y-188688152D01*
X211274104Y-189069104D01*
X211238390Y-189354819D01*
X211286009Y-189735771D01*
X211357438Y-189926247D01*
X211524104Y-190116723D01*
X211797914Y-190211961D01*
X211988390Y-190211961D01*
X212286009Y-190116723D01*
X212393152Y-190021485D01*
X212476485Y-189354819D01*
X212095533Y-189354819D01*
X214024104Y-189164342D02*
X214297914Y-189259580D01*
X214381247Y-189354819D01*
X214452676Y-189545295D01*
X214416961Y-189831009D01*
X214297914Y-190021485D01*
X214190771Y-190116723D01*
X213988390Y-190211961D01*
X213226485Y-190211961D01*
X213476485Y-188211961D01*
X214143152Y-188211961D01*
X214321723Y-188307200D01*
X214405057Y-188402438D01*
X214476485Y-188592914D01*
X214452676Y-188783390D01*
X214333628Y-188973866D01*
X214226485Y-189069104D01*
X214024104Y-189164342D01*
X213357438Y-189164342D01*
X215321723Y-189450057D02*
X216845533Y-189450057D01*
X217702676Y-190211961D02*
X217952676Y-188211961D01*
X218428866Y-188211961D01*
X218702676Y-188307200D01*
X218869342Y-188497676D01*
X218940771Y-188688152D01*
X218988390Y-189069104D01*
X218952676Y-189354819D01*
X218809819Y-189735771D01*
X218690771Y-189926247D01*
X218476485Y-190116723D01*
X218178866Y-190211961D01*
X217702676Y-190211961D01*
X220726485Y-188878628D02*
X220559819Y-190211961D01*
X219869342Y-188878628D02*
X219738390Y-189926247D01*
X219809819Y-190116723D01*
X219988390Y-190211961D01*
X220274104Y-190211961D01*
X220476485Y-190116723D01*
X220583628Y-190021485D01*
X221512200Y-190211961D02*
X221678866Y-188878628D01*
X221655057Y-189069104D02*
X221762200Y-188973866D01*
X221964580Y-188878628D01*
X222250295Y-188878628D01*
X222428866Y-188973866D01*
X222500295Y-189164342D01*
X222369342Y-190211961D01*
X222500295Y-189164342D02*
X222619342Y-188973866D01*
X222821723Y-188878628D01*
X223107438Y-188878628D01*
X223286009Y-188973866D01*
X223357438Y-189164342D01*
X223226485Y-190211961D01*
X224345533Y-188878628D02*
X224095533Y-190878628D01*
X224333628Y-188973866D02*
X224536009Y-188878628D01*
X224916961Y-188878628D01*
X225095533Y-188973866D01*
X225178866Y-189069104D01*
X225250295Y-189259580D01*
X225178866Y-189831009D01*
X225059819Y-190021485D01*
X224952676Y-190116723D01*
X224750295Y-190211961D01*
X224369342Y-190211961D01*
X224190771Y-190116723D01*
X226762200Y-190116723D02*
X226559819Y-190211961D01*
X226178866Y-190211961D01*
X226000295Y-190116723D01*
X225928866Y-189926247D01*
X226024104Y-189164342D01*
X226143152Y-188973866D01*
X226345533Y-188878628D01*
X226726485Y-188878628D01*
X226905057Y-188973866D01*
X226976485Y-189164342D01*
X226952676Y-189354819D01*
X225976485Y-189545295D01*
X227702676Y-190211961D02*
X227869342Y-188878628D01*
X227821723Y-189259580D02*
X227940771Y-189069104D01*
X228047914Y-188973866D01*
X228250295Y-188878628D01*
X228440771Y-188878628D01*
D10*
D11*
X178934342Y-185600057D02*
X178434342Y-185600057D01*
X178434342Y-186385771D02*
X178434342Y-184885771D01*
X179148628Y-184885771D01*
X179720057Y-186385771D02*
X179720057Y-185385771D01*
X179720057Y-184885771D02*
X179648628Y-184957200D01*
X179720057Y-185028628D01*
X179791485Y-184957200D01*
X179720057Y-184885771D01*
X179720057Y-185028628D01*
X180648628Y-186385771D02*
X180505771Y-186314342D01*
X180434342Y-186171485D01*
X180434342Y-184885771D01*
X181791485Y-186314342D02*
X181648628Y-186385771D01*
X181362914Y-186385771D01*
X181220057Y-186314342D01*
X181148628Y-186171485D01*
X181148628Y-185600057D01*
X181220057Y-185457200D01*
X181362914Y-185385771D01*
X181648628Y-185385771D01*
X181791485Y-185457200D01*
X181862914Y-185600057D01*
X181862914Y-185742914D01*
X181148628Y-185885771D01*
X182505771Y-186242914D02*
X182577200Y-186314342D01*
X182505771Y-186385771D01*
X182434342Y-186314342D01*
X182505771Y-186242914D01*
X182505771Y-186385771D01*
X182505771Y-185457200D02*
X182577200Y-185528628D01*
X182505771Y-185600057D01*
X182434342Y-185528628D01*
X182505771Y-185457200D01*
X182505771Y-185600057D01*
X185148628Y-184957200D02*
X185005771Y-184885771D01*
X184791485Y-184885771D01*
X184577200Y-184957200D01*
X184434342Y-185100057D01*
X184362914Y-185242914D01*
X184291485Y-185528628D01*
X184291485Y-185742914D01*
X184362914Y-186028628D01*
X184434342Y-186171485D01*
X184577200Y-186314342D01*
X184791485Y-186385771D01*
X184934342Y-186385771D01*
X185148628Y-186314342D01*
X185220057Y-186242914D01*
X185220057Y-185742914D01*
X184934342Y-185742914D01*
X186362914Y-185600057D02*
X186577200Y-185671485D01*
X186648628Y-185742914D01*
X186720057Y-185885771D01*
X186720057Y-186100057D01*
X186648628Y-186242914D01*
X186577200Y-186314342D01*
X186434342Y-186385771D01*
X185862914Y-186385771D01*
X185862914Y-184885771D01*
X186362914Y-184885771D01*
X186505771Y-184957200D01*
X186577200Y-185028628D01*
X186648628Y-185171485D01*
X186648628Y-185314342D01*
X186577200Y-185457200D01*
X186505771Y-185528628D01*
X186362914Y-185600057D01*
X185862914Y-185600057D01*
X187362914Y-185814342D02*
X188505771Y-185814342D01*
X189220057Y-186385771D02*
X189220057Y-184885771D01*
X189577200Y-184885771D01*
X189791485Y-184957200D01*
X189934342Y-185100057D01*
X190005771Y-185242914D01*
X190077200Y-185528628D01*
X190077200Y-185742914D01*
X190005771Y-186028628D01*
X189934342Y-186171485D01*
X189791485Y-186314342D01*
X189577200Y-186385771D01*
X189220057Y-186385771D01*
X191362914Y-185385771D02*
X191362914Y-186385771D01*
X190720057Y-185385771D02*
X190720057Y-186171485D01*
X190791485Y-186314342D01*
X190934342Y-186385771D01*
X191148628Y-186385771D01*
X191291485Y-186314342D01*
X191362914Y-186242914D01*
X192077200Y-186385771D02*
X192077200Y-185385771D01*
X192077200Y-185528628D02*
X192148628Y-185457200D01*
X192291485Y-185385771D01*
X192505771Y-185385771D01*
X192648628Y-185457200D01*
X192720057Y-185600057D01*
X192720057Y-186385771D01*
X192720057Y-185600057D02*
X192791485Y-185457200D01*
X192934342Y-185385771D01*
X193148628Y-185385771D01*
X193291485Y-185457200D01*
X193362914Y-185600057D01*
X193362914Y-186385771D01*
X194077200Y-185385771D02*
X194077200Y-186885771D01*
X194077200Y-185457200D02*
X194220057Y-185385771D01*
X194505771Y-185385771D01*
X194648628Y-185457200D01*
X194720057Y-185528628D01*
X194791485Y-185671485D01*
X194791485Y-186100057D01*
X194720057Y-186242914D01*
X194648628Y-186314342D01*
X194505771Y-186385771D01*
X194220057Y-186385771D01*
X194077200Y-186314342D01*
X196005771Y-186314342D02*
X195862914Y-186385771D01*
X195577200Y-186385771D01*
X195434342Y-186314342D01*
X195362914Y-186171485D01*
X195362914Y-185600057D01*
X195434342Y-185457200D01*
X195577200Y-185385771D01*
X195862914Y-185385771D01*
X196005771Y-185457200D01*
X196077200Y-185600057D01*
X196077200Y-185742914D01*
X195362914Y-185885771D01*
X196720057Y-186385771D02*
X196720057Y-185385771D01*
X196720057Y-185671485D02*
X196791485Y-185528628D01*
X196862914Y-185457200D01*
X197005771Y-185385771D01*
X197148628Y-185385771D01*
X197648628Y-186242914D02*
X197720057Y-186314342D01*
X197648628Y-186385771D01*
X197577200Y-186314342D01*
X197648628Y-186242914D01*
X197648628Y-186385771D01*
X198362914Y-186385771D02*
X198362914Y-184885771D01*
X198505771Y-185814342D02*
X198934342Y-186385771D01*
X198934342Y-185385771D02*
X198362914Y-185957200D01*
X199577200Y-186385771D02*
X199577200Y-185385771D01*
X199577200Y-184885771D02*
X199505771Y-184957200D01*
X199577200Y-185028628D01*
X199648628Y-184957200D01*
X199577200Y-184885771D01*
X199577200Y-185028628D01*
X200934342Y-186314342D02*
X200791485Y-186385771D01*
X200505771Y-186385771D01*
X200362914Y-186314342D01*
X200291485Y-186242914D01*
X200220057Y-186100057D01*
X200220057Y-185671485D01*
X200291485Y-185528628D01*
X200362914Y-185457200D01*
X200505771Y-185385771D01*
X200791485Y-185385771D01*
X200934342Y-185457200D01*
X202220057Y-186385771D02*
X202220057Y-185600057D01*
X202148628Y-185457200D01*
X202005771Y-185385771D01*
X201720057Y-185385771D01*
X201577200Y-185457200D01*
X202220057Y-186314342D02*
X202077200Y-186385771D01*
X201720057Y-186385771D01*
X201577200Y-186314342D01*
X201505771Y-186171485D01*
X201505771Y-186028628D01*
X201577200Y-185885771D01*
X201720057Y-185814342D01*
X202077200Y-185814342D01*
X202220057Y-185742914D01*
X203577200Y-186385771D02*
X203577200Y-184885771D01*
X203577200Y-186314342D02*
X203434342Y-186385771D01*
X203148628Y-186385771D01*
X203005771Y-186314342D01*
X202934342Y-186242914D01*
X202862914Y-186100057D01*
X202862914Y-185671485D01*
X202934342Y-185528628D01*
X203005771Y-185457200D01*
X203148628Y-185385771D01*
X203434342Y-185385771D01*
X203577200Y-185457200D01*
X203934342Y-186528628D02*
X205077200Y-186528628D01*
X205434342Y-185385771D02*
X205434342Y-186885771D01*
X205434342Y-185457200D02*
X205577200Y-185385771D01*
X205862914Y-185385771D01*
X206005771Y-185457200D01*
X206077200Y-185528628D01*
X206148628Y-185671485D01*
X206148628Y-186100057D01*
X206077200Y-186242914D01*
X206005771Y-186314342D01*
X205862914Y-186385771D01*
X205577200Y-186385771D01*
X205434342Y-186314342D01*
X207434342Y-186314342D02*
X207291485Y-186385771D01*
X207005771Y-186385771D01*
X206862914Y-186314342D01*
X206791485Y-186242914D01*
X206720057Y-186100057D01*
X206720057Y-185671485D01*
X206791485Y-185528628D01*
X206862914Y-185457200D01*
X207005771Y-185385771D01*
X207291485Y-185385771D01*
X207434342Y-185457200D01*
X208077200Y-186385771D02*
X208077200Y-184885771D01*
X208077200Y-185457200D02*
X208220057Y-185385771D01*
X208505771Y-185385771D01*
X208648628Y-185457200D01*
X208720057Y-185528628D01*
X208791485Y-185671485D01*
X208791485Y-186100057D01*
X208720057Y-186242914D01*
X208648628Y-186314342D01*
X208505771Y-186385771D01*
X208220057Y-186385771D01*
X208077200Y-186314342D01*
D10*
D11*
X177002200Y-181507200D02*
X285002200Y-181507200D01*
D10*
D11*
X178362914Y-183614342D02*
X178577200Y-183685771D01*
X178934342Y-183685771D01*
X179077200Y-183614342D01*
X179148628Y-183542914D01*
X179220057Y-183400057D01*
X179220057Y-183257200D01*
X179148628Y-183114342D01*
X179077200Y-183042914D01*
X178934342Y-182971485D01*
X178648628Y-182900057D01*
X178505771Y-182828628D01*
X178434342Y-182757200D01*
X178362914Y-182614342D01*
X178362914Y-182471485D01*
X178434342Y-182328628D01*
X178505771Y-182257200D01*
X178648628Y-182185771D01*
X179005771Y-182185771D01*
X179220057Y-182257200D01*
X179862914Y-183685771D02*
X179862914Y-182185771D01*
X180505771Y-183685771D02*
X180505771Y-182900057D01*
X180434342Y-182757200D01*
X180291485Y-182685771D01*
X180077200Y-182685771D01*
X179934342Y-182757200D01*
X179862914Y-182828628D01*
X181791485Y-183614342D02*
X181648628Y-183685771D01*
X181362914Y-183685771D01*
X181220057Y-183614342D01*
X181148628Y-183471485D01*
X181148628Y-182900057D01*
X181220057Y-182757200D01*
X181362914Y-182685771D01*
X181648628Y-182685771D01*
X181791485Y-182757200D01*
X181862914Y-182900057D01*
X181862914Y-183042914D01*
X181148628Y-183185771D01*
X183077200Y-183614342D02*
X182934342Y-183685771D01*
X182648628Y-183685771D01*
X182505771Y-183614342D01*
X182434342Y-183471485D01*
X182434342Y-182900057D01*
X182505771Y-182757200D01*
X182648628Y-182685771D01*
X182934342Y-182685771D01*
X183077200Y-182757200D01*
X183148628Y-182900057D01*
X183148628Y-183042914D01*
X182434342Y-183185771D01*
X183577200Y-182685771D02*
X184148628Y-182685771D01*
X183791485Y-182185771D02*
X183791485Y-183471485D01*
X183862914Y-183614342D01*
X184005771Y-183685771D01*
X184148628Y-183685771D01*
X184648628Y-183542914D02*
X184720057Y-183614342D01*
X184648628Y-183685771D01*
X184577200Y-183614342D01*
X184648628Y-183542914D01*
X184648628Y-183685771D01*
X184648628Y-182757200D02*
X184720057Y-182828628D01*
X184648628Y-182900057D01*
X184577200Y-182828628D01*
X184648628Y-182757200D01*
X184648628Y-182900057D01*
D10*
D12*
X178982914Y-181257200D02*
X178911485Y-181185771D01*
X178768628Y-180971485D01*
X178697200Y-180828628D01*
X178625771Y-180614342D01*
X178554342Y-180257200D01*
X178554342Y-179971485D01*
X178625771Y-179614342D01*
X178697200Y-179400057D01*
X178768628Y-179257200D01*
X178911485Y-179042914D01*
X178982914Y-178971485D01*
X180411485Y-180542914D02*
X180340057Y-180614342D01*
X180125771Y-180685771D01*
X179982914Y-180685771D01*
X179768628Y-180614342D01*
X179625771Y-180471485D01*
X179554342Y-180328628D01*
X179482914Y-180042914D01*
X179482914Y-179828628D01*
X179554342Y-179542914D01*
X179625771Y-179400057D01*
X179768628Y-179257200D01*
X179982914Y-179185771D01*
X180125771Y-179185771D01*
X180340057Y-179257200D01*
X180411485Y-179328628D01*
X180911485Y-181257200D02*
X180982914Y-181185771D01*
X181125771Y-180971485D01*
X181197200Y-180828628D01*
X181268628Y-180614342D01*
X181340057Y-180257200D01*
X181340057Y-179971485D01*
X181268628Y-179614342D01*
X181197200Y-179400057D01*
X181125771Y-179257200D01*
X180982914Y-179042914D01*
X180911485Y-178971485D01*
X183054342Y-179185771D02*
X183411485Y-180685771D01*
X183697200Y-179614342D01*
X183982914Y-180685771D01*
X184340057Y-179185771D01*
X185125771Y-180685771D02*
X184982914Y-180614342D01*
X184911485Y-180542914D01*
X184840057Y-180400057D01*
X184840057Y-179971485D01*
X184911485Y-179828628D01*
X184982914Y-179757200D01*
X185125771Y-179685771D01*
X185340057Y-179685771D01*
X185482914Y-179757200D01*
X185554342Y-179828628D01*
X185625771Y-179971485D01*
X185625771Y-180400057D01*
X185554342Y-180542914D01*
X185482914Y-180614342D01*
X185340057Y-180685771D01*
X185125771Y-180685771D01*
X186911485Y-180685771D02*
X186911485Y-179185771D01*
X186911485Y-180614342D02*
X186768628Y-180685771D01*
X186482914Y-180685771D01*
X186340057Y-180614342D01*
X186268628Y-180542914D01*
X186197200Y-180400057D01*
X186197200Y-179971485D01*
X186268628Y-179828628D01*
X186340057Y-179757200D01*
X186482914Y-179685771D01*
X186768628Y-179685771D01*
X186911485Y-179757200D01*
X187840057Y-180685771D02*
X187697200Y-180614342D01*
X187625771Y-180542914D01*
X187554342Y-180400057D01*
X187554342Y-179971485D01*
X187625771Y-179828628D01*
X187697200Y-179757200D01*
X187840057Y-179685771D01*
X188054342Y-179685771D01*
X188197200Y-179757200D01*
X188268628Y-179828628D01*
X188340057Y-179971485D01*
X188340057Y-180400057D01*
X188268628Y-180542914D01*
X188197200Y-180614342D01*
X188054342Y-180685771D01*
X187840057Y-180685771D01*
X188840057Y-179185771D02*
X189197200Y-180685771D01*
X189482914Y-179614342D01*
X189768628Y-180685771D01*
X190125771Y-179185771D01*
X190697200Y-180685771D02*
X190697200Y-179685771D01*
X190697200Y-179185771D02*
X190625771Y-179257200D01*
X190697200Y-179328628D01*
X190768628Y-179257200D01*
X190697200Y-179185771D01*
X190697200Y-179328628D01*
X191982914Y-180614342D02*
X191840057Y-180685771D01*
X191554342Y-180685771D01*
X191411485Y-180614342D01*
X191340057Y-180471485D01*
X191340057Y-179900057D01*
X191411485Y-179757200D01*
X191554342Y-179685771D01*
X191840057Y-179685771D01*
X191982914Y-179757200D01*
X192054342Y-179900057D01*
X192054342Y-180042914D01*
X191340057Y-180185771D01*
X192625771Y-180614342D02*
X192768628Y-180685771D01*
X193054342Y-180685771D01*
X193197200Y-180614342D01*
X193268628Y-180471485D01*
X193268628Y-180400057D01*
X193197200Y-180257200D01*
X193054342Y-180185771D01*
X192840057Y-180185771D01*
X192697200Y-180114342D01*
X192625771Y-179971485D01*
X192625771Y-179900057D01*
X192697200Y-179757200D01*
X192840057Y-179685771D01*
X193054342Y-179685771D01*
X193197200Y-179757200D01*
X194482914Y-180614342D02*
X194340057Y-180685771D01*
X194054342Y-180685771D01*
X193911485Y-180614342D01*
X193840057Y-180471485D01*
X193840057Y-179900057D01*
X193911485Y-179757200D01*
X194054342Y-179685771D01*
X194340057Y-179685771D01*
X194482914Y-179757200D01*
X194554342Y-179900057D01*
X194554342Y-180042914D01*
X193840057Y-180185771D01*
X195411485Y-180685771D02*
X195268628Y-180614342D01*
X195197200Y-180471485D01*
X195197200Y-179185771D01*
D10*
D11*
D10*
D11*
D10*
D11*
D10*
D11*
D10*
D11*
X197002200Y-191507200D02*
X197002200Y-194507200D01*
D10*
D11*
X261002200Y-191507200D02*
X261002200Y-198007200D01*
D14*
X273834000Y-83564000D02*
X273834000Y-155540000D01*
X184378000Y-83564000D02*
X273834000Y-83564000D01*
X184478000Y-155564000D02*
X184378000Y-83564000D01*
X273834000Y-155540000D02*
X184478000Y-155564000D01*
X275524666Y-83554000D02*
G75*
G03*
X275524666Y-83554000I-1666666J0D01*
G01*
X271358000Y-83554000D02*
X276358000Y-83554000D01*
X273858000Y-81054000D02*
X273858000Y-86054000D01*
X186064666Y-83584000D02*
G75*
G03*
X186064666Y-83584000I-1666666J0D01*
G01*
X181898000Y-83584000D02*
X186898000Y-83584000D01*
X184398000Y-81084000D02*
X184398000Y-86084000D01*
X275504666Y-155544000D02*
G75*
G03*
X275504666Y-155544000I-1666666J0D01*
G01*
X271338000Y-155544000D02*
X276338000Y-155544000D01*
X273838000Y-153044000D02*
X273838000Y-158044000D01*
X186144666Y-155564000D02*
G75*
G03*
X186144666Y-155564000I-1666666J0D01*
G01*
X181978000Y-155564000D02*
X186978000Y-155564000D01*
X184478000Y-153064000D02*
X184478000Y-158064000D01*
%TO.C,G1*%
G36*
X205181796Y-101935136D02*
G01*
X205212262Y-101951507D01*
X205336762Y-102006471D01*
X205405234Y-102018667D01*
X205476176Y-102058274D01*
X205483343Y-102153812D01*
X205429960Y-102270357D01*
X205376444Y-102330318D01*
X205302012Y-102429872D01*
X205320000Y-102491467D01*
X205368171Y-102558309D01*
X205358828Y-102631495D01*
X205283199Y-102742026D01*
X205231293Y-102804982D01*
X205138896Y-102930760D01*
X205115473Y-103031752D01*
X205146626Y-103156402D01*
X205205519Y-103387075D01*
X205193805Y-103533349D01*
X205113399Y-103592748D01*
X204966218Y-103562793D01*
X204869778Y-103514445D01*
X204692648Y-103456968D01*
X204451169Y-103434458D01*
X204188668Y-103447975D01*
X203968269Y-103492411D01*
X203798374Y-103525935D01*
X203657880Y-103498781D01*
X203583523Y-103464189D01*
X203369020Y-103386995D01*
X203179381Y-103380003D01*
X203041722Y-103442058D01*
X203005753Y-103488760D01*
X202943979Y-103604186D01*
X202746770Y-103482304D01*
X202549282Y-103395354D01*
X202378684Y-103394597D01*
X202244872Y-103400452D01*
X202038429Y-103386097D01*
X201797192Y-103354587D01*
X201718459Y-103341314D01*
X201443499Y-103292633D01*
X201162574Y-103243644D01*
X200929428Y-103203708D01*
X200897023Y-103198260D01*
X200540247Y-103111825D01*
X200289343Y-102989470D01*
X200187978Y-102897278D01*
X200147222Y-102828841D01*
X200202116Y-102809305D01*
X200227529Y-102808889D01*
X200352602Y-102830259D01*
X200516460Y-102882958D01*
X200548568Y-102895852D01*
X200696357Y-102948114D01*
X200804134Y-102947972D01*
X200931022Y-102895852D01*
X201140403Y-102818761D01*
X201291470Y-102829112D01*
X201354991Y-102872681D01*
X201480715Y-102934880D01*
X201710254Y-102978204D01*
X202035937Y-103001522D01*
X202254612Y-103005412D01*
X202514429Y-102996643D01*
X202671782Y-102969464D01*
X202723521Y-102924940D01*
X202668392Y-102865301D01*
X202620144Y-102818949D01*
X202675522Y-102781052D01*
X202686143Y-102776895D01*
X202794619Y-102779062D01*
X202972436Y-102829865D01*
X203133218Y-102894945D01*
X203496748Y-103028594D01*
X203830423Y-103080431D01*
X204176674Y-103055360D01*
X204304450Y-103030265D01*
X204503200Y-102980851D01*
X204607529Y-102933272D01*
X204634409Y-102871059D01*
X204600815Y-102777743D01*
X204588657Y-102754504D01*
X204568636Y-102662348D01*
X204638213Y-102583061D01*
X204662692Y-102566324D01*
X204762318Y-102458017D01*
X204845903Y-102296706D01*
X204859406Y-102256806D01*
X204949936Y-102039204D01*
X205057701Y-101931720D01*
X205181796Y-101935136D01*
G37*
D15*
X205181796Y-101935136D02*
X205212262Y-101951507D01*
X205336762Y-102006471D01*
X205405234Y-102018667D01*
X205476176Y-102058274D01*
X205483343Y-102153812D01*
X205429960Y-102270357D01*
X205376444Y-102330318D01*
X205302012Y-102429872D01*
X205320000Y-102491467D01*
X205368171Y-102558309D01*
X205358828Y-102631495D01*
X205283199Y-102742026D01*
X205231293Y-102804982D01*
X205138896Y-102930760D01*
X205115473Y-103031752D01*
X205146626Y-103156402D01*
X205205519Y-103387075D01*
X205193805Y-103533349D01*
X205113399Y-103592748D01*
X204966218Y-103562793D01*
X204869778Y-103514445D01*
X204692648Y-103456968D01*
X204451169Y-103434458D01*
X204188668Y-103447975D01*
X203968269Y-103492411D01*
X203798374Y-103525935D01*
X203657880Y-103498781D01*
X203583523Y-103464189D01*
X203369020Y-103386995D01*
X203179381Y-103380003D01*
X203041722Y-103442058D01*
X203005753Y-103488760D01*
X202943979Y-103604186D01*
X202746770Y-103482304D01*
X202549282Y-103395354D01*
X202378684Y-103394597D01*
X202244872Y-103400452D01*
X202038429Y-103386097D01*
X201797192Y-103354587D01*
X201718459Y-103341314D01*
X201443499Y-103292633D01*
X201162574Y-103243644D01*
X200929428Y-103203708D01*
X200897023Y-103198260D01*
X200540247Y-103111825D01*
X200289343Y-102989470D01*
X200187978Y-102897278D01*
X200147222Y-102828841D01*
X200202116Y-102809305D01*
X200227529Y-102808889D01*
X200352602Y-102830259D01*
X200516460Y-102882958D01*
X200548568Y-102895852D01*
X200696357Y-102948114D01*
X200804134Y-102947972D01*
X200931022Y-102895852D01*
X201140403Y-102818761D01*
X201291470Y-102829112D01*
X201354991Y-102872681D01*
X201480715Y-102934880D01*
X201710254Y-102978204D01*
X202035937Y-103001522D01*
X202254612Y-103005412D01*
X202514429Y-102996643D01*
X202671782Y-102969464D01*
X202723521Y-102924940D01*
X202668392Y-102865301D01*
X202620144Y-102818949D01*
X202675522Y-102781052D01*
X202686143Y-102776895D01*
X202794619Y-102779062D01*
X202972436Y-102829865D01*
X203133218Y-102894945D01*
X203496748Y-103028594D01*
X203830423Y-103080431D01*
X204176674Y-103055360D01*
X204304450Y-103030265D01*
X204503200Y-102980851D01*
X204607529Y-102933272D01*
X204634409Y-102871059D01*
X204600815Y-102777743D01*
X204588657Y-102754504D01*
X204568636Y-102662348D01*
X204638213Y-102583061D01*
X204662692Y-102566324D01*
X204762318Y-102458017D01*
X204845903Y-102296706D01*
X204859406Y-102256806D01*
X204949936Y-102039204D01*
X205057701Y-101931720D01*
X205181796Y-101935136D01*
G36*
X202684707Y-118915479D02*
G01*
X202458243Y-118872861D01*
X202303944Y-118770481D01*
X202272266Y-118724228D01*
X202174797Y-118632919D01*
X202091584Y-118603165D01*
X201984052Y-118535233D01*
X201918571Y-118381609D01*
X201898170Y-118162531D01*
X201925877Y-117898238D01*
X201954686Y-117775177D01*
X202275454Y-117775177D01*
X202275740Y-117846998D01*
X202295572Y-118011604D01*
X202364788Y-118158981D01*
X202491942Y-118320479D01*
X202624750Y-118460484D01*
X202721958Y-118526148D01*
X202813879Y-118534778D01*
X202853335Y-118526802D01*
X202958422Y-118477273D01*
X203009143Y-118374153D01*
X203023210Y-118283434D01*
X203026466Y-117970007D01*
X202962520Y-117732690D01*
X202891785Y-117630202D01*
X202801815Y-117559088D01*
X202726816Y-117574225D01*
X202700261Y-117594350D01*
X202583773Y-117639047D01*
X202443184Y-117641814D01*
X202335325Y-117632861D01*
X202287196Y-117667780D01*
X202275454Y-117775177D01*
X201954686Y-117775177D01*
X201962608Y-117741338D01*
X202037185Y-117490995D01*
X202110277Y-117325190D01*
X202206271Y-117226041D01*
X202349558Y-117175666D01*
X202564526Y-117156183D01*
X202767222Y-117151405D01*
X203120000Y-117145778D01*
X203120000Y-117419252D01*
X203136470Y-117621022D01*
X203193716Y-117751790D01*
X203237073Y-117798676D01*
X203326146Y-117937783D01*
X203326261Y-118047313D01*
X203347114Y-118218706D01*
X203408627Y-118308532D01*
X203470002Y-118366977D01*
X203536384Y-118396442D01*
X203636798Y-118399208D01*
X203800266Y-118377553D01*
X203954439Y-118351401D01*
X204170755Y-118312029D01*
X204347390Y-118276596D01*
X204451617Y-118251739D01*
X204460556Y-118248752D01*
X204504626Y-118173053D01*
X204527508Y-117987397D01*
X204531111Y-117827536D01*
X204531111Y-117433307D01*
X204319444Y-117374524D01*
X204163136Y-117336052D01*
X204047648Y-117316163D01*
X204033891Y-117315426D01*
X203989721Y-117280693D01*
X204000181Y-117250104D01*
X203992368Y-117170953D01*
X203932957Y-117103501D01*
X203868703Y-117048977D01*
X203891892Y-117036568D01*
X203994889Y-117052598D01*
X204166500Y-117081874D01*
X204366007Y-117113547D01*
X204393848Y-117117762D01*
X204607906Y-117199764D01*
X204749883Y-117362800D01*
X204809632Y-117593524D01*
X204810349Y-117665727D01*
X204824200Y-117835065D01*
X204867087Y-118040205D01*
X204888850Y-118114289D01*
X204932093Y-118272987D01*
X204947023Y-118383744D01*
X204940785Y-118410622D01*
X204861488Y-118439769D01*
X204809871Y-118444000D01*
X204642685Y-118468944D01*
X204417667Y-118533658D01*
X204175601Y-118622964D01*
X203957269Y-118721687D01*
X203803455Y-118814648D01*
X203794663Y-118821798D01*
X203669817Y-118914973D01*
X203571962Y-118940237D01*
X203448463Y-118909704D01*
X203434468Y-118904696D01*
X203233091Y-118867001D01*
X202979785Y-118890103D01*
X202962685Y-118893277D01*
X202813879Y-118905162D01*
X202684707Y-118915479D01*
G37*
X202684707Y-118915479D02*
X202458243Y-118872861D01*
X202303944Y-118770481D01*
X202272266Y-118724228D01*
X202174797Y-118632919D01*
X202091584Y-118603165D01*
X201984052Y-118535233D01*
X201918571Y-118381609D01*
X201898170Y-118162531D01*
X201925877Y-117898238D01*
X201954686Y-117775177D01*
X202275454Y-117775177D01*
X202275740Y-117846998D01*
X202295572Y-118011604D01*
X202364788Y-118158981D01*
X202491942Y-118320479D01*
X202624750Y-118460484D01*
X202721958Y-118526148D01*
X202813879Y-118534778D01*
X202853335Y-118526802D01*
X202958422Y-118477273D01*
X203009143Y-118374153D01*
X203023210Y-118283434D01*
X203026466Y-117970007D01*
X202962520Y-117732690D01*
X202891785Y-117630202D01*
X202801815Y-117559088D01*
X202726816Y-117574225D01*
X202700261Y-117594350D01*
X202583773Y-117639047D01*
X202443184Y-117641814D01*
X202335325Y-117632861D01*
X202287196Y-117667780D01*
X202275454Y-117775177D01*
X201954686Y-117775177D01*
X201962608Y-117741338D01*
X202037185Y-117490995D01*
X202110277Y-117325190D01*
X202206271Y-117226041D01*
X202349558Y-117175666D01*
X202564526Y-117156183D01*
X202767222Y-117151405D01*
X203120000Y-117145778D01*
X203120000Y-117419252D01*
X203136470Y-117621022D01*
X203193716Y-117751790D01*
X203237073Y-117798676D01*
X203326146Y-117937783D01*
X203326261Y-118047313D01*
X203347114Y-118218706D01*
X203408627Y-118308532D01*
X203470002Y-118366977D01*
X203536384Y-118396442D01*
X203636798Y-118399208D01*
X203800266Y-118377553D01*
X203954439Y-118351401D01*
X204170755Y-118312029D01*
X204347390Y-118276596D01*
X204451617Y-118251739D01*
X204460556Y-118248752D01*
X204504626Y-118173053D01*
X204527508Y-117987397D01*
X204531111Y-117827536D01*
X204531111Y-117433307D01*
X204319444Y-117374524D01*
X204163136Y-117336052D01*
X204047648Y-117316163D01*
X204033891Y-117315426D01*
X203989721Y-117280693D01*
X204000181Y-117250104D01*
X203992368Y-117170953D01*
X203932957Y-117103501D01*
X203868703Y-117048977D01*
X203891892Y-117036568D01*
X203994889Y-117052598D01*
X204166500Y-117081874D01*
X204366007Y-117113547D01*
X204393848Y-117117762D01*
X204607906Y-117199764D01*
X204749883Y-117362800D01*
X204809632Y-117593524D01*
X204810349Y-117665727D01*
X204824200Y-117835065D01*
X204867087Y-118040205D01*
X204888850Y-118114289D01*
X204932093Y-118272987D01*
X204947023Y-118383744D01*
X204940785Y-118410622D01*
X204861488Y-118439769D01*
X204809871Y-118444000D01*
X204642685Y-118468944D01*
X204417667Y-118533658D01*
X204175601Y-118622964D01*
X203957269Y-118721687D01*
X203803455Y-118814648D01*
X203794663Y-118821798D01*
X203669817Y-118914973D01*
X203571962Y-118940237D01*
X203448463Y-118909704D01*
X203434468Y-118904696D01*
X203233091Y-118867001D01*
X202979785Y-118890103D01*
X202962685Y-118893277D01*
X202813879Y-118905162D01*
X202684707Y-118915479D01*
G36*
X202684707Y-101248367D02*
G01*
X202458243Y-101205750D01*
X202303944Y-101103370D01*
X202272266Y-101057116D01*
X202174797Y-100965807D01*
X202091584Y-100936053D01*
X201984052Y-100868122D01*
X201918571Y-100714498D01*
X201898170Y-100495420D01*
X201925877Y-100231127D01*
X201954686Y-100108066D01*
X202275454Y-100108066D01*
X202275740Y-100179887D01*
X202295572Y-100344493D01*
X202364788Y-100491870D01*
X202491942Y-100653368D01*
X202624750Y-100793373D01*
X202721958Y-100859037D01*
X202813879Y-100867667D01*
X202853335Y-100859691D01*
X202958422Y-100810162D01*
X203009143Y-100707042D01*
X203023210Y-100616323D01*
X203026466Y-100302896D01*
X202962520Y-100065579D01*
X202891785Y-99963090D01*
X202801815Y-99891977D01*
X202726816Y-99907114D01*
X202700261Y-99927239D01*
X202583773Y-99971936D01*
X202443184Y-99974703D01*
X202335325Y-99965749D01*
X202287196Y-100000669D01*
X202275454Y-100108066D01*
X201954686Y-100108066D01*
X201962608Y-100074227D01*
X202037185Y-99823884D01*
X202110277Y-99658079D01*
X202206271Y-99558930D01*
X202349558Y-99508555D01*
X202564526Y-99489071D01*
X202767222Y-99484293D01*
X203120000Y-99478667D01*
X203120000Y-99752141D01*
X203136470Y-99953911D01*
X203193716Y-100084679D01*
X203237073Y-100131565D01*
X203326146Y-100270672D01*
X203326261Y-100380202D01*
X203347114Y-100551595D01*
X203408627Y-100641421D01*
X203470002Y-100699865D01*
X203536384Y-100729331D01*
X203636798Y-100732097D01*
X203800266Y-100710442D01*
X203954439Y-100684290D01*
X204170755Y-100644918D01*
X204347390Y-100609485D01*
X204451617Y-100584628D01*
X204460556Y-100581641D01*
X204504626Y-100505942D01*
X204527508Y-100320286D01*
X204531111Y-100160425D01*
X204531111Y-99766196D01*
X204319444Y-99707413D01*
X204163136Y-99668940D01*
X204047648Y-99649052D01*
X204033891Y-99648315D01*
X203989721Y-99613582D01*
X204000181Y-99582993D01*
X203992368Y-99503842D01*
X203932957Y-99436390D01*
X203868703Y-99381866D01*
X203891892Y-99369456D01*
X203994889Y-99385487D01*
X204166500Y-99414762D01*
X204366007Y-99446436D01*
X204393848Y-99450651D01*
X204607906Y-99532653D01*
X204749883Y-99695689D01*
X204809632Y-99926413D01*
X204810349Y-99998616D01*
X204824200Y-100167954D01*
X204867087Y-100373094D01*
X204888850Y-100447178D01*
X204932093Y-100605876D01*
X204947023Y-100716633D01*
X204940785Y-100743511D01*
X204861488Y-100772658D01*
X204809871Y-100776889D01*
X204642685Y-100801833D01*
X204417667Y-100866547D01*
X204175601Y-100955853D01*
X203957269Y-101054576D01*
X203803455Y-101147537D01*
X203794663Y-101154687D01*
X203669817Y-101247862D01*
X203571962Y-101273126D01*
X203448463Y-101242593D01*
X203434468Y-101237585D01*
X203233091Y-101199890D01*
X202979785Y-101222992D01*
X202962685Y-101226166D01*
X202813879Y-101238050D01*
X202684707Y-101248367D01*
G37*
X202684707Y-101248367D02*
X202458243Y-101205750D01*
X202303944Y-101103370D01*
X202272266Y-101057116D01*
X202174797Y-100965807D01*
X202091584Y-100936053D01*
X201984052Y-100868122D01*
X201918571Y-100714498D01*
X201898170Y-100495420D01*
X201925877Y-100231127D01*
X201954686Y-100108066D01*
X202275454Y-100108066D01*
X202275740Y-100179887D01*
X202295572Y-100344493D01*
X202364788Y-100491870D01*
X202491942Y-100653368D01*
X202624750Y-100793373D01*
X202721958Y-100859037D01*
X202813879Y-100867667D01*
X202853335Y-100859691D01*
X202958422Y-100810162D01*
X203009143Y-100707042D01*
X203023210Y-100616323D01*
X203026466Y-100302896D01*
X202962520Y-100065579D01*
X202891785Y-99963090D01*
X202801815Y-99891977D01*
X202726816Y-99907114D01*
X202700261Y-99927239D01*
X202583773Y-99971936D01*
X202443184Y-99974703D01*
X202335325Y-99965749D01*
X202287196Y-100000669D01*
X202275454Y-100108066D01*
X201954686Y-100108066D01*
X201962608Y-100074227D01*
X202037185Y-99823884D01*
X202110277Y-99658079D01*
X202206271Y-99558930D01*
X202349558Y-99508555D01*
X202564526Y-99489071D01*
X202767222Y-99484293D01*
X203120000Y-99478667D01*
X203120000Y-99752141D01*
X203136470Y-99953911D01*
X203193716Y-100084679D01*
X203237073Y-100131565D01*
X203326146Y-100270672D01*
X203326261Y-100380202D01*
X203347114Y-100551595D01*
X203408627Y-100641421D01*
X203470002Y-100699865D01*
X203536384Y-100729331D01*
X203636798Y-100732097D01*
X203800266Y-100710442D01*
X203954439Y-100684290D01*
X204170755Y-100644918D01*
X204347390Y-100609485D01*
X204451617Y-100584628D01*
X204460556Y-100581641D01*
X204504626Y-100505942D01*
X204527508Y-100320286D01*
X204531111Y-100160425D01*
X204531111Y-99766196D01*
X204319444Y-99707413D01*
X204163136Y-99668940D01*
X204047648Y-99649052D01*
X204033891Y-99648315D01*
X203989721Y-99613582D01*
X204000181Y-99582993D01*
X203992368Y-99503842D01*
X203932957Y-99436390D01*
X203868703Y-99381866D01*
X203891892Y-99369456D01*
X203994889Y-99385487D01*
X204166500Y-99414762D01*
X204366007Y-99446436D01*
X204393848Y-99450651D01*
X204607906Y-99532653D01*
X204749883Y-99695689D01*
X204809632Y-99926413D01*
X204810349Y-99998616D01*
X204824200Y-100167954D01*
X204867087Y-100373094D01*
X204888850Y-100447178D01*
X204932093Y-100605876D01*
X204947023Y-100716633D01*
X204940785Y-100743511D01*
X204861488Y-100772658D01*
X204809871Y-100776889D01*
X204642685Y-100801833D01*
X204417667Y-100866547D01*
X204175601Y-100955853D01*
X203957269Y-101054576D01*
X203803455Y-101147537D01*
X203794663Y-101154687D01*
X203669817Y-101247862D01*
X203571962Y-101273126D01*
X203448463Y-101242593D01*
X203434468Y-101237585D01*
X203233091Y-101199890D01*
X202979785Y-101222992D01*
X202962685Y-101226166D01*
X202813879Y-101238050D01*
X202684707Y-101248367D01*
G36*
X204683216Y-104305421D02*
G01*
X204680965Y-104411741D01*
X204650400Y-104490264D01*
X204620936Y-104652458D01*
X204641297Y-104762785D01*
X204693346Y-104933723D01*
X204750472Y-105121653D01*
X204752132Y-105127119D01*
X204807754Y-105412088D01*
X204790699Y-105645938D01*
X204730462Y-105775546D01*
X204663153Y-105940643D01*
X204649382Y-106156017D01*
X204692113Y-106371018D01*
X204695144Y-106379170D01*
X204715378Y-106496713D01*
X204652431Y-106572270D01*
X204648682Y-106574644D01*
X204558068Y-106601413D01*
X204485670Y-106530854D01*
X204484171Y-106528467D01*
X204402454Y-106442718D01*
X204347188Y-106421289D01*
X204209707Y-106388556D01*
X204018755Y-106303423D01*
X203807965Y-106185305D01*
X203610971Y-106053612D01*
X203461406Y-105927758D01*
X203428253Y-105890895D01*
X203341479Y-105790855D01*
X203255962Y-105724133D01*
X203142505Y-105678464D01*
X202971913Y-105641584D01*
X202751746Y-105606722D01*
X202370656Y-105537922D01*
X202087564Y-105458091D01*
X201887706Y-105361507D01*
X201756314Y-105242452D01*
X201735327Y-105212977D01*
X201651251Y-105112353D01*
X201589601Y-105111588D01*
X201543406Y-105215417D01*
X201515032Y-105362647D01*
X201480543Y-105620859D01*
X201468689Y-105823434D01*
X201478398Y-106025108D01*
X201498568Y-106203858D01*
X201539176Y-106522604D01*
X201355921Y-106514302D01*
X201227166Y-106521374D01*
X201171196Y-106577278D01*
X201154806Y-106661223D01*
X201120836Y-106773712D01*
X201070140Y-106815674D01*
X200912037Y-106791708D01*
X200792295Y-106735347D01*
X200749333Y-106669845D01*
X200774252Y-106589562D01*
X200841380Y-106435208D01*
X200939276Y-106232038D01*
X201013650Y-106086414D01*
X201277966Y-105579971D01*
X201174729Y-105388271D01*
X201104286Y-105172469D01*
X201138256Y-104965981D01*
X201279503Y-104752262D01*
X201286119Y-104744791D01*
X201381784Y-104647063D01*
X201437617Y-104628859D01*
X201483272Y-104680734D01*
X201483911Y-104681798D01*
X201574611Y-104749291D01*
X201746711Y-104811220D01*
X201864751Y-104838260D01*
X202179925Y-104902214D01*
X202395492Y-104956743D01*
X202523880Y-105006277D01*
X202577518Y-105055244D01*
X202577031Y-105092117D01*
X202584869Y-105167305D01*
X202677402Y-105234006D01*
X202864754Y-105297346D01*
X203080342Y-105347127D01*
X203330383Y-105420106D01*
X203519136Y-105533491D01*
X203600572Y-105607447D01*
X203732140Y-105721611D01*
X203845513Y-105790860D01*
X203882814Y-105800445D01*
X203978348Y-105839288D01*
X204095735Y-105934524D01*
X204112326Y-105951798D01*
X204211209Y-106046868D01*
X204276216Y-106063624D01*
X204336763Y-106018984D01*
X204397961Y-105909794D01*
X204457084Y-105727727D01*
X204505838Y-105512622D01*
X204535928Y-105304319D01*
X204539061Y-105142657D01*
X204529152Y-105094889D01*
X204448340Y-105005453D01*
X204339743Y-104992627D01*
X204238242Y-104994954D01*
X204203170Y-104968466D01*
X204234010Y-104892150D01*
X204330248Y-104744994D01*
X204333556Y-104740125D01*
X204420636Y-104592049D01*
X204470268Y-104469039D01*
X204474667Y-104439587D01*
X204515120Y-104326684D01*
X204558665Y-104276999D01*
X204638203Y-104250635D01*
X204683216Y-104305421D01*
G37*
X204683216Y-104305421D02*
X204680965Y-104411741D01*
X204650400Y-104490264D01*
X204620936Y-104652458D01*
X204641297Y-104762785D01*
X204693346Y-104933723D01*
X204750472Y-105121653D01*
X204752132Y-105127119D01*
X204807754Y-105412088D01*
X204790699Y-105645938D01*
X204730462Y-105775546D01*
X204663153Y-105940643D01*
X204649382Y-106156017D01*
X204692113Y-106371018D01*
X204695144Y-106379170D01*
X204715378Y-106496713D01*
X204652431Y-106572270D01*
X204648682Y-106574644D01*
X204558068Y-106601413D01*
X204485670Y-106530854D01*
X204484171Y-106528467D01*
X204402454Y-106442718D01*
X204347188Y-106421289D01*
X204209707Y-106388556D01*
X204018755Y-106303423D01*
X203807965Y-106185305D01*
X203610971Y-106053612D01*
X203461406Y-105927758D01*
X203428253Y-105890895D01*
X203341479Y-105790855D01*
X203255962Y-105724133D01*
X203142505Y-105678464D01*
X202971913Y-105641584D01*
X202751746Y-105606722D01*
X202370656Y-105537922D01*
X202087564Y-105458091D01*
X201887706Y-105361507D01*
X201756314Y-105242452D01*
X201735327Y-105212977D01*
X201651251Y-105112353D01*
X201589601Y-105111588D01*
X201543406Y-105215417D01*
X201515032Y-105362647D01*
X201480543Y-105620859D01*
X201468689Y-105823434D01*
X201478398Y-106025108D01*
X201498568Y-106203858D01*
X201539176Y-106522604D01*
X201355921Y-106514302D01*
X201227166Y-106521374D01*
X201171196Y-106577278D01*
X201154806Y-106661223D01*
X201120836Y-106773712D01*
X201070140Y-106815674D01*
X200912037Y-106791708D01*
X200792295Y-106735347D01*
X200749333Y-106669845D01*
X200774252Y-106589562D01*
X200841380Y-106435208D01*
X200939276Y-106232038D01*
X201013650Y-106086414D01*
X201277966Y-105579971D01*
X201174729Y-105388271D01*
X201104286Y-105172469D01*
X201138256Y-104965981D01*
X201279503Y-104752262D01*
X201286119Y-104744791D01*
X201381784Y-104647063D01*
X201437617Y-104628859D01*
X201483272Y-104680734D01*
X201483911Y-104681798D01*
X201574611Y-104749291D01*
X201746711Y-104811220D01*
X201864751Y-104838260D01*
X202179925Y-104902214D01*
X202395492Y-104956743D01*
X202523880Y-105006277D01*
X202577518Y-105055244D01*
X202577031Y-105092117D01*
X202584869Y-105167305D01*
X202677402Y-105234006D01*
X202864754Y-105297346D01*
X203080342Y-105347127D01*
X203330383Y-105420106D01*
X203519136Y-105533491D01*
X203600572Y-105607447D01*
X203732140Y-105721611D01*
X203845513Y-105790860D01*
X203882814Y-105800445D01*
X203978348Y-105839288D01*
X204095735Y-105934524D01*
X204112326Y-105951798D01*
X204211209Y-106046868D01*
X204276216Y-106063624D01*
X204336763Y-106018984D01*
X204397961Y-105909794D01*
X204457084Y-105727727D01*
X204505838Y-105512622D01*
X204535928Y-105304319D01*
X204539061Y-105142657D01*
X204529152Y-105094889D01*
X204448340Y-105005453D01*
X204339743Y-104992627D01*
X204238242Y-104994954D01*
X204203170Y-104968466D01*
X204234010Y-104892150D01*
X204330248Y-104744994D01*
X204333556Y-104740125D01*
X204420636Y-104592049D01*
X204470268Y-104469039D01*
X204474667Y-104439587D01*
X204515120Y-104326684D01*
X204558665Y-104276999D01*
X204638203Y-104250635D01*
X204683216Y-104305421D01*
G36*
X201709090Y-113866918D02*
G01*
X201397096Y-113857761D01*
X201134172Y-113845804D01*
X200943499Y-113832049D01*
X200861640Y-113821109D01*
X200769357Y-113798317D01*
X200753122Y-113780864D01*
X200824065Y-113763827D01*
X200993316Y-113742285D01*
X201055839Y-113735222D01*
X201336612Y-113700191D01*
X201511010Y-113666795D01*
X201585342Y-113629900D01*
X201565919Y-113584373D01*
X201459050Y-113525079D01*
X201364244Y-113484312D01*
X201176301Y-113400717D01*
X201017857Y-113319317D01*
X200950212Y-113276900D01*
X200876374Y-113209045D01*
X200893002Y-113157243D01*
X200932942Y-113124111D01*
X200963261Y-113078526D01*
X201666303Y-113078526D01*
X201700596Y-113145114D01*
X201782592Y-113223905D01*
X201916806Y-113317335D01*
X202038638Y-113363077D01*
X202052475Y-113364000D01*
X202159661Y-113401752D01*
X202196477Y-113448667D01*
X202249098Y-113523290D01*
X202274307Y-113533334D01*
X202341133Y-113505745D01*
X202460029Y-113437920D01*
X202595852Y-113352274D01*
X202713455Y-113271218D01*
X202777695Y-113217166D01*
X202781333Y-113209983D01*
X202734892Y-113176973D01*
X202619876Y-113121764D01*
X202586030Y-113107304D01*
X202425113Y-113057723D01*
X202296050Y-113071640D01*
X202244392Y-113092376D01*
X202113923Y-113128986D01*
X201989546Y-113093347D01*
X201943253Y-113067607D01*
X201790852Y-113009861D01*
X201706336Y-113029986D01*
X201666303Y-113078526D01*
X200963261Y-113078526D01*
X201000721Y-113022204D01*
X201041135Y-112869468D01*
X201042507Y-112856000D01*
X201057858Y-112739012D01*
X201097778Y-112680308D01*
X201193210Y-112659133D01*
X201342000Y-112655132D01*
X201626993Y-112616288D01*
X201878222Y-112529371D01*
X202054846Y-112456325D01*
X202210651Y-112411851D01*
X202262025Y-112405684D01*
X202448037Y-112444167D01*
X202642940Y-112542569D01*
X202787646Y-112670681D01*
X202792018Y-112676643D01*
X202870896Y-112778280D01*
X202990888Y-112923878D01*
X203066990Y-113013319D01*
X203267980Y-113246485D01*
X203546768Y-113047342D01*
X203729943Y-112929122D01*
X203871320Y-112875080D01*
X204010135Y-112870795D01*
X204023111Y-112872268D01*
X204227698Y-112858848D01*
X204454272Y-112761500D01*
X204462121Y-112756999D01*
X204606206Y-112682831D01*
X204738864Y-112644712D01*
X204902660Y-112635318D01*
X205111232Y-112645328D01*
X205568693Y-112638396D01*
X205894765Y-112587159D01*
X206166149Y-112538063D01*
X206343266Y-112538013D01*
X206433936Y-112587871D01*
X206450222Y-112648336D01*
X206415826Y-112689666D01*
X206304365Y-112727127D01*
X206103428Y-112763773D01*
X205843444Y-112797691D01*
X205546492Y-112837751D01*
X205306679Y-112886368D01*
X205080735Y-112955957D01*
X204825388Y-113058934D01*
X204633977Y-113144694D01*
X204333278Y-113276371D01*
X204104477Y-113360750D01*
X203921163Y-113406024D01*
X203756926Y-113420385D01*
X203744977Y-113420445D01*
X203582626Y-113428456D01*
X203478869Y-113448966D01*
X203458667Y-113465574D01*
X203510864Y-113488747D01*
X203651169Y-113517771D01*
X203855151Y-113549609D01*
X204098379Y-113581221D01*
X204356422Y-113609569D01*
X204604850Y-113631614D01*
X204819233Y-113644317D01*
X204911037Y-113646223D01*
X205104933Y-113662121D01*
X205280079Y-113701236D01*
X205303548Y-113709776D01*
X205462444Y-113773330D01*
X205293111Y-113823964D01*
X205161789Y-113846154D01*
X204953582Y-113862723D01*
X204704448Y-113871233D01*
X204587556Y-113871779D01*
X204317627Y-113871604D01*
X204058662Y-113873563D01*
X203853346Y-113877261D01*
X203797333Y-113879078D01*
X203565592Y-113884771D01*
X203324763Y-113885666D01*
X203289333Y-113885235D01*
X203148253Y-113883402D01*
X202919080Y-113880844D01*
X202626607Y-113877820D01*
X202295624Y-113874589D01*
X202274307Y-113874391D01*
X202046973Y-113872275D01*
X201709090Y-113866918D01*
G37*
X201709090Y-113866918D02*
X201397096Y-113857761D01*
X201134172Y-113845804D01*
X200943499Y-113832049D01*
X200861640Y-113821109D01*
X200769357Y-113798317D01*
X200753122Y-113780864D01*
X200824065Y-113763827D01*
X200993316Y-113742285D01*
X201055839Y-113735222D01*
X201336612Y-113700191D01*
X201511010Y-113666795D01*
X201585342Y-113629900D01*
X201565919Y-113584373D01*
X201459050Y-113525079D01*
X201364244Y-113484312D01*
X201176301Y-113400717D01*
X201017857Y-113319317D01*
X200950212Y-113276900D01*
X200876374Y-113209045D01*
X200893002Y-113157243D01*
X200932942Y-113124111D01*
X200963261Y-113078526D01*
X201666303Y-113078526D01*
X201700596Y-113145114D01*
X201782592Y-113223905D01*
X201916806Y-113317335D01*
X202038638Y-113363077D01*
X202052475Y-113364000D01*
X202159661Y-113401752D01*
X202196477Y-113448667D01*
X202249098Y-113523290D01*
X202274307Y-113533334D01*
X202341133Y-113505745D01*
X202460029Y-113437920D01*
X202595852Y-113352274D01*
X202713455Y-113271218D01*
X202777695Y-113217166D01*
X202781333Y-113209983D01*
X202734892Y-113176973D01*
X202619876Y-113121764D01*
X202586030Y-113107304D01*
X202425113Y-113057723D01*
X202296050Y-113071640D01*
X202244392Y-113092376D01*
X202113923Y-113128986D01*
X201989546Y-113093347D01*
X201943253Y-113067607D01*
X201790852Y-113009861D01*
X201706336Y-113029986D01*
X201666303Y-113078526D01*
X200963261Y-113078526D01*
X201000721Y-113022204D01*
X201041135Y-112869468D01*
X201042507Y-112856000D01*
X201057858Y-112739012D01*
X201097778Y-112680308D01*
X201193210Y-112659133D01*
X201342000Y-112655132D01*
X201626993Y-112616288D01*
X201878222Y-112529371D01*
X202054846Y-112456325D01*
X202210651Y-112411851D01*
X202262025Y-112405684D01*
X202448037Y-112444167D01*
X202642940Y-112542569D01*
X202787646Y-112670681D01*
X202792018Y-112676643D01*
X202870896Y-112778280D01*
X202990888Y-112923878D01*
X203066990Y-113013319D01*
X203267980Y-113246485D01*
X203546768Y-113047342D01*
X203729943Y-112929122D01*
X203871320Y-112875080D01*
X204010135Y-112870795D01*
X204023111Y-112872268D01*
X204227698Y-112858848D01*
X204454272Y-112761500D01*
X204462121Y-112756999D01*
X204606206Y-112682831D01*
X204738864Y-112644712D01*
X204902660Y-112635318D01*
X205111232Y-112645328D01*
X205568693Y-112638396D01*
X205894765Y-112587159D01*
X206166149Y-112538063D01*
X206343266Y-112538013D01*
X206433936Y-112587871D01*
X206450222Y-112648336D01*
X206415826Y-112689666D01*
X206304365Y-112727127D01*
X206103428Y-112763773D01*
X205843444Y-112797691D01*
X205546492Y-112837751D01*
X205306679Y-112886368D01*
X205080735Y-112955957D01*
X204825388Y-113058934D01*
X204633977Y-113144694D01*
X204333278Y-113276371D01*
X204104477Y-113360750D01*
X203921163Y-113406024D01*
X203756926Y-113420385D01*
X203744977Y-113420445D01*
X203582626Y-113428456D01*
X203478869Y-113448966D01*
X203458667Y-113465574D01*
X203510864Y-113488747D01*
X203651169Y-113517771D01*
X203855151Y-113549609D01*
X204098379Y-113581221D01*
X204356422Y-113609569D01*
X204604850Y-113631614D01*
X204819233Y-113644317D01*
X204911037Y-113646223D01*
X205104933Y-113662121D01*
X205280079Y-113701236D01*
X205303548Y-113709776D01*
X205462444Y-113773330D01*
X205293111Y-113823964D01*
X205161789Y-113846154D01*
X204953582Y-113862723D01*
X204704448Y-113871233D01*
X204587556Y-113871779D01*
X204317627Y-113871604D01*
X204058662Y-113873563D01*
X203853346Y-113877261D01*
X203797333Y-113879078D01*
X203565592Y-113884771D01*
X203324763Y-113885666D01*
X203289333Y-113885235D01*
X203148253Y-113883402D01*
X202919080Y-113880844D01*
X202626607Y-113877820D01*
X202295624Y-113874589D01*
X202274307Y-113874391D01*
X202046973Y-113872275D01*
X201709090Y-113866918D01*
G36*
X203131513Y-122371684D02*
G01*
X203148222Y-122395111D01*
X203227712Y-122442271D01*
X203294436Y-122451556D01*
X203406282Y-122490099D01*
X203439693Y-122586726D01*
X203388666Y-122712936D01*
X203357441Y-122750761D01*
X203270005Y-122908687D01*
X203271157Y-123024587D01*
X203255713Y-123192447D01*
X203188944Y-123285723D01*
X203135756Y-123343457D01*
X203131410Y-123378578D01*
X203193445Y-123399250D01*
X203339405Y-123413634D01*
X203484573Y-123423285D01*
X203695266Y-123441944D01*
X203865210Y-123466360D01*
X203959452Y-123491440D01*
X203961978Y-123492880D01*
X204054471Y-123519509D01*
X204218105Y-123542020D01*
X204352269Y-123551928D01*
X204665939Y-123577623D01*
X204968221Y-123620966D01*
X205238940Y-123677004D01*
X205457923Y-123740784D01*
X205604993Y-123807353D01*
X205659978Y-123871759D01*
X205660000Y-123872973D01*
X205610242Y-123899290D01*
X205484209Y-123902393D01*
X205420111Y-123896356D01*
X205068105Y-123855118D01*
X204803924Y-123830952D01*
X204603884Y-123823335D01*
X204444300Y-123831743D01*
X204301490Y-123855653D01*
X204240474Y-123870278D01*
X204059955Y-123909664D01*
X203938794Y-123910288D01*
X203829443Y-123869655D01*
X203787373Y-123846496D01*
X203637807Y-123788545D01*
X203454557Y-123755116D01*
X203269428Y-123746580D01*
X203114228Y-123763310D01*
X203020762Y-123805677D01*
X203007111Y-123837373D01*
X202975531Y-123966817D01*
X202896968Y-124119889D01*
X202795690Y-124260604D01*
X202695965Y-124352978D01*
X202647750Y-124370232D01*
X202570759Y-124342421D01*
X202571896Y-124257834D01*
X202572957Y-124151899D01*
X202546775Y-124111240D01*
X202485678Y-124036134D01*
X202442570Y-123947079D01*
X202342230Y-123829162D01*
X202234385Y-123787602D01*
X202111133Y-123765955D01*
X201909546Y-123731551D01*
X201662671Y-123690002D01*
X201511333Y-123664772D01*
X201124653Y-123592142D01*
X200776168Y-123510646D01*
X200478824Y-123424832D01*
X200245572Y-123339245D01*
X200089357Y-123258434D01*
X200023130Y-123186946D01*
X200035566Y-123146509D01*
X200109339Y-123136803D01*
X200248001Y-123159431D01*
X200313668Y-123176923D01*
X200590280Y-123258357D01*
X200779268Y-123310803D01*
X200901391Y-123336854D01*
X200977406Y-123339103D01*
X201028072Y-123320142D01*
X201074146Y-123282566D01*
X201084464Y-123273201D01*
X201175456Y-123214022D01*
X201285839Y-123209297D01*
X201407395Y-123237385D01*
X201607574Y-123276063D01*
X201833389Y-123296810D01*
X201885440Y-123297908D01*
X202098111Y-123317489D01*
X202303255Y-123365790D01*
X202348087Y-123382385D01*
X202508161Y-123427552D01*
X202588367Y-123399574D01*
X202583550Y-123301782D01*
X202558166Y-123246655D01*
X202505413Y-123125013D01*
X202525967Y-123078434D01*
X202610063Y-123088293D01*
X202685782Y-123091538D01*
X202713509Y-123028191D01*
X202714101Y-122933381D01*
X202761370Y-122712739D01*
X202863848Y-122544061D01*
X202986359Y-122399066D01*
X203070228Y-122344411D01*
X203131513Y-122371684D01*
G37*
X203131513Y-122371684D02*
X203148222Y-122395111D01*
X203227712Y-122442271D01*
X203294436Y-122451556D01*
X203406282Y-122490099D01*
X203439693Y-122586726D01*
X203388666Y-122712936D01*
X203357441Y-122750761D01*
X203270005Y-122908687D01*
X203271157Y-123024587D01*
X203255713Y-123192447D01*
X203188944Y-123285723D01*
X203135756Y-123343457D01*
X203131410Y-123378578D01*
X203193445Y-123399250D01*
X203339405Y-123413634D01*
X203484573Y-123423285D01*
X203695266Y-123441944D01*
X203865210Y-123466360D01*
X203959452Y-123491440D01*
X203961978Y-123492880D01*
X204054471Y-123519509D01*
X204218105Y-123542020D01*
X204352269Y-123551928D01*
X204665939Y-123577623D01*
X204968221Y-123620966D01*
X205238940Y-123677004D01*
X205457923Y-123740784D01*
X205604993Y-123807353D01*
X205659978Y-123871759D01*
X205660000Y-123872973D01*
X205610242Y-123899290D01*
X205484209Y-123902393D01*
X205420111Y-123896356D01*
X205068105Y-123855118D01*
X204803924Y-123830952D01*
X204603884Y-123823335D01*
X204444300Y-123831743D01*
X204301490Y-123855653D01*
X204240474Y-123870278D01*
X204059955Y-123909664D01*
X203938794Y-123910288D01*
X203829443Y-123869655D01*
X203787373Y-123846496D01*
X203637807Y-123788545D01*
X203454557Y-123755116D01*
X203269428Y-123746580D01*
X203114228Y-123763310D01*
X203020762Y-123805677D01*
X203007111Y-123837373D01*
X202975531Y-123966817D01*
X202896968Y-124119889D01*
X202795690Y-124260604D01*
X202695965Y-124352978D01*
X202647750Y-124370232D01*
X202570759Y-124342421D01*
X202571896Y-124257834D01*
X202572957Y-124151899D01*
X202546775Y-124111240D01*
X202485678Y-124036134D01*
X202442570Y-123947079D01*
X202342230Y-123829162D01*
X202234385Y-123787602D01*
X202111133Y-123765955D01*
X201909546Y-123731551D01*
X201662671Y-123690002D01*
X201511333Y-123664772D01*
X201124653Y-123592142D01*
X200776168Y-123510646D01*
X200478824Y-123424832D01*
X200245572Y-123339245D01*
X200089357Y-123258434D01*
X200023130Y-123186946D01*
X200035566Y-123146509D01*
X200109339Y-123136803D01*
X200248001Y-123159431D01*
X200313668Y-123176923D01*
X200590280Y-123258357D01*
X200779268Y-123310803D01*
X200901391Y-123336854D01*
X200977406Y-123339103D01*
X201028072Y-123320142D01*
X201074146Y-123282566D01*
X201084464Y-123273201D01*
X201175456Y-123214022D01*
X201285839Y-123209297D01*
X201407395Y-123237385D01*
X201607574Y-123276063D01*
X201833389Y-123296810D01*
X201885440Y-123297908D01*
X202098111Y-123317489D01*
X202303255Y-123365790D01*
X202348087Y-123382385D01*
X202508161Y-123427552D01*
X202588367Y-123399574D01*
X202583550Y-123301782D01*
X202558166Y-123246655D01*
X202505413Y-123125013D01*
X202525967Y-123078434D01*
X202610063Y-123088293D01*
X202685782Y-123091538D01*
X202713509Y-123028191D01*
X202714101Y-122933381D01*
X202761370Y-122712739D01*
X202863848Y-122544061D01*
X202986359Y-122399066D01*
X203070228Y-122344411D01*
X203131513Y-122371684D01*
G36*
X204093291Y-116395759D02*
G01*
X203977424Y-116404969D01*
X203868072Y-116361546D01*
X203790834Y-116307561D01*
X203657691Y-116241364D01*
X203465468Y-116187037D01*
X203345778Y-116167366D01*
X203145662Y-116141741D01*
X202880811Y-116104366D01*
X202597867Y-116061905D01*
X202499111Y-116046427D01*
X202052710Y-115986376D01*
X201704633Y-115964410D01*
X201446988Y-115980383D01*
X201292464Y-116024012D01*
X201186257Y-116052985D01*
X201044425Y-116048766D01*
X200836422Y-116009394D01*
X200751786Y-115989268D01*
X200444484Y-115898450D01*
X200244744Y-115803475D01*
X200154306Y-115705530D01*
X200174914Y-115605799D01*
X200179520Y-115600025D01*
X200284923Y-115521810D01*
X200413387Y-115530507D01*
X200584209Y-115628553D01*
X200620761Y-115655737D01*
X200770884Y-115751288D01*
X200905834Y-115777999D01*
X201021200Y-115764681D01*
X201488306Y-115703007D01*
X201908159Y-115703041D01*
X202328363Y-115765288D01*
X202390752Y-115779186D01*
X202652578Y-115830177D01*
X202930003Y-115868683D01*
X203195584Y-115892655D01*
X203421877Y-115900040D01*
X203581440Y-115888787D01*
X203633933Y-115872111D01*
X203641772Y-115808216D01*
X203601903Y-115684821D01*
X203577424Y-115632818D01*
X203489572Y-115435509D01*
X203410362Y-115219060D01*
X203399576Y-115184334D01*
X203335753Y-115011769D01*
X203279099Y-114949582D01*
X203227093Y-114995678D01*
X203212477Y-115029111D01*
X203153357Y-115103890D01*
X203122847Y-115113778D01*
X203060556Y-115064644D01*
X203028721Y-114940382D01*
X203030612Y-114836911D01*
X203458667Y-114836911D01*
X203507551Y-114904130D01*
X203625959Y-114965974D01*
X203771529Y-115002076D01*
X203807734Y-115004709D01*
X203938444Y-115008530D01*
X203811444Y-115069779D01*
X203717274Y-115134711D01*
X203694843Y-115218625D01*
X203746857Y-115342045D01*
X203870564Y-115518355D01*
X204034136Y-115700358D01*
X204172916Y-115779397D01*
X204296688Y-115759968D01*
X204336267Y-115732417D01*
X204402497Y-115622138D01*
X204408802Y-115443712D01*
X204354637Y-115186702D01*
X204298529Y-115007045D01*
X204230104Y-114817406D01*
X204176729Y-114715488D01*
X204122644Y-114680410D01*
X204058640Y-114689241D01*
X203925832Y-114720125D01*
X203745906Y-114751152D01*
X203698556Y-114757830D01*
X203552205Y-114787180D01*
X203467277Y-114823273D01*
X203458667Y-114836911D01*
X203030612Y-114836911D01*
X203031731Y-114775702D01*
X203062566Y-114636998D01*
X203139199Y-114482749D01*
X203230906Y-114440065D01*
X203328572Y-114498261D01*
X203407799Y-114528995D01*
X203557508Y-114518877D01*
X203698436Y-114491140D01*
X204009967Y-114458583D01*
X204269484Y-114507345D01*
X204462388Y-114633731D01*
X204512562Y-114697287D01*
X204564142Y-114822279D01*
X204612696Y-115017721D01*
X204647755Y-115241422D01*
X204647884Y-115242583D01*
X204675415Y-115462860D01*
X204704743Y-115652144D01*
X204729621Y-115770214D01*
X204730094Y-115771782D01*
X204722969Y-115910098D01*
X204663330Y-115984419D01*
X204417909Y-116192274D01*
X204234008Y-116327124D01*
X204172916Y-116356921D01*
X204093291Y-116395759D01*
G37*
X204093291Y-116395759D02*
X203977424Y-116404969D01*
X203868072Y-116361546D01*
X203790834Y-116307561D01*
X203657691Y-116241364D01*
X203465468Y-116187037D01*
X203345778Y-116167366D01*
X203145662Y-116141741D01*
X202880811Y-116104366D01*
X202597867Y-116061905D01*
X202499111Y-116046427D01*
X202052710Y-115986376D01*
X201704633Y-115964410D01*
X201446988Y-115980383D01*
X201292464Y-116024012D01*
X201186257Y-116052985D01*
X201044425Y-116048766D01*
X200836422Y-116009394D01*
X200751786Y-115989268D01*
X200444484Y-115898450D01*
X200244744Y-115803475D01*
X200154306Y-115705530D01*
X200174914Y-115605799D01*
X200179520Y-115600025D01*
X200284923Y-115521810D01*
X200413387Y-115530507D01*
X200584209Y-115628553D01*
X200620761Y-115655737D01*
X200770884Y-115751288D01*
X200905834Y-115777999D01*
X201021200Y-115764681D01*
X201488306Y-115703007D01*
X201908159Y-115703041D01*
X202328363Y-115765288D01*
X202390752Y-115779186D01*
X202652578Y-115830177D01*
X202930003Y-115868683D01*
X203195584Y-115892655D01*
X203421877Y-115900040D01*
X203581440Y-115888787D01*
X203633933Y-115872111D01*
X203641772Y-115808216D01*
X203601903Y-115684821D01*
X203577424Y-115632818D01*
X203489572Y-115435509D01*
X203410362Y-115219060D01*
X203399576Y-115184334D01*
X203335753Y-115011769D01*
X203279099Y-114949582D01*
X203227093Y-114995678D01*
X203212477Y-115029111D01*
X203153357Y-115103890D01*
X203122847Y-115113778D01*
X203060556Y-115064644D01*
X203028721Y-114940382D01*
X203030612Y-114836911D01*
X203458667Y-114836911D01*
X203507551Y-114904130D01*
X203625959Y-114965974D01*
X203771529Y-115002076D01*
X203807734Y-115004709D01*
X203938444Y-115008530D01*
X203811444Y-115069779D01*
X203717274Y-115134711D01*
X203694843Y-115218625D01*
X203746857Y-115342045D01*
X203870564Y-115518355D01*
X204034136Y-115700358D01*
X204172916Y-115779397D01*
X204296688Y-115759968D01*
X204336267Y-115732417D01*
X204402497Y-115622138D01*
X204408802Y-115443712D01*
X204354637Y-115186702D01*
X204298529Y-115007045D01*
X204230104Y-114817406D01*
X204176729Y-114715488D01*
X204122644Y-114680410D01*
X204058640Y-114689241D01*
X203925832Y-114720125D01*
X203745906Y-114751152D01*
X203698556Y-114757830D01*
X203552205Y-114787180D01*
X203467277Y-114823273D01*
X203458667Y-114836911D01*
X203030612Y-114836911D01*
X203031731Y-114775702D01*
X203062566Y-114636998D01*
X203139199Y-114482749D01*
X203230906Y-114440065D01*
X203328572Y-114498261D01*
X203407799Y-114528995D01*
X203557508Y-114518877D01*
X203698436Y-114491140D01*
X204009967Y-114458583D01*
X204269484Y-114507345D01*
X204462388Y-114633731D01*
X204512562Y-114697287D01*
X204564142Y-114822279D01*
X204612696Y-115017721D01*
X204647755Y-115241422D01*
X204647884Y-115242583D01*
X204675415Y-115462860D01*
X204704743Y-115652144D01*
X204729621Y-115770214D01*
X204730094Y-115771782D01*
X204722969Y-115910098D01*
X204663330Y-115984419D01*
X204417909Y-116192274D01*
X204234008Y-116327124D01*
X204172916Y-116356921D01*
X204093291Y-116395759D01*
G36*
X204603179Y-119655031D02*
G01*
X204756209Y-119728933D01*
X204813177Y-119846256D01*
X204813333Y-119853766D01*
X204798530Y-119947855D01*
X204739145Y-119989364D01*
X204612715Y-119984397D01*
X204451997Y-119951931D01*
X204284946Y-119918460D01*
X204185622Y-119922113D01*
X204112505Y-119971559D01*
X204057817Y-120034248D01*
X203911974Y-120144720D01*
X203693482Y-120233798D01*
X203442215Y-120289116D01*
X203204667Y-120298807D01*
X202981047Y-120330893D01*
X202766766Y-120440563D01*
X202608126Y-120602425D01*
X202588123Y-120636930D01*
X202539070Y-120756636D01*
X202550099Y-120855096D01*
X202611022Y-120968823D01*
X202745601Y-121118872D01*
X202940631Y-121212896D01*
X203210350Y-121254918D01*
X203568995Y-121248962D01*
X203595668Y-121247014D01*
X203856777Y-121218692D01*
X204115098Y-121176692D01*
X204317519Y-121129752D01*
X204328415Y-121126447D01*
X204577953Y-121063390D01*
X204743149Y-121052871D01*
X204818903Y-121092824D01*
X204800113Y-121181183D01*
X204715659Y-121283262D01*
X204650869Y-121373262D01*
X204671836Y-121465165D01*
X204692789Y-121500717D01*
X204767593Y-121620498D01*
X204183685Y-121592300D01*
X203909755Y-121581678D01*
X203714363Y-121584017D01*
X203563493Y-121603606D01*
X203423129Y-121644734D01*
X203268427Y-121707710D01*
X203103858Y-121776157D01*
X202976448Y-121814069D01*
X202848833Y-121824630D01*
X202683647Y-121811019D01*
X202449982Y-121777398D01*
X202233890Y-121746018D01*
X202053467Y-121725632D01*
X201884297Y-121716662D01*
X201701966Y-121719534D01*
X201482058Y-121734672D01*
X201200159Y-121762500D01*
X200831853Y-121803443D01*
X200810230Y-121805899D01*
X200484676Y-121841175D01*
X200252723Y-121858435D01*
X200095978Y-121853862D01*
X199996050Y-121823637D01*
X199934545Y-121763939D01*
X199893074Y-121670951D01*
X199874338Y-121611562D01*
X199855968Y-121523983D01*
X199892065Y-121495548D01*
X200008808Y-121509977D01*
X200031064Y-121514113D01*
X200176696Y-121527015D01*
X200248745Y-121489109D01*
X200261631Y-121464076D01*
X200291305Y-121428357D01*
X200359619Y-121404709D01*
X200484213Y-121391483D01*
X200682726Y-121387034D01*
X200972798Y-121389712D01*
X201044291Y-121390976D01*
X201334098Y-121392993D01*
X201591613Y-121388567D01*
X201791322Y-121378568D01*
X201907707Y-121363867D01*
X201916713Y-121361201D01*
X202026423Y-121277628D01*
X202093714Y-121164861D01*
X202116596Y-121062903D01*
X202087582Y-120978090D01*
X201990069Y-120873796D01*
X201942334Y-120830897D01*
X201737111Y-120649572D01*
X201941866Y-120647453D01*
X202120927Y-120619582D01*
X202222373Y-120548850D01*
X202230995Y-120447968D01*
X202216072Y-120418234D01*
X202209395Y-120326284D01*
X202294595Y-120201570D01*
X202314528Y-120180238D01*
X202427438Y-120078896D01*
X202516772Y-120026450D01*
X202529145Y-120024445D01*
X202612810Y-119986111D01*
X202696667Y-119911556D01*
X202788824Y-119829306D01*
X202883612Y-119807227D01*
X203012067Y-119846891D01*
X203181050Y-119936072D01*
X203422956Y-120073478D01*
X203596034Y-119927519D01*
X203911805Y-119725980D01*
X204249997Y-119635067D01*
X204363676Y-119629334D01*
X204603179Y-119655031D01*
G37*
X204603179Y-119655031D02*
X204756209Y-119728933D01*
X204813177Y-119846256D01*
X204813333Y-119853766D01*
X204798530Y-119947855D01*
X204739145Y-119989364D01*
X204612715Y-119984397D01*
X204451997Y-119951931D01*
X204284946Y-119918460D01*
X204185622Y-119922113D01*
X204112505Y-119971559D01*
X204057817Y-120034248D01*
X203911974Y-120144720D01*
X203693482Y-120233798D01*
X203442215Y-120289116D01*
X203204667Y-120298807D01*
X202981047Y-120330893D01*
X202766766Y-120440563D01*
X202608126Y-120602425D01*
X202588123Y-120636930D01*
X202539070Y-120756636D01*
X202550099Y-120855096D01*
X202611022Y-120968823D01*
X202745601Y-121118872D01*
X202940631Y-121212896D01*
X203210350Y-121254918D01*
X203568995Y-121248962D01*
X203595668Y-121247014D01*
X203856777Y-121218692D01*
X204115098Y-121176692D01*
X204317519Y-121129752D01*
X204328415Y-121126447D01*
X204577953Y-121063390D01*
X204743149Y-121052871D01*
X204818903Y-121092824D01*
X204800113Y-121181183D01*
X204715659Y-121283262D01*
X204650869Y-121373262D01*
X204671836Y-121465165D01*
X204692789Y-121500717D01*
X204767593Y-121620498D01*
X204183685Y-121592300D01*
X203909755Y-121581678D01*
X203714363Y-121584017D01*
X203563493Y-121603606D01*
X203423129Y-121644734D01*
X203268427Y-121707710D01*
X203103858Y-121776157D01*
X202976448Y-121814069D01*
X202848833Y-121824630D01*
X202683647Y-121811019D01*
X202449982Y-121777398D01*
X202233890Y-121746018D01*
X202053467Y-121725632D01*
X201884297Y-121716662D01*
X201701966Y-121719534D01*
X201482058Y-121734672D01*
X201200159Y-121762500D01*
X200831853Y-121803443D01*
X200810230Y-121805899D01*
X200484676Y-121841175D01*
X200252723Y-121858435D01*
X200095978Y-121853862D01*
X199996050Y-121823637D01*
X199934545Y-121763939D01*
X199893074Y-121670951D01*
X199874338Y-121611562D01*
X199855968Y-121523983D01*
X199892065Y-121495548D01*
X200008808Y-121509977D01*
X200031064Y-121514113D01*
X200176696Y-121527015D01*
X200248745Y-121489109D01*
X200261631Y-121464076D01*
X200291305Y-121428357D01*
X200359619Y-121404709D01*
X200484213Y-121391483D01*
X200682726Y-121387034D01*
X200972798Y-121389712D01*
X201044291Y-121390976D01*
X201334098Y-121392993D01*
X201591613Y-121388567D01*
X201791322Y-121378568D01*
X201907707Y-121363867D01*
X201916713Y-121361201D01*
X202026423Y-121277628D01*
X202093714Y-121164861D01*
X202116596Y-121062903D01*
X202087582Y-120978090D01*
X201990069Y-120873796D01*
X201942334Y-120830897D01*
X201737111Y-120649572D01*
X201941866Y-120647453D01*
X202120927Y-120619582D01*
X202222373Y-120548850D01*
X202230995Y-120447968D01*
X202216072Y-120418234D01*
X202209395Y-120326284D01*
X202294595Y-120201570D01*
X202314528Y-120180238D01*
X202427438Y-120078896D01*
X202516772Y-120026450D01*
X202529145Y-120024445D01*
X202612810Y-119986111D01*
X202696667Y-119911556D01*
X202788824Y-119829306D01*
X202883612Y-119807227D01*
X203012067Y-119846891D01*
X203181050Y-119936072D01*
X203422956Y-120073478D01*
X203596034Y-119927519D01*
X203911805Y-119725980D01*
X204249997Y-119635067D01*
X204363676Y-119629334D01*
X204603179Y-119655031D01*
G36*
X203131513Y-107301017D02*
G01*
X203148222Y-107324445D01*
X203227712Y-107371604D01*
X203294436Y-107380889D01*
X203406282Y-107419432D01*
X203439693Y-107516060D01*
X203388666Y-107642270D01*
X203357441Y-107680095D01*
X203270005Y-107838021D01*
X203271157Y-107953921D01*
X203255713Y-108121781D01*
X203188944Y-108215057D01*
X203135756Y-108272790D01*
X203131410Y-108307912D01*
X203193445Y-108328583D01*
X203339405Y-108342968D01*
X203484573Y-108352618D01*
X203695266Y-108371277D01*
X203865210Y-108395694D01*
X203959452Y-108420773D01*
X203961978Y-108422214D01*
X204054471Y-108448843D01*
X204218105Y-108471353D01*
X204352269Y-108481261D01*
X204665939Y-108506957D01*
X204968221Y-108550300D01*
X205238940Y-108606337D01*
X205457923Y-108670117D01*
X205604993Y-108736687D01*
X205659978Y-108801092D01*
X205660000Y-108802307D01*
X205610242Y-108828623D01*
X205484209Y-108831726D01*
X205420111Y-108825689D01*
X205068105Y-108784451D01*
X204803924Y-108760285D01*
X204603884Y-108752668D01*
X204444300Y-108761076D01*
X204301490Y-108784986D01*
X204240474Y-108799612D01*
X204059955Y-108838997D01*
X203938794Y-108839621D01*
X203829443Y-108798989D01*
X203787373Y-108775829D01*
X203637807Y-108717878D01*
X203454557Y-108684449D01*
X203269428Y-108675914D01*
X203114228Y-108692643D01*
X203020762Y-108735011D01*
X203007111Y-108766707D01*
X202975531Y-108896151D01*
X202896968Y-109049222D01*
X202795690Y-109189937D01*
X202695965Y-109282311D01*
X202647750Y-109299566D01*
X202570759Y-109271755D01*
X202571896Y-109187168D01*
X202572957Y-109081232D01*
X202546775Y-109040574D01*
X202485678Y-108965467D01*
X202442570Y-108876412D01*
X202342230Y-108758496D01*
X202234385Y-108716935D01*
X202111133Y-108695289D01*
X201909546Y-108660884D01*
X201662671Y-108619335D01*
X201511333Y-108594105D01*
X201124653Y-108521475D01*
X200776168Y-108439980D01*
X200478824Y-108354165D01*
X200245572Y-108268579D01*
X200089357Y-108187768D01*
X200023130Y-108116279D01*
X200035566Y-108075842D01*
X200109339Y-108066136D01*
X200248001Y-108088764D01*
X200313668Y-108106257D01*
X200590280Y-108187690D01*
X200779268Y-108240136D01*
X200901391Y-108266187D01*
X200977406Y-108268436D01*
X201028072Y-108249476D01*
X201074146Y-108211899D01*
X201084464Y-108202534D01*
X201175456Y-108143355D01*
X201285839Y-108138630D01*
X201407395Y-108166719D01*
X201607574Y-108205396D01*
X201833389Y-108226144D01*
X201885440Y-108227241D01*
X202098111Y-108246822D01*
X202303255Y-108295124D01*
X202348087Y-108311718D01*
X202508161Y-108356886D01*
X202588367Y-108328908D01*
X202583550Y-108231115D01*
X202558166Y-108175989D01*
X202505413Y-108054346D01*
X202525967Y-108007767D01*
X202610063Y-108017626D01*
X202685782Y-108020871D01*
X202713509Y-107957524D01*
X202714101Y-107862715D01*
X202761370Y-107642073D01*
X202863848Y-107473394D01*
X202986359Y-107328399D01*
X203070228Y-107273744D01*
X203131513Y-107301017D01*
G37*
X203131513Y-107301017D02*
X203148222Y-107324445D01*
X203227712Y-107371604D01*
X203294436Y-107380889D01*
X203406282Y-107419432D01*
X203439693Y-107516060D01*
X203388666Y-107642270D01*
X203357441Y-107680095D01*
X203270005Y-107838021D01*
X203271157Y-107953921D01*
X203255713Y-108121781D01*
X203188944Y-108215057D01*
X203135756Y-108272790D01*
X203131410Y-108307912D01*
X203193445Y-108328583D01*
X203339405Y-108342968D01*
X203484573Y-108352618D01*
X203695266Y-108371277D01*
X203865210Y-108395694D01*
X203959452Y-108420773D01*
X203961978Y-108422214D01*
X204054471Y-108448843D01*
X204218105Y-108471353D01*
X204352269Y-108481261D01*
X204665939Y-108506957D01*
X204968221Y-108550300D01*
X205238940Y-108606337D01*
X205457923Y-108670117D01*
X205604993Y-108736687D01*
X205659978Y-108801092D01*
X205660000Y-108802307D01*
X205610242Y-108828623D01*
X205484209Y-108831726D01*
X205420111Y-108825689D01*
X205068105Y-108784451D01*
X204803924Y-108760285D01*
X204603884Y-108752668D01*
X204444300Y-108761076D01*
X204301490Y-108784986D01*
X204240474Y-108799612D01*
X204059955Y-108838997D01*
X203938794Y-108839621D01*
X203829443Y-108798989D01*
X203787373Y-108775829D01*
X203637807Y-108717878D01*
X203454557Y-108684449D01*
X203269428Y-108675914D01*
X203114228Y-108692643D01*
X203020762Y-108735011D01*
X203007111Y-108766707D01*
X202975531Y-108896151D01*
X202896968Y-109049222D01*
X202795690Y-109189937D01*
X202695965Y-109282311D01*
X202647750Y-109299566D01*
X202570759Y-109271755D01*
X202571896Y-109187168D01*
X202572957Y-109081232D01*
X202546775Y-109040574D01*
X202485678Y-108965467D01*
X202442570Y-108876412D01*
X202342230Y-108758496D01*
X202234385Y-108716935D01*
X202111133Y-108695289D01*
X201909546Y-108660884D01*
X201662671Y-108619335D01*
X201511333Y-108594105D01*
X201124653Y-108521475D01*
X200776168Y-108439980D01*
X200478824Y-108354165D01*
X200245572Y-108268579D01*
X200089357Y-108187768D01*
X200023130Y-108116279D01*
X200035566Y-108075842D01*
X200109339Y-108066136D01*
X200248001Y-108088764D01*
X200313668Y-108106257D01*
X200590280Y-108187690D01*
X200779268Y-108240136D01*
X200901391Y-108266187D01*
X200977406Y-108268436D01*
X201028072Y-108249476D01*
X201074146Y-108211899D01*
X201084464Y-108202534D01*
X201175456Y-108143355D01*
X201285839Y-108138630D01*
X201407395Y-108166719D01*
X201607574Y-108205396D01*
X201833389Y-108226144D01*
X201885440Y-108227241D01*
X202098111Y-108246822D01*
X202303255Y-108295124D01*
X202348087Y-108311718D01*
X202508161Y-108356886D01*
X202588367Y-108328908D01*
X202583550Y-108231115D01*
X202558166Y-108175989D01*
X202505413Y-108054346D01*
X202525967Y-108007767D01*
X202610063Y-108017626D01*
X202685782Y-108020871D01*
X202713509Y-107957524D01*
X202714101Y-107862715D01*
X202761370Y-107642073D01*
X202863848Y-107473394D01*
X202986359Y-107328399D01*
X203070228Y-107273744D01*
X203131513Y-107301017D01*
G36*
X201709090Y-98626918D02*
G01*
X201397096Y-98617761D01*
X201134172Y-98605804D01*
X200943499Y-98592049D01*
X200861640Y-98581109D01*
X200769357Y-98558317D01*
X200753122Y-98540864D01*
X200824065Y-98523827D01*
X200993316Y-98502285D01*
X201055839Y-98495222D01*
X201336612Y-98460191D01*
X201511010Y-98426795D01*
X201585342Y-98389900D01*
X201565919Y-98344373D01*
X201459050Y-98285079D01*
X201364244Y-98244312D01*
X201176301Y-98160717D01*
X201017857Y-98079317D01*
X200950212Y-98036900D01*
X200876374Y-97969045D01*
X200893002Y-97917243D01*
X200932942Y-97884111D01*
X200963261Y-97838526D01*
X201666303Y-97838526D01*
X201700596Y-97905114D01*
X201782592Y-97983905D01*
X201916806Y-98077335D01*
X202038638Y-98123077D01*
X202052475Y-98124000D01*
X202159661Y-98161752D01*
X202196477Y-98208667D01*
X202249098Y-98283290D01*
X202274307Y-98293334D01*
X202341133Y-98265745D01*
X202460029Y-98197920D01*
X202595852Y-98112274D01*
X202713455Y-98031218D01*
X202777695Y-97977166D01*
X202781333Y-97969983D01*
X202734892Y-97936973D01*
X202619876Y-97881764D01*
X202586030Y-97867304D01*
X202425113Y-97817723D01*
X202296050Y-97831640D01*
X202244392Y-97852376D01*
X202113923Y-97888986D01*
X201989546Y-97853347D01*
X201943253Y-97827607D01*
X201790852Y-97769861D01*
X201706336Y-97789986D01*
X201666303Y-97838526D01*
X200963261Y-97838526D01*
X201000721Y-97782204D01*
X201041135Y-97629468D01*
X201042507Y-97616000D01*
X201057858Y-97499012D01*
X201097778Y-97440308D01*
X201193210Y-97419133D01*
X201342000Y-97415132D01*
X201626993Y-97376288D01*
X201878222Y-97289371D01*
X202054846Y-97216325D01*
X202210651Y-97171851D01*
X202262025Y-97165684D01*
X202448037Y-97204167D01*
X202642940Y-97302569D01*
X202787646Y-97430681D01*
X202792018Y-97436643D01*
X202870896Y-97538280D01*
X202990888Y-97683878D01*
X203066990Y-97773319D01*
X203267980Y-98006485D01*
X203546768Y-97807342D01*
X203729943Y-97689122D01*
X203871320Y-97635080D01*
X204010135Y-97630795D01*
X204023111Y-97632268D01*
X204227698Y-97618848D01*
X204454272Y-97521500D01*
X204462121Y-97516999D01*
X204606206Y-97442831D01*
X204738864Y-97404712D01*
X204902660Y-97395318D01*
X205111232Y-97405328D01*
X205568693Y-97398396D01*
X205894765Y-97347159D01*
X206166149Y-97298063D01*
X206343266Y-97298013D01*
X206433936Y-97347871D01*
X206450222Y-97408336D01*
X206415826Y-97449666D01*
X206304365Y-97487127D01*
X206103428Y-97523773D01*
X205843444Y-97557691D01*
X205546492Y-97597751D01*
X205306679Y-97646368D01*
X205080735Y-97715957D01*
X204825388Y-97818934D01*
X204633977Y-97904694D01*
X204333278Y-98036371D01*
X204104477Y-98120750D01*
X203921163Y-98166024D01*
X203756926Y-98180385D01*
X203744977Y-98180445D01*
X203582626Y-98188456D01*
X203478869Y-98208966D01*
X203458667Y-98225574D01*
X203510864Y-98248747D01*
X203651169Y-98277771D01*
X203855151Y-98309609D01*
X204098379Y-98341221D01*
X204356422Y-98369569D01*
X204604850Y-98391614D01*
X204819233Y-98404317D01*
X204911037Y-98406223D01*
X205104933Y-98422121D01*
X205280079Y-98461236D01*
X205303548Y-98469776D01*
X205462444Y-98533330D01*
X205293111Y-98583964D01*
X205161789Y-98606154D01*
X204953582Y-98622723D01*
X204704448Y-98631233D01*
X204587556Y-98631779D01*
X204317627Y-98631604D01*
X204058662Y-98633563D01*
X203853346Y-98637261D01*
X203797333Y-98639078D01*
X203565592Y-98644771D01*
X203324763Y-98645666D01*
X203289333Y-98645235D01*
X203148253Y-98643402D01*
X202919080Y-98640844D01*
X202626607Y-98637820D01*
X202295624Y-98634589D01*
X202274307Y-98634391D01*
X202046973Y-98632275D01*
X201709090Y-98626918D01*
G37*
X201709090Y-98626918D02*
X201397096Y-98617761D01*
X201134172Y-98605804D01*
X200943499Y-98592049D01*
X200861640Y-98581109D01*
X200769357Y-98558317D01*
X200753122Y-98540864D01*
X200824065Y-98523827D01*
X200993316Y-98502285D01*
X201055839Y-98495222D01*
X201336612Y-98460191D01*
X201511010Y-98426795D01*
X201585342Y-98389900D01*
X201565919Y-98344373D01*
X201459050Y-98285079D01*
X201364244Y-98244312D01*
X201176301Y-98160717D01*
X201017857Y-98079317D01*
X200950212Y-98036900D01*
X200876374Y-97969045D01*
X200893002Y-97917243D01*
X200932942Y-97884111D01*
X200963261Y-97838526D01*
X201666303Y-97838526D01*
X201700596Y-97905114D01*
X201782592Y-97983905D01*
X201916806Y-98077335D01*
X202038638Y-98123077D01*
X202052475Y-98124000D01*
X202159661Y-98161752D01*
X202196477Y-98208667D01*
X202249098Y-98283290D01*
X202274307Y-98293334D01*
X202341133Y-98265745D01*
X202460029Y-98197920D01*
X202595852Y-98112274D01*
X202713455Y-98031218D01*
X202777695Y-97977166D01*
X202781333Y-97969983D01*
X202734892Y-97936973D01*
X202619876Y-97881764D01*
X202586030Y-97867304D01*
X202425113Y-97817723D01*
X202296050Y-97831640D01*
X202244392Y-97852376D01*
X202113923Y-97888986D01*
X201989546Y-97853347D01*
X201943253Y-97827607D01*
X201790852Y-97769861D01*
X201706336Y-97789986D01*
X201666303Y-97838526D01*
X200963261Y-97838526D01*
X201000721Y-97782204D01*
X201041135Y-97629468D01*
X201042507Y-97616000D01*
X201057858Y-97499012D01*
X201097778Y-97440308D01*
X201193210Y-97419133D01*
X201342000Y-97415132D01*
X201626993Y-97376288D01*
X201878222Y-97289371D01*
X202054846Y-97216325D01*
X202210651Y-97171851D01*
X202262025Y-97165684D01*
X202448037Y-97204167D01*
X202642940Y-97302569D01*
X202787646Y-97430681D01*
X202792018Y-97436643D01*
X202870896Y-97538280D01*
X202990888Y-97683878D01*
X203066990Y-97773319D01*
X203267980Y-98006485D01*
X203546768Y-97807342D01*
X203729943Y-97689122D01*
X203871320Y-97635080D01*
X204010135Y-97630795D01*
X204023111Y-97632268D01*
X204227698Y-97618848D01*
X204454272Y-97521500D01*
X204462121Y-97516999D01*
X204606206Y-97442831D01*
X204738864Y-97404712D01*
X204902660Y-97395318D01*
X205111232Y-97405328D01*
X205568693Y-97398396D01*
X205894765Y-97347159D01*
X206166149Y-97298063D01*
X206343266Y-97298013D01*
X206433936Y-97347871D01*
X206450222Y-97408336D01*
X206415826Y-97449666D01*
X206304365Y-97487127D01*
X206103428Y-97523773D01*
X205843444Y-97557691D01*
X205546492Y-97597751D01*
X205306679Y-97646368D01*
X205080735Y-97715957D01*
X204825388Y-97818934D01*
X204633977Y-97904694D01*
X204333278Y-98036371D01*
X204104477Y-98120750D01*
X203921163Y-98166024D01*
X203756926Y-98180385D01*
X203744977Y-98180445D01*
X203582626Y-98188456D01*
X203478869Y-98208966D01*
X203458667Y-98225574D01*
X203510864Y-98248747D01*
X203651169Y-98277771D01*
X203855151Y-98309609D01*
X204098379Y-98341221D01*
X204356422Y-98369569D01*
X204604850Y-98391614D01*
X204819233Y-98404317D01*
X204911037Y-98406223D01*
X205104933Y-98422121D01*
X205280079Y-98461236D01*
X205303548Y-98469776D01*
X205462444Y-98533330D01*
X205293111Y-98583964D01*
X205161789Y-98606154D01*
X204953582Y-98622723D01*
X204704448Y-98631233D01*
X204587556Y-98631779D01*
X204317627Y-98631604D01*
X204058662Y-98633563D01*
X203853346Y-98637261D01*
X203797333Y-98639078D01*
X203565592Y-98644771D01*
X203324763Y-98645666D01*
X203289333Y-98645235D01*
X203148253Y-98643402D01*
X202919080Y-98640844D01*
X202626607Y-98637820D01*
X202295624Y-98634589D01*
X202274307Y-98634391D01*
X202046973Y-98632275D01*
X201709090Y-98626918D01*
G36*
X202264062Y-109849086D02*
G01*
X202325560Y-109863433D01*
X202517059Y-109897588D01*
X202682248Y-109907207D01*
X202742285Y-109900428D01*
X202891829Y-109908260D01*
X203038768Y-109970512D01*
X203213467Y-110051779D01*
X203410320Y-110110813D01*
X203423940Y-110113501D01*
X203587771Y-110128858D01*
X203701867Y-110089095D01*
X203766031Y-110036672D01*
X203891140Y-109919137D01*
X203994096Y-110032902D01*
X204091696Y-110117890D01*
X204158859Y-110146947D01*
X204240605Y-110179857D01*
X204361587Y-110260416D01*
X204383508Y-110277532D01*
X204487745Y-110374183D01*
X204511588Y-110451293D01*
X204481569Y-110528882D01*
X204447688Y-110629468D01*
X204499197Y-110693002D01*
X204526683Y-110708742D01*
X204671256Y-110755494D01*
X204781400Y-110767556D01*
X204898838Y-110787843D01*
X204912688Y-110844356D01*
X204823844Y-110930575D01*
X204752807Y-110976031D01*
X204644177Y-111050702D01*
X204601980Y-111131222D01*
X204607413Y-111263621D01*
X204614621Y-111314337D01*
X204629029Y-111471182D01*
X204603647Y-111558582D01*
X204529116Y-111615291D01*
X204373189Y-111652121D01*
X204147409Y-111643923D01*
X204131079Y-111641768D01*
X203963452Y-111624465D01*
X203879930Y-111635909D01*
X203854276Y-111681001D01*
X203853778Y-111693593D01*
X203804400Y-111753742D01*
X203675342Y-111782789D01*
X203495216Y-111781518D01*
X203292633Y-111750708D01*
X203096206Y-111691145D01*
X203050954Y-111671639D01*
X202852521Y-111590753D01*
X202614195Y-111508598D01*
X202487976Y-111470944D01*
X202301509Y-111411166D01*
X202210315Y-111357531D01*
X202197924Y-111300149D01*
X202198927Y-111297394D01*
X202269835Y-111239930D01*
X202317003Y-111245451D01*
X202416645Y-111277143D01*
X202583643Y-111324255D01*
X202785647Y-111378365D01*
X202990308Y-111431053D01*
X203165274Y-111473897D01*
X203278198Y-111498475D01*
X203299964Y-111501334D01*
X203348671Y-111473522D01*
X203318879Y-111407115D01*
X203224990Y-111327652D01*
X203190556Y-111307292D01*
X203124427Y-111267555D01*
X203113647Y-111243483D01*
X203172787Y-111232084D01*
X203316417Y-111230365D01*
X203542813Y-111234934D01*
X204050294Y-111247334D01*
X204102161Y-111039517D01*
X204125822Y-110868253D01*
X204086509Y-110733049D01*
X204055957Y-110682025D01*
X203936011Y-110558192D01*
X203772802Y-110458091D01*
X203607904Y-110402128D01*
X203493489Y-110405945D01*
X203349072Y-110419039D01*
X203148718Y-110387639D01*
X202934232Y-110323732D01*
X202747418Y-110239307D01*
X202643200Y-110162103D01*
X202556203Y-110078603D01*
X202472957Y-110044110D01*
X202351686Y-110050041D01*
X202217090Y-110074582D01*
X202040268Y-110103679D01*
X201943706Y-110100016D01*
X201899010Y-110061467D01*
X201894183Y-110050400D01*
X201904520Y-109948918D01*
X201949956Y-109881410D01*
X202018206Y-109832949D01*
X202110809Y-109822754D01*
X202264062Y-109849086D01*
G37*
X202264062Y-109849086D02*
X202325560Y-109863433D01*
X202517059Y-109897588D01*
X202682248Y-109907207D01*
X202742285Y-109900428D01*
X202891829Y-109908260D01*
X203038768Y-109970512D01*
X203213467Y-110051779D01*
X203410320Y-110110813D01*
X203423940Y-110113501D01*
X203587771Y-110128858D01*
X203701867Y-110089095D01*
X203766031Y-110036672D01*
X203891140Y-109919137D01*
X203994096Y-110032902D01*
X204091696Y-110117890D01*
X204158859Y-110146947D01*
X204240605Y-110179857D01*
X204361587Y-110260416D01*
X204383508Y-110277532D01*
X204487745Y-110374183D01*
X204511588Y-110451293D01*
X204481569Y-110528882D01*
X204447688Y-110629468D01*
X204499197Y-110693002D01*
X204526683Y-110708742D01*
X204671256Y-110755494D01*
X204781400Y-110767556D01*
X204898838Y-110787843D01*
X204912688Y-110844356D01*
X204823844Y-110930575D01*
X204752807Y-110976031D01*
X204644177Y-111050702D01*
X204601980Y-111131222D01*
X204607413Y-111263621D01*
X204614621Y-111314337D01*
X204629029Y-111471182D01*
X204603647Y-111558582D01*
X204529116Y-111615291D01*
X204373189Y-111652121D01*
X204147409Y-111643923D01*
X204131079Y-111641768D01*
X203963452Y-111624465D01*
X203879930Y-111635909D01*
X203854276Y-111681001D01*
X203853778Y-111693593D01*
X203804400Y-111753742D01*
X203675342Y-111782789D01*
X203495216Y-111781518D01*
X203292633Y-111750708D01*
X203096206Y-111691145D01*
X203050954Y-111671639D01*
X202852521Y-111590753D01*
X202614195Y-111508598D01*
X202487976Y-111470944D01*
X202301509Y-111411166D01*
X202210315Y-111357531D01*
X202197924Y-111300149D01*
X202198927Y-111297394D01*
X202269835Y-111239930D01*
X202317003Y-111245451D01*
X202416645Y-111277143D01*
X202583643Y-111324255D01*
X202785647Y-111378365D01*
X202990308Y-111431053D01*
X203165274Y-111473897D01*
X203278198Y-111498475D01*
X203299964Y-111501334D01*
X203348671Y-111473522D01*
X203318879Y-111407115D01*
X203224990Y-111327652D01*
X203190556Y-111307292D01*
X203124427Y-111267555D01*
X203113647Y-111243483D01*
X203172787Y-111232084D01*
X203316417Y-111230365D01*
X203542813Y-111234934D01*
X204050294Y-111247334D01*
X204102161Y-111039517D01*
X204125822Y-110868253D01*
X204086509Y-110733049D01*
X204055957Y-110682025D01*
X203936011Y-110558192D01*
X203772802Y-110458091D01*
X203607904Y-110402128D01*
X203493489Y-110405945D01*
X203349072Y-110419039D01*
X203148718Y-110387639D01*
X202934232Y-110323732D01*
X202747418Y-110239307D01*
X202643200Y-110162103D01*
X202556203Y-110078603D01*
X202472957Y-110044110D01*
X202351686Y-110050041D01*
X202217090Y-110074582D01*
X202040268Y-110103679D01*
X201943706Y-110100016D01*
X201899010Y-110061467D01*
X201894183Y-110050400D01*
X201904520Y-109948918D01*
X201949956Y-109881410D01*
X202018206Y-109832949D01*
X202110809Y-109822754D01*
X202264062Y-109849086D01*
%TD*%
D16*
%TO.C,J1*%
X258322000Y-104948000D03*
X258322000Y-130948000D03*
D17*
X250122000Y-94698000D03*
X250122000Y-96198000D03*
X250122000Y-97698000D03*
X250122000Y-99198000D03*
X250122000Y-100698000D03*
X250122000Y-102198000D03*
X250122000Y-103698000D03*
X250122000Y-105198000D03*
X250122000Y-106698000D03*
X250122000Y-108198000D03*
X250122000Y-109698000D03*
X250122000Y-111198000D03*
X250122000Y-112698000D03*
X250122000Y-114198000D03*
X250122000Y-115698000D03*
X250122000Y-117198000D03*
X250122000Y-118698000D03*
X250122000Y-120198000D03*
X250122000Y-121698000D03*
X250122000Y-123198000D03*
X250122000Y-124698000D03*
X250122000Y-126198000D03*
X250122000Y-127698000D03*
X250122000Y-129198000D03*
X250122000Y-130698000D03*
X250122000Y-132198000D03*
X250122000Y-133698000D03*
X250122000Y-135198000D03*
X250122000Y-136698000D03*
X250122000Y-138198000D03*
X250122000Y-139698000D03*
X250122000Y-141198000D03*
D18*
X270322000Y-104948000D03*
X270322000Y-130948000D03*
%TD*%
D19*
%TO.C,J3*%
X243303000Y-153164000D03*
D20*
X245843000Y-153164000D03*
%TD*%
D21*
%TO.C,U2*%
X233687000Y-110846000D03*
D20*
X231147000Y-110846000D03*
X228607000Y-110846000D03*
X226067000Y-110846000D03*
X223527000Y-110846000D03*
X220987000Y-110846000D03*
X218447000Y-110846000D03*
X215907000Y-110846000D03*
X215907000Y-118466000D03*
X218447000Y-118466000D03*
X220987000Y-118466000D03*
X223527000Y-118466000D03*
X226067000Y-118466000D03*
X228607000Y-118466000D03*
X231147000Y-118466000D03*
X233687000Y-118466000D03*
%TD*%
D22*
%TO.C,R1*%
X238228000Y-93464000D03*
D23*
X245848000Y-93464000D03*
%TD*%
D24*
%TO.C,J4*%
X244478000Y-146114000D03*
D25*
X244478000Y-144114000D03*
X244478000Y-142114000D03*
X244478000Y-140114000D03*
%TD*%
D21*
%TO.C,A1*%
X235480000Y-133960000D03*
D20*
X232940000Y-133960000D03*
X230400000Y-133960000D03*
X227860000Y-133960000D03*
X225320000Y-133960000D03*
X222780000Y-133960000D03*
X220240000Y-133960000D03*
X217700000Y-133960000D03*
X215160000Y-133960000D03*
X212620000Y-133960000D03*
X210080000Y-133960000D03*
X207540000Y-133960000D03*
X205000000Y-133960000D03*
X202460000Y-133960000D03*
X199920000Y-133960000D03*
X199920000Y-149200000D03*
X202460000Y-149200000D03*
X205000000Y-149200000D03*
X207540000Y-149200000D03*
X210080000Y-149200000D03*
X212620000Y-149200000D03*
X215160000Y-149200000D03*
X217700000Y-149200000D03*
X220240000Y-149200000D03*
X222780000Y-149200000D03*
X225320000Y-149200000D03*
X227860000Y-149200000D03*
X230400000Y-149200000D03*
X232940000Y-149200000D03*
X235480000Y-149200000D03*
%TD*%
D22*
%TO.C,R3*%
X238268000Y-98864000D03*
D23*
X245888000Y-98864000D03*
%TD*%
D26*
%TO.C,C1*%
X190508000Y-152064000D03*
D27*
X188508000Y-152064000D03*
%TD*%
D22*
%TO.C,R5*%
X241168000Y-149064000D03*
D23*
X248788000Y-149064000D03*
%TD*%
D22*
%TO.C,R4*%
X238268000Y-101264000D03*
D23*
X245888000Y-101264000D03*
%TD*%
D21*
%TO.C,J2*%
X244978000Y-90164000D03*
D20*
X242438000Y-90164000D03*
X239898000Y-90164000D03*
%TD*%
D28*
%TO.C,REF7*%
X272378000Y-151564000D03*
X268280944Y-153261056D03*
X267578000Y-151564000D03*
D29*
X269978000Y-151564000D03*
D28*
X269978000Y-153964000D03*
X268280944Y-149866944D03*
X271675056Y-149866944D03*
X271675056Y-153261056D03*
X269978000Y-149164000D03*
%TD*%
D22*
%TO.C,R2*%
X238268000Y-96564000D03*
D23*
X245888000Y-96564000D03*
%TD*%
D28*
%TO.C,REF6*%
X190175056Y-85866944D03*
X186078000Y-87564000D03*
X188478000Y-85164000D03*
X186780944Y-89261056D03*
X190878000Y-87564000D03*
X188478000Y-89964000D03*
X186780944Y-85866944D03*
D29*
X188478000Y-87564000D03*
D28*
X190175056Y-89261056D03*
%TD*%
D21*
%TO.C,U1*%
X215937000Y-102190000D03*
D20*
X218477000Y-102190000D03*
X221017000Y-102190000D03*
X223557000Y-102190000D03*
X226097000Y-102190000D03*
X228637000Y-102190000D03*
X231177000Y-102190000D03*
X233717000Y-102190000D03*
X233717000Y-94570000D03*
X231177000Y-94570000D03*
X228637000Y-94570000D03*
X226097000Y-94570000D03*
X223557000Y-94570000D03*
X221017000Y-94570000D03*
X218477000Y-94570000D03*
X215937000Y-94570000D03*
%TD*%
M02*
