%TF.GenerationSoftware,KiCad,Pcbnew,(6.0.4)*%
%TF.CreationDate,2023-10-22T17:32:39+02:00*%
%TF.ProjectId,GB-Dumper,47422d44-756d-4706-9572-2e6b69636164,0.7*%
%TF.SameCoordinates,Original*%
%TF.FileFunction,AssemblyDrawing,Top*%
%FSLAX46Y46*%
G04 Gerber Fmt 4.6, Leading zero omitted, Abs format (unit mm)*
G04 Created by KiCad (PCBNEW (6.0.4)) date 2023-10-22 17:32:39*
%MOMM*%
%LPD*%
G01*
G04 APERTURE LIST*
%ADD10C,0.100000*%
%ADD11C,0.150000*%
%ADD12C,0.300000*%
%ADD13C,0.400000*%
%TA.AperFunction,Profile*%
%ADD14C,0.150000*%
%TD*%
%ADD15C,0.108000*%
%ADD16C,0.120000*%
G04 APERTURE END LIST*
D10*
D11*
X177002200Y-166007200D02*
X177002200Y-198007200D01*
X285002200Y-198007200D01*
X285002200Y-166007200D01*
X177002200Y-166007200D01*
D10*
D11*
X10000000Y-10000000D02*
X10000000Y-200007200D01*
X287002200Y-200007200D01*
X287002200Y-10000000D01*
X10000000Y-10000000D01*
D10*
D11*
X12000000Y-12000000D02*
X12000000Y-198007200D01*
X285002200Y-198007200D01*
X285002200Y-12000000D01*
X12000000Y-12000000D01*
D10*
D11*
X60000000Y-12000000D02*
X60000000Y-10000000D01*
D10*
D11*
X110000000Y-12000000D02*
X110000000Y-10000000D01*
D10*
D11*
X160000000Y-12000000D02*
X160000000Y-10000000D01*
D10*
D11*
X210000000Y-12000000D02*
X210000000Y-10000000D01*
D10*
D11*
X260000000Y-12000000D02*
X260000000Y-10000000D01*
D10*
D11*
X36065476Y-11588095D02*
X35322619Y-11588095D01*
X35694047Y-11588095D02*
X35694047Y-10288095D01*
X35570238Y-10473809D01*
X35446428Y-10597619D01*
X35322619Y-10659523D01*
D10*
D11*
X85322619Y-10411904D02*
X85384523Y-10350000D01*
X85508333Y-10288095D01*
X85817857Y-10288095D01*
X85941666Y-10350000D01*
X86003571Y-10411904D01*
X86065476Y-10535714D01*
X86065476Y-10659523D01*
X86003571Y-10845238D01*
X85260714Y-11588095D01*
X86065476Y-11588095D01*
D10*
D11*
X135260714Y-10288095D02*
X136065476Y-10288095D01*
X135632142Y-10783333D01*
X135817857Y-10783333D01*
X135941666Y-10845238D01*
X136003571Y-10907142D01*
X136065476Y-11030952D01*
X136065476Y-11340476D01*
X136003571Y-11464285D01*
X135941666Y-11526190D01*
X135817857Y-11588095D01*
X135446428Y-11588095D01*
X135322619Y-11526190D01*
X135260714Y-11464285D01*
D10*
D11*
X185941666Y-10721428D02*
X185941666Y-11588095D01*
X185632142Y-10226190D02*
X185322619Y-11154761D01*
X186127380Y-11154761D01*
D10*
D11*
X236003571Y-10288095D02*
X235384523Y-10288095D01*
X235322619Y-10907142D01*
X235384523Y-10845238D01*
X235508333Y-10783333D01*
X235817857Y-10783333D01*
X235941666Y-10845238D01*
X236003571Y-10907142D01*
X236065476Y-11030952D01*
X236065476Y-11340476D01*
X236003571Y-11464285D01*
X235941666Y-11526190D01*
X235817857Y-11588095D01*
X235508333Y-11588095D01*
X235384523Y-11526190D01*
X235322619Y-11464285D01*
D10*
D11*
X285941666Y-10288095D02*
X285694047Y-10288095D01*
X285570238Y-10350000D01*
X285508333Y-10411904D01*
X285384523Y-10597619D01*
X285322619Y-10845238D01*
X285322619Y-11340476D01*
X285384523Y-11464285D01*
X285446428Y-11526190D01*
X285570238Y-11588095D01*
X285817857Y-11588095D01*
X285941666Y-11526190D01*
X286003571Y-11464285D01*
X286065476Y-11340476D01*
X286065476Y-11030952D01*
X286003571Y-10907142D01*
X285941666Y-10845238D01*
X285817857Y-10783333D01*
X285570238Y-10783333D01*
X285446428Y-10845238D01*
X285384523Y-10907142D01*
X285322619Y-11030952D01*
D10*
D11*
X60000000Y-198007200D02*
X60000000Y-200007200D01*
D10*
D11*
X110000000Y-198007200D02*
X110000000Y-200007200D01*
D10*
D11*
X160000000Y-198007200D02*
X160000000Y-200007200D01*
D10*
D11*
X210000000Y-198007200D02*
X210000000Y-200007200D01*
D10*
D11*
X260000000Y-198007200D02*
X260000000Y-200007200D01*
D10*
D11*
X36065476Y-199595295D02*
X35322619Y-199595295D01*
X35694047Y-199595295D02*
X35694047Y-198295295D01*
X35570238Y-198481009D01*
X35446428Y-198604819D01*
X35322619Y-198666723D01*
D10*
D11*
X85322619Y-198419104D02*
X85384523Y-198357200D01*
X85508333Y-198295295D01*
X85817857Y-198295295D01*
X85941666Y-198357200D01*
X86003571Y-198419104D01*
X86065476Y-198542914D01*
X86065476Y-198666723D01*
X86003571Y-198852438D01*
X85260714Y-199595295D01*
X86065476Y-199595295D01*
D10*
D11*
X135260714Y-198295295D02*
X136065476Y-198295295D01*
X135632142Y-198790533D01*
X135817857Y-198790533D01*
X135941666Y-198852438D01*
X136003571Y-198914342D01*
X136065476Y-199038152D01*
X136065476Y-199347676D01*
X136003571Y-199471485D01*
X135941666Y-199533390D01*
X135817857Y-199595295D01*
X135446428Y-199595295D01*
X135322619Y-199533390D01*
X135260714Y-199471485D01*
D10*
D11*
X185941666Y-198728628D02*
X185941666Y-199595295D01*
X185632142Y-198233390D02*
X185322619Y-199161961D01*
X186127380Y-199161961D01*
D10*
D11*
X236003571Y-198295295D02*
X235384523Y-198295295D01*
X235322619Y-198914342D01*
X235384523Y-198852438D01*
X235508333Y-198790533D01*
X235817857Y-198790533D01*
X235941666Y-198852438D01*
X236003571Y-198914342D01*
X236065476Y-199038152D01*
X236065476Y-199347676D01*
X236003571Y-199471485D01*
X235941666Y-199533390D01*
X235817857Y-199595295D01*
X235508333Y-199595295D01*
X235384523Y-199533390D01*
X235322619Y-199471485D01*
D10*
D11*
X285941666Y-198295295D02*
X285694047Y-198295295D01*
X285570238Y-198357200D01*
X285508333Y-198419104D01*
X285384523Y-198604819D01*
X285322619Y-198852438D01*
X285322619Y-199347676D01*
X285384523Y-199471485D01*
X285446428Y-199533390D01*
X285570238Y-199595295D01*
X285817857Y-199595295D01*
X285941666Y-199533390D01*
X286003571Y-199471485D01*
X286065476Y-199347676D01*
X286065476Y-199038152D01*
X286003571Y-198914342D01*
X285941666Y-198852438D01*
X285817857Y-198790533D01*
X285570238Y-198790533D01*
X285446428Y-198852438D01*
X285384523Y-198914342D01*
X285322619Y-199038152D01*
D10*
D11*
X10000000Y-60000000D02*
X12000000Y-60000000D01*
D10*
D11*
X10000000Y-110000000D02*
X12000000Y-110000000D01*
D10*
D11*
X10000000Y-160000000D02*
X12000000Y-160000000D01*
D10*
D11*
X10690476Y-35216666D02*
X11309523Y-35216666D01*
X10566666Y-35588095D02*
X11000000Y-34288095D01*
X11433333Y-35588095D01*
D10*
D11*
X11092857Y-84907142D02*
X11278571Y-84969047D01*
X11340476Y-85030952D01*
X11402380Y-85154761D01*
X11402380Y-85340476D01*
X11340476Y-85464285D01*
X11278571Y-85526190D01*
X11154761Y-85588095D01*
X10659523Y-85588095D01*
X10659523Y-84288095D01*
X11092857Y-84288095D01*
X11216666Y-84350000D01*
X11278571Y-84411904D01*
X11340476Y-84535714D01*
X11340476Y-84659523D01*
X11278571Y-84783333D01*
X11216666Y-84845238D01*
X11092857Y-84907142D01*
X10659523Y-84907142D01*
D10*
D11*
X11402380Y-135464285D02*
X11340476Y-135526190D01*
X11154761Y-135588095D01*
X11030952Y-135588095D01*
X10845238Y-135526190D01*
X10721428Y-135402380D01*
X10659523Y-135278571D01*
X10597619Y-135030952D01*
X10597619Y-134845238D01*
X10659523Y-134597619D01*
X10721428Y-134473809D01*
X10845238Y-134350000D01*
X11030952Y-134288095D01*
X11154761Y-134288095D01*
X11340476Y-134350000D01*
X11402380Y-134411904D01*
D10*
D11*
X10659523Y-185588095D02*
X10659523Y-184288095D01*
X10969047Y-184288095D01*
X11154761Y-184350000D01*
X11278571Y-184473809D01*
X11340476Y-184597619D01*
X11402380Y-184845238D01*
X11402380Y-185030952D01*
X11340476Y-185278571D01*
X11278571Y-185402380D01*
X11154761Y-185526190D01*
X10969047Y-185588095D01*
X10659523Y-185588095D01*
D10*
D11*
X287002200Y-60000000D02*
X285002200Y-60000000D01*
D10*
D11*
X287002200Y-110000000D02*
X285002200Y-110000000D01*
D10*
D11*
X287002200Y-160000000D02*
X285002200Y-160000000D01*
D10*
D11*
X285692676Y-35216666D02*
X286311723Y-35216666D01*
X285568866Y-35588095D02*
X286002200Y-34288095D01*
X286435533Y-35588095D01*
D10*
D11*
X286095057Y-84907142D02*
X286280771Y-84969047D01*
X286342676Y-85030952D01*
X286404580Y-85154761D01*
X286404580Y-85340476D01*
X286342676Y-85464285D01*
X286280771Y-85526190D01*
X286156961Y-85588095D01*
X285661723Y-85588095D01*
X285661723Y-84288095D01*
X286095057Y-84288095D01*
X286218866Y-84350000D01*
X286280771Y-84411904D01*
X286342676Y-84535714D01*
X286342676Y-84659523D01*
X286280771Y-84783333D01*
X286218866Y-84845238D01*
X286095057Y-84907142D01*
X285661723Y-84907142D01*
D10*
D11*
X286404580Y-135464285D02*
X286342676Y-135526190D01*
X286156961Y-135588095D01*
X286033152Y-135588095D01*
X285847438Y-135526190D01*
X285723628Y-135402380D01*
X285661723Y-135278571D01*
X285599819Y-135030952D01*
X285599819Y-134845238D01*
X285661723Y-134597619D01*
X285723628Y-134473809D01*
X285847438Y-134350000D01*
X286033152Y-134288095D01*
X286156961Y-134288095D01*
X286342676Y-134350000D01*
X286404580Y-134411904D01*
D10*
D11*
X285661723Y-185588095D02*
X285661723Y-184288095D01*
X285971247Y-184288095D01*
X286156961Y-184350000D01*
X286280771Y-184473809D01*
X286342676Y-184597619D01*
X286404580Y-184845238D01*
X286404580Y-185030952D01*
X286342676Y-185278571D01*
X286280771Y-185402380D01*
X286156961Y-185526190D01*
X285971247Y-185588095D01*
X285661723Y-185588095D01*
D10*
D11*
X200434342Y-193785771D02*
X200434342Y-192285771D01*
X200791485Y-192285771D01*
X201005771Y-192357200D01*
X201148628Y-192500057D01*
X201220057Y-192642914D01*
X201291485Y-192928628D01*
X201291485Y-193142914D01*
X201220057Y-193428628D01*
X201148628Y-193571485D01*
X201005771Y-193714342D01*
X200791485Y-193785771D01*
X200434342Y-193785771D01*
X202577200Y-193785771D02*
X202577200Y-193000057D01*
X202505771Y-192857200D01*
X202362914Y-192785771D01*
X202077200Y-192785771D01*
X201934342Y-192857200D01*
X202577200Y-193714342D02*
X202434342Y-193785771D01*
X202077200Y-193785771D01*
X201934342Y-193714342D01*
X201862914Y-193571485D01*
X201862914Y-193428628D01*
X201934342Y-193285771D01*
X202077200Y-193214342D01*
X202434342Y-193214342D01*
X202577200Y-193142914D01*
X203077200Y-192785771D02*
X203648628Y-192785771D01*
X203291485Y-192285771D02*
X203291485Y-193571485D01*
X203362914Y-193714342D01*
X203505771Y-193785771D01*
X203648628Y-193785771D01*
X204720057Y-193714342D02*
X204577200Y-193785771D01*
X204291485Y-193785771D01*
X204148628Y-193714342D01*
X204077200Y-193571485D01*
X204077200Y-193000057D01*
X204148628Y-192857200D01*
X204291485Y-192785771D01*
X204577200Y-192785771D01*
X204720057Y-192857200D01*
X204791485Y-193000057D01*
X204791485Y-193142914D01*
X204077200Y-193285771D01*
X205434342Y-193642914D02*
X205505771Y-193714342D01*
X205434342Y-193785771D01*
X205362914Y-193714342D01*
X205434342Y-193642914D01*
X205434342Y-193785771D01*
X205434342Y-192857200D02*
X205505771Y-192928628D01*
X205434342Y-193000057D01*
X205362914Y-192928628D01*
X205434342Y-192857200D01*
X205434342Y-193000057D01*
X207220057Y-192428628D02*
X207291485Y-192357200D01*
X207434342Y-192285771D01*
X207791485Y-192285771D01*
X207934342Y-192357200D01*
X208005771Y-192428628D01*
X208077200Y-192571485D01*
X208077200Y-192714342D01*
X208005771Y-192928628D01*
X207148628Y-193785771D01*
X208077200Y-193785771D01*
X209005771Y-192285771D02*
X209148628Y-192285771D01*
X209291485Y-192357200D01*
X209362914Y-192428628D01*
X209434342Y-192571485D01*
X209505771Y-192857200D01*
X209505771Y-193214342D01*
X209434342Y-193500057D01*
X209362914Y-193642914D01*
X209291485Y-193714342D01*
X209148628Y-193785771D01*
X209005771Y-193785771D01*
X208862914Y-193714342D01*
X208791485Y-193642914D01*
X208720057Y-193500057D01*
X208648628Y-193214342D01*
X208648628Y-192857200D01*
X208720057Y-192571485D01*
X208791485Y-192428628D01*
X208862914Y-192357200D01*
X209005771Y-192285771D01*
X210077200Y-192428628D02*
X210148628Y-192357200D01*
X210291485Y-192285771D01*
X210648628Y-192285771D01*
X210791485Y-192357200D01*
X210862914Y-192428628D01*
X210934342Y-192571485D01*
X210934342Y-192714342D01*
X210862914Y-192928628D01*
X210005771Y-193785771D01*
X210934342Y-193785771D01*
X211434342Y-192285771D02*
X212362914Y-192285771D01*
X211862914Y-192857200D01*
X212077200Y-192857200D01*
X212220057Y-192928628D01*
X212291485Y-193000057D01*
X212362914Y-193142914D01*
X212362914Y-193500057D01*
X212291485Y-193642914D01*
X212220057Y-193714342D01*
X212077200Y-193785771D01*
X211648628Y-193785771D01*
X211505771Y-193714342D01*
X211434342Y-193642914D01*
X213005771Y-193214342D02*
X214148628Y-193214342D01*
X215148628Y-192285771D02*
X215291485Y-192285771D01*
X215434342Y-192357200D01*
X215505771Y-192428628D01*
X215577200Y-192571485D01*
X215648628Y-192857200D01*
X215648628Y-193214342D01*
X215577200Y-193500057D01*
X215505771Y-193642914D01*
X215434342Y-193714342D01*
X215291485Y-193785771D01*
X215148628Y-193785771D01*
X215005771Y-193714342D01*
X214934342Y-193642914D01*
X214862914Y-193500057D01*
X214791485Y-193214342D01*
X214791485Y-192857200D01*
X214862914Y-192571485D01*
X214934342Y-192428628D01*
X215005771Y-192357200D01*
X215148628Y-192285771D01*
X217005771Y-192285771D02*
X216291485Y-192285771D01*
X216220057Y-193000057D01*
X216291485Y-192928628D01*
X216434342Y-192857200D01*
X216791485Y-192857200D01*
X216934342Y-192928628D01*
X217005771Y-193000057D01*
X217077200Y-193142914D01*
X217077200Y-193500057D01*
X217005771Y-193642914D01*
X216934342Y-193714342D01*
X216791485Y-193785771D01*
X216434342Y-193785771D01*
X216291485Y-193714342D01*
X216220057Y-193642914D01*
X217720057Y-193214342D02*
X218862914Y-193214342D01*
X220362914Y-193785771D02*
X219505771Y-193785771D01*
X219934342Y-193785771D02*
X219934342Y-192285771D01*
X219791485Y-192500057D01*
X219648628Y-192642914D01*
X219505771Y-192714342D01*
X221648628Y-192285771D02*
X221362914Y-192285771D01*
X221220057Y-192357200D01*
X221148628Y-192428628D01*
X221005771Y-192642914D01*
X220934342Y-192928628D01*
X220934342Y-193500057D01*
X221005771Y-193642914D01*
X221077200Y-193714342D01*
X221220057Y-193785771D01*
X221505771Y-193785771D01*
X221648628Y-193714342D01*
X221720057Y-193642914D01*
X221791485Y-193500057D01*
X221791485Y-193142914D01*
X221720057Y-193000057D01*
X221648628Y-192928628D01*
X221505771Y-192857200D01*
X221220057Y-192857200D01*
X221077200Y-192928628D01*
X221005771Y-193000057D01*
X220934342Y-193142914D01*
D10*
D11*
X177002200Y-194507200D02*
X285002200Y-194507200D01*
D10*
D11*
X178434342Y-196585771D02*
X178434342Y-195085771D01*
X179291485Y-196585771D02*
X178648628Y-195728628D01*
X179291485Y-195085771D02*
X178434342Y-195942914D01*
X179934342Y-196585771D02*
X179934342Y-195585771D01*
X179934342Y-195085771D02*
X179862914Y-195157200D01*
X179934342Y-195228628D01*
X180005771Y-195157200D01*
X179934342Y-195085771D01*
X179934342Y-195228628D01*
X181505771Y-196442914D02*
X181434342Y-196514342D01*
X181220057Y-196585771D01*
X181077200Y-196585771D01*
X180862914Y-196514342D01*
X180720057Y-196371485D01*
X180648628Y-196228628D01*
X180577200Y-195942914D01*
X180577200Y-195728628D01*
X180648628Y-195442914D01*
X180720057Y-195300057D01*
X180862914Y-195157200D01*
X181077200Y-195085771D01*
X181220057Y-195085771D01*
X181434342Y-195157200D01*
X181505771Y-195228628D01*
X182791485Y-196585771D02*
X182791485Y-195800057D01*
X182720057Y-195657200D01*
X182577200Y-195585771D01*
X182291485Y-195585771D01*
X182148628Y-195657200D01*
X182791485Y-196514342D02*
X182648628Y-196585771D01*
X182291485Y-196585771D01*
X182148628Y-196514342D01*
X182077200Y-196371485D01*
X182077200Y-196228628D01*
X182148628Y-196085771D01*
X182291485Y-196014342D01*
X182648628Y-196014342D01*
X182791485Y-195942914D01*
X184148628Y-196585771D02*
X184148628Y-195085771D01*
X184148628Y-196514342D02*
X184005771Y-196585771D01*
X183720057Y-196585771D01*
X183577200Y-196514342D01*
X183505771Y-196442914D01*
X183434342Y-196300057D01*
X183434342Y-195871485D01*
X183505771Y-195728628D01*
X183577200Y-195657200D01*
X183720057Y-195585771D01*
X184005771Y-195585771D01*
X184148628Y-195657200D01*
X186005771Y-195800057D02*
X186505771Y-195800057D01*
X186720057Y-196585771D02*
X186005771Y-196585771D01*
X186005771Y-195085771D01*
X186720057Y-195085771D01*
X187362914Y-196442914D02*
X187434342Y-196514342D01*
X187362914Y-196585771D01*
X187291485Y-196514342D01*
X187362914Y-196442914D01*
X187362914Y-196585771D01*
X188077200Y-196585771D02*
X188077200Y-195085771D01*
X188434342Y-195085771D01*
X188648628Y-195157200D01*
X188791485Y-195300057D01*
X188862914Y-195442914D01*
X188934342Y-195728628D01*
X188934342Y-195942914D01*
X188862914Y-196228628D01*
X188791485Y-196371485D01*
X188648628Y-196514342D01*
X188434342Y-196585771D01*
X188077200Y-196585771D01*
X189577200Y-196442914D02*
X189648628Y-196514342D01*
X189577200Y-196585771D01*
X189505771Y-196514342D01*
X189577200Y-196442914D01*
X189577200Y-196585771D01*
X190220057Y-196157200D02*
X190934342Y-196157200D01*
X190077200Y-196585771D02*
X190577200Y-195085771D01*
X191077200Y-196585771D01*
X191577200Y-196442914D02*
X191648628Y-196514342D01*
X191577200Y-196585771D01*
X191505771Y-196514342D01*
X191577200Y-196442914D01*
X191577200Y-196585771D01*
X194577200Y-196585771D02*
X194577200Y-195085771D01*
X194720057Y-196014342D02*
X195148628Y-196585771D01*
X195148628Y-195585771D02*
X194577200Y-196157200D01*
X195791485Y-196585771D02*
X195791485Y-195585771D01*
X195791485Y-195085771D02*
X195720057Y-195157200D01*
X195791485Y-195228628D01*
X195862914Y-195157200D01*
X195791485Y-195085771D01*
X195791485Y-195228628D01*
X197148628Y-196514342D02*
X197005771Y-196585771D01*
X196720057Y-196585771D01*
X196577200Y-196514342D01*
X196505771Y-196442914D01*
X196434342Y-196300057D01*
X196434342Y-195871485D01*
X196505771Y-195728628D01*
X196577200Y-195657200D01*
X196720057Y-195585771D01*
X197005771Y-195585771D01*
X197148628Y-195657200D01*
X198434342Y-196585771D02*
X198434342Y-195800057D01*
X198362914Y-195657200D01*
X198220057Y-195585771D01*
X197934342Y-195585771D01*
X197791485Y-195657200D01*
X198434342Y-196514342D02*
X198291485Y-196585771D01*
X197934342Y-196585771D01*
X197791485Y-196514342D01*
X197720057Y-196371485D01*
X197720057Y-196228628D01*
X197791485Y-196085771D01*
X197934342Y-196014342D01*
X198291485Y-196014342D01*
X198434342Y-195942914D01*
X199791485Y-196585771D02*
X199791485Y-195085771D01*
X199791485Y-196514342D02*
X199648628Y-196585771D01*
X199362914Y-196585771D01*
X199220057Y-196514342D01*
X199148628Y-196442914D01*
X199077200Y-196300057D01*
X199077200Y-195871485D01*
X199148628Y-195728628D01*
X199220057Y-195657200D01*
X199362914Y-195585771D01*
X199648628Y-195585771D01*
X199791485Y-195657200D01*
X202077200Y-197157200D02*
X202005771Y-197085771D01*
X201862914Y-196871485D01*
X201791485Y-196728628D01*
X201720057Y-196514342D01*
X201648628Y-196157200D01*
X201648628Y-195871485D01*
X201720057Y-195514342D01*
X201791485Y-195300057D01*
X201862914Y-195157200D01*
X202005771Y-194942914D01*
X202077200Y-194871485D01*
X203291485Y-195085771D02*
X203005771Y-195085771D01*
X202862914Y-195157200D01*
X202791485Y-195228628D01*
X202648628Y-195442914D01*
X202577200Y-195728628D01*
X202577200Y-196300057D01*
X202648628Y-196442914D01*
X202720057Y-196514342D01*
X202862914Y-196585771D01*
X203148628Y-196585771D01*
X203291485Y-196514342D01*
X203362914Y-196442914D01*
X203434342Y-196300057D01*
X203434342Y-195942914D01*
X203362914Y-195800057D01*
X203291485Y-195728628D01*
X203148628Y-195657200D01*
X202862914Y-195657200D01*
X202720057Y-195728628D01*
X202648628Y-195800057D01*
X202577200Y-195942914D01*
X204077200Y-196442914D02*
X204148628Y-196514342D01*
X204077200Y-196585771D01*
X204005771Y-196514342D01*
X204077200Y-196442914D01*
X204077200Y-196585771D01*
X205077200Y-195085771D02*
X205220057Y-195085771D01*
X205362914Y-195157200D01*
X205434342Y-195228628D01*
X205505771Y-195371485D01*
X205577200Y-195657200D01*
X205577200Y-196014342D01*
X205505771Y-196300057D01*
X205434342Y-196442914D01*
X205362914Y-196514342D01*
X205220057Y-196585771D01*
X205077200Y-196585771D01*
X204934342Y-196514342D01*
X204862914Y-196442914D01*
X204791485Y-196300057D01*
X204720057Y-196014342D01*
X204720057Y-195657200D01*
X204791485Y-195371485D01*
X204862914Y-195228628D01*
X204934342Y-195157200D01*
X205077200Y-195085771D01*
X206220057Y-196442914D02*
X206291485Y-196514342D01*
X206220057Y-196585771D01*
X206148628Y-196514342D01*
X206220057Y-196442914D01*
X206220057Y-196585771D01*
X207577200Y-195585771D02*
X207577200Y-196585771D01*
X207220057Y-195014342D02*
X206862914Y-196085771D01*
X207791485Y-196085771D01*
X208220057Y-197157200D02*
X208291485Y-197085771D01*
X208434342Y-196871485D01*
X208505771Y-196728628D01*
X208577200Y-196514342D01*
X208648628Y-196157200D01*
X208648628Y-195871485D01*
X208577200Y-195514342D01*
X208505771Y-195300057D01*
X208434342Y-195157200D01*
X208291485Y-194942914D01*
X208220057Y-194871485D01*
D10*
D11*
X177002200Y-191507200D02*
X285002200Y-191507200D01*
D10*
D12*
X264411485Y-193785771D02*
X263911485Y-193071485D01*
X263554342Y-193785771D02*
X263554342Y-192285771D01*
X264125771Y-192285771D01*
X264268628Y-192357200D01*
X264340057Y-192428628D01*
X264411485Y-192571485D01*
X264411485Y-192785771D01*
X264340057Y-192928628D01*
X264268628Y-193000057D01*
X264125771Y-193071485D01*
X263554342Y-193071485D01*
X265625771Y-193714342D02*
X265482914Y-193785771D01*
X265197200Y-193785771D01*
X265054342Y-193714342D01*
X264982914Y-193571485D01*
X264982914Y-193000057D01*
X265054342Y-192857200D01*
X265197200Y-192785771D01*
X265482914Y-192785771D01*
X265625771Y-192857200D01*
X265697200Y-193000057D01*
X265697200Y-193142914D01*
X264982914Y-193285771D01*
X266197200Y-192785771D02*
X266554342Y-193785771D01*
X266911485Y-192785771D01*
X267482914Y-193642914D02*
X267554342Y-193714342D01*
X267482914Y-193785771D01*
X267411485Y-193714342D01*
X267482914Y-193642914D01*
X267482914Y-193785771D01*
X267482914Y-192857200D02*
X267554342Y-192928628D01*
X267482914Y-193000057D01*
X267411485Y-192928628D01*
X267482914Y-192857200D01*
X267482914Y-193000057D01*
X269625771Y-192285771D02*
X269768628Y-192285771D01*
X269911485Y-192357200D01*
X269982914Y-192428628D01*
X270054342Y-192571485D01*
X270125771Y-192857200D01*
X270125771Y-193214342D01*
X270054342Y-193500057D01*
X269982914Y-193642914D01*
X269911485Y-193714342D01*
X269768628Y-193785771D01*
X269625771Y-193785771D01*
X269482914Y-193714342D01*
X269411485Y-193642914D01*
X269340057Y-193500057D01*
X269268628Y-193214342D01*
X269268628Y-192857200D01*
X269340057Y-192571485D01*
X269411485Y-192428628D01*
X269482914Y-192357200D01*
X269625771Y-192285771D01*
X270768628Y-193642914D02*
X270840057Y-193714342D01*
X270768628Y-193785771D01*
X270697200Y-193714342D01*
X270768628Y-193642914D01*
X270768628Y-193785771D01*
X271340057Y-192285771D02*
X272340057Y-192285771D01*
X271697200Y-193785771D01*
D10*
D11*
X178362914Y-193714342D02*
X178577200Y-193785771D01*
X178934342Y-193785771D01*
X179077200Y-193714342D01*
X179148628Y-193642914D01*
X179220057Y-193500057D01*
X179220057Y-193357200D01*
X179148628Y-193214342D01*
X179077200Y-193142914D01*
X178934342Y-193071485D01*
X178648628Y-193000057D01*
X178505771Y-192928628D01*
X178434342Y-192857200D01*
X178362914Y-192714342D01*
X178362914Y-192571485D01*
X178434342Y-192428628D01*
X178505771Y-192357200D01*
X178648628Y-192285771D01*
X179005771Y-192285771D01*
X179220057Y-192357200D01*
X179862914Y-193785771D02*
X179862914Y-192785771D01*
X179862914Y-192285771D02*
X179791485Y-192357200D01*
X179862914Y-192428628D01*
X179934342Y-192357200D01*
X179862914Y-192285771D01*
X179862914Y-192428628D01*
X180434342Y-192785771D02*
X181220057Y-192785771D01*
X180434342Y-193785771D01*
X181220057Y-193785771D01*
X182362914Y-193714342D02*
X182220057Y-193785771D01*
X181934342Y-193785771D01*
X181791485Y-193714342D01*
X181720057Y-193571485D01*
X181720057Y-193000057D01*
X181791485Y-192857200D01*
X181934342Y-192785771D01*
X182220057Y-192785771D01*
X182362914Y-192857200D01*
X182434342Y-193000057D01*
X182434342Y-193142914D01*
X181720057Y-193285771D01*
X183077200Y-193642914D02*
X183148628Y-193714342D01*
X183077200Y-193785771D01*
X183005771Y-193714342D01*
X183077200Y-193642914D01*
X183077200Y-193785771D01*
X183077200Y-192857200D02*
X183148628Y-192928628D01*
X183077200Y-193000057D01*
X183005771Y-192928628D01*
X183077200Y-192857200D01*
X183077200Y-193000057D01*
X184862914Y-193357200D02*
X185577200Y-193357200D01*
X184720057Y-193785771D02*
X185220057Y-192285771D01*
X185720057Y-193785771D01*
X186862914Y-192785771D02*
X186862914Y-193785771D01*
X186505771Y-192214342D02*
X186148628Y-193285771D01*
X187077200Y-193285771D01*
D10*
D11*
X263434342Y-196585771D02*
X263434342Y-195085771D01*
X264791485Y-196585771D02*
X264791485Y-195085771D01*
X264791485Y-196514342D02*
X264648628Y-196585771D01*
X264362914Y-196585771D01*
X264220057Y-196514342D01*
X264148628Y-196442914D01*
X264077200Y-196300057D01*
X264077200Y-195871485D01*
X264148628Y-195728628D01*
X264220057Y-195657200D01*
X264362914Y-195585771D01*
X264648628Y-195585771D01*
X264791485Y-195657200D01*
X265505771Y-196442914D02*
X265577200Y-196514342D01*
X265505771Y-196585771D01*
X265434342Y-196514342D01*
X265505771Y-196442914D01*
X265505771Y-196585771D01*
X265505771Y-195657200D02*
X265577200Y-195728628D01*
X265505771Y-195800057D01*
X265434342Y-195728628D01*
X265505771Y-195657200D01*
X265505771Y-195800057D01*
X268148628Y-196585771D02*
X267291485Y-196585771D01*
X267720057Y-196585771D02*
X267720057Y-195085771D01*
X267577200Y-195300057D01*
X267434342Y-195442914D01*
X267291485Y-195514342D01*
X269862914Y-195014342D02*
X268577200Y-196942914D01*
X271148628Y-196585771D02*
X270291485Y-196585771D01*
X270720057Y-196585771D02*
X270720057Y-195085771D01*
X270577200Y-195300057D01*
X270434342Y-195442914D01*
X270291485Y-195514342D01*
D10*
D11*
X177002200Y-187507200D02*
X285002200Y-187507200D01*
D10*
D13*
X178714580Y-188211961D02*
X179857438Y-188211961D01*
X179036009Y-190211961D02*
X179286009Y-188211961D01*
X180274104Y-190211961D02*
X180440771Y-188878628D01*
X180524104Y-188211961D02*
X180416961Y-188307200D01*
X180500295Y-188402438D01*
X180607438Y-188307200D01*
X180524104Y-188211961D01*
X180500295Y-188402438D01*
X181107438Y-188878628D02*
X181869342Y-188878628D01*
X181476485Y-188211961D02*
X181262200Y-189926247D01*
X181333628Y-190116723D01*
X181512200Y-190211961D01*
X181702676Y-190211961D01*
X182655057Y-190211961D02*
X182476485Y-190116723D01*
X182405057Y-189926247D01*
X182619342Y-188211961D01*
X184190771Y-190116723D02*
X183988390Y-190211961D01*
X183607438Y-190211961D01*
X183428866Y-190116723D01*
X183357438Y-189926247D01*
X183452676Y-189164342D01*
X183571723Y-188973866D01*
X183774104Y-188878628D01*
X184155057Y-188878628D01*
X184333628Y-188973866D01*
X184405057Y-189164342D01*
X184381247Y-189354819D01*
X183405057Y-189545295D01*
X185155057Y-190021485D02*
X185238390Y-190116723D01*
X185131247Y-190211961D01*
X185047914Y-190116723D01*
X185155057Y-190021485D01*
X185131247Y-190211961D01*
X185286009Y-188973866D02*
X185369342Y-189069104D01*
X185262200Y-189164342D01*
X185178866Y-189069104D01*
X185286009Y-188973866D01*
X185262200Y-189164342D01*
X188893152Y-188307200D02*
X188714580Y-188211961D01*
X188428866Y-188211961D01*
X188131247Y-188307200D01*
X187916961Y-188497676D01*
X187797914Y-188688152D01*
X187655057Y-189069104D01*
X187619342Y-189354819D01*
X187666961Y-189735771D01*
X187738390Y-189926247D01*
X187905057Y-190116723D01*
X188178866Y-190211961D01*
X188369342Y-190211961D01*
X188666961Y-190116723D01*
X188774104Y-190021485D01*
X188857438Y-189354819D01*
X188476485Y-189354819D01*
X190405057Y-189164342D02*
X190678866Y-189259580D01*
X190762200Y-189354819D01*
X190833628Y-189545295D01*
X190797914Y-189831009D01*
X190678866Y-190021485D01*
X190571723Y-190116723D01*
X190369342Y-190211961D01*
X189607438Y-190211961D01*
X189857438Y-188211961D01*
X190524104Y-188211961D01*
X190702676Y-188307200D01*
X190786009Y-188402438D01*
X190857438Y-188592914D01*
X190833628Y-188783390D01*
X190714580Y-188973866D01*
X190607438Y-189069104D01*
X190405057Y-189164342D01*
X189738390Y-189164342D01*
X191702676Y-189450057D02*
X193226485Y-189450057D01*
X194083628Y-190211961D02*
X194333628Y-188211961D01*
X194809819Y-188211961D01*
X195083628Y-188307200D01*
X195250295Y-188497676D01*
X195321723Y-188688152D01*
X195369342Y-189069104D01*
X195333628Y-189354819D01*
X195190771Y-189735771D01*
X195071723Y-189926247D01*
X194857438Y-190116723D01*
X194559819Y-190211961D01*
X194083628Y-190211961D01*
X197107438Y-188878628D02*
X196940771Y-190211961D01*
X196250295Y-188878628D02*
X196119342Y-189926247D01*
X196190771Y-190116723D01*
X196369342Y-190211961D01*
X196655057Y-190211961D01*
X196857438Y-190116723D01*
X196964580Y-190021485D01*
X197893152Y-190211961D02*
X198059819Y-188878628D01*
X198036009Y-189069104D02*
X198143152Y-188973866D01*
X198345533Y-188878628D01*
X198631247Y-188878628D01*
X198809819Y-188973866D01*
X198881247Y-189164342D01*
X198750295Y-190211961D01*
X198881247Y-189164342D02*
X199000295Y-188973866D01*
X199202676Y-188878628D01*
X199488390Y-188878628D01*
X199666961Y-188973866D01*
X199738390Y-189164342D01*
X199607438Y-190211961D01*
X200726485Y-188878628D02*
X200476485Y-190878628D01*
X200714580Y-188973866D02*
X200916961Y-188878628D01*
X201297914Y-188878628D01*
X201476485Y-188973866D01*
X201559819Y-189069104D01*
X201631247Y-189259580D01*
X201559819Y-189831009D01*
X201440771Y-190021485D01*
X201333628Y-190116723D01*
X201131247Y-190211961D01*
X200750295Y-190211961D01*
X200571723Y-190116723D01*
X203143152Y-190116723D02*
X202940771Y-190211961D01*
X202559819Y-190211961D01*
X202381247Y-190116723D01*
X202309819Y-189926247D01*
X202405057Y-189164342D01*
X202524104Y-188973866D01*
X202726485Y-188878628D01*
X203107438Y-188878628D01*
X203286009Y-188973866D01*
X203357438Y-189164342D01*
X203333628Y-189354819D01*
X202357438Y-189545295D01*
X204083628Y-190211961D02*
X204250295Y-188878628D01*
X204202676Y-189259580D02*
X204321723Y-189069104D01*
X204428866Y-188973866D01*
X204631247Y-188878628D01*
X204821723Y-188878628D01*
D10*
D11*
X178934342Y-185600057D02*
X178434342Y-185600057D01*
X178434342Y-186385771D02*
X178434342Y-184885771D01*
X179148628Y-184885771D01*
X179720057Y-186385771D02*
X179720057Y-185385771D01*
X179720057Y-184885771D02*
X179648628Y-184957200D01*
X179720057Y-185028628D01*
X179791485Y-184957200D01*
X179720057Y-184885771D01*
X179720057Y-185028628D01*
X180648628Y-186385771D02*
X180505771Y-186314342D01*
X180434342Y-186171485D01*
X180434342Y-184885771D01*
X181791485Y-186314342D02*
X181648628Y-186385771D01*
X181362914Y-186385771D01*
X181220057Y-186314342D01*
X181148628Y-186171485D01*
X181148628Y-185600057D01*
X181220057Y-185457200D01*
X181362914Y-185385771D01*
X181648628Y-185385771D01*
X181791485Y-185457200D01*
X181862914Y-185600057D01*
X181862914Y-185742914D01*
X181148628Y-185885771D01*
X182505771Y-186242914D02*
X182577200Y-186314342D01*
X182505771Y-186385771D01*
X182434342Y-186314342D01*
X182505771Y-186242914D01*
X182505771Y-186385771D01*
X182505771Y-185457200D02*
X182577200Y-185528628D01*
X182505771Y-185600057D01*
X182434342Y-185528628D01*
X182505771Y-185457200D01*
X182505771Y-185600057D01*
X185148628Y-184957200D02*
X185005771Y-184885771D01*
X184791485Y-184885771D01*
X184577200Y-184957200D01*
X184434342Y-185100057D01*
X184362914Y-185242914D01*
X184291485Y-185528628D01*
X184291485Y-185742914D01*
X184362914Y-186028628D01*
X184434342Y-186171485D01*
X184577200Y-186314342D01*
X184791485Y-186385771D01*
X184934342Y-186385771D01*
X185148628Y-186314342D01*
X185220057Y-186242914D01*
X185220057Y-185742914D01*
X184934342Y-185742914D01*
X186362914Y-185600057D02*
X186577200Y-185671485D01*
X186648628Y-185742914D01*
X186720057Y-185885771D01*
X186720057Y-186100057D01*
X186648628Y-186242914D01*
X186577200Y-186314342D01*
X186434342Y-186385771D01*
X185862914Y-186385771D01*
X185862914Y-184885771D01*
X186362914Y-184885771D01*
X186505771Y-184957200D01*
X186577200Y-185028628D01*
X186648628Y-185171485D01*
X186648628Y-185314342D01*
X186577200Y-185457200D01*
X186505771Y-185528628D01*
X186362914Y-185600057D01*
X185862914Y-185600057D01*
X187362914Y-185814342D02*
X188505771Y-185814342D01*
X189220057Y-186385771D02*
X189220057Y-184885771D01*
X189577200Y-184885771D01*
X189791485Y-184957200D01*
X189934342Y-185100057D01*
X190005771Y-185242914D01*
X190077200Y-185528628D01*
X190077200Y-185742914D01*
X190005771Y-186028628D01*
X189934342Y-186171485D01*
X189791485Y-186314342D01*
X189577200Y-186385771D01*
X189220057Y-186385771D01*
X191362914Y-185385771D02*
X191362914Y-186385771D01*
X190720057Y-185385771D02*
X190720057Y-186171485D01*
X190791485Y-186314342D01*
X190934342Y-186385771D01*
X191148628Y-186385771D01*
X191291485Y-186314342D01*
X191362914Y-186242914D01*
X192077200Y-186385771D02*
X192077200Y-185385771D01*
X192077200Y-185528628D02*
X192148628Y-185457200D01*
X192291485Y-185385771D01*
X192505771Y-185385771D01*
X192648628Y-185457200D01*
X192720057Y-185600057D01*
X192720057Y-186385771D01*
X192720057Y-185600057D02*
X192791485Y-185457200D01*
X192934342Y-185385771D01*
X193148628Y-185385771D01*
X193291485Y-185457200D01*
X193362914Y-185600057D01*
X193362914Y-186385771D01*
X194077200Y-185385771D02*
X194077200Y-186885771D01*
X194077200Y-185457200D02*
X194220057Y-185385771D01*
X194505771Y-185385771D01*
X194648628Y-185457200D01*
X194720057Y-185528628D01*
X194791485Y-185671485D01*
X194791485Y-186100057D01*
X194720057Y-186242914D01*
X194648628Y-186314342D01*
X194505771Y-186385771D01*
X194220057Y-186385771D01*
X194077200Y-186314342D01*
X196005771Y-186314342D02*
X195862914Y-186385771D01*
X195577200Y-186385771D01*
X195434342Y-186314342D01*
X195362914Y-186171485D01*
X195362914Y-185600057D01*
X195434342Y-185457200D01*
X195577200Y-185385771D01*
X195862914Y-185385771D01*
X196005771Y-185457200D01*
X196077200Y-185600057D01*
X196077200Y-185742914D01*
X195362914Y-185885771D01*
X196720057Y-186385771D02*
X196720057Y-185385771D01*
X196720057Y-185671485D02*
X196791485Y-185528628D01*
X196862914Y-185457200D01*
X197005771Y-185385771D01*
X197148628Y-185385771D01*
X197648628Y-186242914D02*
X197720057Y-186314342D01*
X197648628Y-186385771D01*
X197577200Y-186314342D01*
X197648628Y-186242914D01*
X197648628Y-186385771D01*
X198362914Y-186385771D02*
X198362914Y-184885771D01*
X198505771Y-185814342D02*
X198934342Y-186385771D01*
X198934342Y-185385771D02*
X198362914Y-185957200D01*
X199577200Y-186385771D02*
X199577200Y-185385771D01*
X199577200Y-184885771D02*
X199505771Y-184957200D01*
X199577200Y-185028628D01*
X199648628Y-184957200D01*
X199577200Y-184885771D01*
X199577200Y-185028628D01*
X200934342Y-186314342D02*
X200791485Y-186385771D01*
X200505771Y-186385771D01*
X200362914Y-186314342D01*
X200291485Y-186242914D01*
X200220057Y-186100057D01*
X200220057Y-185671485D01*
X200291485Y-185528628D01*
X200362914Y-185457200D01*
X200505771Y-185385771D01*
X200791485Y-185385771D01*
X200934342Y-185457200D01*
X202220057Y-186385771D02*
X202220057Y-185600057D01*
X202148628Y-185457200D01*
X202005771Y-185385771D01*
X201720057Y-185385771D01*
X201577200Y-185457200D01*
X202220057Y-186314342D02*
X202077200Y-186385771D01*
X201720057Y-186385771D01*
X201577200Y-186314342D01*
X201505771Y-186171485D01*
X201505771Y-186028628D01*
X201577200Y-185885771D01*
X201720057Y-185814342D01*
X202077200Y-185814342D01*
X202220057Y-185742914D01*
X203577200Y-186385771D02*
X203577200Y-184885771D01*
X203577200Y-186314342D02*
X203434342Y-186385771D01*
X203148628Y-186385771D01*
X203005771Y-186314342D01*
X202934342Y-186242914D01*
X202862914Y-186100057D01*
X202862914Y-185671485D01*
X202934342Y-185528628D01*
X203005771Y-185457200D01*
X203148628Y-185385771D01*
X203434342Y-185385771D01*
X203577200Y-185457200D01*
X203934342Y-186528628D02*
X205077200Y-186528628D01*
X205434342Y-185385771D02*
X205434342Y-186885771D01*
X205434342Y-185457200D02*
X205577200Y-185385771D01*
X205862914Y-185385771D01*
X206005771Y-185457200D01*
X206077200Y-185528628D01*
X206148628Y-185671485D01*
X206148628Y-186100057D01*
X206077200Y-186242914D01*
X206005771Y-186314342D01*
X205862914Y-186385771D01*
X205577200Y-186385771D01*
X205434342Y-186314342D01*
X207434342Y-186314342D02*
X207291485Y-186385771D01*
X207005771Y-186385771D01*
X206862914Y-186314342D01*
X206791485Y-186242914D01*
X206720057Y-186100057D01*
X206720057Y-185671485D01*
X206791485Y-185528628D01*
X206862914Y-185457200D01*
X207005771Y-185385771D01*
X207291485Y-185385771D01*
X207434342Y-185457200D01*
X208077200Y-186385771D02*
X208077200Y-184885771D01*
X208077200Y-185457200D02*
X208220057Y-185385771D01*
X208505771Y-185385771D01*
X208648628Y-185457200D01*
X208720057Y-185528628D01*
X208791485Y-185671485D01*
X208791485Y-186100057D01*
X208720057Y-186242914D01*
X208648628Y-186314342D01*
X208505771Y-186385771D01*
X208220057Y-186385771D01*
X208077200Y-186314342D01*
D10*
D11*
X177002200Y-181507200D02*
X285002200Y-181507200D01*
D10*
D11*
X178362914Y-183614342D02*
X178577200Y-183685771D01*
X178934342Y-183685771D01*
X179077200Y-183614342D01*
X179148628Y-183542914D01*
X179220057Y-183400057D01*
X179220057Y-183257200D01*
X179148628Y-183114342D01*
X179077200Y-183042914D01*
X178934342Y-182971485D01*
X178648628Y-182900057D01*
X178505771Y-182828628D01*
X178434342Y-182757200D01*
X178362914Y-182614342D01*
X178362914Y-182471485D01*
X178434342Y-182328628D01*
X178505771Y-182257200D01*
X178648628Y-182185771D01*
X179005771Y-182185771D01*
X179220057Y-182257200D01*
X179862914Y-183685771D02*
X179862914Y-182185771D01*
X180505771Y-183685771D02*
X180505771Y-182900057D01*
X180434342Y-182757200D01*
X180291485Y-182685771D01*
X180077200Y-182685771D01*
X179934342Y-182757200D01*
X179862914Y-182828628D01*
X181791485Y-183614342D02*
X181648628Y-183685771D01*
X181362914Y-183685771D01*
X181220057Y-183614342D01*
X181148628Y-183471485D01*
X181148628Y-182900057D01*
X181220057Y-182757200D01*
X181362914Y-182685771D01*
X181648628Y-182685771D01*
X181791485Y-182757200D01*
X181862914Y-182900057D01*
X181862914Y-183042914D01*
X181148628Y-183185771D01*
X183077200Y-183614342D02*
X182934342Y-183685771D01*
X182648628Y-183685771D01*
X182505771Y-183614342D01*
X182434342Y-183471485D01*
X182434342Y-182900057D01*
X182505771Y-182757200D01*
X182648628Y-182685771D01*
X182934342Y-182685771D01*
X183077200Y-182757200D01*
X183148628Y-182900057D01*
X183148628Y-183042914D01*
X182434342Y-183185771D01*
X183577200Y-182685771D02*
X184148628Y-182685771D01*
X183791485Y-182185771D02*
X183791485Y-183471485D01*
X183862914Y-183614342D01*
X184005771Y-183685771D01*
X184148628Y-183685771D01*
X184648628Y-183542914D02*
X184720057Y-183614342D01*
X184648628Y-183685771D01*
X184577200Y-183614342D01*
X184648628Y-183542914D01*
X184648628Y-183685771D01*
X184648628Y-182757200D02*
X184720057Y-182828628D01*
X184648628Y-182900057D01*
X184577200Y-182828628D01*
X184648628Y-182757200D01*
X184648628Y-182900057D01*
D10*
D12*
X178982914Y-181257200D02*
X178911485Y-181185771D01*
X178768628Y-180971485D01*
X178697200Y-180828628D01*
X178625771Y-180614342D01*
X178554342Y-180257200D01*
X178554342Y-179971485D01*
X178625771Y-179614342D01*
X178697200Y-179400057D01*
X178768628Y-179257200D01*
X178911485Y-179042914D01*
X178982914Y-178971485D01*
X180411485Y-180542914D02*
X180340057Y-180614342D01*
X180125771Y-180685771D01*
X179982914Y-180685771D01*
X179768628Y-180614342D01*
X179625771Y-180471485D01*
X179554342Y-180328628D01*
X179482914Y-180042914D01*
X179482914Y-179828628D01*
X179554342Y-179542914D01*
X179625771Y-179400057D01*
X179768628Y-179257200D01*
X179982914Y-179185771D01*
X180125771Y-179185771D01*
X180340057Y-179257200D01*
X180411485Y-179328628D01*
X180911485Y-181257200D02*
X180982914Y-181185771D01*
X181125771Y-180971485D01*
X181197200Y-180828628D01*
X181268628Y-180614342D01*
X181340057Y-180257200D01*
X181340057Y-179971485D01*
X181268628Y-179614342D01*
X181197200Y-179400057D01*
X181125771Y-179257200D01*
X180982914Y-179042914D01*
X180911485Y-178971485D01*
X183054342Y-179185771D02*
X183411485Y-180685771D01*
X183697200Y-179614342D01*
X183982914Y-180685771D01*
X184340057Y-179185771D01*
X185125771Y-180685771D02*
X184982914Y-180614342D01*
X184911485Y-180542914D01*
X184840057Y-180400057D01*
X184840057Y-179971485D01*
X184911485Y-179828628D01*
X184982914Y-179757200D01*
X185125771Y-179685771D01*
X185340057Y-179685771D01*
X185482914Y-179757200D01*
X185554342Y-179828628D01*
X185625771Y-179971485D01*
X185625771Y-180400057D01*
X185554342Y-180542914D01*
X185482914Y-180614342D01*
X185340057Y-180685771D01*
X185125771Y-180685771D01*
X186911485Y-180685771D02*
X186911485Y-179185771D01*
X186911485Y-180614342D02*
X186768628Y-180685771D01*
X186482914Y-180685771D01*
X186340057Y-180614342D01*
X186268628Y-180542914D01*
X186197200Y-180400057D01*
X186197200Y-179971485D01*
X186268628Y-179828628D01*
X186340057Y-179757200D01*
X186482914Y-179685771D01*
X186768628Y-179685771D01*
X186911485Y-179757200D01*
X187840057Y-180685771D02*
X187697200Y-180614342D01*
X187625771Y-180542914D01*
X187554342Y-180400057D01*
X187554342Y-179971485D01*
X187625771Y-179828628D01*
X187697200Y-179757200D01*
X187840057Y-179685771D01*
X188054342Y-179685771D01*
X188197200Y-179757200D01*
X188268628Y-179828628D01*
X188340057Y-179971485D01*
X188340057Y-180400057D01*
X188268628Y-180542914D01*
X188197200Y-180614342D01*
X188054342Y-180685771D01*
X187840057Y-180685771D01*
X188840057Y-179185771D02*
X189197200Y-180685771D01*
X189482914Y-179614342D01*
X189768628Y-180685771D01*
X190125771Y-179185771D01*
X190697200Y-180685771D02*
X190697200Y-179685771D01*
X190697200Y-179185771D02*
X190625771Y-179257200D01*
X190697200Y-179328628D01*
X190768628Y-179257200D01*
X190697200Y-179185771D01*
X190697200Y-179328628D01*
X191982914Y-180614342D02*
X191840057Y-180685771D01*
X191554342Y-180685771D01*
X191411485Y-180614342D01*
X191340057Y-180471485D01*
X191340057Y-179900057D01*
X191411485Y-179757200D01*
X191554342Y-179685771D01*
X191840057Y-179685771D01*
X191982914Y-179757200D01*
X192054342Y-179900057D01*
X192054342Y-180042914D01*
X191340057Y-180185771D01*
X192625771Y-180614342D02*
X192768628Y-180685771D01*
X193054342Y-180685771D01*
X193197200Y-180614342D01*
X193268628Y-180471485D01*
X193268628Y-180400057D01*
X193197200Y-180257200D01*
X193054342Y-180185771D01*
X192840057Y-180185771D01*
X192697200Y-180114342D01*
X192625771Y-179971485D01*
X192625771Y-179900057D01*
X192697200Y-179757200D01*
X192840057Y-179685771D01*
X193054342Y-179685771D01*
X193197200Y-179757200D01*
X194482914Y-180614342D02*
X194340057Y-180685771D01*
X194054342Y-180685771D01*
X193911485Y-180614342D01*
X193840057Y-180471485D01*
X193840057Y-179900057D01*
X193911485Y-179757200D01*
X194054342Y-179685771D01*
X194340057Y-179685771D01*
X194482914Y-179757200D01*
X194554342Y-179900057D01*
X194554342Y-180042914D01*
X193840057Y-180185771D01*
X195411485Y-180685771D02*
X195268628Y-180614342D01*
X195197200Y-180471485D01*
X195197200Y-179185771D01*
D10*
D11*
D10*
D11*
D10*
D11*
D10*
D11*
D10*
D11*
X197002200Y-191507200D02*
X197002200Y-194507200D01*
D10*
D11*
X261002200Y-191507200D02*
X261002200Y-198007200D01*
D14*
X273834000Y-83564000D02*
X273834000Y-155540000D01*
X184378000Y-83564000D02*
X273834000Y-83564000D01*
X184478000Y-155564000D02*
X184378000Y-83564000D01*
X273834000Y-155540000D02*
X184478000Y-155564000D01*
D11*
%TO.C,J1*%
X267238000Y-129305142D02*
X267190380Y-129400380D01*
X267190380Y-129543238D01*
X267238000Y-129686095D01*
X267333238Y-129781333D01*
X267428476Y-129828952D01*
X267618952Y-129876571D01*
X267761809Y-129876571D01*
X267952285Y-129828952D01*
X268047523Y-129781333D01*
X268142761Y-129686095D01*
X268190380Y-129543238D01*
X268190380Y-129448000D01*
X268142761Y-129305142D01*
X268095142Y-129257523D01*
X267761809Y-129257523D01*
X267761809Y-129448000D01*
X268190380Y-128400380D02*
X267666571Y-128400380D01*
X267571333Y-128448000D01*
X267523714Y-128543238D01*
X267523714Y-128733714D01*
X267571333Y-128828952D01*
X268142761Y-128400380D02*
X268190380Y-128495619D01*
X268190380Y-128733714D01*
X268142761Y-128828952D01*
X268047523Y-128876571D01*
X267952285Y-128876571D01*
X267857047Y-128828952D01*
X267809428Y-128733714D01*
X267809428Y-128495619D01*
X267761809Y-128400380D01*
X268190380Y-127924190D02*
X267523714Y-127924190D01*
X267618952Y-127924190D02*
X267571333Y-127876571D01*
X267523714Y-127781333D01*
X267523714Y-127638476D01*
X267571333Y-127543238D01*
X267666571Y-127495619D01*
X268190380Y-127495619D01*
X267666571Y-127495619D02*
X267571333Y-127448000D01*
X267523714Y-127352761D01*
X267523714Y-127209904D01*
X267571333Y-127114666D01*
X267666571Y-127067047D01*
X268190380Y-127067047D01*
X268142761Y-126209904D02*
X268190380Y-126305142D01*
X268190380Y-126495619D01*
X268142761Y-126590857D01*
X268047523Y-126638476D01*
X267666571Y-126638476D01*
X267571333Y-126590857D01*
X267523714Y-126495619D01*
X267523714Y-126305142D01*
X267571333Y-126209904D01*
X267666571Y-126162285D01*
X267761809Y-126162285D01*
X267857047Y-126638476D01*
X267666571Y-125400380D02*
X267714190Y-125257523D01*
X267761809Y-125209904D01*
X267857047Y-125162285D01*
X267999904Y-125162285D01*
X268095142Y-125209904D01*
X268142761Y-125257523D01*
X268190380Y-125352761D01*
X268190380Y-125733714D01*
X267190380Y-125733714D01*
X267190380Y-125400380D01*
X267238000Y-125305142D01*
X267285619Y-125257523D01*
X267380857Y-125209904D01*
X267476095Y-125209904D01*
X267571333Y-125257523D01*
X267618952Y-125305142D01*
X267666571Y-125400380D01*
X267666571Y-125733714D01*
X268190380Y-124590857D02*
X268142761Y-124686095D01*
X268095142Y-124733714D01*
X267999904Y-124781333D01*
X267714190Y-124781333D01*
X267618952Y-124733714D01*
X267571333Y-124686095D01*
X267523714Y-124590857D01*
X267523714Y-124448000D01*
X267571333Y-124352761D01*
X267618952Y-124305142D01*
X267714190Y-124257523D01*
X267999904Y-124257523D01*
X268095142Y-124305142D01*
X268142761Y-124352761D01*
X268190380Y-124448000D01*
X268190380Y-124590857D01*
X267523714Y-123924190D02*
X268190380Y-123686095D01*
X267523714Y-123448000D02*
X268190380Y-123686095D01*
X268428476Y-123781333D01*
X268476095Y-123828952D01*
X268523714Y-123924190D01*
X268285619Y-123305142D02*
X268285619Y-122543238D01*
X268095142Y-121733714D02*
X268142761Y-121781333D01*
X268190380Y-121924190D01*
X268190380Y-122019428D01*
X268142761Y-122162285D01*
X268047523Y-122257523D01*
X267952285Y-122305142D01*
X267761809Y-122352761D01*
X267618952Y-122352761D01*
X267428476Y-122305142D01*
X267333238Y-122257523D01*
X267238000Y-122162285D01*
X267190380Y-122019428D01*
X267190380Y-121924190D01*
X267238000Y-121781333D01*
X267285619Y-121733714D01*
X268190380Y-120876571D02*
X267666571Y-120876571D01*
X267571333Y-120924190D01*
X267523714Y-121019428D01*
X267523714Y-121209904D01*
X267571333Y-121305142D01*
X268142761Y-120876571D02*
X268190380Y-120971809D01*
X268190380Y-121209904D01*
X268142761Y-121305142D01*
X268047523Y-121352761D01*
X267952285Y-121352761D01*
X267857047Y-121305142D01*
X267809428Y-121209904D01*
X267809428Y-120971809D01*
X267761809Y-120876571D01*
X268190380Y-120400380D02*
X267523714Y-120400380D01*
X267714190Y-120400380D02*
X267618952Y-120352761D01*
X267571333Y-120305142D01*
X267523714Y-120209904D01*
X267523714Y-120114666D01*
X267523714Y-119924190D02*
X267523714Y-119543238D01*
X267190380Y-119781333D02*
X268047523Y-119781333D01*
X268142761Y-119733714D01*
X268190380Y-119638476D01*
X268190380Y-119543238D01*
X268190380Y-119209904D02*
X267523714Y-119209904D01*
X267714190Y-119209904D02*
X267618952Y-119162285D01*
X267571333Y-119114666D01*
X267523714Y-119019428D01*
X267523714Y-118924190D01*
X268190380Y-118590857D02*
X267523714Y-118590857D01*
X267190380Y-118590857D02*
X267238000Y-118638476D01*
X267285619Y-118590857D01*
X267238000Y-118543238D01*
X267190380Y-118590857D01*
X267285619Y-118590857D01*
X268190380Y-117686095D02*
X267190380Y-117686095D01*
X268142761Y-117686095D02*
X268190380Y-117781333D01*
X268190380Y-117971809D01*
X268142761Y-118067047D01*
X268095142Y-118114666D01*
X267999904Y-118162285D01*
X267714190Y-118162285D01*
X267618952Y-118114666D01*
X267571333Y-118067047D01*
X267523714Y-117971809D01*
X267523714Y-117781333D01*
X267571333Y-117686095D01*
X267523714Y-116781333D02*
X268333238Y-116781333D01*
X268428476Y-116828952D01*
X268476095Y-116876571D01*
X268523714Y-116971809D01*
X268523714Y-117114666D01*
X268476095Y-117209904D01*
X268142761Y-116781333D02*
X268190380Y-116876571D01*
X268190380Y-117067047D01*
X268142761Y-117162285D01*
X268095142Y-117209904D01*
X267999904Y-117257523D01*
X267714190Y-117257523D01*
X267618952Y-117209904D01*
X267571333Y-117162285D01*
X267523714Y-117067047D01*
X267523714Y-116876571D01*
X267571333Y-116781333D01*
X268142761Y-115924190D02*
X268190380Y-116019428D01*
X268190380Y-116209904D01*
X268142761Y-116305142D01*
X268047523Y-116352761D01*
X267666571Y-116352761D01*
X267571333Y-116305142D01*
X267523714Y-116209904D01*
X267523714Y-116019428D01*
X267571333Y-115924190D01*
X267666571Y-115876571D01*
X267761809Y-115876571D01*
X267857047Y-116352761D01*
X268285619Y-115686095D02*
X268285619Y-114924190D01*
X268190380Y-114686095D02*
X267190380Y-114686095D01*
X267904666Y-114352761D01*
X267190380Y-114019428D01*
X268190380Y-114019428D01*
X268190380Y-113400380D02*
X268142761Y-113495619D01*
X268095142Y-113543238D01*
X267999904Y-113590857D01*
X267714190Y-113590857D01*
X267618952Y-113543238D01*
X267571333Y-113495619D01*
X267523714Y-113400380D01*
X267523714Y-113257523D01*
X267571333Y-113162285D01*
X267618952Y-113114666D01*
X267714190Y-113067047D01*
X267999904Y-113067047D01*
X268095142Y-113114666D01*
X268142761Y-113162285D01*
X268190380Y-113257523D01*
X268190380Y-113400380D01*
X267523714Y-112209904D02*
X268190380Y-112209904D01*
X267523714Y-112638476D02*
X268047523Y-112638476D01*
X268142761Y-112590857D01*
X268190380Y-112495619D01*
X268190380Y-112352761D01*
X268142761Y-112257523D01*
X268095142Y-112209904D01*
X267523714Y-111733714D02*
X268190380Y-111733714D01*
X267618952Y-111733714D02*
X267571333Y-111686095D01*
X267523714Y-111590857D01*
X267523714Y-111448000D01*
X267571333Y-111352761D01*
X267666571Y-111305142D01*
X268190380Y-111305142D01*
X267523714Y-110971809D02*
X267523714Y-110590857D01*
X267190380Y-110828952D02*
X268047523Y-110828952D01*
X268142761Y-110781333D01*
X268190380Y-110686095D01*
X268190380Y-110590857D01*
X268190380Y-110257523D02*
X267523714Y-110257523D01*
X267190380Y-110257523D02*
X267238000Y-110305142D01*
X267285619Y-110257523D01*
X267238000Y-110209904D01*
X267190380Y-110257523D01*
X267285619Y-110257523D01*
X267523714Y-109781333D02*
X268190380Y-109781333D01*
X267618952Y-109781333D02*
X267571333Y-109733714D01*
X267523714Y-109638476D01*
X267523714Y-109495619D01*
X267571333Y-109400380D01*
X267666571Y-109352761D01*
X268190380Y-109352761D01*
X267523714Y-108448000D02*
X268333238Y-108448000D01*
X268428476Y-108495619D01*
X268476095Y-108543238D01*
X268523714Y-108638476D01*
X268523714Y-108781333D01*
X268476095Y-108876571D01*
X268142761Y-108448000D02*
X268190380Y-108543238D01*
X268190380Y-108733714D01*
X268142761Y-108828952D01*
X268095142Y-108876571D01*
X267999904Y-108924190D01*
X267714190Y-108924190D01*
X267618952Y-108876571D01*
X267571333Y-108828952D01*
X267523714Y-108733714D01*
X267523714Y-108543238D01*
X267571333Y-108448000D01*
X268190380Y-107971809D02*
X267190380Y-107971809D01*
X267190380Y-107590857D01*
X267238000Y-107495619D01*
X267285619Y-107448000D01*
X267380857Y-107400380D01*
X267523714Y-107400380D01*
X267618952Y-107448000D01*
X267666571Y-107495619D01*
X267714190Y-107590857D01*
X267714190Y-107971809D01*
X268190380Y-106971809D02*
X267523714Y-106971809D01*
X267190380Y-106971809D02*
X267238000Y-107019428D01*
X267285619Y-106971809D01*
X267238000Y-106924190D01*
X267190380Y-106971809D01*
X267285619Y-106971809D01*
X267523714Y-106495619D02*
X268190380Y-106495619D01*
X267618952Y-106495619D02*
X267571333Y-106448000D01*
X267523714Y-106352761D01*
X267523714Y-106209904D01*
X267571333Y-106114666D01*
X267666571Y-106067047D01*
X268190380Y-106067047D01*
X249410380Y-92817333D02*
X250124666Y-92817333D01*
X250267523Y-92864952D01*
X250362761Y-92960190D01*
X250410380Y-93103047D01*
X250410380Y-93198285D01*
X250410380Y-91817333D02*
X250410380Y-92388761D01*
X250410380Y-92103047D02*
X249410380Y-92103047D01*
X249553238Y-92198285D01*
X249648476Y-92293523D01*
X249696095Y-92388761D01*
%TO.C,J3*%
X253525142Y-154687333D02*
X253572761Y-154734952D01*
X253620380Y-154877809D01*
X253620380Y-154973047D01*
X253572761Y-155115904D01*
X253477523Y-155211142D01*
X253382285Y-155258761D01*
X253191809Y-155306380D01*
X253048952Y-155306380D01*
X252858476Y-155258761D01*
X252763238Y-155211142D01*
X252668000Y-155115904D01*
X252620380Y-154973047D01*
X252620380Y-154877809D01*
X252668000Y-154734952D01*
X252715619Y-154687333D01*
X253620380Y-154115904D02*
X253572761Y-154211142D01*
X253525142Y-154258761D01*
X253429904Y-154306380D01*
X253144190Y-154306380D01*
X253048952Y-154258761D01*
X253001333Y-154211142D01*
X252953714Y-154115904D01*
X252953714Y-153973047D01*
X253001333Y-153877809D01*
X253048952Y-153830190D01*
X253144190Y-153782571D01*
X253429904Y-153782571D01*
X253525142Y-153830190D01*
X253572761Y-153877809D01*
X253620380Y-153973047D01*
X253620380Y-154115904D01*
X252953714Y-153354000D02*
X253620380Y-153354000D01*
X253048952Y-153354000D02*
X253001333Y-153306380D01*
X252953714Y-153211142D01*
X252953714Y-153068285D01*
X253001333Y-152973047D01*
X253096571Y-152925428D01*
X253620380Y-152925428D01*
X252953714Y-152449238D02*
X253620380Y-152449238D01*
X253048952Y-152449238D02*
X253001333Y-152401619D01*
X252953714Y-152306380D01*
X252953714Y-152163523D01*
X253001333Y-152068285D01*
X253096571Y-152020666D01*
X253620380Y-152020666D01*
X253715619Y-151782571D02*
X253715619Y-151020666D01*
X252620380Y-150592095D02*
X252620380Y-150496857D01*
X252668000Y-150401619D01*
X252715619Y-150354000D01*
X252810857Y-150306380D01*
X253001333Y-150258761D01*
X253239428Y-150258761D01*
X253429904Y-150306380D01*
X253525142Y-150354000D01*
X253572761Y-150401619D01*
X253620380Y-150496857D01*
X253620380Y-150592095D01*
X253572761Y-150687333D01*
X253525142Y-150734952D01*
X253429904Y-150782571D01*
X253239428Y-150830190D01*
X253001333Y-150830190D01*
X252810857Y-150782571D01*
X252715619Y-150734952D01*
X252668000Y-150687333D01*
X252620380Y-150592095D01*
X253620380Y-149306380D02*
X253620380Y-149877809D01*
X253620380Y-149592095D02*
X252620380Y-149592095D01*
X252763238Y-149687333D01*
X252858476Y-149782571D01*
X252906095Y-149877809D01*
X253620380Y-148973047D02*
X252953714Y-148449238D01*
X252953714Y-148973047D02*
X253620380Y-148449238D01*
X252620380Y-147877809D02*
X252620380Y-147782571D01*
X252668000Y-147687333D01*
X252715619Y-147639714D01*
X252810857Y-147592095D01*
X253001333Y-147544476D01*
X253239428Y-147544476D01*
X253429904Y-147592095D01*
X253525142Y-147639714D01*
X253572761Y-147687333D01*
X253620380Y-147782571D01*
X253620380Y-147877809D01*
X253572761Y-147973047D01*
X253525142Y-148020666D01*
X253429904Y-148068285D01*
X253239428Y-148115904D01*
X253001333Y-148115904D01*
X252810857Y-148068285D01*
X252715619Y-148020666D01*
X252668000Y-147973047D01*
X252620380Y-147877809D01*
X252715619Y-147163523D02*
X252668000Y-147115904D01*
X252620380Y-147020666D01*
X252620380Y-146782571D01*
X252668000Y-146687333D01*
X252715619Y-146639714D01*
X252810857Y-146592095D01*
X252906095Y-146592095D01*
X253048952Y-146639714D01*
X253620380Y-147211142D01*
X253620380Y-146592095D01*
X253715619Y-146401619D02*
X253715619Y-145639714D01*
X253620380Y-145401619D02*
X252620380Y-145401619D01*
X253334666Y-145068285D01*
X252620380Y-144734952D01*
X253620380Y-144734952D01*
X253620380Y-143830190D02*
X253096571Y-143830190D01*
X253001333Y-143877809D01*
X252953714Y-143973047D01*
X252953714Y-144163523D01*
X253001333Y-144258761D01*
X253572761Y-143830190D02*
X253620380Y-143925428D01*
X253620380Y-144163523D01*
X253572761Y-144258761D01*
X253477523Y-144306380D01*
X253382285Y-144306380D01*
X253287047Y-144258761D01*
X253239428Y-144163523D01*
X253239428Y-143925428D01*
X253191809Y-143830190D01*
X253620380Y-143211142D02*
X253572761Y-143306380D01*
X253477523Y-143354000D01*
X252620380Y-143354000D01*
X253572761Y-142449238D02*
X253620380Y-142544476D01*
X253620380Y-142734952D01*
X253572761Y-142830190D01*
X253477523Y-142877809D01*
X253096571Y-142877809D01*
X253001333Y-142830190D01*
X252953714Y-142734952D01*
X252953714Y-142544476D01*
X253001333Y-142449238D01*
X253096571Y-142401619D01*
X253191809Y-142401619D01*
X253287047Y-142877809D01*
X244239666Y-152616380D02*
X244239666Y-153330666D01*
X244192047Y-153473523D01*
X244096809Y-153568761D01*
X243953952Y-153616380D01*
X243858714Y-153616380D01*
X244620619Y-152616380D02*
X245239666Y-152616380D01*
X244906333Y-152997333D01*
X245049190Y-152997333D01*
X245144428Y-153044952D01*
X245192047Y-153092571D01*
X245239666Y-153187809D01*
X245239666Y-153425904D01*
X245192047Y-153521142D01*
X245144428Y-153568761D01*
X245049190Y-153616380D01*
X244763476Y-153616380D01*
X244668238Y-153568761D01*
X244620619Y-153521142D01*
%TO.C,U2*%
X214692095Y-116130380D02*
X215358761Y-116130380D01*
X214930190Y-117130380D01*
X216168285Y-116463714D02*
X216168285Y-117130380D01*
X215930190Y-116082761D02*
X215692095Y-116797047D01*
X216311142Y-116797047D01*
X216692095Y-117130380D02*
X216692095Y-116130380D01*
X216692095Y-116606571D02*
X217263523Y-116606571D01*
X217263523Y-117130380D02*
X217263523Y-116130380D01*
X218311142Y-117035142D02*
X218263523Y-117082761D01*
X218120666Y-117130380D01*
X218025428Y-117130380D01*
X217882571Y-117082761D01*
X217787333Y-116987523D01*
X217739714Y-116892285D01*
X217692095Y-116701809D01*
X217692095Y-116558952D01*
X217739714Y-116368476D01*
X217787333Y-116273238D01*
X217882571Y-116178000D01*
X218025428Y-116130380D01*
X218120666Y-116130380D01*
X218263523Y-116178000D01*
X218311142Y-116225619D01*
X219215904Y-116130380D02*
X218739714Y-116130380D01*
X218692095Y-116606571D01*
X218739714Y-116558952D01*
X218834952Y-116511333D01*
X219073047Y-116511333D01*
X219168285Y-116558952D01*
X219215904Y-116606571D01*
X219263523Y-116701809D01*
X219263523Y-116939904D01*
X219215904Y-117035142D01*
X219168285Y-117082761D01*
X219073047Y-117130380D01*
X218834952Y-117130380D01*
X218739714Y-117082761D01*
X218692095Y-117035142D01*
X219739714Y-117130380D02*
X219930190Y-117130380D01*
X220025428Y-117082761D01*
X220073047Y-117035142D01*
X220168285Y-116892285D01*
X220215904Y-116701809D01*
X220215904Y-116320857D01*
X220168285Y-116225619D01*
X220120666Y-116178000D01*
X220025428Y-116130380D01*
X219834952Y-116130380D01*
X219739714Y-116178000D01*
X219692095Y-116225619D01*
X219644476Y-116320857D01*
X219644476Y-116558952D01*
X219692095Y-116654190D01*
X219739714Y-116701809D01*
X219834952Y-116749428D01*
X220025428Y-116749428D01*
X220120666Y-116701809D01*
X220168285Y-116654190D01*
X220215904Y-116558952D01*
X221120666Y-116130380D02*
X220644476Y-116130380D01*
X220596857Y-116606571D01*
X220644476Y-116558952D01*
X220739714Y-116511333D01*
X220977809Y-116511333D01*
X221073047Y-116558952D01*
X221120666Y-116606571D01*
X221168285Y-116701809D01*
X221168285Y-116939904D01*
X221120666Y-117035142D01*
X221073047Y-117082761D01*
X220977809Y-117130380D01*
X220739714Y-117130380D01*
X220644476Y-117082761D01*
X220596857Y-117035142D01*
X235380380Y-111585904D02*
X236189904Y-111585904D01*
X236285142Y-111538285D01*
X236332761Y-111490666D01*
X236380380Y-111395428D01*
X236380380Y-111204952D01*
X236332761Y-111109714D01*
X236285142Y-111062095D01*
X236189904Y-111014476D01*
X235380380Y-111014476D01*
X235475619Y-110585904D02*
X235428000Y-110538285D01*
X235380380Y-110443047D01*
X235380380Y-110204952D01*
X235428000Y-110109714D01*
X235475619Y-110062095D01*
X235570857Y-110014476D01*
X235666095Y-110014476D01*
X235808952Y-110062095D01*
X236380380Y-110633523D01*
X236380380Y-110014476D01*
D15*
%TO.C,R1*%
X236063714Y-93784000D02*
X235720857Y-94024000D01*
X236063714Y-94195428D02*
X235343714Y-94195428D01*
X235343714Y-93921142D01*
X235378000Y-93852571D01*
X235412285Y-93818285D01*
X235480857Y-93784000D01*
X235583714Y-93784000D01*
X235652285Y-93818285D01*
X235686571Y-93852571D01*
X235720857Y-93921142D01*
X235720857Y-94195428D01*
X236063714Y-93098285D02*
X236063714Y-93509714D01*
X236063714Y-93304000D02*
X235343714Y-93304000D01*
X235446571Y-93372571D01*
X235515142Y-93441142D01*
X235549428Y-93509714D01*
D11*
%TO.C,J4*%
X240015142Y-149229714D02*
X240062761Y-149277333D01*
X240110380Y-149420190D01*
X240110380Y-149515428D01*
X240062761Y-149658285D01*
X239967523Y-149753523D01*
X239872285Y-149801142D01*
X239681809Y-149848761D01*
X239538952Y-149848761D01*
X239348476Y-149801142D01*
X239253238Y-149753523D01*
X239158000Y-149658285D01*
X239110380Y-149515428D01*
X239110380Y-149420190D01*
X239158000Y-149277333D01*
X239205619Y-149229714D01*
X240110380Y-148658285D02*
X240062761Y-148753523D01*
X240015142Y-148801142D01*
X239919904Y-148848761D01*
X239634190Y-148848761D01*
X239538952Y-148801142D01*
X239491333Y-148753523D01*
X239443714Y-148658285D01*
X239443714Y-148515428D01*
X239491333Y-148420190D01*
X239538952Y-148372571D01*
X239634190Y-148324952D01*
X239919904Y-148324952D01*
X240015142Y-148372571D01*
X240062761Y-148420190D01*
X240110380Y-148515428D01*
X240110380Y-148658285D01*
X239443714Y-147896380D02*
X240110380Y-147896380D01*
X239538952Y-147896380D02*
X239491333Y-147848761D01*
X239443714Y-147753523D01*
X239443714Y-147610666D01*
X239491333Y-147515428D01*
X239586571Y-147467809D01*
X240110380Y-147467809D01*
X239443714Y-146991619D02*
X240110380Y-146991619D01*
X239538952Y-146991619D02*
X239491333Y-146944000D01*
X239443714Y-146848761D01*
X239443714Y-146705904D01*
X239491333Y-146610666D01*
X239586571Y-146563047D01*
X240110380Y-146563047D01*
X240205619Y-146324952D02*
X240205619Y-145563047D01*
X239110380Y-145134476D02*
X239110380Y-145039238D01*
X239158000Y-144944000D01*
X239205619Y-144896380D01*
X239300857Y-144848761D01*
X239491333Y-144801142D01*
X239729428Y-144801142D01*
X239919904Y-144848761D01*
X240015142Y-144896380D01*
X240062761Y-144944000D01*
X240110380Y-145039238D01*
X240110380Y-145134476D01*
X240062761Y-145229714D01*
X240015142Y-145277333D01*
X239919904Y-145324952D01*
X239729428Y-145372571D01*
X239491333Y-145372571D01*
X239300857Y-145324952D01*
X239205619Y-145277333D01*
X239158000Y-145229714D01*
X239110380Y-145134476D01*
X240110380Y-143848761D02*
X240110380Y-144420190D01*
X240110380Y-144134476D02*
X239110380Y-144134476D01*
X239253238Y-144229714D01*
X239348476Y-144324952D01*
X239396095Y-144420190D01*
X240110380Y-143515428D02*
X239443714Y-142991619D01*
X239443714Y-143515428D02*
X240110380Y-142991619D01*
X239110380Y-142420190D02*
X239110380Y-142324952D01*
X239158000Y-142229714D01*
X239205619Y-142182095D01*
X239300857Y-142134476D01*
X239491333Y-142086857D01*
X239729428Y-142086857D01*
X239919904Y-142134476D01*
X240015142Y-142182095D01*
X240062761Y-142229714D01*
X240110380Y-142324952D01*
X240110380Y-142420190D01*
X240062761Y-142515428D01*
X240015142Y-142563047D01*
X239919904Y-142610666D01*
X239729428Y-142658285D01*
X239491333Y-142658285D01*
X239300857Y-142610666D01*
X239205619Y-142563047D01*
X239158000Y-142515428D01*
X239110380Y-142420190D01*
X239443714Y-141229714D02*
X240110380Y-141229714D01*
X239062761Y-141467809D02*
X239777047Y-141705904D01*
X239777047Y-141086857D01*
X240205619Y-140944000D02*
X240205619Y-140182095D01*
X239586571Y-139610666D02*
X239586571Y-139944000D01*
X240110380Y-139944000D02*
X239110380Y-139944000D01*
X239110380Y-139467809D01*
X240062761Y-138705904D02*
X240110380Y-138801142D01*
X240110380Y-138991619D01*
X240062761Y-139086857D01*
X239967523Y-139134476D01*
X239586571Y-139134476D01*
X239491333Y-139086857D01*
X239443714Y-138991619D01*
X239443714Y-138801142D01*
X239491333Y-138705904D01*
X239586571Y-138658285D01*
X239681809Y-138658285D01*
X239777047Y-139134476D01*
X240110380Y-138229714D02*
X239443714Y-138229714D01*
X239538952Y-138229714D02*
X239491333Y-138182095D01*
X239443714Y-138086857D01*
X239443714Y-137944000D01*
X239491333Y-137848761D01*
X239586571Y-137801142D01*
X240110380Y-137801142D01*
X239586571Y-137801142D02*
X239491333Y-137753523D01*
X239443714Y-137658285D01*
X239443714Y-137515428D01*
X239491333Y-137420190D01*
X239586571Y-137372571D01*
X240110380Y-137372571D01*
X240110380Y-136467809D02*
X239586571Y-136467809D01*
X239491333Y-136515428D01*
X239443714Y-136610666D01*
X239443714Y-136801142D01*
X239491333Y-136896380D01*
X240062761Y-136467809D02*
X240110380Y-136563047D01*
X240110380Y-136801142D01*
X240062761Y-136896380D01*
X239967523Y-136944000D01*
X239872285Y-136944000D01*
X239777047Y-136896380D01*
X239729428Y-136801142D01*
X239729428Y-136563047D01*
X239681809Y-136467809D01*
X240110380Y-135848761D02*
X240062761Y-135944000D01*
X239967523Y-135991619D01*
X239110380Y-135991619D01*
X240062761Y-135086857D02*
X240110380Y-135182095D01*
X240110380Y-135372571D01*
X240062761Y-135467809D01*
X239967523Y-135515428D01*
X239586571Y-135515428D01*
X239491333Y-135467809D01*
X239443714Y-135372571D01*
X239443714Y-135182095D01*
X239491333Y-135086857D01*
X239586571Y-135039238D01*
X239681809Y-135039238D01*
X239777047Y-135515428D01*
X245280380Y-143447333D02*
X245994666Y-143447333D01*
X246137523Y-143494952D01*
X246232761Y-143590190D01*
X246280380Y-143733047D01*
X246280380Y-143828285D01*
X245613714Y-142542571D02*
X246280380Y-142542571D01*
X245232761Y-142780666D02*
X245947047Y-143018761D01*
X245947047Y-142399714D01*
%TO.C,A1*%
X232598666Y-147810095D02*
X232598666Y-147333904D01*
X232884380Y-147905333D02*
X231884380Y-147572000D01*
X232884380Y-147238666D01*
X232884380Y-146905333D02*
X232217714Y-146905333D01*
X232408190Y-146905333D02*
X232312952Y-146857714D01*
X232265333Y-146810095D01*
X232217714Y-146714857D01*
X232217714Y-146619619D01*
X232884380Y-145857714D02*
X231884380Y-145857714D01*
X232836761Y-145857714D02*
X232884380Y-145952952D01*
X232884380Y-146143428D01*
X232836761Y-146238666D01*
X232789142Y-146286285D01*
X232693904Y-146333904D01*
X232408190Y-146333904D01*
X232312952Y-146286285D01*
X232265333Y-146238666D01*
X232217714Y-146143428D01*
X232217714Y-145952952D01*
X232265333Y-145857714D01*
X232217714Y-144952952D02*
X232884380Y-144952952D01*
X232217714Y-145381523D02*
X232741523Y-145381523D01*
X232836761Y-145333904D01*
X232884380Y-145238666D01*
X232884380Y-145095809D01*
X232836761Y-145000571D01*
X232789142Y-144952952D01*
X232884380Y-144476761D02*
X232217714Y-144476761D01*
X231884380Y-144476761D02*
X231932000Y-144524380D01*
X231979619Y-144476761D01*
X231932000Y-144429142D01*
X231884380Y-144476761D01*
X231979619Y-144476761D01*
X232217714Y-144000571D02*
X232884380Y-144000571D01*
X232312952Y-144000571D02*
X232265333Y-143952952D01*
X232217714Y-143857714D01*
X232217714Y-143714857D01*
X232265333Y-143619619D01*
X232360571Y-143572000D01*
X232884380Y-143572000D01*
X232884380Y-142952952D02*
X232836761Y-143048190D01*
X232789142Y-143095809D01*
X232693904Y-143143428D01*
X232408190Y-143143428D01*
X232312952Y-143095809D01*
X232265333Y-143048190D01*
X232217714Y-142952952D01*
X232217714Y-142810095D01*
X232265333Y-142714857D01*
X232312952Y-142667238D01*
X232408190Y-142619619D01*
X232693904Y-142619619D01*
X232789142Y-142667238D01*
X232836761Y-142714857D01*
X232884380Y-142810095D01*
X232884380Y-142952952D01*
X232979619Y-142429142D02*
X232979619Y-141667238D01*
X232884380Y-141429142D02*
X231884380Y-141429142D01*
X232884380Y-140857714D01*
X231884380Y-140857714D01*
X232884380Y-139952952D02*
X232360571Y-139952952D01*
X232265333Y-140000571D01*
X232217714Y-140095809D01*
X232217714Y-140286285D01*
X232265333Y-140381523D01*
X232836761Y-139952952D02*
X232884380Y-140048190D01*
X232884380Y-140286285D01*
X232836761Y-140381523D01*
X232741523Y-140429142D01*
X232646285Y-140429142D01*
X232551047Y-140381523D01*
X232503428Y-140286285D01*
X232503428Y-140048190D01*
X232455809Y-139952952D01*
X232217714Y-139476761D02*
X232884380Y-139476761D01*
X232312952Y-139476761D02*
X232265333Y-139429142D01*
X232217714Y-139333904D01*
X232217714Y-139191047D01*
X232265333Y-139095809D01*
X232360571Y-139048190D01*
X232884380Y-139048190D01*
X232884380Y-138429142D02*
X232836761Y-138524380D01*
X232789142Y-138572000D01*
X232693904Y-138619619D01*
X232408190Y-138619619D01*
X232312952Y-138572000D01*
X232265333Y-138524380D01*
X232217714Y-138429142D01*
X232217714Y-138286285D01*
X232265333Y-138191047D01*
X232312952Y-138143428D01*
X232408190Y-138095809D01*
X232693904Y-138095809D01*
X232789142Y-138143428D01*
X232836761Y-138191047D01*
X232884380Y-138286285D01*
X232884380Y-138429142D01*
X232979619Y-137905333D02*
X232979619Y-137143428D01*
X232217714Y-137000571D02*
X232884380Y-136762476D01*
X232217714Y-136524380D01*
X231884380Y-136238666D02*
X231884380Y-135619619D01*
X232265333Y-135952952D01*
X232265333Y-135810095D01*
X232312952Y-135714857D01*
X232360571Y-135667238D01*
X232455809Y-135619619D01*
X232693904Y-135619619D01*
X232789142Y-135667238D01*
X232836761Y-135714857D01*
X232884380Y-135810095D01*
X232884380Y-136095809D01*
X232836761Y-136191047D01*
X232789142Y-136238666D01*
X232789142Y-135191047D02*
X232836761Y-135143428D01*
X232884380Y-135191047D01*
X232836761Y-135238666D01*
X232789142Y-135191047D01*
X232884380Y-135191047D01*
X232884380Y-134810095D02*
X232217714Y-134286285D01*
X232217714Y-134810095D02*
X232884380Y-134286285D01*
X240594666Y-134298285D02*
X240594666Y-133822095D01*
X240880380Y-134393523D02*
X239880380Y-134060190D01*
X240880380Y-133726857D01*
X240880380Y-132869714D02*
X240880380Y-133441142D01*
X240880380Y-133155428D02*
X239880380Y-133155428D01*
X240023238Y-133250666D01*
X240118476Y-133345904D01*
X240166095Y-133441142D01*
D15*
%TO.C,R3*%
X236103714Y-99054000D02*
X235760857Y-99294000D01*
X236103714Y-99465428D02*
X235383714Y-99465428D01*
X235383714Y-99191142D01*
X235418000Y-99122571D01*
X235452285Y-99088285D01*
X235520857Y-99054000D01*
X235623714Y-99054000D01*
X235692285Y-99088285D01*
X235726571Y-99122571D01*
X235760857Y-99191142D01*
X235760857Y-99465428D01*
X235383714Y-98814000D02*
X235383714Y-98368285D01*
X235658000Y-98608285D01*
X235658000Y-98505428D01*
X235692285Y-98436857D01*
X235726571Y-98402571D01*
X235795142Y-98368285D01*
X235966571Y-98368285D01*
X236035142Y-98402571D01*
X236069428Y-98436857D01*
X236103714Y-98505428D01*
X236103714Y-98711142D01*
X236069428Y-98779714D01*
X236035142Y-98814000D01*
D16*
%TO.C,C1*%
X189374666Y-152349714D02*
X189336571Y-152387809D01*
X189222285Y-152425904D01*
X189146095Y-152425904D01*
X189031809Y-152387809D01*
X188955619Y-152311619D01*
X188917523Y-152235428D01*
X188879428Y-152083047D01*
X188879428Y-151968761D01*
X188917523Y-151816380D01*
X188955619Y-151740190D01*
X189031809Y-151664000D01*
X189146095Y-151625904D01*
X189222285Y-151625904D01*
X189336571Y-151664000D01*
X189374666Y-151702095D01*
X190136571Y-152425904D02*
X189679428Y-152425904D01*
X189908000Y-152425904D02*
X189908000Y-151625904D01*
X189831809Y-151740190D01*
X189755619Y-151816380D01*
X189679428Y-151854476D01*
D15*
%TO.C,R5*%
X251403714Y-149454000D02*
X251060857Y-149694000D01*
X251403714Y-149865428D02*
X250683714Y-149865428D01*
X250683714Y-149591142D01*
X250718000Y-149522571D01*
X250752285Y-149488285D01*
X250820857Y-149454000D01*
X250923714Y-149454000D01*
X250992285Y-149488285D01*
X251026571Y-149522571D01*
X251060857Y-149591142D01*
X251060857Y-149865428D01*
X250683714Y-148802571D02*
X250683714Y-149145428D01*
X251026571Y-149179714D01*
X250992285Y-149145428D01*
X250958000Y-149076857D01*
X250958000Y-148905428D01*
X250992285Y-148836857D01*
X251026571Y-148802571D01*
X251095142Y-148768285D01*
X251266571Y-148768285D01*
X251335142Y-148802571D01*
X251369428Y-148836857D01*
X251403714Y-148905428D01*
X251403714Y-149076857D01*
X251369428Y-149145428D01*
X251335142Y-149179714D01*
D11*
%TO.C,REF999\u002A\u002A*%
X185858095Y-83972380D02*
X185524761Y-83496190D01*
X185286666Y-83972380D02*
X185286666Y-82972380D01*
X185667619Y-82972380D01*
X185762857Y-83020000D01*
X185810476Y-83067619D01*
X185858095Y-83162857D01*
X185858095Y-83305714D01*
X185810476Y-83400952D01*
X185762857Y-83448571D01*
X185667619Y-83496190D01*
X185286666Y-83496190D01*
X186286666Y-83448571D02*
X186620000Y-83448571D01*
X186762857Y-83972380D02*
X186286666Y-83972380D01*
X186286666Y-82972380D01*
X186762857Y-82972380D01*
X187524761Y-83448571D02*
X187191428Y-83448571D01*
X187191428Y-83972380D02*
X187191428Y-82972380D01*
X187667619Y-82972380D01*
X188096190Y-83972380D02*
X188286666Y-83972380D01*
X188381904Y-83924761D01*
X188429523Y-83877142D01*
X188524761Y-83734285D01*
X188572380Y-83543809D01*
X188572380Y-83162857D01*
X188524761Y-83067619D01*
X188477142Y-83020000D01*
X188381904Y-82972380D01*
X188191428Y-82972380D01*
X188096190Y-83020000D01*
X188048571Y-83067619D01*
X188000952Y-83162857D01*
X188000952Y-83400952D01*
X188048571Y-83496190D01*
X188096190Y-83543809D01*
X188191428Y-83591428D01*
X188381904Y-83591428D01*
X188477142Y-83543809D01*
X188524761Y-83496190D01*
X188572380Y-83400952D01*
X189048571Y-83972380D02*
X189239047Y-83972380D01*
X189334285Y-83924761D01*
X189381904Y-83877142D01*
X189477142Y-83734285D01*
X189524761Y-83543809D01*
X189524761Y-83162857D01*
X189477142Y-83067619D01*
X189429523Y-83020000D01*
X189334285Y-82972380D01*
X189143809Y-82972380D01*
X189048571Y-83020000D01*
X189000952Y-83067619D01*
X188953333Y-83162857D01*
X188953333Y-83400952D01*
X189000952Y-83496190D01*
X189048571Y-83543809D01*
X189143809Y-83591428D01*
X189334285Y-83591428D01*
X189429523Y-83543809D01*
X189477142Y-83496190D01*
X189524761Y-83400952D01*
X190000952Y-83972380D02*
X190191428Y-83972380D01*
X190286666Y-83924761D01*
X190334285Y-83877142D01*
X190429523Y-83734285D01*
X190477142Y-83543809D01*
X190477142Y-83162857D01*
X190429523Y-83067619D01*
X190381904Y-83020000D01*
X190286666Y-82972380D01*
X190096190Y-82972380D01*
X190000952Y-83020000D01*
X189953333Y-83067619D01*
X189905714Y-83162857D01*
X189905714Y-83400952D01*
X189953333Y-83496190D01*
X190000952Y-83543809D01*
X190096190Y-83591428D01*
X190286666Y-83591428D01*
X190381904Y-83543809D01*
X190429523Y-83496190D01*
X190477142Y-83400952D01*
X191048571Y-82972380D02*
X191048571Y-83210476D01*
X190810476Y-83115238D02*
X191048571Y-83210476D01*
X191286666Y-83115238D01*
X190905714Y-83400952D02*
X191048571Y-83210476D01*
X191191428Y-83400952D01*
X191810476Y-82972380D02*
X191810476Y-83210476D01*
X191572380Y-83115238D02*
X191810476Y-83210476D01*
X192048571Y-83115238D01*
X191667619Y-83400952D02*
X191810476Y-83210476D01*
X191953333Y-83400952D01*
X177715238Y-92372380D02*
X177715238Y-91372380D01*
X178048571Y-92086666D01*
X178381904Y-91372380D01*
X178381904Y-92372380D01*
X179000952Y-92372380D02*
X178905714Y-92324761D01*
X178858095Y-92277142D01*
X178810476Y-92181904D01*
X178810476Y-91896190D01*
X178858095Y-91800952D01*
X178905714Y-91753333D01*
X179000952Y-91705714D01*
X179143809Y-91705714D01*
X179239047Y-91753333D01*
X179286666Y-91800952D01*
X179334285Y-91896190D01*
X179334285Y-92181904D01*
X179286666Y-92277142D01*
X179239047Y-92324761D01*
X179143809Y-92372380D01*
X179000952Y-92372380D01*
X180191428Y-91705714D02*
X180191428Y-92372380D01*
X179762857Y-91705714D02*
X179762857Y-92229523D01*
X179810476Y-92324761D01*
X179905714Y-92372380D01*
X180048571Y-92372380D01*
X180143809Y-92324761D01*
X180191428Y-92277142D01*
X180667619Y-91705714D02*
X180667619Y-92372380D01*
X180667619Y-91800952D02*
X180715238Y-91753333D01*
X180810476Y-91705714D01*
X180953333Y-91705714D01*
X181048571Y-91753333D01*
X181096190Y-91848571D01*
X181096190Y-92372380D01*
X181429523Y-91705714D02*
X181810476Y-91705714D01*
X181572380Y-91372380D02*
X181572380Y-92229523D01*
X181620000Y-92324761D01*
X181715238Y-92372380D01*
X181810476Y-92372380D01*
X182143809Y-92372380D02*
X182143809Y-91705714D01*
X182143809Y-91372380D02*
X182096190Y-91420000D01*
X182143809Y-91467619D01*
X182191428Y-91420000D01*
X182143809Y-91372380D01*
X182143809Y-91467619D01*
X182620000Y-91705714D02*
X182620000Y-92372380D01*
X182620000Y-91800952D02*
X182667619Y-91753333D01*
X182762857Y-91705714D01*
X182905714Y-91705714D01*
X183000952Y-91753333D01*
X183048571Y-91848571D01*
X183048571Y-92372380D01*
X183953333Y-91705714D02*
X183953333Y-92515238D01*
X183905714Y-92610476D01*
X183858095Y-92658095D01*
X183762857Y-92705714D01*
X183620000Y-92705714D01*
X183524761Y-92658095D01*
X183953333Y-92324761D02*
X183858095Y-92372380D01*
X183667619Y-92372380D01*
X183572380Y-92324761D01*
X183524761Y-92277142D01*
X183477142Y-92181904D01*
X183477142Y-91896190D01*
X183524761Y-91800952D01*
X183572380Y-91753333D01*
X183667619Y-91705714D01*
X183858095Y-91705714D01*
X183953333Y-91753333D01*
X184429523Y-92372380D02*
X184429523Y-91372380D01*
X184429523Y-91848571D02*
X185000952Y-91848571D01*
X185000952Y-92372380D02*
X185000952Y-91372380D01*
X185620000Y-92372380D02*
X185524761Y-92324761D01*
X185477142Y-92277142D01*
X185429523Y-92181904D01*
X185429523Y-91896190D01*
X185477142Y-91800952D01*
X185524761Y-91753333D01*
X185620000Y-91705714D01*
X185762857Y-91705714D01*
X185858095Y-91753333D01*
X185905714Y-91800952D01*
X185953333Y-91896190D01*
X185953333Y-92181904D01*
X185905714Y-92277142D01*
X185858095Y-92324761D01*
X185762857Y-92372380D01*
X185620000Y-92372380D01*
X186524761Y-92372380D02*
X186429523Y-92324761D01*
X186381904Y-92229523D01*
X186381904Y-91372380D01*
X187286666Y-92324761D02*
X187191428Y-92372380D01*
X187000952Y-92372380D01*
X186905714Y-92324761D01*
X186858095Y-92229523D01*
X186858095Y-91848571D01*
X186905714Y-91753333D01*
X187000952Y-91705714D01*
X187191428Y-91705714D01*
X187286666Y-91753333D01*
X187334285Y-91848571D01*
X187334285Y-91943809D01*
X186858095Y-92039047D01*
X187524761Y-92467619D02*
X188286666Y-92467619D01*
X188429523Y-91372380D02*
X189048571Y-91372380D01*
X188715238Y-91753333D01*
X188858095Y-91753333D01*
X188953333Y-91800952D01*
X189000952Y-91848571D01*
X189048571Y-91943809D01*
X189048571Y-92181904D01*
X189000952Y-92277142D01*
X188953333Y-92324761D01*
X188858095Y-92372380D01*
X188572380Y-92372380D01*
X188477142Y-92324761D01*
X188429523Y-92277142D01*
X189477142Y-92277142D02*
X189524761Y-92324761D01*
X189477142Y-92372380D01*
X189429523Y-92324761D01*
X189477142Y-92277142D01*
X189477142Y-92372380D01*
X189905714Y-91467619D02*
X189953333Y-91420000D01*
X190048571Y-91372380D01*
X190286666Y-91372380D01*
X190381904Y-91420000D01*
X190429523Y-91467619D01*
X190477142Y-91562857D01*
X190477142Y-91658095D01*
X190429523Y-91800952D01*
X189858095Y-92372380D01*
X190477142Y-92372380D01*
X190905714Y-92372380D02*
X190905714Y-91705714D01*
X190905714Y-91800952D02*
X190953333Y-91753333D01*
X191048571Y-91705714D01*
X191191428Y-91705714D01*
X191286666Y-91753333D01*
X191334285Y-91848571D01*
X191334285Y-92372380D01*
X191334285Y-91848571D02*
X191381904Y-91753333D01*
X191477142Y-91705714D01*
X191620000Y-91705714D01*
X191715238Y-91753333D01*
X191762857Y-91848571D01*
X191762857Y-92372380D01*
X192239047Y-92372380D02*
X192239047Y-91705714D01*
X192239047Y-91800952D02*
X192286666Y-91753333D01*
X192381904Y-91705714D01*
X192524761Y-91705714D01*
X192620000Y-91753333D01*
X192667619Y-91848571D01*
X192667619Y-92372380D01*
X192667619Y-91848571D02*
X192715238Y-91753333D01*
X192810476Y-91705714D01*
X192953333Y-91705714D01*
X193048571Y-91753333D01*
X193096190Y-91848571D01*
X193096190Y-92372380D01*
X193334285Y-92467619D02*
X194096190Y-92467619D01*
X194334285Y-92372380D02*
X194334285Y-91372380D01*
X194667619Y-92086666D01*
X195000952Y-91372380D01*
X195000952Y-92372380D01*
X195381904Y-91372380D02*
X196000952Y-91372380D01*
X195667619Y-91753333D01*
X195810476Y-91753333D01*
X195905714Y-91800952D01*
X195953333Y-91848571D01*
X196000952Y-91943809D01*
X196000952Y-92181904D01*
X195953333Y-92277142D01*
X195905714Y-92324761D01*
X195810476Y-92372380D01*
X195524761Y-92372380D01*
X195429523Y-92324761D01*
X195381904Y-92277142D01*
X196191428Y-92467619D02*
X196953333Y-92467619D01*
X197191428Y-92372380D02*
X197191428Y-91372380D01*
X197572380Y-91372380D01*
X197667619Y-91420000D01*
X197715238Y-91467619D01*
X197762857Y-91562857D01*
X197762857Y-91705714D01*
X197715238Y-91800952D01*
X197667619Y-91848571D01*
X197572380Y-91896190D01*
X197191428Y-91896190D01*
X198620000Y-92372380D02*
X198620000Y-91848571D01*
X198572380Y-91753333D01*
X198477142Y-91705714D01*
X198286666Y-91705714D01*
X198191428Y-91753333D01*
X198620000Y-92324761D02*
X198524761Y-92372380D01*
X198286666Y-92372380D01*
X198191428Y-92324761D01*
X198143809Y-92229523D01*
X198143809Y-92134285D01*
X198191428Y-92039047D01*
X198286666Y-91991428D01*
X198524761Y-91991428D01*
X198620000Y-91943809D01*
X199524761Y-92372380D02*
X199524761Y-91372380D01*
X199524761Y-92324761D02*
X199429523Y-92372380D01*
X199239047Y-92372380D01*
X199143809Y-92324761D01*
X199096190Y-92277142D01*
X199048571Y-92181904D01*
X199048571Y-91896190D01*
X199096190Y-91800952D01*
X199143809Y-91753333D01*
X199239047Y-91705714D01*
X199429523Y-91705714D01*
X199524761Y-91753333D01*
X185858095Y-88172380D02*
X185524761Y-87696190D01*
X185286666Y-88172380D02*
X185286666Y-87172380D01*
X185667619Y-87172380D01*
X185762857Y-87220000D01*
X185810476Y-87267619D01*
X185858095Y-87362857D01*
X185858095Y-87505714D01*
X185810476Y-87600952D01*
X185762857Y-87648571D01*
X185667619Y-87696190D01*
X185286666Y-87696190D01*
X186286666Y-87648571D02*
X186620000Y-87648571D01*
X186762857Y-88172380D02*
X186286666Y-88172380D01*
X186286666Y-87172380D01*
X186762857Y-87172380D01*
X187524761Y-87648571D02*
X187191428Y-87648571D01*
X187191428Y-88172380D02*
X187191428Y-87172380D01*
X187667619Y-87172380D01*
X188096190Y-88172380D02*
X188286666Y-88172380D01*
X188381904Y-88124761D01*
X188429523Y-88077142D01*
X188524761Y-87934285D01*
X188572380Y-87743809D01*
X188572380Y-87362857D01*
X188524761Y-87267619D01*
X188477142Y-87220000D01*
X188381904Y-87172380D01*
X188191428Y-87172380D01*
X188096190Y-87220000D01*
X188048571Y-87267619D01*
X188000952Y-87362857D01*
X188000952Y-87600952D01*
X188048571Y-87696190D01*
X188096190Y-87743809D01*
X188191428Y-87791428D01*
X188381904Y-87791428D01*
X188477142Y-87743809D01*
X188524761Y-87696190D01*
X188572380Y-87600952D01*
X189048571Y-88172380D02*
X189239047Y-88172380D01*
X189334285Y-88124761D01*
X189381904Y-88077142D01*
X189477142Y-87934285D01*
X189524761Y-87743809D01*
X189524761Y-87362857D01*
X189477142Y-87267619D01*
X189429523Y-87220000D01*
X189334285Y-87172380D01*
X189143809Y-87172380D01*
X189048571Y-87220000D01*
X189000952Y-87267619D01*
X188953333Y-87362857D01*
X188953333Y-87600952D01*
X189000952Y-87696190D01*
X189048571Y-87743809D01*
X189143809Y-87791428D01*
X189334285Y-87791428D01*
X189429523Y-87743809D01*
X189477142Y-87696190D01*
X189524761Y-87600952D01*
X190000952Y-88172380D02*
X190191428Y-88172380D01*
X190286666Y-88124761D01*
X190334285Y-88077142D01*
X190429523Y-87934285D01*
X190477142Y-87743809D01*
X190477142Y-87362857D01*
X190429523Y-87267619D01*
X190381904Y-87220000D01*
X190286666Y-87172380D01*
X190096190Y-87172380D01*
X190000952Y-87220000D01*
X189953333Y-87267619D01*
X189905714Y-87362857D01*
X189905714Y-87600952D01*
X189953333Y-87696190D01*
X190000952Y-87743809D01*
X190096190Y-87791428D01*
X190286666Y-87791428D01*
X190381904Y-87743809D01*
X190429523Y-87696190D01*
X190477142Y-87600952D01*
X191048571Y-87172380D02*
X191048571Y-87410476D01*
X190810476Y-87315238D02*
X191048571Y-87410476D01*
X191286666Y-87315238D01*
X190905714Y-87600952D02*
X191048571Y-87410476D01*
X191191428Y-87600952D01*
X191810476Y-87172380D02*
X191810476Y-87410476D01*
X191572380Y-87315238D02*
X191810476Y-87410476D01*
X192048571Y-87315238D01*
X191667619Y-87600952D02*
X191810476Y-87410476D01*
X191953333Y-87600952D01*
D15*
%TO.C,R4*%
X236053714Y-101364000D02*
X235710857Y-101604000D01*
X236053714Y-101775428D02*
X235333714Y-101775428D01*
X235333714Y-101501142D01*
X235368000Y-101432571D01*
X235402285Y-101398285D01*
X235470857Y-101364000D01*
X235573714Y-101364000D01*
X235642285Y-101398285D01*
X235676571Y-101432571D01*
X235710857Y-101501142D01*
X235710857Y-101775428D01*
X235573714Y-100746857D02*
X236053714Y-100746857D01*
X235299428Y-100918285D02*
X235813714Y-101089714D01*
X235813714Y-100644000D01*
D11*
%TO.C,J2*%
X248755142Y-96967333D02*
X248802761Y-97014952D01*
X248850380Y-97157809D01*
X248850380Y-97253047D01*
X248802761Y-97395904D01*
X248707523Y-97491142D01*
X248612285Y-97538761D01*
X248421809Y-97586380D01*
X248278952Y-97586380D01*
X248088476Y-97538761D01*
X247993238Y-97491142D01*
X247898000Y-97395904D01*
X247850380Y-97253047D01*
X247850380Y-97157809D01*
X247898000Y-97014952D01*
X247945619Y-96967333D01*
X248850380Y-96395904D02*
X248802761Y-96491142D01*
X248755142Y-96538761D01*
X248659904Y-96586380D01*
X248374190Y-96586380D01*
X248278952Y-96538761D01*
X248231333Y-96491142D01*
X248183714Y-96395904D01*
X248183714Y-96253047D01*
X248231333Y-96157809D01*
X248278952Y-96110190D01*
X248374190Y-96062571D01*
X248659904Y-96062571D01*
X248755142Y-96110190D01*
X248802761Y-96157809D01*
X248850380Y-96253047D01*
X248850380Y-96395904D01*
X248183714Y-95634000D02*
X248850380Y-95634000D01*
X248278952Y-95634000D02*
X248231333Y-95586380D01*
X248183714Y-95491142D01*
X248183714Y-95348285D01*
X248231333Y-95253047D01*
X248326571Y-95205428D01*
X248850380Y-95205428D01*
X248183714Y-94729238D02*
X248850380Y-94729238D01*
X248278952Y-94729238D02*
X248231333Y-94681619D01*
X248183714Y-94586380D01*
X248183714Y-94443523D01*
X248231333Y-94348285D01*
X248326571Y-94300666D01*
X248850380Y-94300666D01*
X248945619Y-94062571D02*
X248945619Y-93300666D01*
X247850380Y-92872095D02*
X247850380Y-92776857D01*
X247898000Y-92681619D01*
X247945619Y-92634000D01*
X248040857Y-92586380D01*
X248231333Y-92538761D01*
X248469428Y-92538761D01*
X248659904Y-92586380D01*
X248755142Y-92634000D01*
X248802761Y-92681619D01*
X248850380Y-92776857D01*
X248850380Y-92872095D01*
X248802761Y-92967333D01*
X248755142Y-93014952D01*
X248659904Y-93062571D01*
X248469428Y-93110190D01*
X248231333Y-93110190D01*
X248040857Y-93062571D01*
X247945619Y-93014952D01*
X247898000Y-92967333D01*
X247850380Y-92872095D01*
X248850380Y-91586380D02*
X248850380Y-92157809D01*
X248850380Y-91872095D02*
X247850380Y-91872095D01*
X247993238Y-91967333D01*
X248088476Y-92062571D01*
X248136095Y-92157809D01*
X248850380Y-91253047D02*
X248183714Y-90729238D01*
X248183714Y-91253047D02*
X248850380Y-90729238D01*
X247850380Y-90157809D02*
X247850380Y-90062571D01*
X247898000Y-89967333D01*
X247945619Y-89919714D01*
X248040857Y-89872095D01*
X248231333Y-89824476D01*
X248469428Y-89824476D01*
X248659904Y-89872095D01*
X248755142Y-89919714D01*
X248802761Y-89967333D01*
X248850380Y-90062571D01*
X248850380Y-90157809D01*
X248802761Y-90253047D01*
X248755142Y-90300666D01*
X248659904Y-90348285D01*
X248469428Y-90395904D01*
X248231333Y-90395904D01*
X248040857Y-90348285D01*
X247945619Y-90300666D01*
X247898000Y-90253047D01*
X247850380Y-90157809D01*
X247850380Y-89491142D02*
X247850380Y-88872095D01*
X248231333Y-89205428D01*
X248231333Y-89062571D01*
X248278952Y-88967333D01*
X248326571Y-88919714D01*
X248421809Y-88872095D01*
X248659904Y-88872095D01*
X248755142Y-88919714D01*
X248802761Y-88967333D01*
X248850380Y-89062571D01*
X248850380Y-89348285D01*
X248802761Y-89443523D01*
X248755142Y-89491142D01*
X248945619Y-88681619D02*
X248945619Y-87919714D01*
X248850380Y-87681619D02*
X247850380Y-87681619D01*
X248564666Y-87348285D01*
X247850380Y-87014952D01*
X248850380Y-87014952D01*
X248850380Y-86110190D02*
X248326571Y-86110190D01*
X248231333Y-86157809D01*
X248183714Y-86253047D01*
X248183714Y-86443523D01*
X248231333Y-86538761D01*
X248802761Y-86110190D02*
X248850380Y-86205428D01*
X248850380Y-86443523D01*
X248802761Y-86538761D01*
X248707523Y-86586380D01*
X248612285Y-86586380D01*
X248517047Y-86538761D01*
X248469428Y-86443523D01*
X248469428Y-86205428D01*
X248421809Y-86110190D01*
X248850380Y-85491142D02*
X248802761Y-85586380D01*
X248707523Y-85634000D01*
X247850380Y-85634000D01*
X248802761Y-84729238D02*
X248850380Y-84824476D01*
X248850380Y-85014952D01*
X248802761Y-85110190D01*
X248707523Y-85157809D01*
X248326571Y-85157809D01*
X248231333Y-85110190D01*
X248183714Y-85014952D01*
X248183714Y-84824476D01*
X248231333Y-84729238D01*
X248326571Y-84681619D01*
X248421809Y-84681619D01*
X248517047Y-85157809D01*
X242104666Y-89616380D02*
X242104666Y-90330666D01*
X242057047Y-90473523D01*
X241961809Y-90568761D01*
X241818952Y-90616380D01*
X241723714Y-90616380D01*
X242533238Y-89711619D02*
X242580857Y-89664000D01*
X242676095Y-89616380D01*
X242914190Y-89616380D01*
X243009428Y-89664000D01*
X243057047Y-89711619D01*
X243104666Y-89806857D01*
X243104666Y-89902095D01*
X243057047Y-90044952D01*
X242485619Y-90616380D01*
X243104666Y-90616380D01*
%TO.C,REF888\u002A\u002A*%
X266808095Y-147712380D02*
X266474761Y-147236190D01*
X266236666Y-147712380D02*
X266236666Y-146712380D01*
X266617619Y-146712380D01*
X266712857Y-146760000D01*
X266760476Y-146807619D01*
X266808095Y-146902857D01*
X266808095Y-147045714D01*
X266760476Y-147140952D01*
X266712857Y-147188571D01*
X266617619Y-147236190D01*
X266236666Y-147236190D01*
X267236666Y-147188571D02*
X267570000Y-147188571D01*
X267712857Y-147712380D02*
X267236666Y-147712380D01*
X267236666Y-146712380D01*
X267712857Y-146712380D01*
X268474761Y-147188571D02*
X268141428Y-147188571D01*
X268141428Y-147712380D02*
X268141428Y-146712380D01*
X268617619Y-146712380D01*
X269141428Y-147140952D02*
X269046190Y-147093333D01*
X268998571Y-147045714D01*
X268950952Y-146950476D01*
X268950952Y-146902857D01*
X268998571Y-146807619D01*
X269046190Y-146760000D01*
X269141428Y-146712380D01*
X269331904Y-146712380D01*
X269427142Y-146760000D01*
X269474761Y-146807619D01*
X269522380Y-146902857D01*
X269522380Y-146950476D01*
X269474761Y-147045714D01*
X269427142Y-147093333D01*
X269331904Y-147140952D01*
X269141428Y-147140952D01*
X269046190Y-147188571D01*
X268998571Y-147236190D01*
X268950952Y-147331428D01*
X268950952Y-147521904D01*
X268998571Y-147617142D01*
X269046190Y-147664761D01*
X269141428Y-147712380D01*
X269331904Y-147712380D01*
X269427142Y-147664761D01*
X269474761Y-147617142D01*
X269522380Y-147521904D01*
X269522380Y-147331428D01*
X269474761Y-147236190D01*
X269427142Y-147188571D01*
X269331904Y-147140952D01*
X270093809Y-147140952D02*
X269998571Y-147093333D01*
X269950952Y-147045714D01*
X269903333Y-146950476D01*
X269903333Y-146902857D01*
X269950952Y-146807619D01*
X269998571Y-146760000D01*
X270093809Y-146712380D01*
X270284285Y-146712380D01*
X270379523Y-146760000D01*
X270427142Y-146807619D01*
X270474761Y-146902857D01*
X270474761Y-146950476D01*
X270427142Y-147045714D01*
X270379523Y-147093333D01*
X270284285Y-147140952D01*
X270093809Y-147140952D01*
X269998571Y-147188571D01*
X269950952Y-147236190D01*
X269903333Y-147331428D01*
X269903333Y-147521904D01*
X269950952Y-147617142D01*
X269998571Y-147664761D01*
X270093809Y-147712380D01*
X270284285Y-147712380D01*
X270379523Y-147664761D01*
X270427142Y-147617142D01*
X270474761Y-147521904D01*
X270474761Y-147331428D01*
X270427142Y-147236190D01*
X270379523Y-147188571D01*
X270284285Y-147140952D01*
X271046190Y-147140952D02*
X270950952Y-147093333D01*
X270903333Y-147045714D01*
X270855714Y-146950476D01*
X270855714Y-146902857D01*
X270903333Y-146807619D01*
X270950952Y-146760000D01*
X271046190Y-146712380D01*
X271236666Y-146712380D01*
X271331904Y-146760000D01*
X271379523Y-146807619D01*
X271427142Y-146902857D01*
X271427142Y-146950476D01*
X271379523Y-147045714D01*
X271331904Y-147093333D01*
X271236666Y-147140952D01*
X271046190Y-147140952D01*
X270950952Y-147188571D01*
X270903333Y-147236190D01*
X270855714Y-147331428D01*
X270855714Y-147521904D01*
X270903333Y-147617142D01*
X270950952Y-147664761D01*
X271046190Y-147712380D01*
X271236666Y-147712380D01*
X271331904Y-147664761D01*
X271379523Y-147617142D01*
X271427142Y-147521904D01*
X271427142Y-147331428D01*
X271379523Y-147236190D01*
X271331904Y-147188571D01*
X271236666Y-147140952D01*
X271998571Y-146712380D02*
X271998571Y-146950476D01*
X271760476Y-146855238D02*
X271998571Y-146950476D01*
X272236666Y-146855238D01*
X271855714Y-147140952D02*
X271998571Y-146950476D01*
X272141428Y-147140952D01*
X272760476Y-146712380D02*
X272760476Y-146950476D01*
X272522380Y-146855238D02*
X272760476Y-146950476D01*
X272998571Y-146855238D01*
X272617619Y-147140952D02*
X272760476Y-146950476D01*
X272903333Y-147140952D01*
X258665238Y-156112380D02*
X258665238Y-155112380D01*
X258998571Y-155826666D01*
X259331904Y-155112380D01*
X259331904Y-156112380D01*
X259950952Y-156112380D02*
X259855714Y-156064761D01*
X259808095Y-156017142D01*
X259760476Y-155921904D01*
X259760476Y-155636190D01*
X259808095Y-155540952D01*
X259855714Y-155493333D01*
X259950952Y-155445714D01*
X260093809Y-155445714D01*
X260189047Y-155493333D01*
X260236666Y-155540952D01*
X260284285Y-155636190D01*
X260284285Y-155921904D01*
X260236666Y-156017142D01*
X260189047Y-156064761D01*
X260093809Y-156112380D01*
X259950952Y-156112380D01*
X261141428Y-155445714D02*
X261141428Y-156112380D01*
X260712857Y-155445714D02*
X260712857Y-155969523D01*
X260760476Y-156064761D01*
X260855714Y-156112380D01*
X260998571Y-156112380D01*
X261093809Y-156064761D01*
X261141428Y-156017142D01*
X261617619Y-155445714D02*
X261617619Y-156112380D01*
X261617619Y-155540952D02*
X261665238Y-155493333D01*
X261760476Y-155445714D01*
X261903333Y-155445714D01*
X261998571Y-155493333D01*
X262046190Y-155588571D01*
X262046190Y-156112380D01*
X262379523Y-155445714D02*
X262760476Y-155445714D01*
X262522380Y-155112380D02*
X262522380Y-155969523D01*
X262570000Y-156064761D01*
X262665238Y-156112380D01*
X262760476Y-156112380D01*
X263093809Y-156112380D02*
X263093809Y-155445714D01*
X263093809Y-155112380D02*
X263046190Y-155160000D01*
X263093809Y-155207619D01*
X263141428Y-155160000D01*
X263093809Y-155112380D01*
X263093809Y-155207619D01*
X263570000Y-155445714D02*
X263570000Y-156112380D01*
X263570000Y-155540952D02*
X263617619Y-155493333D01*
X263712857Y-155445714D01*
X263855714Y-155445714D01*
X263950952Y-155493333D01*
X263998571Y-155588571D01*
X263998571Y-156112380D01*
X264903333Y-155445714D02*
X264903333Y-156255238D01*
X264855714Y-156350476D01*
X264808095Y-156398095D01*
X264712857Y-156445714D01*
X264570000Y-156445714D01*
X264474761Y-156398095D01*
X264903333Y-156064761D02*
X264808095Y-156112380D01*
X264617619Y-156112380D01*
X264522380Y-156064761D01*
X264474761Y-156017142D01*
X264427142Y-155921904D01*
X264427142Y-155636190D01*
X264474761Y-155540952D01*
X264522380Y-155493333D01*
X264617619Y-155445714D01*
X264808095Y-155445714D01*
X264903333Y-155493333D01*
X265379523Y-156112380D02*
X265379523Y-155112380D01*
X265379523Y-155588571D02*
X265950952Y-155588571D01*
X265950952Y-156112380D02*
X265950952Y-155112380D01*
X266570000Y-156112380D02*
X266474761Y-156064761D01*
X266427142Y-156017142D01*
X266379523Y-155921904D01*
X266379523Y-155636190D01*
X266427142Y-155540952D01*
X266474761Y-155493333D01*
X266570000Y-155445714D01*
X266712857Y-155445714D01*
X266808095Y-155493333D01*
X266855714Y-155540952D01*
X266903333Y-155636190D01*
X266903333Y-155921904D01*
X266855714Y-156017142D01*
X266808095Y-156064761D01*
X266712857Y-156112380D01*
X266570000Y-156112380D01*
X267474761Y-156112380D02*
X267379523Y-156064761D01*
X267331904Y-155969523D01*
X267331904Y-155112380D01*
X268236666Y-156064761D02*
X268141428Y-156112380D01*
X267950952Y-156112380D01*
X267855714Y-156064761D01*
X267808095Y-155969523D01*
X267808095Y-155588571D01*
X267855714Y-155493333D01*
X267950952Y-155445714D01*
X268141428Y-155445714D01*
X268236666Y-155493333D01*
X268284285Y-155588571D01*
X268284285Y-155683809D01*
X267808095Y-155779047D01*
X268474761Y-156207619D02*
X269236666Y-156207619D01*
X269379523Y-155112380D02*
X269998571Y-155112380D01*
X269665238Y-155493333D01*
X269808095Y-155493333D01*
X269903333Y-155540952D01*
X269950952Y-155588571D01*
X269998571Y-155683809D01*
X269998571Y-155921904D01*
X269950952Y-156017142D01*
X269903333Y-156064761D01*
X269808095Y-156112380D01*
X269522380Y-156112380D01*
X269427142Y-156064761D01*
X269379523Y-156017142D01*
X270427142Y-156017142D02*
X270474761Y-156064761D01*
X270427142Y-156112380D01*
X270379523Y-156064761D01*
X270427142Y-156017142D01*
X270427142Y-156112380D01*
X270855714Y-155207619D02*
X270903333Y-155160000D01*
X270998571Y-155112380D01*
X271236666Y-155112380D01*
X271331904Y-155160000D01*
X271379523Y-155207619D01*
X271427142Y-155302857D01*
X271427142Y-155398095D01*
X271379523Y-155540952D01*
X270808095Y-156112380D01*
X271427142Y-156112380D01*
X271855714Y-156112380D02*
X271855714Y-155445714D01*
X271855714Y-155540952D02*
X271903333Y-155493333D01*
X271998571Y-155445714D01*
X272141428Y-155445714D01*
X272236666Y-155493333D01*
X272284285Y-155588571D01*
X272284285Y-156112380D01*
X272284285Y-155588571D02*
X272331904Y-155493333D01*
X272427142Y-155445714D01*
X272570000Y-155445714D01*
X272665238Y-155493333D01*
X272712857Y-155588571D01*
X272712857Y-156112380D01*
X273189047Y-156112380D02*
X273189047Y-155445714D01*
X273189047Y-155540952D02*
X273236666Y-155493333D01*
X273331904Y-155445714D01*
X273474761Y-155445714D01*
X273570000Y-155493333D01*
X273617619Y-155588571D01*
X273617619Y-156112380D01*
X273617619Y-155588571D02*
X273665238Y-155493333D01*
X273760476Y-155445714D01*
X273903333Y-155445714D01*
X273998571Y-155493333D01*
X274046190Y-155588571D01*
X274046190Y-156112380D01*
X274284285Y-156207619D02*
X275046190Y-156207619D01*
X275284285Y-156112380D02*
X275284285Y-155112380D01*
X275617619Y-155826666D01*
X275950952Y-155112380D01*
X275950952Y-156112380D01*
X276331904Y-155112380D02*
X276950952Y-155112380D01*
X276617619Y-155493333D01*
X276760476Y-155493333D01*
X276855714Y-155540952D01*
X276903333Y-155588571D01*
X276950952Y-155683809D01*
X276950952Y-155921904D01*
X276903333Y-156017142D01*
X276855714Y-156064761D01*
X276760476Y-156112380D01*
X276474761Y-156112380D01*
X276379523Y-156064761D01*
X276331904Y-156017142D01*
X277141428Y-156207619D02*
X277903333Y-156207619D01*
X278141428Y-156112380D02*
X278141428Y-155112380D01*
X278522380Y-155112380D01*
X278617619Y-155160000D01*
X278665238Y-155207619D01*
X278712857Y-155302857D01*
X278712857Y-155445714D01*
X278665238Y-155540952D01*
X278617619Y-155588571D01*
X278522380Y-155636190D01*
X278141428Y-155636190D01*
X279570000Y-156112380D02*
X279570000Y-155588571D01*
X279522380Y-155493333D01*
X279427142Y-155445714D01*
X279236666Y-155445714D01*
X279141428Y-155493333D01*
X279570000Y-156064761D02*
X279474761Y-156112380D01*
X279236666Y-156112380D01*
X279141428Y-156064761D01*
X279093809Y-155969523D01*
X279093809Y-155874285D01*
X279141428Y-155779047D01*
X279236666Y-155731428D01*
X279474761Y-155731428D01*
X279570000Y-155683809D01*
X280474761Y-156112380D02*
X280474761Y-155112380D01*
X280474761Y-156064761D02*
X280379523Y-156112380D01*
X280189047Y-156112380D01*
X280093809Y-156064761D01*
X280046190Y-156017142D01*
X279998571Y-155921904D01*
X279998571Y-155636190D01*
X280046190Y-155540952D01*
X280093809Y-155493333D01*
X280189047Y-155445714D01*
X280379523Y-155445714D01*
X280474761Y-155493333D01*
X266808095Y-151912380D02*
X266474761Y-151436190D01*
X266236666Y-151912380D02*
X266236666Y-150912380D01*
X266617619Y-150912380D01*
X266712857Y-150960000D01*
X266760476Y-151007619D01*
X266808095Y-151102857D01*
X266808095Y-151245714D01*
X266760476Y-151340952D01*
X266712857Y-151388571D01*
X266617619Y-151436190D01*
X266236666Y-151436190D01*
X267236666Y-151388571D02*
X267570000Y-151388571D01*
X267712857Y-151912380D02*
X267236666Y-151912380D01*
X267236666Y-150912380D01*
X267712857Y-150912380D01*
X268474761Y-151388571D02*
X268141428Y-151388571D01*
X268141428Y-151912380D02*
X268141428Y-150912380D01*
X268617619Y-150912380D01*
X269141428Y-151340952D02*
X269046190Y-151293333D01*
X268998571Y-151245714D01*
X268950952Y-151150476D01*
X268950952Y-151102857D01*
X268998571Y-151007619D01*
X269046190Y-150960000D01*
X269141428Y-150912380D01*
X269331904Y-150912380D01*
X269427142Y-150960000D01*
X269474761Y-151007619D01*
X269522380Y-151102857D01*
X269522380Y-151150476D01*
X269474761Y-151245714D01*
X269427142Y-151293333D01*
X269331904Y-151340952D01*
X269141428Y-151340952D01*
X269046190Y-151388571D01*
X268998571Y-151436190D01*
X268950952Y-151531428D01*
X268950952Y-151721904D01*
X268998571Y-151817142D01*
X269046190Y-151864761D01*
X269141428Y-151912380D01*
X269331904Y-151912380D01*
X269427142Y-151864761D01*
X269474761Y-151817142D01*
X269522380Y-151721904D01*
X269522380Y-151531428D01*
X269474761Y-151436190D01*
X269427142Y-151388571D01*
X269331904Y-151340952D01*
X270093809Y-151340952D02*
X269998571Y-151293333D01*
X269950952Y-151245714D01*
X269903333Y-151150476D01*
X269903333Y-151102857D01*
X269950952Y-151007619D01*
X269998571Y-150960000D01*
X270093809Y-150912380D01*
X270284285Y-150912380D01*
X270379523Y-150960000D01*
X270427142Y-151007619D01*
X270474761Y-151102857D01*
X270474761Y-151150476D01*
X270427142Y-151245714D01*
X270379523Y-151293333D01*
X270284285Y-151340952D01*
X270093809Y-151340952D01*
X269998571Y-151388571D01*
X269950952Y-151436190D01*
X269903333Y-151531428D01*
X269903333Y-151721904D01*
X269950952Y-151817142D01*
X269998571Y-151864761D01*
X270093809Y-151912380D01*
X270284285Y-151912380D01*
X270379523Y-151864761D01*
X270427142Y-151817142D01*
X270474761Y-151721904D01*
X270474761Y-151531428D01*
X270427142Y-151436190D01*
X270379523Y-151388571D01*
X270284285Y-151340952D01*
X271046190Y-151340952D02*
X270950952Y-151293333D01*
X270903333Y-151245714D01*
X270855714Y-151150476D01*
X270855714Y-151102857D01*
X270903333Y-151007619D01*
X270950952Y-150960000D01*
X271046190Y-150912380D01*
X271236666Y-150912380D01*
X271331904Y-150960000D01*
X271379523Y-151007619D01*
X271427142Y-151102857D01*
X271427142Y-151150476D01*
X271379523Y-151245714D01*
X271331904Y-151293333D01*
X271236666Y-151340952D01*
X271046190Y-151340952D01*
X270950952Y-151388571D01*
X270903333Y-151436190D01*
X270855714Y-151531428D01*
X270855714Y-151721904D01*
X270903333Y-151817142D01*
X270950952Y-151864761D01*
X271046190Y-151912380D01*
X271236666Y-151912380D01*
X271331904Y-151864761D01*
X271379523Y-151817142D01*
X271427142Y-151721904D01*
X271427142Y-151531428D01*
X271379523Y-151436190D01*
X271331904Y-151388571D01*
X271236666Y-151340952D01*
X271998571Y-150912380D02*
X271998571Y-151150476D01*
X271760476Y-151055238D02*
X271998571Y-151150476D01*
X272236666Y-151055238D01*
X271855714Y-151340952D02*
X271998571Y-151150476D01*
X272141428Y-151340952D01*
X272760476Y-150912380D02*
X272760476Y-151150476D01*
X272522380Y-151055238D02*
X272760476Y-151150476D01*
X272998571Y-151055238D01*
X272617619Y-151340952D02*
X272760476Y-151150476D01*
X272903333Y-151340952D01*
D15*
%TO.C,R2*%
X236193714Y-96664000D02*
X235850857Y-96904000D01*
X236193714Y-97075428D02*
X235473714Y-97075428D01*
X235473714Y-96801142D01*
X235508000Y-96732571D01*
X235542285Y-96698285D01*
X235610857Y-96664000D01*
X235713714Y-96664000D01*
X235782285Y-96698285D01*
X235816571Y-96732571D01*
X235850857Y-96801142D01*
X235850857Y-97075428D01*
X235542285Y-96389714D02*
X235508000Y-96355428D01*
X235473714Y-96286857D01*
X235473714Y-96115428D01*
X235508000Y-96046857D01*
X235542285Y-96012571D01*
X235610857Y-95978285D01*
X235679428Y-95978285D01*
X235782285Y-96012571D01*
X236193714Y-96424000D01*
X236193714Y-95978285D01*
D11*
%TO.C,U1*%
X213110380Y-97035904D02*
X213110380Y-96369238D01*
X214110380Y-96797809D01*
X213443714Y-95559714D02*
X214110380Y-95559714D01*
X213062761Y-95797809D02*
X213777047Y-96035904D01*
X213777047Y-95416857D01*
X214110380Y-95035904D02*
X213110380Y-95035904D01*
X213586571Y-95035904D02*
X213586571Y-94464476D01*
X214110380Y-94464476D02*
X213110380Y-94464476D01*
X214015142Y-93416857D02*
X214062761Y-93464476D01*
X214110380Y-93607333D01*
X214110380Y-93702571D01*
X214062761Y-93845428D01*
X213967523Y-93940666D01*
X213872285Y-93988285D01*
X213681809Y-94035904D01*
X213538952Y-94035904D01*
X213348476Y-93988285D01*
X213253238Y-93940666D01*
X213158000Y-93845428D01*
X213110380Y-93702571D01*
X213110380Y-93607333D01*
X213158000Y-93464476D01*
X213205619Y-93416857D01*
X213110380Y-92512095D02*
X213110380Y-92988285D01*
X213586571Y-93035904D01*
X213538952Y-92988285D01*
X213491333Y-92893047D01*
X213491333Y-92654952D01*
X213538952Y-92559714D01*
X213586571Y-92512095D01*
X213681809Y-92464476D01*
X213919904Y-92464476D01*
X214015142Y-92512095D01*
X214062761Y-92559714D01*
X214110380Y-92654952D01*
X214110380Y-92893047D01*
X214062761Y-92988285D01*
X214015142Y-93035904D01*
X214110380Y-91988285D02*
X214110380Y-91797809D01*
X214062761Y-91702571D01*
X214015142Y-91654952D01*
X213872285Y-91559714D01*
X213681809Y-91512095D01*
X213300857Y-91512095D01*
X213205619Y-91559714D01*
X213158000Y-91607333D01*
X213110380Y-91702571D01*
X213110380Y-91893047D01*
X213158000Y-91988285D01*
X213205619Y-92035904D01*
X213300857Y-92083523D01*
X213538952Y-92083523D01*
X213634190Y-92035904D01*
X213681809Y-91988285D01*
X213729428Y-91893047D01*
X213729428Y-91702571D01*
X213681809Y-91607333D01*
X213634190Y-91559714D01*
X213538952Y-91512095D01*
X213110380Y-90607333D02*
X213110380Y-91083523D01*
X213586571Y-91131142D01*
X213538952Y-91083523D01*
X213491333Y-90988285D01*
X213491333Y-90750190D01*
X213538952Y-90654952D01*
X213586571Y-90607333D01*
X213681809Y-90559714D01*
X213919904Y-90559714D01*
X214015142Y-90607333D01*
X214062761Y-90654952D01*
X214110380Y-90750190D01*
X214110380Y-90988285D01*
X214062761Y-91083523D01*
X214015142Y-91131142D01*
X213010380Y-102815904D02*
X213819904Y-102815904D01*
X213915142Y-102768285D01*
X213962761Y-102720666D01*
X214010380Y-102625428D01*
X214010380Y-102434952D01*
X213962761Y-102339714D01*
X213915142Y-102292095D01*
X213819904Y-102244476D01*
X213010380Y-102244476D01*
X214010380Y-101244476D02*
X214010380Y-101815904D01*
X214010380Y-101530190D02*
X213010380Y-101530190D01*
X213153238Y-101625428D01*
X213248476Y-101720666D01*
X213296095Y-101815904D01*
D10*
%TO.C,J1*%
X269322000Y-88948000D02*
X251322000Y-88948000D01*
X251322000Y-146948000D02*
X251322000Y-88948000D01*
X269322000Y-146948000D02*
X251322000Y-146948000D01*
X269322000Y-146948000D02*
X269322000Y-88948000D01*
%TO.C,J3*%
X247113000Y-151894000D02*
X247113000Y-154434000D01*
X242033000Y-153799000D02*
X242033000Y-151894000D01*
X242033000Y-151894000D02*
X247113000Y-151894000D01*
X242668000Y-154434000D02*
X242033000Y-153799000D01*
X247113000Y-154434000D02*
X242668000Y-154434000D01*
%TO.C,U2*%
X214637000Y-117831000D02*
X214637000Y-111481000D01*
X233957000Y-111481000D02*
X234957000Y-112481000D01*
X214637000Y-111481000D02*
X233957000Y-111481000D01*
X234957000Y-117831000D02*
X214637000Y-117831000D01*
X234957000Y-112481000D02*
X234957000Y-117831000D01*
%TO.C,R1*%
X243838000Y-92664000D02*
X240238000Y-92664000D01*
X238228000Y-93464000D02*
X240238000Y-93464000D01*
X245848000Y-93464000D02*
X243838000Y-93464000D01*
X240238000Y-92664000D02*
X240238000Y-94264000D01*
X240238000Y-94264000D02*
X243838000Y-94264000D01*
X243838000Y-94264000D02*
X243838000Y-92664000D01*
%TO.C,J4*%
X243478000Y-139114000D02*
X245478000Y-139114000D01*
X244978000Y-147114000D02*
X243478000Y-147114000D01*
X245478000Y-139114000D02*
X245478000Y-146614000D01*
X243478000Y-147114000D02*
X243478000Y-139114000D01*
X245478000Y-146614000D02*
X244978000Y-147114000D01*
%TO.C,A1*%
X193570000Y-137770000D02*
X203730000Y-137770000D01*
X203730000Y-145390000D02*
X193570000Y-145390000D01*
X196110000Y-132690000D02*
X238020000Y-132690000D01*
X196110000Y-150470000D02*
X196110000Y-132690000D01*
X203730000Y-137770000D02*
X203730000Y-145390000D01*
X238020000Y-132690000D02*
X239290000Y-133960000D01*
X239290000Y-150470000D02*
X196110000Y-150470000D01*
X193570000Y-145390000D02*
X193570000Y-137770000D01*
X239290000Y-133960000D02*
X239290000Y-150470000D01*
%TO.C,R3*%
X240278000Y-98064000D02*
X240278000Y-99664000D01*
X240278000Y-99664000D02*
X243878000Y-99664000D01*
X243878000Y-98064000D02*
X240278000Y-98064000D01*
X238268000Y-98864000D02*
X240278000Y-98864000D01*
X245888000Y-98864000D02*
X243878000Y-98864000D01*
X243878000Y-99664000D02*
X243878000Y-98064000D01*
%TO.C,C1*%
X191010554Y-153131500D02*
X191010554Y-152731500D01*
X191210554Y-152931500D02*
X190810554Y-152931500D01*
X191508000Y-152064000D02*
G75*
G03*
X191508000Y-152064000I-2000000J0D01*
G01*
%TO.C,R5*%
X246778000Y-149864000D02*
X246778000Y-148264000D01*
X248788000Y-149064000D02*
X246778000Y-149064000D01*
X246778000Y-148264000D02*
X243178000Y-148264000D01*
X243178000Y-148264000D02*
X243178000Y-149864000D01*
X241168000Y-149064000D02*
X243178000Y-149064000D01*
X243178000Y-149864000D02*
X246778000Y-149864000D01*
%TO.C,R4*%
X238268000Y-101264000D02*
X240278000Y-101264000D01*
X245888000Y-101264000D02*
X243878000Y-101264000D01*
X243878000Y-102064000D02*
X243878000Y-100464000D01*
X240278000Y-100464000D02*
X240278000Y-102064000D01*
X243878000Y-100464000D02*
X240278000Y-100464000D01*
X240278000Y-102064000D02*
X243878000Y-102064000D01*
%TO.C,J2*%
X238628000Y-91434000D02*
X238628000Y-88894000D01*
X238628000Y-88894000D02*
X245613000Y-88894000D01*
X246248000Y-91434000D02*
X238628000Y-91434000D01*
X246248000Y-89529000D02*
X246248000Y-91434000D01*
X245613000Y-88894000D02*
X246248000Y-89529000D01*
%TO.C,R2*%
X243878000Y-97364000D02*
X243878000Y-95764000D01*
X240278000Y-95764000D02*
X240278000Y-97364000D01*
X238268000Y-96564000D02*
X240278000Y-96564000D01*
X243878000Y-95764000D02*
X240278000Y-95764000D01*
X240278000Y-97364000D02*
X243878000Y-97364000D01*
X245888000Y-96564000D02*
X243878000Y-96564000D01*
%TO.C,U1*%
X214667000Y-95205000D02*
X234987000Y-95205000D01*
X234987000Y-101555000D02*
X215667000Y-101555000D01*
X214667000Y-100555000D02*
X214667000Y-95205000D01*
X234987000Y-95205000D02*
X234987000Y-101555000D01*
X215667000Y-101555000D02*
X214667000Y-100555000D01*
%TD*%
%TO.C,J1*%
X259272000Y-104948000D02*
G75*
G03*
X259272000Y-104948000I-950000J0D01*
G01*
X259272000Y-130948000D02*
G75*
G03*
X259272000Y-130948000I-950000J0D01*
G01*
X248972000Y-94248000D02*
X248972000Y-95148000D01*
X251272000Y-95148000D01*
X251272000Y-94248000D01*
X248972000Y-94248000D01*
X248972000Y-95748000D02*
X248972000Y-96648000D01*
X251272000Y-96648000D01*
X251272000Y-95748000D01*
X248972000Y-95748000D01*
X248972000Y-97248000D02*
X248972000Y-98148000D01*
X251272000Y-98148000D01*
X251272000Y-97248000D01*
X248972000Y-97248000D01*
X248972000Y-98748000D02*
X248972000Y-99648000D01*
X251272000Y-99648000D01*
X251272000Y-98748000D01*
X248972000Y-98748000D01*
X248972000Y-100248000D02*
X248972000Y-101148000D01*
X251272000Y-101148000D01*
X251272000Y-100248000D01*
X248972000Y-100248000D01*
X248972000Y-101748000D02*
X248972000Y-102648000D01*
X251272000Y-102648000D01*
X251272000Y-101748000D01*
X248972000Y-101748000D01*
X248972000Y-103248000D02*
X248972000Y-104148000D01*
X251272000Y-104148000D01*
X251272000Y-103248000D01*
X248972000Y-103248000D01*
X248972000Y-104748000D02*
X248972000Y-105648000D01*
X251272000Y-105648000D01*
X251272000Y-104748000D01*
X248972000Y-104748000D01*
X248972000Y-106248000D02*
X248972000Y-107148000D01*
X251272000Y-107148000D01*
X251272000Y-106248000D01*
X248972000Y-106248000D01*
X248972000Y-107748000D02*
X248972000Y-108648000D01*
X251272000Y-108648000D01*
X251272000Y-107748000D01*
X248972000Y-107748000D01*
X248972000Y-109248000D02*
X248972000Y-110148000D01*
X251272000Y-110148000D01*
X251272000Y-109248000D01*
X248972000Y-109248000D01*
X248972000Y-110748000D02*
X248972000Y-111648000D01*
X251272000Y-111648000D01*
X251272000Y-110748000D01*
X248972000Y-110748000D01*
X248972000Y-112248000D02*
X248972000Y-113148000D01*
X251272000Y-113148000D01*
X251272000Y-112248000D01*
X248972000Y-112248000D01*
X248972000Y-113748000D02*
X248972000Y-114648000D01*
X251272000Y-114648000D01*
X251272000Y-113748000D01*
X248972000Y-113748000D01*
X248972000Y-115248000D02*
X248972000Y-116148000D01*
X251272000Y-116148000D01*
X251272000Y-115248000D01*
X248972000Y-115248000D01*
X248972000Y-116748000D02*
X248972000Y-117648000D01*
X251272000Y-117648000D01*
X251272000Y-116748000D01*
X248972000Y-116748000D01*
X248972000Y-118248000D02*
X248972000Y-119148000D01*
X251272000Y-119148000D01*
X251272000Y-118248000D01*
X248972000Y-118248000D01*
X248972000Y-119748000D02*
X248972000Y-120648000D01*
X251272000Y-120648000D01*
X251272000Y-119748000D01*
X248972000Y-119748000D01*
X248972000Y-121248000D02*
X248972000Y-122148000D01*
X251272000Y-122148000D01*
X251272000Y-121248000D01*
X248972000Y-121248000D01*
X248972000Y-122748000D02*
X248972000Y-123648000D01*
X251272000Y-123648000D01*
X251272000Y-122748000D01*
X248972000Y-122748000D01*
X248972000Y-124248000D02*
X248972000Y-125148000D01*
X251272000Y-125148000D01*
X251272000Y-124248000D01*
X248972000Y-124248000D01*
X248972000Y-125748000D02*
X248972000Y-126648000D01*
X251272000Y-126648000D01*
X251272000Y-125748000D01*
X248972000Y-125748000D01*
X248972000Y-127248000D02*
X248972000Y-128148000D01*
X251272000Y-128148000D01*
X251272000Y-127248000D01*
X248972000Y-127248000D01*
X248972000Y-128748000D02*
X248972000Y-129648000D01*
X251272000Y-129648000D01*
X251272000Y-128748000D01*
X248972000Y-128748000D01*
X248972000Y-130248000D02*
X248972000Y-131148000D01*
X251272000Y-131148000D01*
X251272000Y-130248000D01*
X248972000Y-130248000D01*
X248972000Y-131748000D02*
X248972000Y-132648000D01*
X251272000Y-132648000D01*
X251272000Y-131748000D01*
X248972000Y-131748000D01*
X248972000Y-133248000D02*
X248972000Y-134148000D01*
X251272000Y-134148000D01*
X251272000Y-133248000D01*
X248972000Y-133248000D01*
X248972000Y-134748000D02*
X248972000Y-135648000D01*
X251272000Y-135648000D01*
X251272000Y-134748000D01*
X248972000Y-134748000D01*
X248972000Y-136248000D02*
X248972000Y-137148000D01*
X251272000Y-137148000D01*
X251272000Y-136248000D01*
X248972000Y-136248000D01*
X248972000Y-137748000D02*
X248972000Y-138648000D01*
X251272000Y-138648000D01*
X251272000Y-137748000D01*
X248972000Y-137748000D01*
X248972000Y-139248000D02*
X248972000Y-140148000D01*
X251272000Y-140148000D01*
X251272000Y-139248000D01*
X248972000Y-139248000D01*
X248972000Y-140748000D02*
X248972000Y-141648000D01*
X251272000Y-141648000D01*
X251272000Y-140748000D01*
X248972000Y-140748000D01*
X268872000Y-101998000D02*
X268872000Y-107898000D01*
X271772000Y-107898000D01*
X271772000Y-101998000D01*
X268872000Y-101998000D01*
X268872000Y-127998000D02*
X268872000Y-133898000D01*
X271772000Y-133898000D01*
X271772000Y-127998000D01*
X268872000Y-127998000D01*
%TD*%
%TO.C,J3*%
X244053000Y-153164000D02*
G75*
G03*
X244053000Y-153164000I-750000J0D01*
G01*
X245843000Y-153914000D02*
X245843000Y-153914000D01*
X245843000Y-152414000D02*
X245843000Y-152414000D01*
X245843000Y-153914000D02*
G75*
G03*
X245843000Y-152414000I0J750000D01*
G01*
X245843000Y-152414000D02*
G75*
G03*
X245843000Y-153914000I0J-750000D01*
G01*
%TD*%
%TO.C,U2*%
X232937000Y-110096000D02*
X232937000Y-111596000D01*
X234437000Y-111596000D01*
X234437000Y-110096000D01*
X232937000Y-110096000D01*
X231147000Y-110096000D02*
X231147000Y-110096000D01*
X231147000Y-111596000D02*
X231147000Y-111596000D01*
X231147000Y-110096000D02*
G75*
G03*
X231147000Y-111596000I0J-750000D01*
G01*
X231147000Y-111596000D02*
G75*
G03*
X231147000Y-110096000I0J750000D01*
G01*
X228607000Y-110096000D02*
X228607000Y-110096000D01*
X228607000Y-111596000D02*
X228607000Y-111596000D01*
X228607000Y-110096000D02*
G75*
G03*
X228607000Y-111596000I0J-750000D01*
G01*
X228607000Y-111596000D02*
G75*
G03*
X228607000Y-110096000I0J750000D01*
G01*
X226067000Y-110096000D02*
X226067000Y-110096000D01*
X226067000Y-111596000D02*
X226067000Y-111596000D01*
X226067000Y-110096000D02*
G75*
G03*
X226067000Y-111596000I0J-750000D01*
G01*
X226067000Y-111596000D02*
G75*
G03*
X226067000Y-110096000I0J750000D01*
G01*
X223527000Y-110096000D02*
X223527000Y-110096000D01*
X223527000Y-111596000D02*
X223527000Y-111596000D01*
X223527000Y-110096000D02*
G75*
G03*
X223527000Y-111596000I0J-750000D01*
G01*
X223527000Y-111596000D02*
G75*
G03*
X223527000Y-110096000I0J750000D01*
G01*
X220987000Y-110096000D02*
X220987000Y-110096000D01*
X220987000Y-111596000D02*
X220987000Y-111596000D01*
X220987000Y-110096000D02*
G75*
G03*
X220987000Y-111596000I0J-750000D01*
G01*
X220987000Y-111596000D02*
G75*
G03*
X220987000Y-110096000I0J750000D01*
G01*
X218447000Y-110096000D02*
X218447000Y-110096000D01*
X218447000Y-111596000D02*
X218447000Y-111596000D01*
X218447000Y-110096000D02*
G75*
G03*
X218447000Y-111596000I0J-750000D01*
G01*
X218447000Y-111596000D02*
G75*
G03*
X218447000Y-110096000I0J750000D01*
G01*
X215907000Y-110096000D02*
X215907000Y-110096000D01*
X215907000Y-111596000D02*
X215907000Y-111596000D01*
X215907000Y-110096000D02*
G75*
G03*
X215907000Y-111596000I0J-750000D01*
G01*
X215907000Y-111596000D02*
G75*
G03*
X215907000Y-110096000I0J750000D01*
G01*
X215907000Y-117716000D02*
X215907000Y-117716000D01*
X215907000Y-119216000D02*
X215907000Y-119216000D01*
X215907000Y-117716000D02*
G75*
G03*
X215907000Y-119216000I0J-750000D01*
G01*
X215907000Y-119216000D02*
G75*
G03*
X215907000Y-117716000I0J750000D01*
G01*
X218447000Y-117716000D02*
X218447000Y-117716000D01*
X218447000Y-119216000D02*
X218447000Y-119216000D01*
X218447000Y-117716000D02*
G75*
G03*
X218447000Y-119216000I0J-750000D01*
G01*
X218447000Y-119216000D02*
G75*
G03*
X218447000Y-117716000I0J750000D01*
G01*
X220987000Y-117716000D02*
X220987000Y-117716000D01*
X220987000Y-119216000D02*
X220987000Y-119216000D01*
X220987000Y-117716000D02*
G75*
G03*
X220987000Y-119216000I0J-750000D01*
G01*
X220987000Y-119216000D02*
G75*
G03*
X220987000Y-117716000I0J750000D01*
G01*
X223527000Y-117716000D02*
X223527000Y-117716000D01*
X223527000Y-119216000D02*
X223527000Y-119216000D01*
X223527000Y-117716000D02*
G75*
G03*
X223527000Y-119216000I0J-750000D01*
G01*
X223527000Y-119216000D02*
G75*
G03*
X223527000Y-117716000I0J750000D01*
G01*
X226067000Y-117716000D02*
X226067000Y-117716000D01*
X226067000Y-119216000D02*
X226067000Y-119216000D01*
X226067000Y-117716000D02*
G75*
G03*
X226067000Y-119216000I0J-750000D01*
G01*
X226067000Y-119216000D02*
G75*
G03*
X226067000Y-117716000I0J750000D01*
G01*
X228607000Y-117716000D02*
X228607000Y-117716000D01*
X228607000Y-119216000D02*
X228607000Y-119216000D01*
X228607000Y-117716000D02*
G75*
G03*
X228607000Y-119216000I0J-750000D01*
G01*
X228607000Y-119216000D02*
G75*
G03*
X228607000Y-117716000I0J750000D01*
G01*
X231147000Y-117716000D02*
X231147000Y-117716000D01*
X231147000Y-119216000D02*
X231147000Y-119216000D01*
X231147000Y-117716000D02*
G75*
G03*
X231147000Y-119216000I0J-750000D01*
G01*
X231147000Y-119216000D02*
G75*
G03*
X231147000Y-117716000I0J750000D01*
G01*
X233687000Y-117716000D02*
X233687000Y-117716000D01*
X233687000Y-119216000D02*
X233687000Y-119216000D01*
X233687000Y-117716000D02*
G75*
G03*
X233687000Y-119216000I0J-750000D01*
G01*
X233687000Y-119216000D02*
G75*
G03*
X233687000Y-117716000I0J750000D01*
G01*
%TD*%
%TO.C,R1*%
X238878000Y-93464000D02*
G75*
G03*
X238878000Y-93464000I-650000J0D01*
G01*
X245198000Y-93464000D02*
X245198000Y-93464000D01*
X246498000Y-93464000D02*
X246498000Y-93464000D01*
X245198000Y-93464000D02*
G75*
G03*
X246498000Y-93464000I650000J0D01*
G01*
X246498000Y-93464000D02*
G75*
G03*
X245198000Y-93464000I-650000J0D01*
G01*
%TD*%
%TO.C,J4*%
X243853000Y-145489000D02*
X243853000Y-146739000D01*
X245103000Y-146739000D01*
X245103000Y-145489000D01*
X243853000Y-145489000D01*
X245103000Y-144114000D02*
X245103000Y-144114000D01*
X243853000Y-144114000D02*
X243853000Y-144114000D01*
X245103000Y-144114000D02*
G75*
G03*
X243853000Y-144114000I-625000J0D01*
G01*
X243853000Y-144114000D02*
G75*
G03*
X245103000Y-144114000I625000J0D01*
G01*
X245103000Y-142114000D02*
X245103000Y-142114000D01*
X243853000Y-142114000D02*
X243853000Y-142114000D01*
X245103000Y-142114000D02*
G75*
G03*
X243853000Y-142114000I-625000J0D01*
G01*
X243853000Y-142114000D02*
G75*
G03*
X245103000Y-142114000I625000J0D01*
G01*
X245103000Y-140114000D02*
X245103000Y-140114000D01*
X243853000Y-140114000D02*
X243853000Y-140114000D01*
X245103000Y-140114000D02*
G75*
G03*
X243853000Y-140114000I-625000J0D01*
G01*
X243853000Y-140114000D02*
G75*
G03*
X245103000Y-140114000I625000J0D01*
G01*
%TD*%
%TO.C,A1*%
X234730000Y-133210000D02*
X234730000Y-134710000D01*
X236230000Y-134710000D01*
X236230000Y-133210000D01*
X234730000Y-133210000D01*
X232940000Y-133210000D02*
X232940000Y-133210000D01*
X232940000Y-134710000D02*
X232940000Y-134710000D01*
X232940000Y-133210000D02*
G75*
G03*
X232940000Y-134710000I0J-750000D01*
G01*
X232940000Y-134710000D02*
G75*
G03*
X232940000Y-133210000I0J750000D01*
G01*
X230400000Y-133210000D02*
X230400000Y-133210000D01*
X230400000Y-134710000D02*
X230400000Y-134710000D01*
X230400000Y-133210000D02*
G75*
G03*
X230400000Y-134710000I0J-750000D01*
G01*
X230400000Y-134710000D02*
G75*
G03*
X230400000Y-133210000I0J750000D01*
G01*
X227860000Y-133210000D02*
X227860000Y-133210000D01*
X227860000Y-134710000D02*
X227860000Y-134710000D01*
X227860000Y-133210000D02*
G75*
G03*
X227860000Y-134710000I0J-750000D01*
G01*
X227860000Y-134710000D02*
G75*
G03*
X227860000Y-133210000I0J750000D01*
G01*
X225320000Y-133210000D02*
X225320000Y-133210000D01*
X225320000Y-134710000D02*
X225320000Y-134710000D01*
X225320000Y-133210000D02*
G75*
G03*
X225320000Y-134710000I0J-750000D01*
G01*
X225320000Y-134710000D02*
G75*
G03*
X225320000Y-133210000I0J750000D01*
G01*
X222780000Y-133210000D02*
X222780000Y-133210000D01*
X222780000Y-134710000D02*
X222780000Y-134710000D01*
X222780000Y-133210000D02*
G75*
G03*
X222780000Y-134710000I0J-750000D01*
G01*
X222780000Y-134710000D02*
G75*
G03*
X222780000Y-133210000I0J750000D01*
G01*
X220240000Y-133210000D02*
X220240000Y-133210000D01*
X220240000Y-134710000D02*
X220240000Y-134710000D01*
X220240000Y-133210000D02*
G75*
G03*
X220240000Y-134710000I0J-750000D01*
G01*
X220240000Y-134710000D02*
G75*
G03*
X220240000Y-133210000I0J750000D01*
G01*
X217700000Y-133210000D02*
X217700000Y-133210000D01*
X217700000Y-134710000D02*
X217700000Y-134710000D01*
X217700000Y-133210000D02*
G75*
G03*
X217700000Y-134710000I0J-750000D01*
G01*
X217700000Y-134710000D02*
G75*
G03*
X217700000Y-133210000I0J750000D01*
G01*
X215160000Y-133210000D02*
X215160000Y-133210000D01*
X215160000Y-134710000D02*
X215160000Y-134710000D01*
X215160000Y-133210000D02*
G75*
G03*
X215160000Y-134710000I0J-750000D01*
G01*
X215160000Y-134710000D02*
G75*
G03*
X215160000Y-133210000I0J750000D01*
G01*
X212620000Y-133210000D02*
X212620000Y-133210000D01*
X212620000Y-134710000D02*
X212620000Y-134710000D01*
X212620000Y-133210000D02*
G75*
G03*
X212620000Y-134710000I0J-750000D01*
G01*
X212620000Y-134710000D02*
G75*
G03*
X212620000Y-133210000I0J750000D01*
G01*
X210080000Y-133210000D02*
X210080000Y-133210000D01*
X210080000Y-134710000D02*
X210080000Y-134710000D01*
X210080000Y-133210000D02*
G75*
G03*
X210080000Y-134710000I0J-750000D01*
G01*
X210080000Y-134710000D02*
G75*
G03*
X210080000Y-133210000I0J750000D01*
G01*
X207540000Y-133210000D02*
X207540000Y-133210000D01*
X207540000Y-134710000D02*
X207540000Y-134710000D01*
X207540000Y-133210000D02*
G75*
G03*
X207540000Y-134710000I0J-750000D01*
G01*
X207540000Y-134710000D02*
G75*
G03*
X207540000Y-133210000I0J750000D01*
G01*
X205000000Y-133210000D02*
X205000000Y-133210000D01*
X205000000Y-134710000D02*
X205000000Y-134710000D01*
X205000000Y-133210000D02*
G75*
G03*
X205000000Y-134710000I0J-750000D01*
G01*
X205000000Y-134710000D02*
G75*
G03*
X205000000Y-133210000I0J750000D01*
G01*
X202460000Y-133210000D02*
X202460000Y-133210000D01*
X202460000Y-134710000D02*
X202460000Y-134710000D01*
X202460000Y-133210000D02*
G75*
G03*
X202460000Y-134710000I0J-750000D01*
G01*
X202460000Y-134710000D02*
G75*
G03*
X202460000Y-133210000I0J750000D01*
G01*
X199920000Y-133210000D02*
X199920000Y-133210000D01*
X199920000Y-134710000D02*
X199920000Y-134710000D01*
X199920000Y-133210000D02*
G75*
G03*
X199920000Y-134710000I0J-750000D01*
G01*
X199920000Y-134710000D02*
G75*
G03*
X199920000Y-133210000I0J750000D01*
G01*
X199920000Y-148450000D02*
X199920000Y-148450000D01*
X199920000Y-149950000D02*
X199920000Y-149950000D01*
X199920000Y-148450000D02*
G75*
G03*
X199920000Y-149950000I0J-750000D01*
G01*
X199920000Y-149950000D02*
G75*
G03*
X199920000Y-148450000I0J750000D01*
G01*
X202460000Y-148450000D02*
X202460000Y-148450000D01*
X202460000Y-149950000D02*
X202460000Y-149950000D01*
X202460000Y-148450000D02*
G75*
G03*
X202460000Y-149950000I0J-750000D01*
G01*
X202460000Y-149950000D02*
G75*
G03*
X202460000Y-148450000I0J750000D01*
G01*
X205000000Y-148450000D02*
X205000000Y-148450000D01*
X205000000Y-149950000D02*
X205000000Y-149950000D01*
X205000000Y-148450000D02*
G75*
G03*
X205000000Y-149950000I0J-750000D01*
G01*
X205000000Y-149950000D02*
G75*
G03*
X205000000Y-148450000I0J750000D01*
G01*
X207540000Y-148450000D02*
X207540000Y-148450000D01*
X207540000Y-149950000D02*
X207540000Y-149950000D01*
X207540000Y-148450000D02*
G75*
G03*
X207540000Y-149950000I0J-750000D01*
G01*
X207540000Y-149950000D02*
G75*
G03*
X207540000Y-148450000I0J750000D01*
G01*
X210080000Y-148450000D02*
X210080000Y-148450000D01*
X210080000Y-149950000D02*
X210080000Y-149950000D01*
X210080000Y-148450000D02*
G75*
G03*
X210080000Y-149950000I0J-750000D01*
G01*
X210080000Y-149950000D02*
G75*
G03*
X210080000Y-148450000I0J750000D01*
G01*
X212620000Y-148450000D02*
X212620000Y-148450000D01*
X212620000Y-149950000D02*
X212620000Y-149950000D01*
X212620000Y-148450000D02*
G75*
G03*
X212620000Y-149950000I0J-750000D01*
G01*
X212620000Y-149950000D02*
G75*
G03*
X212620000Y-148450000I0J750000D01*
G01*
X215160000Y-148450000D02*
X215160000Y-148450000D01*
X215160000Y-149950000D02*
X215160000Y-149950000D01*
X215160000Y-148450000D02*
G75*
G03*
X215160000Y-149950000I0J-750000D01*
G01*
X215160000Y-149950000D02*
G75*
G03*
X215160000Y-148450000I0J750000D01*
G01*
X217700000Y-148450000D02*
X217700000Y-148450000D01*
X217700000Y-149950000D02*
X217700000Y-149950000D01*
X217700000Y-148450000D02*
G75*
G03*
X217700000Y-149950000I0J-750000D01*
G01*
X217700000Y-149950000D02*
G75*
G03*
X217700000Y-148450000I0J750000D01*
G01*
X220240000Y-148450000D02*
X220240000Y-148450000D01*
X220240000Y-149950000D02*
X220240000Y-149950000D01*
X220240000Y-148450000D02*
G75*
G03*
X220240000Y-149950000I0J-750000D01*
G01*
X220240000Y-149950000D02*
G75*
G03*
X220240000Y-148450000I0J750000D01*
G01*
X222780000Y-148450000D02*
X222780000Y-148450000D01*
X222780000Y-149950000D02*
X222780000Y-149950000D01*
X222780000Y-148450000D02*
G75*
G03*
X222780000Y-149950000I0J-750000D01*
G01*
X222780000Y-149950000D02*
G75*
G03*
X222780000Y-148450000I0J750000D01*
G01*
X225320000Y-148450000D02*
X225320000Y-148450000D01*
X225320000Y-149950000D02*
X225320000Y-149950000D01*
X225320000Y-148450000D02*
G75*
G03*
X225320000Y-149950000I0J-750000D01*
G01*
X225320000Y-149950000D02*
G75*
G03*
X225320000Y-148450000I0J750000D01*
G01*
X227860000Y-148450000D02*
X227860000Y-148450000D01*
X227860000Y-149950000D02*
X227860000Y-149950000D01*
X227860000Y-148450000D02*
G75*
G03*
X227860000Y-149950000I0J-750000D01*
G01*
X227860000Y-149950000D02*
G75*
G03*
X227860000Y-148450000I0J750000D01*
G01*
X230400000Y-148450000D02*
X230400000Y-148450000D01*
X230400000Y-149950000D02*
X230400000Y-149950000D01*
X230400000Y-148450000D02*
G75*
G03*
X230400000Y-149950000I0J-750000D01*
G01*
X230400000Y-149950000D02*
G75*
G03*
X230400000Y-148450000I0J750000D01*
G01*
X232940000Y-148450000D02*
X232940000Y-148450000D01*
X232940000Y-149950000D02*
X232940000Y-149950000D01*
X232940000Y-148450000D02*
G75*
G03*
X232940000Y-149950000I0J-750000D01*
G01*
X232940000Y-149950000D02*
G75*
G03*
X232940000Y-148450000I0J750000D01*
G01*
X235480000Y-148450000D02*
X235480000Y-148450000D01*
X235480000Y-149950000D02*
X235480000Y-149950000D01*
X235480000Y-148450000D02*
G75*
G03*
X235480000Y-149950000I0J-750000D01*
G01*
X235480000Y-149950000D02*
G75*
G03*
X235480000Y-148450000I0J750000D01*
G01*
%TD*%
%TO.C,R3*%
X238918000Y-98864000D02*
G75*
G03*
X238918000Y-98864000I-650000J0D01*
G01*
X245238000Y-98864000D02*
X245238000Y-98864000D01*
X246538000Y-98864000D02*
X246538000Y-98864000D01*
X245238000Y-98864000D02*
G75*
G03*
X246538000Y-98864000I650000J0D01*
G01*
X246538000Y-98864000D02*
G75*
G03*
X245238000Y-98864000I-650000J0D01*
G01*
%TD*%
%TO.C,C1*%
X189958000Y-151514000D02*
X189958000Y-152614000D01*
X191058000Y-152614000D01*
X191058000Y-151514000D01*
X189958000Y-151514000D01*
X189058000Y-152064000D02*
G75*
G03*
X189058000Y-152064000I-550000J0D01*
G01*
%TD*%
%TO.C,R5*%
X241818000Y-149064000D02*
G75*
G03*
X241818000Y-149064000I-650000J0D01*
G01*
X248138000Y-149064000D02*
X248138000Y-149064000D01*
X249438000Y-149064000D02*
X249438000Y-149064000D01*
X248138000Y-149064000D02*
G75*
G03*
X249438000Y-149064000I650000J0D01*
G01*
X249438000Y-149064000D02*
G75*
G03*
X248138000Y-149064000I-650000J0D01*
G01*
%TD*%
%TO.C,REF999\u002A\u002A*%
X191770000Y-87720000D02*
G75*
G03*
X191770000Y-87720000I-3150000J0D01*
G01*
%TD*%
%TO.C,R4*%
X238918000Y-101264000D02*
G75*
G03*
X238918000Y-101264000I-650000J0D01*
G01*
X245238000Y-101264000D02*
X245238000Y-101264000D01*
X246538000Y-101264000D02*
X246538000Y-101264000D01*
X245238000Y-101264000D02*
G75*
G03*
X246538000Y-101264000I650000J0D01*
G01*
X246538000Y-101264000D02*
G75*
G03*
X245238000Y-101264000I-650000J0D01*
G01*
%TD*%
%TO.C,J2*%
X244228000Y-89414000D02*
X244228000Y-90914000D01*
X245728000Y-90914000D01*
X245728000Y-89414000D01*
X244228000Y-89414000D01*
X242438000Y-89414000D02*
X242438000Y-89414000D01*
X242438000Y-90914000D02*
X242438000Y-90914000D01*
X242438000Y-89414000D02*
G75*
G03*
X242438000Y-90914000I0J-750000D01*
G01*
X242438000Y-90914000D02*
G75*
G03*
X242438000Y-89414000I0J750000D01*
G01*
X239898000Y-89414000D02*
X239898000Y-89414000D01*
X239898000Y-90914000D02*
X239898000Y-90914000D01*
X239898000Y-89414000D02*
G75*
G03*
X239898000Y-90914000I0J-750000D01*
G01*
X239898000Y-90914000D02*
G75*
G03*
X239898000Y-89414000I0J750000D01*
G01*
%TD*%
%TO.C,REF888\u002A\u002A*%
X272720000Y-151460000D02*
G75*
G03*
X272720000Y-151460000I-3150000J0D01*
G01*
%TD*%
%TO.C,R2*%
X238918000Y-96564000D02*
G75*
G03*
X238918000Y-96564000I-650000J0D01*
G01*
X245238000Y-96564000D02*
X245238000Y-96564000D01*
X246538000Y-96564000D02*
X246538000Y-96564000D01*
X245238000Y-96564000D02*
G75*
G03*
X246538000Y-96564000I650000J0D01*
G01*
X246538000Y-96564000D02*
G75*
G03*
X245238000Y-96564000I-650000J0D01*
G01*
%TD*%
%TO.C,U1*%
X215187000Y-101440000D02*
X215187000Y-102940000D01*
X216687000Y-102940000D01*
X216687000Y-101440000D01*
X215187000Y-101440000D01*
X218477000Y-102940000D02*
X218477000Y-102940000D01*
X218477000Y-101440000D02*
X218477000Y-101440000D01*
X218477000Y-102940000D02*
G75*
G03*
X218477000Y-101440000I0J750000D01*
G01*
X218477000Y-101440000D02*
G75*
G03*
X218477000Y-102940000I0J-750000D01*
G01*
X221017000Y-102940000D02*
X221017000Y-102940000D01*
X221017000Y-101440000D02*
X221017000Y-101440000D01*
X221017000Y-102940000D02*
G75*
G03*
X221017000Y-101440000I0J750000D01*
G01*
X221017000Y-101440000D02*
G75*
G03*
X221017000Y-102940000I0J-750000D01*
G01*
X223557000Y-102940000D02*
X223557000Y-102940000D01*
X223557000Y-101440000D02*
X223557000Y-101440000D01*
X223557000Y-102940000D02*
G75*
G03*
X223557000Y-101440000I0J750000D01*
G01*
X223557000Y-101440000D02*
G75*
G03*
X223557000Y-102940000I0J-750000D01*
G01*
X226097000Y-102940000D02*
X226097000Y-102940000D01*
X226097000Y-101440000D02*
X226097000Y-101440000D01*
X226097000Y-102940000D02*
G75*
G03*
X226097000Y-101440000I0J750000D01*
G01*
X226097000Y-101440000D02*
G75*
G03*
X226097000Y-102940000I0J-750000D01*
G01*
X228637000Y-102940000D02*
X228637000Y-102940000D01*
X228637000Y-101440000D02*
X228637000Y-101440000D01*
X228637000Y-102940000D02*
G75*
G03*
X228637000Y-101440000I0J750000D01*
G01*
X228637000Y-101440000D02*
G75*
G03*
X228637000Y-102940000I0J-750000D01*
G01*
X231177000Y-102940000D02*
X231177000Y-102940000D01*
X231177000Y-101440000D02*
X231177000Y-101440000D01*
X231177000Y-102940000D02*
G75*
G03*
X231177000Y-101440000I0J750000D01*
G01*
X231177000Y-101440000D02*
G75*
G03*
X231177000Y-102940000I0J-750000D01*
G01*
X233717000Y-102940000D02*
X233717000Y-102940000D01*
X233717000Y-101440000D02*
X233717000Y-101440000D01*
X233717000Y-102940000D02*
G75*
G03*
X233717000Y-101440000I0J750000D01*
G01*
X233717000Y-101440000D02*
G75*
G03*
X233717000Y-102940000I0J-750000D01*
G01*
X233717000Y-95320000D02*
X233717000Y-95320000D01*
X233717000Y-93820000D02*
X233717000Y-93820000D01*
X233717000Y-95320000D02*
G75*
G03*
X233717000Y-93820000I0J750000D01*
G01*
X233717000Y-93820000D02*
G75*
G03*
X233717000Y-95320000I0J-750000D01*
G01*
X231177000Y-95320000D02*
X231177000Y-95320000D01*
X231177000Y-93820000D02*
X231177000Y-93820000D01*
X231177000Y-95320000D02*
G75*
G03*
X231177000Y-93820000I0J750000D01*
G01*
X231177000Y-93820000D02*
G75*
G03*
X231177000Y-95320000I0J-750000D01*
G01*
X228637000Y-95320000D02*
X228637000Y-95320000D01*
X228637000Y-93820000D02*
X228637000Y-93820000D01*
X228637000Y-95320000D02*
G75*
G03*
X228637000Y-93820000I0J750000D01*
G01*
X228637000Y-93820000D02*
G75*
G03*
X228637000Y-95320000I0J-750000D01*
G01*
X226097000Y-95320000D02*
X226097000Y-95320000D01*
X226097000Y-93820000D02*
X226097000Y-93820000D01*
X226097000Y-95320000D02*
G75*
G03*
X226097000Y-93820000I0J750000D01*
G01*
X226097000Y-93820000D02*
G75*
G03*
X226097000Y-95320000I0J-750000D01*
G01*
X223557000Y-95320000D02*
X223557000Y-95320000D01*
X223557000Y-93820000D02*
X223557000Y-93820000D01*
X223557000Y-95320000D02*
G75*
G03*
X223557000Y-93820000I0J750000D01*
G01*
X223557000Y-93820000D02*
G75*
G03*
X223557000Y-95320000I0J-750000D01*
G01*
X221017000Y-95320000D02*
X221017000Y-95320000D01*
X221017000Y-93820000D02*
X221017000Y-93820000D01*
X221017000Y-95320000D02*
G75*
G03*
X221017000Y-93820000I0J750000D01*
G01*
X221017000Y-93820000D02*
G75*
G03*
X221017000Y-95320000I0J-750000D01*
G01*
X218477000Y-95320000D02*
X218477000Y-95320000D01*
X218477000Y-93820000D02*
X218477000Y-93820000D01*
X218477000Y-95320000D02*
G75*
G03*
X218477000Y-93820000I0J750000D01*
G01*
X218477000Y-93820000D02*
G75*
G03*
X218477000Y-95320000I0J-750000D01*
G01*
X215937000Y-95320000D02*
X215937000Y-95320000D01*
X215937000Y-93820000D02*
X215937000Y-93820000D01*
X215937000Y-95320000D02*
G75*
G03*
X215937000Y-93820000I0J750000D01*
G01*
X215937000Y-93820000D02*
G75*
G03*
X215937000Y-95320000I0J-750000D01*
G01*
%TD*%
M02*
